<svg width="281" height="50" viewBox="0 0 281 50" fill="none" xmlns="http://www.w3.org/2000/svg">
<path d="M42.77 15.82C43.12 14.49 44.38 13.51 45.78 13.51H54.11C55.44 13.51 56.35 14.77 55.93 15.96L45.5 46.9C45.08 48.16 43.89 49 42.56 49H36.68C35.35 49 34.16 48.09 33.74 46.83L28.56 30.66L23.38 46.83C22.96 48.09 21.77 49 20.44 49H14.56C13.23 49 12.04 48.16 11.62 46.9L1.26 15.96C0.84 14.77 1.75 13.51 3.01 13.51H11.34C12.74 13.51 14 14.49 14.35 15.82L18.55 31.85L23.73 15.68C24.08 14.42 25.34 13.51 26.67 13.51H30.45C31.85 13.51 33.04 14.42 33.46 15.68L38.57 31.85L42.77 15.82ZM85.7117 13.51H93.3417C94.7417 13.51 95.8617 14.63 95.8617 16.03V46.48C95.8617 47.88 94.7417 49 93.3417 49H85.0817C84.1017 49 83.2617 48.16 83.2617 47.11V45.22C81.4417 47.81 78.4317 49.84 73.5317 49.84C62.4717 49.84 60.5117 40.88 60.5117 35.7V16.03C60.5117 14.63 61.6317 13.51 63.0317 13.51H70.6617C72.0617 13.51 73.1817 14.63 73.1817 16.03V32.62C73.1817 35.42 75.0717 37.52 78.2217 37.52C81.3017 37.52 83.2617 35.42 83.2617 32.62V16.03C83.2617 14.63 84.3817 13.51 85.7117 13.51ZM117.945 37.8H129.915C131.315 37.8 132.435 38.92 132.435 40.25V46.48C132.435 47.88 131.315 49 129.915 49H104.225C102.895 49 101.775 47.88 101.775 46.48V41.44C101.775 40.67 102.055 39.97 102.545 39.41L115.565 24.71H104.855C103.525 24.71 102.405 23.59 102.405 22.26V16.03C102.405 14.63 103.525 13.51 104.855 13.51H129.285C130.685 13.51 131.805 14.63 131.805 16.03V21.07C131.805 21.84 131.525 22.54 130.965 23.1L117.945 37.8ZM153.423 37.8H165.393C166.793 37.8 167.913 38.92 167.913 40.25V46.48C167.913 47.88 166.793 49 165.393 49H139.703C138.373 49 137.253 47.88 137.253 46.48V41.44C137.253 40.67 137.533 39.97 138.023 39.41L151.043 24.71H140.333C139.003 24.71 137.883 23.59 137.883 22.26V16.03C137.883 14.63 139.003 13.51 140.333 13.51H164.763C166.163 13.51 167.283 14.63 167.283 16.03V21.07C167.283 21.84 167.003 22.54 166.443 23.1L153.423 37.8ZM173.852 2.52C173.852 1.12 174.972 -3.33786e-06 176.302 -3.33786e-06H183.932C185.332 -3.33786e-06 186.452 1.12 186.452 2.52V46.48C186.452 47.88 185.332 49 183.932 49H176.302C174.972 49 173.852 47.88 173.852 46.48V2.52ZM210.131 12.67C220.001 12.67 228.751 19.53 228.331 32.27C228.331 33.6 227.211 34.72 225.881 34.72H203.621C204.671 38.15 207.331 40.11 211.461 40.11C213.911 40.11 215.871 39.13 217.131 38.08C217.691 37.52 218.531 37.52 219.231 37.87L224.761 41.16C225.741 41.79 225.951 43.12 225.251 44.03C222.381 47.46 217.341 49.84 211.461 49.84C199.491 49.84 191.371 42.35 191.371 31.29C191.371 20.86 199.211 12.67 210.131 12.67ZM203.621 27.86H216.711C215.941 24.5 213.771 22.4 210.131 22.4C206.841 22.4 204.601 24.64 203.621 27.86ZM250.333 27.02C259.223 28.91 262.863 31.43 262.863 37.94C262.863 45.43 257.263 49.84 246.833 49.84C240.533 49.84 234.163 48.16 231.713 43.54C231.223 42.49 231.713 41.23 232.833 40.88L240.393 38.57C241.233 38.29 242.073 38.57 242.563 39.2C243.193 40.18 244.453 41.02 246.693 41.02C249.143 41.02 250.333 39.9 250.333 38.43C250.333 36.26 247.323 36.12 243.193 35.21C236.333 33.74 232.063 31.29 232.063 24.29C232.063 16.87 238.993 12.67 247.883 12.67C253.203 12.67 258.733 14.84 261.113 19.46C261.603 20.51 261.043 21.77 259.853 22.12L253.343 23.66C252.573 23.87 251.733 23.59 251.313 22.96C250.683 21.98 249.563 21.35 247.953 21.35C245.713 21.35 244.313 22.33 244.313 24.01C244.313 26.18 247.463 26.46 250.333 27.02ZM273.792 36.19C277.572 36.19 280.652 39.27 280.652 43.05C280.652 46.83 277.572 49.91 273.792 49.91C269.942 49.91 266.932 46.83 266.932 43.05C266.932 39.27 269.942 36.19 273.792 36.19Z" fill="white"/>
</svg>
