<svg width="1760" height="1760" viewBox="0 0 1760 1760" fill="none" xmlns="http://www.w3.org/2000/svg">
<rect width="1760" height="1760" fill="white"/>
<path d="M492.198 424.003C387.162 444.675 470.968 768.172 483.818 850.862C494.992 920.701 496.109 992.217 487.729 1062.62C481.583 1111.78 470.968 1160.95 475.996 1210.12C481.024 1259.28 504.49 1310.13 549.186 1331.36C607.849 1358.73 675.452 1327.45 736.351 1306.22C821.832 1276.6 911.783 1247.55 994.471 1283.87C1037.49 1302.86 1171.02 1427.46 1310.14 1316.27C1433.61 1217.38 1407.91 1058.7 1382.21 1011.77C1335.84 926.288 1235.83 907.292 1182.19 825.72C1128 743.588 1151.47 668.162 1220.74 598.322C1262.65 556.418 1314.61 508.369 1319.64 455.291C1322.43 423.444 1293.38 389.362 1240.3 399.978C1050.9 436.853 631.874 397.184 492.198 424.561V424.003Z" fill="#424242" stroke="black" stroke-width="20" stroke-miterlimit="10"/>
<path d="M716.242 910.642C702.834 848.066 736.914 782.138 788.873 744.145C801.723 735.206 815.132 726.825 830.776 723.472C859.828 716.768 890.557 725.707 915.698 741.351C960.395 769.287 990.564 818.454 996.151 870.415C996.151 876.002 996.71 882.148 992.799 886.059C990.006 888.852 986.653 889.411 982.743 890.529C914.022 907.849 844.743 920.699 774.906 929.639C753.116 932.432 723 936 716.242 910.642Z" fill="white" stroke="black" stroke-width="20" stroke-miterlimit="10"/>
<path d="M854.237 900.589C868.74 900.589 880.496 887.582 880.496 871.536C880.496 855.49 868.74 842.483 854.237 842.483C839.735 842.483 827.979 855.49 827.979 871.536C827.979 887.582 839.735 900.589 854.237 900.589Z" fill="black"/>
</svg>
