<svg width="1760" height="1760" viewBox="0 0 1760 1760" fill="none" xmlns="http://www.w3.org/2000/svg">
<rect width="1760" height="1760" fill="white"/>
<path d="M430.705 731.743C418.548 654.041 420.663 618.625 471.406 558.895C522.149 499.164 605.135 468.506 682.835 482.25C725.649 489.65 765.292 509.736 806.521 522.951C954.521 569.467 1114.15 528.765 1269.02 532.994C1302.85 534.051 1339.32 538.28 1365.22 559.952C1402.75 591.667 1404.87 648.226 1403.81 697.385C1401.69 800.988 1399.58 905.119 1397.47 1008.72C1395.88 1075.32 1392.18 1148.8 1345.14 1195.84C1307.08 1234.43 1249.47 1245.53 1196.08 1252.93C977.778 1283.59 755.778 1289.93 535.892 1271.43C512.634 1269.32 487.791 1266.67 468.763 1252.93C415.377 1214.87 440.748 1123.43 397.934 1073.74C370.977 1042.02 330.805 992.865 377.32 922.034C415.905 863.89 448.148 839.046 431.233 731.214L430.705 731.743Z" fill="#FFB0EB" stroke="black" stroke-width="20" stroke-miterlimit="10"/>
<path d="M1126.3 801.515C1141.63 865.474 1102.52 933.662 1044.37 971.72C1030.1 981.235 1014.77 989.164 997.86 992.864C965.617 999.735 931.259 990.749 902.716 974.892C853.031 946.348 818.673 896.132 812.859 842.745C812.331 837.459 812.331 831.116 816.56 826.887C819.202 824.244 823.431 823.187 827.659 822.13C904.302 804.687 982.531 790.943 1060.76 781.957C1085.07 779.314 1121.02 778.257 1126.83 800.987L1126.3 801.515Z" fill="white" stroke="black" stroke-width="20" stroke-miterlimit="10"/>
<path d="M971.429 910.933C984.274 910.933 994.687 900.756 994.687 888.203C994.687 875.65 984.274 865.474 971.429 865.474C958.585 865.474 948.172 875.65 948.172 888.203C948.172 900.756 958.585 910.933 971.429 910.933Z" fill="black"/>
</svg>
