<svg width="1760" height="1760" viewBox="0 0 1760 1760" fill="none" xmlns="http://www.w3.org/2000/svg">
<rect width="1760" height="1760" fill="white"/>
<path d="M646.165 616.503C606.646 604.599 598.553 549.843 599.505 510.8C599.981 482.707 606.647 447.473 581.888 431.76C566.652 422.237 545.703 425.57 529.991 434.141C491.9 454.615 473.807 497.944 470.95 539.368C468.094 580.792 476.664 621.74 477.616 663.165C478.568 704.589 470.95 748.87 440.954 778.867C426.194 793.627 407.149 803.626 391.437 816.958C351.918 850.288 334.778 908.377 359.537 952.658C370.488 971.703 387.628 986.464 400.007 1005.03C440.002 1064.55 419.052 1142.16 429.051 1212.15C431.908 1233.58 438.097 1255.01 450.476 1273.1C480.949 1318.33 548.083 1335.47 600.933 1315C646.641 1297.38 681.875 1255.48 730.916 1250.72C809.001 1243.1 866.612 1331.19 945.173 1333.09C986.12 1334.05 1022.31 1311.19 1058.49 1294.05C1111.82 1269.29 1175.62 1255.48 1230.85 1277.39C1259.89 1288.81 1286.56 1310.24 1317.98 1308.33C1348.45 1306.91 1373.21 1283.58 1387.97 1257.86C1408.92 1222.15 1416.54 1179.78 1408.92 1139.3C1393.69 1058.36 1320.36 989.321 1327.5 907.424C1330.84 868.381 1352.26 833.623 1366.55 796.96C1389.88 737.918 1394.64 672.211 1380.83 610.789C1372.74 575.078 1352.74 535.559 1314.65 527.941C1293.7 523.655 1271.32 530.797 1250.37 526.036C1225.14 520.798 1207.04 500.801 1187.52 485.088C1101.82 413.667 973.742 423.666 871.374 467.471C789.956 502.229 689.969 629.835 646.165 616.503Z" fill="#FF6640" stroke="black" stroke-width="20" stroke-miterlimit="10"/>
<path d="M1056.59 764.107C1068.01 817.435 1038.5 874.096 994.215 906.473C983.264 914.091 971.837 921.234 958.506 924.09C933.747 929.804 907.56 922.186 886.134 908.854C848.044 885.047 822.333 843.146 817.571 798.865C817.571 794.104 817.095 788.866 820.428 785.534C822.809 783.153 825.666 782.677 828.999 781.724C887.562 766.964 946.602 756.013 1006.12 748.394C1024.69 746.014 1052.3 744.585 1056.59 764.107Z" fill="white" stroke="black" stroke-width="20" stroke-miterlimit="10"/>
<path d="M938.508 855.526C948.238 855.526 956.125 846.999 956.125 836.48C956.125 825.962 948.238 817.435 938.508 817.435C928.779 817.435 920.892 825.962 920.892 836.48C920.892 846.999 928.779 855.526 938.508 855.526Z" fill="black"/>
</svg>
