<svg width="1760" height="1760" viewBox="0 0 1760 1760" fill="none" xmlns="http://www.w3.org/2000/svg">
<rect width="1760" height="1760" fill="white"/>
<path d="M676.559 486.985C633.608 510.539 578.882 495.991 537.317 522.316C513.071 538.25 504.065 569.424 504.065 597.827C504.065 626.23 511.686 654.634 512.379 683.73C513.764 755.777 471.506 820.897 447.26 888.787C413.316 985.081 414.008 1093.84 455.573 1187.37C497.138 1280.89 578.882 1356.4 676.559 1385.5C731.285 1401.43 789.476 1403.51 846.281 1397.27C1065.19 1373.72 1268.85 1220.62 1335.36 1012.1C1352.68 956.678 1360.99 899.179 1367.92 841.679C1376.23 766.861 1381.77 688.579 1357.53 617.224C1340.9 568.731 1311.11 525.78 1277.17 486.292C1218.98 418.402 1141.39 357.439 1052.03 356.053C927.332 353.975 808.873 412.86 675.866 486.292L676.559 486.985Z" fill="white" stroke="black" stroke-width="20" stroke-miterlimit="10"/>
<path d="M725.739 782.797C631.526 837.525 633.604 994.782 691.102 1089C700.107 1104.24 711.191 1118.09 725.739 1128.49C743.75 1142.34 765.919 1148.58 788.086 1152.73C869.138 1167.28 959.194 1144.42 1015.31 1082.76C1071.42 1021.11 1085.97 919.271 1039.55 849.302C1010.46 806.351 962.658 779.333 913.473 768.249C864.288 757.165 803.326 737.075 725.739 782.797Z" fill="white" stroke="black" stroke-width="20" stroke-miterlimit="10"/>
<path d="M864.978 1013.49C887.168 1013.49 905.157 995.189 905.157 972.615C905.157 950.042 887.168 931.742 864.978 931.742C842.788 931.742 824.799 950.042 824.799 972.615C824.799 995.189 842.788 1013.49 864.978 1013.49Z" fill="black"/>
</svg>
