<svg width="1760" height="1760" viewBox="0 0 1760 1760" fill="none" xmlns="http://www.w3.org/2000/svg">
<rect width="1760" height="1760" fill="white"/>
<path d="M520.2 1091.71C481.371 1100.27 440.708 1072.75 402.49 1084.37C370.693 1093.85 351.431 1130.84 356.935 1163.56C362.438 1196.27 387.814 1223.79 418.388 1236.94C448.962 1250.08 483.511 1251.31 516.531 1246.41C584.405 1236.63 646.471 1203.92 710.064 1177.32C773.658 1150.72 843.367 1129.92 910.324 1145.82C973 1160.5 1024.67 1205.44 1085.21 1226.85C1153.69 1251.31 1234.1 1243.05 1294.03 1201.47C1353.95 1159.89 1389.11 1084.06 1378.72 1012.21C1372.91 972.159 1353.95 934.857 1347.53 894.804C1338.97 842.216 1352.42 788.098 1372.6 738.567C1392.48 690.565 1418.16 632.472 1386.97 591.196C1363.12 559.704 1316.65 555.73 1278.43 565.514C1240.22 575.298 1205.06 595.783 1166.53 603.732C1128.01 611.682 1080.93 603.121 1061.97 568.571C1055.86 557.564 1053.1 544.723 1046.68 533.716C1026.51 499.472 978.504 496.109 939.369 502.835C918.273 506.504 896.26 512.925 880.361 527.295C842.144 561.845 849.482 629.721 808.818 661.824C790.474 676.194 764.792 680.781 750.116 699.126C732.078 722.057 739.721 754.772 743.696 783.512C762.651 919.876 663.897 1059.91 520.505 1092.01L520.2 1091.71Z" fill="#DAD4FF" stroke="black" stroke-width="20" stroke-miterlimit="10"/>
<path d="M938.147 909.175C936.618 918.653 935.395 929.354 941.204 937.304C947.319 945.865 958.937 948.005 969.638 949.228C1014.28 954.12 1059.53 954.731 1104.16 951.674C1113.95 951.063 1124.34 949.839 1132.9 944.948C1151.86 933.941 1156.14 909.175 1158.28 887.467C1161.64 853.529 1160.73 810.724 1129.54 796.048C1118.84 791.156 1106.3 790.851 1094.38 791.156C1060.44 791.768 1026.51 794.825 992.874 800.023C982.785 801.552 972.39 803.692 964.746 810.113C957.103 816.533 942.121 882.881 938.147 908.869V909.175Z" fill="white" stroke="black" stroke-width="20" stroke-miterlimit="10"/>
<path d="M1055.55 891.442C1066.87 891.442 1076.04 882.955 1076.04 872.486C1076.04 862.017 1066.87 853.53 1055.55 853.53C1044.24 853.53 1035.07 862.017 1035.07 872.486C1035.07 882.955 1044.24 891.442 1055.55 891.442Z" fill="black"/>
</svg>
