<svg width="1760" height="1760" viewBox="0 0 1760 1760" fill="none" xmlns="http://www.w3.org/2000/svg">
<rect width="1760" height="1760" fill="white"/>
<path d="M749.867 375.43C717.655 354.56 660.944 382.69 625.556 398.115C598.789 409.912 570.66 422.161 553.42 445.754C542.078 461.18 536.18 479.781 530.736 497.929C501.7 591.845 472.664 685.761 443.628 779.677C428.656 827.769 413.684 878.129 422.758 927.583C438.183 1013.33 523.023 1085.47 503.514 1170.31C493.079 1215.23 454.063 1253.34 456.331 1299.62C459.507 1358.14 533.004 1391.26 588.808 1374.48C644.611 1357.69 684.535 1309.14 718.108 1261.51C751.681 1213.87 784.347 1162.15 835.16 1133.56C860.566 1119.5 891.418 1111.78 918.639 1122.22C933.157 1127.66 944.952 1137.65 954.933 1149.44C1001.21 1203.43 998.488 1286.91 1043.4 1341.81C1096.03 1406.24 1203.55 1406.69 1267.52 1353.15C1331.49 1299.62 1351.91 1206.15 1332.86 1124.94C1318.79 1065.51 1287.03 1011.97 1263.44 955.712C1239.85 899.453 1224.42 835.028 1245.75 777.862C1260.72 737.029 1292.93 704.363 1316.07 667.159C1339.21 629.956 1352.36 580.049 1327.86 543.753C1304.73 508.818 1255.73 500.651 1213.99 507.911C1172.25 515.17 1133.69 534.225 1092.4 541.484C1013.46 554.642 936.786 518.346 861.02 492.939C753.043 457.096 818.827 421.708 748.959 376.338L749.867 375.43Z" fill="url(#paint0_linear_30_27)" stroke="black" stroke-width="20" stroke-miterlimit="10"/>
<path d="M783.892 682.13C710.394 724.324 711.755 844.1 757.124 915.331C764.383 926.674 773.003 937.563 783.892 945.729C797.956 956.164 815.65 961.155 832.89 964.331C896.406 975.673 966.728 957.979 1010.74 910.794C1054.74 863.61 1066.08 786.027 1029.34 732.944C1006.65 700.278 969.45 679.861 930.886 670.787C892.323 661.713 845.14 647.195 783.892 682.13Z" fill="white" stroke="black" stroke-width="20" stroke-miterlimit="10"/>
<path d="M892.321 858.619C909.61 858.619 923.626 844.604 923.626 827.314C923.626 810.025 909.61 796.009 892.321 796.009C875.032 796.009 861.017 810.025 861.017 827.314C861.017 844.604 875.032 858.619 892.321 858.619Z" fill="black"/>
<defs>
<linearGradient id="paint0_linear_30_27" x1="669.564" y1="1156.7" x2="1051.58" y2="748.835" gradientUnits="userSpaceOnUse">
<stop stop-color="#FEFDAA"/>
<stop offset="0.5" stop-color="#84FAB0"/>
<stop offset="1" stop-color="#ABBDFF" stop-opacity="0.93"/>
</linearGradient>
</defs>
</svg>
