<svg width="1760" height="1760" viewBox="0 0 1760 1760" fill="none" xmlns="http://www.w3.org/2000/svg">
<rect width="1760" height="1760" fill="white"/>
<path d="M525.065 538.828C505.645 521.941 478.627 507.165 476.938 481.413C476.094 468.747 481.582 456.504 487.492 445.106C505.645 408.377 529.708 367.849 569.813 360.672C626.383 350.54 666.488 410.488 706.171 451.861C765.274 513.075 852.238 543.894 937.514 541.361C1022.79 538.828 1105.11 505.054 1173.08 453.972C1204.32 430.33 1236.83 402.045 1276.09 402.467C1314.5 403.311 1347.85 434.13 1360.52 470.436C1373.18 506.743 1368.12 547.271 1357.56 584C1329.7 680.255 1263 765.533 1255.82 865.166C1250.33 940.734 1280.31 1013.77 1295.08 1088.07C1309.86 1162.37 1306.06 1249.76 1248.64 1299.58C1209.38 1333.77 1150.7 1341.8 1101.73 1324.06C1052.76 1306.33 1013.93 1265.38 993.662 1217.26C964.11 1147.6 970.865 1064.43 929.915 1000.68C909.652 969.02 872.501 943.267 835.773 952.133C793.557 962.265 773.716 1010.39 766.54 1053.03C757.674 1106.22 757.674 1161.11 767.384 1214.3C772.872 1244.7 781.315 1275.94 773.294 1305.49C763.585 1340.95 730.656 1366.28 695.195 1375.99C659.733 1385.7 622.161 1381.48 585.856 1373.88C567.703 1370.08 549.127 1365.02 535.196 1352.77C495.091 1316.89 519.998 1252.3 527.597 1199.1C549.55 1053.45 368.866 887.118 455.83 768.066C567.28 615.663 544.906 555.292 525.486 538.406L525.065 538.828Z" fill="#FF3B83" stroke="black" stroke-width="20" stroke-miterlimit="10"/>
<path d="M1000.84 686.589C1010.97 733.872 985.216 783.688 945.955 812.396C936.245 819.15 926.114 825.483 914.293 828.016C892.341 833.082 869.121 826.327 850.124 814.507C816.351 793.398 793.556 756.247 789.334 716.985C789.334 712.764 788.912 708.12 791.867 705.165C793.978 703.054 796.511 702.631 799.466 701.787C851.391 688.7 903.739 678.99 956.509 672.235C972.973 670.124 997.036 669.28 1000.84 686.589Z" fill="white" stroke="black" stroke-width="20" stroke-miterlimit="10"/>
<path d="M896.564 767.224C905.191 767.224 912.184 759.663 912.184 750.337C912.184 741.011 905.191 733.45 896.564 733.45C887.937 733.45 880.944 741.011 880.944 750.337C880.944 759.663 887.937 767.224 896.564 767.224Z" fill="black"/>
</svg>
