<svg width="1760" height="1760" viewBox="0 0 1760 1760" fill="none" xmlns="http://www.w3.org/2000/svg">
<rect width="1760" height="1760" fill="white"/>
<path d="M516.363 538.528C481.641 520.276 477.189 467.745 500.782 436.138C524.376 404.531 566.666 392.511 605.84 394.291C631.215 395.182 656.589 401.414 677.956 415.215C739.834 455.726 764.318 558.561 838.215 557.671C895.196 556.78 926.358 491.34 973.1 458.842C1019.84 426.789 1080.83 428.57 1137.36 432.576C1157.84 433.912 1180.99 437.028 1193.9 453.055C1209.04 471.752 1203.25 498.908 1204.58 522.947C1209.93 623.556 1343.92 676.532 1358.61 776.251C1367.07 832.343 1334.57 885.764 1323.89 940.966C1310.09 1012.19 1331.9 1085.2 1345.7 1156.43C1359.5 1227.66 1364.84 1307.79 1323 1367.44C1280.71 1427.1 1193.01 1449.36 1127.13 1416.41C1065.69 1385.7 1029.64 1316.69 967.312 1286.87C895.641 1253.03 811.061 1280.19 739.835 1314.91C668.609 1349.64 597.383 1393.71 518.589 1393.26C500.337 1393.26 479.86 1389.7 468.731 1375.01C461.163 1365.66 458.936 1353.2 456.71 1341.62C441.13 1255.26 425.995 1169.34 410.414 1082.98C402.401 1038.9 394.388 993.942 399.73 948.979C408.188 872.854 453.149 806.523 487.427 737.966C521.704 669.409 550.045 593.079 522 545L516.363 538.528Z" fill="#63B6FF" stroke="black" stroke-width="20" stroke-miterlimit="10"/>
<path d="M601.831 907.133C529.714 948.534 531.05 1066.06 575.566 1135.95C582.689 1147.08 591.147 1157.77 601.831 1165.78C615.631 1176.02 632.993 1180.92 649.909 1184.03C712.232 1195.16 781.231 1177.8 824.412 1131.5C867.593 1085.2 878.722 1009.08 842.664 956.992C820.406 924.94 783.902 904.907 746.063 896.003C708.224 887.1 661.928 872.854 601.831 907.133Z" fill="white" stroke="black" stroke-width="20" stroke-miterlimit="10"/>
<path d="M708.222 1080.31C725.186 1080.31 738.939 1066.55 738.939 1049.59C738.939 1032.62 725.186 1018.87 708.222 1018.87C691.258 1018.87 677.506 1032.62 677.506 1049.59C677.506 1066.55 691.258 1080.31 708.222 1080.31Z" fill="black"/>
</svg>
