<svg width="1760" height="1760" viewBox="0 0 1760 1760" fill="none" xmlns="http://www.w3.org/2000/svg">
<rect width="1760" height="1760" fill="white"/>
<path d="M746.719 591.871C694.64 545.37 671.855 470.969 631.866 420.749C613.266 397.033 572.812 425.864 546.307 439.349C501.668 462.599 457.492 487.244 414.713 514.215C404.948 520.26 395.183 526.77 390.068 537C380.304 556.065 390.069 578.851 398.903 598.381C424.013 656.042 433.778 720.677 426.803 782.988C421.688 827.629 408.668 874.129 423.548 916.91C460.283 1022 630.936 1020.14 676.97 1121.51C705.335 1183.82 673.715 1259.15 696.035 1323.79C724.4 1404.7 846.692 1431.67 905.746 1369.36C941.551 1332.16 951.316 1276.36 984.796 1236.83C1028.51 1184.75 1112.2 1172.66 1169.4 1209.86C1198.23 1228.46 1218.69 1257.29 1245.19 1279.15C1271.7 1301 1307.97 1316.82 1339.59 1303.33C1357.26 1295.89 1370.28 1280.54 1379.57 1263.8C1421.42 1192.66 1408.4 1093.61 1348.89 1036.42C1310.29 999.216 1257.75 980.151 1212.18 952.25C1100.11 883.895 1163.82 773.223 1095 744.858C948.991 684.407 873.197 704.867 747.183 592.336L746.719 591.871Z" fill="#99E6FF" stroke="black" stroke-width="20" stroke-miterlimit="10"/>
<path d="M911.79 1038.27C910.86 1045.71 910.394 1054.09 914.579 1060.6C918.764 1067.11 927.135 1068.5 934.11 1069.43C964.799 1072.22 995.024 1071.76 1025.71 1068.04C1032.22 1067.11 1039.2 1066.18 1045.24 1061.99C1057.8 1053.16 1060.12 1033.16 1061.05 1015.95C1062.45 988.984 1060.59 955.504 1039.2 944.809C1031.76 941.089 1023.39 941.089 1015.02 942.019C991.769 943.414 968.983 946.669 946.199 951.784C939.689 953.179 932.249 955.039 927.599 960.619C922.949 966.199 914.115 1018.28 912.255 1039.21L911.79 1038.27Z" fill="white" stroke="black" stroke-width="20" stroke-miterlimit="10"/>
<path d="M991.223 1022.73C998.922 1022.46 1004.93 1015.58 1004.64 1007.36C1004.34 999.152 997.868 992.715 990.168 992.988C982.469 993.261 976.463 1000.14 976.754 1008.35C977.045 1016.57 983.523 1023 991.223 1022.73Z" fill="black"/>
</svg>
