<svg width="1760" height="1760" viewBox="0 0 1760 1760" fill="none" xmlns="http://www.w3.org/2000/svg">
<rect width="1760" height="1760" fill="white"/>
<path d="M475.446 837.728C434.541 855.417 455.546 913.276 475.446 953.076C495.715 993.246 570.892 1044.47 607.376 1070.64C684.395 1126.28 659.704 1200.73 611.429 1279.22C607.743 1285.12 604.058 1291.75 604.427 1298.75C605.901 1314.97 627.276 1319.39 643.49 1320.5C674.446 1323.08 704.663 1331.18 732.302 1344.82C752.202 1354.4 770.628 1366.56 791.633 1373.2C859.809 1395.68 936.829 1353.3 972.575 1291.01C1010.53 1224.68 1011.27 1140.29 1056.23 1078.38C1072.81 1055.53 1094.55 1036.73 1115.19 1017.57C1179.31 957.499 1236.8 850.626 1238.64 762.549C1239.75 715.746 1215.43 682.21 1211.74 635.776C1205.11 555.806 1249.7 480.258 1242.7 400.288C1240.85 378.914 1225.01 357.171 1203.63 356.065C1147.62 353.117 1141.35 450.776 1086.45 480.627C1048.12 501.633 1055.12 495.368 1024.17 583.814C1000.21 651.623 807.111 791.662 588.213 813.037C549.887 816.722 502.348 825.567 475.446 836.991V837.728Z" fill="#E6E1E1" stroke="black" stroke-width="20" stroke-miterlimit="10"/>
<path d="M1006.11 706.533C965.944 731.962 966.68 804.93 991.37 848.416C995.424 855.418 1000.22 862.051 1006.11 866.842C1013.85 873.107 1023.43 876.424 1032.65 878.266C1067.29 884.9 1105.24 874.581 1129.2 845.836C1153.15 817.091 1159.41 769.92 1139.51 737.49C1127.35 717.589 1107.09 705.059 1085.71 699.9C1064.34 694.741 1034.38 689.015 1001.22 710.021L1006.11 706.533Z" fill="white" stroke="black" stroke-width="20" stroke-miterlimit="10"/>
<path d="M1065.07 813.406C1074.43 813.406 1082.02 804.991 1082.02 794.611C1082.02 784.231 1074.43 775.816 1065.07 775.816C1055.71 775.816 1048.12 784.231 1048.12 794.611C1048.12 804.991 1055.71 813.406 1065.07 813.406Z" fill="black"/>
</svg>
