<svg width="1760" height="1760" viewBox="0 0 1760 1760" fill="none" xmlns="http://www.w3.org/2000/svg">
<rect width="1760" height="1760" fill="white"/>
<path d="M1212.52 559.601C1126.3 596.254 1066.74 614.581 973.863 603.751C957.619 601.669 941.375 598.753 925.548 602.085C874.318 612.915 855.159 683.722 804.763 696.634C778.106 703.298 750.617 691.636 724.378 684.138C698.138 676.641 665.234 674.975 647.324 695.801C633.996 711.212 633.581 733.287 629.832 753.28C618.17 820.755 563.191 902.808 531.537 934.047C390.342 1075.24 339.113 1278.09 377.014 1290.17C453.651 1315.16 500.299 1203.95 581.101 1201.03C659.403 1198.12 701.47 1307.24 777.273 1328.07C816.008 1338.9 858.492 1326.4 890.146 1302.25C921.801 1278.09 943.875 1242.27 958.452 1205.2C976.362 1160.63 986.774 1109.82 1022.18 1077.33C1058 1044.42 1110.48 1038.59 1158.79 1030.26C1212.52 1021.1 1266.66 1006.1 1310.4 973.199C1354.13 940.294 1385.78 887.397 1380.37 833.25C1375.37 782.436 1340.38 738.702 1335.39 687.887C1332.05 654.149 1342.47 617.913 1328.31 587.091C1311.23 550.021 1266.66 536.276 1212.1 559.184L1212.52 559.601Z" fill="#FFF570" stroke="black" stroke-width="20" stroke-miterlimit="10"/>
<path d="M980.107 734.535C930.96 759.942 931.793 831.999 962.198 874.9C967.196 881.981 973.027 888.228 980.107 893.227C989.687 899.474 1001.35 902.39 1012.59 904.472C1055.08 911.137 1101.73 900.724 1131.3 872.401C1160.87 844.078 1168.37 797.012 1143.79 765.357C1128.8 745.781 1103.81 733.285 1077.99 727.87C1052.16 722.456 1020.51 713.709 980.107 734.535Z" fill="white" stroke="black" stroke-width="20" stroke-miterlimit="10"/>
<path d="M1052.58 840.746C1064.08 840.746 1073.4 832.354 1073.4 822.002C1073.4 811.651 1064.08 803.259 1052.58 803.259C1041.08 803.259 1031.75 811.651 1031.75 822.002C1031.75 832.354 1041.08 840.746 1052.58 840.746Z" fill="black"/>
</svg>
