<svg width="1760" height="1760" viewBox="0 0 1760 1760" fill="none" xmlns="http://www.w3.org/2000/svg">
<rect width="1760" height="1760" fill="white"/>
<path d="M748.219 478.655C679.5 490.5 617.306 503.012 569.356 548.68C549.947 567.328 532.822 588.64 524.45 614.138C518.741 631.264 517.6 649.531 516.458 667.418C511.511 739.726 506.183 812.034 501.236 884.342C498.572 922.78 495.528 962.359 480.305 997.752C462.038 1039.99 427.788 1072.72 400.007 1109.26C372.226 1145.79 348.631 1191.08 358.145 1235.99C360.429 1247.02 364.615 1257.68 371.465 1266.81C379.076 1277.09 389.732 1285.08 401.149 1290.79C445.294 1312.86 500.475 1303.73 541.956 1277.09C583.437 1250.45 613.881 1209.73 638.617 1166.72C665.637 1120.3 687.33 1070.82 703.313 1019.82C720.058 965.784 731.094 909.079 758.494 859.605C785.894 810.131 836.128 767.888 892.451 769.41C953.341 771.313 1005.86 831.063 999.768 891.573C997.866 911.363 990.254 931.152 992.538 950.942C995.202 974.918 1012.71 995.849 1034.02 1007.65C1055.33 1019.44 1080.07 1023.63 1104.04 1025.15C1120.79 1026.29 1138.29 1025.91 1153.9 1019.44C1181.68 1007.27 1196.9 977.962 1213.26 952.845C1235.33 918.974 1263.5 888.909 1296.22 864.553C1323.24 844.763 1353.31 828.018 1374.24 801.759C1399.36 770.171 1407.35 727.548 1402.78 687.207C1398.21 646.867 1381.85 609.191 1362.06 573.798C1347.98 548.68 1332 523.943 1309.54 505.676C1287.09 487.408 1257.79 476.372 1229.25 481.319C1197.66 487.028 1172.16 511.004 1140.58 515.951C1100.62 522.421 1062.94 497.684 1026.41 480.178C938.118 438.315 801 469.346 768 475L748.219 478.655Z" fill="#8CFFD9" stroke="black" stroke-width="20" stroke-miterlimit="10"/>
<path d="M804.542 623.653C813.676 666.276 790.462 711.183 755.07 737.062C746.317 743.151 737.184 748.86 726.528 751.143C706.739 755.71 685.808 749.621 668.683 738.965C638.238 719.937 617.688 686.446 613.882 651.054C613.882 647.248 613.501 643.062 616.165 640.398C618.068 638.495 620.352 638.114 623.016 637.353C669.825 625.555 717.014 616.802 764.584 610.713C779.426 608.81 801.117 608.049 804.542 623.653Z" fill="white" stroke="black" stroke-width="20" stroke-miterlimit="10"/>
<path d="M710.545 695.96C718.322 695.96 724.626 689.145 724.626 680.737C724.626 672.33 718.322 665.515 710.545 665.515C702.769 665.515 696.465 672.33 696.465 680.737C696.465 689.145 702.769 695.96 710.545 695.96Z" fill="black"/>
</svg>
