<svg width="1760" height="1760" viewBox="0 0 1760 1760" fill="none" xmlns="http://www.w3.org/2000/svg">
<rect width="1760" height="1760" fill="white"/>
<path d="M1156.24 566.177C1166.07 522.527 1164.89 474.159 1180.23 432.082C1195.57 390.006 1235.28 353.041 1280.11 356.187C1327.3 359.726 1361.9 405.735 1369.77 452.137C1377.63 498.539 1365.83 546.121 1356.4 592.13C1334.38 703.417 1328.87 818.242 1339.88 931.495C1349.71 1029.8 1371.73 1129.29 1350.1 1225.64C1328.48 1321.98 1244.72 1414.39 1146.81 1403.38C1107.48 1399.06 985.976 1382.54 948.619 1369.17C866.041 1339.28 777.565 1343.61 712.289 1366.81C599.825 1406.53 400.459 1410.85 383.551 1329.45C373.327 1280.69 381.191 1196.14 461.017 1167.44C554.998 1133.62 673.752 1148.96 733.13 1053.79C810.989 929.135 714.255 893.351 719.367 801.333C720.153 786.783 719.367 741.561 726.052 728.584C739.028 703.023 775.205 691.226 801.945 700.664C1097.26 804.479 1142.48 627.522 1156.24 566.177Z" fill="#442FBD" stroke="black" stroke-width="20" stroke-miterlimit="10"/>
<path d="M995.807 966.887C917.555 1010.93 931.317 1121.82 971.82 1190.25C978.111 1201.26 985.977 1211.48 995.807 1219.35C1008.39 1229.18 1024.12 1234.29 1039.46 1237.04C1096.08 1247.66 1158.6 1231.14 1197.93 1185.92C1237.25 1140.7 1247.08 1066.38 1214.44 1015.65C1194.39 984.19 1160.96 964.921 1126.75 956.27C1092.54 947.619 1045.35 938.967 995.807 966.887Z" fill="white" stroke="black" stroke-width="20" stroke-miterlimit="10"/>
<path d="M1092.54 1135.19C1107.96 1135.19 1120.46 1121.81 1120.46 1105.31C1120.46 1088.8 1107.96 1075.42 1092.54 1075.42C1077.12 1075.42 1064.62 1088.8 1064.62 1105.31C1064.62 1121.81 1077.12 1135.19 1092.54 1135.19Z" fill="black"/>
</svg>
