<svg width="1760" height="1760" viewBox="0 0 1760 1760" fill="none" xmlns="http://www.w3.org/2000/svg">
<rect width="1760" height="1760" fill="white"/>
<path d="M819.033 375.895C763.39 417.819 767.582 530.631 728.327 588.562C703.555 625.15 651.342 641.157 607.514 634.297C581.217 630.104 535.484 601.901 504.233 637.727C475.649 670.503 484.034 819.522 503.471 925.475C518.715 1008.94 533.959 1105.36 488.607 1177.02C471.838 1203.31 447.065 1222.37 424.199 1258.58C405.143 1289.07 422.675 1313.46 442.493 1343.57C462.31 1373.68 511.856 1396.54 547.68 1398.45C603.323 1401.5 633.049 1378.25 661.251 1330.23C689.454 1282.21 699.362 1225.8 708.509 1170.92C717.656 1116.04 726.803 1059.63 754.243 1011.23C779.777 965.874 830.847 926.999 881.154 941.482C916.217 951.391 939.845 984.168 956.232 1016.56C972.62 1048.96 985.579 1084.78 1011.49 1110.32C1044.27 1143.48 1096.86 1155.29 1140.69 1139.28C1184.52 1123.28 1216.91 1079.83 1219.58 1033.33C1221.11 1005.51 1213.1 977.689 1210.05 949.867C1207 922.045 1210.82 890.793 1231.02 871.355C1247.02 856.11 1269.89 851.156 1288.94 840.484C1325.53 820.285 1348.4 777.599 1344.59 736.056C1340.78 694.514 1310.29 656.783 1270.65 643.825C1215.77 625.912 1155.55 654.115 1098.39 646.111C1065.99 641.538 1033.6 627.436 1017.21 610.667C973.383 565.694 982.148 491.756 965.76 431.158C953.946 387.71 889.539 322.919 819.033 375.895Z" fill="#FF82C1" stroke="black" stroke-width="20" stroke-miterlimit="10"/>
<path d="M1007 737.961C1051 737.961 1089.62 752.063 1115.54 787.507C1121.64 796.273 1127.35 805.42 1129.64 816.092C1134.21 835.91 1128.12 856.872 1117.45 874.022C1098.39 904.512 1064.85 925.093 1029.41 928.904C1025.6 928.904 1021.4 929.285 1018.74 926.617C1016.83 924.712 1016.45 922.425 1015.69 919.757C1003.87 872.879 995.108 825.62 989.01 777.979C987.105 763.115 984.374 741.391 1000 737.961L1007 737.961Z" fill="white" stroke="black" stroke-width="20" stroke-miterlimit="10"/>
<path d="M1106.01 832.1C1119.06 832.1 1129.64 821.862 1129.64 809.233C1129.64 796.604 1119.06 786.366 1106.01 786.366C1092.96 786.366 1082.38 796.604 1082.38 809.233C1082.38 821.862 1092.96 832.1 1106.01 832.1Z" fill="black"/>
</svg>
