<svg width="1760" height="1760" viewBox="0 0 1760 1760" fill="none" xmlns="http://www.w3.org/2000/svg">
<rect width="1760" height="1760" fill="white"/>
<path d="M782.763 374.18C726.686 399.703 724.888 464.409 730.999 512.579C737.829 566.141 753.646 601.37 760.476 654.932C764.789 688.723 732.078 784.704 668.092 775.717C655.151 773.919 627.113 771.762 616.688 779.311C598.715 792.612 619.924 822.808 620.283 845.096C621.002 868.102 611.656 890.749 595.12 906.926C576.068 925.619 549.109 934.606 528.619 951.861C496.267 979.541 485.123 1026.27 490.156 1068.33C502.018 1171.14 589.009 1186.24 651.197 1131.24C707.634 1081.63 747.176 1061.5 792.109 1089.18C876.944 1141.31 736.032 1363.1 879.46 1400.49C918.642 1410.55 959.621 1396.53 987.3 1367.06C1014.98 1337.58 1025.76 1190.55 1031.16 1150.65C1059.19 946.469 1272 1116.14 1272 875.292C1272 755.226 1176.38 686.207 1167.39 699.148C1106.64 788.298 992.693 804.475 916.126 712.808C893.839 685.847 898.871 627.252 903.903 592.742C915.047 518.69 958.903 493.526 930.505 422.709C921.878 401.5 866.159 335.715 782.763 373.461V374.18Z" fill="#84FAB0" stroke="black" stroke-width="20" stroke-miterlimit="10"/>
<path d="M792.108 850.847C780.965 864.507 790.671 945.03 799.298 952.938C807.206 960.128 917.204 960.128 924.034 955.814C934.818 948.984 925.83 861.631 924.392 858.036C920.438 846.892 808.284 830.716 792.108 850.487V850.847Z" fill="#F5F5F7" stroke="black" stroke-width="20" stroke-miterlimit="10"/>
<path d="M876.944 892.546C881.311 892.546 884.852 889.166 884.852 884.997C884.852 880.828 881.311 877.448 876.944 877.448C872.576 877.448 869.035 880.828 869.035 884.997C869.035 889.166 872.576 892.546 876.944 892.546Z" fill="black" stroke="black" stroke-width="20" stroke-miterlimit="10"/>
</svg>
