<svg width="1760" height="1760" viewBox="0 0 1760 1760" fill="none" xmlns="http://www.w3.org/2000/svg">
<rect width="1760" height="1760" fill="white"/>
<path d="M642.033 763.33C651.795 805.63 659.748 863.837 642.756 903.968C591.058 1025.08 512.607 993.99 466.693 1021.11C418.248 1049.67 407.403 1114.02 401.619 1170.06C397.642 1210.55 393.304 1251.04 389.327 1291.53C387.881 1306 386.435 1321.54 391.858 1334.92C402.342 1361.31 413.187 1369.26 440.663 1376.86C505.015 1394.57 542.614 1359.14 549.845 1302.02C554.544 1266.23 562.136 1212.36 585.273 1184.52C606.242 1159.57 683.247 1153.07 765.314 1147.28C826.773 1142.94 888.956 1146.56 948.608 1132.1C981.507 1124.14 1016.21 1107.51 1029.59 1076.42C1035.37 1063.04 1036.82 1047.86 1039.35 1033.4C1044.41 1004.84 1055.26 975.552 1078.76 958.921C1109.49 937.229 1148.89 930.36 1186.13 929.275C1358.58 924.575 1384.61 687.408 1143.83 693.916C1106.59 695 1065.74 689.939 1038.63 663.908C1010.07 636.793 1011.87 609.316 1024.89 572.078C1059.6 473.017 1052 358.049 949.692 378.295C805.082 406.495 836.534 478.44 848.826 529.055C855.695 557.978 866.902 587.986 860.756 617.27C838.342 721.754 813.396 723.2 764.952 727.177C729.161 730.069 626.487 692.108 642.756 762.969L642.033 763.33Z" fill="#DEB0FF" stroke="black" stroke-width="20" stroke-miterlimit="10"/>
<path d="M1223 771C1184.32 715.324 1114.19 756.462 1099.37 801.292C1074.78 876.13 1170.59 884.084 1204.93 870.346C1250.49 852.63 1243.98 800.931 1228.07 778.154L1223 771Z" fill="white" stroke="black" stroke-width="20" stroke-miterlimit="10"/>
<path d="M1193 799.123C1200.79 799.123 1207.1 793.943 1207.1 787.554C1207.1 781.164 1200.79 775.984 1193 775.984C1185.21 775.984 1178.9 781.164 1178.9 787.554C1178.9 793.943 1185.21 799.123 1193 799.123Z" fill="black"/>
</svg>
