<svg width="1760" height="1760" viewBox="0 0 1760 1760" fill="none" xmlns="http://www.w3.org/2000/svg">
<rect width="1760" height="1760" fill="white"/>
<path d="M679.27 647.648C662.78 637.443 636.255 631.461 619.048 654.334C586.787 696.911 654.178 737.378 663.14 756.379C677.478 786.641 674.251 823.94 657.045 852.443C639.839 880.945 609.37 901.706 576.391 910.151C544.847 918.244 510.793 915.781 480.324 926.338C414.725 948.858 381.388 1027.33 395.01 1094.18C401.104 1124.8 416.877 1155.41 443.761 1172.3C479.607 1194.47 527.641 1187.79 565.997 1169.84C604.352 1151.89 637.689 1125.15 675.686 1106.15C695.043 1096.3 716.909 1088.91 738.417 1091.72C776.414 1096.65 802.223 1132.19 817.636 1166.67C844.163 1225.79 856.708 1295.11 905.818 1338.04C961.379 1386.6 1053.5 1383.08 1110.5 1336.28C1167.49 1289.48 1187.93 1207.14 1168.21 1136.76C1154.59 1088.55 1124.48 1044.92 1119.1 995.306C1111.93 928.801 1151.72 864.055 1204.77 821.829C1225.92 805.291 1249.22 790.863 1266.07 770.102C1289.73 741.248 1297.97 700.782 1287.58 664.89C1277.18 628.998 1279.33 580.087 1235.96 570.234C1180.4 557.566 1125.2 582.198 1116.59 456.225C1115.16 435.464 1100.46 401.683 1048.84 390.775C1006.9 381.978 946.682 390.423 923.382 470.652C909.402 517.804 965.681 595.218 910.837 655.389C838.069 735.266 723.003 675.446 678.912 648L679.27 647.648Z" fill="#DAD4FF" stroke="black" stroke-width="20" stroke-miterlimit="10"/>
<path d="M1011.92 997.418C966.396 934.783 877.498 972.435 860.292 1023.11C831.257 1107.2 944.172 1116 984.679 1100.87C1038.09 1080.81 1030.56 1023.11 1011.92 997.418Z" fill="white" stroke="black" stroke-width="20" stroke-miterlimit="10"/>
<path d="M934.134 1056.18C943.439 1056.18 950.982 1050.35 950.982 1043.16C950.982 1035.97 943.439 1030.14 934.134 1030.14C924.829 1030.14 917.286 1035.97 917.286 1043.16C917.286 1050.35 924.829 1056.18 934.134 1056.18Z" fill="black"/>
</svg>
