<svg width="1760" height="1760" viewBox="0 0 1760 1760" fill="none" xmlns="http://www.w3.org/2000/svg">
<rect width="1760" height="1760" fill="white"/>
<path d="M877.9 370.496C844.04 394.23 856.065 448.977 851.318 489.801C846.572 530.624 828.534 577.46 788.345 587.586C768.092 592.65 744.991 587.586 726.954 598.346C712.397 606.89 705.436 623.663 696.892 638.22C666.196 691.068 608.918 724.613 579.172 778.094C558.603 814.804 552.59 859.741 563.033 900.564C573.792 943.286 601.323 980.944 609.551 1024.3C616.829 1062.59 611.134 1108.79 641.513 1133.16C668.411 1154.68 708.6 1145.19 740.878 1156.9C775.054 1169.24 796.257 1203.73 809.548 1237.91C822.839 1272.09 830.749 1308.48 851.318 1338.86C871.888 1369.24 910.495 1391.39 944.672 1378.73C972.519 1368.61 988.342 1339.49 998.784 1311.96C1009.23 1284.43 1017.14 1254.05 1038.34 1233.48C1074.1 1198.35 1132.01 1203.1 1178.53 1184.11C1184.54 1181.58 1190.24 1178.73 1194.35 1173.98C1200.05 1167.02 1201 1157.21 1201.63 1148.03C1205.11 1092.97 1205.11 1028.73 1162.07 993.919C1141.19 977.147 1114.29 971.134 1089.29 961.957C1064.29 952.78 1038.34 937.906 1029.48 912.589C1021.25 889.488 1030.43 862.589 1047.83 845.5C1065.24 828.411 1090.24 820.183 1114.61 818.285C1129.16 817.019 1144.35 817.968 1157.64 811.639C1185.49 798.664 1192.14 763.221 1194.35 732.524C1195.93 711.322 1196.88 689.803 1197.2 668.6C1197.83 629.359 1197.2 599.612 1150.05 614.802C1094.99 632.523 1042.14 643.916 1001.63 592.65C983.278 569.548 989.291 522.712 989.924 493.282C990.557 463.851 993.405 433.155 983.279 405.306C973.152 377.458 934.229 332.204 878.217 371.129L877.9 370.496Z" fill="#3EC790" stroke="black" stroke-width="20" stroke-miterlimit="10"/>
<path d="M773.472 942.969C763.978 947.4 743.093 940.754 729.169 929.045C707.65 910.69 699.423 878.412 709.549 852.146C719.676 825.88 747.523 807.208 776.004 808.474C777.586 808.474 779.168 808.474 780.751 809.424C782.649 810.689 783.282 812.905 783.915 814.803C796.89 860.373 788.028 936.324 774.104 942.969H773.472Z" fill="#FAFCFF" stroke="black" stroke-width="20" stroke-miterlimit="10"/>
<path d="M780.116 885.691C785.359 885.691 789.61 881.44 789.61 876.197C789.61 870.954 785.359 866.703 780.116 866.703C774.873 866.703 770.623 870.954 770.623 876.197C770.623 881.44 774.873 885.691 780.116 885.691Z" fill="black" stroke="black" stroke-width="20" stroke-miterlimit="10"/>
</svg>
