<svg width="1760" height="1760" viewBox="0 0 1760 1760" fill="none" xmlns="http://www.w3.org/2000/svg">
<rect width="1760" height="1760" fill="white"/>
<path d="M912.09 373.018C861.485 379.585 854.144 453.757 824.399 495.092C752.161 595.147 701.169 539.905 634.725 545.313C596.094 548.404 640.907 704.087 560.942 731.129C495.271 753.535 353.497 748.127 408.352 870.974C437.711 937.034 509.95 926.217 549.739 951.714C583.347 973.347 610.388 991.89 617.342 1031.29C624.295 1070.7 597.253 1169.59 650.563 1194.32C679.15 1207.45 712.759 1194.32 744.435 1193.55C779.975 1192.77 815.128 1210.16 836.761 1238.36C859.167 1267.72 865.734 1305.96 880.413 1339.57C895.093 1373.18 924.838 1406.79 961.537 1404.09C998.236 1401.38 1021.41 1367 1032.62 1333.39C1043.82 1299.78 1047.68 1262.69 1067 1232.95C1085.93 1203.98 1119.15 1185.05 1153.53 1183.11C1177.09 1181.96 1200.27 1188.52 1223.84 1190.07C1247.4 1191.61 1273.28 1187.75 1288.74 1169.98C1304.57 1151.82 1305.35 1125.17 1303.03 1100.83C1300.32 1069.54 1293.76 1036.32 1272.51 1013.52C1228.09 966.007 1138.85 980.687 1100.99 927.762C1078.59 896.085 1085.93 849.341 1111.81 820.367C1137.69 791.394 1178.64 779.418 1217.27 780.964C1228.09 781.35 1239.67 782.895 1249.72 778.646C1267.87 771.306 1274.83 749.672 1278.69 730.357C1291.05 669.319 1333.93 546.472 1264.4 514.022C1224.61 495.479 1199.89 535.269 1172.84 552.653C1134.6 576.991 1078.59 582.399 1038.02 562.311C997.462 542.223 971.195 506.682 971.195 432.51C971.195 410.49 969.649 364.133 912.476 371.859L912.09 373.018Z" fill="#2667FF" stroke="black" stroke-width="20" stroke-miterlimit="10"/>
<path d="M895.478 954.032C910.543 942.056 906.294 894.926 905.135 865.953C904.749 855.136 904.363 843.933 900.886 834.661C895.092 819.595 883.889 815.346 873.845 813.414C854.143 809.937 834.056 809.937 814.741 813.414C811.264 814.187 807.788 814.96 804.697 817.664C797.744 824.617 795.425 840.07 794.267 854.363C792.335 878.701 790.79 903.425 790.403 928.149C790.403 934.33 790.404 940.897 791.949 946.692C795.039 955.577 801.606 957.895 807.401 959.44C839.077 966.394 876.163 969.484 895.864 953.646L895.478 954.032Z" fill="white" stroke="black" stroke-width="20" stroke-miterlimit="10"/>
<path d="M816.289 859.771C819.49 859.771 822.084 856.831 822.084 853.204C822.084 849.577 819.49 846.636 816.289 846.636C813.089 846.636 810.495 849.577 810.495 853.204C810.495 856.831 813.089 859.771 816.289 859.771Z" fill="black" stroke="black" stroke-width="20" stroke-miterlimit="10"/>
</svg>
