<svg width="1760" height="1760" viewBox="0 0 1760 1760" fill="none" xmlns="http://www.w3.org/2000/svg">
<g clip-path="url(#clip0_10_206)">
<path d="M1760 0H0V1760H1760V0Z" fill="white"/>
<path d="M888.001 367.596C778.711 431.037 800.05 587.623 740.359 601.753C726.517 605.214 702.871 598.87 693.355 609.539C686.723 616.749 675.477 671.828 670.863 693.744C667.114 711.623 659.04 742.19 646.352 755.455C622.129 781.409 589.833 750.841 543.983 784.581C512.551 807.651 509.668 862.73 541.677 884.934C566.187 901.948 614.921 916.078 638.855 933.669C676.342 961.064 670.575 995.669 669.998 1045.56C669.71 1075.84 672.882 1105.83 679.802 1135.24C683.551 1151.68 689.318 1168.98 702.295 1179.94C711.522 1187.72 723.634 1191.47 734.88 1196.38C763.716 1209.35 787.939 1232.13 802.357 1260.11C815.622 1285.77 820.524 1314.9 831.193 1341.71C841.863 1368.53 860.607 1395.06 888.578 1402.27C922.029 1411.21 957.497 1388.43 973.645 1357.86C989.794 1327.3 990.659 1291.25 988.641 1256.65C985.469 1199.55 975.088 1143.03 962.4 1087.08C945.674 1012.68 924.047 939.148 918.856 863.018C917.414 841.678 917.126 819.762 924.047 799.576C930.967 779.39 945.963 760.934 966.725 754.879C1001.04 744.786 1034.2 771.027 1061.6 794.097C1088.99 817.167 1126.19 840.237 1157.91 824.088C1169.16 818.32 1177.81 808.516 1184.15 797.558C1208.37 756.609 1203.47 702.683 1178.67 662.311C1153.87 621.939 1111.2 594.544 1066.21 580.125C1036.8 570.898 1002.77 564.265 986.911 538.023C960.093 493.902 1006.23 429.884 977.394 387.205C966.725 371.344 932.986 341.065 887.713 367.307L888.001 367.596Z" fill="#FF82C1" stroke="black" stroke-width="20" stroke-miterlimit="10"/>
<path d="M783.611 1032C756.504 1048.44 756.793 1096.6 773.807 1125.15C776.69 1129.76 779.862 1134.09 783.9 1137.26C789.378 1141.3 795.722 1143.32 802.354 1144.76C826.289 1149.08 852.818 1142.16 869.255 1123.42C885.692 1104.67 890.017 1073.82 876.176 1052.48C867.813 1039.5 853.684 1031.43 838.977 1027.68C824.271 1023.93 806.968 1017.87 783.611 1032Z" fill="white" stroke="black" stroke-width="20" stroke-miterlimit="10"/>
<path d="M823.409 1133.51C828.187 1133.51 832.06 1129.64 832.06 1124.86C832.06 1120.08 828.187 1116.21 823.409 1116.21C818.632 1116.21 814.759 1120.08 814.759 1124.86C814.759 1129.64 818.632 1133.51 823.409 1133.51Z" fill="black" stroke="black" stroke-width="20" stroke-miterlimit="10"/>
</g>
<defs>
<clipPath id="clip0_10_206">
<rect width="1760" height="1760" fill="white"/>
</clipPath>
</defs>
</svg>
