<svg width="1760" height="1760" viewBox="0 0 1760 1760" fill="none" xmlns="http://www.w3.org/2000/svg">
<g clip-path="url(#clip0_10_200)">
<path d="M1760 0H0V1760H1760V0Z" fill="white"/>
<path d="M804 603.908C786.608 609.284 728.488 610.2 719.001 625.695C709.514 641.191 706.984 659.85 701.924 677.559C671.25 785.397 556.14 779.389 567.209 796.15C575.747 809.116 620.019 842.953 631.404 853.706C681.053 901.774 715.522 991.903 671.25 1045.03C589.661 1142.75 533.372 996.331 443.878 996.331C406.562 996.331 396.126 1031.75 386.323 1067.8C377.785 1099.11 372.725 1132 378.417 1163.94C390.118 1229.08 444.827 1278.42 503.33 1309.41C542.543 1330.28 585.234 1345.15 629.507 1347.36C673.779 1349.57 719.634 1337.56 753.787 1309.41C818.615 1255.97 827.153 1162.36 843.597 1079.82C851.187 1041.24 862.254 1002.02 886.604 971.031C910.954 940.04 951.433 919.168 989.697 928.022C1015.63 934.031 1037.13 952.373 1053.89 973.561C1091.52 1021 1108.28 1081.4 1136.11 1135.48C1163.94 1189.55 1209.79 1241.73 1270.2 1246.48C1305.93 1249.01 1341.66 1233.83 1366.96 1208.85C1412.5 1163.94 1421.99 1087.41 1389.1 1032.7C1354.63 975.459 1280.63 941.621 1269.25 875.526C1258.18 811.013 1314.47 753.141 1319.84 687.995C1323.64 638.978 1287.9 516.592 1245.85 508.054C1230.98 505.207 1176.59 616.841 1098.8 596.917C1066.54 588.379 1014.36 520.387 945.424 537.464C866.366 557.071 880.913 580.473 798.059 605.772L804 603.908Z" fill="#DAD4FF" stroke="black" stroke-width="20" stroke-miterlimit="10"/>
<path d="M929.613 699.378C899.887 717.404 899.887 769.9 918.545 801.208C921.707 806.268 925.186 811.011 929.613 814.49C935.621 818.917 942.578 821.131 949.851 822.712C976.099 827.456 1005.19 819.866 1023.22 799.31C1041.24 778.755 1045.99 744.917 1030.81 721.515C1021.64 707.284 1006.14 698.429 990.014 694.318C973.886 690.207 955.228 683.882 929.613 699.378Z" fill="white" stroke="black" stroke-width="20" stroke-miterlimit="10"/>
<path d="M972.935 766.107C978.174 766.107 982.421 761.86 982.421 756.62C982.421 751.38 978.174 747.133 972.935 747.133C967.695 747.133 963.447 751.38 963.447 756.62C963.447 761.86 967.695 766.107 972.935 766.107Z" fill="black" stroke="black" stroke-width="20" stroke-miterlimit="10"/>
</g>
<defs>
<clipPath id="clip0_10_200">
<rect width="1760" height="1760" fill="white"/>
</clipPath>
</defs>
</svg>
