<svg width="1760" height="1760" viewBox="0 0 1760 1760" fill="none" xmlns="http://www.w3.org/2000/svg">
<rect width="1760" height="1760" fill="white"/>
<path d="M1100.96 546.149C1084.97 532.314 1094.04 493.404 1048.65 488.216C1027.47 486.055 993.315 500.754 972.131 503.348C935.384 508.104 897.771 495.134 861.024 501.619C815.631 509.401 780.613 545.716 753.377 583.329C726.141 620.942 696.741 675.848 659.994 703.95C623.247 732.052 589.958 746.318 538.512 714.758C516.031 700.924 504.792 648.179 455.507 645.585C406.223 642.991 316.732 789.119 375.095 906.281C411.842 979.778 529.866 1035.98 553.211 1114.67C568.774 1167.84 553.211 1203.73 553.211 1259.06C553.211 1300.14 567.479 1341.64 596.877 1370.17C626.275 1398.71 670.803 1412.54 709.712 1399.57C750.35 1386.17 777.586 1347.69 793.582 1308.35C809.578 1269.01 817.36 1226.21 834.221 1186.86C851.081 1147.52 880.477 1110.34 921.548 1099.53C960.889 1089.16 1001.53 1104.72 1039.14 1119.85C1066.81 1131.09 1094.04 1142.33 1121.71 1153.58C1148.08 1164.38 1175.32 1175.19 1203.85 1176.49C1248.82 1178.22 1293.78 1153.14 1315.82 1113.8C1356.46 1041.6 1316.69 949.947 1333.55 868.668C1345.66 811.168 1396.67 761.882 1392.78 703.085C1378.08 483.028 1202.12 634.777 1100.96 546.581V546.149Z" fill="#FF6640" stroke="black" stroke-width="20" stroke-miterlimit="10"/>
<path d="M1153.27 875.154C1166.67 858.293 1150.24 808.142 1141.6 776.582C1138.57 764.909 1135.11 752.804 1129.06 743.725C1119.12 728.593 1105.72 726.864 1094.04 727.728C1071.56 729.025 1049.95 733.781 1029.63 742.86C1026.17 744.589 1022.28 746.319 1019.68 750.21C1013.63 759.289 1015.36 777.014 1017.52 793.01C1021.41 820.247 1026.17 847.484 1031.79 874.721C1033.09 881.639 1034.81 888.988 1038.27 894.609C1043.89 903.688 1051.68 904.552 1058.16 904.552C1094.48 904.552 1135.55 898.5 1153.27 876.018V875.154Z" fill="white" stroke="black" stroke-width="20" stroke-miterlimit="10"/>
<path d="M1086.7 821.975C1089.56 821.975 1091.88 819.072 1091.88 815.49C1091.88 811.909 1089.56 809.005 1086.7 809.005C1083.83 809.005 1081.51 811.909 1081.51 815.49C1081.51 819.072 1083.83 821.975 1086.7 821.975Z" fill="black" stroke="black" stroke-width="20" stroke-miterlimit="10"/>
</svg>
