<svg width="1760" height="1760" viewBox="0 0 1760 1760" fill="none" xmlns="http://www.w3.org/2000/svg">
<g clip-path="url(#clip0_10_53)">
<path d="M1760 0H0V1760H1760V0Z" fill="white"/>
<path d="M555.936 908.325C504.559 957.931 442.995 1000.01 407.119 1039.43C386.746 1062.02 362.386 1105.87 357.071 1135.98C349.541 1179.39 382.76 1222.8 423.95 1238.74C465.14 1254.69 512.088 1248.04 553.721 1233.87C595.354 1219.7 634.773 1198.44 676.406 1183.82C821.236 1133.33 979.797 1168.32 1132.6 1178.5C1187.08 1182.05 1247.31 1180.28 1287.17 1143.51C1320.83 1112.51 1331.46 1063.35 1334.12 1017.28C1336.78 971.219 1333.23 924.27 1346.08 880.421C1356.71 843.659 1378.41 810.883 1390.37 775.007C1409.86 716.984 1404.99 653.647 1397.01 593.411C1393.47 567.278 1389.48 540.703 1377.53 517.229C1342.98 449.02 1247.75 426.431 1178.22 458.321C1108.68 490.211 1065.28 563.735 1051.1 639.031C1047.12 661.62 1044.9 685.094 1034.27 705.469C1016.56 739.573 975.81 759.062 937.72 754.632C899.63 750.203 865.97 722.742 850.025 687.752C843.381 673.136 839.395 656.748 830.537 643.46C804.406 604.926 743.728 606.255 706.081 633.716C668.434 661.177 648.06 705.469 629.458 747.989C604.213 805.125 592.697 872.448 555.936 908.325Z" fill="#FFD58C" stroke="black" stroke-width="20" stroke-miterlimit="10"/>
<path d="M710.071 970.776C708.742 984.063 707.856 998.237 712.728 1009.31C718.043 1021.27 728.673 1023.93 737.974 1025.25C777.835 1031.9 818.583 1032.78 858.444 1028.36C867.302 1027.47 876.603 1026.14 884.133 1019.05C900.963 1003.99 904.949 970.333 906.721 940.657C909.821 894.151 908.935 835.686 881.032 816.198C871.288 809.111 860.216 809.111 849.586 809.554C819.026 810.44 788.908 814.869 758.79 821.956C749.932 824.17 740.631 826.828 733.545 835.686C726.458 844.544 713.171 934.9 709.628 970.333L710.071 970.776Z" fill="white" stroke="black" stroke-width="20" stroke-miterlimit="10"/>
<path d="M815.484 946.858C825.757 946.858 834.086 935.159 834.086 920.726C834.086 906.294 825.757 894.594 815.484 894.594C805.21 894.594 796.882 906.294 796.882 920.726C796.882 935.159 805.21 946.858 815.484 946.858Z" fill="black"/>
</g>
<defs>
<clipPath id="clip0_10_53">
<rect width="1760" height="1760" fill="white"/>
</clipPath>
</defs>
</svg>
