<svg width="1760" height="1760" viewBox="0 0 1760 1760" fill="none" xmlns="http://www.w3.org/2000/svg">
<g clip-path="url(#clip0_10_194)">
<path d="M1760 0H0V1760H1760V0Z" fill="white"/>
<path d="M842.593 465.203C824.856 429.729 776.319 504.426 748.953 559.664C714.494 629.599 734.257 736.021 729.696 813.558C725.135 891.094 715.001 936.197 629.359 966.097C587.297 980.793 546.249 957.482 505.201 973.699C447.937 996.503 417.025 1032.99 390.673 1158.67C381.551 1202.25 404.862 1402.43 583.749 1404.46C661.283 1405.47 736.79 1357.83 773.277 1289.42C805.203 1229.11 809.259 1157.66 838.144 1095.83C915.678 930.116 1076.83 969.644 1139.66 1022.86C1186.29 1062.39 1252.67 1093.81 1306.9 1065.43C1335.78 1050.22 1354.53 1020.83 1366.19 990.422C1390.01 927.582 1387.47 604.767 1359.09 543.954C1347.44 518.108 1198.96 483.141 1119.9 523.683C971.422 600.206 914.157 610.341 840.17 460.336L842.593 465.203Z" fill="#FFD58C" stroke="black" stroke-width="20" stroke-miterlimit="10"/>
<path d="M526.485 1079.11C478.849 1107.99 478.851 1192.12 508.75 1242.29C513.817 1250.4 519.39 1258 526.485 1263.57C536.113 1270.67 547.263 1274.22 558.918 1276.75C600.98 1284.35 647.602 1272.19 676.487 1239.25C705.373 1206.31 712.974 1152.08 688.649 1114.58C673.953 1091.78 649.12 1077.59 623.275 1071C597.43 1064.41 567.532 1054.28 526.485 1079.11Z" fill="white" stroke="black" stroke-width="20" stroke-miterlimit="10"/>
<path d="M562.469 1258C570.865 1258 577.671 1251.19 577.671 1242.8C577.671 1234.4 570.865 1227.59 562.469 1227.59C554.073 1227.59 547.264 1234.4 547.264 1242.8C547.264 1251.19 554.073 1258 562.469 1258Z" fill="black" stroke="black" stroke-width="20" stroke-miterlimit="10"/>
</g>
<defs>
<clipPath id="clip0_10_194">
<rect width="1760" height="1760" fill="white"/>
</clipPath>
</defs>
</svg>
