<svg width="1760" height="1760" viewBox="0 0 1760 1760" fill="none" xmlns="http://www.w3.org/2000/svg">
<rect width="1760" height="1760" fill="white"/>
<path d="M1134.92 523.267L1093.82 416.031C1090.12 406.989 1086.42 397.537 1079.44 390.961C1066.7 379.454 1046.97 380.276 1030.94 386.44C1014.91 392.605 1000.94 402.879 984.914 409.044C936.831 427.538 882.172 404.934 831.213 413.565C773.267 423.428 730.115 470.69 693.95 517.131C682.854 531.515 671.347 546.31 656.553 556.584C641.347 567.27 623.675 573.023 607.648 582.065C544.77 617.409 522.167 698.371 524.222 770.292C526.277 842.213 546.414 913.722 543.126 986.054C540.66 1039.07 526.277 1090.44 515.592 1142.64C505.317 1193.19 498.742 1244.15 496.276 1295.52C495.043 1324.29 497.098 1357.58 520.112 1374.43C539.427 1388.4 567.784 1384.7 587.099 1371.14C606.415 1357.58 619.155 1335.79 628.607 1314.01C674.635 1207.16 663.95 1083.46 706.69 975.369C717.786 947.833 737.102 917.832 766.691 915.777C793.404 914.133 816.829 937.148 824.226 962.628C831.624 988.109 827.103 1015.64 821.76 1041.95C807.377 1114.28 789.294 1186.2 781.486 1259.76C777.787 1294.29 776.965 1330.86 793.404 1361.27C809.843 1391.69 848.062 1413.06 879.707 1399.5C897.378 1391.69 909.296 1375.66 918.748 1358.81C991.9 1228.12 939.296 1061.67 981.215 917.832C986.968 898.105 996.832 876.735 1016.15 870.159C1035.05 863.994 1056.42 875.09 1067.93 891.53C1079.44 907.969 1083.13 928.517 1086.83 948.244C1095.87 996.739 1104.5 1045.23 1113.55 1093.73C1117.66 1116.74 1122.18 1140.17 1134.92 1159.49C1147.66 1178.8 1170.67 1193.6 1193.27 1189.49C1210.53 1186.2 1224.1 1173.46 1234.37 1159.07C1267.66 1112.22 1269.71 1048.93 1256.15 993.041C1242.59 937.148 1215.88 885.365 1194.92 831.527C1173.55 777.689 1158.34 720.975 1148.89 663.849C1140.67 611.655 1148.07 556.173 1133.27 518.774L1134.92 523.267Z" fill="#FF3B83" stroke="black" stroke-width="20" stroke-miterlimit="10"/>
<path d="M982.037 606.724C991.9 652.753 966.42 701.66 928.2 729.606C918.748 736.181 908.885 742.346 897.378 744.812C876.008 749.744 853.405 743.168 834.911 731.661C802.034 711.112 779.842 674.946 775.732 636.726C775.732 632.616 775.321 628.095 778.198 625.218C780.253 623.163 782.719 622.752 785.595 621.93C836.144 609.19 887.104 599.738 938.474 593.162C954.502 591.107 978.338 589.874 982.037 606.724Z" fill="white" stroke="black" stroke-width="20" stroke-miterlimit="10"/>
<path d="M958.612 669.191C967.01 669.191 973.818 661.831 973.818 652.752C973.818 643.673 967.01 636.313 958.612 636.313C950.214 636.313 943.406 643.673 943.406 652.752C943.406 661.831 950.214 669.191 958.612 669.191Z" fill="black"/>
</svg>
