<svg width="1760" height="1760" viewBox="0 0 1760 1760" fill="none" xmlns="http://www.w3.org/2000/svg">
<rect width="1760" height="1760" fill="white"/>
<path d="M577.368 908.869C570.725 844.649 548.212 816.968 521.27 818.075C451.884 820.659 464.433 869.008 466.647 956.849C468.493 1039.89 469.969 1124.04 449.301 1204.13C441.55 1234.77 430.478 1267.25 441.919 1296.77C458.159 1338.11 510.936 1351.77 555.224 1348.07C599.513 1344.38 644.17 1329.99 687.721 1338.85C748.617 1351.03 798.073 1407.5 860.077 1403.44C910.64 1400.12 949.761 1355.83 967.846 1308.21C985.93 1260.6 988.145 1209.3 999.586 1159.84C1011.03 1110.39 1034.65 1059.82 1080.04 1036.57C1111.05 1020.7 1147.21 1019.96 1179.69 1007.78C1245.02 982.685 1284.14 913.298 1296.69 844.28C1309.24 775.262 1300.01 704.767 1298.9 634.642C1297.43 532.775 1361.28 366.689 1290.78 360.415C1236.9 355.617 1189.29 393.263 1150.9 431.278C1112.52 469.293 1073.77 512.476 1020.62 523.548C984.823 530.93 906.211 509.523 870.042 503.987C789.953 491.438 749.356 506.571 670.005 523.548C657.457 526.132 644.17 529.823 634.944 538.681C623.871 549.384 621.288 565.993 620.55 581.494C615.752 692.218 688.09 807.371 721.306 913.298C747.51 996.71 736.069 1094.52 669.636 1107.06C622.395 1115.92 598.036 1101.53 577.738 909.238L577.368 908.869Z" fill="#E6E1E1" stroke="black" stroke-width="20" stroke-miterlimit="10"/>
<path d="M1110.68 699.969C1119.53 741.306 1097.02 784.857 1062.7 809.955C1054.21 815.86 1045.35 821.396 1035.02 823.611C1015.83 828.04 995.527 822.134 978.918 811.8C949.393 793.346 929.463 760.867 925.772 726.542C925.772 722.852 925.403 718.792 927.987 716.208C929.832 714.363 932.046 713.994 934.63 713.255C980.026 701.814 1025.79 693.325 1071.92 687.42C1086.32 685.575 1107.36 684.836 1110.68 699.969Z" fill="white" stroke="black" stroke-width="20" stroke-miterlimit="10"/>
<path d="M1019.52 770.463C1027.06 770.463 1033.17 763.853 1033.17 755.699C1033.17 747.546 1027.06 740.936 1019.52 740.936C1011.98 740.936 1005.86 747.546 1005.86 755.699C1005.86 763.853 1011.98 770.463 1019.52 770.463Z" fill="black"/>
</svg>
