<svg width="1760" height="1760" viewBox="0 0 1760 1760" fill="none" xmlns="http://www.w3.org/2000/svg">
<rect width="1760" height="1760" fill="white"/>
<path d="M1221.45 571.86C1164.54 510.378 1231.99 438.355 1175.43 447.139C1163.84 448.895 1155.05 458.03 1145.57 465.407C1114.65 488.595 1069.33 490.703 1036.31 470.326C1004.69 450.652 986.068 414.114 953.044 396.547C899.293 367.739 831.84 402.169 792.843 448.895C774.926 470.678 749.983 498.081 724.337 486.487C712.743 481.569 704.311 469.272 691.664 468.57C676.909 468.218 667.774 484.379 663.207 498.432C628.427 608.749 668.126 731.011 637.912 842.382C624.562 890.513 598.916 934.78 587.674 983.615C576.432 1032.45 584.161 1091.12 625.265 1119.58C689.556 1164.55 803.032 1116.07 843.082 1183.52C860.296 1212.33 852.919 1248.87 853.621 1282.24C855.027 1336.7 888.402 1395.72 942.505 1403.45C989.582 1410.13 1034.55 1374.64 1055.28 1331.78C1076.01 1288.92 1078.46 1239.73 1083.03 1192.3C1091.11 1102.01 1109.38 1006.8 1170.51 940.05C1192.29 916.16 1218.64 896.837 1237.61 870.839C1270.28 826.22 1277.31 766.495 1268.53 711.688C1259.74 656.881 1247.8 599.263 1221.8 571.157L1221.45 571.86Z" fill="#7968D9" stroke="black" stroke-width="20" stroke-miterlimit="10"/>
<path d="M838.512 869.081C836.053 828.679 863.807 790.735 899.641 772.466C908.424 767.899 917.91 764.386 927.396 763.683C946.015 761.926 964.284 770.71 978.337 782.655C1003.28 804.086 1017.68 837.462 1015.93 870.487C1015.93 874 1015.23 877.864 1012.41 879.972C1010.66 881.378 1008.2 881.729 1005.74 881.729C961.473 885.945 917.207 887.35 872.59 886.296C858.537 886.296 838.864 883.486 837.81 869.081H838.512Z" fill="white" stroke="black" stroke-width="20" stroke-miterlimit="10"/>
<path d="M931.261 800.572C940.963 800.572 948.827 792.707 948.827 783.005C948.827 773.304 940.963 765.439 931.261 765.439C921.56 765.439 913.695 773.304 913.695 783.005C913.695 792.707 921.56 800.572 931.261 800.572Z" fill="black"/>
</svg>
