<svg width="1760" height="1760" viewBox="0 0 1760 1760" fill="none" xmlns="http://www.w3.org/2000/svg">
<rect width="1760" height="1760" fill="white"/>
<path d="M642.149 482.574C627.752 485.274 612.906 488.873 601.659 497.871C582.314 513.618 577.815 541.511 581.414 566.255C585.013 591 594.461 614.395 598.06 638.689C605.708 689.527 586.363 741.266 558.47 784.456C530.577 827.646 495.036 865.438 464.444 906.378C418.106 968.464 383.914 1040 364.119 1114.68C357.821 1137.63 353.322 1161.92 357.821 1185.76C362.32 1209.61 378.066 1232.1 401.46 1238.4C414.507 1242 428.453 1240.2 441.949 1236.6C478.39 1228.05 513.032 1210.06 541.374 1185.76C560.719 1169.12 577.365 1149.32 597.61 1134.03C617.855 1118.73 643.948 1107.93 669.142 1113.78C707.832 1122.78 727.177 1164.62 746.522 1199.71C763.618 1230.75 787.912 1262.25 822.553 1270.35C857.644 1278.44 894.085 1260.45 921.078 1236.15C948.071 1211.86 968.316 1181.27 994.859 1156.97C1026.8 1127.73 1069.09 1106.58 1112.28 1111.08C1155.92 1115.58 1193.71 1144.37 1236.9 1151.12C1294.93 1160.57 1357.02 1125.03 1377.71 1070.14C1402.46 1004.46 1371.41 932.922 1358.37 863.638C1344.42 787.605 1353.42 707.973 1375.91 633.74C1387.16 597.298 1401.56 560.407 1399.31 522.166C1397.06 483.924 1371.41 443.883 1333.17 440.284C1290.88 436.235 1259.39 476.276 1229.25 506.869C1186.06 550.509 1129.82 581.102 1069.99 593.25C1042.1 598.648 1008.81 607.646 985.412 591C930.076 552.759 891.386 508.669 854.045 496.072C780.264 470.877 687.137 474.027 642.149 482.125V482.574Z" fill="#DEB0FF" stroke="black" stroke-width="20" stroke-miterlimit="10"/>
<path d="M773.969 743.966C701.087 785.807 702.437 904.58 747.426 975.214C754.624 986.461 763.172 997.259 773.969 1005.36C787.915 1015.7 805.461 1020.65 822.557 1023.8C885.541 1035.05 955.273 1017.5 998.912 970.715C1042.55 923.925 1053.8 846.993 1017.36 794.355C994.863 761.962 957.972 741.717 919.732 732.719C881.492 723.721 834.703 709.324 773.969 743.966Z" fill="white" stroke="black" stroke-width="20" stroke-miterlimit="10"/>
<path d="M881.942 918.525C899.086 918.525 912.984 904.626 912.984 887.482C912.984 870.337 899.086 856.439 881.942 856.439C864.798 856.439 850.899 870.337 850.899 887.482C850.899 904.626 864.798 918.525 881.942 918.525Z" fill="black"/>
</svg>
