<svg width="1760" height="1760" viewBox="0 0 1760 1760" fill="none" xmlns="http://www.w3.org/2000/svg">
<rect width="1760" height="1760" fill="white"/>
<path d="M1028.18 570.57C985.171 606.411 979.198 660.171 915.882 692.03C861.326 719.507 784.868 713.534 752.613 661.764C712.393 597.65 752.613 494.907 692.084 449.509C661.421 426.412 618.812 430.793 580.583 436.766C557.089 440.35 530.408 445.925 517.665 466.235C511.294 476.987 509.701 489.73 509.303 502.474C507.312 553.447 514.48 607.207 492.976 653.402C481.428 678.092 462.313 699.198 453.552 725.083C444.393 752.162 447.181 781.631 447.181 809.905C447.181 876.409 429.66 941.718 417.713 1007.43C405.767 1073.13 399.793 1142.42 421.695 1205.34C443.597 1268.26 499.347 1323.62 566.248 1326.01C653.855 1329.19 734.295 1245.17 818.717 1269.46C887.608 1288.97 921.457 1372.2 988.357 1396.89C1060.43 1423.57 1141.67 1368.22 1173.13 1298.13C1204.59 1228.04 1200.21 1147.6 1198.62 1070.74C1197.02 993.886 1201.4 911.851 1245.6 848.931C1271.89 811.498 1304.14 780.436 1330.03 742.604C1368.65 686.056 1390.95 637.074 1395.33 568.579C1397.72 532.341 1406.48 457.076 1361.88 449.509C1261.53 432.386 1212.15 563.402 1113.8 567.783C1085.52 568.977 1051.67 550.659 1028.18 570.172V570.57Z" fill="#B0FCA4" stroke="black" stroke-width="20" stroke-miterlimit="10"/>
<path d="M870.884 911.851C806.373 948.886 807.567 1054.02 847.389 1116.54C853.76 1126.49 861.327 1136.05 870.884 1143.22C883.229 1152.38 898.759 1156.76 913.891 1159.55C969.642 1169.5 1031.37 1153.97 1069.99 1112.56C1108.62 1071.14 1118.57 1003.04 1086.32 956.452C1066.41 927.78 1033.75 909.859 999.906 901.895C966.057 893.93 924.643 881.187 870.884 911.851Z" fill="white" stroke="black" stroke-width="20" stroke-miterlimit="10"/>
<path d="M966.056 1066.36C981.231 1066.36 993.533 1054.06 993.533 1038.88C993.533 1023.71 981.231 1011.41 966.056 1011.41C950.881 1011.41 938.579 1023.71 938.579 1038.88C938.579 1054.06 950.881 1066.36 966.056 1066.36Z" fill="black"/>
</svg>
