<svg width="1760" height="1760" viewBox="0 0 1760 1760" fill="none" xmlns="http://www.w3.org/2000/svg">
<rect width="1760" height="1760" fill="white"/>
<path d="M1078.15 502.847C1058.12 468.939 980.028 418.076 922.488 409.342C871.626 401.636 866.489 455.581 775.041 449.416C699.006 444.278 676.915 328.681 630.677 361.562C621.944 367.727 616.806 376.975 611.668 386.223C564.917 469.966 497.102 518.26 450.351 602.004C421.067 653.894 411.82 743.289 405.141 802.886C398.462 862.482 421.067 929.272 473.983 957.015C521.248 982.189 583.412 971.4 627.081 1002.23C684.107 1042.81 678.97 1126.56 674.346 1195.91C670.236 1250.37 670.75 1307.92 695.41 1356.72C720.07 1405.53 788.399 1411.18 841.829 1397.82C902.452 1382.92 919.405 1345.93 929.166 1284.28C938.928 1222.63 926.084 1139.4 962.046 1088.02C1009.31 1021.75 1111.55 1023.29 1186.56 991.437C1252.32 963.18 1339.14 917.969 1362.26 850.666C1385.38 783.363 1372.53 689.857 1266.7 665.71C1215.33 653.894 1156.24 659.545 1117.2 624.609C1069.42 581.967 1108.98 554.224 1078.67 503.361L1078.15 502.847Z" fill="#FFF570" stroke="black" stroke-width="20" stroke-miterlimit="10"/>
<path d="M980.027 754.078C992.357 811.619 960.504 872.757 912.725 907.693C900.909 915.913 888.579 923.62 874.194 926.702C847.479 932.867 819.223 924.647 796.104 910.262C755.004 884.574 727.261 839.363 722.124 791.582C722.124 786.445 721.61 780.793 725.207 777.197C727.775 774.628 730.858 774.114 734.454 773.087C797.645 757.16 861.35 745.343 925.569 737.123C945.605 734.554 975.403 733.013 980.027 754.078Z" fill="white" stroke="black" stroke-width="20" stroke-miterlimit="10"/>
<path d="M852.618 852.72C863.117 852.72 871.627 843.52 871.627 832.17C871.627 820.82 863.117 811.619 852.618 811.619C842.12 811.619 833.609 820.82 833.609 832.17C833.609 843.52 842.12 852.72 852.618 852.72Z" fill="black"/>
</svg>
