<svg width="1760" height="1760" viewBox="0 0 1760 1760" fill="none" xmlns="http://www.w3.org/2000/svg">
<rect width="1760" height="1760" fill="white"/>
<path d="M446.201 1053.96C382.138 1073.22 387.163 1139.8 383.394 1206.79C381.301 1238.2 387.163 1272.53 410.192 1294.31C428.615 1311.89 454.994 1318.17 480.116 1321.94C532.036 1330.32 584.794 1333.25 637.132 1329.9C660.999 1328.22 685.284 1325.71 706.638 1314.82C743.485 1296.4 765.676 1257.46 781.169 1218.94C796.661 1180.41 808.803 1139.8 834.345 1107.56C859.886 1075.31 904.688 1053.12 943.209 1068.61C1006.43 1094.16 999.735 1186.69 1039.51 1241.97C1065.47 1277.98 1109.86 1295.56 1152.98 1305.19C1186.9 1312.73 1222.49 1316.92 1255.99 1308.54C1314.19 1293.47 1357.31 1239.87 1371.13 1181.67C1384.95 1123.47 1374.06 1061.08 1351.45 1005.39C1324.65 939.23 1281.95 873.073 1294.51 803.146C1300.79 767.974 1320.89 736.988 1336.8 705.165C1392.07 596.298 1304.97 510.042 1263.94 516.323C1111.53 539.352 1122 525.534 1005.6 538.515C858.211 554.845 710.825 571.594 563.439 587.924C553.39 589.18 543.341 590.017 534.13 594.204C494.771 612.209 488.909 670.411 519.475 700.559C550.041 730.707 624.99 724.008 664.767 740.757C738.46 771.323 745.159 852.136 704.126 913.688C653.462 989.477 534.967 1026.74 446.201 1053.54V1053.96Z" fill="#FCFFA6" stroke="black" stroke-width="20" stroke-miterlimit="10"/>
<path d="M1012.71 699.722C958.698 749.969 968.328 876.841 995.963 955.142C1000.57 967.703 1005.59 979.428 1012.71 988.221C1021.5 999.526 1031.97 1005.39 1042.86 1008.74C1081.8 1020.88 1125.34 1001.62 1152.14 950.117C1178.94 898.614 1186.06 813.614 1163.87 755.412C1150.05 719.821 1127.02 697.21 1103.15 687.579C1079.29 677.949 1047.05 667.899 1012.71 699.722Z" fill="white" stroke="black" stroke-width="20" stroke-miterlimit="10"/>
<path d="M1079.28 892.332C1089.92 892.332 1098.54 877.148 1098.54 858.416C1098.54 839.685 1089.92 824.5 1079.28 824.5C1068.65 824.5 1060.02 839.685 1060.02 858.416C1060.02 877.148 1068.65 892.332 1079.28 892.332Z" fill="black"/>
</svg>
