<svg width="1760" height="1760" viewBox="0 0 1760 1760" fill="none" xmlns="http://www.w3.org/2000/svg">
<rect width="1760" height="1760" fill="white"/>
<path d="M611.848 380.315C608.275 383.491 606.687 387.858 604.702 392.226C570.955 474.014 537.209 555.802 503.462 637.59C501.08 643.545 498.301 649.898 498.698 656.25C498.698 666.176 504.653 675.307 510.211 684.042C538.4 731.289 543.958 792.034 524.504 843.648C513.784 871.837 496.713 897.644 489.964 927.024C475.274 993.725 518.946 1057.65 538.797 1122.76C555.471 1178.34 555.075 1238.3 576.117 1292.29C593.585 1337.16 626.538 1376.86 671.401 1394.72C716.264 1412.59 771.847 1404.25 804.006 1368.92C835.37 1334.77 840.134 1284.75 840.531 1238.29C840.928 1191.84 839.737 1143.01 862.367 1102.91C884.997 1062.81 942.962 1038.59 979.09 1067.57C990.207 1076.7 997.353 1089.41 1004.5 1101.72C1026.73 1141.82 1046.98 1184.7 1081.92 1214.47C1116.86 1244.25 1170.85 1257.75 1208.57 1231.55C1235.96 1212.49 1247.48 1178.34 1255.81 1146.18C1279.24 1057.65 1290.75 966.727 1302.26 876.204C1313.38 790.049 1324.5 703.1 1318.14 616.547C1311.79 529.995 1287.18 442.648 1233.58 374.359C1229.21 368.801 1224.45 363.242 1218.49 360.463C1211.74 357.287 1203.8 357.684 1196.26 358.875C1149.81 367.61 1119.24 411.283 1099.78 454.162C1080.33 497.041 1060.08 616.547 1025.54 648.707C979.487 691.586 937.801 661.411 905.642 648.707C861.97 631.634 831.4 546.273 813.137 502.997C788.522 445.031 625.347 367.213 612.245 379.918L611.848 380.315Z" fill="#FF3B83" stroke="black" stroke-width="20" stroke-miterlimit="10"/>
<path d="M811.154 940.921C801.625 896.454 826.24 849.207 863.163 822.209C872.295 815.857 881.823 809.902 892.94 807.519C913.584 802.755 935.421 809.108 953.287 820.224C985.048 840.076 1006.49 875.014 1010.46 911.938C1010.46 915.908 1010.85 920.276 1008.08 923.055C1006.09 925.04 1003.71 925.437 1000.93 926.231C952.095 938.539 902.865 947.671 853.238 954.023C837.754 956.008 814.727 957.199 811.154 940.921Z" fill="white" stroke="black" stroke-width="20" stroke-miterlimit="10"/>
<path d="M909.617 896.85C917.73 896.85 924.307 889.74 924.307 880.969C924.307 872.198 917.73 865.087 909.617 865.087C901.504 865.087 894.928 872.198 894.928 880.969C894.928 889.74 901.504 896.85 909.617 896.85Z" fill="black"/>
</svg>
