<svg width="1760" height="1760" viewBox="0 0 1760 1760" fill="none" xmlns="http://www.w3.org/2000/svg">
<rect width="1760" height="1760" fill="white"/>
<path d="M698.424 395.435C658.51 366.444 603.471 368.125 554.734 365.184C547.171 364.764 539.189 364.764 532.887 368.545C517.341 377.368 520.702 400.477 525.324 417.704C585.825 639.127 548.432 874.836 495.073 1097.94C491.292 1113.91 487.511 1130.71 492.132 1146.26C495.914 1159.28 505.577 1170.21 514.82 1180.29C565.238 1235.33 615.655 1290.37 666.493 1345.83C681.618 1362.22 696.744 1379.03 716.071 1390.37C768.589 1421.04 845.476 1398.35 872.786 1343.31C892.533 1302.98 886.65 1255.5 887.491 1210.54C888.331 1161.8 905.978 1104.24 953.034 1090.8C975.722 1084.5 1000.09 1090.38 1022.78 1096.68C1079.92 1112.65 1138.32 1131.55 1197.56 1126.93C1256.8 1122.31 1318.56 1086.6 1332.85 1029.03C1345.45 978.615 1318.56 925.675 1282.43 887.861C1259.32 863.492 1230.33 841.224 1221.93 808.451C1205.54 745.427 1272.77 688.706 1274.45 623.581C1276.13 564.339 1222.77 512.24 1230.75 453.417C1232.85 436.611 1239.57 416.863 1228.65 404.259C1222.77 397.536 1032.02 403.418 980.763 461.82C960.596 484.509 922.363 638.287 856.82 638.287C680.778 638.287 754.304 435.771 698.845 395.856L698.424 395.435Z" fill="#DAD4FF" stroke="black" stroke-width="20" stroke-miterlimit="10"/>
<path d="M809.341 944.581C799.257 897.524 824.887 847.945 863.961 819.374C873.624 812.652 883.707 806.349 895.472 803.828C917.319 798.787 940.428 805.509 959.334 817.274C992.946 838.281 1015.63 875.255 1019.84 914.33C1019.84 918.532 1020.26 923.154 1017.31 926.095C1015.21 928.196 1012.69 928.615 1009.75 929.456C958.074 942.481 905.975 952.145 853.457 958.867C837.071 960.968 813.122 961.808 809.341 944.581Z" fill="white" stroke="black" stroke-width="20" stroke-miterlimit="10"/>
<path d="M913.12 898.363C921.706 898.363 928.666 890.838 928.666 881.556C928.666 872.275 921.706 864.75 913.12 864.75C904.535 864.75 897.575 872.275 897.575 881.556C897.575 890.838 904.535 898.363 913.12 898.363Z" fill="black"/>
</svg>
