<svg width="1760" height="1760" viewBox="0 0 1760 1760" fill="none" xmlns="http://www.w3.org/2000/svg">
<rect width="1760" height="1760" fill="white"/>
<path d="M636.935 728.262L608.214 1023.58C606.005 1048.26 603.428 1073.66 611.529 1097.23C623.312 1132.58 656.451 1157.25 670.812 1191.5C684.804 1225.01 679.649 1262.94 681.859 1299.39C684.068 1335.85 697.692 1376.72 731.937 1389.24C756.608 1398.45 785.33 1388.87 804.846 1371.2C824.361 1353.52 836.512 1329.22 845.718 1304.55C864.129 1255.57 874.071 1203.28 874.808 1150.99C875.544 1096.13 870.021 1032.05 911.63 996.704C953.608 960.985 1018.78 976.451 1069.6 955.093C1124.46 931.895 1152.45 868.19 1153.92 808.537C1155.39 750.724 1136.25 692.543 1100.9 646.883C1083.96 625.157 1062.97 605.641 1053.03 579.864C1038.67 543.409 1048.24 502.904 1050.82 463.871C1053.4 424.838 1043.82 378.809 1008.47 361.87C972.019 344.564 929.673 368.499 899.479 395.011C869.284 421.524 838.354 453.929 798.217 456.506C772.442 457.979 745.561 446.932 721.627 456.875C682.227 473.077 683.7 527.575 682.227 570.29C680.018 622.211 643.196 667.872 637.304 728.262H636.935Z" fill="#B7ABFF" stroke="black" stroke-width="20" stroke-miterlimit="10"/>
<path d="M818.471 645.41C758.819 679.656 759.924 776.869 796.746 834.682C802.638 843.888 809.634 852.725 818.471 859.353C829.886 867.823 844.247 871.873 858.239 874.451C909.791 883.657 966.865 869.296 1002.58 830.999C1038.3 792.703 1047.51 729.735 1017.68 686.652C999.269 660.139 969.074 643.569 937.775 636.204C906.476 628.84 868.181 617.056 818.471 645.41Z" fill="white" stroke="#140202" stroke-width="20" stroke-miterlimit="10"/>
<path d="M906.476 788.283C920.508 788.283 931.883 776.908 931.883 762.875C931.883 748.843 920.508 737.467 906.476 737.467C892.444 737.467 881.068 748.843 881.068 762.875C881.068 776.908 892.444 788.283 906.476 788.283Z" fill="black"/>
</svg>
