<svg width="1760" height="1760" viewBox="0 0 1760 1760" fill="none" xmlns="http://www.w3.org/2000/svg">
<rect width="1760" height="1760" fill="white"/>
<path d="M529.454 1058.98C486.049 1044.51 433 1031.76 398.552 1062.08C374.438 1083.09 368.582 1117.54 365.482 1148.89C362.037 1183.68 359.971 1220.54 374.783 1252.58C396.83 1299.78 450.568 1324.23 502.24 1329.06C585.604 1336.98 666.901 1303.56 745.442 1273.94C823.983 1244.31 909.069 1217.44 990.366 1238.46C1023.44 1247.07 1054.09 1262.92 1087.16 1272.56C1118.17 1281.86 1150.89 1284.96 1183.27 1282.21C1256.3 1276.01 1332.43 1227.43 1342.08 1154.75C1350.35 1093.08 1309.7 1029.35 1329.33 970.101C1339.32 940.131 1363.09 917.394 1381.35 891.902C1399.61 866.41 1412.35 831.272 1397.19 803.713C1386.17 783.389 1363.44 773.054 1346.56 757.897C1323.82 737.572 1310.73 706.912 1311.42 676.597C1311.76 657.306 1316.59 634.57 1302.12 621.48C1289.72 610.111 1270.43 613.556 1254.24 618.724C1228.4 626.647 1202.56 636.637 1175.7 640.082C1148.83 643.527 1119.2 638.359 1099.22 620.102C1083.03 605.289 1075.11 583.586 1066.84 563.261C1050.31 523.301 1029.64 485.407 1005.18 449.925C1000.7 443.38 995.877 436.834 988.988 432.701C975.553 425.122 957.641 429.944 946.273 440.279C934.905 450.614 927.671 465.082 921.126 478.862C890.123 542.936 845.341 611.834 774.723 621.48C759.221 623.546 743.375 622.513 728.218 626.991C682.747 640.082 673.101 696.578 653.81 739.639C595.938 868.477 771.967 885.012 718.573 1003.86C684.469 1080.34 610.406 1086.19 529.109 1059.32L529.454 1058.98Z" fill="#2667FF" stroke="black" stroke-width="20" stroke-miterlimit="10"/>
<path d="M784.711 852.63C776.444 814.048 797.802 773.054 829.838 749.628C837.761 744.117 846.029 738.949 855.674 736.882C873.587 732.748 892.533 738.26 908.035 747.906C935.593 765.13 954.195 795.445 957.64 827.483C957.64 830.928 957.984 834.717 955.573 837.128C953.851 838.851 951.783 839.195 949.372 839.884C907.001 850.563 864.286 858.486 821.226 863.998C807.791 865.721 787.812 866.754 784.711 852.63Z" fill="white" stroke="black" stroke-width="20" stroke-miterlimit="10"/>
<path d="M870.144 814.048C877.183 814.048 882.89 807.879 882.89 800.268C882.89 792.658 877.183 786.489 870.144 786.489C863.105 786.489 857.398 792.658 857.398 800.268C857.398 807.879 863.105 814.048 870.144 814.048Z" fill="black"/>
</svg>
