<svg width="1760" height="1760" viewBox="0 0 1760 1760" fill="none" xmlns="http://www.w3.org/2000/svg">
<g clip-path="url(#clip0_10_219)">
<path d="M1760 0H0V1760H1760V0Z" fill="white"/>
<path d="M419.227 520.713C356.941 566.424 407.674 681.455 467.95 729.677C489.047 746.756 514.664 759.817 528.729 782.923C546.812 814.067 537.268 854.755 518.683 885.898C500.098 917.042 472.974 942.158 453.886 973.302C406.669 1049.15 415.71 1155.14 474.48 1222.45C533.25 1289.76 637.729 1311.86 719.103 1275.19C773.854 1250.58 820.568 1201.86 880.342 1200.85C997.379 1198.84 1066.2 1378.17 1181.73 1358.08C1240.5 1348.03 1277.67 1285.74 1281.69 1226.47C1285.7 1167.2 1264.61 1109.43 1248.03 1052.17C1231.45 994.901 1218.9 933.116 1239.49 876.857C1252.05 841.694 1276.66 812.56 1298.76 782.421C1343.97 719.631 1380.14 643.279 1366.07 567.429C1364.06 555.876 1360.04 543.82 1352.51 534.778C1343.47 524.23 1330.41 518.704 1317.85 513.681C1236.98 480.528 1145.06 447.375 1064.69 481.533C1009.44 505.142 966.739 541.308 907.467 533.773C859.246 527.746 767.826 466.463 722.117 449.886C659.328 426.78 624.167 476.51 551.333 515.69C505.623 540.304 457.402 492.584 419.227 520.713Z" fill="#99E6FF" stroke="black" stroke-width="20" stroke-miterlimit="10"/>
<path d="M687.462 973.805C684.95 989.377 682.941 1006.96 692.485 1020.02C702.531 1034.08 721.618 1037.6 739.199 1039.61C812.535 1047.65 886.877 1048.65 960.213 1043.63C976.287 1042.62 993.365 1040.61 1007.43 1032.58C1038.57 1014.49 1045.6 973.806 1049.12 938.141C1054.65 882.384 1053.14 812.059 1001.9 787.948C984.323 779.911 963.729 779.408 944.139 779.911C888.384 780.915 832.628 785.939 777.375 794.478C760.799 796.99 743.719 800.506 731.162 811.055C718.604 821.603 693.992 930.606 687.462 973.303V973.805Z" fill="white" stroke="black" stroke-width="20" stroke-miterlimit="10"/>
<path d="M880.35 944.672C898.936 944.672 914.004 930.729 914.004 913.529C914.004 896.328 898.936 882.385 880.35 882.385C861.763 882.385 846.695 896.328 846.695 913.529C846.695 930.729 861.763 944.672 880.35 944.672Z" fill="black"/>
</g>
<defs>
<clipPath id="clip0_10_219">
<rect width="1760" height="1760" fill="white"/>
</clipPath>
</defs>
</svg>
