<svg width="1760" height="1760" viewBox="0 0 1760 1760" fill="none" xmlns="http://www.w3.org/2000/svg">
<rect width="1760" height="1760" fill="white"/>
<path d="M555.916 465.911C530.197 597.198 415.421 708.907 447.666 836.738C458.03 878.581 488.355 914.281 491.81 957.276C494.113 987.218 482.981 1017.54 487.588 1047.49C494.497 1092.4 540.945 1126.95 585.858 1120.42C628.467 1114.28 660.328 1077.81 679.906 1039.81C699.483 1001.81 711.383 959.579 735.567 923.878C759.751 888.178 801.592 859.771 843.434 868.6C885.275 877.429 912.146 921.575 914.065 964.57C915.985 1007.56 899.095 1048.25 880.669 1087.03C860.708 1128.1 838.827 1168.41 822.705 1211.02C810.037 1245.95 789.692 1288.18 808.502 1320.04C839.595 1371.48 920.207 1406.8 987.768 1323.11C1084.12 1203.34 1076.06 1050.17 1034.22 901.997C1021.16 855.164 1007.35 799.886 1038.82 763.033C1061.85 736.546 1103.31 730.788 1135.56 745.375C1160.13 756.508 1180.09 778.389 1206.57 784.915C1249.95 796.047 1294.48 760.73 1308.68 718.503C1322.89 676.277 1314.06 629.827 1302.16 586.449C1290.26 543.071 1274.9 500.077 1277.21 455.547C1277.59 442.879 1279.51 429.827 1276.05 417.543C1268.76 394.126 1243.04 381.458 1219.24 377.619C1134.02 363.032 1054.56 418.31 977.788 457.85C921.743 487.025 861.476 508.522 799.673 522.342C756.296 531.938 710.999 537.697 667.238 528.867C623.477 520.038 563.594 427.907 556.3 465.911H555.916Z" fill="#FCFFA6" stroke="black" stroke-width="20" stroke-miterlimit="10"/>
<path d="M766.661 665.911C775.874 708.905 752.075 754.586 716.375 780.69C707.546 786.832 698.333 792.59 687.585 794.894C667.624 799.5 646.511 793.358 629.237 782.609C598.527 763.416 577.798 729.634 573.959 693.934C573.959 690.095 573.575 685.872 576.263 683.185C578.182 681.266 580.485 680.882 583.172 680.114C630.388 668.214 677.988 659.385 725.972 653.243C740.942 651.323 763.207 650.172 766.661 665.911Z" fill="white" stroke="black" stroke-width="20" stroke-miterlimit="10"/>
<path d="M671.463 739.233C679.307 739.233 685.666 732.358 685.666 723.878C685.666 715.397 679.307 708.522 671.463 708.522C663.619 708.522 657.26 715.397 657.26 723.878C657.26 732.358 663.619 739.233 671.463 739.233Z" fill="black"/>
</svg>
