<svg width="1760" height="1760" viewBox="0 0 1760 1760" fill="none" xmlns="http://www.w3.org/2000/svg">
<rect width="1760" height="1760" fill="white"/>
<path d="M680.416 518.839C657.425 516.501 644.566 548.455 642.228 571.056C639.89 593.658 646.904 616.649 652.36 638.861C662.102 678.219 668.336 717.967 671.064 758.494C673.012 786.941 673.012 816.557 662.88 843.445C652.749 870.333 630.538 894.104 602.481 899.17C544.03 909.692 489.086 840.718 433.363 860.591C409.203 869.165 393.226 892.935 387.771 918.265C382.315 943.594 385.823 969.313 390.499 994.253C397.903 1032.44 408.034 1070.24 419.724 1107.26C432.584 1147.4 448.56 1189.1 481.682 1214.81C533.509 1254.95 614.951 1239.36 658.984 1190.65C682.754 1164.16 696.782 1130.64 716.656 1101.42C736.529 1072.19 765.755 1044.91 800.825 1043.35C840.182 1041.4 874.474 1071.41 895.906 1104.53C917.338 1137.66 931.366 1175.85 956.695 1206.24C982.024 1236.64 1025.28 1257.68 1061.13 1241.7C1114.12 1217.93 1114.12 1136.49 1163.22 1105.31C1218.95 1069.46 1309.35 1117.39 1352.21 1066.73C1367.02 1049.59 1370.14 1025.82 1372.48 1003.22C1378.32 947.881 1380.27 887.869 1350.66 841.107C1320.65 793.566 1259.08 760.053 1258.3 703.939C1257.91 676.271 1273.11 647.824 1263.76 621.715C1255.96 600.672 1234.53 588.202 1221.28 569.887C1206.09 548.844 1198.68 517.28 1173.35 512.604C1144.91 507.148 1126.98 539.882 1108.67 562.094C1058.79 622.884 965.267 619.377 888.891 599.114C820.698 581.188 762.248 527.022 680.806 519.228L680.416 518.839Z" fill="#21DB91" stroke="black" stroke-width="20" stroke-miterlimit="10"/>
<path d="M1240.38 834.483C1249.73 878.128 1225.57 924.5 1189.33 950.999C1180.37 957.234 1171.02 963.079 1160.11 965.417C1139.84 970.093 1118.41 963.858 1100.88 952.947C1069.7 933.463 1048.66 899.171 1044.76 862.93C1044.76 859.033 1044.37 854.747 1047.1 852.019C1049.05 850.071 1051.39 849.681 1054.11 848.902C1102.04 836.821 1150.36 827.859 1199.07 821.624C1214.27 819.675 1237.88 824.023 1241.38 840L1240.38 834.483Z" fill="white" stroke="black" stroke-width="20" stroke-miterlimit="10"/>
<path d="M1143.74 909.302C1151.7 909.302 1158.16 902.324 1158.16 893.715C1158.16 885.106 1151.7 878.128 1143.74 878.128C1135.78 878.128 1129.32 885.106 1129.32 893.715C1129.32 902.324 1135.78 909.302 1143.74 909.302Z" fill="black"/>
</svg>
