<svg width="1760" height="1760" viewBox="0 0 1760 1760" fill="none" xmlns="http://www.w3.org/2000/svg">
<rect width="1760" height="1760" fill="white"/>
<path d="M857.836 391.376C776.427 444.313 743.141 546.177 658.925 594.703C638.473 606.333 614.812 612.75 597.568 628.39C558.668 663.682 569.897 728.65 597.568 773.166C625.239 817.681 666.545 854.978 682.987 904.707C693.815 936.79 693.413 971.28 689.403 1004.57C684.591 1046.68 670.154 1094 631.254 1111.64C605.187 1123.67 574.709 1118.86 546.236 1123.27C500.519 1130.09 459.614 1162.17 442.369 1205.09C435.953 1221.13 432.344 1238.77 434.75 1255.62C439.562 1294.52 473.248 1325 510.143 1337.03C547.038 1349.06 587.542 1345.45 626.04 1338.23C682.185 1327.8 737.126 1310.16 788.859 1285.69C813.322 1274.06 840.591 1260.83 866.257 1269.65C886.309 1276.47 899.543 1295.72 912.376 1312.56C944.859 1355.48 999.399 1395.98 1048.73 1373.92C1092.04 1354.67 1103.27 1298.93 1105.67 1251.21C1108.08 1203.48 1110.08 1149.34 1146.98 1119.26C1197.51 1077.96 1276.11 1110.84 1336.66 1085.58C1372.76 1070.34 1398.82 1033.04 1400.03 994.139C1401.23 955.238 1378.37 915.936 1343.48 897.889C1327.04 889.467 1308.19 885.457 1294.56 873.426C1273.3 855.379 1268.89 824.499 1268.09 796.827C1266.89 762.338 1268.09 727.848 1272.5 693.359C1276.91 657.265 1279.72 611.948 1247.64 594.703C1216.76 578.26 1181.47 603.526 1146.98 609.541C1084.02 620.369 1029.48 563.823 1001.4 506.474C984.962 472.787 972.129 435.49 944.859 409.021C917.589 382.553 875.08 378.542 857.034 390.172L857.836 391.376Z" fill="#FF6640" stroke="black" stroke-width="20" stroke-miterlimit="10"/>
<path d="M927.213 644.029C936.837 688.946 911.974 736.67 874.678 763.941C865.454 770.357 855.83 776.373 844.601 778.779C823.747 783.591 801.69 777.175 783.644 765.946C751.562 745.894 729.906 710.602 725.896 673.305C725.896 669.295 725.495 664.884 728.302 662.076C730.307 660.071 732.714 659.67 735.521 658.868C784.847 646.436 834.575 637.212 884.704 630.795C900.344 628.79 923.603 627.587 927.213 644.029Z" fill="white" stroke="black" stroke-width="20" stroke-miterlimit="10"/>
<path d="M827.758 721.029C835.953 721.029 842.596 713.847 842.596 704.987C842.596 696.128 835.953 688.946 827.758 688.946C819.564 688.946 812.92 696.128 812.92 704.987C812.92 713.847 819.564 721.029 827.758 721.029Z" fill="black"/>
</svg>
