<svg width="1760" height="1760" viewBox="0 0 1760 1760" fill="none" xmlns="http://www.w3.org/2000/svg">
<rect width="1760" height="1760" fill="white"/>
<path d="M538.885 995.419C501.003 1030.39 479.73 1091 507.996 1134.42C534.514 1175.22 592.794 1182.8 639.71 1169.68C686.625 1156.57 727.713 1128.3 773.171 1111.11C785.701 1106.45 799.689 1102.37 812.22 1107.32C823.002 1111.69 830.286 1121.6 835.531 1131.8C861.758 1183.38 847.187 1245.45 851.85 1303.44C854.764 1341.61 878.367 1387.66 916.249 1382.41C944.515 1378.62 960.543 1347.73 966.954 1320.05C975.113 1284.5 975.987 1247.49 984.729 1211.94C993.471 1176.38 1011.83 1140.83 1044.17 1123.93C1071.28 1109.94 1103.62 1111.4 1133.34 1105.28C1168.89 1098 1203.28 1078.47 1221.06 1047C1238.83 1015.53 1236.21 971.524 1209.4 947.337C1195.99 935.098 1177.05 927.521 1169.19 911.202C1155.2 881.77 1184.92 851.172 1212.31 833.396C1239.7 815.62 1271.47 789.102 1262.43 757.921C1251.07 719.455 1188.42 718.581 1174.14 680.989C1161.61 647.769 1193.37 600.269 1164.23 579.87C1144.42 565.883 1118.19 582.784 1097.21 595.315C1052.04 621.833 1018.24 617.462 980.066 581.619C930.528 534.702 916.832 460.393 894.686 395.7C890.315 383.169 883.904 370.347 873.122 362.771C853.016 349.074 823.875 357.525 807.848 375.884C791.821 394.243 785.702 419.012 782.205 442.908C777.252 476.42 775.503 510.224 777.251 543.736C778.708 570.545 781.331 599.978 765.595 621.833C741.409 655.345 691.288 649.808 649.617 648.351C641.458 648.351 632.425 648.351 626.305 653.888C621.643 658.259 619.894 664.67 618.729 671.081C612.027 702.262 608.53 734.317 608.53 766.372C608.53 773.366 610.57 780.068 612.318 787.062C630.385 854.669 707.606 829.025 707.606 891.969C707.606 1032.72 568.025 968.901 539.176 995.711L538.885 995.419Z" fill="#2667FF" stroke="black" stroke-width="20" stroke-miterlimit="10"/>
<path d="M873.707 800.176C869.627 786.771 865.547 772.492 869.918 759.379C874.289 746.265 890.025 733.735 909.549 733.443C940.147 733.443 954.425 759.962 978.611 773.366C1005.42 788.228 1043.3 785.606 1075.36 794.056C1082.35 795.805 1089.34 798.428 1093.42 803.09C1101 811.832 1092.84 823.197 1082.64 830.483C1072.44 837.768 1059.04 843.596 1053.5 852.921C1045.05 866.617 1055.54 882.353 1061.66 896.633C1067.78 910.912 1065.16 931.019 1044.76 935.39C1019.12 940.635 998.136 914.991 971.618 916.448C951.803 917.614 940.438 932.476 931.113 944.715C921.788 956.954 904.012 970.359 885.363 965.696C866.13 960.742 864.965 941.509 871.376 927.813C877.787 914.117 887.694 898.964 878.369 885.85C866.713 869.531 830.288 866.326 824.46 848.55C820.963 837.768 831.453 827.277 843.401 820.283C855.348 813.289 869.627 807.753 873.707 800.176Z" fill="white" stroke="black" stroke-width="20" stroke-miterlimit="10"/>
<path d="M959.96 870.113C973.962 870.113 985.312 861.111 985.312 850.006C985.312 838.901 973.962 829.899 959.96 829.899C945.959 829.899 934.608 838.901 934.608 850.006C934.608 861.111 945.959 870.113 959.96 870.113Z" fill="black"/>
</svg>
