<svg width="1760" height="1760" viewBox="0 0 1760 1760" fill="none" xmlns="http://www.w3.org/2000/svg">
<path d="M1760 0H0V1760H1760V0Z" fill="white"/>
<path d="M459.28 609.851C489.967 666.112 579.241 680.527 591.33 743.298C597.839 777.241 577.38 810.718 552.272 833.967C527.164 857.215 496.942 875.349 474.159 901.388C451.376 927.426 437.893 966.019 454.166 996.242C467.65 1021.82 497.873 1033.91 516.936 1055.29C542.044 1083.66 545.763 1125.04 542.508 1162.7C539.253 1200.36 529.955 1238.03 533.21 1275.69C538.789 1336.6 585.284 1394.72 645.729 1402.63C666.187 1405.42 688.505 1402.16 705.244 1389.14C721.517 1376.59 729.886 1356.13 738.721 1337.07C763.828 1281.27 794.05 1228.26 829.852 1178.51C860.074 1136.2 896.806 1094.82 946.557 1079.94C960.971 1075.75 976.314 1073.89 990.263 1079.01C1018.63 1089.7 1028.39 1123.64 1039.08 1151.54C1061.4 1208.73 1104.18 1257.56 1157.65 1287.78C1203.68 1313.82 1265.05 1324.05 1306.43 1291.03C1325.5 1275.69 1337.12 1253.37 1344.56 1230.12C1365.02 1164.56 1350.61 1089.24 1307.37 1035.77C1285.05 1008.33 1256.68 986.942 1232.51 960.904C1208.33 934.866 1188.33 902.782 1188.8 867.445C1189.73 821.878 1225.53 784.68 1260.87 755.852C1296.21 727.024 1335.73 697.731 1350.61 654.488C1368.74 601.947 1339.45 537.781 1288.3 516.857C1263.19 506.628 1235.3 505.698 1208.79 501.048C1141.38 488.494 1082.79 448.506 1023.74 414.098C964.691 379.691 898.666 348.073 830.317 355.512C741.51 365.277 670.372 437.347 582.495 451.761C554.598 456.411 524.841 455.016 498.338 465.245C471.835 475.475 440.681 575.908 459.28 609.851Z" fill="#FF82C1" stroke="black" stroke-width="20" stroke-miterlimit="10"/>
<path d="M815.902 626.591C764.292 675.412 773.126 799.095 800.094 875.35C804.278 887.439 809.393 899.063 815.902 907.898C824.271 919.057 834.5 924.637 844.729 927.892C882.391 939.981 923.773 920.917 949.81 870.7C975.848 820.483 982.357 737.719 960.969 680.992C947.485 646.12 925.632 624.266 902.849 614.966C880.066 605.667 848.914 595.436 815.902 626.589V626.591Z" fill="white" stroke="black" stroke-width="20" stroke-miterlimit="10"/>
<path d="M880.065 814.903C890.336 814.903 898.663 799.914 898.663 781.425C898.663 762.936 890.336 747.947 880.065 747.947C869.793 747.947 861.467 762.936 861.467 781.425C861.467 799.914 869.793 814.903 880.065 814.903Z" fill="black"/>
</svg>
