<svg width="1760" height="1760" viewBox="0 0 1760 1760" fill="none" xmlns="http://www.w3.org/2000/svg">
<g clip-path="url(#clip0_10_212)">
<path d="M1760 0H0V1760H1760V0Z" fill="white"/>
<path d="M588.198 370.36C551.539 386.491 605.428 464.21 603.228 511.501C601.028 558.793 586.732 607.184 555.205 642.377C552.272 645.677 548.973 648.976 547.507 653.375C543.108 665.106 552.638 677.204 560.336 687.103C591.863 729.995 589.297 795.249 553.738 835.209C535.042 856.471 508.648 870.769 493.251 894.598C461.358 943.356 487.386 1010.44 528.078 1052.24C568.769 1094.03 622.29 1121.89 660.049 1166.25C682.044 1191.54 697.808 1221.6 715.771 1249.83C738.5 1285.39 765.994 1319.85 803.386 1339.28C840.778 1358.71 890.268 1360.55 922.894 1333.78C973.484 1293.09 966.518 1206.94 1017.47 1166.61C1068.06 1126.66 1149.45 1153.05 1201.5 1114.19C1240.36 1085.6 1247.33 1023.27 1217.63 985.148C1207.37 971.95 1193.8 961.319 1182.81 948.488C1154.58 914.394 1150.55 862.337 1172.91 824.211C1189.04 796.349 1314.05 695.168 1271.16 651.909C1172.91 553.66 1090.79 493.538 1022.97 612.316C996.579 658.508 963.219 726.695 910.064 723.763C769.293 716.064 794.588 609.017 797.52 526.532C798.62 490.605 765.628 456.145 731.901 439.281C696.342 421.318 631.822 350.931 588.198 370.36Z" fill="#FFD58C" stroke="black" stroke-width="20" stroke-miterlimit="10"/>
<path d="M781.757 843.275C711.005 884.701 723.469 988.448 760.128 1052.97C765.994 1063.23 772.959 1073.13 781.757 1080.46C793.121 1090 807.419 1094.4 821.349 1097.33C872.672 1107.23 929.493 1091.46 965.052 1049.3C1000.61 1007.14 1009.78 936.758 980.082 889.1C961.753 859.772 931.692 841.075 900.532 833.377C869.372 825.678 826.848 817.246 781.757 843.275Z" fill="white" stroke="black" stroke-width="20" stroke-miterlimit="10"/>
<path d="M869.372 1001.65C883.342 1001.65 894.667 989.007 894.667 973.417C894.667 957.827 883.342 945.189 869.372 945.189C855.402 945.189 844.077 957.827 844.077 973.417C844.077 989.007 855.402 1001.65 869.372 1001.65Z" fill="black"/>
</g>
<defs>
<clipPath id="clip0_10_212">
<rect width="1760" height="1760" fill="white"/>
</clipPath>
</defs>
</svg>
