<svg width="1760" height="1760" viewBox="0 0 1760 1760" fill="none" xmlns="http://www.w3.org/2000/svg">
<rect width="1760" height="1760" fill="white"/>
<path d="M733.272 475.639C674.32 506.872 578.28 603.306 586.869 672.41C595.848 748.151 691.889 795.782 668.855 868.4C634.889 974.594 482.24 942.97 438.905 968.348C401.035 990.211 378 1057.75 378 1101.48C378 1145.21 405.329 1188.54 446.322 1203.77C484.582 1218.22 528.308 1208.06 565.006 1190.5C601.704 1172.93 635.671 1148.33 673.15 1132.32C694.622 1122.95 718.047 1116.71 741.081 1121C805.108 1133.1 823.457 1213.92 864.059 1264.68C886.313 1292.4 917.935 1312.7 952.682 1321.29C969.86 1325.58 988.209 1326.75 1004.22 1319.72C1026.86 1309.96 1040.13 1285.76 1047.94 1261.94C1063.56 1216.65 1066.68 1168.24 1078.78 1121.78C1090.89 1075.32 1114.31 1028.47 1156.47 1005.83C1182.24 992.163 1211.91 988.649 1240.41 981.231C1292.34 967.567 1341.92 936.724 1367.3 889.483C1392.67 842.242 1387.99 777.042 1348.17 741.124C1319.67 715.356 1275.94 704.815 1257.98 670.458C1244.32 644.69 1250.17 613.066 1259.93 585.737C1269.69 558.408 1282.58 531.078 1283.36 502.187C1284.14 473.296 1266.57 440.892 1238.07 436.597C1199.42 431.131 1122.51 463.536 1013.59 520.147C965.955 544.743 917.545 509.996 867.964 490.084C818.382 470.173 777.779 451.823 733.272 475.639Z" fill="#96BDF2" stroke="black" stroke-width="20" stroke-miterlimit="10"/>
<path d="M1033.49 794.219C1042.86 837.946 1019.05 884.016 982.741 910.564C973.761 916.811 964.391 922.667 953.46 925.01C933.159 929.695 911.685 923.448 894.117 912.516C862.884 892.995 841.802 858.639 837.898 822.33C837.898 818.425 837.509 814.131 840.242 811.398C842.194 809.446 844.536 809.055 847.269 808.274C895.289 796.171 943.7 787.192 992.501 780.945C1007.73 778.993 1029.98 778.212 1033.49 794.219Z" fill="white" stroke="black" stroke-width="20" stroke-miterlimit="10"/>
<path d="M937.063 868.789C945.041 868.789 951.508 861.797 951.508 853.172C951.508 844.548 945.041 837.556 937.063 837.556C929.085 837.556 922.618 844.548 922.618 853.172C922.618 861.797 929.085 868.789 937.063 868.789Z" fill="black"/>
</svg>
