<svg width="1760" height="1760" viewBox="0 0 1760 1760" fill="none" xmlns="http://www.w3.org/2000/svg">
<rect width="1760" height="1760" fill="white"/>
<path d="M584.07 435.129C565.993 458.252 542.029 474.648 548.335 503.236C554.641 531.824 571.037 557.89 571.457 587.319C572.298 629.36 539.087 667.618 543.291 709.659C547.495 748.757 581.968 776.504 611.396 802.57C647.971 834.521 683.284 876.142 682.444 924.91C681.603 976.2 640.404 1018.24 595.841 1043.05C551.278 1067.85 500.409 1081.3 457.108 1108.63C413.806 1135.96 376.391 1182.62 382.697 1233.49C384.379 1246.53 389.424 1260.4 400.354 1267.97C411.705 1275.95 426.839 1275.95 440.713 1275.53C504.193 1273.43 567.674 1271.33 631.575 1269.65C666.048 1268.39 703.044 1266.71 731.21 1246.53C797.214 1199.02 779.556 1049.77 914.926 1062.81C996.904 1070.79 984.712 1221.72 996.063 1248.21C1091.49 1467.24 1247.04 1286.04 1283.62 1243.58C1379.05 1131.75 1265.12 945.09 1314.73 806.774C1337.01 744.973 1380.73 687.797 1377.37 622.213C1374.42 559.151 1321.45 502.816 1258.81 495.248C1205 488.942 1146.99 514.587 1098.22 490.624C1079.72 481.375 1064.17 464.979 1043.57 461.615C993.961 453.207 965.795 519.212 919.13 538.13C882.976 552.424 841.355 535.187 811.087 510.803C780.818 486.42 657.64 341.377 584.07 435.129Z" fill="#84FAB0" stroke="black" stroke-width="20" stroke-miterlimit="10"/>
<path d="M1045 637C1092.08 626.91 1136.9 654.163 1165.49 693.261C1172.21 702.931 1178.52 713.021 1181.04 724.792C1186.09 746.654 1179.36 769.776 1167.59 788.695C1146.57 822.328 1109.57 845.03 1070.47 849.234C1066.27 849.234 1061.65 849.655 1058.7 846.712C1056.6 844.61 1056.18 842.088 1055.34 839.145C1042.31 787.434 1032.64 735.303 1025.91 682.751C1023.81 666.355 1022.97 642.391 1040.21 638.608L1045 637Z" fill="white" stroke="black" stroke-width="20" stroke-miterlimit="10"/>
<path d="M1113.36 758.006C1127.75 758.006 1139.42 746.713 1139.42 732.781C1139.42 718.85 1127.75 707.557 1113.36 707.557C1098.96 707.557 1087.29 718.85 1087.29 732.781C1087.29 746.713 1098.96 758.006 1113.36 758.006Z" fill="black"/>
</svg>
