<svg width="1760" height="1760" viewBox="0 0 1760 1760" fill="none" xmlns="http://www.w3.org/2000/svg">
<rect width="1760" height="1760" fill="white"/>
<path d="M386.983 558.042C430.543 481.697 533.831 444.872 612.869 483.493C680.23 516.726 718.851 590.826 783.069 629.896C878.274 687.829 999.973 655.045 1110.9 667.171C1183.65 675.254 1254.6 703.547 1312.53 748.456C1372.26 794.712 1420.31 870.608 1398.75 942.912C1390.67 970.306 1373.16 994.108 1356.09 1017.46C1313.43 1075.39 1270.32 1133.33 1227.66 1191.26C1205.2 1221.35 1182.3 1252.33 1150.86 1272.09C1119.43 1291.85 1076.77 1299.49 1044.43 1280.18C995.483 1250.99 977.52 1168.35 920.936 1171.5C886.806 1173.29 865.251 1207.43 839.204 1229.43C790.704 1271.65 699.092 1263.56 678.434 1202.49C670.8 1179.58 674.392 1154.88 669.452 1131.53C651.04 1041.26 527.095 1010.72 492.965 924.948C481.289 895.757 485.33 852.645 472.307 832.436C433.686 771.809 295.371 717.469 386.534 558.042H386.983Z" fill="#99E6FF" stroke="black" stroke-width="20" stroke-miterlimit="10"/>
<path d="M460.634 697.709C453 657.291 472.31 615.076 501.051 590.826C508.236 584.987 515.87 580.047 524.403 577.353C540.57 572.862 557.635 578.7 571.556 588.58C596.255 606.544 613.321 637.98 616.015 671.213C616.015 674.805 616.015 678.847 614.218 681.092C612.871 682.889 610.626 683.338 608.83 683.787C570.658 695.014 532.037 703.098 493.416 708.936C481.291 710.732 463.328 711.181 460.634 696.811V697.709Z" fill="white" stroke="black" stroke-width="20" stroke-miterlimit="10"/>
<path d="M537.425 657.741C543.874 657.741 549.101 651.307 549.101 643.37C549.101 635.433 543.874 628.999 537.425 628.999C530.977 628.999 525.749 635.433 525.749 643.37C525.749 651.307 530.977 657.741 537.425 657.741Z" fill="black"/>
</svg>
