<svg width="1760" height="1760" viewBox="0 0 1760 1760" fill="none" xmlns="http://www.w3.org/2000/svg">
<rect width="1760" height="1760" fill="white"/>
<path d="M1053.46 427.249C1186.38 432.632 1300.24 564.725 1285.75 696.817C1275.4 793.299 1209.15 874.873 1186.38 969.284C1163.6 1063.7 1186.38 1163.49 1172.71 1259.56C1167.33 1297.24 1155.73 1334.92 1132.13 1364.73C1099.42 1405.73 1045.59 1427.67 993.417 1425.19C941.244 1422.71 891.141 1397.03 855.117 1358.94C824.89 1327.05 801.702 1285.23 760.708 1269.91C706.879 1250.03 645.596 1284.82 589.696 1270.74C539.593 1257.9 507.295 1207.38 496.115 1156.45C484.935 1105.52 490.733 1053.34 488.662 1001.58C485.35 911.312 459.263 818.972 485.764 732.843C508.952 657.065 571.477 584.187 547.047 508.823C537.109 478.595 513.093 448.367 523.859 418.139C528 406.545 536.695 397.021 546.632 389.567C585.555 359.753 638.143 355.612 687.004 356.027C817.436 357.269 937.518 422.694 1053.46 427.663V427.249Z" fill="#424242" stroke="black" stroke-width="20" stroke-miterlimit="10"/>
<path d="M899.839 568.865C817.438 615.242 831.931 732.014 874.581 804.065C881.206 815.659 889.487 826.425 899.839 834.707C913.089 845.059 929.653 850.442 945.801 853.341C1005.43 864.521 1071.27 847.129 1112.67 799.51C1154.08 751.89 1164.43 673.628 1130.06 620.211C1108.95 587.085 1073.75 566.795 1037.73 557.685C1001.7 548.575 952.012 539.465 899.839 568.865Z" fill="white" stroke="black" stroke-width="20" stroke-miterlimit="10"/>
<path d="M1001.7 746.507C1017.93 746.507 1031.1 732.418 1031.1 715.037C1031.1 697.656 1017.93 683.567 1001.7 683.567C985.461 683.567 972.298 697.656 972.298 715.037C972.298 732.418 985.461 746.507 1001.7 746.507Z" fill="black"/>
</svg>
