<svg width="1760" height="1760" viewBox="0 0 1760 1760" fill="none" xmlns="http://www.w3.org/2000/svg">
<rect width="1760" height="1760" fill="white"/>
<path d="M782.059 405.425C746.784 447.473 739.165 505.325 728.724 559.226C718.283 613.128 699.658 671.262 652.813 699.764C640.114 707.384 625.44 712.746 616.128 724.316C598.349 745.764 605.969 777.089 607.38 805.027C612.177 892.228 547.836 968.988 537.394 1055.62C530.057 1114.61 548.117 1176.97 528.081 1232.85C520.744 1253.45 508.327 1274.62 514.818 1295.5C519.615 1311.3 534.29 1321.74 547.835 1331.06C578.877 1352.5 605.121 1391.45 642.936 1391.45C688.37 1391.45 725.902 1391.45 754.404 1366.61C794.476 1331.9 794.194 1270.66 790.808 1217.61C787.139 1163.71 783.471 1110.09 780.084 1056.19C778.955 1037.28 777.826 1016.96 788.267 1000.88C796.733 987.613 811.69 979.994 826.083 973.503C868.694 954.878 914.692 943.871 960.973 940.485C976.776 939.356 993.707 939.356 1006.97 948.105C1021.64 957.7 1028.42 976.043 1032.65 993.257C1040.55 1025.71 1042.81 1059.29 1039.71 1092.59C1035.75 1131.82 1027.01 1178.67 1057.2 1204.06C1074.13 1218.17 1098.12 1219.87 1120.41 1220.43C1141.3 1221.28 1164.72 1221.28 1180.52 1207.45C1191.81 1197.57 1196.89 1182.9 1200.56 1168.22C1221.72 1086.1 1210.72 999.748 1212.13 915.087C1212.41 891.664 1217.49 863.443 1239.22 855.259C1257.56 848.486 1281.55 859.21 1295.66 845.946C1302.71 839.173 1304.41 828.732 1305.54 818.855C1310.05 782.45 1311.46 738.426 1281.55 717.543C1253.05 697.789 1212.69 711.335 1181.09 697.225C1153.71 685.09 1138.76 653.201 1138.76 623.287C1138.76 563.177 1197.17 538.343 1162.18 494.884C1125.21 448.602 1085.99 499.399 1056.92 511.534C1009.51 531.288 956.175 492.908 931.624 447.755C921.747 429.694 914.41 409.94 900.018 395.265C885.626 380.591 837.934 339.389 782.341 405.143L782.059 405.425Z" fill="#8CFFD9" stroke="black" stroke-width="20" stroke-miterlimit="10"/>
<path d="M827.493 787.531C824.389 755.359 845.836 724.035 874.338 708.231C881.111 704.28 888.73 701.176 896.632 700.33C911.588 698.636 926.262 705.127 938.114 714.44C958.715 731.09 971.132 757.617 970.568 784.144C970.568 786.966 970.285 790.071 968.028 791.764C966.617 792.893 964.641 793.175 962.948 793.457C927.673 797.972 891.834 800.512 856.277 800.794C844.989 800.794 828.904 799.383 828.057 787.813L827.493 787.531Z" fill="white" stroke="black" stroke-width="20" stroke-miterlimit="10"/>
<path d="M898.892 767.21C908.555 767.21 916.388 759.629 916.388 750.277C916.388 740.926 908.555 733.345 898.892 733.345C889.229 733.345 881.396 740.926 881.396 750.277C881.396 759.629 889.229 767.21 898.892 767.21Z" fill="black"/>
</svg>
