<svg width="1760" height="1760" viewBox="0 0 1760 1760" fill="none" xmlns="http://www.w3.org/2000/svg">
<rect width="1760" height="1760" fill="white"/>
<path d="M771.5 371.65C695.599 413.86 652.65 501.981 633.767 586.771C628.213 611.208 625.622 636.756 630.805 661.193C635.989 685.63 651.169 708.957 673.754 719.694C714.112 738.948 768.168 715.992 804.082 742.651C828.148 760.793 833.332 794.487 836.294 824.478C838.515 844.842 840.366 865.577 835.183 885.2C829.999 904.824 815.559 923.337 795.566 927.78C778.534 931.483 758.541 924.818 744.102 935.185C733.735 942.591 730.773 956.66 728.921 969.249C722.997 1009.24 721.146 1049.6 719.665 1089.95C715.963 1174.37 712.26 1258.42 708.187 1342.84C708.187 1349.88 707.817 1357.65 711.149 1363.95C714.851 1370.61 722.256 1374.31 729.661 1377.28C754.468 1388.01 780.386 1396.16 807.044 1400.97C844.809 1408.01 889.98 1405.79 913.676 1375.42C927.005 1358.02 930.337 1334.7 931.448 1312.85C932.929 1287.67 932.189 1262.12 929.227 1236.95C927.375 1220.29 924.784 1202.88 929.227 1186.96C938.113 1156.6 971.065 1138.83 1002.54 1136.61C1034.01 1134.39 1064.74 1144.75 1095.47 1153.27C1126.2 1161.78 1158.78 1168.08 1188.77 1158.45C1197.29 1155.86 1205.8 1151.79 1210.62 1144.38C1215.06 1138.09 1216.17 1129.94 1217.65 1122.17C1235.05 1005.16 1241.35 891.865 1230.98 774.123C1229.13 752.647 1222.09 724.508 1208.4 707.846C1199.88 697.479 1129.16 656.38 1030.67 670.45C1000.31 674.893 968.103 680.447 940.704 667.117C905.531 650.456 890.35 607.876 889.239 568.999C888.128 530.121 957.365 267.607 771.5 370.91V371.65Z" fill="#5CFF37" stroke="black" stroke-width="20" stroke-miterlimit="10"/>
<path d="M1000.31 856.32C988.836 870.39 998.834 953.328 1007.72 961.473C1015.87 968.879 1129.16 968.879 1136.2 964.436C1147.3 957.401 1138.05 867.428 1136.57 863.725C1132.49 852.247 1016.98 835.585 1000.31 855.949V856.32Z" fill="#F5F5F7" stroke="black" stroke-width="20" stroke-miterlimit="10"/>
<path d="M1068.44 906.304C1072.94 906.304 1076.59 902.823 1076.59 898.529C1076.59 894.235 1072.94 890.753 1068.44 890.753C1063.94 890.753 1060.3 894.235 1060.3 898.529C1060.3 902.823 1063.94 906.304 1068.44 906.304Z" fill="black" stroke="black" stroke-width="20" stroke-miterlimit="10"/>
</svg>
