<svg width="1760" height="1760" viewBox="0 0 1760 1760" fill="none" xmlns="http://www.w3.org/2000/svg">
<rect width="1760" height="1760" fill="white"/>
<path d="M828.838 373.003C720.694 383.141 613.817 391.59 587.203 418.205C566.926 438.482 558.055 472.701 549.184 532.266C540.313 591.832 518.768 592.677 510.319 648.018C497.223 733.775 512.854 878.675 493.844 1056.95C485.818 1132.99 484.55 1210.72 499.758 1285.49C504.827 1309.15 513.276 1333.23 530.596 1349.71C557.21 1374.63 597.342 1376.32 633.672 1376.74C715.625 1377.59 798 1378.43 879.953 1379.28C1007.53 1380.55 1137.22 1381.81 1260.99 1350.13C1268.6 1348.02 1277.05 1345.9 1282.54 1340.41C1288.87 1334.5 1291.41 1325.63 1293.52 1317.18C1306.62 1263.95 1309.15 1208.61 1310.84 1154.11C1317.18 980.063 1317.6 806.014 1312.53 631.964C1310.84 581.27 1306.62 524.24 1269.02 490.021C1248.32 471.011 1220.44 461.717 1194.67 450.311C1168.9 438.905 1142.71 421.584 1133.42 394.97C1130.46 386.943 1122.01 356.949 1117.79 349.768C1103 324.421 914.593 365.821 828.415 373.847L828.838 373.003Z" fill="#99E6FF" stroke="black" stroke-width="20" stroke-miterlimit="10"/>
<path d="M807.292 934.016C723.227 981.33 738.013 1100.46 781.524 1173.97C788.283 1185.8 796.731 1196.78 807.292 1205.23C820.81 1215.79 837.708 1221.28 854.184 1224.24C915.015 1235.65 982.182 1217.9 1024.43 1169.32C1066.67 1120.74 1077.23 1040.9 1042.17 986.4C1020.62 952.604 984.717 931.904 947.965 922.61C911.213 913.316 860.519 904.022 807.292 934.016Z" fill="white" stroke="black" stroke-width="20" stroke-miterlimit="10"/>
<path d="M911.21 1114.82C927.775 1114.82 941.203 1100.45 941.203 1082.72C941.203 1064.99 927.775 1050.61 911.21 1050.61C894.645 1050.61 881.216 1064.99 881.216 1082.72C881.216 1100.45 894.645 1114.82 911.21 1114.82Z" fill="black"/>
</svg>
