<svg width="1760" height="1760" viewBox="0 0 1760 1760" fill="none" xmlns="http://www.w3.org/2000/svg">
<rect width="1760" height="1760" fill="white"/>
<path d="M644.527 387.53C570.675 371.298 470.041 459.761 414.448 494.659C373.058 520.63 440.418 588.398 440.418 619.644C440.418 820.513 439.201 987.7 439.201 1188.57C439.201 1225.9 439.201 1263.64 441.23 1300.97C441.636 1311.12 442.447 1322.07 448.128 1330.6C456.649 1343.58 472.882 1348.45 488.301 1351.7C562.966 1367.52 640.064 1372.39 716.352 1365.9C723.656 1365.09 731.365 1364.28 737.452 1359.81C745.162 1353.32 746.785 1342.36 747.597 1332.22C752.466 1272.16 756.524 1212.1 759.77 1152.05C761.799 1116.34 763.422 1079.82 778.031 1046.95C792.639 1014.08 822.667 985.671 858.376 984.454C899.361 982.831 934.258 1016.92 948.054 1055.47C961.851 1094.02 958.605 1136.22 956.171 1176.8C954.142 1214.95 953.33 1255.93 975.242 1287.18C1004.05 1328.16 1061.27 1337.09 1111.59 1333.44C1132.28 1331.81 1153.79 1328.16 1170.02 1315.18C1191.52 1297.73 1198.02 1267.7 1199.64 1240.1C1203.7 1176.39 1192.74 1104.16 1234.13 1055.47C1258.48 1026.66 1296.62 1013.27 1324.62 987.7C1381.03 936.976 1386.71 850.136 1374.94 775.064C1369.26 740.977 1360.74 706.079 1340.45 678.079C1306.36 631.007 1226.83 662.253 1150.54 594.079C1139.18 583.934 1070.6 659.818 1044.22 682.543C976.053 740.571 816.58 773.846 737.452 497.906C730.96 474.775 710.265 402.138 644.934 387.53H644.527Z" fill="#FF3B83" stroke="black" stroke-width="20" stroke-miterlimit="10"/>
<path d="M1288.5 855.411C1278.77 798.6 1192.74 755.585 1130.65 744.629C1120.51 743.006 1110.77 741.788 1102.25 743.006C1091.29 744.629 1083.18 749.904 1076.69 755.991C1052.34 778.31 1046.66 815.643 1068.57 854.599C1090.48 893.556 1142.42 931.295 1189.49 938.599C1218.3 943.063 1242.24 935.758 1258.48 923.179C1274.71 910.599 1294.59 891.932 1288.5 855.817V855.411Z" fill="white" stroke="black" stroke-width="20" stroke-miterlimit="10"/>
<path d="M1180.7 853.277C1185.1 845.987 1178.87 834.16 1166.79 826.86C1154.7 819.561 1141.33 819.554 1136.93 826.844C1132.53 834.134 1138.76 845.961 1150.84 853.26C1162.93 860.559 1176.3 860.567 1180.7 853.277Z" fill="black"/>
</svg>
