<svg width="1760" height="1760" viewBox="0 0 1760 1760" fill="none" xmlns="http://www.w3.org/2000/svg">
<rect width="1760" height="1760" fill="white"/>
<path d="M664.9 578.969C619.78 582.154 647.913 665.495 606.509 748.306C558.735 843.856 544.403 817.314 470.619 882.606C393.12 951.615 389.935 1069.46 392.589 1173.5C394.181 1227.65 397.897 1288.16 437.709 1325.32C473.274 1358.76 526.885 1362.48 575.721 1364.6C721.165 1370.44 866.61 1376.81 1012.05 1382.65C1086.9 1385.84 1173.96 1383.71 1220.14 1324.79C1244.55 1294.53 1251.99 1254.19 1257.29 1215.44C1276.94 1065.74 1291.8 939.406 1322.58 791.834C1355.5 634.707 1366.64 456.347 1332.67 422.373C1305.6 395.301 1241.37 412.288 1201.56 426.089C1135.21 449.446 1064.08 451.569 1026.39 511.023C1004.62 545.527 1001.44 587.993 991.354 627.806C977.021 681.951 928.717 736.627 872.45 738.75C694.626 745.651 736.56 573.661 664.368 578.969H664.9Z" fill="#FFF570" stroke="black" stroke-width="20" stroke-miterlimit="10"/>
<path d="M1087.43 1151.21C1108.66 1135.81 1103.36 1071.05 1103.36 1030.71C1103.36 1015.84 1103.36 1000.45 1099.11 987.71C1092.21 966.477 1076.82 960.638 1063.01 957.453C1035.94 951.614 1008.87 950.552 981.799 954.799C977.022 955.33 972.244 956.391 967.997 960.107C957.912 969.131 954.197 990.896 952.073 1010.01C947.827 1043.45 945.172 1077.42 943.049 1111.39C943.049 1119.89 941.987 1128.91 944.641 1136.88C948.357 1149.08 957.381 1152.8 965.344 1154.92C1008.34 1166.07 1059.3 1171.91 1087.43 1151.21Z" fill="white" stroke="black" stroke-width="20" stroke-miterlimit="10"/>
<path d="M1026.39 1074.77C1035.18 1074.77 1042.31 1067.64 1042.31 1058.84C1042.31 1050.05 1035.18 1042.92 1026.39 1042.92C1017.59 1042.92 1010.46 1050.05 1010.46 1058.84C1010.46 1067.64 1017.59 1074.77 1026.39 1074.77Z" fill="black" stroke="black" stroke-width="20" stroke-miterlimit="10"/>
</svg>
