<svg width="1760" height="1760" viewBox="0 0 1760 1760" fill="none" xmlns="http://www.w3.org/2000/svg">
<rect width="1760" height="1760" fill="white"/>
<path d="M705.711 379.356C680.353 377.051 650 376.667 635.784 397.799C630.021 406.252 628.485 416.241 626.564 426.231C593.906 614.499 570.085 804.304 555.101 994.878C553.564 1012.55 552.411 1031.38 560.479 1047.13C578.922 1082.86 629.254 1082.1 669.212 1075.95C709.17 1069.8 759.5 1069.42 777.558 1105.53C796.385 1143.19 762.19 1183.91 741.442 1220.42C721.848 1255.38 713.396 1298.41 727.996 1335.68C744.133 1377.95 789.469 1406.76 834.422 1403.3C879.375 1399.85 920.101 1364.88 930.09 1321.08C945.843 1252.31 893.207 1172 933.164 1113.6C958.907 1075.95 1010.77 1069.03 1056.5 1065.19C1106.83 1061.35 1157.54 1057.12 1207.87 1053.28C1216.71 1052.51 1225.93 1051.74 1233.62 1047.9C1247.83 1040.98 1255.52 1026 1260.9 1011.4C1293.17 922.644 1264.74 825.052 1257.82 730.918C1251.29 636.784 1267.04 542.266 1264.35 448.132C1263.97 430.842 1262.05 412.015 1250.91 398.567C1236.69 382.046 1212.49 379.356 1190.97 377.819C1029.99 366.292 1028.45 440.831 1018.46 487.322C1010.78 522.286 1001.55 559.94 970.048 576.461C938.543 592.983 895.127 589.909 870.153 564.166C835.959 528.818 823.28 456.969 795.233 416.241C775.638 387.809 759.884 384.735 705.326 379.74L705.711 379.356Z" fill="#FFD58C" stroke="black" stroke-width="20" stroke-miterlimit="10"/>
<path d="M885.525 734.377C802.919 790.473 820.593 932.635 872.462 969.52C958.909 1030.61 999.636 861.17 993.872 797.005C986.188 711.708 919.335 711.323 885.525 734.377Z" fill="white" stroke="black" stroke-width="20" stroke-miterlimit="10"/>
<path d="M930.096 854.435C932.635 840.446 928.093 827.908 919.951 826.43C911.808 824.952 903.149 835.093 900.609 849.081C898.07 863.07 902.612 875.609 910.754 877.087C918.897 878.566 927.556 868.424 930.096 854.435Z" fill="black"/>
</svg>
