<svg width="1760" height="1760" viewBox="0 0 1760 1760" fill="none" xmlns="http://www.w3.org/2000/svg">
<rect width="1760" height="1760" fill="white"/>
<path d="M579.325 672.157C494.93 682.544 506.617 854.801 511.377 904.573C530.853 1110.16 546.866 1192.82 578.893 1239.57C608.323 1282.85 656.796 1309.25 705.702 1326.99C787.067 1356.86 876.223 1368.11 961.484 1352.96C1046.74 1337.81 1128.11 1295.4 1184.81 1230.04C1254.05 1150.41 1282.62 1042.64 1291.27 937.467C1299.93 832.295 1290.41 726.257 1294.3 620.653C1294.74 604.206 1295.6 587.76 1291.71 572.179C1278.72 522.406 1252.32 526.301 1174.85 504.228C1085.26 478.692 955.424 386.505 954.125 402.951C949.798 472.2 994.376 589.058 996.973 693.364C998.271 743.57 1014.28 856.532 993.943 901.977C968.408 959.107 929.889 1001.52 872.76 1001.52C826.884 1001.52 779.709 997.194 752.443 883.366C741.623 838.787 694.449 658.74 579.325 672.59V672.157Z" fill="#B7ABFF" stroke="black" stroke-width="20" stroke-miterlimit="10"/>
<path d="M681.03 836.623C646.407 779.926 578.892 814.117 565.475 859.995C543.402 936.169 629.529 943.959 660.257 930.11C700.94 911.932 695.313 859.995 681.03 836.623Z" fill="white" stroke="black" stroke-width="20" stroke-miterlimit="10"/>
<path d="M621.739 889.86C628.91 889.86 634.722 884.628 634.722 878.174C634.722 871.72 628.91 866.488 621.739 866.488C614.568 866.488 608.756 871.72 608.756 878.174C608.756 884.628 614.568 889.86 621.739 889.86Z" fill="black"/>
</svg>
