<svg width="1760" height="1760" viewBox="0 0 1760 1760" fill="none" xmlns="http://www.w3.org/2000/svg">
<rect width="1760" height="1760" fill="white"/>
<path d="M772.433 415.282C720.402 450.979 703.461 519.045 691.36 580.757C679.26 642.47 664.74 710.536 615.129 749.56C599.096 761.963 580.038 771.039 566.123 785.862C540.713 812.786 537.385 853.02 535.57 890.23C530.125 992.782 524.982 1095.33 519.537 1197.89C517.419 1235.7 515.604 1274.73 527.704 1310.72C531.334 1321.61 536.477 1332.51 545.25 1340.07C554.023 1347.63 565.518 1350.96 576.408 1354.29C622.389 1367.29 681.378 1373.34 709.511 1334.93C723.124 1316.47 725.241 1292.27 725.544 1269.28C726.754 1165.52 695.898 1054.19 744.602 962.833C753.979 945.287 766.685 928.649 784.23 918.968C808.128 905.96 836.866 907.775 864.092 910.195C963.919 918.666 1063.75 926.834 1163.87 935.304C1176.58 936.514 1189.59 937.422 1201.69 933.792C1215.6 929.556 1227.1 919.876 1236.78 909.288C1327.53 810.366 1260.37 699.041 1255.84 690.268C1213.79 611.614 1159.64 746.838 1051.95 690.268C1037.13 682.402 1025.93 668.789 1016.25 654.874C982.977 606.169 957.869 534.17 931.248 481.533C904.628 428.895 849.874 362.342 772.433 415.585V415.282Z" fill="#99E6FF" stroke="black" stroke-width="20" stroke-miterlimit="10"/>
<path d="M884.361 587.413C845.942 533.565 770.921 565.934 756.401 609.496C731.898 681.797 827.187 689.36 861.37 676.352C906.443 659.109 900.091 609.496 884.361 587.413Z" fill="white" stroke="black" stroke-width="20" stroke-miterlimit="10"/>
<path d="M838.381 602.537C846.233 602.537 852.599 597.526 852.599 591.344C852.599 585.163 846.233 580.151 838.381 580.151C830.529 580.151 824.163 585.163 824.163 591.344C824.163 597.526 830.529 602.537 838.381 602.537Z" fill="black"/>
</svg>
