<svg width="1760" height="1760" viewBox="0 0 1760 1760" fill="none" xmlns="http://www.w3.org/2000/svg">
<rect width="1760" height="1760" fill="white"/>
<path d="M579.472 835.025C540.437 830.755 501.096 819.166 465.415 835.025C429.734 850.883 401.373 882.601 389.174 919.807C381.55 943.29 380.33 968.603 380.025 993.305C379.72 1034.17 382.161 1075.04 387.04 1115.9C391.309 1150.67 398.933 1187.88 423.94 1212.28C454.132 1241.86 500.791 1245.21 543.181 1246.13C724.635 1251.31 906.394 1251.62 1088.15 1247.65C1098.52 1247.65 1108.89 1247.04 1118.65 1243.69C1147.93 1233.62 1161.65 1198.55 1159.82 1167.75C1157.99 1136.95 1145.18 1107.67 1137.86 1077.78C1130.54 1047.9 1130.24 1012.82 1150.06 989.036C1174.76 959.759 1218.98 959.149 1256.8 964.028C1294.61 968.908 1336.09 975.922 1368.41 956.099C1416.9 926.212 1426.36 810.932 1384.27 767.016C1360.18 742.008 1317.49 740.179 1290.65 718.525C1228.74 668.205 1236.06 607.211 1258.63 546.216C1284.55 476.378 1273.88 477.293 1246.43 456.86C1202.82 424.533 1161.04 421.178 1125.66 462.044C1097 494.981 1083.27 551.706 1061.93 589.827C1012.22 678.879 961.288 631.304 945.735 645.942C928.657 662.106 967.691 787.144 885.656 840.819C857.294 859.423 762.451 855.153 579.472 834.72V835.025Z" fill="#FFE0F6" stroke="black" stroke-width="20" stroke-miterlimit="10"/>
<path d="M1171.41 836.549C1132.68 782.264 1057.05 814.896 1042.41 858.812C1017.7 931.7 1113.77 939.324 1148.23 926.211C1193.67 908.827 1187.26 858.812 1171.41 836.549Z" fill="white" stroke="black" stroke-width="20" stroke-miterlimit="10"/>
<path d="M1124.44 878.941C1132.36 878.941 1138.77 873.89 1138.77 867.658C1138.77 861.426 1132.36 856.374 1124.44 856.374C1116.53 856.374 1110.11 861.426 1110.11 867.658C1110.11 873.89 1116.53 878.941 1124.44 878.941Z" fill="black"/>
</svg>
