<svg width="1760" height="1760" viewBox="0 0 1760 1760" fill="none" xmlns="http://www.w3.org/2000/svg">
<g clip-path="url(#clip0_10_47)">
<path d="M1760 0H0V1760H1760V0Z" fill="white"/>
<path d="M394 1092.5C419.286 1048.14 456.908 1019.49 489.735 980.456C522.561 941.418 548.29 889.516 535.426 839.831C514.577 759.537 401.015 716.506 407.225 633.551C408.999 606.047 424.969 581.204 442.713 559.911C468.441 528.414 505.704 498.249 546.072 504.459C584.222 510.226 609.507 545.715 642.334 566.122C683.589 591.851 739.039 592.295 780.737 567.452C818.444 544.828 842.398 505.79 876.112 477.843C909.825 449.895 964.388 435.256 994.996 466.752C1028.27 500.91 1009.64 563.904 1040.69 599.393C1065.97 628.227 1112.11 625.566 1147.6 611.37C1183.08 597.174 1215.47 573.219 1252.73 566.122C1294.87 558.137 1341.01 573.219 1370.28 604.716C1399.56 636.212 1410.65 683.235 1399.12 724.935C1382.26 785.71 1324.15 824.304 1272.69 861.124C1221.23 897.944 1167.56 946.298 1167.11 1009.73C1167.11 1036.8 1176.43 1062.52 1185.75 1087.81C1207.48 1147.7 1224.78 1220.45 1185.3 1270.58C1149.37 1315.83 1078.39 1320.71 1026.94 1293.65C975.478 1266.59 941.321 1216.02 916.479 1163.67C904.059 1137.94 891.638 1109.99 866.352 1097.13C838.849 1082.93 805.136 1092.69 778.076 1106.89C735.047 1129.95 699.558 1165 662.739 1197.83C625.92 1230.65 585.996 1261.71 538.531 1274.13C491.065 1286.55 434.728 1276.35 404.563 1237.31C371.293 1194.28 372.18 1130.4 391.255 1097.57L394 1092.5Z" fill="#424242" stroke="black" stroke-width="20" stroke-miterlimit="10"/>
<path d="M763 771C743.926 800.722 729.724 829.627 744.363 861.567C753.678 881.974 774.528 893.951 794.934 903.267C820.663 914.801 848.609 923.673 876.556 923.23C904.503 922.786 933.781 910.809 950.194 887.741C967.495 863.342 968.381 830.515 966.163 800.792C962.171 745.341 949.306 688.558 917.367 642.866C913.818 637.986 909.826 633.107 904.946 630.001C892.969 622.904 877 627.34 866.797 636.656C856.594 645.971 790.054 729.814 768.317 763.973L763 771Z" fill="white" stroke="black" stroke-width="20" stroke-miterlimit="10"/>
<path d="M886.889 821.485C890.529 808.766 881.45 795.012 866.611 790.765C851.772 786.518 836.792 793.387 833.152 806.107C829.512 818.826 838.591 832.58 853.43 836.827C868.269 841.074 883.249 834.205 886.889 821.485Z" fill="#030005"/>
</g>
<defs>
<clipPath id="clip0_10_47">
<rect width="1760" height="1760" fill="white"/>
</clipPath>
</defs>
</svg>
