<svg width="1760" height="1760" viewBox="0 0 1760 1760" fill="none" xmlns="http://www.w3.org/2000/svg">
<rect width="1760" height="1760" fill="white"/>
<path d="M1108.73 400.821C1056.93 377.061 993.048 394.589 950.203 432.371C907.358 470.154 883.207 524.685 868.406 579.606C857.5 620.505 846.983 668.025 809.591 687.89C794.79 695.68 776.096 699.186 767.137 713.598C762.074 722.167 761.683 732.294 761.683 742.422C762.462 786.047 771.42 829.672 768.304 873.297C765.188 916.922 746.493 962.885 707.932 983.139C636.264 1020.92 536.162 953.147 471.505 1001.84C429.05 1033.78 429.05 1096.88 437.229 1149.46C443.072 1187.24 451.251 1225.03 461.768 1262.03C468 1284.23 475.402 1306.82 490.203 1324.35C504.614 1341.49 525.645 1352.01 546.679 1359.02C629.642 1386.67 730.912 1359.02 780.379 1286.96C815.823 1235.15 822.447 1169.33 848.154 1112.07C873.861 1054.81 935.402 1001.84 994.216 1023.65C1040.57 1040.79 1060.82 1096.49 1062.38 1145.95C1063.94 1195.42 1053.42 1246.06 1063.55 1294.36C1066.66 1309.94 1072.89 1325.91 1085.36 1336.04C1100.16 1348.11 1120.41 1349.67 1139.11 1350.45C1181.56 1352.78 1231.81 1351.23 1254.79 1315.78C1267.26 1297.08 1268.03 1273.32 1268.42 1250.73C1273.49 1037.28 1278.55 823.44 1283.61 609.988C1284.39 584.28 1284.78 558.183 1276.6 534.033C1255.57 471.322 1187.8 437.045 1107.95 400.431L1108.73 400.821Z" fill="#9DC0EB" stroke="black" stroke-width="20" stroke-miterlimit="10"/>
<path d="M714.942 1120.64C665.475 1051.3 568.88 1092.98 550.184 1149.07C518.634 1242.17 641.328 1251.9 685.342 1235.15C743.377 1212.95 735.196 1149.07 714.942 1120.64Z" fill="white" stroke="black" stroke-width="20" stroke-miterlimit="10"/>
<path d="M630.028 1185.69C640.138 1185.69 648.336 1179.23 648.336 1171.27C648.336 1163.32 640.138 1156.86 630.028 1156.86C619.918 1156.86 611.723 1163.32 611.723 1171.27C611.723 1179.23 619.918 1185.69 630.028 1185.69Z" fill="black"/>
</svg>
