<svg width="1760" height="1760" viewBox="0 0 1760 1760" fill="none" xmlns="http://www.w3.org/2000/svg">
<g clip-path="url(#clip0_10_247)">
<path d="M1760 0H0V1760H1760V0Z" fill="white"/>
<path d="M669.99 773.28C691.858 768.177 715.183 775.831 732.312 761.617C749.442 747.403 760.376 726.993 769.487 706.583C794.27 652.641 812.129 595.42 822.333 536.741C830.352 492.276 834.361 428.858 854.406 388.403C869.349 358.516 903.608 347.582 933.129 362.89C953.538 373.459 960.098 399.701 960.463 422.663C961.921 477.333 942.24 529.816 927.297 582.664C912.355 635.511 902.15 692.368 921.102 743.758C929.484 765.991 947.342 788.587 971.032 787.494C994.722 786.401 1017.68 761.982 1039.19 772.916C1054.13 780.569 1056.32 800.979 1066.52 813.736C1086.93 838.884 1126.66 828.315 1157.63 835.604C1208.66 847.631 1232.71 908.133 1231.98 960.616C1231.25 1013.1 1214.85 1065.22 1221.05 1117.34C1225.42 1155.61 1209.75 1204.81 1187.52 1221.21C1097.5 1287.54 1034.81 1177.47 1033.72 1343.31C1033.72 1373.19 1010.76 1401.62 981.601 1408.55C942.24 1418.02 903.972 1391.42 873.722 1364.81C843.472 1338.2 809.942 1308.32 769.487 1308.68C740.331 1309.05 710.809 1325.81 683.111 1317.07C664.523 1311.23 651.038 1295.2 641.563 1278.43C614.228 1231.05 609.49 1171.64 628.442 1120.62C640.469 1088.18 661.243 1060.12 676.55 1029.14C720.65 939.841 667.439 897.199 651.403 864.397C640.469 841.8 624.797 783.485 669.626 773.28H669.99Z" fill="#99E6FF" stroke="black" stroke-width="20" stroke-miterlimit="10"/>
<path d="M930.211 948.59C870.805 978.841 881.738 1055.01 912.352 1102.03C917.455 1109.68 923.286 1116.61 930.575 1122.08C940.051 1129 952.078 1132.28 963.741 1134.1C1006.75 1141.39 1054.49 1130.09 1084.38 1099.11C1114.26 1068.13 1121.92 1017.11 1097.13 982.121C1081.83 960.617 1056.68 947.132 1030.07 941.3C1003.47 935.469 968.114 929.273 930.211 948.59Z" fill="white" stroke="black" stroke-width="20" stroke-miterlimit="10"/>
<path d="M1004.56 1064.49C1016.24 1064.49 1025.7 1055.35 1025.7 1044.08C1025.7 1032.81 1016.24 1023.67 1004.56 1023.67C992.887 1023.67 983.423 1032.81 983.423 1044.08C983.423 1055.35 992.887 1064.49 1004.56 1064.49Z" fill="black"/>
</g>
<defs>
<clipPath id="clip0_10_247">
<rect width="1760" height="1760" fill="white"/>
</clipPath>
</defs>
</svg>
