<svg width="1760" height="1760" viewBox="0 0 1760 1760" fill="none" xmlns="http://www.w3.org/2000/svg">
<rect width="1760" height="1760" fill="white"/>
<path d="M565.402 784.202C591.071 830.485 583.292 883.379 572.402 967.388C567.346 1006.67 582.125 1101.18 530.399 1152.91C491.118 1192.19 402.444 1145.13 384.165 1212.41C372.886 1254.81 384.165 1301.87 422.279 1324.04C460.393 1346.21 506.286 1346.6 550.234 1346.21C606.627 1345.82 665.743 1344.26 714.358 1315.87C734.971 1303.81 752.862 1287.48 770.752 1271.92C812.366 1236.14 857.092 1204.25 904.541 1176.63C932.932 1160.3 966.379 1144.74 997.104 1156.02C1029.77 1167.69 1044.94 1203.86 1066.33 1231.08C1106 1281.26 1176.79 1304.2 1238.23 1286.7C1299.68 1269.2 1347.91 1212.42 1354.91 1149.02C1360.74 1098.85 1342.47 1048.68 1316.41 1005.5C1290.35 962.332 1256.51 924.606 1225.79 884.546C1198.95 849.154 1173.67 802.093 1192.73 762.033C1205.95 734.03 1235.9 719.251 1259.24 699.026C1289.57 672.19 1309.41 630.186 1300.46 590.515C1295.41 567.568 1281.4 548.121 1270.13 527.508C1252.24 495.227 1230.46 460.223 1233.18 423.274C1240.57 327.597 1066.33 390.215 1027.05 437.665C980.769 493.671 968.324 594.404 954.711 665.578C934.099 773.312 861.37 823.095 788.642 789.647C628.407 716.139 523.01 708.75 565.791 784.98L565.402 784.202Z" fill="#8CFFD9" stroke="black" stroke-width="20" stroke-miterlimit="10"/>
<path d="M1026.66 930.441C1034.44 962.333 1014.99 996.17 985.826 1015.23C978.825 1019.9 971.047 1023.78 962.491 1025.73C946.545 1029.23 929.043 1024.56 915.042 1016.78C890.151 1002.78 873.039 977.502 870.316 951.054C870.316 948.332 870.316 945.221 872.261 943.276C873.817 942.109 875.761 941.331 877.706 940.942C915.82 931.997 954.712 925.385 993.993 921.107C1006.05 919.551 1024.51 921.332 1027.23 933L1026.66 930.441Z" fill="white" stroke="black" stroke-width="20" stroke-miterlimit="10"/>
<path d="M989.716 1000.45C996.16 1000.45 1001.38 995.399 1001.38 989.17C1001.38 982.94 996.16 977.891 989.716 977.891C983.273 977.891 978.049 982.94 978.049 989.17C978.049 995.399 983.273 1000.45 989.716 1000.45Z" fill="black"/>
</svg>
