<svg width="1760" height="1760" viewBox="0 0 1760 1760" fill="none" xmlns="http://www.w3.org/2000/svg">
<rect width="1760" height="1760" fill="white"/>
<path d="M523.383 405.174C553.302 530.164 506.01 540.781 456.788 599.174C427.351 634.402 385.849 671.562 394.053 716.925C397.431 734.78 408.048 750.223 418.665 764.701C455.823 817.303 493.463 869.905 530.622 922.024C557.646 959.665 585.152 998.755 594.804 1044.12C607.833 1104.44 587.083 1166.21 586.6 1227.98C586.117 1289.75 619.898 1362.14 681.184 1365.52C750.192 1369.38 788.798 1288.31 806.171 1221.23C823.543 1154.15 857.324 1072.59 926.814 1070.66C998.717 1068.73 1035.88 1155.11 1048.42 1225.57C1060.97 1296.03 1081.24 1382.89 1150.73 1400.75C1221.18 1418.6 1281.51 1349.59 1316.25 1285.89C1358.72 1208.68 1391.05 1109.75 1343.27 1035.91C1295.02 961.596 1176.3 934.088 1167.62 845.775C1161.83 787.865 1209.12 740.089 1250.14 699.069C1291.16 658.05 1332.18 600.622 1311.43 546.572C1293.57 499.761 1237.59 480.458 1187.4 478.045C1173.89 477.562 1160.38 478.045 1147.83 482.388C1120.33 493.487 1112.12 546.089 1105.37 575.044C1086.55 655.154 1022.36 736.228 966.385 749.258C910.407 762.288 839.951 700.517 815.822 648.88C800.38 616.547 791.694 520.03 796.037 484.318C807.619 391.179 509.871 347.747 523.383 404.209V405.174Z" fill="#84FAB0" stroke="black" stroke-width="20" stroke-miterlimit="10"/>
<path d="M592.392 709.205C543.17 735.747 544.135 810.548 574.537 855.911C579.363 863.15 585.154 869.906 592.392 874.732C602.044 881.488 613.626 884.384 625.207 886.314C667.674 893.553 714.483 882.453 743.92 852.533C773.357 822.612 781.079 774.354 756.467 740.573C741.508 719.822 716.414 707.275 690.837 701.484C665.261 695.693 633.411 686.523 592.875 708.24L592.392 709.205Z" fill="white" stroke="black" stroke-width="20" stroke-miterlimit="10"/>
<path d="M665.264 819.718C676.724 819.718 686.015 810.86 686.015 799.932C686.015 789.005 676.724 780.146 665.264 780.146C653.804 780.146 644.514 789.005 644.514 799.932C644.514 810.86 653.804 819.718 665.264 819.718Z" fill="black"/>
</svg>
