<svg width="1760" height="1760" viewBox="0 0 1760 1760" fill="none" xmlns="http://www.w3.org/2000/svg">
<rect width="1760" height="1760" fill="white"/>
<path d="M660.264 378.498C625.747 381.865 596.701 406.702 569.76 427.75C544.924 447.114 521.351 478.266 534.401 506.891C540.715 520.783 554.606 530.044 563.025 543.093C577.758 566.667 570.602 597.818 555.027 620.971C539.452 644.124 517.563 661.383 499.462 682.01C478.414 705.584 461.997 733.789 452.315 764.098C444.317 788.514 440.95 815.876 452.315 838.608C458.209 850.395 467.891 859.656 477.152 869.338C536.084 928.693 594.175 992.679 620.695 1071.82C634.166 1111.39 638.796 1153.49 649.741 1193.9C669.104 1264.62 709.937 1331.13 771.816 1370.28C833.696 1409.43 917.886 1416.59 979.765 1377.86C1038.7 1340.81 1069.01 1271.36 1083.74 1203.58C1092.16 1165.69 1097.21 1125.7 1116.15 1091.61C1140.15 1048.25 1183.5 1019.62 1216.34 982.576C1253.38 940.901 1277.38 887.439 1283.69 831.872C1286.22 808.72 1285.8 785.146 1279.06 762.835C1266.01 719.897 1229.81 682.431 1233.18 637.81C1235.7 604.975 1259.7 578.454 1277.8 550.671C1291.69 529.202 1303.05 506.049 1310.63 481.633C1316.1 464.795 1319.47 445.431 1310.21 430.276C1300.53 414.7 1280.74 409.649 1263.06 405.86C1219.29 396.599 1175.09 387.338 1131.31 377.656C1111.1 373.446 1090.9 369.237 1070.69 371.763C1021.02 378.077 986.5 421.857 952.824 458.48C919.148 495.104 869.055 529.623 822.751 511.942C783.603 496.788 766.765 452.587 741.929 418.91C729.3 401.651 709.937 373.446 660.264 378.498Z" fill="#FFE0F6" stroke="black" stroke-width="20" stroke-miterlimit="10"/>
<path d="M789.498 748.521C721.304 787.671 722.567 898.804 764.662 964.895C771.397 975.419 779.395 985.522 789.498 993.099C802.548 1002.78 818.965 1007.41 834.961 1010.36C893.894 1020.88 959.141 1004.47 999.973 960.686C1040.81 916.906 1051.33 844.921 1017.23 795.669C996.184 765.36 961.667 746.417 925.886 737.997C890.105 729.578 846.326 716.107 789.498 748.521Z" fill="white" stroke="black" stroke-width="20" stroke-miterlimit="10"/>
<path d="M890.526 911.853C906.567 911.853 919.572 898.848 919.572 882.807C919.572 866.765 906.567 853.76 890.526 853.76C874.485 853.76 861.48 866.765 861.48 882.807C861.48 898.848 874.485 911.853 890.526 911.853Z" fill="black"/>
</svg>
