<svg width="1760" height="1760" viewBox="0 0 1760 1760" fill="none" xmlns="http://www.w3.org/2000/svg">
<g clip-path="url(#clip0_10_241)">
<path d="M1760 0H0V1760H1760V0Z" fill="white"/>
<path d="M796.927 413.979C752.199 431.082 700.894 430.205 657.043 410.91C647.395 406.524 637.748 401.701 627.663 399.947C611.876 397.316 595.651 403.455 582.934 413.102C535.137 449.499 537.768 520.54 518.912 577.548C497.864 640.256 445.242 697.264 455.766 762.604C463.66 811.718 500.056 898.107 495.232 947.66C487.778 1023.96 422.44 1081.85 468.045 1101.58C546.538 1135.79 618.015 1173.5 653.973 1235.33C699.578 1312.95 757.461 1384.87 846.04 1400.65C931.988 1416 1022.32 1373.03 1075.38 1303.74C1128.44 1234.45 1075.82 1114.74 1140.72 1056.41C1187.64 1014.32 1270.08 1045.45 1312.61 998.528C1355.15 951.607 1371.81 883.197 1354.71 822.243C1344.63 786.285 1324.02 753.833 1310.86 718.752C1288.06 659.113 1280.6 583.687 1224.47 553.868C1210 545.974 1193.34 542.466 1178.43 535.888C1117.48 508.261 1091.17 433.713 1034.16 399.069C976.716 364.426 907.804 370.566 803 410.91L796.927 413.979Z" fill="#63B6FF" stroke="black" stroke-width="20" stroke-miterlimit="10"/>
<path d="M758.336 915.209C745.181 952.483 733.78 997.212 763.16 1026.59C782.016 1045.45 812.273 1051.59 840.338 1055.1C876.296 1059.48 913.569 1060.8 948.65 1051.15C983.731 1041.5 1015.3 1020.45 1027.14 991.073C1039.86 959.938 1029.34 925.295 1015.74 893.721C990.747 835.836 955.227 779.705 899.537 741.116C893.397 736.73 886.82 732.783 879.365 731.029C862.263 727.083 844.284 736.73 834.637 749.448C824.99 762.165 772.807 871.356 757.898 914.77L758.336 915.209Z" fill="white" stroke="black" stroke-width="20" stroke-miterlimit="10"/>
<path d="M888.575 966.952C908.192 966.952 924.094 955.172 924.094 940.641C924.094 926.11 908.192 914.33 888.575 914.33C868.958 914.33 853.056 926.11 853.056 940.641C853.056 955.172 868.958 966.952 888.575 966.952Z" fill="black"/>
</g>
<defs>
<clipPath id="clip0_10_241">
<rect width="1760" height="1760" fill="white"/>
</clipPath>
</defs>
</svg>
