<svg width="1760" height="1760" viewBox="0 0 1760 1760" fill="none" xmlns="http://www.w3.org/2000/svg">
<rect width="1760" height="1760" fill="white"/>
<path d="M728.993 388.875C716.004 398.978 712.396 416.659 709.87 432.897C703.736 471.145 697.602 509.754 681.004 544.394C664.406 579.034 635.54 610.065 598.376 620.169C585.386 623.777 570.592 625.22 562.293 636.045C553.273 648.313 573.479 681.51 577.809 696.304C585.747 724.088 605.953 779.656 613.53 795.893C636.262 845.327 656.829 863.008 655.025 912.803C652.499 983.887 639.149 1036.57 613.169 1044.51C572.397 1057.14 586.108 1108.73 592.603 1150.95C599.097 1193.17 630.489 1233.94 673.066 1237.91C730.437 1243.32 778.426 1182.71 835.797 1188.12C882.343 1192.81 912.652 1237.91 931.776 1280.49C950.899 1323.07 968.94 1371.06 1010.07 1393.07C1054.82 1416.89 1114.35 1398.48 1146.46 1359.15C1178.58 1319.82 1186.16 1264.61 1177.13 1214.82C1168.11 1165.02 1145.02 1118.84 1120.49 1074.1C1116.52 1067.24 1112.55 1060.02 1111.47 1052.08C1108.22 1030.8 1125.18 1011.67 1144.3 1001.93C1163.42 992.186 1185.07 989.299 1204.56 980.279C1250.38 958.989 1276 906.669 1276 856.153C1276 805.636 1253.99 757.645 1225.12 716.15C1219.71 708.572 1213.58 700.634 1204.92 697.386C1196.26 694.139 1186.88 695.943 1177.5 696.304C1121.21 699.191 1096.67 651.922 1085.49 643.262C1073.58 633.88 1039.3 720.841 966.415 702.799C902.188 686.922 887.755 638.571 894.25 575.425C900.384 518.053 902.549 424.958 846.622 409.443C754.612 384.184 740.901 379.133 728.993 388.154V388.875Z" fill="#FFD58C" stroke="black" stroke-width="20" stroke-miterlimit="10"/>
<path d="M820.639 964.762C816.309 923.627 843.371 883.214 879.453 863.007C888.113 857.956 897.855 853.986 907.597 852.543C926.721 850.017 945.844 857.956 960.638 869.863C987.339 890.791 1003.58 924.709 1003.22 958.267C1003.22 961.875 1002.85 965.844 999.968 968.009C998.164 969.453 995.638 969.814 993.473 970.174C948.37 976.309 902.546 979.917 857.082 980.639C842.649 980.639 822.082 979.195 820.639 964.401V964.762Z" fill="white" stroke="black" stroke-width="20" stroke-miterlimit="10"/>
<path d="M928.76 921.485C929.628 913.561 924.39 906.486 917.06 905.684C909.731 904.881 903.086 910.654 902.218 918.578C901.35 926.502 906.588 933.576 913.918 934.379C921.247 935.181 927.892 929.409 928.76 921.485Z" fill="black"/>
</svg>
