<svg width="1760" height="1760" viewBox="0 0 1760 1760" fill="none" xmlns="http://www.w3.org/2000/svg">
<path d="M1760 0H0V1760H1760V0Z" fill="white"/>
<path d="M638.346 645.512C615.157 649.653 577.888 650.481 554.285 654.623C548.487 655.451 542.69 656.693 538.134 660.006C524.055 669.944 528.61 691.064 534.408 707.214C551.386 753.18 568.778 799.975 569.192 848.84C569.606 897.705 549.729 949.882 507.077 973.901C470.636 994.606 418.046 996.263 400.24 1033.95C379.949 1077.01 423.843 1120.91 442.478 1164.39C463.597 1214.08 463.183 1264.61 492.998 1310.16C523.641 1357.37 575.817 1380.56 631.307 1387.18C804.814 1407.89 980.806 1409.54 1154.73 1391.74C1196.97 1387.18 1240.86 1381.38 1276.06 1356.95C1313.74 1330.86 1335.69 1287.8 1351.42 1244.73C1412.3 1079.5 1405.67 898.119 1398.22 722.122C1396.56 681.954 1394.9 641.371 1388.28 601.202C1385.79 585.052 1381.24 567.66 1368.4 557.721C1351.84 545.298 1327.41 550.267 1310.43 561.862C1293.45 573.457 1281.03 590.85 1265.29 604.101C1213.53 649.239 1138.16 634.331 1071.49 617.767C959.273 590.022 976.251 379.654 860.303 401.602C811.44 410.712 794.462 464.547 780.382 499.746C751.395 573.871 707.357 634.745 644 645.512H638.346Z" fill="url(#paint0_linear_10_235)" stroke="black" stroke-width="20" stroke-miterlimit="10"/>
<path d="M1081.43 922.138C1094.68 971.417 1060.73 1023.18 1010.21 1052.58C997.784 1059.62 984.533 1065.83 969.626 1068.73C941.881 1074.11 911.652 1067.08 887.634 1054.65C844.568 1032.7 814.753 994.607 809.784 953.61C809.37 949.469 809.37 944.5 813.097 941.601C815.581 939.53 819.308 938.702 822.621 937.874C888.876 924.209 956.374 914.27 1024.29 907.23C1045.41 905.159 1076.46 904.331 1081.43 922.138Z" fill="white" stroke="black" stroke-width="20" stroke-miterlimit="10"/>
<path d="M946.851 1005.79C958.058 1005.79 967.142 997.999 967.142 988.393C967.142 978.787 958.058 971 946.851 971C935.645 971 926.561 978.787 926.561 988.393C926.561 997.999 935.645 1005.79 946.851 1005.79Z" fill="black"/>
<defs>
<linearGradient id="paint0_linear_10_235" x1="601.492" y1="1288.62" x2="1439.65" y2="522.544" gradientUnits="userSpaceOnUse">
<stop stop-color="#FFA3DF"/>
<stop offset="0.22" stop-color="#FFD294"/>
<stop offset="0.43" stop-color="#B0FF82"/>
<stop offset="0.5" stop-color="#AFF589"/>
<stop offset="0.62" stop-color="#AFDD9D"/>
<stop offset="0.76" stop-color="#AEB4BD"/>
<stop offset="0.93" stop-color="#AC7DEA"/>
<stop offset="1" stop-color="#AC63FF"/>
</linearGradient>
</defs>
</svg>
