<svg width="1760" height="1760" viewBox="0 0 1760 1760" fill="none" xmlns="http://www.w3.org/2000/svg">
<rect width="1760" height="1760" fill="white"/>
<path d="M598.308 664.38C572.074 643.176 579.262 728.349 582.136 762.13C592.917 903.725 599.386 1049.63 554.106 1184.4C538.653 1229.68 517.81 1280.35 539.012 1323.12C563.449 1372.35 636.041 1381.34 682.759 1352.23C729.477 1323.12 754.274 1268.49 766.492 1214.95C771.883 1191.23 775.836 1166.43 788.414 1145.59C800.991 1124.74 824.71 1108.21 848.428 1112.52C869.99 1116.48 885.084 1136.6 891.552 1157.45C898.021 1178.29 897.302 1200.57 898.38 1222.13C900.896 1264.54 911.677 1308.02 940.426 1339.29C983.91 1386.73 1065.85 1391.4 1114.36 1349.35C1147.42 1320.6 1163.23 1276.4 1167.91 1232.91C1172.58 1189.43 1167.91 1145.59 1166.47 1102.1C1161.08 932.834 1222.17 763.927 1204.92 595.738C1193.06 480.378 1122.63 543.629 1088.49 551.895C1048.24 561.238 1007.99 531.41 979.957 500.863C939.348 456.659 928.567 380.112 859.569 386.222C749.962 395.925 809.616 556.566 778.351 627.364C741.336 711.099 661.198 716.13 598.308 665.098V664.38Z" fill="#FFD58C" stroke="black" stroke-width="20" stroke-miterlimit="10"/>
<path d="M777.991 877.85C776.194 888.991 774.757 901.569 781.585 910.913C788.772 920.975 802.428 923.491 815.006 924.928C867.474 930.678 920.66 931.397 973.128 927.804C984.627 927.085 996.846 925.647 1006.91 919.897C1029.19 906.96 1034.22 877.85 1036.74 852.334C1040.69 812.443 1039.61 762.13 1002.96 744.88C990.377 739.13 975.644 738.771 961.628 739.13C921.738 739.849 881.848 743.443 842.318 749.552C830.459 751.349 818.24 753.865 809.256 761.412C800.272 768.959 782.663 846.944 777.991 877.491V877.85Z" fill="white" stroke="black" stroke-width="20" stroke-miterlimit="10"/>
<path d="M915.992 857.007C929.289 857.007 940.069 847.031 940.069 834.726C940.069 822.42 929.289 812.444 915.992 812.444C902.694 812.444 891.914 822.42 891.914 834.726C891.914 847.031 902.694 857.007 915.992 857.007Z" fill="black"/>
</svg>
