<svg width="1760" height="1760" viewBox="0 0 1760 1760" fill="none" xmlns="http://www.w3.org/2000/svg">
<g clip-path="url(#clip0_10_229)">
<path d="M1760 0H0V1760H1760V0Z" fill="white"/>
<path d="M512.435 555.013C504.604 547.538 482.535 543.266 471.144 556.793C459.754 570.32 461.889 590.61 463.669 604.849C471.856 671.771 456.549 739.048 445.159 805.614C435.904 860.433 429.853 915.964 426.293 971.495C424.513 999.616 423.446 1028.45 430.921 1055.86C438.396 1083.27 454.414 1109.25 479.687 1122.07C506.74 1135.6 538.42 1132.04 568.32 1135.24C591.458 1137.73 614.951 1144.85 633.104 1159.45C668.7 1187.92 676.887 1238.11 700.38 1277.27C716.043 1303.61 739.536 1325.68 766.945 1339.56C795.066 1354.16 829.949 1359.85 857.358 1344.55C891.53 1326.04 902.92 1283.32 910.039 1245.23C917.159 1207.14 924.99 1164.78 955.958 1141.29C1000.81 1107.83 1067.73 1132.04 1117.92 1107.83C1138.92 1097.51 1155.29 1079.71 1167.04 1059.42C1177.36 1041.62 1184.48 1021.69 1183.77 1001.04C1181.99 959.392 1148.53 922.015 1154.94 880.723C1159.57 852.246 1182.7 829.82 1208.69 817.005C1234.67 804.19 1263.15 798.495 1290.56 789.24C1320.81 779.273 1349.65 764.678 1375.63 746.167C1396.28 731.573 1416.21 713.063 1422.62 688.501C1431.16 655.396 1410.87 619.443 1381.33 602.713C1351.78 585.982 1315.12 585.27 1281.66 592.39C1248.2 599.509 1201.57 610.9 1170.24 623.715C1093 655.04 1039.25 676.754 956.314 691.349C822.118 714.843 772.64 617.663 748.079 623.715C738.824 625.851 730.637 630.834 721.738 634.394C686.854 648.988 646.631 643.649 612.103 628.698C577.575 613.748 552.952 593.885 517 559L512.435 555.013Z" fill="#424242" stroke="black" stroke-width="20" stroke-miterlimit="10"/>
<path d="M730.993 855.449C673.328 888.554 674.396 982.53 709.992 1038.42C715.687 1047.32 722.45 1055.86 730.993 1062.27C742.028 1070.45 755.91 1074.37 769.436 1076.86C819.27 1085.76 874.444 1071.88 908.972 1034.86C943.5 997.836 952.399 936.966 923.566 895.318C905.768 869.688 876.58 853.669 846.323 846.55C816.067 839.431 779.047 828.04 730.993 855.449Z" fill="white" stroke="black" stroke-width="20" stroke-miterlimit="10"/>
<path d="M816.065 993.922C829.629 993.922 840.626 982.926 840.626 969.361C840.626 955.796 829.629 944.799 816.065 944.799C802.5 944.799 791.504 955.796 791.504 969.361C791.504 982.926 802.5 993.922 816.065 993.922Z" fill="black"/>
</g>
<defs>
<clipPath id="clip0_10_229">
<rect width="1760" height="1760" fill="white"/>
</clipPath>
</defs>
</svg>
