<svg width="1760" height="1760" viewBox="0 0 1760 1760" fill="none" xmlns="http://www.w3.org/2000/svg">
<g clip-path="url(#clip0_10_41)">
<path d="M1760 0H0V1760H1760V0Z" fill="white"/>
<path d="M356.611 560C347.343 497.559 397.125 436.137 459.076 422.965C521.028 409.794 584.93 427.356 647.369 435.649C775.663 451.747 904.932 426.38 1033.71 419.551C1103.47 415.648 1174.2 417.599 1240.06 441.015C1305.91 464.43 1365.91 511.261 1390.79 576.141C1429.81 676.144 1377.13 790.782 1301.52 866.882C1255.67 913.225 1199.08 954.202 1179.08 1016.16C1164.93 1059.57 1171.76 1106.89 1179.08 1152.26C1186.4 1197.62 1193.71 1244.46 1181.52 1288.36C1169.32 1332.26 1129.81 1372.26 1083.96 1369.83C1044.45 1367.87 1013.71 1336.65 983.956 1311.29C954.2 1285.92 912.249 1262.99 876.64 1280.07C853.225 1291.29 840.053 1316.65 823.955 1337.14C790.785 1379.58 737.125 1404.95 683.467 1403.97C659.564 1403.97 635.174 1398.12 616.637 1382.51C593.222 1363 583.955 1331.29 576.638 1301.53C562.492 1246.41 547.857 1190.8 533.711 1135.67C523.955 1099.08 514.686 1060.55 521.515 1023.47C531.759 967.373 577.614 924.445 625.419 893.225C673.224 862.004 698.59 854.687 739.566 815.173C780.542 775.66 777.126 697.121 749.321 647.363C678.589 520.042 535.173 613.703 497.612 627.362C465.904 639.07 372.733 665.9 356.148 557.116L356.611 560Z" fill="#FFF570" stroke="black" stroke-width="20" stroke-miterlimit="10"/>
<path d="M1223.96 593.214C1235.67 647.85 1205.43 705.901 1160.06 739.073C1148.84 746.878 1137.13 754.195 1123.47 757.122C1098.11 762.976 1071.28 755.171 1049.33 741.512C1010.3 717.121 983.962 674.193 979.084 628.825C979.084 623.947 978.596 618.581 982.01 615.166C984.449 612.727 987.376 612.239 990.791 611.264C1050.79 596.141 1111.28 584.921 1172.26 577.116C1191.28 574.677 1219.57 573.214 1223.96 593.214Z" fill="white" stroke="black" stroke-width="20" stroke-miterlimit="10"/>
<path d="M1102.99 686.389C1112.96 686.389 1121.04 677.653 1121.04 666.877C1121.04 656.1 1112.96 647.364 1102.99 647.364C1093.02 647.364 1084.94 656.1 1084.94 666.877C1084.94 677.653 1093.02 686.389 1102.99 686.389Z" fill="black"/>
</g>
<defs>
<clipPath id="clip0_10_41">
<rect width="1760" height="1760" fill="white"/>
</clipPath>
</defs>
</svg>
