<svg width="1760" height="1760" viewBox="0 0 1760 1760" fill="none" xmlns="http://www.w3.org/2000/svg">
<rect width="1760" height="1760" fill="white"/>
<path d="M656.854 434.525C643.028 420.699 619.037 422.732 603.179 433.712C587.321 444.691 577.155 462.582 567.803 479.661C555.197 502.839 542.185 526.018 529.58 548.789C527.547 552.449 525.107 556.922 526.327 560.988C527.547 566.681 533.647 569.527 538.933 571.154C563.737 578.88 592.201 577.66 612.532 593.926C630.83 608.565 636.929 634.589 633.676 658.174C630.423 681.759 619.444 702.904 608.872 724.049C587.321 766.339 566.583 809.849 557.637 856.612C548.692 903.375 553.571 954.61 580.408 993.647C613.751 1042.44 676.372 1067.25 705.242 1118.89C741.838 1184.36 714.594 1275.45 761.356 1334C801.612 1384.83 891.882 1381.17 928.072 1327.49C957.349 1284.39 950.029 1227.46 951.656 1175.41C953.282 1123.36 975.24 1061.56 1026.47 1051.8C1053.31 1046.92 1080.15 1057.9 1106.99 1061.56C1151.31 1067.66 1198.88 1051.8 1228.97 1018.45C1259.06 985.108 1269.64 934.685 1253.37 892.802C1235.07 845.226 1184.65 806.189 1192.38 755.766C1197.66 720.796 1228.97 697.211 1252.56 670.78C1275.33 645.162 1292 612.224 1292 578.067C1292 543.91 1272.89 508.126 1241.17 495.52C1208.24 482.101 1170.42 494.3 1135.04 490.234C1051.69 480.475 993.132 382.069 909.774 389.389C875.617 392.235 845.933 412.973 814.217 426.799C762.576 449.164 691.823 470.309 656.447 434.525H656.854Z" fill="#B7ABFF" stroke="black" stroke-width="20" stroke-miterlimit="10"/>
<path d="M800.392 633.369C757.29 676.066 765.016 784.231 786.973 850.919C790.633 861.491 794.699 871.657 800.392 879.383C807.305 889.142 815.844 894.022 824.383 896.868C855.693 907.441 890.256 890.769 911.807 846.853C933.358 802.936 939.051 730.555 921.159 680.946C910.181 650.448 891.882 631.336 872.771 623.204C853.66 615.071 827.636 606.125 800.392 633.369Z" fill="white" stroke="black" stroke-width="20" stroke-miterlimit="10"/>
<path d="M853.66 797.649C862.194 797.649 869.112 784.541 869.112 768.371C869.112 752.202 862.194 739.094 853.66 739.094C845.127 739.094 838.209 752.202 838.209 768.371C838.209 784.541 845.127 797.649 853.66 797.649Z" fill="black"/>
</svg>
