<svg width="1760" height="1760" viewBox="0 0 1760 1760" fill="none" xmlns="http://www.w3.org/2000/svg">
<rect width="1760" height="1760" fill="white"/>
<path d="M478.53 1056.91C453.986 1046.87 424.608 1057.65 407.13 1077.36C389.651 1097.07 382.214 1123.85 379.239 1150.25C376.635 1174.8 377.751 1200.08 386.304 1223.14C406.758 1278.18 467.746 1310.54 526.503 1310.91C585.26 1311.28 641.042 1284.5 689.014 1251.03C718.393 1230.58 747.4 1206.41 783.1 1201.94C795 1200.46 808.016 1201.57 816.941 1209.38C828.098 1219.05 829.957 1235.79 830.701 1250.29C834.791 1311.28 849.667 1383.05 905.82 1407.6C957.14 1429.91 1020.73 1396.07 1044.53 1345.12C1062.38 1306.82 1062.38 1262.93 1067.22 1220.91C1072.05 1178.89 1085.44 1133.89 1120.39 1110.09C1135.27 1100.05 1153.86 1094.47 1170.97 1098.93C1186.96 1103.02 1199.61 1115.29 1214.85 1121.99C1259.11 1141.7 1310.43 1109.34 1337.57 1069.18C1392.98 986.992 1385.17 879.144 1374.02 780.965C1368.44 732.247 1362.12 682.414 1338.69 639.275C1315.26 596.136 1249.81 545.931 1221.55 563.781C1177.66 591.673 1194.77 664.564 1172.09 711.422C1149.77 757.536 1118.54 803.278 1070.56 821.873C1022.59 840.467 957.512 818.898 946.355 768.693C940.033 740.801 951.562 712.537 962.718 686.133C981.312 641.878 999.906 597.623 1018.87 553.74C1035.61 513.948 1053.08 471.553 1047.88 428.414C1042.67 385.275 1007.34 342.507 963.834 346.226C921.811 349.945 895.407 391.597 876.442 429.157C847.807 486.056 815.082 549.278 755.209 570.847C731.781 579.401 703.517 581.632 687.527 600.97C675.255 615.474 673.767 635.928 668.189 654.151C650.711 708.818 592.326 749.726 594.929 806.997C596.416 844.558 624.679 875.425 635.464 911.498C648.479 953.893 635.092 1002.61 602.738 1032.73C570.385 1062.86 519.437 1074.76 477.786 1057.65L478.53 1056.91Z" fill="#FFE0F6" stroke="black" stroke-width="20" stroke-miterlimit="10"/>
<path d="M972.385 936.042C981.31 977.694 958.253 1021.95 923.669 1047.24C915.115 1053.19 906.19 1058.77 895.778 1061C876.44 1065.46 855.986 1059.51 839.252 1049.1C809.501 1030.5 789.42 997.776 785.701 963.19C785.701 959.471 785.33 955.38 787.933 952.777C789.792 950.918 792.023 950.546 794.626 949.802C840.367 938.273 886.481 929.72 932.966 923.77C947.469 921.91 969.038 920.795 972.385 936.042Z" fill="white" stroke="black" stroke-width="20" stroke-miterlimit="10"/>
<path d="M880.159 1007.44C887.758 1007.44 893.918 1000.78 893.918 992.569C893.918 984.353 887.758 977.693 880.159 977.693C872.56 977.693 866.399 984.353 866.399 992.569C866.399 1000.78 872.56 1007.44 880.159 1007.44Z" fill="black"/>
</svg>
