<svg width="1760" height="1760" viewBox="0 0 1760 1760" fill="none" xmlns="http://www.w3.org/2000/svg">
<rect width="1760" height="1760" fill="white"/>
<path d="M623.272 517.222C597.157 518.782 579.617 537.492 580.006 563.998C580.396 590.504 636.915 699.646 634.186 817.364C631.848 917.542 593.649 1016.55 607.291 1115.95C622.103 1225.09 700.839 1319.42 799.065 1368.53C884.038 1411.02 992.398 1419.99 1070.74 1365.81C1096.86 1347.87 1118.3 1323.71 1138.18 1299.15C1175.21 1253.93 1210.68 1202.87 1213.41 1144.79C1217.69 1048.12 1131.16 961.978 1145.97 866.478C1152.21 826.329 1175.99 791.248 1194.31 754.997C1211.46 721.475 1225.1 684.444 1223.93 646.634C1222.76 608.824 1174.43 549.576 1140.91 532.035C1091.4 505.919 1057.1 552.694 1006.43 528.916C969.401 511.376 949.132 472.006 928.863 436.535C908.594 401.064 881.309 363.643 841.162 357.017C798.285 350.001 758.527 380.405 730.853 413.927C703.178 447.449 687.197 513.325 623.662 517.222H623.272Z" fill="#63B6FF" stroke="black" stroke-width="20" stroke-miterlimit="10"/>
<path d="M998.246 1022.01C1007.6 1065.66 983.434 1112.05 947.185 1138.55C938.22 1144.79 928.865 1150.64 917.951 1152.98C897.682 1157.65 876.244 1151.42 858.703 1140.5C827.521 1121.01 806.473 1086.71 802.575 1050.46C802.575 1046.56 802.185 1042.28 804.914 1039.55C806.862 1037.6 809.201 1037.21 811.929 1036.43C859.873 1024.34 908.206 1015.38 956.929 1009.14C972.131 1007.19 994.738 1006.02 998.246 1022.01Z" fill="white" stroke="black" stroke-width="20" stroke-miterlimit="10"/>
<path d="M901.581 1096.85C909.546 1096.85 916.003 1089.87 916.003 1081.26C916.003 1072.64 909.546 1065.66 901.581 1065.66C893.616 1065.66 887.159 1072.64 887.159 1081.26C887.159 1089.87 893.616 1096.85 901.581 1096.85Z" fill="black"/>
</svg>
