<svg width="1760" height="1760" viewBox="0 0 1760 1760" fill="none" xmlns="http://www.w3.org/2000/svg">
<rect width="1760" height="1760" fill="white"/>
<path d="M457.038 591.514C473.044 649.57 373.711 727.9 361 786.878C349.231 841.709 360.059 898.383 374.653 952.293C409.49 1081.77 470.219 1211.24 579.909 1290.03C623.691 1321.83 674.535 1344.4 727.732 1355.92C772.455 1365.6 820.003 1367.9 864.255 1355.46C908.979 1343.02 948.524 1316.76 992.776 1302.47C1076.57 1275.75 1167.43 1295.56 1255 1292.34C1282.3 1291.42 1310.55 1287.73 1333.14 1272.98C1359.98 1255.48 1374.57 1224.14 1383.99 1193.73C1403.76 1128.77 1404.7 1060.11 1403.76 992.84C1401.88 886.864 1395.76 781.349 1384.93 675.834C1382.58 651.874 1379.28 626.993 1367.04 606.258C1348.21 574.926 1312.43 558.339 1278.54 543.594C1245.58 529.311 1213.1 515.027 1180.14 500.743C1156.13 490.146 1128.36 480.009 1104.82 491.528C1088.34 499.361 1078.93 515.949 1065.28 527.929C1043.15 547.281 1010.19 553.271 982.419 542.673C924.514 521.017 905.683 442.226 847.308 422.414C803.526 407.669 752.683 424.256 715.021 450.981C607.214 527.468 418.434 452.363 456.567 590.593L457.038 591.514Z" fill="#FFF570" stroke="black" stroke-width="20" stroke-miterlimit="10"/>
<path d="M873.668 965.196C884.966 1016.8 855.779 1071.63 811.997 1102.96C801.169 1110.34 789.87 1117.25 776.689 1120.01C752.209 1125.54 726.316 1118.17 705.131 1105.27C667.469 1082.23 642.048 1041.68 637.341 998.832C637.341 994.224 636.87 989.156 640.165 985.93C642.519 983.626 645.343 983.166 648.639 982.244C706.544 967.961 764.919 957.363 823.766 949.991C842.126 947.687 869.431 946.305 873.668 965.196Z" fill="white" stroke="black" stroke-width="20" stroke-miterlimit="10"/>
<path d="M756.918 1053.66C766.538 1053.66 774.337 1045.41 774.337 1035.23C774.337 1025.05 766.538 1016.8 756.918 1016.8C747.298 1016.8 739.5 1025.05 739.5 1035.23C739.5 1045.41 747.298 1053.66 756.918 1053.66Z" fill="black"/>
</svg>
