<svg width="1760" height="1760" viewBox="0 0 1760 1760" fill="none" xmlns="http://www.w3.org/2000/svg">
<rect width="1760" height="1760" fill="white"/>
<path d="M706.123 381.946C637.025 383.718 578.557 435.986 515.217 463.006C486.869 474.966 454.534 491.798 449.662 522.361C446.561 540.522 454.977 558.683 462.064 575.958C479.782 618.038 491.741 662.777 498.385 707.957C507.244 769.527 505.029 832.426 505.029 894.882C505.029 960.881 506.358 1027.32 509.901 1093.32C511.673 1124.33 513.445 1155.34 522.747 1185.01C539.578 1239.94 579.443 1285.12 626.395 1318.34C729.156 1391.43 869.124 1408.7 986.502 1363.08C1040.98 1341.82 1091.48 1306.83 1121.16 1256.77C1141.97 1221.34 1151.72 1180.58 1161.46 1140.72C1223.92 893.553 1311.62 753.581 1342.63 500.214C1353.7 408.523 1398.88 311.517 1222.59 377.96C1197.34 387.704 1100.78 393.906 1078.19 408.523C998.905 458.577 996.247 482.496 967.013 673.407C961.255 712.387 948.411 831.983 828.375 788.574C747.317 759.34 788.51 575.072 773.007 488.254C765.034 443.073 749.088 381.503 706.123 382.389V381.946Z" fill="#DAD4FF" stroke="black" stroke-width="20" stroke-miterlimit="10"/>
<path d="M758.391 966.198C686.635 1007.39 687.964 1124.33 732.258 1193.87C739.345 1204.95 747.76 1215.58 758.391 1223.55C772.122 1233.74 789.397 1238.61 806.229 1241.71C868.24 1252.79 936.895 1235.51 979.86 1189.44C1022.82 1143.38 1033.9 1067.63 998.02 1015.81C975.874 983.916 939.553 963.983 901.904 955.124C864.254 946.265 818.187 932.091 758.391 966.198Z" fill="white" stroke="black" stroke-width="20" stroke-miterlimit="10"/>
<path d="M864.251 1138.06C881.131 1138.06 894.814 1124.38 894.814 1107.5C894.814 1090.62 881.131 1076.93 864.251 1076.93C847.372 1076.93 833.688 1090.62 833.688 1107.5C833.688 1124.38 847.372 1138.06 864.251 1138.06Z" fill="black"/>
</svg>
