<svg width="1760" height="1760" viewBox="0 0 1760 1760" fill="none" xmlns="http://www.w3.org/2000/svg">
<rect width="1760" height="1760" fill="white"/>
<path d="M421.275 1305.4C403.772 1348.55 459.944 1396.58 506.346 1399.83C616.245 1407.57 737.948 1412.05 822.611 1342.03C888.144 1288.3 918.671 1199.57 987.46 1150.72C1021.24 1126.71 1061.54 1114.5 1099.8 1099.03C1131.96 1086 1163.3 1070.94 1193.42 1053.85C1238.19 1028.2 1281.34 996.859 1310.24 953.713C1339.14 910.566 1351.76 854.393 1333.44 806.362C1316.75 762.808 1276.86 729.838 1265.46 684.656C1255.29 644.765 1268.72 601.212 1256.1 562.542C1244.71 527.536 1214.18 502.3 1187.31 477.063C1158.82 450.198 1133.18 420.483 1110.38 388.734C1095.32 367.975 1081.08 345.587 1059.51 332.155C1024.5 310.174 976.878 317.501 942.687 341.11C908.496 364.718 886.515 401.759 870.234 439.614C855.987 472.178 844.998 506.777 823.832 535.27C802.666 563.763 766.847 584.93 732.25 577.603C707.42 572.311 678.521 553.994 659.797 571.904C652.878 578.417 650.436 588.593 648.401 597.955C588.567 863.755 522.626 1054.66 421.275 1305.4Z" fill="#60FF3F" stroke="black" stroke-width="20" stroke-miterlimit="10"/>
<path d="M684.627 985.462C679.335 1003.37 674.044 1023.32 675.672 1039.6C677.707 1057.1 687.069 1063.21 696.024 1067.69C733.878 1085.6 773.768 1095.77 815.286 1098.62C824.24 1099.03 834.008 1099.43 843.777 1091.7C865.35 1074.61 879.19 1028.2 890.18 987.498C907.275 923.591 924.37 842.182 902.39 808.804C894.657 797 883.667 794.558 873.084 792.523C842.556 787.231 810.807 786.417 778.651 789.674C769.29 790.488 759.115 792.523 749.346 803.513C739.577 814.503 698.873 937.024 684.627 985.869V985.462Z" fill="white" stroke="black" stroke-width="20" stroke-miterlimit="10"/>
<path d="M822.916 942.483C827.291 922.499 822.649 904.506 812.548 902.294C802.446 900.083 790.711 914.49 786.335 934.474C781.96 954.457 786.602 972.451 796.703 974.662C806.805 976.874 818.541 962.467 822.916 942.483Z" fill="black"/>
</svg>
