<svg width="1760" height="1760" viewBox="0 0 1760 1760" fill="none" xmlns="http://www.w3.org/2000/svg">
<rect width="1760" height="1760" fill="white"/>
<path d="M590.173 984.811C586.985 1035.46 628.425 1127.2 675.532 1145.97C741.057 1172.18 810.833 1117.99 881.67 1115.16C895.13 1114.45 909.651 1116.22 920.985 1123.3C954.633 1144.2 947.549 1193.79 941.174 1232.75C935.507 1268.88 934.09 1307.13 947.904 1340.78C961.717 1374.43 993.594 1402.77 1030.08 1403.83C1090.64 1404.89 1127.83 1336.53 1135.98 1276.67C1144.48 1212.91 1135.98 1146.68 1111.89 1087.17C1097.37 1051.75 1080.02 1005 1109.06 980.207C1120.75 970.289 1136.33 967.81 1151.21 964.622C1202.57 953.287 1259.94 914.326 1251.09 862.613C1244.71 825.068 1206.82 802.753 1176.36 779.73C1145.9 756.708 1117.21 716.329 1135.98 683.389C1146.25 664.97 1169.63 652.927 1169.98 631.676C1169.98 613.611 1152.27 600.86 1135.62 595.193C1118.98 589.526 1099.85 587.047 1086.04 575.712C1071.52 564.024 1063.72 543.126 1046.01 537.813C1029.01 532.854 1012.01 544.543 996.073 551.981C965.967 566.149 929.84 567.211 899.38 554.106C807.999 515.144 731.14 349.025 693.596 352.921C680.491 354.338 693.596 407.114 684.742 445.721C675.887 484.329 645.426 508.769 618.154 524.353C604.34 532.146 610.716 562.607 607.174 587.047C597.611 649.74 605.049 677.367 639.405 741.831C723.702 901.221 593.36 934.515 590.173 985.165V984.811Z" fill="#FF3B83" stroke="black" stroke-width="20" stroke-miterlimit="10"/>
<path d="M831.73 787.521C774.351 820.461 775.414 913.97 810.833 969.579C816.5 978.434 823.229 986.935 831.73 993.31C842.71 1001.46 856.523 1005.35 869.982 1007.83C919.568 1016.69 974.468 1002.87 1008.82 966.037C1043.18 929.2 1052.04 868.632 1023.35 827.191C1005.64 801.689 976.593 785.75 946.487 778.666C916.381 771.582 879.545 760.248 831.73 787.521Z" fill="white" stroke="black" stroke-width="20" stroke-miterlimit="10"/>
<path d="M818.979 915.032C832.476 915.032 843.418 904.09 843.418 890.593C843.418 877.095 832.476 866.153 818.979 866.153C805.482 866.153 794.541 877.095 794.541 890.593C794.541 904.09 805.482 915.032 818.979 915.032Z" fill="black"/>
</svg>
