<svg width="1760" height="1760" viewBox="0 0 1760 1760" fill="none" xmlns="http://www.w3.org/2000/svg">
<rect width="1760" height="1760" fill="white"/>
<path d="M563.801 526.408C519.951 561.826 470.621 584.174 443.636 633.928C435.625 649.107 397.677 700.548 470.62 767.168C495.497 789.937 524.59 809.754 539.769 840.113C560.851 881.856 547.78 937.513 510.676 965.763C460.502 1003.29 371.536 986.846 376.174 1067.38C380.391 1139.06 406.11 1219.59 465.561 1260.07C592.895 1346.93 745.948 1223.81 792.75 1153.4C817.205 1116.71 855.573 1108.7 890.147 1136.95C934.419 1172.79 952.128 1218.75 990.075 1249.11C1030.55 1282 1086.63 1271.03 1130.06 1241.52C1173.49 1212 1203 1168.57 1200.05 1116.29C1197.1 1061.9 1169.27 1012.14 1161.26 958.174C1158.73 942.994 1158.31 926.55 1163.37 912.214C1170.11 893.24 1185.71 878.904 1201.31 866.255C1250.65 824.933 1305.46 786.564 1336.24 730.063C1367.02 673.563 1414.24 545.382 1360.27 510.386C1343.4 499.423 1171.8 510.807 1109.4 502.796C1054.16 495.628 1072.72 647.842 999.773 676.936C957.609 693.802 917.975 688.742 875.39 652.059C837.021 619.17 777.57 489.303 744.261 475.811C731.612 470.751 651.08 455.993 564.223 526.408H563.801Z" fill="#FF6640" stroke="black" stroke-width="20" stroke-miterlimit="10"/>
<path d="M730.345 786.563C682.278 811.862 683.543 884.806 712.636 928.236C717.274 935.404 723.177 941.729 730.345 946.788C739.621 953.113 751.005 956.065 762.39 958.173C803.71 964.919 849.246 954.378 877.917 925.706C906.588 897.034 913.756 849.81 890.145 817.765C875.388 797.948 851.354 785.298 826.056 780.238C800.757 775.178 769.979 765.902 730.345 786.985V786.563Z" fill="white" stroke="black" stroke-width="20" stroke-miterlimit="10"/>
<path d="M801.181 893.24C812.358 893.24 821.42 884.745 821.42 874.266C821.42 863.787 812.358 855.292 801.181 855.292C790.004 855.292 780.943 863.787 780.943 874.266C780.943 884.745 790.004 893.24 801.181 893.24Z" fill="black"/>
</svg>
