<svg width="1760" height="1760" viewBox="0 0 1760 1760" fill="none" xmlns="http://www.w3.org/2000/svg">
<rect width="1760" height="1760" fill="white"/>
<path d="M757.557 430.915C700.15 464.236 696.537 551.752 641.941 589.489C626.686 599.927 608.219 605.949 594.57 618.795C565.666 646.496 570.885 692.261 564.863 731.604C552.419 817.113 484.174 881.747 427.169 946.783C410.308 966.052 393.849 986.526 386.623 1010.61C379.397 1034.7 382.207 1060.39 384.616 1085.69C390.236 1140.28 396.257 1194.48 401.878 1249.08C403.885 1268.35 405.892 1288.02 413.118 1306.08C426.767 1341.81 460.087 1369.51 497.823 1375.94C535.559 1382.36 576.505 1368.31 601.395 1339.4C635.116 1300.46 638.729 1243.46 665.626 1199.7C675.261 1184.04 688.508 1169.99 705.77 1163.17C723.032 1156.34 744.308 1159.15 756.753 1172.8C765.183 1181.63 768.395 1194.08 771.606 1205.72C779.234 1236.23 786.059 1267.54 800.11 1295.65C814.16 1323.75 836.239 1349.84 865.946 1360.28C895.652 1370.72 932.987 1362.69 950.249 1336.19C958.278 1324.15 961.087 1309.7 964.7 1295.65C973.532 1259.51 984.773 1224.19 998.422 1189.66C1009.66 1161.16 1029.73 1128.64 1060.65 1129.85C1088.75 1130.65 1107.61 1160.36 1111.63 1188.06C1115.64 1215.76 1110.83 1244.66 1117.25 1271.96C1124.48 1303.67 1151.37 1355.06 1192.32 1355.06C1205.17 1355.06 1277.42 1347.83 1307.53 1300.46C1339.25 1250.68 1342.46 1186.05 1332.02 1127.84C1322.39 1074.44 1297.5 1017.44 1321.99 968.862C1332.02 949.191 1348.88 934.338 1361.73 916.674C1390.63 877.331 1375.38 816.712 1363.33 769.34C1355.31 736.823 1309.14 719.159 1280.64 709.122C1246.92 697.48 1225.64 664.561 1206.37 634.05C1199.55 623.211 1192.32 611.569 1180.28 606.751C1165.82 600.328 1148.96 605.949 1134.91 613.978C1087.94 640.474 1052.62 693.867 998.823 696.677C958.679 698.684 921.747 669.378 902.879 633.649C884.011 597.919 879.193 556.971 873.573 516.826C870.763 494.345 867.15 471.462 854.303 452.995C829.414 417.667 776.022 420.076 755.549 431.718L757.557 430.915Z" fill="#FCFFA6" stroke="black" stroke-width="20" stroke-miterlimit="10"/>
<path d="M800.914 820.323C735.88 857.658 737.085 963.642 777.229 1026.67C783.652 1036.71 791.279 1046.34 800.914 1053.57C813.359 1062.8 829.014 1067.22 844.269 1070.03C900.471 1080.06 962.695 1064.41 1001.64 1022.66C1040.58 980.904 1050.61 912.256 1018.09 865.286C998.022 836.381 965.104 818.316 930.981 810.287C896.858 802.257 855.109 789.411 800.914 820.323Z" fill="white" stroke="black" stroke-width="20" stroke-miterlimit="10"/>
<path d="M896.858 976.489C912.156 976.489 924.556 964.087 924.556 948.788C924.556 933.49 912.156 921.088 896.858 921.088C881.56 921.088 869.158 933.49 869.158 948.788C869.158 964.087 881.56 976.489 896.858 976.489Z" fill="black"/>
</svg>
