<svg width="1760" height="1760" viewBox="0 0 1760 1760" fill="none" xmlns="http://www.w3.org/2000/svg">
<rect width="1760" height="1760" fill="white"/>
<path d="M355.971 901.394C363.629 948.617 368.309 1000.09 408.723 1025.19C434.248 1040.93 465.303 1046.46 491.254 1062.2C536.347 1089.43 557.618 1142.18 581.867 1188.98C606.115 1235.78 643.126 1284.7 695.877 1288.96C720.126 1291.08 746.076 1283 768.623 1292.36C814.567 1311.93 815.843 1388.93 863.915 1401.69C903.053 1411.9 935.385 1369.36 948.147 1331.07C974.097 1252.8 970.695 1165.58 939.214 1089.86C926.026 1057.95 907.733 1026.89 903.904 992.861C894.97 911.179 951.976 807.801 1033.23 796.74C1083.85 789.933 1129.37 834.603 1180.42 834.603C1231.47 834.603 1278.69 814.182 1301.24 768.662C1323.79 723.141 1361.22 356 1267.63 356C1134.9 356 1141.29 366.21 1076.2 366.21C1031.1 366.21 1108.53 559.353 947.721 565.734C816.269 571.265 827.33 380.675 772.451 377.271C642.275 369.188 549.11 366.21 545.707 399.819C541.878 438.958 568.253 522.341 513.8 602.746C484.022 646.99 324.916 721.44 354.695 901.82L355.971 901.394Z" fill="#E6E1E1" stroke="black" stroke-width="20" stroke-miterlimit="10"/>
<path d="M613.345 687.405C557.616 720.163 556.34 816.309 592.075 873.316C597.605 882.675 604.837 891.184 613.345 897.565C624.406 905.648 638.445 909.902 652.058 912.455C702.257 921.389 757.56 907.35 792.018 869.912C826.902 832.475 835.836 770.363 806.908 728.246C789.04 702.295 759.687 685.703 729.058 678.897C698.428 672.09 662.268 658.902 613.345 687.831V687.405Z" fill="white" stroke="black" stroke-width="20" stroke-miterlimit="10"/>
<path d="M698.856 827.797C712.483 827.797 723.53 816.75 723.53 803.122C723.53 789.495 712.483 778.448 698.856 778.448C685.229 778.448 674.182 789.495 674.182 803.122C674.182 816.75 685.229 827.797 698.856 827.797Z" fill="black"/>
</svg>
