<svg width="1760" height="1760" viewBox="0 0 1760 1760" fill="none" xmlns="http://www.w3.org/2000/svg">
<rect width="1760" height="1760" fill="white"/>
<path d="M541.076 410.926C512.636 421.522 516.54 466.135 520.443 496.249C524.347 526.363 533.268 555.919 531.595 586.591C526.576 675.817 430.661 744.967 439.583 833.636C442.372 860.961 455.198 886.614 464.678 912.825C481.965 961.899 485.312 1015.99 475.274 1067.3C465.236 1117.49 441.814 1164.89 434.007 1215.64C426.199 1266.38 440.7 1326.05 485.869 1350.03C541.077 1379.59 609.667 1340 647.029 1289.25C684.392 1238.5 704.467 1176.6 747.964 1131.43C813.767 1063.95 919.72 1049.45 1011.18 1071.76C1060.25 1083.47 1107.65 1104.66 1157.84 1107.45C1235.91 1111.91 1316.77 1038.3 1354.69 969.706C1392.61 901.113 1387.59 814.118 1341.86 750.544C1230.33 593.84 1148.92 590.494 903.549 609.455C702.795 625.069 737.927 337.314 541.076 410.926Z" fill="#B7ABFF" stroke="black" stroke-width="20" stroke-miterlimit="10"/>
<path d="M1151.15 937.364C1175.68 951.863 1205.24 965.805 1230.33 952.421C1245.95 943.498 1254.87 925.653 1261.56 908.365C1269.93 886.616 1276.06 863.194 1274.39 839.772C1272.71 816.35 1262.68 792.929 1243.72 780.66C1223.64 767.276 1197.43 768.391 1173.45 772.295C1129.4 778.429 1084.23 791.813 1049.1 820.812C1045.19 824.158 1041.29 827.504 1039.06 831.965C1034.04 842.003 1037.94 855.387 1045.75 863.195C1053.56 871.002 1122.71 921.749 1151.15 938.479V937.364Z" fill="white" stroke="black" stroke-width="20" stroke-miterlimit="10"/>
<path d="M1206.97 863.922C1209.79 851.613 1203.8 839.739 1193.59 837.401C1183.39 835.064 1172.83 843.147 1170.01 855.456C1167.19 867.765 1173.18 879.638 1183.39 881.976C1193.59 884.314 1204.15 876.231 1206.97 863.922Z" fill="black"/>
</svg>
