<svg width="1760" height="1760" viewBox="0 0 1760 1760" fill="none" xmlns="http://www.w3.org/2000/svg">
<rect width="1760" height="1760" fill="white"/>
<path d="M768.173 421.328C759.093 441.066 716.855 460.014 759.093 773.845C763.83 810.162 764.619 847.664 756.33 883.192C748.04 918.72 725.54 953.458 691.197 966.09C666.328 975.564 638.695 980.302 611.853 981.881C585.01 983.46 555.799 983.46 542.772 1006.36C529.746 1028.86 537.246 1057.28 534.483 1083.33C526.193 1165.44 419.612 1226.23 442.113 1305.58C450.797 1335.98 478.035 1358.48 507.641 1369.14C537.246 1379.79 569.615 1380.58 601.195 1380.58C647.38 1380.58 695.538 1377.43 736.197 1355.71C794.619 1324.53 826.199 1260.97 863.7 1206.1C901.201 1151.23 958.045 1097.94 1023.57 1106.62C1087.52 1114.91 1135.29 1179.65 1199.63 1180.05C1238.71 1180.05 1274.63 1154.78 1294.76 1121.62C1314.89 1088.46 1321.61 1048.59 1322 1009.51C1322 965.301 1314.5 919.509 1287.66 884.376C1254.5 841.348 1198.84 821.61 1160.94 782.529C1117.92 737.922 1088.31 672.392 1099.36 611.205C1121.47 490.015 1096.6 377.51 1058.31 364.483C961.202 331.718 776.067 403.169 767.777 421.328H768.173Z" fill="#FF3B83" stroke="black" stroke-width="20" stroke-miterlimit="10"/>
<path d="M860.543 540.938C848.306 555.938 858.963 644.364 868.437 653.048C877.121 660.943 997.913 660.943 1005.41 656.206C1017.26 648.706 1007.39 552.78 1005.81 548.833C1001.47 536.595 878.306 518.831 860.543 540.543V540.938Z" fill="#F5F5F7" stroke="black" stroke-width="20" stroke-miterlimit="10"/>
<path d="M932.781 568.178C941.501 568.178 948.57 561.462 948.57 553.177C948.57 544.893 941.501 538.177 932.781 538.177C924.06 538.177 916.991 544.893 916.991 553.177C916.991 561.462 924.06 568.178 932.781 568.178Z" fill="black" stroke="black" stroke-width="20" stroke-miterlimit="10"/>
</svg>
