<svg width="1760" height="1760" viewBox="0 0 1760 1760" fill="none" xmlns="http://www.w3.org/2000/svg">
<g clip-path="url(#clip0_10_271)">
<path d="M1760 0H0V1760H1760V0Z" fill="white"/>
<path d="M679.9 631.685C639.145 617.688 663.844 659.679 547.753 667.501C542.401 667.501 466.655 664.208 463.361 668.325C448.129 687.674 565.456 768.363 579.453 779.89C660.14 846.583 649.436 951.561 637.086 989.436C624.736 1027.31 609.505 1055.31 589.744 1087.83C551.047 1152.05 526.346 1225.74 555.575 1294.9C584.804 1364.07 663.021 1413.06 735.887 1395.77C789.404 1383.41 830.571 1340.19 858.976 1293.26C887.381 1246.33 906.318 1194.45 935.135 1147.52C955.307 1114.59 981.243 1083.3 1017.06 1068.48C1041.76 1058.19 1069.34 1056.54 1096.1 1056.54C1157.03 1056.95 1225.77 1063.54 1271.06 1022.78C1306.05 991.083 1314.7 940.446 1320.87 893.926C1327.05 845.348 1331.99 797.181 1336.1 748.191C1338.57 715.668 1340.63 681.498 1328.69 651.034C1315.52 618.511 1287.94 593.81 1272.29 562.522C1250.47 518.884 1250.06 480.186 1236.07 433.666C1219.6 379.324 1125.33 397.85 1029.41 361.622C978.773 342.685 881.618 367.386 906.73 500.77C912.082 529.588 948.309 723.901 679.9 631.685Z" fill="#FFD58C" stroke="#0D0000" stroke-width="20" stroke-miterlimit="10"/>
<path d="M677.843 1156.58C660.552 1168.52 641.616 1183.75 643.262 1204.74C644.086 1217.92 653.555 1229.86 663.023 1239.33C674.961 1251.68 688.958 1263.2 705.013 1269.38C721.068 1275.55 740.005 1275.97 754.414 1267.32C769.646 1257.85 777.055 1240.15 781.995 1223.27C791.464 1191.57 796.815 1157.4 788.582 1124.88C787.759 1121.17 786.523 1117.88 784.465 1114.59C779.113 1108 769.233 1106.76 761.412 1109.23C753.59 1111.7 698.015 1142.58 678.255 1156.17L677.843 1156.58Z" fill="white" stroke="black" stroke-width="20" stroke-miterlimit="10"/>
<path d="M731.398 1215.61C736.157 1209.52 734.06 1199.93 726.714 1194.19C719.369 1188.45 709.556 1188.74 704.797 1194.83C700.037 1200.92 702.134 1210.51 709.479 1216.25C716.825 1221.99 726.638 1221.7 731.398 1215.61Z" fill="black"/>
</g>
<defs>
<clipPath id="clip0_10_271">
<rect width="1760" height="1760" fill="white"/>
</clipPath>
</defs>
</svg>
