<svg width="1760" height="1760" viewBox="0 0 1760 1760" fill="none" xmlns="http://www.w3.org/2000/svg">
<rect width="1760" height="1760" fill="white"/>
<path d="M786.091 505.098C759.276 505.098 726.382 517.264 717.444 542.292C708.506 567.32 712.081 594.851 714.226 621.667C718.874 673.153 717.803 724.997 711.725 776.126C705.646 826.54 690.987 881.244 648.44 909.132C609.469 934.518 559.057 929.512 512.935 934.875C460.378 940.954 406.747 963.836 376.714 1007.81C346.681 1051.79 348.112 1118.3 388.871 1152.62C405.317 1166.21 425.696 1173.71 446.433 1179.79C539.75 1207.32 639.86 1211.61 734.964 1192.31C753.198 1188.37 772.147 1183.37 786.091 1170.85C804.325 1154.05 809.331 1127.95 813.264 1103.64C823.99 1039.99 834.716 976.351 845.442 912.708C853.665 863.724 872.614 803.657 921.954 797.579C955.562 793.288 986.668 819.746 999.539 850.853C1012.41 881.959 1010.98 916.998 1009.55 950.965C1008.12 983.144 1006.69 1014.97 1005.26 1047.14C1004.54 1063.23 1003.83 1080.4 1010.98 1095.06C1023.14 1120.08 1053.53 1129.38 1080.7 1136.17C1132.18 1149.04 1184.38 1162.27 1237.3 1158.7C1290.21 1155.12 1344.56 1132.95 1373.52 1088.62C1414.64 1025.33 1383.89 927.725 1313.45 899.836C1291.29 890.898 1265.19 887.68 1249.1 869.802C1236.94 856.216 1274.13 708.193 1329.9 610.226C1343.49 586.27 1393.9 530.851 1335.26 482.583C1307.02 459.342 1045.66 505.108 779.298 505.108L786.091 505.098Z" fill="#FFE0F6" stroke="black" stroke-width="20" stroke-miterlimit="10"/>
<path d="M903.365 680.661C898.717 669.935 906.226 646.337 919.454 630.605C940.191 606.292 977.018 597.353 1006.69 609.152C1036.37 620.951 1056.75 652.772 1055.32 684.594C1055.32 686.381 1055.32 688.169 1053.89 689.957C1052.46 692.102 1049.95 692.817 1047.45 693.532C995.609 707.476 910.158 696.75 903.365 680.661Z" fill="#FAFCFF" stroke="black" stroke-width="20" stroke-miterlimit="10"/>
<path d="M981.306 692.103C987.23 692.103 992.032 687.3 992.032 681.376C992.032 675.452 987.23 670.65 981.306 670.65C975.382 670.65 970.58 675.452 970.58 681.376C970.58 687.3 975.382 692.103 981.306 692.103Z" fill="black" stroke="black" stroke-width="20" stroke-miterlimit="10"/>
</svg>
