<svg width="1760" height="1760" viewBox="0 0 1760 1760" fill="none" xmlns="http://www.w3.org/2000/svg">
<rect width="1760" height="1760" fill="white"/>
<path d="M830.103 374.184C794.402 377.398 771.196 416.312 761.914 450.943C752.632 485.574 755.131 522.347 754.417 558.405C753.703 594.821 749.419 630.88 741.922 666.582C740.136 675.15 737.994 684.075 732.282 691.216C723.713 702.283 708.719 705.853 694.796 707.281C641.245 712.637 586.265 692.287 533.785 705.497C527.002 707.282 520.219 709.424 515.221 714.422C508.081 721.205 505.582 731.916 503.44 741.555C480.949 835.094 416.33 915.066 397.409 1009.32C392.054 1035.38 391.339 1064.66 407.761 1085.72C426.326 1108.93 459.528 1113.21 485.233 1128.21C517.006 1147.13 536.284 1185.33 532.714 1222.1C529.501 1253.16 511.295 1282.44 513.437 1313.5C515.936 1348.48 544.139 1377.4 575.913 1391.68C614.827 1409.53 664.807 1408.82 696.581 1380.26C739.065 1342.06 733.353 1274.94 728.712 1217.82C722.286 1139.27 724.428 1059.3 747.276 983.97C754.774 958.622 766.198 932.203 789.047 918.636C815.822 902.57 852.594 909.71 875.442 931.132C898.291 952.553 907.93 985.398 906.859 1016.46C905.431 1054.66 889.722 1096.43 909.715 1129.28C925.423 1155.34 958.625 1164.98 988.97 1166.05C1028.6 1167.12 1073.22 1152.84 1090.72 1117.14C1102.5 1093.22 1100.36 1062.16 1119.64 1043.23C1132.84 1030.38 1152.48 1027.17 1170.69 1027.17C1216.38 1027.88 1264.58 1046.09 1306.71 1027.88C1360.62 1004.68 1375.25 933.274 1364.9 875.794C1359.54 847.232 1349.55 818.314 1330.27 796.536C1315.63 779.756 1296 767.974 1276.72 757.264C1232.09 732.987 1174.62 755.122 1147.84 676.935C1145.34 670.152 1137.49 666.225 1131.06 663.011C1121.06 658.013 1103.93 675.507 1092.86 676.935C1044.66 682.29 980.046 674.436 946.13 639.805C913.285 606.603 925.423 543.768 920.782 497.355C916.141 450.943 935.42 365.259 830.816 374.541L830.103 374.184Z" fill="#442FBD" stroke="black" stroke-width="20" stroke-miterlimit="10"/>
<path d="M1113.21 818.313C1067.87 754.764 979.331 792.965 962.195 844.375C933.277 929.702 1045.74 938.628 1086.08 923.276C1139.27 902.926 1131.77 844.375 1113.21 818.313Z" fill="white" stroke="black" stroke-width="20" stroke-miterlimit="10"/>
<path d="M1035.74 877.936C1045.01 877.936 1052.52 872.022 1052.52 864.726C1052.52 857.431 1045.01 851.517 1035.74 851.517C1026.47 851.517 1018.96 857.431 1018.96 864.726C1018.96 872.022 1026.47 877.936 1035.74 877.936Z" fill="black"/>
</svg>
