<svg width="1760" height="1760" viewBox="0 0 1760 1760" fill="none" xmlns="http://www.w3.org/2000/svg">
<rect width="1760" height="1760" fill="white"/>
<path d="M493.655 859.973C415.688 843.328 396.854 902.462 381.523 937.504C366.193 972.546 361.374 1011.09 358.308 1049.2C353.49 1103.95 353.49 1163.96 385.903 1208.64C411.308 1243.25 454.234 1262.52 497.16 1262.96C540.085 1263.4 581.696 1245.87 614.547 1217.84C649.15 1188.49 674.556 1147.32 714.853 1126.29C755.15 1105.27 801.141 1107.46 844.067 1117.09C893.124 1128.05 1117.83 1267.78 1176.08 1204.7C1201.93 1177.1 1252.3 1032.56 1266.31 997.075C1287.78 941.884 1328.07 850.336 1334.21 735.136C1336.83 686.953 1383.26 651.473 1398.59 605.48C1404.29 589.273 1407.35 570.876 1400.35 555.107C1392.9 539.776 1376.69 530.139 1360.05 525.759C1314.06 513.494 1229.08 534.958 1186.16 513.932C1159.88 501.23 1145.42 484.147 1064.83 516.999C954.447 561.677 790.629 506.486 635.134 524.883C625.498 526.197 706.092 605.042 708.72 677.754C711.786 760.103 704.34 905.528 493.655 859.973Z" fill="#FCFFA6" stroke="black" stroke-width="20" stroke-miterlimit="10"/>
<path d="M1130.53 812.228C1054.31 696.59 906.263 766.236 876.916 859.974C828.296 1015.47 1017.08 1031.68 1084.54 1003.65C1173.89 966.852 1161.63 859.973 1130.09 812.228H1130.53Z" fill="white" stroke="black" stroke-width="20" stroke-miterlimit="10"/>
<path d="M1000.44 921.298C1015.92 921.298 1028.47 910.316 1028.47 896.769C1028.47 883.222 1015.92 872.24 1000.44 872.24C984.958 872.24 972.406 883.222 972.406 896.769C972.406 910.316 984.958 921.298 1000.44 921.298Z" fill="black"/>
</svg>
