<svg width="1760" height="1760" viewBox="0 0 1760 1760" fill="none" xmlns="http://www.w3.org/2000/svg">
<rect width="1760" height="1760" fill="white"/>
<path d="M620.668 814.072C587.223 801.824 569.794 812.187 555.191 844.691C530.697 900.747 495.368 1018.98 410.579 1210.23C375.721 1288.9 549.067 1424.1 619.725 1299.74C673.424 1205.05 634.798 1025.58 774.7 1000.14C914.601 974.703 925.906 1191.86 961.235 1230.02C975.366 1245.56 1062.98 1278.54 1092.66 1272.41C1140.23 1262.99 1167.08 1213.06 1182.16 1166.9C1201.94 1106.6 1213.72 1043.48 1216.07 980.356C1216.54 963.869 1216.54 947.382 1210.89 932.308C1203.35 912.523 1068.63 895.565 1101.61 759.429C1124.22 665.688 1213.72 673.696 1236.8 658.151C1310.75 609.16 1323 315.218 1276.84 361.853C1177.92 460.776 952.285 381.638 855.72 466.429C828.399 490.453 823.69 574.302 829.813 610.573C841.118 676.993 881.628 742.471 779.411 817.84C750.677 839.038 702.912 844.755 612 811.309L620.668 814.072Z" fill="#FFE0F6" stroke="black" stroke-width="20" stroke-miterlimit="10"/>
<path d="M1113.86 529.079C1100.67 509.766 1043.2 510.708 1007.4 509.766C994.209 509.766 980.548 508.824 968.772 512.122C949.93 517.774 943.806 530.964 940.509 543.211C934.385 566.764 932.973 591.26 935.328 615.284C935.799 619.523 936.27 623.763 939.567 628.002C947.104 637.424 966.417 641.192 983.374 644.018C1013.05 648.729 1042.73 652.497 1072.87 655.324C1080.41 656.266 1088.42 656.737 1095.48 655.324C1106.79 652.497 1110.09 644.49 1112.44 637.895C1123.75 599.739 1130.81 555.459 1113.38 529.551L1113.86 529.079Z" fill="white" stroke="black" stroke-width="20" stroke-miterlimit="10"/>
<path d="M1087 569.12C1094.81 569.12 1101.14 562.793 1101.14 554.988C1101.14 547.184 1094.81 540.856 1087 540.856C1079.2 540.856 1072.87 547.184 1072.87 554.988C1072.87 562.793 1079.2 569.12 1087 569.12Z" fill="black" stroke="black" stroke-width="20" stroke-miterlimit="10"/>
</svg>
