<svg width="1760" height="1760" viewBox="0 0 1760 1760" fill="none" xmlns="http://www.w3.org/2000/svg">
<g clip-path="url(#clip0_10_265)">
<path d="M1760 0H0V1760H1760V0Z" fill="white"/>
<path d="M640.69 502.423C608.584 487.238 598.17 558.393 592.53 593.103C586.89 627.812 582.552 665.993 558.689 692.459C531.356 721.963 486.668 727.603 454.129 751.032C425.928 771.424 408.574 806.134 409.008 841.278C409.442 876.421 427.664 910.697 456.733 930.221C473.22 941.502 494.045 949.312 504.024 967.101C510.532 978.381 510.966 991.831 510.966 1004.85C510.966 1053.01 505.324 1100.73 493.61 1147.59C482.764 1190.54 468.013 1241.31 495.78 1276.02C510.965 1295.11 535.262 1303.79 558.256 1310.29C674.097 1343.7 743.08 1327.21 750.022 1316.8C833.757 1191.41 804.255 1085.11 865.429 1033.48C889.725 1013.09 925.302 1007.45 954.804 1019.17C984.307 1030.88 1006.43 1059.52 1009.91 1091.19C1013.81 1124.16 999.926 1161.04 1018.15 1188.38C1025.96 1200.09 1231.61 1234.8 1245.49 1232.2C1307.53 1221.78 1311.87 1119.39 1328.36 1026.54C1347.45 920.676 1356.99 813.51 1376.08 708.079C1386.93 647.337 1425.98 549.716 1381.72 528.89C1282.37 481.598 1311.87 413.046 1285.41 408.273C1245.92 400.897 1159.59 545.377 1037.24 556.657C998.19 560.128 863.694 608.722 641.557 502.423H640.69Z" fill="#3EC790" stroke="black" stroke-width="20" stroke-miterlimit="10"/>
<path d="M728.331 757.541C687.548 782.272 687.547 854.295 713.145 897.248C717.484 904.19 722.257 910.698 728.331 915.471C736.574 921.545 746.12 924.582 756.098 926.752C792.109 933.26 832.023 922.847 856.753 894.645C881.483 866.443 887.992 820.019 867.167 787.912C854.585 768.388 833.325 756.24 811.198 750.599C789.071 744.959 763.473 736.282 728.331 757.541Z" fill="white" stroke="black" stroke-width="20" stroke-miterlimit="10"/>
<path d="M726.159 882.062C733.348 882.062 739.174 876.234 739.174 869.045C739.174 861.857 733.348 856.029 726.159 856.029C718.971 856.029 713.143 861.857 713.143 869.045C713.143 876.234 718.971 882.062 726.159 882.062Z" fill="black" stroke="black" stroke-width="20" stroke-miterlimit="10"/>
</g>
<defs>
<clipPath id="clip0_10_265">
<rect width="1760" height="1760" fill="white"/>
</clipPath>
</defs>
</svg>
