<svg width="1760" height="1760" viewBox="0 0 1760 1760" fill="none" xmlns="http://www.w3.org/2000/svg">
<g clip-path="url(#clip0_10_259)">
<path d="M1760 0H0V1760H1760V0Z" fill="white"/>
<path d="M892.402 421.287C847.349 415.958 808.108 361.698 762.085 376.716C746.583 381.561 726.721 430.492 715.094 442.119C691.356 465.857 660.351 482.329 627.408 488.627C605.608 492.503 582.355 492.503 562.977 502.676C529.55 520.117 517.923 561.781 509.688 598.6C474.807 761.379 452.523 926.096 431.692 1090.81C428.301 1118.91 425.393 1149.92 440.895 1173.17C465.118 1209.02 522.768 1206.11 556.679 1178.5C590.591 1150.89 606.093 1107.77 620.142 1066.59C632.253 1030.74 644.849 994.89 656.961 959.04C669.072 924.158 681.667 887.824 707.342 861.663C747.552 820.483 823.126 815.154 860.913 858.272C897.247 899.451 888.527 964.369 865.758 1014.75C710.25 1356.78 717.032 1371.8 806.17 1365.5C875.931 1360.66 1130.75 1295.26 1140.93 1253.59C1165.63 1154.28 1068.26 1062.23 1055.66 960.493C1052.27 932.879 1049.85 902.842 1062.93 878.619C1081.34 843.738 1125.42 829.688 1164.66 835.018C1196.15 838.893 1227.64 853.427 1258.65 847.613C1311.94 838.409 1339.55 779.304 1350.21 726.498C1361.83 667.393 1363.29 605.867 1353.6 546.278C1347.3 507.521 1333.25 464.888 1297.89 447.932C1276.09 437.274 1100.72 445.025 891.919 420.802L892.402 421.287Z" fill="white" stroke="black" stroke-width="20" stroke-miterlimit="10"/>
<path d="M799.495 533.641C753.957 561.256 753.958 641.677 782.54 689.638C787.385 697.39 792.713 704.657 799.495 709.986C808.699 716.768 819.358 720.159 830.5 722.582C870.71 729.849 915.279 718.222 942.893 686.732C970.507 655.242 977.773 603.404 954.519 567.554C940.47 545.753 916.732 532.188 892.025 525.89C867.318 519.592 838.736 509.903 799.495 533.641Z" fill="white" stroke="black" stroke-width="20" stroke-miterlimit="10"/>
<path d="M845.412 629.606C853.438 629.606 859.946 623.099 859.946 615.073C859.946 607.046 853.438 600.539 845.412 600.539C837.385 600.539 830.879 607.046 830.879 615.073C830.879 623.099 837.385 629.606 845.412 629.606Z" fill="black" stroke="black" stroke-width="20" stroke-miterlimit="10"/>
</g>
<defs>
<clipPath id="clip0_10_259">
<rect width="1760" height="1760" fill="white"/>
</clipPath>
</defs>
</svg>
