<svg width="1760" height="1760" viewBox="0 0 1760 1760" fill="none" xmlns="http://www.w3.org/2000/svg">
<g clip-path="url(#clip0_10_253)">
<path d="M1760 0H0V1760H1760V0Z" fill="white"/>
<path d="M611.067 481.099C602.15 492.988 640.365 606.788 619.134 702.753C607.245 756.68 580.92 825.044 526.994 834.811C484.533 842.454 432.73 780.459 373.285 839.906C352.479 860.713 353.753 894.683 360.122 923.133C366.491 951.582 416.17 1084.06 433.579 1130.77C438.25 1143.94 443.345 1157.1 452.262 1168.14C461.603 1179.6 474.767 1187.67 488.354 1194.04C540.582 1218.67 603.424 1219.94 656.926 1197.86C710.427 1175.78 753.312 1130.35 772.844 1075.57C786.007 1038.2 788.555 997.442 805.115 960.924C829.743 906.572 885.791 868.356 945.237 865.384C971.563 864.11 999.588 870.055 1017.85 888.738C1028.89 899.778 1035.25 914.64 1038.23 929.926C1047.57 974.936 1029.74 1020.37 1018.7 1064.53C1007.66 1108.69 1005.96 1162.19 1039.08 1194.04C1058.61 1212.72 1086.21 1219.52 1112.96 1222.92C1189.81 1232.68 1272.19 1216.12 1331.21 1166.44C1390.23 1116.76 1420.8 1030.56 1394.48 957.952C1374.1 902.751 1326.54 862.836 1292.57 814.429C1273.04 786.404 1257.33 751.585 1267.52 718.889C1283.23 669.632 1348.19 653.072 1372.82 607.637C1392.78 571.119 1383.01 507.001 1342.25 498.933C1225.06 476.004 1185.99 423.35 1136.74 442.034C1030.58 482.798 625.504 461.991 611.492 480.675L611.067 481.099Z" fill="#FF3B83" stroke="black" stroke-width="20" stroke-miterlimit="10"/>
<path d="M893.014 566.447C853.1 590.651 853.523 661.562 878.576 703.6C882.822 710.394 887.494 716.763 893.439 721.434C901.506 727.379 910.848 730.352 920.614 732.475C955.857 738.844 994.919 728.653 1019.12 701.052C1043.33 673.452 1049.7 628.017 1029.32 596.595C1017 577.487 996.194 565.597 974.538 560.077C952.883 554.557 927.407 545.64 893.014 566.447Z" fill="white" stroke="black" stroke-width="20" stroke-miterlimit="10"/>
<path d="M951.179 595.324C958.214 595.324 963.917 589.62 963.917 582.585C963.917 575.549 958.214 569.846 951.179 569.846C944.144 569.846 938.441 575.549 938.441 582.585C938.441 589.62 944.144 595.324 951.179 595.324Z" fill="black" stroke="black" stroke-width="20" stroke-miterlimit="10"/>
</g>
<defs>
<clipPath id="clip0_10_253">
<rect width="1760" height="1760" fill="white"/>
</clipPath>
</defs>
</svg>
