<svg width="1760" height="1760" viewBox="0 0 1760 1760" fill="none" xmlns="http://www.w3.org/2000/svg">
<rect width="1760" height="1760" fill="white"/>
<path d="M359.465 1036.7C363.723 1069.35 401.334 1088.16 433.978 1085.32C466.623 1082.48 495.719 1064.03 524.815 1048.77C553.911 1033.51 587.62 1021.09 619.199 1030.32C665.682 1043.8 686.262 1096.67 701.52 1142.8C716.778 1188.93 739.842 1241.45 787.389 1251.74C821.453 1259.19 857.291 1239.32 877.161 1210.58C897.032 1181.83 903.064 1145.64 903.774 1110.87C904.483 1080.7 901.289 1049.83 909.096 1020.74C916.902 991.64 939.966 963.608 969.771 961.834C1014.83 958.995 1042.51 1011.16 1047.83 1055.87C1053.16 1100.58 1051.03 1150.96 1081.9 1183.96C1108.86 1212.7 1158.54 1215.9 1189.41 1191.06C1232.35 1156.29 1228.44 1088.16 1260.38 1042.74C1294.8 993.769 1367.89 974.963 1384.92 917.834C1390.6 899.382 1388.83 879.511 1385.99 860.35C1379.95 818.479 1365.05 773.059 1328.15 752.124C1313.6 743.962 1296.92 740.769 1282.02 732.962C1234.12 708.124 1219.22 647.801 1189.77 602.382C1133.7 515.801 1010.93 483.156 915.482 522.543C820.033 561.93 702.939 656.317 700.101 759.575C696.907 879.511 618.49 893.705 553.911 881.285C524.815 875.608 500.687 852.898 471.236 850.414C429.011 846.866 389.27 877.737 370.819 916.059C352.368 954.382 354.497 998.027 359.465 1036.7Z" fill="#96BDF2" stroke="black" stroke-width="20" stroke-miterlimit="10"/>
<path d="M937.999 657.91C891.517 685.232 886.384 767.381 916.19 814.929C920.802 822.736 926.835 829.833 933.931 835.155C943.157 841.897 954.866 845.446 966.221 847.575C1008.09 855.026 1054.22 843.317 1082.96 812.091C1112.06 780.865 1119.51 729.058 1095.38 693.929C1080.48 672.284 1055.99 658.445 1030.44 652.768C1004.9 647.091 974.737 636.091 933.931 660.22L937.999 657.91Z" fill="white" stroke="black" stroke-width="20" stroke-miterlimit="10"/>
<path d="M1005.25 776.963C1016.62 776.963 1025.83 767.749 1025.83 756.382C1025.83 745.016 1016.62 735.802 1005.25 735.802C993.887 735.802 984.674 745.016 984.674 756.382C984.674 767.749 993.887 776.963 1005.25 776.963Z" fill="black"/>
</svg>
