<svg width="1760" height="1760" viewBox="0 0 1760 1760" fill="none" xmlns="http://www.w3.org/2000/svg">
<rect width="1760" height="1760" fill="white"/>
<path d="M1082.79 659.002C1114.72 648.357 1156.96 641.146 1175.5 668.961C1180.65 676.859 1183.06 686.474 1184.77 695.746C1195.07 745.194 1200.91 801.854 1169.66 841.688C1154.21 861.604 1131.55 874.31 1110.6 888.046C1077.29 909.679 1045.36 936.121 1030.59 972.864C1015.83 1009.61 1024.41 1058.03 1058.41 1078.29C1073.17 1086.87 1090.68 1089.62 1106.14 1096.83C1139.79 1112.62 1160.05 1147.99 1170.01 1184.05C1183.4 1231.44 1181.68 1285.35 1154.9 1326.56C1128.11 1367.77 1072.49 1391.8 1026.82 1372.92C977.025 1352.31 956.078 1291.88 957.451 1238.31C958.138 1211.87 962.602 1185.42 957.451 1159.33C952.3 1133.23 934.788 1107.47 908.691 1103.01C884.654 1099.23 861.305 1115.37 847.57 1135.63C833.835 1155.89 827.997 1179.93 819.412 1202.94C810.828 1225.94 799.496 1248.61 780.953 1264.75C762.411 1280.89 736.312 1289.82 712.962 1282.26C672.786 1269.21 660.425 1217.7 664.546 1175.81C668.666 1133.92 682.057 1090.3 667.979 1050.47C655.96 1016.82 626.774 993.124 602.737 966.683C578.7 940.241 559.127 903.155 572.175 869.846C582.477 843.061 610.291 828.295 632.611 810.439C654.931 792.582 675.19 762.364 662.142 736.609C658.365 729.055 651.84 722.874 649.093 714.632C644.629 700.553 652.527 685.444 663.858 675.829C675.19 666.214 688.927 660.719 701.632 652.821C741.121 628.097 762.409 583.456 777.518 539.502C792.627 495.547 803.617 449.189 830.401 411.416C857.185 373.643 905.601 345.828 949.898 359.564C984.923 370.552 1008.62 404.892 1016.17 440.948C1023.73 477.004 1017.89 514.091 1009.99 549.803C1005.53 570.407 1000.03 591.697 1003.81 612.644C1007.59 633.591 1025.1 677.889 1082.1 659.346L1082.79 659.002Z" fill="#FFF570" stroke="black" stroke-width="20" stroke-miterlimit="10"/>
<path d="M944.06 765.109C954.705 751.717 941.655 711.883 934.788 686.816C932.384 677.544 929.638 667.929 924.83 660.718C916.932 648.699 906.288 647.325 897.016 648.012C879.16 649.042 861.989 652.82 845.85 660.031C843.103 661.404 840.013 662.778 837.953 665.869C833.146 673.08 834.52 687.159 836.237 699.865C839.327 721.498 843.105 743.132 847.569 764.766C848.599 770.26 849.971 776.098 852.718 780.562C857.182 787.773 863.364 788.46 868.515 788.46C897.359 788.46 929.981 783.652 944.06 765.796V765.109Z" fill="white" stroke="black" stroke-width="20" stroke-miterlimit="10"/>
<path d="M880.875 787.431C886.565 787.431 891.176 782.819 891.176 777.13C891.176 771.44 886.565 766.828 880.875 766.828C875.186 766.828 870.574 771.44 870.574 777.13C870.574 782.819 875.186 787.431 880.875 787.431Z" fill="black" stroke="black" stroke-width="20" stroke-miterlimit="10"/>
</svg>
