<svg width="1760" height="1760" viewBox="0 0 1760 1760" fill="none" xmlns="http://www.w3.org/2000/svg">
<rect width="1760" height="1760" fill="white"/>
<path d="M693 366C630.538 359.754 585.262 387.147 559.028 443.781C535.293 495.418 555.28 555.382 568.606 611.183C587.344 690.304 591.508 773.172 580.265 853.959C574.435 896.017 564.858 940.158 580.265 979.719C606.083 1046.76 690.198 1069.67 736.42 1125.05C770.983 1166.28 781.809 1221.66 804.296 1270.38C826.782 1319.1 870.922 1366.99 924.223 1361.58C967.946 1357 1000.01 1317.44 1014.17 1275.8C1051.23 1166.28 999.593 1025.11 1080.79 943.49C1105.78 918.088 1139.92 903.929 1169.07 883.525C1257.77 821.061 1293.16 692.802 1249.02 593.277C1204.88 493.752 1086.21 434.203 980.022 458.356C955.454 463.769 930.885 473.347 905.9 470.848C865.508 466.684 835.943 432.954 805.961 405.47C775.979 377.986 734 366 716.5 366L693 366Z" fill="#FF6640" stroke="black" stroke-width="20" stroke-miterlimit="10"/>
<path d="M869.251 599.524C801.793 638.251 803.042 748.187 844.683 813.565C851.346 823.976 859.258 833.97 869.251 841.466C882.16 851.044 898.4 855.624 914.224 858.539C972.522 868.95 1037.07 852.709 1077.46 809.401C1117.85 766.093 1128.26 694.884 1094.53 646.163C1073.71 616.18 1039.56 597.441 1004.17 589.113C968.774 580.784 925.467 567.459 869.251 599.524Z" fill="white" stroke="black" stroke-width="20" stroke-miterlimit="10"/>
<path d="M969.192 761.513C985.06 761.513 997.924 748.648 997.924 732.779C997.924 716.91 985.06 704.046 969.192 704.046C953.323 704.046 940.459 716.91 940.459 732.779C940.459 748.648 953.323 761.513 969.192 761.513Z" fill="black"/>
</svg>
