<svg width="1760" height="1760" viewBox="0 0 1760 1760" fill="none" xmlns="http://www.w3.org/2000/svg">
<rect width="1760" height="1760" fill="white"/>
<path d="M495.603 987.854C502.763 966.85 405.386 797.868 402.045 775.432C383.429 660.868 495.603 667.074 588.684 646.548C653.602 632.227 767.208 527.21 824.966 494.75C991.08 402.145 1041.68 576.855 1086.55 612.656C1233.57 730.562 1330.47 546.304 1379.16 612.656C1488.94 761.589 1190.13 874.244 1172.95 900.976C1122.35 979.261 1194.43 1170.68 1134.28 1241.8C1109.46 1271.4 1065.54 1283.33 1028.79 1270.92C989.648 1257.56 878.906 1170.68 839.764 1157.31C747.16 1126.28 691.789 1329.16 518.993 1303.38C468.872 1295.74 414.933 1222.71 496.081 988.331L495.603 987.854Z" fill="#424242" stroke="black" stroke-width="20" stroke-miterlimit="10"/>
<path d="M791.552 711.467C714.223 755.861 715.655 881.881 763.389 956.825C771.026 968.759 780.096 980.215 791.552 988.807C806.349 999.787 824.966 1005.04 843.104 1008.38C909.932 1020.31 983.919 1001.7 1030.22 952.052C1076.52 902.407 1088.46 820.78 1049.79 764.93C1025.92 730.561 986.783 709.08 946.209 699.533C905.636 689.986 855.992 674.711 791.552 711.467Z" fill="white" stroke="black" stroke-width="20" stroke-miterlimit="10"/>
<path d="M905.634 897.157C923.824 897.157 938.57 882.411 938.57 864.22C938.57 846.029 923.824 831.283 905.634 831.283C887.443 831.283 872.697 846.029 872.697 864.22C872.697 882.411 887.443 897.157 905.634 897.157Z" fill="black"/>
</svg>
