<svg width="1760" height="1760" viewBox="0 0 1760 1760" fill="none" xmlns="http://www.w3.org/2000/svg">
<rect width="1760" height="1760" fill="white"/>
<path d="M708.782 669.586L636.534 601.14C631.887 596.492 626.394 591.845 620.057 592.267C610.339 592.267 604.847 603.252 602.312 612.548C585.412 670.009 593.44 737.188 555.837 784.087C530.487 815.352 490.772 829.295 456.55 850.421C422.327 871.546 390.218 907.459 398.245 946.753C410.92 1006.75 495.842 1010.97 541.895 1051.54C617.522 1117.87 567.667 1258.14 637.379 1330.81C650.899 1344.76 669.489 1355.32 688.924 1354.05C729.061 1351.52 748.497 1305.89 770.889 1272.51C795.394 1235.75 832.574 1207.86 874.824 1194.34C890.456 1189.27 906.933 1186.74 922.988 1190.12C954.676 1196.88 975.378 1227.3 987.631 1257.3C999.883 1287.3 1005.8 1320.25 1023.54 1347.29C1055.23 1395.04 1120.3 1414.05 1175.64 1399.26C1230.99 1384.47 1275.35 1340.11 1298.59 1287.72C1330.7 1216.31 1326.05 1128.85 1285.91 1061.68C1265.21 1026.61 1235.64 997.031 1220.43 959.006C1204.37 919.29 1206.91 872.814 1226.34 834.788C1243.24 802.255 1270.7 777.327 1293.94 749.019C1339.57 693.247 1367.46 599.872 1363.65 527.623C1359.85 455.374 1322.67 405.095 1260.56 367.915C1240.28 355.662 1217.05 347.211 1193.81 349.324C1151.14 353.127 1119.87 389.885 1097.9 426.221C1075.93 462.557 1058.61 501.85 1046.36 542.411C1030.3 594.802 1021.01 653.531 980.448 690.289C958.056 710.57 928.903 721.978 898.906 726.203C828.771 736.343 752.722 710.147 709.204 669.164L708.782 669.586Z" fill="#8CFFD9" stroke="black" stroke-width="20" stroke-miterlimit="10"/>
<path d="M783.563 841.549C715.118 880.842 716.386 992.385 758.636 1058.72C765.396 1069.28 773.423 1079.42 783.563 1087.03C796.661 1096.74 813.138 1101.39 829.193 1104.35C888.343 1114.91 953.83 1098.43 994.812 1054.49C1035.79 1010.55 1046.36 938.304 1012.14 888.87C991.01 858.449 956.365 839.436 920.453 830.986C884.54 822.536 840.6 809.016 783.563 841.549Z" fill="white" stroke="black" stroke-width="20" stroke-miterlimit="10"/>
<path d="M884.538 1005.91C900.639 1005.91 913.691 992.854 913.691 976.753C913.691 960.652 900.639 947.6 884.538 947.6C868.438 947.6 855.386 960.652 855.386 976.753C855.386 992.854 868.438 1005.91 884.538 1005.91Z" fill="black"/>
</svg>
