<svg width="1760" height="1760" viewBox="0 0 1760 1760" fill="none" xmlns="http://www.w3.org/2000/svg">
<rect width="1760" height="1760" fill="white"/>
<path d="M570.192 543.846C558.116 522.503 534.998 576.056 533.963 601.669C532.928 627.281 538.793 652.506 537.068 678.118C530.167 769.702 425.619 821.703 418.373 913.287C411.817 999.05 493.593 1061.53 509.81 1145.74C517.746 1186.1 509.81 1228.01 512.915 1269.15C516.021 1310.28 537.413 1355.68 573.988 1360.34C598.831 1363.45 622.639 1346.37 637.821 1324.25C653.003 1302.13 661.974 1275.35 672.671 1250.13C688.543 1212.88 710.28 1176.4 742.714 1156.61C775.149 1136.81 819.659 1137.59 845.193 1167.47C892.809 1223.35 849.333 1334.34 902.125 1384.01C918.342 1399.15 940.425 1404.19 961.472 1403.8C1030.83 1402.64 1095.35 1341.33 1108.46 1264.88C1119.85 1198.52 1099.49 1116.63 1144 1071.23C1172.29 1042.51 1214.73 1042.9 1250.62 1027.77C1299.62 1007.2 1336.19 953.646 1341.37 895.048C1346.54 836.45 1319.63 775.911 1275.12 744.866C1237.85 718.865 1189.2 712.268 1159.53 675.79C1124.68 633.102 1127.44 563.25 1093.62 519.398C1081.55 503.876 1064.99 491.457 1058.43 472.054C1051.18 449.934 1059.12 425.486 1056.36 401.814C1051.87 360.679 1009.09 331.573 974.584 345.544C945.255 357.574 928.348 392.5 921.102 426.65C913.856 460.8 913.856 496.502 904.54 530.264C886.598 596.236 831.046 647.073 769.973 654.058C697.514 662.207 629.54 647.849 570.192 543.846Z" fill="#FFF570" stroke="black" stroke-width="20" stroke-miterlimit="10"/>
<path d="M763.416 948.99C755.134 905.527 776.527 859.347 808.616 832.958C816.552 826.749 824.833 820.928 834.495 818.6C852.437 813.943 871.414 820.152 886.941 831.018C914.545 850.421 933.177 884.571 936.628 920.662C936.628 924.542 936.973 928.811 934.557 931.527C932.832 933.468 930.762 933.856 928.347 934.632C885.906 946.662 843.121 955.588 799.99 961.797C786.533 963.737 766.521 964.901 763.416 948.99Z" fill="white" stroke="black" stroke-width="20" stroke-miterlimit="10"/>
<path d="M848.989 905.913C856.04 905.913 861.756 898.964 861.756 890.391C861.756 881.818 856.04 874.868 848.989 874.868C841.938 874.868 836.223 881.818 836.223 890.391C836.223 898.964 841.938 905.913 848.989 905.913Z" fill="black"/>
</svg>
