<svg width="1760" height="1760" viewBox="0 0 1760 1760" fill="none" xmlns="http://www.w3.org/2000/svg">
<g clip-path="url(#clip0_10_283)">
<path d="M1760 0H0V1760H1760V0Z" fill="white"/>
<path d="M377.263 422.641C333.707 443.163 395.272 552.474 438.828 584.723C482.384 616.972 546.042 629.955 585.41 666.392C671.684 745.967 635.248 879.989 531.803 935.273C503.743 950.35 438.828 958.308 410.768 973.385C348.366 1006.89 343.34 1079.35 350.46 1149.71C357.998 1221.32 426.264 1290.43 496.204 1272.42C551.905 1258.18 582.478 1200.38 613.889 1152.22C645.299 1104.06 699.744 1055.89 753.769 1075.58C787.693 1087.72 807.796 1123.32 816.172 1158.5C824.548 1193.68 824.966 1230.12 834.599 1264.88C849.676 1318.91 890.3 1367.07 943.907 1383.83C997.514 1400.58 1062.01 1381.73 1093 1334.82C1128.18 1280.8 1113.52 1208.76 1134.46 1147.61C1153.73 1091.49 1205.66 1047.93 1264.29 1038.3C1313.71 1030.34 1376.11 1039.14 1402.08 996.42C1411.71 980.505 1412.55 961.239 1412.97 942.811C1413.39 899.255 1409.62 854.86 1390.77 815.91C1371.93 776.96 1335.49 744.292 1291.94 740.104C1247.12 735.916 1192.26 758.532 1162.11 725.027C1153.31 714.975 1148.7 701.573 1145.77 688.59C1134.05 642.52 1140.75 586.817 1109.75 550.38C1082.95 519.388 1053.22 498.447 1001.28 492.584C944.326 485.883 914.591 565.877 860.146 583.886C806.958 601.476 751.676 560.85 719.009 515.199C686.342 469.548 659.12 419.709 617.239 382.435C546.042 318.774 456.836 385.366 377.263 422.641Z" fill="white" stroke="black" stroke-width="20" stroke-miterlimit="10"/>
<path d="M905.797 761.043C837.951 799.993 839.207 910.561 881.088 976.315C887.788 986.786 895.746 996.837 905.797 1004.38C918.78 1014.01 935.114 1018.62 951.028 1021.55C1009.66 1032.02 1074.58 1015.68 1115.2 972.127C1155.82 928.57 1166.29 856.953 1132.37 807.951C1111.43 777.796 1077.09 758.949 1041.49 750.573C1005.89 742.197 962.336 728.795 905.797 761.043Z" fill="white" stroke="black" stroke-width="20" stroke-miterlimit="10"/>
<path d="M1005.89 923.965C1021.85 923.965 1034.79 911.027 1034.79 895.067C1034.79 879.106 1021.85 866.168 1005.89 866.168C989.93 866.168 976.992 879.106 976.992 895.067C976.992 911.027 989.93 923.965 1005.89 923.965Z" fill="black"/>
</g>
<defs>
<clipPath id="clip0_10_283">
<rect width="1760" height="1760" fill="white"/>
</clipPath>
</defs>
</svg>
