<svg width="1760" height="1760" viewBox="0 0 1760 1760" fill="none" xmlns="http://www.w3.org/2000/svg">
<rect width="1760" height="1760" fill="white"/>
<path d="M530.307 910.788C476.684 988.024 452.673 1076.06 532.308 1126.09C571.926 1151.3 666.367 1206.53 699.982 1239.34C729.595 1268.55 728.395 1418.63 824.037 1403.42C902.872 1390.61 898.07 1354.6 911.275 1298.17C924.481 1241.74 924.881 1177.71 962.898 1133.69C1011.72 1077.27 1097.76 1080.47 1172.19 1076.06C1197 1074.86 1223.41 1071.26 1243.42 1056.46C1275.04 1032.44 1279.84 987.623 1282.24 948.005C1287.44 862.365 1292.64 777.125 1297.45 691.485C1303.85 582.234 1304.25 456.975 1223.41 383.341C1205.01 366.533 1183 353.727 1158.58 348.124C1116.57 338.52 1072.95 352.126 1030.93 361.731C880.062 396.147 723.193 387.743 569.125 372.936C531.108 369.334 500.694 361.731 489.489 432.964C483.887 468.581 487.088 541.015 537.11 568.628C580.73 593.039 657.964 537.013 707.986 612.248C742.001 663.472 776.416 779.927 737.599 826.348C690.378 882.775 598.738 813.142 530.708 911.188L530.307 910.788Z" fill="#3EC790" stroke="black" stroke-width="20" stroke-miterlimit="10"/>
<path d="M856.851 685.483C854.85 697.889 853.249 711.896 860.853 722.301C868.856 733.506 884.063 736.307 898.069 737.908C956.495 744.311 1015.72 745.111 1074.15 741.109C1086.95 740.309 1100.56 738.708 1111.76 732.305C1136.57 717.899 1142.18 685.484 1144.98 657.07C1149.38 612.649 1148.18 556.623 1107.36 537.414C1093.36 531.011 1076.95 530.611 1061.34 531.011C1016.92 531.812 972.502 535.813 928.482 542.617C915.276 544.618 901.671 547.419 891.666 555.823C881.662 564.227 862.053 651.067 856.851 685.083V685.483Z" fill="white" stroke="black" stroke-width="20" stroke-miterlimit="10"/>
<path d="M1010.92 661.871C1025.72 661.871 1037.73 650.763 1037.73 637.06C1037.73 623.357 1025.72 612.248 1010.92 612.248C996.109 612.248 984.104 623.357 984.104 637.06C984.104 650.763 996.109 661.871 1010.92 661.871Z" fill="black"/>
</svg>
