<svg width="1760" height="1760" viewBox="0 0 1760 1760" fill="none" xmlns="http://www.w3.org/2000/svg">
<rect width="1760" height="1760" fill="white"/>
<path d="M827.3 293.537C782.814 315.117 807.381 425.67 734.677 492.732C722.061 504.352 693.179 521.947 682.223 534.895C673.26 545.518 672.596 560.79 672.596 574.734C670.936 716.494 668.944 858.253 667.284 1000.01C666.62 1043.84 666.289 1088.32 676.248 1131.15C687.203 1176.63 709.446 1218.13 731.689 1259.3C751.276 1295.49 770.863 1332 790.45 1368.19C797.089 1380.14 804.061 1392.76 816.012 1399.4C843.899 1414.67 876.765 1387.45 890.708 1358.56C928.886 1279.22 911.291 1166.67 985.323 1119.2C1038.77 1084.67 1120.77 1102.6 1160.61 1053.13C1176.21 1033.88 1181.52 1007.98 1185.51 983.414C1205.1 865.889 1213.39 746.705 1210.41 627.852C1209.41 584.361 1201.44 532.571 1161.61 514.311C1106.83 489.412 1041.76 551.826 985.987 528.919C951.793 514.643 937.518 473.808 934.198 436.957C930.878 400.106 933.534 361.263 917.267 327.732C901 294.201 871.121 271.958 827.3 293.537Z" fill="#DAD4FF" stroke="black" stroke-width="20" stroke-miterlimit="10"/>
<path d="M890.042 666.696C825.97 723.798 837.257 866.886 870.455 955.528C875.767 969.803 882.075 983.083 890.042 993.043C900.334 1005.99 913.281 1012.3 925.896 1015.95C972.374 1029.89 1023.83 1007.98 1056.03 949.884C1088.24 891.785 1096.53 795.176 1069.64 729.774C1053.04 689.271 1025.82 664.04 997.604 653.084C969.386 642.129 930.876 630.841 890.042 666.696Z" fill="white" stroke="black" stroke-width="20" stroke-miterlimit="10"/>
<path d="M969.386 884.481C982.037 884.481 992.293 867.239 992.293 845.97C992.293 824.701 982.037 807.459 969.386 807.459C956.735 807.459 946.479 824.701 946.479 845.97C946.479 867.239 956.735 884.481 969.386 884.481Z" fill="black"/>
</svg>
