<svg width="1760" height="1760" viewBox="0 0 1760 1760" fill="none" xmlns="http://www.w3.org/2000/svg">
<rect width="1760" height="1760" fill="white"/>
<path d="M764.112 510.064C731.971 434.773 659.323 380.616 577.87 372.25C469.559 360.802 427.292 419.803 429.053 501.698C430.374 556.736 451.508 610.892 473.962 661.087C530.319 785.251 515.349 929.229 491.573 1063.52C482.327 1115.48 472.201 1168.31 481.887 1220.27C491.573 1272.22 527.677 1322.42 579.191 1332.54C675.174 1351.04 757.948 1228.19 853.05 1250.65C922.175 1266.94 952.995 1351.48 1016.4 1383.62C1072.31 1412.24 1143.64 1392.42 1189.87 1349.72C1259 1285.87 1277.05 1185.04 1289.37 1091.7C1305.23 972.379 1317.55 852.617 1326.36 732.415C1332.52 647.878 1337.37 562.019 1318.87 479.243C1305.23 417.161 1258.55 369.608 1195.15 363.004C1137.48 356.84 1082.44 378.855 1066.15 434.773C1023.44 582.273 1021.24 622.34 954.316 643.034C830.155 681.341 789.648 571.706 763.671 510.504L764.112 510.064Z" fill="#99E6FF" stroke="black" stroke-width="20" stroke-miterlimit="10"/>
<path d="M1015.96 1112.83C1014.63 1128.68 1013.75 1146.3 1018.16 1159.06C1023 1173.15 1032.25 1176.68 1040.61 1178.44C1076.27 1186.36 1111.94 1187.68 1147.6 1182.4C1155.53 1181.08 1163.45 1179.32 1170.5 1171.39C1185.47 1153.34 1188.99 1112.39 1190.75 1076.73C1193.39 1020.81 1192.51 950.362 1167.85 926.586C1159.05 918.22 1149.36 918.22 1139.68 918.66C1112.82 919.981 1085.52 924.824 1059.1 933.63C1051.18 936.272 1042.81 939.354 1036.65 950.362C1030.48 961.369 1018.6 1070.12 1015.51 1112.83H1015.96Z" fill="white" stroke="black" stroke-width="20" stroke-miterlimit="10"/>
<path d="M1109.3 1083.77C1118.29 1083.77 1125.59 1069.78 1125.59 1052.51C1125.59 1035.25 1118.29 1021.25 1109.3 1021.25C1100.3 1021.25 1093.01 1035.25 1093.01 1052.51C1093.01 1069.78 1100.3 1083.77 1109.3 1083.77Z" fill="black"/>
</svg>
