<svg width="1760" height="1760" viewBox="0 0 1760 1760" fill="none" xmlns="http://www.w3.org/2000/svg">
<rect width="1760" height="1760" fill="white"/>
<path d="M429.469 1003.5C383.748 1031.51 363.564 1091.24 356.973 1144.79C350.383 1198.34 377.569 1258.89 429.057 1273.72C517.204 1299.26 583.934 1186.39 673.317 1165.39C756.521 1145.61 833.958 1208.64 901.511 1261.77C969.063 1314.91 1064.21 1362.28 1135.06 1314.5C1168.84 1291.84 1187.37 1252.71 1203.85 1215.64C1249.57 1114.31 1294.88 1013.39 1340.6 912.058C1355.02 879.928 1369.85 847.387 1378.91 813.61C1388.79 778.185 1392.5 741.113 1391.68 704.041C1390.03 645.137 1372.73 582.114 1325.77 546.689C1297.76 525.682 1262.75 517.443 1228.97 509.205C1133 486.138 1036.62 463.482 940.642 440.415C889.566 428.058 833.958 416.524 785.766 437.944C743.751 456.892 715.743 498.907 700.503 542.57C670.845 625.777 513.498 617.127 546.038 796.31C564.162 895.993 542.331 934.713 429.469 1004.33V1003.5Z" fill="#DAD4FF" stroke="black" stroke-width="20" stroke-miterlimit="10"/>
<path d="M691.847 821.024C681.961 774.89 707.499 725.872 745.806 697.862C755.28 691.271 765.166 685.092 776.699 682.621C798.118 677.678 820.774 684.269 839.309 695.802C872.262 716.398 894.505 752.646 898.624 790.955C898.624 795.074 899.036 799.605 896.152 802.488C894.093 804.548 891.621 804.96 888.737 805.783C838.073 818.553 786.997 828.027 735.509 834.618C719.445 836.677 691.847 844.412 691.847 821.024Z" fill="white" stroke="black" stroke-width="20" stroke-miterlimit="10"/>
<path d="M794.002 774.891C802.419 774.891 809.242 767.514 809.242 758.414C809.242 749.314 802.419 741.938 794.002 741.938C785.585 741.938 778.762 749.314 778.762 758.414C778.762 767.514 785.585 774.891 794.002 774.891Z" fill="black"/>
</svg>
