<svg width="1760" height="1760" viewBox="0 0 1760 1760" fill="none" xmlns="http://www.w3.org/2000/svg">
<g clip-path="url(#clip0_10_277)">
<path d="M1760 0H0V1760H1760V0Z" fill="white"/>
<path d="M890 412.756C852.815 434.193 775.075 466.426 733.953 454.614C674.456 437.114 634.646 418.74 602.273 447.176C531.839 509.3 531.839 508.424 534.027 567.048C536.214 625.671 558.525 681.669 566.837 739.855C590.899 906.537 497.278 1079.34 544.526 1241.21C554.588 1276.21 571.649 1309.9 597.898 1334.84C621.521 1357.59 651.707 1372.46 682.768 1383.4C840.259 1437.65 1023.56 1378.15 1139.93 1258.71C1256.3 1139.28 1310.55 969.098 1314.48 802.415C1316.67 716.668 1299.61 619.984 1228.74 571.86C1195.93 549.986 1155.24 540.799 1125.93 514.549C1099.24 490.488 1086.12 455.051 1061.62 428.802C1008.25 370.616 924.255 392.491 877.882 419.177L890 412.756Z" fill="#FFC466" stroke="black" stroke-width="20" stroke-miterlimit="10"/>
<path d="M827.576 813.355C746.206 881.603 760.643 1053.1 802.64 1158.97C809.202 1176.03 817.514 1192.22 827.576 1204.03C840.7 1219.34 856.887 1227.22 873.074 1231.59C932.133 1248.22 997.317 1222.4 1038.44 1152.41C1079.56 1082.41 1090.06 967.35 1055.94 888.602C1034.94 840.041 1000.38 809.855 964.069 796.73C927.758 783.606 879.198 770.043 827.576 813.355Z" fill="white" stroke="black" stroke-width="20" stroke-miterlimit="10"/>
<path d="M928.63 1074.53C944.576 1074.53 957.503 1053.77 957.503 1028.16C957.503 1002.55 944.576 981.787 928.63 981.787C912.683 981.787 899.757 1002.55 899.757 1028.16C899.757 1053.77 912.683 1074.53 928.63 1074.53Z" fill="black"/>
</g>
<defs>
<clipPath id="clip0_10_277">
<rect width="1760" height="1760" fill="white"/>
</clipPath>
</defs>
</svg>
