<svg width="1760" height="1760" viewBox="0 0 1760 1760" fill="none" xmlns="http://www.w3.org/2000/svg">
<g clip-path="url(#clip0_10_289)">
<path d="M1760 0H0V1760H1760V0Z" fill="white"/>
<path d="M754.881 429.054C740.157 403.086 709.638 383.275 680.458 390.503C648.869 398.535 631.735 434.409 632.003 467.07C632.271 499.731 645.389 530.518 653.42 562.108C671.624 632.249 665.734 706.406 650.743 777.351C639.767 828.752 624.24 882.027 636.822 933.16C649.404 984.294 704.819 1029.27 753.274 1008.66C785.132 995.27 801.462 960.199 810.029 926.735C818.595 893.271 822.878 857.665 842.153 829.019C861.428 800.374 902.655 782.437 930.764 802.516C946.291 813.492 953.519 832.232 959.141 850.169C994.211 959.128 1002.51 1087.36 935.315 1179.99C915.773 1206.76 890.073 1231.13 883.113 1263.25C872.404 1313.31 917.379 1364.18 968.243 1369.53C1019.11 1374.89 1068.9 1343.03 1095.67 1299.66C1122.44 1256.29 1129.67 1203.02 1128.06 1151.88C1126.46 1100.75 1117.36 1050.15 1114.14 999.018C1112 965.286 1112.81 929.68 1128.87 899.963C1144.39 870.783 1181.07 834.374 1196.6 805.193C1225.78 750.044 1228.99 711.76 1198.74 659.021C1166.61 603.336 1106.11 621.541 1088.44 607.352C1037.31 566.392 1021.52 576.029 962.086 551.4C956.732 549.258 951.378 546.849 945.756 546.581C918.717 545.242 909.08 582.99 886.593 597.982C865.712 611.903 814.847 605.746 797.178 588.077C755.951 546.849 769.604 455.023 754.881 429.054Z" fill="#63B6FF" stroke="black" stroke-width="20" stroke-miterlimit="10"/>
<path d="M971.187 1206.23C946.826 1222.56 947.361 1269.68 962.352 1297.52C964.762 1302.07 967.707 1306.35 971.187 1309.3C976.006 1313.31 981.628 1315.46 987.249 1316.53C1008.13 1320.81 1031.42 1314.12 1046.14 1295.64C1060.87 1277.17 1064.35 1246.65 1052.3 1226.04C1044.81 1213.19 1032.49 1205.16 1019.64 1201.68C1006.79 1198.2 991.533 1192.58 971.187 1206.23Z" fill="white" stroke="black" stroke-width="20" stroke-miterlimit="10"/>
<path d="M1007.06 1275.3C1012.83 1275.3 1017.5 1269.79 1017.5 1262.98C1017.5 1256.18 1012.83 1250.67 1007.06 1250.67C1001.29 1250.67 996.618 1256.18 996.618 1262.98C996.618 1269.79 1001.29 1275.3 1007.06 1275.3Z" fill="black"/>
</g>
<defs>
<clipPath id="clip0_10_289">
<rect width="1760" height="1760" fill="white"/>
</clipPath>
</defs>
</svg>
