<svg width="1760" height="1760" viewBox="0 0 1760 1760" fill="none" xmlns="http://www.w3.org/2000/svg">
<rect width="1760" height="1760" fill="white"/>
<path d="M560.523 504.162C537.476 497.988 513.604 509.512 492.614 520.625C462.981 536.265 433.348 551.905 404.127 567.545C388.487 575.776 371.613 584.831 362.147 600.059C352.681 615.288 353.504 638.748 369.143 647.803C376.963 652.742 386.841 652.742 396.307 653.565C470.39 659.739 536.241 721.887 546.942 795.148C555.173 852.77 533.36 910.391 504.55 960.603C475.74 1010.82 439.934 1057.32 416.474 1110.42C393.015 1163.51 383.137 1226.9 408.654 1278.75C434.172 1330.61 503.315 1363.13 553.527 1333.91C572.871 1322.79 587.275 1304.27 599.622 1285.34C626.374 1242.95 645.307 1194.79 680.701 1159.4C716.096 1124 777.42 1106.3 815.696 1138.82C858.499 1174.62 869.611 1218.25 883.605 1272.58C898.421 1327.73 920.234 1370.13 977.031 1375.89C1033.83 1381.65 1097.21 1373.83 1117.79 1320.32C1135.07 1275.05 1125.2 1224.43 1121.08 1176.27C1116.96 1128.12 1121.9 1072.55 1158.94 1041.68C1188.58 1016.99 1230.15 1014.52 1268.42 1007.94C1306.7 1001.35 1349.09 985.298 1361.85 948.668C1370.49 924.384 1439.63 726.826 1379.96 702.954C1137.13 606.645 1190.64 417.318 1148.66 393.858C1134.66 386.038 1068.4 449.421 1034.24 426.373C892.659 331.298 854.383 464.238 842.036 523.094C832.57 569.191 832.982 619.815 805.407 658.092C773.716 701.72 722.681 737.116 670.412 723.122C555.996 692.254 583.571 509.924 560.523 503.75V504.162Z" fill="#FCFFA6" stroke="black" stroke-width="20" stroke-miterlimit="10"/>
<path d="M949.865 625.166C883.191 663.443 884.426 772.1 925.583 836.718C932.168 847.007 939.988 856.886 949.865 864.294C962.624 873.76 978.675 878.288 994.315 881.169C1051.93 891.458 1115.73 875.406 1155.65 832.602C1195.57 789.798 1205.86 719.418 1172.52 671.263C1151.95 641.629 1118.2 623.108 1083.21 614.876C1048.23 606.645 1005.43 593.474 949.865 625.166Z" fill="white" stroke="black" stroke-width="20" stroke-miterlimit="10"/>
<path d="M1048.23 785.271C1063.91 785.271 1076.63 772.557 1076.63 756.872C1076.63 741.188 1063.91 728.473 1048.23 728.473C1032.54 728.473 1019.83 741.188 1019.83 756.872C1019.83 772.557 1032.54 785.271 1048.23 785.271Z" fill="black"/>
</svg>
