<svg width="1760" height="1760" viewBox="0 0 1760 1760" fill="none" xmlns="http://www.w3.org/2000/svg">
<rect width="1760" height="1760" fill="white"/>
<path d="M500.41 936.923C442.426 947.211 398.471 1000.52 385.377 1058.04C374.155 1106.67 372.752 1155.77 402.679 1195.99C432.606 1236.2 506.021 1245.56 554.653 1234.8C634.615 1217.5 683.247 1137.53 761.806 1159.51C838.027 1181.02 843.638 1292.79 907.234 1340.48C941.837 1366.2 991.871 1368.07 1030.22 1347.97C1068.56 1327.86 1094.28 1287.17 1100.36 1244.62C1109.24 1182.89 1083.52 1110.41 1125.14 1064.12C1151.33 1034.66 1194.82 1029.51 1233.16 1021.1C1284.13 1009.87 1334.63 988.83 1368.77 949.549C1402.9 910.268 1416.46 849.945 1390.28 804.585C1371.57 772.319 1336.97 753.146 1307.51 729.765C1278.05 706.384 1250.93 672.247 1257.48 635.305C1262.62 606.779 1286.47 585.736 1300.03 560.485C1332.76 498.758 1300.03 419.261 1246.25 373.902C1238.3 367.355 1229.89 360.808 1220.07 358.003C1195.75 350.521 1169.56 365.017 1153.67 384.657C1137.77 404.298 1129.82 429.082 1118.59 451.996C1076.04 539.441 986.26 601.635 889.464 610.988C823.531 617.535 741.698 607.715 706.627 663.83C688.858 691.887 690.729 727.427 683.247 759.225C661.737 849.01 578.034 923.362 500.41 936.923Z" fill="#B7ABFF" stroke="black" stroke-width="20" stroke-miterlimit="10"/>
<path d="M1053.6 762.966C1001.69 788.685 1002.63 862.102 1034.42 905.592C1039.57 912.606 1045.65 919.153 1053.6 924.297C1063.42 930.843 1076.04 933.649 1088.2 935.52C1133.09 942.534 1182.66 931.779 1213.52 902.786C1244.38 873.793 1252.33 826.563 1226.61 793.829C1210.71 773.721 1184.53 761.095 1156.94 755.952C1129.35 750.808 1096.62 741.455 1053.6 762.966Z" fill="white" stroke="black" stroke-width="20" stroke-miterlimit="10"/>
<path d="M1130.28 870.989C1142.42 870.989 1152.26 862.405 1152.26 851.817C1152.26 841.228 1142.42 832.644 1130.28 832.644C1118.15 832.644 1108.31 841.228 1108.31 851.817C1108.31 862.405 1118.15 870.989 1130.28 870.989Z" fill="black"/>
</svg>
