<svg width="1760" height="1760" viewBox="0 0 1760 1760" fill="none" xmlns="http://www.w3.org/2000/svg">
<rect width="1760" height="1760" fill="white"/>
<path d="M572.996 544.143C521.937 552.113 489.082 603.913 481.978 650.135C479.758 665.277 480.202 681.614 489.082 695.162C497.518 708.312 512.613 717.078 526.377 726.243C552.128 743.377 575.66 763.699 595.195 786.411C610.291 804.342 624.054 824.265 626.718 846.978C633.378 900.771 579.212 944.602 524.601 967.713C469.991 990.824 392.293 991.621 353.222 1032.26C308.379 1078.49 323.03 1168.54 367.429 1215.56C411.828 1262.58 494.854 1274.93 553.46 1243.45C608.959 1213.57 635.598 1154.99 673.781 1107.97C711.964 1060.95 784.334 1022.3 839.388 1052.99C913.534 1094.43 874.907 1211.18 939.73 1263.77C983.24 1299.24 1058.27 1285.69 1096.46 1245.84C1134.64 1206 1142.19 1148.22 1134.2 1096.02C1126.2 1046.21 1107.11 990.824 1139.97 949.782C1183.48 895.192 1298.92 890.012 1362.85 855.346C1452.98 806.733 1436.55 715.086 1428.12 662.09C1419.68 609.093 1314.9 442.535 1274.5 481.983C1214.56 540.956 1155.51 536.174 1008.99 512.266C933.514 499.914 865.14 559.285 763.911 575.224C647.142 593.952 593.419 540.557 573.884 543.745L572.996 544.143Z" fill="#424242" stroke="black" stroke-width="20" stroke-miterlimit="10"/>
<path d="M806.533 678.028C734.607 715.086 735.939 820.281 780.338 882.84C787.442 892.802 795.877 902.365 806.533 909.537C820.296 918.702 837.612 923.085 854.484 925.875C916.642 935.836 985.46 920.296 1028.53 878.855C1071.59 837.415 1082.69 769.277 1046.73 722.656C1024.53 693.967 988.124 676.036 950.385 668.067C912.646 660.097 866.471 647.346 806.533 678.028Z" fill="white" stroke="black" stroke-width="20" stroke-miterlimit="10"/>
<path d="M912.644 833.033C929.563 833.033 943.279 820.724 943.279 805.539C943.279 790.354 929.563 778.045 912.644 778.045C895.725 778.045 882.009 790.354 882.009 805.539C882.009 820.724 895.725 833.033 912.644 833.033Z" fill="black"/>
</svg>
