<svg width="1760" height="1760" viewBox="0 0 1760 1760" fill="none" xmlns="http://www.w3.org/2000/svg">
<rect width="1760" height="1760" fill="white"/>
<path d="M1094.36 390.622C1023.1 383.497 975.003 439.612 905.083 453.864C835.163 468.116 733.177 458.763 662.811 444.957C630.301 438.722 635.645 568.768 615.158 628.892C601.798 668.084 562.607 692.579 524.307 707.276C486.007 721.973 444.144 731.326 410.297 754.93C327.461 812.382 318.109 932.63 340.377 1030.61C351.511 1079.6 368.434 1127.7 395.6 1170.01C477.1 1296.49 635.199 1350.83 784.837 1365.52C872.126 1373.99 962.533 1371.76 1044.03 1339.69C1125.53 1307.63 1196.79 1240.82 1217.72 1155.31C1241.77 1056.89 1196.34 951.335 1222.17 853.355C1237.32 796.349 1274.72 748.249 1301.45 695.696C1328.17 643.143 1382.95 522.004 1353.55 470.788C1333.07 434.713 1207.48 467.225 1170.96 447.629C1129.09 424.915 1113.95 392.404 1094.36 390.622Z" fill="#E6E1E1" stroke="black" stroke-width="20" stroke-miterlimit="10"/>
<path d="M754.113 886.313C748.323 867.162 742.533 847.121 749.213 827.971C755.893 808.82 778.606 791.005 807.108 791.005C852.089 791.005 872.576 829.307 908.204 848.457C947.395 869.835 1003.06 866.272 1049.83 877.851C1060.07 880.523 1070.31 884.086 1076.1 890.767C1087.23 903.237 1075.21 919.716 1060.07 929.959C1044.93 940.202 1025.78 948.664 1017.31 962.025C1004.84 981.621 1020.43 1003.89 1029.34 1024.82C1038.25 1045.75 1034.68 1074.26 1004.4 1080.49C966.991 1088.06 936.261 1051.54 897.07 1053.32C868.122 1054.66 851.644 1076.04 837.838 1093.85C824.032 1111.67 798.201 1130.82 771.035 1124.14C742.978 1117.01 741.197 1089.84 750.549 1069.8C759.902 1049.76 774.599 1028.38 760.793 1009.68C743.869 986.52 690.426 981.621 681.965 956.235C676.62 940.647 692.209 925.505 709.578 915.707C726.946 905.909 747.878 897.893 754.113 886.759V886.313Z" fill="white" stroke="black" stroke-width="20" stroke-miterlimit="10"/>
<path d="M880.594 986.965C901.009 986.965 917.557 974.004 917.557 958.017C917.557 942.029 901.009 929.068 880.594 929.068C860.179 929.068 843.629 942.029 843.629 958.017C843.629 974.004 860.179 986.965 880.594 986.965Z" fill="black"/>
</svg>
