<svg width="1760" height="1760" viewBox="0 0 1760 1760" fill="none" xmlns="http://www.w3.org/2000/svg">
<rect width="1760" height="1760" fill="white"/>
<path d="M650 710.725C609.123 738.756 607.525 795.207 597.403 843.482C580.273 927.186 539.396 1003.88 515.648 1086.03C491.9 1168.17 459.977 1267.06 512.144 1334.8C528.885 1356.22 580.663 1371.01 607.136 1377.24C670.593 1391.64 728.599 1335.19 758.576 1277.57C814.637 1169.73 823.981 1042.81 880.041 935.361C896.392 904.605 917.414 874.628 947.391 857.109C987.49 833.749 1037.32 835.696 1083.65 834.917C1160.73 833.749 1242.1 821.68 1300.88 771.848C1359.67 722.015 1383.03 624.685 1331.64 567.066C1292.32 522.683 1217.18 507.111 1202.78 449.881C1198.88 434.308 1200.05 416.789 1191.49 402.773C1176.69 378.246 1141.66 378.246 1113.63 384.475C1041.99 400.437 975.032 438.201 924.422 491.538C884.323 533.584 854.736 584.196 817.362 628.578C779.989 672.961 740.251 711.893 662 710.725H650Z" fill="#DEB0FF" stroke="black" stroke-width="20" stroke-miterlimit="10"/>
<path d="M686.944 922.125C635.166 955.217 606.747 1070.07 604.801 1145.59C604.801 1157.66 604.801 1169.34 607.137 1178.69C610.251 1190.75 616.09 1198.15 622.709 1203.21C646.846 1222.68 682.663 1214.89 715.754 1175.18C748.845 1135.47 777.654 1061.11 777.654 1004.27C777.654 969.232 767.921 944.316 753.905 930.69C739.89 917.064 719.646 900.712 686.944 921.735V922.125Z" fill="white" stroke="black" stroke-width="20" stroke-miterlimit="10"/>
<path d="M702.772 1081.54C708.003 1064.7 706.252 1049.19 698.86 1046.89C691.468 1044.6 681.235 1056.38 676.004 1073.22C670.773 1090.06 672.524 1105.57 679.916 1107.87C687.308 1110.16 697.541 1098.38 702.772 1081.54Z" fill="black"/>
</svg>
