<svg width="1760" height="1760" viewBox="0 0 1760 1760" fill="none" xmlns="http://www.w3.org/2000/svg">
<rect width="1760" height="1760" fill="white"/>
<path d="M814.365 522.956C791.723 533.457 783.192 561.35 782.535 586.289C781.879 611.228 786.474 636.823 779.911 660.778C767.442 706.39 718.549 732.642 671.953 741.502C625.358 750.362 525.932 753.971 480.649 768.082C389.099 796.958 382.536 882.605 351.363 973.501C336.925 1015.83 326.096 1062.76 341.518 1104.76C366.457 1173.67 458.008 1202.22 525.604 1173.67C567.278 1155.95 600.419 1122.15 641.108 1102.79C688.032 1080.48 744.471 1078.84 792.708 1098.52C834.709 1115.59 869.164 1147.42 907.884 1171.7C946.605 1195.98 994.841 1212.39 1037.17 1195.33C1068.67 1182.53 1090 1153.98 1115.92 1132C1143.82 1108.37 1177.61 1092.29 1213.38 1085.4C1241.27 1080.15 1271.46 1080.15 1295.74 1065.38C1326.92 1046.68 1340.7 1008.61 1347.59 972.845C1370.56 856.681 1345.95 731.657 1280.32 632.885C1268.84 615.494 1255.71 598.43 1237.66 588.257C1219.62 578.085 1182.54 559.38 1165.47 571.194C1152.68 580.054 1145.78 745.44 1072.28 766.769C1031.92 778.254 992.872 752.987 970.23 717.547C935.12 662.419 1000.75 575.132 953.823 529.847C940.698 517.05 921.667 512.456 903.291 510.487C872.118 506.877 840.616 510.487 814.365 522.956Z" fill="#FFD58C" stroke="black" stroke-width="20" stroke-miterlimit="10"/>
<path d="M468.18 961.032C466.539 971.204 465.227 982.689 471.461 991.221C478.024 1000.41 490.493 1002.71 501.978 1004.02C549.886 1009.27 598.45 1009.93 646.358 1006.64C656.859 1005.99 668.016 1004.67 677.203 999.425C697.548 987.611 702.142 961.032 704.439 937.733C708.049 901.309 707.064 855.368 673.594 839.617C662.11 834.367 648.655 834.039 635.858 834.367C599.434 835.023 563.012 838.305 526.917 843.883C516.088 845.524 504.931 847.821 496.728 854.712C488.524 861.603 472.446 932.811 468.18 960.703V961.032Z" fill="white" stroke="black" stroke-width="20" stroke-miterlimit="10"/>
<path d="M661.125 876.043C673.267 876.043 683.11 866.934 683.11 855.698C683.11 844.461 673.267 835.353 661.125 835.353C648.983 835.353 639.14 844.461 639.14 855.698C639.14 866.934 648.983 876.043 661.125 876.043Z" fill="black"/>
</svg>
