<svg width="1760" height="1760" viewBox="0 0 1760 1760" fill="none" xmlns="http://www.w3.org/2000/svg">
<rect width="1760" height="1760" fill="white"/>
<path d="M635.418 393.729C605.263 441.979 560.261 480.023 508.764 504.612C474.433 520.387 433.143 534.305 420.617 570.029C407.163 607.144 434.07 645.652 454.947 679.056C519.434 781.124 543.559 907.781 520.362 1026.55C506.908 1095.22 478.609 1161.56 477.217 1231.62C475.825 1287.75 494.382 1346.21 536.136 1384.25C577.89 1422.3 644.697 1433.43 691.554 1402.81C728.668 1378.69 747.69 1334.61 754.649 1291C761.608 1247.39 757.897 1202.85 760.216 1159.24C761.608 1131.87 765.783 1104.03 781.093 1081.3C796.402 1058.56 825.167 1043.25 851.147 1051.14C874.808 1058.56 889.654 1081.76 896.613 1105.42C903.572 1129.08 904.963 1154.14 912.849 1177.8C931.407 1233.93 986.616 1273.37 1045.54 1282.18C1104.45 1291 1164.3 1271.51 1213.48 1238.11C1280.29 1193.11 1329.46 1120.73 1340.6 1041.4C1351.73 962.063 1323.9 876.233 1263.12 823.343C1216.26 782.516 1150.38 758.854 1124.4 702.253C1101.67 652.611 1117.91 594.618 1121.16 539.872C1122.08 526.882 1121.62 513.427 1115.59 501.829C1099.35 470.28 1051.57 473.528 1020.48 490.694C989.399 507.86 960.635 534.769 924.912 536.624C882.694 538.48 847.436 504.148 824.239 468.888C801.043 433.629 782.485 392.801 747.226 369.14C711.967 345.479 660.007 353.83 635.418 393.729Z" fill="#FF82C1" stroke="black" stroke-width="20" stroke-miterlimit="10"/>
<path d="M1219.97 989.901C1231.11 1041.86 1202.81 1096.61 1159.66 1128.16C1148.99 1135.58 1137.86 1142.54 1124.87 1145.32C1100.74 1150.89 1075.23 1143.47 1054.35 1130.48C1017.24 1107.28 992.183 1066.45 987.543 1023.31C987.543 1018.67 987.079 1013.56 990.327 1010.31C992.647 1007.99 995.43 1007.53 998.677 1006.6C1055.74 992.221 1113.27 981.55 1171.26 974.127C1189.35 971.807 1215.8 970.879 1219.97 989.901Z" fill="white" stroke="black" stroke-width="20" stroke-miterlimit="10"/>
<path d="M1104.92 1078.51C1114.4 1078.51 1122.08 1070.21 1122.08 1059.96C1122.08 1049.71 1114.4 1041.4 1104.92 1041.4C1095.44 1041.4 1087.75 1049.71 1087.75 1059.96C1087.75 1070.21 1095.44 1078.51 1104.92 1078.51Z" fill="black"/>
</svg>
