<svg width="1760" height="1760" viewBox="0 0 1760 1760" fill="none" xmlns="http://www.w3.org/2000/svg">
<rect width="1760" height="1760" fill="white"/>
<path d="M478.247 603.4C446.828 580.508 423.039 586.343 404.636 620.457C386.234 654.57 393.414 697.661 413.163 730.876C432.913 764.092 464.333 788.331 495.753 811.222C527.172 834.114 559.489 856.109 583.727 885.734C615.146 924.336 631.304 974.608 628.162 1023.98C625.02 1075.15 602.13 1122.73 586.42 1171.66C570.71 1220.58 562.631 1276.24 586.869 1321.13C618.289 1379.48 692.348 1399.23 758.778 1403.27C803.663 1405.96 849.894 1403.72 891.637 1387.56C933.38 1371.4 970.634 1338.63 984.1 1295.54C996.667 1255.15 986.793 1211.61 981.856 1169.86C976.919 1128.12 977.817 1080.99 1006.09 1049.12C1045.14 1006.03 1112.92 1013.21 1170.82 1009.62C1217.5 1006.48 1264.18 993.46 1301.44 965.631C1338.69 937.801 1365.62 893.813 1366.97 847.132C1368.76 763.194 1294.7 701.251 1241.74 636.167C1189.22 570.633 1172.17 487.594 1162.29 404.554C1157.36 362.362 1136.71 342.163 1116.06 335.43C1014.17 300.868 1053.67 537.866 951.782 581.854C910.039 599.809 866.502 578.712 819.822 531.582C783.465 495.224 804.56 368.645 716.137 368.645C641.628 368.645 668.11 454.378 597.641 563.002C583.278 584.997 510.564 628.087 477.798 604.298L478.247 603.4Z" fill="#DEB0FF" stroke="black" stroke-width="20" stroke-miterlimit="10"/>
<path d="M904.208 1141.59C914.981 1191.86 887.152 1245.27 845.409 1275.8C835.086 1282.98 824.313 1289.71 811.745 1292.4C788.405 1297.79 763.719 1290.61 743.521 1278.04C707.613 1255.6 683.375 1216.1 678.886 1174.35C678.886 1169.86 678.437 1164.93 681.579 1161.78C683.824 1159.54 686.516 1159.09 689.658 1158.19C744.867 1144.28 800.524 1133.96 856.63 1126.77C874.136 1124.53 900.169 1123.18 904.208 1141.59Z" fill="white" stroke="black" stroke-width="20" stroke-miterlimit="10"/>
<path d="M792.895 1227.77C802.067 1227.77 809.502 1219.73 809.502 1209.81C809.502 1199.9 802.067 1191.86 792.895 1191.86C783.723 1191.86 776.288 1199.9 776.288 1209.81C776.288 1219.73 783.723 1227.77 792.895 1227.77Z" fill="black"/>
</svg>
