<svg width="1760" height="1760" viewBox="0 0 1760 1760" fill="none" xmlns="http://www.w3.org/2000/svg">
<rect width="1760" height="1760" fill="white"/>
<path d="M506.47 644.517C477.815 706.239 401.105 734.896 374.654 797.499C360.987 830.124 363.632 868.92 381.707 899.34C402.869 935.051 440.783 955.772 473.406 981.342C502.503 1003.83 528.073 1030.72 549.234 1061.14C565.545 1084.51 579.653 1110.08 603.019 1126.39C647.545 1157.69 711.029 1143.14 755.996 1112.28C800.964 1081.42 834.91 1036.89 877.232 1002.06C897.512 985.751 920.437 971.202 946.006 965.912C971.576 960.621 1000.67 965.912 1018.75 984.869C1036.38 1002.94 1042.11 1029.4 1050.05 1053.2C1069.89 1112.28 1117.06 1167.39 1178.78 1174.44C1222.42 1179.29 1265.63 1159.89 1299.58 1132.12C1386.87 1061.14 1420.37 928.438 1369.23 827.919C1345.42 780.746 1306.63 743.713 1268.27 707.562C1250.2 690.368 1232.12 673.174 1214.05 656.421C1193.77 637.023 1173.05 617.624 1148.8 603.957C1124.55 590.29 1095.02 582.796 1068.12 589.409C1031.53 598.667 1005.52 630.41 975.985 654.217C943.802 679.787 905.007 696.981 864.448 703.153C841.523 706.68 816.835 706.68 795.674 697.422C770.104 685.959 701.33 585 588.911 585C549.234 585 520.578 613.216 506.03 644.517H506.47Z" fill="#99E6FF" stroke="black" stroke-width="20" stroke-miterlimit="10"/>
<path d="M1216.7 842.026C1216.7 877 1203.91 904.63 1173.49 926.232C1166 931.523 1158.06 935.932 1149.24 938.136C1132.49 942.104 1114.42 936.813 1099.87 927.996C1073.86 912.125 1056.22 883.468 1053.14 853.489C1053.14 850.403 1053.14 846.876 1054.9 844.671C1056.22 843.349 1058.43 842.467 1060.63 842.026C1100.75 831.886 1141.31 824.391 1182.31 819.542C1195.09 817.778 1213.61 817.337 1216.7 830.564V842.026Z" fill="white" stroke="black" stroke-width="20" stroke-miterlimit="10"/>
<path d="M1196.42 867.596C1207.37 867.596 1216.26 857.332 1216.26 844.671C1216.26 832.01 1207.37 821.746 1196.42 821.746C1185.46 821.746 1176.58 832.01 1176.58 844.671C1176.58 857.332 1185.46 867.596 1196.42 867.596Z" fill="black"/>
</svg>
