<svg width="1760" height="1760" viewBox="0 0 1760 1760" fill="none" xmlns="http://www.w3.org/2000/svg">
<rect width="1760" height="1760" fill="white"/>
<path d="M552.691 955.927C595.358 908.055 609.928 843.532 622.936 782.131C641.668 692.111 660.92 602.612 679.652 512.592C687.977 472.005 697.864 429.857 725.441 397.595C753.019 365.334 805.573 347.642 842.516 370.017C862.809 381.985 874.776 403.319 882.581 424.133C919.525 519.356 898.711 624.466 886.743 724.893C880.499 773.806 881.02 832.085 923.167 861.744C954.387 883.599 999.136 880.477 1035.56 867.468C1071.98 854.459 1104.76 832.605 1141.19 819.596C1193.74 800.864 1253.06 799.823 1306.13 817.515C1333.71 826.881 1361.29 843.012 1369.61 869.029C1375.34 887.762 1370.13 908.055 1360.77 925.227C1311.34 1013.69 1164.6 1025.13 1121.93 1117.23C1102.16 1160.42 1111.53 1209.86 1111.01 1256.69C1110.49 1303.52 1093.32 1358.15 1046.49 1374.81C1014.23 1385.73 977.282 1374.81 950.745 1355.03C924.208 1335.26 905.996 1306.64 888.825 1279.06C870.613 1249.92 848.239 1217.14 812.336 1212.98C783.197 1209.34 755.62 1226.51 737.408 1248.36C719.196 1270.22 708.27 1295.71 692.66 1319.13C656.237 1373.24 615.13 1407.59 530.836 1397.18C431.452 1384.69 341.956 1360.76 414.282 1225.47C476.202 1109.43 501.177 1013.17 552.17 955.927H552.691Z" fill="#FFD58C" stroke="black" stroke-width="20" stroke-miterlimit="10"/>
<path d="M698.384 930.428C650.513 955.925 649.993 1029.29 680.172 1073C684.855 1079.77 691.099 1086.53 698.384 1091.74C707.75 1097.98 719.718 1101.1 731.165 1103.18C773.832 1109.95 820.663 1099.54 850.322 1070.4C879.981 1041.26 887.265 994.43 862.809 961.649C847.72 941.876 822.744 929.387 796.727 923.663C770.711 917.94 739.49 908.573 698.384 930.428Z" fill="white" stroke="black" stroke-width="20" stroke-miterlimit="10"/>
<path d="M771.226 1038.14C782.721 1038.14 792.041 1029.52 792.041 1018.89C792.041 1008.25 782.721 999.633 771.226 999.633C759.731 999.633 750.413 1008.25 750.413 1018.89C750.413 1029.52 759.731 1038.14 771.226 1038.14Z" fill="black"/>
</svg>
