<svg width="1760" height="1760" viewBox="0 0 1760 1760" fill="none" xmlns="http://www.w3.org/2000/svg">
<g clip-path="url(#clip0_10_329)">
<path d="M1760 0H0V1760H1760V0Z" fill="white"/>
<path d="M673.226 576.679C653.987 560.188 640.246 535.911 616.427 527.208C593.067 518.505 567.415 528.124 544.513 537.285C523.442 545.988 500.081 556.524 492.752 578.053C485.423 599.582 496.875 622.485 509.243 641.266C533.978 677.912 564.667 709.976 586.196 748.454C607.724 786.931 620.55 833.654 605.435 874.88C593.525 906.487 567.416 929.848 546.345 956.416C502.83 1010.93 479.47 1081.47 482.218 1151.09C482.218 1161.17 483.591 1171.25 488.171 1180.41C505.119 1213.85 552.758 1207.89 590.318 1205.6C720.405 1197.82 829.881 1293.09 945.769 1352.19C976.916 1368.22 1009.44 1381.96 1044.25 1384.71C1079.06 1387.46 1116.16 1377.84 1139.98 1352.64C1181.67 1309.13 1172.05 1240.42 1172.05 1179.95C1172.96 1060.86 1223.81 949.087 1267.78 838.235C1311.75 727.383 1349.77 606.911 1323.21 491.02C1318.62 470.407 1311.75 450.253 1298.01 433.762C1282.44 414.981 1259.99 403.988 1237.55 394.827C1140.9 355.433 964.549 331.613 905.46 395.743C879.809 423.227 833.087 520.795 772.166 573.014C743.308 597.75 700.239 601.49 681 585L673.226 576.679Z" fill="#63B6FF" stroke="black" stroke-width="20" stroke-miterlimit="10"/>
<path d="M938.903 781.434C932.948 801.589 926.534 824.034 927.909 842.357C929.741 862.054 940.735 869.383 950.354 873.964C992.953 894.577 1037.84 906.486 1084.11 910.151C1094.18 911.067 1105.18 911.067 1116.17 902.364C1140.45 883.583 1156.94 831.364 1169.76 785.557C1189.92 714.099 1209.61 622.485 1185.79 584.466C1177.55 571.182 1165.18 567.975 1152.81 566.143C1118.46 559.73 1082.73 558.356 1046.54 562.02C1036.01 562.936 1024.56 564.769 1013.56 577.137C1002.57 589.504 955.392 726.924 938.444 781.434H938.903Z" fill="white" stroke="black" stroke-width="20" stroke-miterlimit="10"/>
<path d="M1094.74 734.143C1099.89 711.705 1094.87 691.406 1083.53 688.802C1072.19 686.198 1058.82 702.275 1053.67 724.713C1048.52 747.151 1053.54 767.451 1064.88 770.055C1076.22 772.659 1089.59 756.581 1094.74 734.143Z" fill="black"/>
</g>
<defs>
<clipPath id="clip0_10_329">
<rect width="1760" height="1760" fill="white"/>
</clipPath>
</defs>
</svg>
