<svg width="1760" height="1760" viewBox="0 0 1760 1760" fill="none" xmlns="http://www.w3.org/2000/svg">
<g clip-path="url(#clip0_10_323)">
<path d="M1760 0H0V1760H1760V0Z" fill="white"/>
<path d="M955.22 420.707C888.302 458.947 876.618 554.546 814.657 600.222C766.504 635.629 701.002 631.734 641.874 625.007C614.965 622.174 585.224 619.696 563.626 635.275C545.569 648.375 537.425 670.328 530.344 691.218C481.129 835.68 441.474 982.974 411.379 1132.39C404.298 1166.74 400.048 1207.81 426.249 1231.18C454.928 1256.67 501.665 1243.22 536.363 1259.86C585.578 1283.23 600.094 1360.42 654.266 1367.14C702.773 1373.16 733.931 1314.74 737.825 1265.88C741.72 1215.25 732.868 1164.26 733.93 1113.27C734.992 1062.29 747.739 1008.11 786.332 974.476C839.087 928.447 935.038 945.796 964.071 1009.53C1001.96 1092.74 925.478 1193.65 957.344 1279.33C979.296 1338.11 1051.88 1369.27 1112.42 1352.98C1172.97 1336.69 1218.29 1280.04 1230.33 1218.43C1242.37 1156.82 1225.37 1091.67 1193.15 1038.21C1172.61 1004.22 1145.35 972.352 1137.56 933.05C1129.77 893.748 1152.43 844.531 1192.09 843.469C1218.29 842.761 1240.24 861.881 1262.19 876.398C1284.14 890.915 1316.01 900.121 1334.78 881.709C1341.86 874.628 1345.75 865.068 1348.23 855.154C1360.62 809.124 1352.83 758.492 1326.99 718.128C1306.8 686.615 1276.71 662.538 1254.05 632.796C1231.39 603.054 1215.1 563.398 1228.91 528.345C1236.35 509.579 1251.57 489.397 1241.66 472.047C1231.03 453.635 1203.77 458.947 1182.88 457.176C1149.95 454.344 1123.75 429.559 1096.85 410.439C1069.94 391.319 1031.7 377.156 956.282 420.353L955.22 420.707Z" fill="white" stroke="black" stroke-width="20" stroke-miterlimit="10"/>
<path d="M1119.51 644.836C1084.46 664.664 1090.12 713.879 1108.53 744.683C1111.36 749.64 1114.9 754.243 1119.51 757.784C1125.17 762.387 1132.25 764.511 1139.33 765.928C1164.83 770.885 1193.15 763.096 1210.85 742.914C1228.56 722.732 1233.16 689.094 1218.29 666.433C1209.08 652.27 1194.21 643.418 1178.63 639.878C1163.06 636.337 1141.81 632.089 1119.51 644.836Z" fill="white" stroke="black" stroke-width="20" stroke-miterlimit="10"/>
<path d="M1163.06 719.899C1169.9 719.899 1175.45 713.876 1175.45 706.445C1175.45 699.014 1169.9 692.99 1163.06 692.99C1156.21 692.99 1150.67 699.014 1150.67 706.445C1150.67 713.876 1156.21 719.899 1163.06 719.899Z" fill="black"/>
</g>
<defs>
<clipPath id="clip0_10_323">
<rect width="1760" height="1760" fill="white"/>
</clipPath>
</defs>
</svg>
