<svg width="1760" height="1760" viewBox="0 0 1760 1760" fill="none" xmlns="http://www.w3.org/2000/svg">
<rect width="1760" height="1760" fill="white"/>
<path d="M905.941 376.265C878.798 343.694 845.323 353.646 815.014 383.051C784.705 412.456 762.539 453.623 723.183 469.004C698.302 478.956 668.447 477.146 646.281 492.98C626.377 507.456 617.782 533.694 616.877 558.122C615.52 587.527 623.21 616.932 620.495 646.789C617.781 676.647 601.496 708.313 572.544 714.194C529.117 723.242 496.999 670.766 454.024 660.813C414.668 651.766 374.407 682.98 362.193 721.432C349.979 759.885 360.835 802.409 378.93 838.147C397.025 873.885 422.81 905.552 443.619 940.385C483.88 1008.24 503.784 1087.41 500.618 1166.12C498.356 1222.22 485.236 1280.58 506.95 1332.15C536.354 1402.72 637.234 1433.03 697.399 1385.98C739.017 1353.41 754.397 1296.86 753.945 1244.39C753.493 1191.91 739.92 1139.89 735.849 1087.41C733.587 1058 734.492 1027.24 747.158 1000.55C759.825 973.861 786.967 952.147 816.824 953.956C843.966 955.313 867.036 975.671 878.798 1000.1C890.56 1024.53 893.274 1052.12 894.631 1078.81C895.988 1103.69 905.941 1373.77 1115.84 1259.77C1181.43 1224.48 1214.91 1147.58 1202.24 1074.29C1189.58 1001 1147.96 936.314 1119.01 868.004C1099.1 820.956 1085.08 768.932 1095.48 719.17C1105.89 669.409 1147.05 622.813 1197.72 620.551C1243.41 618.289 1294.53 649.051 1331.17 621.456C1356.95 602.456 1404 489.361 1404 457.241C1404 446.384 1016.32 509.718 905.036 375.813L905.941 376.265Z" fill="#2667FF" stroke="black" stroke-width="20" stroke-miterlimit="10"/>
<path d="M764.801 771.193C758.92 757.622 768.872 727.765 785.609 707.86C811.847 677.098 858.441 665.789 895.988 680.717C933.534 695.646 959.32 735.907 957.511 776.169C957.511 778.431 957.51 780.693 955.701 782.955C953.891 785.669 950.725 786.574 947.559 787.479C881.965 805.122 773.396 791.551 764.801 771.193Z" fill="#FAFCFF" stroke="black" stroke-width="20" stroke-miterlimit="10"/>
<path d="M881.064 779.788C888.559 779.788 894.635 773.712 894.635 766.217C894.635 758.722 888.559 752.646 881.064 752.646C873.569 752.646 867.492 758.722 867.492 766.217C867.492 773.712 873.569 779.788 881.064 779.788Z" fill="black" stroke="black" stroke-width="20" stroke-miterlimit="10"/>
</svg>
