<svg width="1760" height="1760" viewBox="0 0 1760 1760" fill="none" xmlns="http://www.w3.org/2000/svg">
<rect width="1760" height="1760" fill="white"/>
<path d="M897.775 370.305C873.838 368.025 849.901 378.664 835.082 397.662C820.264 416.661 812.665 440.218 806.586 463.396C770.11 600.564 761.751 746.471 703.238 876.039C644.725 1005.61 615.849 908.336 525.799 941.773C484.764 956.972 465.386 1006.37 461.587 1050.06C457.787 1093.76 472.984 1137.08 491.602 1176.59C510.22 1216.11 532.638 1254.48 544.797 1296.66C551.256 1319.84 555.435 1344.92 571.393 1362.77C590.771 1384.05 621.927 1388.99 650.804 1389.75C663.722 1389.75 677.021 1389.75 688.799 1384.43C711.217 1374.55 724.135 1349.86 727.175 1325.54C730.215 1301.22 725.655 1276.52 723.375 1252.2C719.576 1214.59 720.336 1176.59 726.035 1139.36C729.455 1117.7 734.394 1095.66 747.313 1078.18C764.791 1054.24 796.707 1041.7 825.964 1047.02C855.22 1052.34 880.677 1075.14 888.656 1103.64C897.395 1133.66 887.896 1165.57 887.136 1197.11C887.136 1203.95 887.137 1211.55 891.697 1216.87C897.016 1223.71 906.135 1225.23 914.114 1226.75C936.911 1230.17 959.708 1233.97 982.505 1237.39C1015.18 1242.33 1053.18 1246.13 1077.11 1222.95C1115.11 1185.71 1086.99 1108.96 1129.17 1076.66C1175.9 1041.32 1251.51 1103.26 1298.63 1068.68C1316.11 1056.14 1322.95 1034.1 1328.65 1013.21C1349.92 934.554 1363.22 854.001 1367.78 772.688C1368.16 764.329 1368.54 755.97 1364.36 748.751C1357.9 737.352 1257.59 751.03 1244.67 750.271C1196.8 747.611 999.223 761.289 970.346 673.897C953.628 623.742 1021.26 383.984 897.015 371.445L897.775 370.305Z" fill="#FF6640" stroke="black" stroke-width="20" stroke-miterlimit="10"/>
<path d="M1230.24 964.192C1245.44 953.173 1241.64 906.817 1241.64 877.94C1241.64 867.301 1241.64 856.282 1238.6 847.163C1233.66 831.964 1222.64 827.784 1212.76 825.504C1193.38 821.325 1174.01 820.565 1154.63 823.605C1151.21 823.985 1147.79 824.745 1144.75 827.404C1137.53 833.864 1134.87 849.442 1133.35 863.121C1130.31 887.059 1128.41 911.377 1126.89 935.695C1126.89 941.774 1126.13 948.233 1128.03 953.933C1130.69 962.672 1137.15 965.332 1142.85 966.852C1173.63 974.831 1210.1 979.011 1230.24 964.192Z" fill="white" stroke="black" stroke-width="20" stroke-miterlimit="10"/>
<path d="M1193.76 920.496C1200.05 920.496 1205.16 915.393 1205.16 909.097C1205.16 902.802 1200.05 897.698 1193.76 897.698C1187.46 897.698 1182.36 902.802 1182.36 909.097C1182.36 915.393 1187.46 920.496 1193.76 920.496Z" fill="black" stroke="black" stroke-width="20" stroke-miterlimit="10"/>
</svg>
