<svg width="1760" height="1760" viewBox="0 0 1760 1760" fill="none" xmlns="http://www.w3.org/2000/svg">
<rect width="1760" height="1760" fill="white"/>
<path d="M889.927 334.375C867.358 332.211 846.336 346.433 834.588 365.601C822.84 384.769 818.512 407.957 815.42 430.526C807.382 489.577 804.909 548.938 807.691 608.607C808.928 636.123 811.401 664.257 804.6 690.846C797.798 717.434 778.63 742.786 751.734 748.969C731.947 753.298 711.542 746.805 691.138 744.022C670.733 741.24 646.928 744.332 636.107 761.645C632.088 768.138 630.233 776.176 628.688 783.596C614.466 853.159 599.935 923.031 585.714 992.593C585.096 995.685 584.477 999.086 585.714 1002.18C586.951 1005.27 590.043 1006.82 593.134 1008.36C607.665 1014.85 624.05 1017.33 639.508 1013.93C663.623 1008.98 683.409 991.357 707.214 985.792C736.894 978.681 770.592 992.593 786.359 1018.87C802.126 1045.15 799.035 1081.32 778.63 1104.51C744.314 1143.47 674.752 1140.38 648.473 1185.21C640.126 1199.12 637.654 1215.81 635.799 1231.89C632.089 1264.35 630.234 1296.81 629.925 1329.59C629.925 1343.5 630.233 1358.03 637.344 1370.09C650.02 1391.73 678.771 1396.68 703.813 1399.15C766.573 1405.64 834.278 1411.21 889 1379.36C897.656 1374.11 906.313 1367.92 910.951 1358.96C914.661 1351.54 915.588 1342.88 915.897 1334.53C916.825 1307.64 912.805 1280.43 914.351 1253.53C915.897 1226.63 923.935 1198.19 944.649 1180.88C965.363 1163.56 1000.3 1161.71 1017.3 1182.73C1032.14 1200.97 1028.43 1226.94 1028.74 1250.44C1028.74 1256.62 1029.36 1263.42 1033.07 1268.37C1037.09 1273.63 1043.58 1276.1 1049.76 1277.96C1081.61 1286.92 1116.54 1285.38 1147.46 1273.32C1156.73 1269.61 1166.01 1264.97 1171.88 1256.93C1177.14 1249.82 1179.3 1240.55 1181.16 1231.58C1187.03 1201.9 1191.67 1171.6 1194.45 1141.3C1197.54 1107.91 1197.85 1071.43 1177.45 1044.84C1120.25 970.642 1088.72 1059.99 1057.8 972.497C1051.31 953.947 1053.78 892.732 1057.18 873.255C1060.58 853.777 1074.5 835.227 1093.66 831.826C1108.19 829.353 1125.51 834.918 1136.95 825.643C1140.66 822.551 1143.13 818.223 1144.98 813.894C1158.9 782.668 1176.21 745.877 1161.37 714.961C1146.53 684.044 1112.83 664.566 1113.76 630.249C1114.07 612.317 1118.09 551.411 1104.48 539.662C1095.83 532.242 1066.46 548.628 1055.33 548.319C941.866 543.991 954.233 481.539 956.397 441.038C958.561 400.846 952.996 340.249 889.927 334.375Z" fill="#5CFF37" stroke="black" stroke-width="20" stroke-miterlimit="10"/>
<path d="M953.615 949.619C985.767 919.63 977.419 847.594 958.87 803.074C955.778 795.963 952.377 789.161 948.049 784.214C942.484 778.031 935.683 774.939 929.191 773.084C904.767 766.901 878.797 778.649 863.03 808.948C847.263 839.246 844.79 888.095 859.63 920.866C868.904 940.962 883.435 953.329 898.275 958.585C913.114 963.841 933.21 968.788 953.615 949.619Z" fill="white" stroke="black" stroke-width="20" stroke-miterlimit="10"/>
<path d="M910.089 880.213C916.573 879.995 921.537 871.102 921.174 860.351C920.812 849.6 915.261 841.062 908.777 841.28C902.292 841.499 897.329 850.391 897.691 861.142C898.053 871.894 903.604 880.432 910.089 880.213Z" fill="black"/>
</svg>
