<svg width="1760" height="1760" viewBox="0 0 1760 1760" fill="none" xmlns="http://www.w3.org/2000/svg">
<g clip-path="url(#clip0_10_317)">
<path d="M1760 0H0V1760H1760V0Z" fill="white"/>
<path d="M685.66 499.653C665.09 523.029 635.637 538.457 604.782 543.132C586.549 545.937 566.915 545.002 550.553 552.95C491.648 581.001 514.087 688.061 454.714 716.112C439.287 723.592 421.522 723.125 405.627 728.267C368.227 739.488 343.917 777.356 336.905 815.692C329.892 854.028 336.904 893.299 343.917 931.635C347.189 950.336 351.398 970.439 364.955 983.529C393.473 1011.11 442.093 992.412 480.428 1003.17C508.945 1011.11 530.45 1036.36 541.67 1063.94C552.89 1091.53 554.759 1121.91 555.227 1151.83C557.097 1225.7 553.357 1300.04 543.539 1373.44C615.067 1377.18 687.53 1365.96 754.383 1340.24C764.2 1336.5 774.486 1331.83 781.498 1323.88C788.978 1315.46 791.783 1303.78 794.12 1292.56C804.873 1233.65 794.12 1173.34 792.25 1113.5C790.38 1053.66 798.327 989.14 838.532 944.726C878.737 900.312 959.616 890.495 995.613 938.181C1018.99 969.037 1016.65 1012.98 1004.03 1049.45C991.405 1085.91 968.965 1118.64 954.473 1154.64C942.785 1183.63 936.24 1218.22 951.2 1245.8C968.03 1277.6 1006.37 1290.22 1041.43 1297.23C1083.5 1305.65 1126.51 1310.32 1169.52 1310.79C1189.16 1310.79 1209.73 1310.32 1227.49 1301.91C1263.02 1285.54 1279.85 1245.34 1292.94 1208.87C1312.11 1156.98 1330.81 1105.08 1349.98 1053.19C1372.42 991.945 1394.86 930.233 1401.87 865.716C1408.88 801.199 1399.07 732.475 1361.2 679.646C1345.3 657.673 1325.2 638.505 1312.58 614.194C1295.75 581.001 1292.48 537.522 1260.69 517.886C1240.58 505.264 1214.87 507.134 1191.5 501.991C1146.62 492.641 1111.09 458.98 1072.28 433.734C974.107 370.152 818.431 350.517 684.725 500.121L685.66 499.653Z" fill="#99E6FF" stroke="black" stroke-width="20" stroke-miterlimit="10"/>
<path d="M1040.08 606.141C958.737 482.718 798.329 552.484 767.007 652.531C715.114 818.499 916.608 835.797 988.603 805.876C1083.97 766.605 1070.88 652.531 1037.22 601.572L1040.08 606.141Z" fill="white" stroke="black" stroke-width="20" stroke-miterlimit="10"/>
<path d="M898.845 717.986C915.369 717.986 928.766 706.264 928.766 691.805C928.766 677.346 915.369 665.625 898.845 665.625C882.321 665.625 868.926 677.346 868.926 691.805C868.926 706.264 882.321 717.986 898.845 717.986Z" fill="black"/>
</g>
<defs>
<clipPath id="clip0_10_317">
<rect width="1760" height="1760" fill="white"/>
</clipPath>
</defs>
</svg>
