<svg width="1760" height="1760" viewBox="0 0 1760 1760" fill="none" xmlns="http://www.w3.org/2000/svg">
<rect width="1760" height="1760" fill="white"/>
<path d="M740.952 356.019C684.046 354.735 648.533 420.2 633.558 474.968C618.582 529.736 614.304 589.639 582.642 636.706C577.079 644.835 570.662 652.965 562.105 658.1C544.99 668.369 522.313 666.657 506.91 679.066C486.372 695.753 489.795 726.987 492.79 753.088C506.053 866.047 477.387 980.29 435.456 1086.4C417.913 1130.48 398.232 1180.54 418.77 1223.32C433.317 1254.13 465.407 1272.53 496.213 1287.93C523.597 1301.63 551.408 1314.46 579.219 1326.44C597.617 1334.57 617.299 1342.27 636.981 1340.13C668.643 1337.14 693.459 1309.33 704.583 1279.38C715.708 1249.42 716.563 1216.91 720.414 1184.82C724.265 1152.72 732.395 1120.21 754.644 1097.1C780.316 1070.57 819.68 1062.87 856.048 1065.01C883.004 1066.72 912.526 1075.28 927.929 1097.53C946.755 1124.91 938.198 1163.42 920.228 1191.66C902.258 1219.9 876.586 1242.15 858.615 1270.39C840.645 1298.63 832.515 1337.14 851.341 1364.52C870.595 1391.48 907.819 1396.61 941.193 1397.9C1005.8 1400.47 1070.41 1397.04 1134.16 1388.48C1148.71 1386.35 1163.68 1383.78 1175.24 1375.22C1190.21 1363.67 1196.63 1344.41 1200.91 1326.01C1218.88 1253.28 1224.87 1177.11 1217.59 1102.66C1216.31 1089.83 1215.03 1076.56 1218.88 1064.15C1226.58 1041.05 1251.4 1027.78 1275.36 1023.93C1299.32 1020.08 1324.13 1021.79 1348.09 1017.09C1386.17 1008.96 1420.4 981.146 1431.95 943.921C1443.51 906.696 1429.82 862.197 1397.3 840.803C1382.32 830.962 1364.78 826.683 1347.66 821.976C1323.7 815.558 1299.32 809.568 1275.36 803.15C1267.23 801.01 1258.67 798.871 1251.82 793.736C1223.58 771.915 1247.97 724.42 1234.28 691.474C1215.88 648.258 1124.32 626.437 1091.8 592.207C1086.67 587.072 1024.2 634.994 935.203 587.072C884.287 559.26 884.287 531.876 838.077 426.19C823.958 393.672 797.43 357.302 740.952 356.019Z" fill="#E6E1E1" stroke="black" stroke-width="20" stroke-miterlimit="10"/>
<path d="M719.128 808.282C710.998 834.811 703.725 866.901 722.123 888.295C734.103 901.559 752.929 906.266 770.899 908.834C793.576 911.829 817.11 912.684 838.931 906.266C860.752 899.848 880.86 884.444 888.562 863.05C896.691 840.373 889.846 815.556 881.289 793.307C865.458 751.803 843.209 711.582 808.124 683.77C804.274 680.775 799.994 677.78 795.288 676.497C784.591 673.501 773.038 680.775 767.048 689.761C761.058 698.746 728.112 777.475 718.699 808.282H719.128Z" fill="white" stroke="black" stroke-width="20" stroke-miterlimit="10"/>
<path d="M801.703 845.507C814.227 845.507 824.38 837.077 824.38 826.68C824.38 816.282 814.227 807.854 801.703 807.854C789.179 807.854 779.026 816.282 779.026 826.68C779.026 837.077 789.179 845.507 801.703 845.507Z" fill="black"/>
</svg>
