<svg width="1760" height="1760" viewBox="0 0 1760 1760" fill="none" xmlns="http://www.w3.org/2000/svg">
<g clip-path="url(#clip0_10_311)">
<path d="M1760 0H0V1760H1760V0Z" fill="white"/>
<path d="M764.455 356C714.889 356 680.536 404.358 664.342 446.948C648.147 489.538 644.712 535.234 629.499 577.825C614.286 620.415 581.895 663.005 533.311 672.765C515.153 676.315 495.033 675.871 479.819 685.631C471.477 690.955 465.587 698.941 461.171 707.37C436.633 754.397 419.949 823.162 509.756 842.239C555.396 852 608.395 862.204 634.405 897.695C648.637 917.216 649.129 942.06 647.656 965.13C646.675 982.876 644.711 1001.07 634.405 1016.15C596.617 1072.49 460.681 1040.99 416.022 1092.9C399.337 1112.42 424.856 1232.65 408.661 1322.71C404.735 1345.78 406.698 1372.84 426.328 1387.93C437.615 1396.8 452.828 1399.46 467.551 1401.24C610.359 1417.65 760.529 1348.44 830.215 1234.42C857.697 1189.17 875.365 1135.94 921.004 1105.32C934.745 1096.01 951.429 1088.91 968.606 1088.46C1002.96 1087.58 1032.89 1111.98 1047.13 1140.37C1061.36 1168.77 1064.79 1200.26 1072.15 1230.43C1079.52 1260.6 1091.78 1292.1 1119.27 1311.18C1153.13 1334.69 1203.68 1331.58 1239.01 1309.85C1274.34 1288.11 1294.46 1249.95 1299.37 1211.8C1306.24 1161.22 1288.08 1108.43 1250.79 1070.27C1217.42 1036.11 1167.85 1009.94 1158.04 965.13C1148.22 919.434 1195.33 871.52 1246.86 875.069C1264.53 876.4 1283.18 882.612 1299.86 877.731C1327.34 869.302 1333.72 837.803 1335.2 811.627C1336.67 773.474 1336.18 734.876 1333.23 696.722C1328.82 644.816 1319 590.247 1282.2 550.318C1262.07 528.136 1229.19 511.277 1199.26 520.594C1182.08 525.918 1148.22 577.381 1130.55 576.494C1013.76 569.839 898.429 548.544 870.947 528.136C834.141 500.629 880.272 435.413 846.901 392.379C836.595 379.07 819.584 356 771 356H764.455Z" fill="#96BDF2" stroke="black" stroke-width="20" stroke-miterlimit="10"/>
<path d="M1012.77 736.209C927.382 619.086 761.508 689.626 728.628 784.566C674.154 942.062 885.667 958.477 961.243 930.084C1061.36 892.817 1053.33 791.358 1018 743L1012.77 736.209Z" fill="white" stroke="black" stroke-width="20" stroke-miterlimit="10"/>
<path d="M867.023 846.679C884.369 846.679 898.43 835.556 898.43 821.834C898.43 808.113 884.369 796.99 867.023 796.99C849.677 796.99 835.614 808.113 835.614 821.834C835.614 835.556 849.677 846.679 867.023 846.679Z" fill="black"/>
</g>
<defs>
<clipPath id="clip0_10_311">
<rect width="1760" height="1760" fill="white"/>
</clipPath>
</defs>
</svg>
