<svg width="1760" height="1760" viewBox="0 0 1760 1760" fill="none" xmlns="http://www.w3.org/2000/svg">
<g clip-path="url(#clip0_10_305)">
<mask id="mask0_10_305" style="mask-type:luminance" maskUnits="userSpaceOnUse" x="0" y="0" width="1760" height="1760">
<path d="M1760 0H0V1760H1760V0Z" fill="white"/>
</mask>
<g mask="url(#mask0_10_305)">
<path d="M1760 0H0V1760H1760V0Z" fill="white"/>
<path d="M741.177 367.014C695.966 389.231 674.139 440.68 662.057 489.4C649.975 538.12 641.401 590.738 607.882 628.545C596.189 641.797 581.769 652.71 572.805 668.301C560.722 690.127 561.891 716.242 563.45 741.186C566.568 798.481 567.347 855.776 565.788 912.681C565.398 928.662 564.23 945.422 554.486 957.894C533.829 983.228 490.956 972.705 465.233 992.583C438.73 1013.24 444.185 1055.72 462.114 1084.18C480.043 1112.63 507.326 1134.85 520.967 1165.64C538.506 1204.61 532.66 1253.72 560.332 1286.46C586.056 1316.86 630.488 1320.76 670.243 1322.71C683.494 1323.49 698.304 1323.49 708.438 1314.92C715.843 1308.68 718.961 1298.94 721.3 1289.58C733.382 1231.51 705.709 1168.76 725.197 1113.02C745.464 1054.17 811.332 1023.37 873.303 1016.36C895.519 1014.02 920.462 1014.41 937.222 1029.22C953.981 1044.03 957.489 1068.98 956.709 1091.58C953.202 1165.25 914.226 1232.29 895.908 1304C890.062 1327 886.944 1353.11 901.365 1371.82C914.227 1388.58 937.222 1393.65 958.269 1396.38C989.839 1400.27 1021.41 1401.05 1053.37 1399.1C1075.97 1397.55 1098.97 1394.43 1118.46 1382.73C1140.28 1369.48 1154.31 1346.49 1164.45 1323.1C1178.87 1289.97 1187.05 1254.11 1188.61 1217.87C1189.78 1187.85 1187.05 1154.72 1205.37 1130.95C1231.87 1096.65 1284.49 1102.11 1325.42 1087.68C1368.68 1072.09 1400.64 1029.61 1403.75 983.618C1406.87 937.626 1379.98 891.634 1339.06 870.977C1294.23 848.371 1236.94 854.997 1196.8 824.595C1156.65 794.194 1144.18 733.001 1098.58 711.954C1064.28 695.974 1019.07 732.222 982.823 743.525C927.478 760.674 701.422 844.863 742.346 731.832C762.223 676.875 811.332 552.152 827.701 515.514C844.071 478.876 855.764 436.392 841.733 398.975C833.938 377.538 803.147 336.223 741.177 367.014Z" fill="#FF6640" stroke="black" stroke-width="20" stroke-miterlimit="10"/>
<path d="M1085.33 817.187C1070.13 805.105 1025.3 820.306 996.851 828.101C986.328 831.22 975.416 834.338 967.231 839.794C953.59 848.759 952.421 861.231 952.811 871.365C953.98 891.633 958.656 911.121 966.841 929.44C968.4 932.558 969.96 936.066 973.467 938.404C981.652 943.861 997.632 942.302 1012.05 939.963C1036.61 936.455 1061.16 931.778 1085.33 926.322C1091.56 925.152 1098.19 923.593 1102.86 920.475C1111.05 915.408 1111.83 908.393 1111.83 902.546C1111.05 869.806 1105.59 832.778 1085.33 817.187Z" fill="white" stroke="black" stroke-width="20" stroke-miterlimit="10"/>
<path d="M1032.32 888.906C1038.78 888.906 1044.02 883.671 1044.02 877.213C1044.02 870.755 1038.78 865.52 1032.32 865.52C1025.87 865.52 1020.63 870.755 1020.63 877.213C1020.63 883.671 1025.87 888.906 1032.32 888.906Z" fill="black" stroke="black" stroke-width="20" stroke-miterlimit="10"/>
</g>
</g>
<defs>
<clipPath id="clip0_10_305">
<rect width="1760" height="1760" fill="white"/>
</clipPath>
</defs>
</svg>
