<svg width="1760" height="1760" viewBox="0 0 1760 1760" fill="none" xmlns="http://www.w3.org/2000/svg">
<rect width="1760" height="1760" fill="white"/>
<path d="M851.26 383.461C820.235 394.941 794.794 418.211 780.833 448.306C766.871 478.402 760.357 511.29 747.636 542.006C734.916 572.722 713.198 602.197 681.552 612.125C664.798 617.399 646.492 616.779 629.428 620.813C612.364 624.846 594.369 635.395 590.646 652.459C587.234 668.593 597.783 685.347 611.744 694.345C625.706 703.342 642.459 706.445 658.903 710.168C693.651 718.235 729.641 730.646 752.29 758.569C772.146 783.08 778.661 817.83 769.043 847.925C759.425 878.021 733.674 902.221 703.269 910.598C679.69 916.803 652.387 914.942 634.392 931.076C620.121 943.796 616.088 964.584 613.295 983.82C607.4 1023.84 603.368 1064.49 601.196 1104.82C600.575 1118.78 601.195 1134.92 612.054 1142.99C620.431 1149.19 631.91 1148.57 642.149 1147.33C678.449 1143.61 714.439 1138.64 750.118 1132.44C767.492 1129.33 786.418 1126.54 801.31 1136.16C817.443 1146.71 821.786 1168.12 822.407 1187.35C823.648 1227.38 814.651 1268.02 822.407 1307.74C830.163 1347.45 861.809 1387.16 901.832 1383.75C910.829 1382.82 919.517 1380.03 927.894 1376.3C978.156 1353.03 1010.11 1295.63 1003.29 1241.03C999.563 1212.48 986.843 1186.11 982.5 1157.57C978.156 1129.02 986.842 1095.2 1012.9 1083.1C1046.1 1067.9 1084.26 1096.14 1120.56 1091.17C1156.55 1086.21 1179.51 1049.6 1190.06 1014.85C1197.2 990.646 1200.61 963.033 1186.96 941.624C1172.37 918.665 1143.21 910.598 1116.53 906.875C1089.85 903.152 1061.3 901.29 1038.97 885.777C1016.94 870.264 1005.46 841.099 1010.42 814.727C1015.39 788.355 1037.1 765.705 1063.17 759.19C1095.12 751.433 1160.59 774.703 1185.72 753.295C1214.57 728.784 1235.36 626.087 1205.26 600.955C1178.89 578.927 1141.66 611.504 1120.56 619.882C1086.74 633.533 1029.04 650.288 993.358 642.841C943.096 632.603 928.824 602.197 922.929 566.206C916.414 526.493 962.023 432.172 937.823 396.492C926.964 380.359 890.973 369.189 851.26 383.771V383.461Z" fill="#2667FF" stroke="black" stroke-width="20" stroke-miterlimit="10"/>
<path d="M925.104 931.385C916.417 936.35 895.009 932.006 880.427 921.767C857.778 905.944 846.921 874.918 854.677 848.235C862.433 821.552 887.873 801.075 915.796 799.834C917.348 799.834 918.9 799.834 920.451 800.454C922.313 801.385 923.243 803.557 923.863 805.729C940.307 849.166 938.134 923.939 925.104 931.385Z" fill="#FAFCFF" stroke="black" stroke-width="20" stroke-miterlimit="10"/>
<path d="M925.725 875.848C930.866 875.848 935.033 871.681 935.033 866.54C935.033 861.4 930.866 857.232 925.725 857.232C920.585 857.232 916.418 861.4 916.418 866.54C916.418 871.681 920.585 875.848 925.725 875.848Z" fill="black" stroke="black" stroke-width="20" stroke-miterlimit="10"/>
</svg>
