<svg width="1760" height="1760" viewBox="0 0 1760 1760" fill="none" xmlns="http://www.w3.org/2000/svg">
<rect width="1760" height="1760" fill="white"/>
<path d="M628.084 636.01C561.286 613.743 480.318 638.844 443.883 699.572C367.368 827.099 536.186 754.226 529.709 855.844C527.684 887.017 491.654 914.952 449.955 935.194C402.994 958.271 343.077 993.493 358.461 1026.29C379.513 1071.63 439.429 993.088 496.917 1063.53C512.705 1082.96 512.301 1110.49 523.636 1132.36C541.044 1166.36 584.766 1181.34 621.607 1172.44C658.447 1163.53 688.81 1135.6 707.838 1102.4C724.841 1072.84 736.987 1036.41 767.755 1021.43C793.664 1008.47 826.051 1015.76 849.126 1033.17C872.202 1050.58 887.181 1076.49 898.517 1103.21C909.448 1127.9 918.355 1155.03 938.597 1172.84C958.029 1190.25 984.343 1196.73 1010.25 1199.56C1059.24 1204.82 1112.27 1197.94 1149.92 1165.96C1173.81 1145.72 1189.19 1117.78 1209.84 1094.71C1246.68 1053.41 1298.9 1028.31 1334.93 986.206C1369.75 944.911 1407 908.069 1399.3 854.629C1394.85 823.861 1358.42 775.279 1332.1 759.085C1229.27 694.713 1187.57 842.079 1121.18 795.116C1094.05 775.683 1070.57 753.417 1049.93 727.506C1033.33 706.049 1013.49 686.616 988.797 674.876C964.101 663.135 935.358 661.92 910.258 672.042C775.446 726.292 776.661 684.592 628.49 635.605L628.084 636.01Z" fill="#2667FF" stroke="black" stroke-width="20" stroke-miterlimit="10"/>
<path d="M998.51 976.893C961.265 996.73 960.86 1053.81 984.34 1087.82C987.984 1093.08 992.842 1098.35 998.51 1102.4C1005.8 1107.25 1015.11 1109.68 1024.02 1111.3C1057.21 1116.57 1093.65 1108.47 1116.72 1085.8C1139.8 1063.13 1145.47 1026.69 1126.44 1001.18C1114.7 985.799 1095.27 976.083 1075.03 971.63C1054.78 967.176 1030.49 959.889 998.51 976.893Z" fill="white" stroke="black" stroke-width="20" stroke-miterlimit="10"/>
<path d="M1046.28 1052.2C1050.53 1052.2 1053.97 1048.75 1053.97 1044.5C1053.97 1040.25 1050.53 1036.81 1046.28 1036.81C1042.04 1036.81 1038.59 1040.25 1038.59 1044.5C1038.59 1048.75 1042.04 1052.2 1046.28 1052.2Z" fill="black" stroke="black" stroke-width="20" stroke-miterlimit="10"/>
</svg>
