<svg width="1760" height="1760" viewBox="0 0 1760 1760" fill="none" xmlns="http://www.w3.org/2000/svg">
<g clip-path="url(#clip0_10_341)">
<path d="M1760 0H0V1760H1760V0Z" fill="white"/>
<path d="M925.643 415.857C892.195 412.855 869.469 452.736 854.889 483.612C840.309 514.488 833.019 547.508 816.724 577.526C800.429 607.544 773.843 634.56 739.966 637.133C729.246 637.991 718.096 636.276 707.805 638.849C688.079 643.566 675.212 662.434 668.351 681.303C661.49 700.171 659.348 720.755 651.2 739.195C639.622 767.069 615.179 789.368 586.877 798.802C537.134 815.098 479.673 793.227 431.645 814.669C401.199 828.392 379.328 859.267 377.184 892.716C375.04 926.165 391.764 960.043 420.066 977.625C473.24 1011.5 554.287 987.917 597.169 1034.23C631.045 1070.68 619.895 1129.43 601.456 1175.75C596.31 1189.04 590.308 1204.05 595.454 1217.34C600.171 1230.64 613.893 1238.35 626.757 1244.36C646.054 1253.79 666.209 1261.94 686.364 1268.8C716.81 1279.52 753.689 1286.38 778.132 1265.37C791.854 1253.79 797.857 1235.35 802.145 1217.77C811.151 1179.18 812.008 1139.29 821.014 1101.13C830.019 1062.96 848.884 1023.94 882.761 1004.21C916.638 984.486 967.669 990.49 986.537 1025.23C997.686 1045.81 995.542 1070.68 991.254 1093.84C986.965 1117 980.533 1140.15 972.385 1162.45C956.948 1203.62 935.936 1252.51 961.665 1288.1C973.672 1304.39 992.968 1313.4 1012.27 1320.69C1036.28 1329.7 1060.72 1336.56 1085.59 1341.7C1100.6 1344.7 1116.47 1347.28 1131.91 1343.85C1169.21 1335.7 1191.08 1296.68 1200.95 1259.8C1210.81 1222.92 1213.38 1183.04 1233.54 1150.44C1249.83 1124.29 1275.99 1106.27 1297 1083.55C1318.01 1060.82 1334.74 1029.51 1325.3 999.924C1314.58 966.475 1274.27 949.322 1262.27 916.302C1246.4 873.419 1283.28 821.53 1260.55 781.649C1237.83 741.768 1194.09 751.631 1158.06 757.634C1050.86 775.645 996.399 675.728 1001.54 624.697C1020.41 437.298 986.174 421.004 933 415.858L925.643 415.857Z" fill="#FF82C1" stroke="black" stroke-width="20" stroke-miterlimit="10"/>
<path d="M948.373 759.779C931.649 746.485 881.905 763.639 850.601 772.215C839.023 775.646 827.018 779.076 818.013 785.08C803.004 794.943 801.718 808.666 802.147 819.815C803.433 842.115 808.578 863.556 817.583 883.711C819.299 887.142 821.013 891.001 824.873 893.574C833.878 899.578 851.459 897.862 867.325 895.289C894.341 891.43 921.357 886.284 947.944 880.28C954.805 878.994 962.095 877.279 967.241 873.848C976.246 868.273 977.103 860.554 977.103 854.122C976.245 818.1 970.671 776.932 948.373 759.779Z" fill="white" stroke="black" stroke-width="20" stroke-miterlimit="10"/>
<path d="M889.622 839.115C896.727 839.115 902.486 833.355 902.486 826.25C902.486 819.145 896.727 813.385 889.622 813.385C882.517 813.385 876.758 819.145 876.758 826.25C876.758 833.355 882.517 839.115 889.622 839.115Z" fill="black" stroke="black" stroke-width="20" stroke-miterlimit="10"/>
</g>
<defs>
<clipPath id="clip0_10_341">
<rect width="1760" height="1760" fill="white"/>
</clipPath>
</defs>
</svg>
