<svg width="1760" height="1760" viewBox="0 0 1760 1760" fill="none" xmlns="http://www.w3.org/2000/svg">
<rect width="1760" height="1760" fill="white"/>
<path d="M714.16 586.744C691.866 536.11 618.185 522.506 572.465 553.113C526.744 583.72 508.985 646.446 520.321 700.48C531.656 754.515 567.175 800.992 607.983 838.023C654.837 880.344 713.782 918.885 726.629 980.477C736.831 1029.22 714.915 1078.72 687.332 1119.91C659.749 1161.1 626.12 1199.26 608.361 1245.74C590.602 1292.21 593.624 1351.54 632.165 1383.28C654.081 1401.42 684.309 1407.46 712.27 1402.55C733.43 1398.77 753.457 1389.33 769.704 1374.97C816.558 1333.78 826.76 1259.72 878.526 1224.95C967.322 1165.63 1099.57 1266.52 1188.74 1208.33C1235.22 1178.1 1248.82 1114.62 1239.38 1059.83C1229.93 1005.04 1202.72 955.538 1183.08 903.771C1139.25 788.522 1133.58 658.915 1167.96 540.266C1178.16 505.125 1172.87 469.984 1171.36 433.709C1169.85 397.434 1156.63 327.151 1113.17 343.399C1094.28 350.579 973.745 426.907 967.322 530.064C963.165 597.324 973.367 667.606 945.784 729.198C918.201 790.79 858.122 802.503 799.933 768.496C761.014 745.824 726.251 613.572 714.16 586.744Z" fill="#FFE0F6" stroke="black" stroke-width="20" stroke-miterlimit="10"/>
<path d="M903.953 1042.83C894.884 1000.5 918.311 955.539 953.452 929.844C962.142 923.798 968.458 920.02 979.038 917.753C998.687 913.218 1019.47 919.264 1036.47 929.844C1066.7 948.737 1087.1 981.989 1090.88 1017.13C1090.88 1020.91 1091.26 1025.07 1088.62 1027.71C1086.73 1029.6 1084.46 1029.98 1081.81 1030.73C1035.34 1042.45 988.484 1051.14 941.253 1057.18C926.516 1059.07 907.353 1058.32 903.953 1042.83Z" fill="white" stroke="black" stroke-width="20" stroke-miterlimit="10"/>
<path d="M995.284 1002.39C1003.01 1002.39 1009.26 995.628 1009.26 987.28C1009.26 978.933 1003.01 972.166 995.284 972.166C987.563 972.166 981.304 978.933 981.304 987.28C981.304 995.628 987.563 1002.39 995.284 1002.39Z" fill="black"/>
</svg>
