<svg width="1760" height="1760" viewBox="0 0 1760 1760" fill="none" xmlns="http://www.w3.org/2000/svg">
<rect width="1760" height="1760" fill="white"/>
<path d="M524.005 498.27C509.597 505.242 500.301 519.185 492.865 533.594C444.992 625.623 413.852 899.388 522.611 1091.35C570.019 1174.55 607.201 1266.11 681.567 1326.53C755.932 1386.96 854.001 1403.69 949.746 1403.69C1217 1403.69 1282.53 1245.19 1327.15 1023.49C1359.22 862.669 1328.54 597.736 1265.33 446.678C1256.97 427.156 1247.67 407.17 1231.87 392.761C1216.07 378.353 1192.83 369.987 1172.84 377.424C1144.02 388.114 1133.8 423.438 1110.56 442.959C1079.88 468.058 1033.41 461.086 999.013 442.03C964.619 422.973 924.648 393.226 890.254 373.24C855.86 353.254 794.044 353.254 762.904 377.424C745.707 390.438 680.637 467.594 647.173 493.622C606.272 525.228 557.005 482.467 524.47 498.27H524.005Z" fill="#FCFFA6" stroke="black" stroke-width="20" stroke-miterlimit="10"/>
<path d="M740.129 936.573C737.805 950.982 735.946 967.249 744.777 979.334C754.073 992.348 771.735 995.602 788.002 997.461C855.86 1004.9 924.648 1005.83 992.506 1001.18C1007.38 1000.25 1023.18 998.39 1036.2 990.954C1065.01 974.221 1071.52 936.573 1074.77 903.572C1079.89 851.98 1078.49 786.909 1031.08 764.599C1014.82 757.162 995.76 756.697 977.633 757.162C926.042 758.092 874.451 762.74 823.325 770.641C807.988 772.965 792.185 776.219 780.565 785.979C768.946 795.74 746.172 896.6 740.129 936.108V936.573Z" fill="white" stroke="black" stroke-width="20" stroke-miterlimit="10"/>
<path d="M907.449 1005.36C924.647 1005.36 938.589 992.461 938.589 976.545C938.589 960.63 924.647 947.728 907.449 947.728C890.251 947.728 876.309 960.63 876.309 976.545C876.309 992.461 890.251 1005.36 907.449 1005.36Z" fill="black"/>
</svg>
