<svg width="1760" height="1760" viewBox="0 0 1760 1760" fill="none" xmlns="http://www.w3.org/2000/svg">
<rect width="1760" height="1760" fill="white"/>
<path d="M409.621 1210.08C391.223 1243.65 397.202 1287.81 410.081 1323.69C432.619 1385.79 516.332 1416.14 572.908 1383.03C635.922 1346.23 647.882 1262.97 673.639 1194.9C702.617 1119 779.891 1046.33 856.244 1073C968.015 1112.1 935.818 1294.25 1025.05 1372.45C1091.29 1430.4 1202.6 1402.81 1259.17 1335.19C1315.75 1267.57 1330.01 1174.66 1334.61 1086.8C1338.29 1012.75 1335.99 936.851 1311.61 866.475C1287.23 796.099 1238.47 731.703 1170.4 702.724C1100.94 673.286 1014.01 679.726 960.656 626.369C920.639 586.351 913.28 524.714 894.881 470.897C876.483 417.08 830.487 360.963 774.831 371.083C711.816 382.582 706.757 465.378 684.219 524.714C623.964 684.325 533.351 642.008 515.412 675.126C477.695 744.122 512.193 1022.41 409.621 1209.62V1210.08Z" fill="#FF82C1" stroke="black" stroke-width="20" stroke-miterlimit="10"/>
<path d="M1029.65 967.669C974.452 1002.63 975.832 1102.9 1009.41 1162.7C1014.93 1172.36 1021.37 1181.56 1029.65 1188C1040.23 1196.74 1053.11 1200.88 1066.44 1203.64C1113.82 1212.84 1166.26 1198.12 1199.37 1159.02C1232.49 1119.92 1240.77 1054.61 1213.17 1009.99C1196.15 982.849 1168.56 965.37 1139.58 958.01C1110.6 950.651 1075.18 938.231 1029.65 967.21V967.669Z" fill="white" stroke="black" stroke-width="20" stroke-miterlimit="10"/>
<path d="M1111.06 1115.32C1124.02 1115.32 1134.52 1103.58 1134.52 1089.1C1134.52 1074.62 1124.02 1062.88 1111.06 1062.88C1098.1 1062.88 1087.6 1074.62 1087.6 1089.1C1087.6 1103.58 1098.1 1115.32 1111.06 1115.32Z" fill="black"/>
</svg>
