<svg width="1760" height="1760" viewBox="0 0 1760 1760" fill="none" xmlns="http://www.w3.org/2000/svg">
<rect width="1760" height="1760" fill="white"/>
<path d="M729.516 406.129C697.977 433.726 679.251 472.658 650.177 502.226C621.102 531.795 572.316 551.507 538.313 527.852C521.065 516.025 511.21 495.327 493.469 483.5C458.481 460.831 407.231 486.949 392.94 525.881C378.649 564.812 391.954 609.658 413.637 645.14C435.32 680.622 464.394 712.161 485.092 748.136C562.46 882.671 509.731 1050.72 513.181 1205.95C514.659 1270.51 536.342 1345.91 597.448 1365.62C678.266 1391.25 750.706 1300.08 834.974 1292.68C898.051 1287.26 953.736 1329.15 1009.91 1357.73C1066.09 1386.32 1144.94 1399.13 1184.36 1349.85C1207.52 1320.77 1208.02 1280.36 1207.03 1243.4C1206.05 1188.7 1205.06 1134.49 1204.07 1079.79C1203.09 1014.74 1203.09 945.257 1239.55 891.049C1261.73 858.031 1295.73 834.869 1319.39 803.329C1360.78 748.135 1367.68 675.693 1371.62 606.701C1374.09 563.827 1365.22 507.154 1322.84 500.255C1292.28 495.327 1267.15 520.953 1243.5 541.158C1198.16 579.597 1140.5 602.266 1081.37 604.237C1055.25 605.223 1027.65 601.773 1007.45 585.51C971.969 556.435 974.926 503.212 959.649 459.845C929.096 372.619 806.884 336.151 728.531 405.144L729.516 406.129Z" fill="#63B6FF" stroke="black" stroke-width="20" stroke-miterlimit="10"/>
<path d="M688.122 829.941C686.644 852.61 685.165 877.743 691.572 896.469C698.471 916.674 711.283 921.602 723.11 924.066C772.389 935.401 822.654 937.372 872.426 929.487C883.267 928.009 894.602 925.545 904.457 913.718C925.155 888.092 930.083 829.448 932.547 778.689C936.489 698.855 935.011 597.83 901.008 563.827C889.181 552 875.383 551.507 862.077 552.492C824.625 554.464 786.68 561.363 749.721 573.683C738.88 577.133 727.053 582.061 718.675 597.338C710.298 612.615 693.543 768.341 689.108 829.941H688.122Z" fill="white" stroke="black" stroke-width="20" stroke-miterlimit="10"/>
<path d="M818.216 788.052C830.736 788.052 840.885 767.974 840.885 743.206C840.885 718.439 830.736 698.362 818.216 698.362C805.697 698.362 795.548 718.439 795.548 743.206C795.548 767.974 805.697 788.052 818.216 788.052Z" fill="black"/>
</svg>
