<svg width="1760" height="1760" viewBox="0 0 1760 1760" fill="none" xmlns="http://www.w3.org/2000/svg">
<rect width="1760" height="1760" fill="white"/>
<path d="M873.374 348.608C799.878 354.844 778.943 416.315 758.898 453.287C738.854 490.258 723.264 532.13 690.747 559.747C657.785 587.81 610.57 598.501 585.181 633.245C565.582 659.972 563.355 694.716 553.11 725.897C519.702 827.012 400.772 899.174 410.572 1005.63C412.799 1027.91 420.817 1049.73 436.407 1065.32C497.876 1127.24 613.242 1056.41 687.629 1101.85C781.169 1157.98 721.482 1328.13 808.786 1393.61C850.657 1425.24 917.916 1414.1 947.315 1370.9C984.286 1316.55 959.787 1237.71 995.421 1182.47C1025.71 1135.26 1088.52 1122.79 1144.19 1117.89C1199.87 1112.99 1261.34 1108.09 1300.99 1068.44C1346.42 1023.01 1345.08 946.39 1317.47 888.483C1300.54 853.293 1275.15 819.44 1273.81 780.241C1271.59 708.079 1351.32 653.29 1349.98 581.129C1349.98 571.329 1348.2 561.529 1342.41 553.511C1321.48 524.112 1272.92 568.211 1243.97 589.592C1188.29 630.127 1100.54 646.608 1043.08 608.746C998.985 579.792 988.294 509.412 985.622 444.378C983.395 391.37 953.106 341.927 872.928 348.608H873.374Z" fill="#FF6640" stroke="black" stroke-width="20" stroke-miterlimit="10"/>
<path d="M758.901 729.013C686.742 770.439 688.078 888.036 732.621 957.97C739.748 969.106 748.211 979.797 758.901 987.815C772.71 998.06 790.081 1002.96 807.008 1006.08C869.368 1017.21 938.41 999.842 981.616 953.516C1024.82 907.19 1035.96 831.02 999.879 778.903C977.607 746.832 941.082 726.786 903.221 717.877C865.359 708.969 819.034 694.714 758.901 729.013Z" fill="white" stroke="black" stroke-width="20" stroke-miterlimit="10"/>
<path d="M986.072 892.046C1003.05 892.046 1016.81 878.285 1016.81 861.31C1016.81 844.336 1003.05 830.575 986.072 830.575C969.097 830.575 955.337 844.336 955.337 861.31C955.337 878.285 969.097 892.046 986.072 892.046Z" fill="black"/>
</svg>
