<svg width="1760" height="1760" viewBox="0 0 1760 1760" fill="none" xmlns="http://www.w3.org/2000/svg">
<rect width="1760" height="1760" fill="white"/>
<path d="M459.983 1086.69C427.808 1109.45 389.354 1167.53 393.278 1206.77C397.201 1247.18 429.77 1280.14 467.046 1295.84C504.323 1311.54 545.916 1313.5 586.331 1314.67C716.996 1317.81 847.268 1314.68 977.932 1311.54C1033.65 1310.36 1089.76 1308.79 1145.09 1299.76C1201.98 1290.35 1260.45 1270.33 1296.94 1225.6C1327.55 1188.32 1337.75 1138.88 1346.38 1091.01C1399.35 798.674 1340.89 732.752 1275.75 709.208C1229.06 692.335 1170.59 694.689 1141.16 576.971C1129.39 530.668 1130.96 507.517 1110.95 463.961C1090.94 420.405 1064.65 400 1016.78 400C937.909 400 909.265 569.123 810.384 585.603C790.764 588.743 769.575 584.819 751.918 593.844C737.4 600.907 727.59 615.426 718.565 629.159C678.934 689.588 625.178 769.637 664.809 830.458C699.731 884.217 729.16 931.697 680.504 1020.77C656.176 1065.11 492.944 1063.93 460.768 1087.09L459.983 1086.69Z" fill="#FFD58C" stroke="black" stroke-width="20" stroke-miterlimit="10"/>
<path d="M936.73 793.572C873.164 830.065 874.341 933.658 913.579 995.264C919.857 1005.07 927.313 1014.49 936.73 1021.55C948.894 1030.58 964.197 1034.9 979.107 1037.64C1034.04 1047.45 1094.86 1032.15 1132.92 991.34C1170.98 950.531 1180.79 883.431 1149.01 837.521C1129.39 809.268 1097.22 791.61 1063.86 783.762C1030.51 775.914 989.702 763.358 936.73 793.572Z" fill="white" stroke="black" stroke-width="20" stroke-miterlimit="10"/>
<path d="M928.492 926.595C943.445 926.595 955.567 914.473 955.567 899.52C955.567 884.566 943.445 872.444 928.492 872.444C913.539 872.444 901.418 884.566 901.418 899.52C901.418 914.473 913.539 926.595 928.492 926.595Z" fill="black"/>
</svg>
