<svg width="1760" height="1760" viewBox="0 0 1760 1760" fill="none" xmlns="http://www.w3.org/2000/svg">
<rect width="1760" height="1760" fill="white"/>
<path d="M597.661 561.604C562.553 537.109 523.77 511.797 481.313 516.287C440.081 520.778 404.973 557.113 401.707 597.938C399.257 631.006 414.77 662.441 425.793 693.468C442.122 738.784 449.47 787.365 447.429 835.539C444.163 920.863 411.913 1002.11 398.441 1086.61C393.134 1120.09 391.092 1155.2 400.89 1187.86C410.688 1220.52 434.774 1250.32 467.841 1259.3C526.628 1275.63 587.456 1223.38 646.65 1237.67C674.819 1244.2 696.864 1265.02 721.766 1279.72C781.369 1314.82 860.159 1314.42 919.354 1278.9C947.931 1261.34 972.425 1236.44 1003.86 1224.6C1041.83 1210.31 1083.47 1216.84 1123.88 1219.7C1164.3 1222.56 1208.8 1219.7 1238.19 1191.94C1285.95 1146.63 1264.72 1066.2 1287.99 1004.55C1310.45 945.358 1372.5 908.208 1394.95 848.603C1413.73 798.797 1401.08 742.458 1379.85 693.468C1358.62 644.478 1329.23 599.162 1313.71 548.131C1306.36 524.861 1301.47 499.141 1284.73 481.586C1263.91 459.949 1231.25 456.275 1201.45 454.642C1125.11 451.376 1041.42 459.132 986.713 511.797C923.436 573.034 936.092 686.528 889.961 761.646C875.264 785.732 836.073 795.122 807.905 795.939C773.204 797.163 746.261 764.912 734.013 732.252C721.766 699.592 717.275 663.665 698.088 635.088C674.819 600.387 631.953 585.282 597.661 561.195V561.604Z" fill="#DEB0FF" stroke="black" stroke-width="20" stroke-miterlimit="10"/>
<path d="M943.848 969.855C949.155 1016.4 918.946 1062.12 878.122 1085.8C868.324 1091.51 857.71 1096 846.279 1097.64C824.642 1100.49 803.006 1091.51 785.86 1078.45C755.65 1054.77 736.871 1016.8 737.279 978.428C737.279 974.345 737.687 969.854 740.953 967.405C742.994 965.772 745.852 965.364 748.302 964.955C799.332 957.607 850.77 953.116 902.616 951.892C918.946 951.892 942.215 953.116 943.848 969.855Z" fill="white" stroke="black" stroke-width="20" stroke-miterlimit="10"/>
<path d="M852.135 1023.16C853.057 1014.19 847.078 1006.22 838.78 1005.37C830.481 1004.52 823.006 1011.1 822.084 1020.07C821.162 1029.04 827.141 1037.01 835.44 1037.86C843.738 1038.71 851.213 1032.13 852.135 1023.16Z" fill="black"/>
</svg>
