<svg width="1760" height="1760" viewBox="0 0 1760 1760" fill="none" xmlns="http://www.w3.org/2000/svg">
<rect width="1760" height="1760" fill="white"/>
<path d="M713.164 921.991C679.375 892.063 636.416 886.754 599.732 912.82C563.047 938.886 508.02 1016.12 486.298 1055.7C452.51 1116.52 447.683 1142.1 443.339 1211.61C438.995 1281.12 476.645 1360.29 543.257 1380.56C647.518 1412.42 746.952 1295.12 855.076 1308.64C931.341 1317.81 987.816 1389.73 1063.6 1401.8C1153.38 1416.28 1237.85 1337.6 1259.57 1249.27C1281.29 1160.93 1256.68 1068.25 1226.75 982.329C1203.1 914.751 1144.69 836.07 1181.38 774.767C1394.24 418.048 1259.57 392.464 1240.26 388.119C1184.27 376.052 1186.69 426.253 1110.42 459.077C1053.46 483.695 953.545 458.112 889.829 536.793C826.114 615.474 854.593 686.914 836.251 762.699C819.839 829.312 752.262 956.746 713.647 922.474L713.164 921.991Z" fill="#99E6FF" stroke="black" stroke-width="20" stroke-miterlimit="10"/>
<path d="M574.153 1210.17C562.569 1156.1 592.496 1098.66 637.386 1065.84C648.488 1058.12 660.073 1050.87 673.588 1047.98C698.688 1042.19 725.236 1049.91 746.958 1063.42C785.573 1087.56 811.638 1130.04 816.465 1174.93C816.465 1179.76 816.947 1185.07 813.569 1188.45C811.155 1190.86 808.259 1191.34 804.88 1192.31C745.509 1207.27 685.655 1218.37 625.319 1226.1C606.494 1228.51 578.498 1229.96 574.153 1210.17Z" fill="white" stroke="black" stroke-width="20" stroke-miterlimit="10"/>
<path d="M693.864 1156.1C703.728 1156.1 711.724 1147.46 711.724 1136.8C711.724 1126.13 703.728 1117.49 693.864 1117.49C684.001 1117.49 676.005 1126.13 676.005 1136.8C676.005 1147.46 684.001 1156.1 693.864 1156.1Z" fill="black"/>
</svg>
