<svg width="1760" height="1760" viewBox="0 0 1760 1760" fill="none" xmlns="http://www.w3.org/2000/svg">
<g clip-path="url(#clip0_10_335)">
<path d="M1760 0H0V1760H1760V0Z" fill="white"/>
<path d="M579.933 428.678C525.646 430.766 503.722 515.852 493.283 571.707C473.447 679.762 361.741 764.848 380.011 872.903C388.885 925.625 425.946 968.951 446.826 1018.02C472.925 1080.14 472.403 1150.09 471.881 1217.43C471.881 1246.66 471.359 1276.93 480.755 1305.12C503.722 1372.98 589.851 1411.61 655.621 1383.42C721.392 1355.23 751.667 1281.11 783.509 1216.9C815.35 1152.7 869.637 1092.67 940.627 1097.89C992.304 1101.54 1033.54 1136.51 1057.03 1182.97C1080.52 1229.43 1092 1281.11 1114.97 1327.05C1137.94 1372.98 1179.18 1416.31 1230.85 1420.48C1284.62 1424.66 1333.69 1384.47 1356.65 1335.92C1379.62 1287.37 1381.71 1232.04 1382.75 1178.28C1384.84 994.53 1373.36 810.785 1361.87 627.562C1359.26 588.411 1355.09 545.607 1326.9 518.985C1301.32 494.973 1262.17 491.319 1227.72 495.495C1193.27 499.671 1158.82 510.633 1123.32 510.633C1083.65 510.633 1043.98 497.583 1013.18 473.049C960.985 431.81 929.143 359.774 863.895 344.114C753.233 318.014 684.612 425.024 587 428.678L579.933 428.678Z" fill="#FCFFA6" stroke="black" stroke-width="20" stroke-miterlimit="10"/>
<path d="M534 866.118C521.472 807.654 553.314 746.057 601.859 710.561C613.865 702.209 626.392 694.379 641.008 691.247C668.152 684.983 696.86 693.335 720.35 707.951C762.109 734.051 790.297 779.987 795.517 828.534C795.517 833.754 796.039 839.497 792.385 843.151C789.775 845.761 786.643 846.282 782.989 847.326C718.785 863.508 654.058 875.515 588.809 883.867C568.452 886.477 538.698 887.52 534 866.118Z" fill="white" stroke="black" stroke-width="20" stroke-miterlimit="10"/>
<path d="M662.928 808.177C673.595 808.177 682.242 798.829 682.242 787.297C682.242 775.766 673.595 766.418 662.928 766.418C652.262 766.418 643.614 775.766 643.614 787.297C643.614 798.829 652.262 808.177 662.928 808.177Z" fill="black"/>
</g>
<defs>
<clipPath id="clip0_10_335">
<rect width="1760" height="1760" fill="white"/>
</clipPath>
</defs>
</svg>
