<svg width="1760" height="1760" viewBox="0 0 1760 1760" fill="none" xmlns="http://www.w3.org/2000/svg">
<g clip-path="url(#clip0_10_77)">
<path d="M1760 0H0V1760H1760V0Z" fill="white"/>
<path d="M362.252 752.694C343.609 789 362.252 835.608 393.16 862.592C406.406 874.366 422.595 883.197 439.766 884.669C478.523 887.613 508.45 854.251 542.792 836.098C588.418 811.568 648.271 815.493 689.972 846.401C731.673 877.31 753.751 932.749 743.939 983.773C735.108 1030.38 702.728 1071.59 703.709 1118.69C704.69 1176.58 766.016 1225.65 822.435 1213.87C901.422 1197.68 931.838 1097.6 1002.48 1058.84C1014.26 1052.46 1027.51 1047.55 1041.24 1047.06C1078.04 1045.1 1109.93 1072.57 1132.98 1101.52C1158.5 1132.92 1182.05 1169.22 1219.82 1184.43C1245.82 1194.74 1275.26 1193.26 1303.22 1190.81C1331.19 1188.36 1361.6 1184.92 1380.74 1164.32C1399.87 1143.71 1401.34 1112.8 1401.83 1084.35C1404.29 958.752 1406.25 833.155 1398.4 708.048C1395.95 667.328 1390.06 621.701 1358.17 596.189C1340.02 581.47 1316.47 576.074 1293.41 571.658C1232.09 559.393 1169.29 551.052 1106.98 546.637C1039.28 541.731 962.255 545.165 916.629 595.207C899.458 613.851 888.666 637.4 872.967 658.006C857.268 678.612 834.701 695.783 809.189 694.311C780.735 692.839 759.147 667.818 745.41 642.306C731.674 616.794 720.881 588.829 698.804 570.677C668.387 545.656 622.27 546.637 586.457 562.827C550.643 579.017 386.782 705.105 362.252 752.694Z" fill="#FF3B83" stroke="black" stroke-width="20" stroke-miterlimit="10"/>
<path d="M1115.32 681.556C1100.11 700.2 1113.36 810.097 1125.13 820.89C1135.92 830.703 1286.05 830.703 1295.37 824.815C1310.09 815.494 1297.82 696.275 1295.86 691.369C1290.46 676.16 1137.4 654.082 1115.32 681.066V681.556Z" fill="#F5F5F7" stroke="black" stroke-width="20" stroke-miterlimit="10"/>
<path d="M1221.29 763.488C1229.42 763.488 1236.01 756.898 1236.01 748.769C1236.01 740.64 1229.42 734.051 1221.29 734.051C1213.16 734.051 1206.57 740.64 1206.57 748.769C1206.57 756.898 1213.16 763.488 1221.29 763.488Z" fill="black" stroke="black" stroke-width="20" stroke-miterlimit="10"/>
</g>
<defs>
<clipPath id="clip0_10_77">
<rect width="1760" height="1760" fill="white"/>
</clipPath>
</defs>
</svg>
