<svg width="1760" height="1760" viewBox="0 0 1760 1760" fill="none" xmlns="http://www.w3.org/2000/svg">
<g clip-path="url(#clip0_10_365)">
<path d="M1760 0H0V1760H1760V0Z" fill="white"/>
<path d="M642.767 545.135C596.401 536.978 559.051 448.537 513.115 460.988C493.366 466.569 489.932 514.224 481.775 533.114C467.608 565.313 453.87 597.083 439.703 629.282C429.829 652.036 419.526 676.508 422.531 701.408C424.677 720.728 434.551 737.9 443.137 755.073C523.419 920.792 474.477 1117.85 492.938 1301.17C497.231 1344.53 512.256 1395.62 554.329 1407.64C587.815 1417.09 624.306 1394.33 641.479 1364.28C658.651 1334.23 661.657 1297.74 664.662 1262.53C674.107 1138.89 683.122 1015.24 692.567 892.027C696.431 842.226 710.169 779.974 759.11 769.241C792.596 761.943 826.083 785.984 841.538 816.037C856.993 846.089 858.71 881.724 859.998 915.64C863.862 1013.95 867.726 1112.7 871.589 1211.01C878.888 1399.49 962.603 1414.94 976.341 1416.66C1107.28 1435.98 989.221 983.044 1060.06 795.859C1075.08 756.362 1116.3 712.571 1152.79 734.466C1174.68 747.775 1178.55 778.257 1194 798.435C1220.19 832.352 1277.72 828.488 1307.77 797.576C1337.82 766.665 1343.4 718.581 1333.53 676.937C1323.65 635.293 1300.47 597.942 1278.58 561.02C1256.68 524.098 1235.22 485.459 1229.21 442.956C1224.48 408.181 1220.62 360.097 1185.42 356.233C1159.66 353.228 1141.63 379.846 1127.46 401.741C1019.7 567.889 805.905 573.041 643.196 545.135H642.767Z" fill="#9DC0EB" stroke="black" stroke-width="20" stroke-miterlimit="10"/>
<path d="M1097.41 542.56C1066.07 560.163 1066.5 609.964 1085.82 640.017C1088.82 644.739 1092.69 649.462 1097.41 652.896C1103.42 657.189 1111.15 659.336 1118.45 660.624C1145.49 665.347 1175.54 658.048 1194.43 638.299C1213.32 618.551 1218.05 585.922 1202.59 563.598C1193.15 549.859 1176.83 541.272 1160.52 537.838C1144.2 534.403 1123.6 527.964 1097.41 542.56Z" fill="white" stroke="black" stroke-width="20" stroke-miterlimit="10"/>
<path d="M1143.77 615.977C1151.12 615.977 1157.08 610.21 1157.08 603.097C1157.08 595.984 1151.12 590.217 1143.77 590.217C1136.42 590.217 1130.46 595.984 1130.46 603.097C1130.46 610.21 1136.42 615.977 1143.77 615.977Z" fill="black"/>
</g>
<defs>
<clipPath id="clip0_10_365">
<rect width="1760" height="1760" fill="white"/>
</clipPath>
</defs>
</svg>
