<svg width="1760" height="1760" viewBox="0 0 1760 1760" fill="none" xmlns="http://www.w3.org/2000/svg">
<rect width="1760" height="1760" fill="white"/>
<path d="M529.089 785.099C488.121 777.746 459.409 889.098 456.957 930.417C447.853 1090.79 457.307 1120.56 457.307 1290.03C457.307 1327.5 480.768 1368.47 516.833 1378.63C554.3 1388.78 590.366 1358.32 613.126 1326.8C635.886 1295.29 657.595 1258.17 694.712 1246.61C731.128 1235.41 770.345 1252.92 799.758 1277.08C829.171 1301.24 852.631 1332.05 883.795 1354.11C946.472 1398.93 1028.76 1402.09 1105.79 1403.49C1138.01 1404.19 1171.27 1404.54 1201.38 1392.28C1260.56 1367.77 1289.62 1300.89 1302.23 1238.21C1307.48 1211.25 1310.63 1181.83 1299.43 1156.62C1280.87 1115.65 1221.69 1076.43 1185.28 1102.35C1088.63 1170.28 1007.05 1166.78 958.027 1098.49C890.098 1004.3 980.787 925.164 1004.95 886.296C1076.73 772.143 1078.13 617.021 1039.61 487.461C1027.01 445.091 1000.05 398.519 955.927 396.068C918.81 394.317 887.996 426.532 874.691 460.848C861.385 495.164 859.634 533.332 849.479 569.049C839.325 604.765 822.868 645.034 779.449 670.596C687.708 724.871 687.359 669.195 686.658 695.808C685.958 722.42 694.712 745.881 698.213 771.443C701.715 797.005 698.213 825.718 678.955 842.176C660.747 857.583 633.085 857.583 611.025 847.778C588.965 837.974 561.303 790.702 529.439 784.749L529.089 785.099Z" fill="#FF3B83" stroke="black" stroke-width="20" stroke-miterlimit="10"/>
<path d="M942.623 769.691C965.033 803.307 959.781 849.879 938.071 883.844C932.819 892.248 926.516 899.952 918.463 905.554C903.406 916.059 883.097 917.81 864.889 914.308C832.675 908.356 803.612 886.645 788.556 857.232C787.155 854.08 785.404 850.579 786.805 847.427C787.855 845.326 789.606 843.926 791.357 842.525C827.423 816.963 864.889 793.152 903.756 772.142C916.012 765.489 934.22 757.786 942.273 769.691H942.623Z" fill="white" stroke="black" stroke-width="20" stroke-miterlimit="10"/>
<path d="M886.174 864.424C892.838 861.818 895.956 853.865 893.138 846.661C890.321 839.457 882.635 835.729 875.971 838.336C869.308 840.942 866.189 848.895 869.007 856.099C871.824 863.303 879.51 867.03 886.174 864.424Z" fill="black"/>
</svg>
