<svg width="1760" height="1760" viewBox="0 0 1760 1760" fill="none" xmlns="http://www.w3.org/2000/svg">
<rect width="1760" height="1760" fill="white"/>
<path d="M710.351 568.14C663.341 566.648 624.933 539.411 607.77 583.438C590.608 627.465 605.158 676.342 607.77 723.353C610.755 775.216 598.443 827.451 573.445 872.597C567.102 884.163 559.64 896.103 560.013 909.535C561.133 938.638 596.577 951.323 618.217 970.725C661.496 1009.9 648.811 1080.42 665.974 1136.39C683.509 1193.47 732.759 1234.89 759.995 1288.24C775.292 1318.84 783.127 1352.79 801.409 1381.52C819.691 1410.25 853.27 1434.13 886.103 1425.55C951.768 1408.76 986.466 1340.48 963.707 1221.83C956.245 1181.53 958.484 1139 970.05 1099.82C981.616 1060.64 1016.69 1024.08 1057.36 1028.18C1076.01 1030.05 1093.17 1040.12 1111.08 1045.72C1154.36 1059.9 1205.48 1047.21 1237.19 1014.75C1268.9 982.292 1280.47 931.175 1265.54 887.895C1246.89 833.794 1190.18 789.021 1200.25 732.681C1204.73 708.056 1221.52 687.535 1232.34 665.148C1243.16 642.762 1245.77 611.794 1226.74 595.75C1200.25 573.737 1161.45 597.989 1127.12 597.243C1069.67 595.75 1041.68 527.471 1030.49 471.132C1019.3 414.792 999.898 346.14 943.56 334.574C886.475 322.634 840.211 380.839 817.079 434.194C793.947 487.549 781.634 570.752 703.284 568.14H710.351Z" fill="#E6E1E1" stroke="black" stroke-width="20" stroke-miterlimit="10"/>
<path d="M853.272 665.894C814.843 704.697 821.558 802.079 841.333 862.896C844.69 872.597 848.422 881.924 853.272 888.64C859.615 897.595 867.077 901.699 874.912 904.311C902.894 913.639 933.861 899.088 952.89 859.165C971.918 819.242 977.141 753.575 961.098 708.801C951.024 681.191 934.981 664.029 917.818 656.566C900.655 649.104 877.523 641.269 853.272 665.894Z" fill="white" stroke="black" stroke-width="20" stroke-miterlimit="10"/>
<path d="M901.027 814.764C908.651 814.764 914.832 802.904 914.832 788.273C914.832 773.643 908.651 761.783 901.027 761.783C893.403 761.783 887.223 773.643 887.223 788.273C887.223 802.904 893.403 814.764 901.027 814.764Z" fill="black"/>
</svg>
