<svg width="1760" height="1760" viewBox="0 0 1760 1760" fill="none" xmlns="http://www.w3.org/2000/svg">
<rect width="1760" height="1760" fill="white"/>
<path d="M593 592.443C561.331 585.845 521.545 585.645 499.552 609.398C477.56 633.151 468.763 665.701 460.405 696.931C448.089 743.117 437.533 796.78 467.004 834.169C492.075 865.839 536.5 872.437 573.008 890.471C630.628 919.063 670.215 985.922 656.14 1048.82C639.426 1123.16 558.493 1171.99 548.816 1247.2C541.339 1304.38 583.125 1362.01 638.106 1378.72C693.088 1395.44 755.987 1374.76 795.134 1332.54C826.803 1298.23 843.957 1252.04 878.266 1220.37C907.736 1193.1 949.522 1179.02 989.549 1182.54C1011.1 1184.3 1032.65 1191.78 1048.93 1206.29C1087.2 1241.04 1081.92 1302.62 1106.99 1347.93C1131.62 1392.8 1187.04 1416.55 1237.63 1408.19C1288.21 1399.84 1331.75 1362.89 1352.43 1316.26C1373.1 1269.63 1372.22 1214.65 1355.51 1166.71C1322.08 1072.14 1228.83 995.599 1235.87 895.31C1241.59 816.574 1310.64 750.154 1305.8 671.859C1304.04 641.508 1288.65 609.838 1260.5 597.521C1197.6 569.81 1126.34 652.065 1062.56 626.553C1044.97 619.515 1031.33 604.999 1021.22 589.164C995.707 548.257 992.188 497.672 977.673 451.486C963.158 405.3 929.289 357.795 880.905 356.036C837.799 354.716 802.612 390.345 781.059 427.733C759.506 465.122 744.991 507.789 714.201 537.7C680.772 570.25 629.309 600.6 586.643 591.363L593 592.443Z" fill="#FF82C1" stroke="black" stroke-width="20" stroke-miterlimit="10"/>
<path d="M1017.26 818.332C1027.82 867.597 1000.54 919.941 959.638 949.852C949.522 956.89 938.965 963.488 926.649 966.127C903.777 971.405 879.585 964.367 859.791 952.051C824.603 930.058 800.851 891.35 796.452 850.442C796.452 846.044 796.012 841.205 799.091 838.126C801.291 835.927 803.93 835.487 807.009 834.607C861.111 820.971 915.653 810.855 970.635 803.817C987.789 801.617 1013.3 800.298 1017.26 818.332Z" fill="white" stroke="black" stroke-width="20" stroke-miterlimit="10"/>
<path d="M908.176 902.348C917.165 902.348 924.451 894.47 924.451 884.753C924.451 875.036 917.165 867.159 908.176 867.159C899.188 867.159 891.901 875.036 891.901 884.753C891.901 894.47 899.188 902.348 908.176 902.348Z" fill="black"/>
</svg>
