<svg width="1760" height="1760" viewBox="0 0 1760 1760" fill="none" xmlns="http://www.w3.org/2000/svg">
<rect width="1760" height="1760" fill="white"/>
<path d="M480.063 600.463C459.243 585.142 427.816 591.035 408.174 607.927C388.532 624.82 377.925 649.962 370.069 674.711C355.534 721.853 348.856 774.102 366.926 820.065C387.354 873.492 436.851 911.205 458.457 963.847C480.063 1017.67 469.85 1078.17 477.313 1135.52C484.384 1188.16 507.562 1238.84 542.917 1278.52C568.451 1307.59 601.842 1331.55 639.947 1338.23C674.124 1344.12 709.087 1336.27 742.478 1326.84C792.369 1312.7 843.83 1293.05 877.614 1253.38C915.719 1208.59 925.539 1143.38 967.573 1102.52C1010.78 1060.49 1076 1054.59 1132.56 1033.38C1213.1 1003.13 1279.88 937.526 1311.7 857.778C1392.62 653.105 1288.91 583.964 1253.56 560.393C1078.75 445.289 1200.92 634.248 863.079 699.068C798.654 711.246 559.809 658.605 480.456 600.463H480.063Z" fill="#FCFFA6" stroke="black" stroke-width="20" stroke-miterlimit="10"/>
<path d="M625.022 931.635C561.383 968.17 562.56 1071.88 601.844 1133.56C608.129 1143.38 615.594 1152.81 625.022 1159.88C637.2 1168.91 652.52 1173.24 667.448 1175.99C722.445 1185.81 783.335 1170.49 821.441 1129.63C859.546 1088.77 869.366 1021.6 837.546 975.634C817.904 947.349 785.692 929.671 752.301 921.814C718.91 913.957 678.055 901.386 625.022 931.635Z" fill="white" stroke="black" stroke-width="20" stroke-miterlimit="10"/>
<path d="M718.909 1084.45C733.879 1084.45 746.014 1072.32 746.014 1057.35C746.014 1042.38 733.879 1030.24 718.909 1030.24C703.938 1030.24 691.803 1042.38 691.803 1057.35C691.803 1072.32 703.938 1084.45 718.909 1084.45Z" fill="black"/>
</svg>
