<svg width="1760" height="1760" viewBox="0 0 1760 1760" fill="none" xmlns="http://www.w3.org/2000/svg">
<g clip-path="url(#clip0_10_359)">
<path d="M1760 0H0V1760H1760V0Z" fill="white"/>
<path d="M451.383 1089.13C383.082 1140.48 369.122 1250.66 422.965 1316.97C476.808 1383.28 587.487 1392.75 651.8 1336.41C701.156 1293.04 718.605 1224.73 732.564 1160.42C746.523 1096.11 760.483 1027.8 805.851 980.439C851.218 933.075 939.959 920.611 978.348 973.459C992.307 992.404 997.293 1015.84 1002.28 1038.77C1018.23 1111.56 1036.68 1186.84 1082.04 1246.17C1127.41 1305.5 1223.13 1317.47 1293.43 1291.54C1337.8 1275.09 1350.26 1238.19 1371.2 1195.82C1421.56 1092.12 1414.58 984.925 1345.78 892.193C1309.88 843.833 1260.53 805.444 1234.1 752.098C1209.18 701.743 1202.69 637.927 1230.11 589.068C1263.02 530.238 1365.22 480.881 1267.01 366.711C1237.59 332.31 1169.29 431.025 1126.42 445.982C1047.65 472.904 965.884 444.486 885.119 426.039C809.34 408.59 799.369 352.252 756.992 353.249C715.114 354.246 685.7 452.463 655.288 480.881C614.407 518.771 577.515 518.772 571.034 574.61C567.544 604.524 575.022 633.939 580.506 663.354C606.431 813.919 579.51 994.897 452.381 1090.12L451.383 1089.13Z" fill="#FFF570" stroke="black" stroke-width="20" stroke-miterlimit="10"/>
<path d="M848.724 623.966C804.852 654.378 805.849 742.124 832.77 793.975C837.257 802.45 842.243 810.427 848.724 815.912C857.199 823.39 867.67 827.379 877.641 829.373C915.53 837.35 957.408 824.886 983.333 790.485C1009.26 756.085 1016.24 699.248 994.301 660.859C980.84 636.928 958.903 621.972 935.471 615.491C912.039 609.01 884.619 598.54 848.724 623.966Z" fill="white" stroke="black" stroke-width="20" stroke-miterlimit="10"/>
<path d="M913.038 752.596C923.225 752.596 931.484 742.329 931.484 729.663C931.484 716.997 923.225 706.729 913.038 706.729C902.85 706.729 894.592 716.997 894.592 729.663C894.592 742.329 902.85 752.596 913.038 752.596Z" fill="black"/>
</g>
<defs>
<clipPath id="clip0_10_359">
<rect width="1760" height="1760" fill="white"/>
</clipPath>
</defs>
</svg>
