<svg width="1760" height="1760" viewBox="0 0 1760 1760" fill="none" xmlns="http://www.w3.org/2000/svg">
<g clip-path="url(#clip0_10_353)">
<path d="M1760 0H0V1760H1760V0Z" fill="white"/>
<path d="M506.403 449.332C476.957 456.09 443.648 466.71 445.096 497.122C446.062 519.328 462.957 538.154 467.784 559.877C480.818 620.701 405.513 660.768 379.929 717.248C357.241 766.969 376.551 826.345 406.48 871.721C436.408 917.098 477.439 955.233 504.471 1002.54C536.331 1058.54 547.433 1123.71 565.776 1185.5C584.119 1247.29 612.118 1311.01 666.182 1345.76C724.591 1383.9 808.101 1378.59 861.682 1333.21C883.887 1313.9 900.783 1289.28 921.057 1268.04C966.915 1219.77 1030.63 1189.36 1097.25 1184.53C1139.25 1181.63 1182.69 1188.39 1223.72 1177.29C1278.27 1162.81 1365.16 1090.4 1383.02 1036.82C1400.88 983.232 1387.36 954.268 1353.09 909.857C1307.23 850.481 1256.55 793.036 1248.82 731.729C1241.58 673.319 1271.03 615.874 1307.71 569.532C1332.81 538.154 1363.23 498.571 1344.88 463.331C1331.37 437.264 1297.09 430.022 1268.13 432.436C1159.04 441.125 1079.87 538.637 978.501 579.669C924.436 601.392 862.165 606.219 808.583 584.979C760.794 566.153 612.6 425.195 507.367 449.332H506.403Z" fill="#84FAB0" stroke="black" stroke-width="20" stroke-miterlimit="10"/>
<path d="M909.468 925.785C923.467 897.786 937.467 863.513 921.055 836.48C910.435 819.584 890.16 810.412 870.852 804.62C846.233 796.896 820.167 791.586 794.583 794.965C768.999 798.344 743.896 811.377 731.345 833.583C718.312 857.237 721.209 886.201 726.036 912.268C735.69 961.507 753.068 1010.26 787.341 1047.92C791.203 1051.78 795.065 1056.12 799.892 1058.05C811.477 1063.36 825.477 1058.05 833.683 1048.4C841.889 1038.75 896.853 950.826 913.265 918L909.468 925.785Z" fill="white" stroke="black" stroke-width="20" stroke-miterlimit="10"/>
<path d="M860.882 837.461C862.818 825.891 853.09 814.621 839.154 812.289C825.219 809.957 812.352 817.446 810.416 829.015C808.48 840.585 818.207 851.855 832.143 854.187C846.079 856.519 858.946 849.03 860.882 837.461Z" fill="black"/>
</g>
<defs>
<clipPath id="clip0_10_353">
<rect width="1760" height="1760" fill="white"/>
</clipPath>
</defs>
</svg>
