<svg width="1760" height="1760" viewBox="0 0 1760 1760" fill="none" xmlns="http://www.w3.org/2000/svg">
<path d="M1760 0H0V1760H1760V0Z" fill="white"/>
<path d="M527.223 619.746C477.107 593.912 421.308 660.046 399.609 712.23C366.543 791.28 375.842 886.348 423.375 957.648C459.024 1011.38 509.14 1063.57 540.14 1119.88C564.939 1164.83 577.855 1204.1 594.905 1252.67C611.955 1301.23 641.404 1350.83 689.97 1367.37C782.968 1399.4 865.116 1298.65 958.115 1266.62C1009.78 1249.05 1065.58 1253.18 1120.35 1248.02C1194.74 1241.3 1270.17 1215.47 1322.36 1161.73C1374.54 1108 1397.27 1022.75 1365.24 955.065C1340.96 903.914 1289.29 868.264 1270.69 815.047C1250.54 758.213 1270.69 690.013 1240.73 637.312C1198.88 565.495 1100.71 619.229 1039.75 496.778C1024.25 465.261 1014.95 431.678 1002.55 399.127C990.148 366.577 962.248 334.027 927.115 336.093C903.349 337.643 883.716 354.177 869.767 373.294C828.434 430.644 829.984 506.595 817.584 575.829C805.184 645.063 762.819 722.046 692.554 726.696C625.905 730.83 587.672 651.263 527.223 619.746Z" fill="#B7ABFF" stroke="black" stroke-width="20" stroke-miterlimit="10"/>
<path d="M975.163 712.747C924.531 745.814 933.315 828.481 959.664 879.631C963.798 887.898 968.963 895.648 975.163 901.332C983.43 908.565 993.764 912.698 1003.58 914.765C1040.26 922.515 1081.08 910.115 1106.91 876.531C1132.74 842.947 1138.94 787.148 1117.76 749.431C1104.84 726.18 1083.15 711.197 1060.41 704.997C1037.68 698.797 1007.2 692.08 975.163 712.747Z" fill="white" stroke="black" stroke-width="20" stroke-miterlimit="10"/>
<path d="M1038.19 838.815C1048.18 838.815 1056.28 828.869 1056.28 816.599C1056.28 804.329 1048.18 794.381 1038.19 794.381C1028.21 794.381 1020.11 804.329 1020.11 816.599C1020.11 828.869 1028.21 838.815 1038.19 838.815Z" fill="black"/>
</svg>
