<svg width="1760" height="1760" viewBox="0 0 1760 1760" fill="none" xmlns="http://www.w3.org/2000/svg">
<rect width="1760" height="1760" fill="white"/>
<path d="M623.11 567.88C571.498 567.509 523.969 608.355 506.889 660.34C489.809 712.325 501.32 772.108 530.282 817.41C551.818 851.2 584.122 880.906 589.691 921.38C595.261 960.369 574.467 998.244 551.446 1029.06C528.425 1059.88 501.69 1089.59 491.293 1127.47C480.897 1165.34 495.378 1214.73 531.024 1224.75C562.215 1233.29 591.92 1209.9 622.739 1200.62C664.697 1187.99 712.967 1203.96 740.445 1239.6C766.808 1273.4 774.235 1320.55 799.485 1355.46C837.359 1407.44 914.591 1419.33 964.719 1381.08C1031.18 1330.21 1034.15 1223.27 1088.74 1157.91C1135.15 1102.21 1214.24 1084.02 1252.86 1021.64C1283.31 972.623 1278.85 901.7 1242.09 857.513C1208.3 817.038 1153.35 799.215 1127.35 752.428C1106.19 714.553 1109.9 666.653 1119.56 623.579C1129.21 580.505 1197.53 490.645 1207.19 447.2C1228.72 348.428 1144.06 376.649 1102.85 373.307C971.402 362.538 975.115 472.079 997.023 570.48C1025.24 695.987 836.987 708.241 723.736 680.391C623.853 655.513 662.47 567.88 623.11 567.509V567.88Z" fill="#99E6FF" stroke="black" stroke-width="20" stroke-miterlimit="10"/>
<path d="M860.008 905.414C788.345 938.833 800.97 1022.75 838.101 1074.37C844.042 1082.53 851.097 1090.7 860.008 1096.27C871.519 1103.7 886.001 1107.41 900.111 1109.64C952.095 1117.81 1009.65 1105.19 1045.67 1071.02C1081.68 1036.86 1090.97 980.421 1060.89 942.175C1042.32 918.41 1011.88 903.557 980.315 897.245C948.753 890.932 905.68 884.249 860.008 905.414Z" fill="white" stroke="black" stroke-width="20" stroke-miterlimit="10"/>
<path d="M949.126 1033.15C963.276 1033.15 974.745 1023.01 974.745 1010.5C974.745 997.989 963.276 987.848 949.126 987.848C934.976 987.848 923.505 997.989 923.505 1010.5C923.505 1023.01 934.976 1033.15 949.126 1033.15Z" fill="black"/>
</svg>
