<svg width="1760" height="1760" viewBox="0 0 1760 1760" fill="none" xmlns="http://www.w3.org/2000/svg">
<rect width="1760" height="1760" fill="white"/>
<path d="M405.262 619.016C371.274 675.859 364.242 745.008 360.726 811.813C353.694 933.118 352.523 1055.01 371.275 1175.14C374.205 1195.65 378.892 1217.33 394.714 1231.4C406.434 1241.95 422.842 1245.46 438.664 1248.39C494.92 1258.94 560.551 1263.63 601.571 1223.19C634.973 1190.38 639.075 1139.39 643.763 1092.51C649.623 1033.33 660.756 970.622 701.776 928.43C742.795 886.237 824.835 879.791 855.893 930.188C878.161 966.52 866.44 1012.82 857.064 1055.01C847.688 1097.2 845.345 1147.6 878.161 1174.55C895.155 1188.62 918.595 1192.13 940.276 1195.65C976.022 1200.92 1011.77 1206.2 1047.51 1211.47C1133.65 1224.37 1233.86 1231.98 1293.63 1169.28C1329.96 1131.19 1341.1 1076.69 1350.47 1025.71C1353.4 1010.47 1356.33 994.649 1350.47 980.585C1345.79 968.864 1335.82 960.074 1325.86 952.456C1278.98 917.295 1214.52 895.613 1194.01 840.528C1168.81 774.309 1235.03 698.713 1305.94 697.541C1320.59 697.541 1335.24 699.299 1349.89 695.197C1392.08 684.063 1405.56 631.322 1408.49 587.957C1409.66 572.135 1409.66 555.726 1402.04 541.662C1387.39 513.534 1349.89 508.26 1318.24 506.501C1234.45 501.813 1135.41 504.157 1087.36 573.307C1052.79 622.532 1053.96 696.369 1004.74 730.358C976.022 749.696 936.175 748.524 905.703 731.53C875.231 714.535 854.72 683.477 845.93 649.488C838.898 623.704 838.312 596.161 826.006 573.307C807.841 538.732 766.821 519.98 727.56 518.222C688.298 516.464 438.663 563.345 404.675 620.188L405.262 619.016Z" fill="#FFF570" stroke="black" stroke-width="20" stroke-miterlimit="10"/>
<path d="M503.71 814.742C531 829.586 656.069 796.576 668.375 786.028C678.923 776.651 665.447 664.137 657.243 658.277C644.351 648.901 504.883 675.271 499.023 677.616C481.443 684.062 469.723 801.85 503.71 814.742Z" fill="#F5F5F7" stroke="black" stroke-width="20" stroke-miterlimit="10"/>
<path d="M575.198 735.633C582.642 735.633 588.677 729.599 588.677 722.155C588.677 714.711 582.642 708.677 575.198 708.677C567.755 708.677 561.722 714.711 561.722 722.155C561.722 729.599 567.755 735.633 575.198 735.633Z" fill="#000014" stroke="black" stroke-width="20" stroke-miterlimit="10"/>
</svg>
