<svg width="1760" height="1760" viewBox="0 0 1760 1760" fill="none" xmlns="http://www.w3.org/2000/svg">
<rect width="1760" height="1760" fill="white"/>
<path d="M533.848 401.73C517.878 364.589 402.744 515.01 490.394 650.573C523.448 701.827 594.014 726.34 612.956 784.651C634.868 851.505 581.386 917.986 529.019 964.784C476.652 1011.58 415 1063.58 415 1134.15C415 1199.51 481.109 1256.71 545.361 1247.05C587.7 1240.74 622.612 1211.77 657.894 1187.26C693.177 1162.74 735.517 1140.46 777.485 1150.86C816.853 1160.89 843.964 1197.28 860.677 1234.43C932.728 1396.73 999.209 1413.82 1063.46 1400.82C1143.68 1384.47 1152.22 1221.8 1152.22 1068.41C1152.22 1048.72 1152.6 1028.67 1161.51 1010.84C1184.54 964.412 1248.79 962.555 1296.7 941.757C1344.24 920.958 1379.89 874.903 1388.06 823.277C1403.29 724.112 1242.85 587.062 1211.28 575.92C1138.85 550.293 1077.57 601.176 1003.29 581.12C954.269 567.749 867.734 535.808 790.484 485.668C650.095 395.045 569.826 481.31 539 410L533.848 401.73Z" fill="#DAD4FF" stroke="black" stroke-width="20" stroke-miterlimit="10"/>
<path d="M1047.86 795.793C1059.37 846.305 1029.66 899.787 985.095 930.243C974.325 937.671 962.44 943.985 949.441 946.956C924.558 952.527 898.189 945.099 876.648 932.471C838.394 910.187 812.024 870.446 807.567 828.477C807.196 824.02 807.196 819.192 810.167 815.849C812.396 813.621 815.366 812.878 818.709 812.135C877.389 798.393 937.185 787.622 997.352 780.566C1016.29 778.337 1043.78 777.594 1047.86 795.793Z" fill="white" stroke="black" stroke-width="20" stroke-miterlimit="10"/>
<path d="M929.015 881.958C938.86 881.958 946.842 873.977 946.842 864.131C946.842 854.285 938.86 846.303 929.015 846.303C919.169 846.303 911.188 854.285 911.188 864.131C911.188 873.977 919.169 881.958 929.015 881.958Z" fill="black"/>
</svg>
