<svg width="1760" height="1760" viewBox="0 0 1760 1760" fill="none" xmlns="http://www.w3.org/2000/svg">
<rect width="1760" height="1760" fill="white"/>
<path d="M767.461 389.51C676.084 435.013 705.548 580.475 710.397 682.298C712.262 724.817 709.277 775.915 672.354 797.175C664.148 802.023 654.452 804.634 647.739 811.721C630.955 829.251 643.636 857.224 651.095 879.976C670.49 938.16 646.247 1007.91 595.15 1041.85C551.886 1070.57 492.956 1075.04 458.27 1113.83C444.844 1128.75 437.385 1154.11 451.931 1168.29C463.493 1179.48 482.514 1176.87 497.433 1182.46C522.795 1191.79 533.61 1222.37 533.237 1249.22C532.864 1276.08 525.032 1302.56 526.524 1329.41C528.016 1356.27 543.68 1385.73 570.534 1389.46C598.88 1393.57 622.749 1367.08 630.955 1339.86C639.16 1312.63 638.414 1283.16 648.111 1256.31C657.808 1229.46 684.29 1204.47 711.889 1211.93C733.894 1217.89 746.202 1241.39 750.305 1263.77C754.408 1286.15 753.289 1309.27 760.748 1330.91C768.207 1352.54 788.72 1371.93 811.098 1367.83C827.881 1364.47 839.444 1348.81 844.292 1332.4C849.141 1315.99 848.021 1298.46 849.513 1281.67C851.378 1256.68 858.465 1230.95 875.995 1213.04C893.524 1195.14 923.361 1187.68 944.247 1201.11C967.371 1216.03 971.848 1247.73 971.475 1275.33C971.102 1302.93 968.491 1333.14 984.529 1355.52C1000.57 1377.53 1032.64 1384.99 1058 1374.92C1083.37 1364.85 1101.27 1339.86 1106.12 1313C1112.08 1279.81 1101.27 1240.65 1123.27 1215.28C1141.55 1194.4 1173.62 1193.65 1200.85 1198.87C1228.08 1204.09 1255.68 1213.79 1282.9 1207.82C1304.54 1202.97 1322.81 1188.8 1338.1 1172.76C1360.48 1149.27 1379.5 1116.44 1369.06 1085.86C1356.38 1048.19 1308.64 1035.88 1282.9 1005.3C1230.69 943.009 1274.7 755.401 1240.76 731.531C1202.34 704.676 1175.11 768.083 1127 793.818C1004.3 859.089 937.534 756.52 931.567 703.184C926.718 660.292 940.145 611.805 946.485 568.912C952.826 526.02 963.269 480.89 944.621 441.727C925.972 402.564 872.265 338.412 767.834 390.629L767.461 389.51Z" fill="#FFF570" stroke="black" stroke-width="20" stroke-miterlimit="10"/>
<path d="M812.966 989C812.965 975.5 816.322 956.435 830.122 940.024C851.754 914.662 890.17 905.337 921.127 917.646C952.083 929.954 973.341 963.149 971.85 996.344C971.85 998.209 971.85 1000.07 970.359 1001.94C968.867 1004.18 966.256 1004.92 963.645 1005.67C909.565 1020.21 820.052 1010.28 812.966 993.5L812.966 989Z" fill="#FAFCFF" stroke="black" stroke-width="20" stroke-miterlimit="10"/>
<path d="M893.894 973.968C900.073 973.968 905.083 968.958 905.083 962.778C905.083 956.599 900.073 951.589 893.894 951.589C887.714 951.589 882.705 956.599 882.705 962.778C882.705 968.958 887.714 973.968 893.894 973.968Z" fill="black" stroke="black" stroke-width="20" stroke-miterlimit="10"/>
</svg>
