<svg width="1760" height="1760" viewBox="0 0 1760 1760" fill="none" xmlns="http://www.w3.org/2000/svg">
<rect width="1760" height="1760" fill="white"/>
<path d="M583.191 763.073C569.156 757.544 555.971 743.933 547.465 757.118C538.959 770.303 537.682 786.04 537.257 800.926C536.832 834.952 542.786 871.529 566.178 896.623C592.972 925.545 639.331 934.902 657.194 970.204C673.356 1000.83 660.597 1039.11 641.458 1068.03C627.848 1088.87 610.41 1108.01 587.443 1117.36C536.831 1137.78 456.873 1107.58 405.836 1126.3C360.328 1143.31 357.777 1198.6 374.364 1244.11C390.951 1289.62 439.011 1319.82 487.496 1322.79C507.061 1324.07 527.05 1321.09 544.488 1312.16C575.961 1296 594.249 1263.25 616.365 1236.03C648.689 1196.47 695.473 1165.43 746.51 1162.02C797.547 1158.62 852.411 1187.12 869.849 1235.6C880.057 1263.68 877.08 1294.72 877.93 1324.92C878.781 1355.12 884.735 1387.44 907.277 1407.43C940.451 1436.78 997.017 1422.32 1024.66 1387.44C1052.31 1352.57 1058.26 1305.78 1057.41 1261.12C1056.99 1227.1 1053.58 1191.37 1069.32 1161.17C1094.84 1111.41 1168.84 1099.08 1214.35 1131.83C1244.97 1153.94 1268.79 1193.92 1306.64 1193.92C1327.48 1193.92 1347.05 1180.74 1358.96 1163.72C1370.86 1146.71 1377.24 1126.3 1382.77 1105.88C1390.85 1076.11 1397.23 1045.49 1394.26 1015.29C1391.28 985.09 1377.24 954.042 1351.72 937.029C1316.85 914.061 1267.51 920.441 1235.19 894.497C1207.12 871.955 1199.89 831.549 1206.69 796.248C1213.5 760.946 1231.36 729.047 1245.82 696.297C1260.28 663.547 1271.34 626.97 1264.11 592.094C1261.13 579.334 1255.6 566.574 1245.82 558.068C1188.83 508.731 1165.44 596.772 1085.91 628.671C1029.76 651.213 956.612 646.109 929.818 591.668C887.712 506.179 913.231 443.656 880.482 376.881C847.733 310.106 784.361 339.878 765.648 363.271C709.507 433.449 775.855 595.071 761.82 658.869C747.785 722.667 675.908 799.65 583.191 763.073Z" fill="#21DB91" stroke="black" stroke-width="20" stroke-miterlimit="10"/>
<path d="M974.898 969.779C991.91 957.445 988.932 905.555 988.932 873.231C988.932 861.322 988.933 848.988 985.53 838.78C980.001 821.767 967.668 817.089 956.61 814.537C934.919 809.858 913.228 809.007 891.537 812.41C887.71 812.835 883.881 813.686 880.479 816.663C872.398 823.894 869.421 841.332 867.72 856.644C864.318 883.439 862.191 910.659 860.489 937.88C860.489 944.685 859.639 951.915 861.765 958.295C864.742 968.078 871.973 971.055 878.353 972.756C912.803 981.688 952.356 986.367 974.898 969.779Z" fill="white" stroke="black" stroke-width="20" stroke-miterlimit="10"/>
<path d="M924.286 852.816C931.333 852.816 937.045 847.104 937.045 840.057C937.045 833.01 931.333 827.297 924.286 827.297C917.239 827.297 911.527 833.01 911.527 840.057C911.527 847.104 917.239 852.816 924.286 852.816Z" fill="black" stroke="black" stroke-width="20" stroke-miterlimit="10"/>
</svg>
