<svg width="1760" height="1760" viewBox="0 0 1760 1760" fill="none" xmlns="http://www.w3.org/2000/svg">
<g clip-path="url(#clip0_10_378)">
<path d="M1760 0H0V1760H1760V0Z" fill="white"/>
<path d="M739.153 382.981C706.907 388.893 680.825 410.079 665.65 440.133C641.465 486.447 639.568 581.538 650 679.092C670.392 871.244 580.291 793.89 535.241 834.291C514.849 853.014 522.91 886.517 525.281 915.093C530.023 970.768 503.942 1023.98 487.344 1077.19C470.747 1130.4 444.191 1228.94 540.931 1253.58C685.567 1290.53 671.34 1356.06 684.144 1375.77C696.948 1395.47 720.659 1410.75 740.576 1399.91C747.689 1395.97 752.906 1389.56 757.174 1382.66C776.617 1350.15 772.823 1308.76 764.761 1271.31C756.7 1233.87 744.369 1196.42 749.112 1158.98C752.905 1128.92 768.08 1100.35 790.843 1081.13C817.873 1057.98 860.553 1050.09 887.109 1073.74C910.82 1094.93 912.718 1132.87 906.079 1164.4C899.44 1195.93 885.212 1225.99 882.841 1258.5C881.893 1269.34 882.841 1280.68 889.006 1289.54C896.594 1300.38 909.872 1304.82 922.202 1308.76C967.727 1322.06 1024.16 1332.41 1056.4 1296.44C1070.16 1281.17 1076.32 1260.47 1082.01 1240.27C1089.6 1213.18 1097.19 1186.57 1105.25 1159.47C1109.99 1142.23 1115.21 1124 1112.36 1106.26C1108.57 1081.63 1091.5 1061.92 1078.22 1041.22C1058.3 1010.18 1045.97 972.739 1051.66 935.787C1057.35 898.834 1083.91 864.839 1119.48 858.434C1147.93 853.507 1177.33 865.824 1204.83 858.434C1245.62 847.594 1264.11 800.295 1277.39 758.909C1293.99 706.683 1310.58 654.457 1327.18 602.724C1341.88 556.903 1356.11 511.082 1363.22 463.29C1364.17 457.378 1364.65 450.973 1362.27 445.061C1358.48 437.178 1349 433.728 1340.93 431.758C1279.76 415.499 1204.36 377.561 1155.52 419.44C1090.07 476.1 1164.53 682.048 938.325 621.939C840.636 595.826 876.677 590.406 855.337 454.422C848.698 413.035 806.493 370.17 739.628 381.995L739.153 382.981Z" fill="#DEB0FF" stroke="black" stroke-width="20" stroke-miterlimit="10"/>
<path d="M864.346 901.554C896.593 871.992 882.841 807.191 864.346 763.834C861.501 756.936 857.707 750.531 853.439 745.604C847.748 739.199 841.11 736.243 834.471 734.765C809.811 728.853 783.729 740.677 767.606 769.747C751.482 798.816 749.112 847.1 763.813 879.125C772.823 898.833 787.522 911.151 802.697 916.078C817.872 921.005 843.481 920.276 864.346 901.554Z" fill="white" stroke="black" stroke-width="20" stroke-miterlimit="10"/>
<path d="M814.351 840.066C820.895 839.837 825.921 831.053 825.577 820.447C825.233 809.841 819.649 801.428 813.106 801.657C806.562 801.887 801.536 810.671 801.88 821.277C802.224 831.883 807.807 840.295 814.351 840.066Z" fill="black"/>
</g>
<defs>
<clipPath id="clip0_10_378">
<rect width="1760" height="1760" fill="white"/>
</clipPath>
</defs>
</svg>
