<svg width="1760" height="1760" viewBox="0 0 1760 1760" fill="none" xmlns="http://www.w3.org/2000/svg">
<rect width="1760" height="1760" fill="white"/>
<path d="M892.366 384.541C868.327 388.43 858.782 378.177 846.409 389.49C834.036 400.803 828.025 417.42 822.723 433.328C802.925 490.6 783.128 547.519 763.331 604.791C755.2 628.124 745.655 653.578 724.797 666.659C702.172 680.8 672.829 676.911 648.083 685.749C609.195 699.891 587.63 749.385 603.539 787.566C609.195 801 618.74 812.667 623.69 826.455C631.821 848.02 628.639 872.06 625.104 895.04C619.094 936.403 610.256 982.362 576.672 1007.11C562.884 1017.36 545.562 1023.37 534.603 1036.1C525.058 1047.06 520.815 1061.91 517.633 1076.4C511.27 1103.27 505.968 1130.14 501.725 1157.36C499.958 1167.97 498.544 1178.93 502.786 1188.82C510.21 1207.21 533.542 1213.22 553.339 1212.86C573.136 1212.51 593.64 1207.56 612.377 1213.22C617.68 1214.99 623.337 1217.81 626.518 1222.41C630.407 1228.42 630.053 1235.84 629.346 1242.56C626.518 1276.5 624.043 1310.44 621.215 1344.38C620.508 1353.22 620.155 1362.76 625.104 1369.48C628.993 1375.13 635.709 1377.61 642.072 1380.08C662.577 1387.86 683.435 1394.23 704.646 1399.17C728.332 1404.83 755.907 1408.01 774.997 1392.81C794.087 1377.26 796.562 1349.33 795.502 1324.93C794.441 1300.54 791.259 1274.02 803.632 1252.81C824.49 1217.46 874.337 1216.4 915.699 1219.58C946.809 1222.06 977.918 1224.53 1009.38 1227.01C1034.48 1229.13 1062.06 1230.54 1082.91 1216.4C1103.77 1202.26 1112.61 1176.1 1115.08 1151C1116.85 1133.67 1116.5 1116 1121.8 1099.73C1127.1 1083.47 1140.54 1067.92 1157.86 1066.86C1165.29 1066.5 1173.06 1068.62 1180.49 1068.98C1208.06 1069.68 1229.98 1039.99 1227.86 1012.41C1225.74 984.837 1205.23 961.504 1181.55 947.362C1172.71 942.059 1162.46 937.11 1158.21 927.918C1154.68 920.14 1159.63 837.768 1156.45 832.818C1152.2 825.394 1071.96 832.111 1063.47 832.111C967.666 832.111 898.377 812.314 892.72 804.889C886.71 797.112 868.681 700.598 887.064 635.195C892.367 616.104 898.376 597.013 910.042 581.104C931.961 550.701 969.434 536.206 1003.73 521.358C1038.02 506.509 1074.43 485.298 1086.45 449.944C1101.65 406.107 1065.59 353.077 1019.63 350.249C976.151 347.774 939.031 377.117 892.366 384.895V384.541Z" fill="#FCFFA6" stroke="black" stroke-width="20" stroke-miterlimit="10"/>
<path d="M819.5 1076.5C833.641 1066.25 828.381 1025.49 828.381 998.624C828.381 988.725 828.38 978.473 825.552 969.988C820.956 955.847 810.705 951.958 801.513 949.837C783.483 945.948 765.454 945.241 747.424 948.07C744.243 948.423 741.061 949.13 738.232 951.605C731.515 957.615 729.041 972.109 727.627 984.837C724.799 1007.11 723.031 1029.74 721.617 1052.36C721.617 1058.02 720.911 1064.03 722.678 1069.33C725.153 1077.46 731.162 1079.94 736.465 1081.35C765.1 1088.77 799.038 1092.66 817.775 1078.88L819.5 1076.5Z" fill="white" stroke="black" stroke-width="20" stroke-miterlimit="10"/>
<path d="M806.814 1071.1C812.672 1071.1 817.42 1066.35 817.42 1060.49C817.42 1054.64 812.672 1049.89 806.814 1049.89C800.957 1049.89 796.209 1054.64 796.209 1060.49C796.209 1066.35 800.957 1071.1 806.814 1071.1Z" fill="black" stroke="black" stroke-width="20" stroke-miterlimit="10"/>
</svg>
