<svg width="1760" height="1760" viewBox="0 0 1760 1760" fill="none" xmlns="http://www.w3.org/2000/svg">
<g clip-path="url(#clip0_10_371)">
<path d="M1760 0H0V1760H1760V0Z" fill="white"/>
<path d="M592.425 631.277C570.296 604.95 525.275 611.055 502.002 636.237C478.728 661.419 473.386 698.048 474.149 732.387C475.675 773.212 483.306 818.998 457.361 850.285C448.967 860.586 437.14 868.217 428.746 878.519C408.143 902.556 406.236 936.895 405.473 968.564C405.473 980.773 405.091 993.746 411.196 1004.43C416.156 1012.82 423.786 1018.55 431.417 1024.27C452.783 1041.82 471.479 1065.09 474.913 1092.57C478.347 1120.04 463.847 1150.94 437.14 1158.95C426.075 1162.39 413.484 1161.24 402.42 1165.06C374.949 1174.6 365.793 1208.17 360.833 1237.17C357.399 1255.87 354.346 1274.94 357.017 1293.64C359.688 1312.34 369.99 1331.03 387.159 1339.43C401.276 1345.91 417.3 1344.77 432.562 1343.62C539.392 1334.47 646.222 1325.31 753.052 1316.15C785.101 1313.48 817.913 1310.43 848.436 1299.75C878.959 1289.06 907.575 1268.84 921.692 1239.84C931.993 1219.24 933.901 1195.58 934.664 1172.69C936.19 1128.05 932.757 1081.5 949.544 1039.91C966.332 998.324 1011.35 963.604 1054.08 977.339C1098.72 991.456 1114.37 1048.31 1108.64 1094.85C1102.16 1150.56 1053.7 1202.07 1079.27 1248.24C1103.3 1290.97 1271.56 1295.55 1281.48 1292.88C1308.95 1285.25 1318.87 1252.43 1324.21 1224.58C1350.92 1081.88 1366.56 937.277 1371.9 792.671C1372.67 774.738 1369.62 683.549 1334.9 673.247C1302.08 663.708 1268.51 657.985 1234.55 656.459C1204.79 654.933 1170.45 654.933 1151.38 632.04C1138.02 616.015 1136.5 592.74 1140.69 572.137C1147.94 537.035 1168.93 506.893 1183.04 474.08C1197.16 441.267 1203.65 400.823 1183.04 371.825C1155.57 332.907 1091.86 337.486 1057.14 369.918C1022.42 402.349 1010.97 452.713 1007.16 500.025C1004.1 540.087 1010.59 580.15 1010.59 620.212C1010.59 687.364 1000.29 694.232 975.107 701.481C848.436 738.11 725.582 754.516 635.539 746.504C587.084 741.925 617.606 661.038 592.425 631.277Z" fill="#FF82C1" stroke="black" stroke-width="20" stroke-miterlimit="10"/>
<path d="M682.849 932.315C693.914 926.592 718.713 933.078 736.264 946.432C763.353 967.036 775.944 1005.19 765.261 1037.62C754.578 1070.05 722.529 1094.09 688.572 1094.85C686.664 1094.85 684.757 1094.85 682.849 1093.71C680.56 1092.56 679.416 1089.89 678.653 1087.22C659.957 1033.04 665.298 941.091 681.704 932.315H682.849Z" fill="#FAFCFF" stroke="black" stroke-width="20" stroke-miterlimit="10"/>
<path d="M745.041 1019.69C751.363 1019.69 756.487 1014.57 756.487 1008.24C756.487 1001.92 751.363 996.799 745.041 996.799C738.72 996.799 733.596 1001.92 733.596 1008.24C733.596 1014.57 738.72 1019.69 745.041 1019.69Z" fill="black" stroke="black" stroke-width="20" stroke-miterlimit="10"/>
</g>
<defs>
<clipPath id="clip0_10_371">
<rect width="1760" height="1760" fill="white"/>
</clipPath>
</defs>
</svg>
