<svg width="1760" height="1760" viewBox="0 0 1760 1760" fill="none" xmlns="http://www.w3.org/2000/svg">
<rect width="1760" height="1760" fill="white"/>
<path d="M700.539 679.052C643.693 665.496 585.974 624.829 534.375 597.28C522.569 591.158 510.325 585.036 497.207 584.599C475.78 584.599 456.977 599.904 447.357 618.707C437.737 637.51 435.552 659.374 433.365 680.364C415.437 860.088 397.071 1039.38 379.142 1219.1C376.519 1246.65 373.895 1276.38 387.013 1300.87C406.253 1336.73 450.856 1348.54 490.21 1356.84C520.382 1362.97 558.862 1365.59 573.73 1338.92C581.601 1324.49 578.54 1306.56 576.353 1289.94C570.669 1247.09 573.73 1202.92 585.099 1160.94C590.784 1139.95 599.091 1118.96 613.958 1103.66C643.255 1073.92 695.729 1073.48 728.087 1100.16C760.445 1126.83 770.066 1175.81 754.324 1214.29C740.768 1247.09 710.595 1275.95 713.656 1311.37C716.717 1348.97 755.198 1372.59 791.055 1384.39C881.57 1413.25 979.082 1404.51 1073.53 1394.89C1107.64 1391.39 1146.12 1385.27 1164.05 1355.97C1184.6 1321.86 1165.8 1271.57 1192.47 1241.84C1213.46 1218.22 1250.63 1221.72 1281.68 1228.28C1312.72 1234.84 1348.58 1241.4 1373.07 1221.29C1387.06 1209.92 1394.05 1191.99 1398.43 1174.5C1406.3 1145.2 1408.05 1111.53 1390.12 1087.04C1365.63 1054.24 1313.6 1051.18 1289.55 1017.51C1276.87 999.145 1275.12 975.531 1274.24 953.23C1272.06 890.698 1273.37 827.729 1277.74 765.635C1278.18 759.076 1278.61 752.079 1274.68 746.831C1270.31 740.709 1262 738.96 1254.56 737.648C1202.97 729.777 1150.93 726.716 1098.9 728.903C1033.3 731.964 927.921 736.774 925.734 650.629C923.985 581.538 1030.24 544.806 1025.43 475.715C1022.37 430.674 970.773 404 925.734 404C900.372 404 874.137 409.685 854.022 425.427C826.474 446.854 815.104 482.711 809.857 517.257C804.61 551.802 802.861 587.222 789.305 619.144C775.75 651.066 756.073 692.608 700.976 679.489L700.539 679.052Z" fill="#FF3B83" stroke="black" stroke-width="20" stroke-miterlimit="10"/>
<path d="M1083.59 963.287C1073.09 902.068 980.39 855.715 913.488 843.909C902.556 842.16 892.062 840.848 882.879 842.16C871.073 843.909 862.327 849.593 855.331 856.153C829.094 880.203 822.972 920.434 846.585 962.413C870.198 1004.39 926.169 1045.06 976.893 1052.93C1007.94 1057.74 1033.74 1049.87 1051.23 1036.31C1068.72 1022.76 1090.15 1002.64 1083.59 963.725V963.287Z" fill="white" stroke="black" stroke-width="20" stroke-miterlimit="10"/>
<path d="M967.023 961.247C971.768 953.392 965.057 940.647 952.033 932.781C939.01 924.915 924.606 924.907 919.861 932.763C915.117 940.619 921.829 953.362 934.853 961.228C947.876 969.094 962.279 969.103 967.023 961.247Z" fill="black"/>
</svg>
