<svg width="1760" height="1760" viewBox="0 0 1760 1760" fill="none" xmlns="http://www.w3.org/2000/svg">
<rect width="1760" height="1760" fill="white"/>
<path d="M948.372 337.507C867.306 354.992 865.081 485.018 795.142 529.843C754.133 556.23 701.997 556.23 653.358 558.137C630.151 559.091 604.082 562.588 591.048 581.663C584.054 591.836 582.465 604.552 581.193 616.633C576.425 659.233 573.564 702.151 572.292 745.069C571.974 763.826 572.293 784.172 584.691 798.16C594.228 808.969 609.169 813.42 622.203 820.096C648.271 833.449 669.252 859.199 671.478 888.765C673.703 918.331 654.311 949.168 625.7 955.208C596.135 961.567 562.755 943.128 537.005 958.705C515.706 971.74 512.209 1000.99 511.255 1026.1C510.302 1047.08 511.255 1071.56 527.786 1084.6C535.733 1090.64 545.588 1092.86 555.443 1094.14C609.805 1100.49 673.703 1079.51 714.076 1116.39C740.462 1140.55 744.277 1181.56 736.965 1216.53C729.654 1251.5 713.123 1284.25 705.175 1319.22C697.546 1352.6 697.546 1387.57 705.493 1420.95C712.487 1450.51 726.475 1479.44 749.682 1498.84C772.889 1518.23 806.905 1527.13 834.88 1515.37C874.936 1498.84 890.195 1450.2 891.785 1406.96C892.739 1374.22 888.605 1341.15 879.068 1309.36C870.167 1279.8 856.815 1251.5 850.139 1221.3C843.463 1191.1 843.782 1157.4 860.948 1131.65C878.115 1105.9 915.628 1092.55 941.378 1109.08C960.77 1121.48 968.717 1145.32 979.844 1165.67C990.97 1186.01 1012.59 1205.4 1034.52 1198.09C1055.5 1191.1 1061.86 1164.08 1059.95 1142.14C1058.05 1120.2 1050.74 1097.31 1058.37 1076.33C1067.27 1051.22 1093.65 1037.55 1117.81 1026.42C1142.93 1014.66 1168.04 1003.21 1193.16 991.45C1229.08 974.919 1265.32 957.752 1294.89 931.365C1324.45 904.979 1346.07 867.147 1343.84 827.726C1341.62 788.305 1309.51 749.838 1270.09 749.202C1244.02 748.884 1220.5 763.19 1196.97 774.317C1173.45 785.444 1144.52 792.756 1122.58 778.768C1110.82 771.456 1103.19 759.057 1097.47 746.341C1072.35 688.481 1085.71 622.356 1091.11 559.727C1092.38 546.375 1092.38 531.115 1083.16 521.26C1077.12 514.902 1068.54 512.04 1061.23 507.272C1033.57 489.469 1031.66 450.366 1028.8 417.621C1025.94 384.876 1009.41 323.519 948.372 336.871V337.507Z" fill="#B0FCA4" stroke="black" stroke-width="20" stroke-miterlimit="10"/>
<path d="M832.654 636.026C788.147 627.124 732.832 677.99 707.082 719.954C702.949 726.63 699.452 733.624 698.18 740.3C696.273 748.884 697.863 756.196 700.406 762.872C709.943 786.716 735.693 801.657 770.027 796.571C804.36 791.484 846.959 764.144 865.398 732.035C876.842 712.007 878.114 692.614 873.345 677.036C868.577 661.459 860.629 641.748 832.654 636.344V636.026Z" fill="white" stroke="black" stroke-width="20" stroke-miterlimit="10"/>
<path d="M799.807 732.673C808.546 725.892 809.609 712.636 802.183 703.064C794.756 693.493 781.651 691.231 772.912 698.012C764.173 704.793 763.11 718.049 770.537 727.62C777.964 737.192 791.068 739.454 799.807 732.673Z" fill="black"/>
</svg>
