<svg width="1760" height="1760" viewBox="0 0 1760 1760" fill="none" xmlns="http://www.w3.org/2000/svg">
<rect width="1760" height="1760" fill="white"/>
<path d="M524.254 453.549C509.878 488.57 513.195 557.874 515.775 595.844C524.254 718.969 520.568 843.201 504.717 965.958C498.081 1016.83 491.078 1073.6 522.042 1114.15C553.376 1155.44 611.251 1163.18 658.067 1186.04C696.036 1204.84 727.738 1235.06 748.381 1271.93C768.287 1308.05 777.133 1348.97 795.196 1385.84C813.259 1422.7 845.331 1457.35 886.248 1460.67C928.641 1463.99 967.347 1431.18 983.198 1391.74C999.049 1352.29 995.73 1308.05 988.357 1266.03C982.828 1235.43 975.457 1204.84 976.563 1173.87C977.669 1142.9 989.834 1110.46 1015.64 1093.14C1068.35 1057.75 1145.4 1101.62 1202.16 1072.13C1230.55 1057.38 1247.14 1026.78 1255.25 996.186C1269.62 941.258 1260.78 880.065 1231.28 831.773C1213.22 801.913 1187.42 776.108 1175.99 743.299C1162.35 703.486 1172.3 659.987 1180.04 618.331C1199.58 511.794 1232.02 386.088 1212.85 369.868C1167.51 331.53 1168.99 407.101 1017.11 357.703C973.613 343.695 925.322 418.529 963.66 492.994C984.303 533.544 978.404 619.437 951.494 656.3C903.941 721.918 795.196 753.622 767.549 614.645C761.282 582.204 771.973 549.395 777.502 516.955C783.032 484.515 780.821 446.176 755.385 425.533C736.585 410.418 538.999 418.529 524.622 453.549H524.254Z" fill="#FFE0F6" stroke="black" stroke-width="20" stroke-miterlimit="10"/>
<path d="M933.065 890.755C937.488 901.814 928.643 926.144 914.266 941.627C891.78 965.589 853.81 973.33 823.583 960.059C793.355 946.788 773.817 913.242 776.397 880.433C776.397 878.59 776.767 876.746 777.873 875.272C779.348 873.06 781.928 872.692 784.508 871.954C838.328 859.421 926.429 874.535 933.065 890.755Z" fill="#FAFCFF" stroke="black" stroke-width="20" stroke-miterlimit="10"/>
<path d="M848.278 966.327C854.386 966.327 859.337 961.376 859.337 955.268C859.337 949.16 854.386 944.209 848.278 944.209C842.171 944.209 837.22 949.16 837.22 955.268C837.22 961.376 842.171 966.327 848.278 966.327Z" fill="black" stroke="black" stroke-width="20" stroke-miterlimit="10"/>
</svg>
