<svg width="1760" height="1760" viewBox="0 0 1760 1760" fill="none" xmlns="http://www.w3.org/2000/svg">
<g clip-path="url(#clip0_10_71)">
<path d="M1760 0H0V1760H1760V0Z" fill="white"/>
<path d="M549.158 516.385C531.314 552.073 528.255 625.486 492.569 643.329C478.294 650.467 461.472 650.467 445.668 652.506C413.04 657.095 380.413 673.918 364.099 702.468C345.746 734.077 351.355 777.411 377.355 803.411C406.413 832.981 456.374 840.118 476.256 876.315C487.982 898.237 485.432 924.748 480.844 948.709C468.099 1014.47 441.08 1076.67 418.648 1140.4C405.903 1176.6 395.197 1218.4 413.04 1252.05C435.471 1294.36 491.549 1304.56 538.961 1300.48C553.235 1298.95 568.53 1296.91 580.765 1289.78C597.588 1280.09 608.804 1263.26 615.941 1245.42C641.941 1177.11 612.372 1091.46 655.196 1032.32C674.058 1006.32 705.666 990.004 738.294 990.514C770.921 991.023 802.019 1006.83 820.881 1032.83C840.254 1059.85 845.352 1095.03 844.842 1128.16C843.822 1180.16 830.567 1235.73 854.018 1282.13C879.508 1332.6 938.136 1354.52 991.665 1371.86C998.802 1373.89 1005.94 1376.44 1013.08 1375.93C1021.74 1374.91 1032.45 1372.88 1036.02 1365.23C1118.61 1180.16 1139 1160.79 1222.1 1180.17C1265.43 1190.36 1310.29 1152.63 1333.74 1110.83C1354.64 1073.1 1374.53 1030.28 1365.86 987.965C1358.72 952.787 1333.23 922.198 1330.17 886.511C1327.12 851.334 1347 818.706 1360.25 786.588C1372.49 757.018 1421.43 666.271 1391.35 647.918C1280.72 580.622 1193.04 549.014 1066.61 511.287C881.548 455.717 577.706 459.286 549.158 516.385Z" fill="#96BDF2" stroke="black" stroke-width="20" stroke-miterlimit="10"/>
<path d="M659.277 731.019C612.376 756 611.865 827.884 641.434 870.709C646.022 877.336 652.14 883.964 659.277 889.062C668.454 895.18 680.178 898.239 691.394 900.278C733.197 906.906 779.08 896.709 808.139 868.16C837.197 839.61 844.336 793.727 820.375 761.608C805.591 742.235 781.119 730 755.629 724.392C730.139 718.784 699.552 709.607 659.277 731.019Z" fill="white" stroke="black" stroke-width="20" stroke-miterlimit="10"/>
<path d="M727.585 825.844C736.313 825.844 743.389 818.768 743.389 810.04C743.389 801.311 736.313 794.235 727.585 794.235C718.857 794.235 711.781 801.311 711.781 810.04C711.781 818.768 718.857 825.844 727.585 825.844Z" fill="black" stroke="black" stroke-width="20" stroke-miterlimit="10"/>
</g>
<defs>
<clipPath id="clip0_10_71">
<rect width="1760" height="1760" fill="white"/>
</clipPath>
</defs>
</svg>
