<svg width="1760" height="1760" viewBox="0 0 1760 1760" fill="none" xmlns="http://www.w3.org/2000/svg">
<rect width="1760" height="1760" fill="white"/>
<path d="M902.615 316C842.721 316 817.46 420.714 808.496 480.609C802.792 517.28 795.458 562.507 760.011 574.323C726.194 585.324 681.784 558.025 656.931 583.286C647.152 593.473 587.26 802.494 584 956.51C584 971.178 632.484 1048.59 649.189 1070.19C710.305 1148.83 684.637 1219.72 683.415 1286.54C682.6 1325.25 678.524 1367.22 711.934 1387.18C729.454 1397.78 750.641 1400.63 771.013 1403.48C870.02 1416.52 1009.36 1461.34 1050.92 1438.52C1098.59 1412.45 1060.7 1333.81 1052.15 1292.25C1044 1252.73 1030.96 1212.8 1037.48 1172.87C1044 1132.94 1078.22 1093.82 1118.15 1099.52C1145.45 1103.6 1166.64 1128.05 1173.15 1154.94C1179.67 1181.83 1174.78 1209.94 1166.23 1236.43C1163.78 1244.58 1160.93 1253.95 1166.23 1260.87C1170.3 1266.58 1178.04 1267.8 1185.38 1269.02C1208.19 1271.88 1235.49 1273.1 1250.16 1255.58C1257.09 1247.02 1259.53 1235.61 1261.98 1225.02C1288.87 1086.49 1285.61 941.842 1252.61 804.531C1245.27 773.158 1235.9 742.192 1219.2 714.485C1202.49 686.779 1177.64 663.554 1146.67 654.183C1116.52 645.219 1072.93 637.07 1041.55 633.403C907.505 619.55 942.952 505.056 954.768 480.202C965.361 458.2 1027.7 316.407 903.022 316.407L902.615 316Z" fill="#FCFFA6" stroke="black" stroke-width="20" stroke-miterlimit="10"/>
<path d="M804.423 846.907C815.017 864.02 864.316 865.243 895.281 867.687C906.69 868.502 918.506 869.317 928.692 866.872C944.989 862.798 951.1 851.389 953.953 840.796C960.064 820.423 962.511 799.643 960.881 778.863C960.881 775.196 960.065 771.53 957.621 767.863C951.509 759.714 935.21 755.639 920.542 752.379C895.281 747.082 869.614 743.008 843.538 739.341C837.019 738.526 830.091 737.711 823.98 738.933C814.201 740.971 810.942 747.49 808.905 753.602C797.904 786.197 790.163 824.09 804.423 846.907Z" fill="white" stroke="black" stroke-width="20" stroke-miterlimit="10"/>
<path d="M931.54 833.054C938.291 833.054 943.763 827.581 943.763 820.83C943.763 814.08 938.291 808.607 931.54 808.607C924.789 808.607 919.317 814.08 919.317 820.83C919.317 827.581 924.789 833.054 931.54 833.054Z" fill="black" stroke="black" stroke-width="20" stroke-miterlimit="10"/>
</svg>
