<svg width="1760" height="1760" viewBox="0 0 1760 1760" fill="none" xmlns="http://www.w3.org/2000/svg">
<rect width="1760" height="1760" fill="white"/>
<path d="M614.388 622.742C560.355 626.934 521.693 681.901 517.5 735.937C513.308 789.972 536.133 842.143 560.82 890.123C585.508 938.102 613.457 986.082 621.841 1039.65C633.952 1116.98 603.209 1197.1 619.046 1273.49C630.692 1330.32 670.285 1382.03 723.853 1404.85C777.421 1427.68 843.566 1420.69 888.283 1383.89C957.689 1327.06 963.278 1222.25 1014.98 1148.65C1069.95 1069.93 1173.36 1032.2 1220.4 948.35C1260 877.08 1246.49 780.19 1188.26 722.894C1146.34 681.436 1084.39 658.61 1055.51 606.904C1015.45 534.702 1054.11 428.961 995.885 370.734C967.936 342.785 923.219 335.331 885.954 347.909C848.69 360.486 818.412 390.298 800.711 425.7C778.353 470.419 773.229 523.057 745.28 564.049C716.866 605.973 673.08 631.127 621.841 622.742H614.388Z" fill="#B7ABFF" stroke="black" stroke-width="20" stroke-miterlimit="10"/>
<path d="M796.049 677.709C720.588 721.03 721.986 844.006 768.567 917.14C776.019 928.785 784.87 939.965 796.049 948.35C810.489 959.064 828.656 964.188 846.356 967.449C911.569 979.094 983.77 960.927 1028.95 912.482C1074.14 864.036 1085.78 784.381 1048.05 729.88C1024.76 696.341 986.565 675.38 946.971 666.063C907.377 656.747 858.933 641.84 796.049 677.709Z" fill="white" stroke="black" stroke-width="20" stroke-miterlimit="10"/>
<path d="M907.843 858.913C925.594 858.913 939.984 844.523 939.984 826.772C939.984 809.02 925.594 794.63 907.843 794.63C890.092 794.63 875.702 809.02 875.702 826.772C875.702 844.523 890.092 858.913 907.843 858.913Z" fill="black"/>
</svg>
