<svg width="1760" height="1760" viewBox="0 0 1760 1760" fill="none" xmlns="http://www.w3.org/2000/svg">
<rect width="1760" height="1760" fill="white"/>
<path d="M456.468 494.969C438.935 492.778 434.551 626.837 460.121 667.749C485.69 708.661 507.606 704.643 543.038 736.788C578.47 768.933 610.979 810.942 610.249 858.794C609.518 898.975 585.045 935.504 556.188 963.631C527.331 991.758 493.361 1014.77 465.965 1043.99C435.647 1076.5 413 1118.88 413 1163.44C413 1208.01 438.935 1254.03 480.941 1269.01C559.11 1297.14 645.681 1213.49 723.119 1243.44C798.001 1272.3 816.264 1390.65 895.529 1403.43C936.075 1410.01 976.255 1382.25 995.615 1346.45C1014.97 1310.65 1017.9 1267.55 1016.44 1226.64C1015.71 1199.24 1013.15 1170.75 1024.47 1145.54C1043.83 1102.8 1095.7 1085.27 1142.46 1084.54C1189.21 1083.81 1236.33 1094.4 1282.72 1087.83C1329.11 1081.25 1377.33 1049.11 1379.88 1002.35C1382.44 956.69 1341.9 920.892 1303.18 896.783C1264.46 872.674 1220.26 847.105 1207.47 802.905C1184.83 725.465 1277.97 694.781 1263 615.514C1249.48 544.648 1222.09 451.135 1157.07 439.081C1070.86 423.374 1066.48 499.353 843.66 471.591C729.329 457.345 696.089 314.884 665.04 382.827C641.297 435.428 657.735 521.635 456.833 495.334L456.468 494.969Z" fill="#DEB0FF" stroke="black" stroke-width="20" stroke-miterlimit="10"/>
<path d="M940.825 993.95C949.592 1034.86 926.944 1078.33 892.974 1103.17C884.572 1109.01 875.806 1114.49 865.578 1116.69C846.584 1121.07 826.494 1115.22 810.056 1105C780.834 1086.73 761.109 1054.59 757.457 1020.62C757.457 1016.96 757.091 1012.94 759.648 1010.39C761.475 1008.56 763.666 1008.2 766.223 1007.47C811.152 996.142 856.446 987.74 902.106 981.896C916.351 980.069 938.362 983.397 941.65 998.374L940.825 993.95Z" fill="white" stroke="black" stroke-width="20" stroke-miterlimit="10"/>
<path d="M850.237 1063.72C857.701 1063.72 863.752 1057.18 863.752 1049.11C863.752 1041.04 857.701 1034.5 850.237 1034.5C842.773 1034.5 836.722 1041.04 836.722 1049.11C836.722 1057.18 842.773 1063.72 850.237 1063.72Z" fill="black"/>
</svg>
