<svg width="1760" height="1760" viewBox="0 0 1760 1760" fill="none" xmlns="http://www.w3.org/2000/svg">
<rect width="1760" height="1760" fill="white"/>
<path d="M606.16 635.964C578.055 633.802 568.975 678.339 568.542 706.878C568.11 735.416 575.461 763.523 572.866 791.629C566.813 851.733 515.358 905.783 526.601 965.022C541.734 1043.72 647.237 1061.88 700.854 1121.12C734.58 1158.31 745.39 1210.19 754.903 1259.49C764.415 1308.78 774.36 1360.67 806.357 1399.15C838.354 1437.64 900.618 1456.23 939.533 1424.23C969.801 1399.15 974.989 1355.91 986.664 1318.29C1013.9 1231.38 1092.17 1163.06 1182.1 1147.93C1218.43 1141.87 1256.48 1143.17 1290.2 1128.47C1343.82 1104.69 1373.22 1036.8 1354.2 981.453C1330.85 914.431 1248.69 870.326 1250.85 799.412C1251.72 772.603 1265.12 747.956 1271.61 722.012C1278.1 696.068 1274.64 663.205 1251.72 649.801C1231.83 638.126 1206.32 645.477 1183.4 644.612C1130.65 643.315 1088.71 598.778 1066.22 551.213C1043.74 503.649 1033.36 450.896 1009.15 404.196C984.934 357.497 938.236 315.986 885.917 320.31C832.733 325.067 794.683 374.361 776.522 424.519C758.362 474.678 753.605 529.161 730.689 577.157C707.772 625.154 666.263 640.72 606.16 635.964Z" fill="#FFF570" stroke="black" stroke-width="20" stroke-miterlimit="10"/>
<path d="M856.513 790.333C812.842 816.277 813.706 891.082 840.515 935.62C844.839 942.97 850.027 949.456 856.513 954.645C865.161 961.131 875.106 964.158 885.483 966.32C923.101 973.238 964.611 962.428 990.986 933.025C1017.36 903.621 1023.85 855.192 1002.23 822.33C988.825 802.007 966.773 789.035 943.856 783.846C920.939 778.657 892.834 769.145 856.945 790.765L856.513 790.333Z" fill="white" stroke="black" stroke-width="20" stroke-miterlimit="10"/>
<path d="M920.942 899.731C931.211 899.731 939.535 891.019 939.535 880.273C939.535 869.527 931.211 860.814 920.942 860.814C910.674 860.814 902.35 869.527 902.35 880.273C902.35 891.019 910.674 899.731 920.942 899.731Z" fill="black"/>
</svg>
