<svg width="1760" height="1760" viewBox="0 0 1760 1760" fill="none" xmlns="http://www.w3.org/2000/svg">
<rect width="1760" height="1760" fill="white"/>
<path d="M519 382.764C485.856 373.806 452.861 445.918 450.622 479.958C448.382 513.55 458.684 547.591 454.205 581.183C451.07 605.369 440.32 627.764 436.289 651.951C430.915 688.231 442.56 726.302 467.194 753.176C488.244 776.018 517.805 790.799 533.929 817.225C557.219 854.849 546.021 903.669 533.929 946.22C524.075 980.708 513.774 1015.2 505.712 1049.68C498.098 1083.28 495.41 1125.38 524.075 1144.19C541.543 1155.39 564.385 1153.15 584.092 1146.88C603.799 1140.61 622.162 1130.31 642.765 1126.28C677.252 1119.56 714.427 1132.55 737.269 1159.42C784.745 1215.85 763.246 1316.18 824.159 1357.84C836.7 1366.35 851.032 1371.28 865.812 1374.41C898.508 1381.13 934.339 1378.89 961.66 1359.63C1002.87 1330.07 1010.03 1272.74 1032.87 1227.5C1048.55 1196.59 1073.18 1170.17 1102.74 1151.81C1160.97 1115.97 1237.56 1112.39 1286.83 1065.36C1325.79 1028.19 1338.33 965.032 1312.36 918.003C1295.34 887.098 1264.88 866.046 1247.41 835.589C1227.7 801.101 1226.81 759.446 1231.29 720.479C1235.77 681.512 1235.32 627.764 1212.03 595.964C1143.05 502.353 1097.82 523.404 1053.03 516.238C980.919 504.592 959.421 451.292 865.812 445.47C806.691 441.887 748.914 481.302 709.052 502.353C588.571 565.507 589.318 401.576 519 382.764Z" fill="#B7ABFF" stroke="black" stroke-width="20" stroke-miterlimit="10"/>
<path d="M827.743 741.98C777.132 772.437 778.027 859.777 809.379 911.734C814.306 920.244 820.129 927.858 827.743 933.68C837.596 941.294 849.241 944.878 861.334 947.117C904.779 955.179 953.151 942.639 983.607 908.15C1014.06 873.662 1021.68 817.227 996.596 778.708C980.92 754.969 955.391 740.188 928.965 733.47C902.54 726.751 869.844 716.45 828.191 741.532L827.743 741.98Z" fill="white" stroke="black" stroke-width="20" stroke-miterlimit="10"/>
<path d="M902.537 870.528C914.41 870.528 924.035 860.302 924.035 847.686C924.035 835.07 914.41 824.843 902.537 824.843C890.663 824.843 881.038 835.07 881.038 847.686C881.038 860.302 890.663 870.528 902.537 870.528Z" fill="black"/>
</svg>
