<svg width="1760" height="1760" viewBox="0 0 1760 1760" fill="none" xmlns="http://www.w3.org/2000/svg">
<rect width="1760" height="1760" fill="white"/>
<path d="M537.845 414.521C511.314 410.669 485.21 427.787 475.795 452.607C466.381 477.428 468.521 505.244 470.66 531.776C472.8 558.309 472.8 586.552 459.534 609.661C453.543 620.359 444.129 629.774 441.133 641.756C433.003 674.708 470.66 698.245 489.061 726.489C512.597 763.292 502.327 811.221 504.039 854.871C505.323 895.097 517.732 934.467 539.129 968.702C557.53 997.802 582.778 1023.05 599.467 1053.43C639.692 1127.04 624.287 1219.47 655.953 1296.93C666.224 1322.61 685.48 1348.28 712.867 1352.14C764.647 1358.98 802.732 1285.38 853.656 1296.08C881.471 1302.07 897.304 1331.17 911.426 1355.99C925.548 1380.81 947.8 1407.77 976.471 1403.92C999.579 1400.92 1014.56 1379.95 1029.53 1361.98C1044.51 1344 1066.76 1326.46 1088.16 1334.59C1095.86 1337.16 1101.85 1342.72 1107.85 1348.28C1131.81 1369.68 1157.48 1391.51 1188.72 1400.06C1219.96 1408.62 1258.05 1399.21 1273.88 1370.97C1285.01 1350.85 1282.87 1326.03 1287.15 1303.35C1297.85 1249.43 1347.91 1203.64 1338.93 1149.29C1332.51 1110.78 1297.42 1082.96 1283.72 1046.59C1255.91 972.554 1321.38 888.677 1297.42 812.932C1280.73 759.868 1224.67 728.628 1170.75 715.362C1132.66 705.947 1092.87 698.672 1063.77 672.568C997.868 613.085 1025.68 729.484 923.836 736.331C888.746 738.899 852.372 735.475 830.976 707.231C809.579 678.987 801.449 643.896 792.034 609.661C780.48 568.579 801.449 481.279 743.678 436.774C697.034 400.827 625.998 426.075 538.273 414.093L537.845 414.521Z" fill="#FF3B83" stroke="black" stroke-width="20" stroke-miterlimit="10"/>
<path d="M584.059 703.379C585.343 716.217 587.054 730.339 592.617 739.754C598.608 750.452 606.739 751.736 613.586 752.164C643.969 753.448 673.496 749.168 702.167 739.754C708.586 737.614 715.005 735.047 719.284 727.772C729.126 711.51 726.131 678.13 722.707 649.886C717.144 604.953 706.874 548.893 683.338 533.487C675.208 527.924 667.077 529.208 659.374 530.919C637.55 535.627 615.725 543.758 595.185 554.456C589.194 557.452 582.775 561.303 579.352 570.718C575.928 580.133 581.063 668.716 584.487 702.951L584.059 703.379Z" fill="white" stroke="black" stroke-width="20" stroke-miterlimit="10"/>
<path d="M656.776 666.664C664.226 665.368 668.329 653.18 665.939 639.442C663.549 625.704 655.571 615.618 648.12 616.914C640.669 618.211 636.567 630.398 638.957 644.136C641.347 657.874 649.325 667.961 656.776 666.664Z" fill="black"/>
</svg>
