<svg width="1760" height="1760" viewBox="0 0 1760 1760" fill="none" xmlns="http://www.w3.org/2000/svg">
<rect width="1760" height="1760" fill="white"/>
<path d="M449.04 507.941C420.124 503.031 382.478 503.031 371.566 529.766C361.2 555.409 384.66 580.507 398.846 603.968C457.224 701.632 355.744 834.213 403.756 936.787C412.485 955.338 425.58 971.161 435.4 989.166C454.496 1024.08 460.498 1066.1 451.768 1105.38C438.674 1163.21 395.026 1217.77 409.757 1275.06C423.397 1327.99 486.14 1356.9 539.608 1347.63C593.076 1338.35 637.269 1299.07 669.459 1254.88C737.112 1162.12 749.115 1032.27 877.875 1012.63C962.987 999.532 992.449 1053.55 1005 1109.2C1019.73 1175.22 1038.28 1240.14 1061.19 1303.98C1067.19 1320.89 1073.74 1338.35 1087.93 1349.26C1105.93 1363.45 1228.14 1374.91 1308.35 1279.97C1348.17 1232.51 1365.63 1164.85 1347.63 1105.38C1332.9 1055.73 1297.43 1015.9 1271.25 971.161C1245.06 926.421 1228.69 869.132 1254.33 824.938C1262.52 810.752 1273.97 799.295 1285.43 787.837C1324.17 749.099 1362.36 685.809 1381.46 634.522C1416.92 536.313 1338.9 374.814 1293.62 405.913C1108.66 531.948 510.146 518.308 448.494 507.941H449.04Z" fill="#7968D9" stroke="black" stroke-width="20" stroke-miterlimit="10"/>
<path d="M781.851 710.364C765.483 711.455 747.479 713.091 734.93 719.639C721.29 726.732 719.108 737.098 718.562 746.374C715.834 785.112 719.654 822.758 730.566 859.314C732.748 867.498 736.021 875.682 745.296 881.684C766.029 894.778 808.039 892.596 844.594 889.322C901.881 884.412 973.899 872.954 994.086 844.037C1001.18 833.67 1000.09 823.304 997.905 813.483C992.449 785.111 983.72 757.285 970.625 730.551C966.806 722.367 962.442 714.183 950.439 709.272C938.436 704.362 825.498 707.636 781.851 710.364Z" fill="white" stroke="black" stroke-width="20" stroke-miterlimit="10"/>
<path d="M859.302 817.702C876.907 815.228 890.09 805.481 888.749 795.933C887.407 786.384 872.047 780.649 854.442 783.123C836.837 785.597 823.653 795.344 824.995 804.893C826.337 814.442 841.697 820.176 859.302 817.702Z" fill="black"/>
</svg>
