<svg width="1760" height="1760" viewBox="0 0 1760 1760" fill="none" xmlns="http://www.w3.org/2000/svg">
<rect width="1760" height="1760" fill="white"/>
<path d="M487.492 573.354C467.88 609.058 450.279 646.271 424.13 677.45C405.524 699.577 386.918 721.704 373.843 747.854C348.7 798.645 350.209 862.008 377.866 911.793C388.427 930.4 402.004 946.995 412.564 966.104C439.719 1016.39 437.707 1076.74 448.771 1132.56C459.834 1188.38 493.526 1249.23 549.847 1256.77C599.631 1263.31 644.386 1226.09 674.558 1185.86C704.73 1145.63 729.371 1098.86 771.612 1072.21C794.241 1057.63 827.43 1051.59 846.037 1070.7C852.071 1076.74 855.591 1084.28 859.111 1091.82C866.654 1108.42 874.197 1125.02 882.243 1141.61C896.324 1171.78 911.409 1203.97 939.067 1222.57C980.302 1250.23 1035.11 1240.68 1083.89 1232.13C1169.38 1217.04 1256.38 1207.99 1343.37 1205.48C1351.42 1205.48 1360.47 1204.97 1367.01 1199.44C1373.04 1194.41 1375.56 1185.86 1377.57 1178.32C1389.13 1129.54 1390.64 1079.25 1392.15 1029.47C1393.16 1000.3 1393.66 969.624 1379.58 944.48C1352.93 897.209 1286.55 887.654 1252.35 845.412C1224.7 811.216 1226.2 757.408 1254.87 724.218C1289.57 684.491 1380.59 712.149 1399.69 663.369C1406.23 646.774 1406.73 512.505 1391.15 487.864C1366 448.136 1284.54 453.165 1239.78 466.742C1195.03 480.32 1156.31 508.985 1113.56 528.094C1020.53 570.336 907.387 563.799 819.385 511.499C785.19 491.384 731.885 455.176 681.598 484.344C578.51 544.689 538.784 480.32 487.994 572.85L487.492 573.354Z" fill="#FFF570" stroke="black" stroke-width="20" stroke-miterlimit="10"/>
<path d="M554.372 891.174C542.303 834.851 573.482 775.009 620.248 740.813C631.814 732.767 643.883 725.223 657.963 722.206C684.113 716.171 711.77 724.218 734.399 738.298C774.629 763.442 801.784 807.696 806.812 854.464C806.812 859.493 807.315 865.024 803.795 868.545C801.281 871.059 798.263 871.562 794.743 872.568C732.891 888.157 670.535 899.723 607.677 907.769C588.065 910.284 558.898 911.792 554.372 891.174Z" fill="white" stroke="black" stroke-width="20" stroke-miterlimit="10"/>
<path d="M679.088 835.353C689.364 835.353 697.694 826.348 697.694 815.238C697.694 804.129 689.364 795.123 679.088 795.123C668.812 795.123 660.481 804.129 660.481 815.238C660.481 826.348 668.812 835.353 679.088 835.353Z" fill="black"/>
</svg>
