<svg width="1760" height="1760" viewBox="0 0 1760 1760" fill="none" xmlns="http://www.w3.org/2000/svg">
<rect width="1760" height="1760" fill="white"/>
<path d="M668.341 505.625C666.281 484.512 646.713 468.548 625.601 464.944C604.488 461.339 583.375 468.548 564.837 478.332C537.03 492.751 511.798 515.924 504.589 546.307C499.439 567.935 504.074 590.078 506.133 611.706C510.768 657.537 502.014 710.063 464.938 737.356C434.041 760.529 388.726 761.559 361.949 790.397C332.082 822.839 341.866 878.455 373.793 908.837C390.786 924.801 412.413 935.615 430.436 950.549C461.333 976.812 478.841 1015.95 486.566 1055.6C494.29 1095.25 493.26 1136.45 491.715 1176.62C490.685 1208.54 493.26 1281.67 522.097 1295.57C530.851 1299.69 680.7 1280.12 776.994 1284.24C804.286 1285.27 834.668 1285.27 853.721 1266.22C864.535 1255.4 869.684 1240.47 874.834 1226.05C892.857 1173.53 910.365 1121 928.388 1067.96C942.292 1026.76 961.345 980.416 1003.06 966.512C1038.07 954.668 1077.72 973.207 1100.89 1002.04C1124.07 1030.88 1133.85 1067.96 1140.55 1104.52C1147.24 1141.08 1151.36 1178.16 1165.26 1212.66C1172.99 1231.2 1183.8 1249.22 1200.28 1260.55C1238.38 1287.33 1292.45 1271.88 1329.53 1244.08C1379.99 1205.45 1412.44 1144.69 1416.56 1081.35C1420.68 1018.01 1395.96 953.639 1350.64 908.837C1325.93 884.634 1296.06 866.096 1272.89 840.863C1249.71 815.63 1234.27 778.038 1247.14 746.11C1258.47 717.788 1287.82 702.339 1313.05 685.86C1338.28 669.382 1364.55 645.179 1363 614.797C1361.46 587.504 1337.25 566.39 1312.02 556.606C1286.79 546.822 1258.47 545.277 1232.72 538.067C1171.44 520.559 1120.98 471.123 1057.64 465.458C961.344 456.704 883.073 549.397 786.778 557.636C738.374 561.756 670.401 547.851 666.796 505.625H668.341Z" fill="#2667FF" stroke="black" stroke-width="20" stroke-miterlimit="10"/>
<path d="M582.342 1059.72C581.312 1075.17 580.282 1092.16 584.917 1104.52C589.551 1118.43 599.336 1121.51 607.575 1123.57C643.106 1131.3 679.151 1132.33 714.682 1127.18C722.407 1126.15 730.646 1124.6 737.34 1116.37C752.274 1098.86 755.878 1059.2 757.423 1024.7C759.998 970.632 759.483 901.628 734.765 878.97C726.011 870.73 716.228 870.731 706.444 871.245C679.152 872.275 652.374 877.425 625.597 885.664C617.873 888.239 609.119 891.329 603.455 901.628C597.791 911.927 585.432 1018.01 582.342 1059.72Z" fill="white" stroke="black" stroke-width="20" stroke-miterlimit="10"/>
<path d="M676.065 1030.88C685.165 1030.88 692.543 1017.28 692.543 1000.5C692.543 983.718 685.165 970.116 676.065 970.116C666.964 970.116 659.587 983.718 659.587 1000.5C659.587 1017.28 666.964 1030.88 676.065 1030.88Z" fill="black"/>
</svg>
