<svg width="1760" height="1760" viewBox="0 0 1760 1760" fill="none" xmlns="http://www.w3.org/2000/svg">
<rect width="1760" height="1760" fill="white"/>
<path d="M649.908 628.576C629.423 610.821 596.646 620.837 576.615 639.047C556.585 657.257 543.383 682.295 522.442 699.595C508.33 711.431 490.576 719.626 481.471 735.56C470.545 754.68 475.553 779.263 468.724 800.205C454.612 842.088 397.252 859.387 388.147 902.18C383.595 924.032 393.155 946.795 406.812 964.549C420.469 982.304 438.224 996.416 453.247 1013.26C514.703 1082.46 519.711 1183.52 520.621 1275.94C520.621 1308.72 523.353 1346.05 548.846 1366.08C577.07 1388.39 620.773 1377.46 646.266 1351.97C671.759 1326.47 684.051 1291.87 697.253 1258.18C719.105 1202.64 745.053 1149.38 774.643 1097.94C785.569 1079.27 796.95 1061.06 813.794 1047.86C830.637 1034.66 854.309 1028.28 873.884 1036.93C895.736 1046.04 906.661 1070.17 914.4 1092.47C925.781 1126.62 933.52 1162.13 937.162 1198.09C942.17 1245.89 943.536 1306.9 983.596 1334.21C1034.58 1368.81 1075.55 1356.52 1071.91 1311.9C1063.72 1209.93 1040.5 1119.79 1135.65 1015.08C1153.4 995.506 1177.98 978.207 1204.39 980.028C1233.07 981.849 1255.37 1004.16 1281.32 1016.9C1313.64 1032.38 1354.16 1031.02 1383.29 1010.53C1424.26 981.393 1432.46 920.845 1414.71 873.955C1396.95 827.064 1358.71 790.644 1320.47 758.777C1282.23 726.91 1240.8 695.952 1212.13 654.525C1189.36 621.292 1176.16 582.596 1159.77 546.176C1097.86 409.602 966.753 282.588 842.929 565.297C826.995 601.716 813.338 629.942 778.74 649.973C744.142 670.004 710.455 680.93 649.908 628.576Z" fill="#8CFFD9" stroke="black" stroke-width="20" stroke-miterlimit="10"/>
<path d="M921.233 726.456C913.494 691.857 933.069 655.893 962.204 634.951C969.488 629.944 977.227 625.391 985.422 623.57C1001.35 619.928 1018.65 624.936 1032.77 633.131C1057.8 648.154 1074.65 675.468 1077.83 703.694C1077.83 706.88 1077.83 710.067 1076.01 712.343C1074.65 713.709 1072.37 714.165 1070.55 714.62C1032.31 724.18 993.16 731.464 954.01 736.017C941.719 737.382 923.964 739.203 921.233 726.456Z" fill="white" stroke="black" stroke-width="20" stroke-miterlimit="10"/>
<path d="M998.62 692.312C1005.16 692.312 1010.46 686.809 1010.46 680.02C1010.46 673.232 1005.16 667.729 998.62 667.729C992.083 667.729 986.784 673.232 986.784 680.02C986.784 686.809 992.083 692.312 998.62 692.312Z" fill="black"/>
</svg>
