<svg width="1760" height="1760" viewBox="0 0 1760 1760" fill="none" xmlns="http://www.w3.org/2000/svg">
<g clip-path="url(#clip0_10_65)">
<path d="M1760 0H0V1760H1760V0Z" fill="white"/>
<path d="M641.41 606.05C607.808 642.112 570.926 759.724 570.106 776.116C567.238 824.882 627.887 847.42 592.645 944.132C584.859 965.442 563.96 987.981 545.929 1001.5C485.691 1046.99 463.972 983.473 428.321 1025.27C412.749 1043.71 352.1 1150.67 356.198 1163.37C359.886 1174.44 441.434 1224.43 468.07 1233.45C492.657 1242.05 521.752 1242.05 543.471 1227.71C563.96 1214.19 575.025 1190.83 585.27 1168.29C597.563 1141.24 609.446 1114.61 621.74 1087.56C634.443 1059.29 647.967 1030.19 672.144 1010.93C696.321 991.669 786.065 992.898 808.193 1014.21C834.829 1040.02 795.08 1153.54 813.11 1155.59C862.285 1160.91 911.049 1166.24 960.223 1171.57C975.795 1173.21 993.006 1174.44 1006.53 1165.83C1018 1158.05 1024.15 1144.52 1026.61 1130.59C1040.13 1057.65 972.107 986.342 989.728 914.627C995.055 892.908 1007.76 873.647 1023.74 857.665C1059.8 821.193 1121.27 802.343 1162.25 833.487C1190.11 854.797 1199.54 892.498 1197.9 927.741C1196.26 962.983 1185.61 996.177 1180.28 1031.01C1179.05 1040.43 1178.23 1051.09 1183.56 1058.88C1189.7 1067.07 1200.77 1069.53 1210.6 1071.17C1252.4 1078.14 1295.02 1081.82 1337.64 1082.64C1342.14 1082.64 1346.65 1082.64 1350.34 1080.59C1354.85 1077.73 1357.31 1072.4 1358.94 1067.48C1387.63 983.473 1435.16 652.767 1374.93 518.354C1370.83 508.928 1365.5 499.913 1357.71 493.766C1343.37 482.292 1323.29 481.882 1304.85 481.882C1104.06 483.111 661.752 585.018 647 601L641.41 606.05Z" fill="#FF6640" stroke="black" stroke-width="20" stroke-miterlimit="10"/>
<path d="M1106.93 688.83C1099.14 678.176 1102.42 649.49 1113.89 629C1131.93 597.036 1171.26 578.595 1206.92 585.562C1242.57 592.528 1272.89 623.263 1278.63 659.325C1278.63 661.374 1279.04 663.423 1278.63 665.472C1277.4 667.931 1274.94 669.57 1272.48 670.799C1217.57 698.256 1118.81 705.222 1106.93 688.83Z" fill="#FAFCFF" stroke="black" stroke-width="20" stroke-miterlimit="10"/>
<path d="M1183.97 650.31C1190.08 650.31 1195.03 645.356 1195.03 639.245C1195.03 633.134 1190.08 628.181 1183.97 628.181C1177.86 628.181 1172.9 633.134 1172.9 639.245C1172.9 645.356 1177.86 650.31 1183.97 650.31Z" fill="black" stroke="black" stroke-width="20" stroke-miterlimit="10"/>
</g>
<defs>
<clipPath id="clip0_10_65">
<rect width="1760" height="1760" fill="white"/>
</clipPath>
</defs>
</svg>
