<svg width="1760" height="1760" viewBox="0 0 1760 1760" fill="none" xmlns="http://www.w3.org/2000/svg">
<rect width="1760" height="1760" fill="white"/>
<path d="M739.213 809.934C695.94 787.396 647.258 818.949 628.627 864.026C625.923 870.637 623.819 877.549 625.322 884.46C626.824 891.372 631.632 896.781 636.44 901.89C655.071 922.325 674.905 942.159 689.028 966.199C703.152 990.24 711.265 1019.09 704.053 1045.84C696.841 1072.58 671.599 1095.42 643.953 1093.62C613.001 1091.51 588.059 1061.46 557.107 1062.36C525.555 1063.26 504.82 1095.42 494.302 1125.17C479.578 1166.94 464.252 1233.35 478.977 1275.12C493.702 1316.9 541.482 1332.82 585.656 1337.03C635.239 1341.54 679.713 1308.18 713.97 1272.12C748.227 1236.06 778.578 1193.99 823.353 1172.35C845.29 1161.53 871.734 1156.72 894.573 1165.44C928.529 1178.36 944.756 1215.62 961.585 1247.78C985.024 1291.95 1019.88 1334.63 1068.86 1345.74C1124.46 1358.37 1185.46 1321.1 1204.69 1267.31C1223.92 1213.52 1203.79 1149.51 1160.82 1111.95C1142.49 1096.02 1120.55 1084 1105.53 1065.07C1094.41 1050.94 1087.8 1033.51 1086.59 1015.78C1085.09 990.842 1093.81 966.801 1102.52 943.361C1111.24 919.921 1120.55 895.88 1119.35 871.238C1118.15 846.596 1116.94 808.131 1069.77 809.634C1022.59 811.136 1002.75 830.068 978.112 762.453C938.446 652.767 991.935 361.872 895.173 356.162C810.131 351.354 831.467 454.43 829.063 518.438C826.058 594.468 814.338 669.596 802.018 744.423C799.313 760.049 796.308 776.577 786.692 789.199C777.076 801.82 753.637 817.447 739.213 809.934Z" fill="#DEB0FF" stroke="black" stroke-width="20" stroke-miterlimit="10"/>
<path d="M851.301 850.503C820.349 881.756 825.758 960.189 841.685 1009.17C844.39 1016.99 847.395 1024.5 851.301 1029.91C856.41 1037.12 862.42 1040.43 868.731 1042.53C891.268 1050.04 916.21 1038.32 931.536 1006.17C946.861 974.013 951.068 921.123 938.147 885.062C930.033 862.824 917.111 849 903.288 842.99C889.465 836.98 870.834 830.669 851.301 850.503Z" fill="white" stroke="black" stroke-width="20" stroke-miterlimit="10"/>
<path d="M889.764 970.107C895.905 970.107 900.882 960.554 900.882 948.77C900.882 936.986 895.905 927.434 889.764 927.434C883.623 927.434 878.646 936.986 878.646 948.77C878.646 960.554 883.623 970.107 889.764 970.107Z" fill="black"/>
</svg>
