<svg width="1760" height="1760" viewBox="0 0 1760 1760" fill="none" xmlns="http://www.w3.org/2000/svg">
<rect width="1760" height="1760" fill="white"/>
<path d="M589.265 419.447C547.276 458.31 525.835 517.721 476.7 547.203C456.152 559.264 432.924 568.198 416.396 585.173C395.848 606.614 389.595 637.884 384.234 666.919C376.641 708.462 369.047 750.006 361.453 791.102C356.987 814.777 352.966 838.9 359.22 862.128C369.94 900.991 407.909 925.113 438.284 951.469C501.267 1006.41 541.47 1087.27 547.277 1170.8C549.957 1208.77 546.383 1249.42 566.038 1282.03C594.626 1328.93 658.949 1338.76 713.445 1332.06C767.942 1325.36 823.331 1308.38 876.934 1320.89C926.963 1332.5 975.205 1369.58 1024.34 1354.84C1064.54 1342.33 1108.77 1288.73 1121.72 1248.53C1134.67 1208.32 1121.72 1175.71 1152.54 1146.68C1196.76 1104.69 1268.68 1110.05 1320.94 1078.33C1366.06 1051.08 1392.41 995.692 1386.16 943.428C1379.91 891.164 1342.39 843.813 1293.25 824.158C1271.81 815.671 1248.58 812.097 1228.03 802.27C1185.6 782.168 1158.35 734.371 1162.37 687.468C1163.26 678.98 1164.6 670.493 1163.71 662.453C1159.24 624.93 1111.89 612.868 1074.37 607.061C953.764 588.747 836.731 541.396 744.266 461.883C724.165 444.462 704.511 425.7 680.837 413.639C657.162 401.578 620.087 390.411 589.265 419V419.447Z" fill="#FFC466" stroke="black" stroke-width="20" stroke-miterlimit="10"/>
<path d="M1097.15 884.908C1033.27 828.623 880.06 846.491 786.702 881.781C771.514 887.588 757.666 893.842 747.393 901.883C733.992 912.157 727.738 924.217 724.165 936.278C711.211 979.608 737.119 1026.07 800.995 1052.87C864.872 1079.67 968.504 1082.35 1037.74 1054.21C1080.18 1036.79 1106.53 1010.43 1116.81 983.629C1127.08 956.827 1137.8 921.09 1097.15 885.354V884.908Z" fill="white" stroke="black" stroke-width="20" stroke-miterlimit="10"/>
<path d="M908.969 988.783C931.886 987.678 950.01 977.393 949.452 965.812C948.894 954.23 929.864 945.737 906.947 946.841C884.031 947.946 865.906 958.231 866.464 969.812C867.022 981.394 886.053 989.888 908.969 988.783Z" fill="black"/>
</svg>
