<svg width="1760" height="1760" viewBox="0 0 1760 1760" fill="none" xmlns="http://www.w3.org/2000/svg">
<rect width="1760" height="1760" fill="white"/>
<path d="M759.171 751.97C750.293 720.365 741.06 688.049 720.819 662.125C700.577 636.201 666.487 618.445 634.882 627.323C619.257 631.585 606.118 641.883 593.334 651.826C564.215 674.554 535.451 696.926 506.332 719.654C492.128 730.663 477.568 742.382 469.4 758.718C453.42 791.744 471.176 831.873 498.165 857.086C525.153 882.3 559.244 897.215 588.363 919.232C617.482 941.25 642.695 975.341 637.368 1011.56C632.397 1047.08 600.081 1072.29 567.766 1087.56C535.451 1102.83 499.585 1113.84 473.662 1138.34C447.739 1162.84 435.665 1208.3 460.878 1233.87C475.793 1249.14 498.875 1253.04 515.92 1266.18C546.815 1289.98 550.011 1337.56 579.485 1363.13C596.53 1377.69 621.388 1382.31 642.695 1375.21C665.777 1367.39 682.112 1347.51 700.222 1330.82C747.452 1286.78 818.474 1261.92 877.778 1287.85C914.709 1304.18 948.09 1338.98 987.862 1332.59C1024.08 1326.55 1046.81 1288.56 1081.61 1278.26C1099.37 1272.93 1118.9 1275.42 1137.01 1271.51C1167.55 1264.76 1192.41 1238.48 1199.15 1207.94C1205.9 1177.4 1195.25 1144.02 1172.88 1121.65C1150.15 1098.92 1117.83 1087.91 1096.88 1063.41C1061.37 1021.51 1073.8 955.809 1103.98 909.999C1134.17 864.188 1178.56 829.031 1209.45 783.931C1244.61 733.149 1261.65 670.293 1257.39 608.857C1256.33 592.166 1253.49 575.476 1257.39 559.14C1262.01 539.964 1275.5 523.983 1286.87 507.647C1314.21 467.519 1326.64 409.99 1296.45 371.992C1289.71 363.469 1280.47 356.367 1269.82 356.011C1244.96 355.301 1236.44 387.972 1228.63 411.41C1213.36 457.576 1170.03 493.088 1121.74 499.125C1078.42 504.452 1031.19 488.471 992.124 508.003C957.678 525.404 940.988 565.887 937.792 604.596C934.596 643.304 942.053 681.656 942.053 720.365C942.053 759.073 932.465 800.622 902.991 825.48C879.554 845.367 844.753 851.404 815.989 840.395C787.225 829.387 773.021 800.267 759.526 752.681L759.171 751.97Z" fill="url(#paint0_linear_40_192)" stroke="black" stroke-width="20" stroke-miterlimit="10"/>
<path d="M934.595 992.032C943.117 1031.81 921.101 1074.06 888.075 1098.21C879.908 1103.89 871.385 1109.22 861.442 1111.35C842.976 1115.61 823.445 1109.93 807.465 1099.99C779.056 1082.23 759.88 1050.98 756.329 1017.96C756.329 1014.4 755.974 1010.5 758.46 1008.01C760.236 1006.24 762.366 1005.88 764.852 1005.17C808.531 994.163 852.564 985.995 896.953 980.313C910.802 978.537 931.399 977.472 934.595 992.032Z" fill="white" stroke="black" stroke-width="20" stroke-miterlimit="10"/>
<path d="M846.528 1060.21C853.785 1060.21 859.667 1053.85 859.667 1046.01C859.667 1038.16 853.785 1031.81 846.528 1031.81C839.272 1031.81 833.389 1038.16 833.389 1046.01C833.389 1053.85 839.272 1060.21 846.528 1060.21Z" fill="black"/>
<defs>
<linearGradient id="paint0_linear_40_192" x1="533.676" y1="1309.86" x2="1456.63" y2="325.14" gradientUnits="userSpaceOnUse">
<stop stop-color="#FFA3DF"/>
<stop offset="0.02" stop-color="#F9AFD0"/>
<stop offset="0.09" stop-color="#EDCAAF"/>
<stop offset="0.15" stop-color="#E4DD98"/>
<stop offset="0.21" stop-color="#DEE889"/>
<stop offset="0.25" stop-color="#DDED85"/>
<stop offset="0.45" stop-color="#C3F794"/>
<stop offset="0.56" stop-color="#B3FF9E"/>
<stop offset="0.78" stop-color="#6BEBFF"/>
<stop offset="1" stop-color="#8E68D9"/>
</linearGradient>
</defs>
</svg>
