<svg width="1760" height="1760" viewBox="0 0 1760 1760" fill="none" xmlns="http://www.w3.org/2000/svg">
<g clip-path="url(#clip0_10_398)">
<path d="M1760 0H0V1760H1760V0Z" fill="white"/>
<path d="M677.016 691.599C653.158 674.943 646.407 640.28 617.147 638.93C590.587 637.579 579.333 670.891 572.581 696.551C553.224 768.127 505.508 827.999 456.441 883.819C424.03 920.733 389.818 958.097 370.462 1003.11C351.105 1048.13 348.854 1104.4 378.114 1144.02C405.573 1180.48 453.74 1196.23 483 1231.35C514.061 1268.71 522.614 1326.33 565.829 1347.94C607.693 1368.65 659.461 1341.19 686.47 1302.92C713.479 1264.66 725.633 1218.29 748.141 1177.33C761.645 1152.57 779.202 1130.51 799.909 1111.15C832.77 1080.54 881.387 1058.48 921.001 1079.19C945.759 1092.25 960.614 1119.26 969.167 1145.82C982.221 1185.88 986.273 1230 1008.78 1265.56C1038.04 1311.93 1096.11 1335.79 1150.58 1330.38C1205.05 1324.98 1254.56 1293.02 1287.88 1249.8C1298.68 1235.85 1308.13 1220.09 1313.53 1203.44C1321.19 1179.58 1320.29 1154.37 1319.39 1129.16C1315.79 1055.33 1306.78 979.705 1326.14 908.129C1346.85 832.051 1398.61 760.474 1387.81 682.595C1381.96 640.73 1359 602.916 1352.25 561.05C1348.65 538.092 1350 514.683 1352.25 491.274C1353.15 480.02 1353.6 467.416 1345.5 458.863C1339.19 452.561 1329.74 450.76 1321.19 449.409C1255.01 439.506 1187.49 429.602 1121.77 441.307C1056.05 453.011 991.224 490.375 963.765 551.597C949.36 584.459 935.405 610.569 920.55 643.431C903.444 681.245 804.86 780.732 677.016 691.599Z" fill="#2667FF" stroke="black" stroke-width="20" stroke-miterlimit="10"/>
<path d="M1031.28 767.676C1020.48 717.257 1048.39 663.687 1090.25 633.076C1100.61 625.873 1111.41 619.121 1124.02 616.42C1147.42 611.018 1172.18 618.22 1192.44 630.825C1228.45 653.333 1252.76 692.948 1257.26 734.813C1257.26 739.315 1257.71 744.267 1254.56 747.418C1252.31 749.669 1249.61 750.119 1246.46 751.019C1191.09 764.974 1135.27 775.328 1079 782.531C1061.44 784.782 1035.34 786.133 1031.28 767.676Z" fill="white" stroke="black" stroke-width="20" stroke-miterlimit="10"/>
<path d="M1142.93 717.259C1152.12 717.259 1159.58 709.197 1159.58 699.253C1159.58 689.308 1152.12 681.246 1142.93 681.246C1133.73 681.246 1126.27 689.308 1126.27 699.253C1126.27 709.197 1133.73 717.259 1142.93 717.259Z" fill="black"/>
</g>
<defs>
<clipPath id="clip0_10_398">
<rect width="1760" height="1760" fill="white"/>
</clipPath>
</defs>
</svg>
