<svg width="1760" height="1760" viewBox="0 0 1760 1760" fill="none" xmlns="http://www.w3.org/2000/svg">
<rect width="1760" height="1760" fill="white"/>
<path d="M669.451 510.926C643.757 538.676 606.758 555.634 568.731 556.148C542.01 556.148 513.232 549.982 490.107 562.829C469.039 574.648 459.275 599.829 451.567 622.954C424.331 703.635 400.693 785.857 379.624 868.593C362.153 938.996 346.736 1012.48 362.666 1082.89C378.597 1153.29 434.096 1220.09 506.038 1226.26C544.579 1229.34 583.633 1215.47 622.174 1222.15C693.089 1235 729.574 1311.57 769.656 1371.69C778.906 1385.57 788.67 1398.93 802.031 1409.21C839.03 1437.47 892.987 1431.3 933.069 1407.66C973.152 1384.02 1001.41 1346 1029.68 1309C1057.94 1272 1087.75 1235 1128.86 1213.41C1180.24 1186.69 1243.45 1187.72 1290.73 1154.83C1331.32 1126.57 1352.91 1078.77 1367.81 1032.01C1413.54 890.177 1416.11 734.982 1374.49 591.607C1370.89 578.759 1366.27 565.398 1356.5 556.148C1340.06 540.731 1313.85 542.273 1292.78 549.982C1271.71 557.69 1252.19 570.537 1230.6 575.676C1186.92 585.954 1141.7 562.829 1110.36 530.454C1079.01 498.079 1058.46 457.996 1033.28 420.996C1008.1 383.996 975.207 349.051 932.555 336.718C884.764 322.843 831.836 340.829 794.837 374.231C747.56 416.37 709.019 468.273 668.937 511.44L669.451 510.926Z" fill="#3EC790" stroke="black" stroke-width="20" stroke-miterlimit="10"/>
<path d="M753.21 946.19C740.877 888.634 772.224 827.995 820.015 793.05C831.834 784.828 844.167 777.12 858.555 774.036C885.277 767.87 913.539 776.092 936.664 790.481C977.774 816.175 1005.52 861.398 1010.66 909.19C1010.66 914.329 1011.18 919.981 1007.58 923.579C1005.01 926.148 1001.93 926.662 998.329 927.69C935.122 943.62 871.402 955.44 807.168 963.662C787.126 966.231 757.835 967.259 753.21 946.19Z" fill="white" stroke="black" stroke-width="20" stroke-miterlimit="10"/>
<path d="M880.142 889.148C890.643 889.148 899.155 879.945 899.155 868.592C899.155 857.24 890.643 848.037 880.142 848.037C869.641 848.037 861.128 857.24 861.128 868.592C861.128 879.945 869.641 889.148 880.142 889.148Z" fill="black"/>
</svg>
