<svg width="1760" height="1760" viewBox="0 0 1760 1760" fill="none" xmlns="http://www.w3.org/2000/svg">
<rect width="1760" height="1760" fill="white"/>
<path d="M772.609 785.081C708.935 805.789 635.943 794.918 580.551 756.608C559.844 742.631 534.996 723.994 512.736 735.383C495.652 744.184 491.511 765.926 489.44 785.081C484.264 845.651 487.369 906.739 478.569 966.791C469.768 1026.84 384.352 1166.1 399.882 1209.07C407.647 1230.81 426.284 1268.61 498.241 1257.22C536.031 1251 608.506 1271.19 640.602 1314.16C653.544 1331.76 662.345 1351.44 674.769 1369.04C687.193 1386.64 705.83 1401.65 727.055 1403.72C767.952 1406.83 793.834 1362.83 821.271 1331.76C848.19 1301.74 884.428 1280.51 923.772 1272.23C954.833 1265.5 987.446 1267.05 1019.02 1262.39C1050.6 1257.73 1083.22 1244.79 1100.3 1217.87C1120.49 1186.29 1113.76 1144.88 1115.31 1107.08C1117.38 1048.07 1140.68 991.122 1171.22 940.388C1201.76 889.655 1240.59 844.098 1276.31 796.988C1302.71 762.303 1328.08 725.547 1341.02 684.131C1361.21 618.384 1373.12 484.303 1345.16 437.71C1323.94 401.99 1152.59 400.436 1077.52 510.187C1064.06 529.859 1054.23 551.085 1042.32 571.275C990.035 662.389 907.206 741.077 771.575 784.563L772.609 785.081Z" fill="#96BDF2" stroke="black" stroke-width="20" stroke-miterlimit="10"/>
<path d="M1136.54 581.11C1104.45 599.747 1104.96 652.551 1124.64 684.131C1127.74 689.307 1131.36 693.967 1136.54 697.591C1142.75 702.25 1150.52 704.32 1157.77 705.873C1185.2 711.05 1215.75 703.285 1234.9 682.06C1254.06 660.835 1259.23 626.667 1243.18 603.371C1233.35 588.875 1217.3 580.075 1200.22 575.933C1183.13 571.792 1163.46 565.58 1136.54 581.11Z" fill="white" stroke="black" stroke-width="20" stroke-miterlimit="10"/>
<path d="M1184.17 659.279C1191.6 659.279 1197.63 653.021 1197.63 645.301C1197.63 637.582 1191.6 631.324 1184.17 631.324C1176.73 631.324 1170.71 637.582 1170.71 645.301C1170.71 653.021 1176.73 659.279 1184.17 659.279Z" fill="black"/>
</svg>
