<svg width="1760" height="1760" viewBox="0 0 1760 1760" fill="none" xmlns="http://www.w3.org/2000/svg">
<rect width="1760" height="1760" fill="white"/>
<path d="M736.891 746.051C662.175 793.524 605.621 735.318 573.836 743.574C539.161 753.069 529.255 796.001 518.109 830.264C501.184 881.039 468.573 924.384 436.788 967.729C405.003 1011.07 374.042 1056.07 361.246 1107.67C348.449 1159.27 358.356 1220.37 398.81 1255.04C409.956 1264.95 423.578 1272.38 438.438 1274.86C455.363 1277.33 472.701 1273.21 489.213 1267.43C547.417 1248.02 608.099 1214.59 666.303 1233.58C705.519 1245.96 733.589 1279.4 763.31 1307.47C793.032 1335.54 831.834 1361.55 872.288 1353.7C917.283 1344.62 943.289 1298.39 961.039 1256.28C978.789 1214.17 999.017 1166.7 1041.53 1149.36C1085.7 1131.61 1135.24 1154.32 1183.12 1157.21C1254.54 1161.34 1323.47 1117.58 1359.39 1055.66C1395.3 993.735 1400.25 917.366 1384.16 848.014C1373.84 803.431 1352.37 758.435 1312.33 736.144C1264.86 709.724 1202.94 722.934 1155.05 697.752C1112.95 675.461 1090.24 628.814 1070.84 585.469C1042.36 522.309 1061.76 421.997 975.074 405.898C900.771 392.275 866.922 455.022 850.823 497.128C821.102 574.323 840.09 680.415 737.304 745.638L736.891 746.051Z" fill="#B7ABFF" stroke="black" stroke-width="20" stroke-miterlimit="10"/>
<path d="M855.359 949.566C845.452 903.331 870.633 854.62 909.024 826.549C918.518 819.944 928.425 813.752 939.983 811.275C961.449 806.321 984.152 812.926 1002.73 824.485C1035.75 845.125 1058.04 881.452 1062.17 919.843C1062.17 923.971 1062.58 928.512 1059.69 931.402C1057.63 933.466 1055.15 933.879 1052.26 934.705C1001.49 947.502 950.303 956.996 898.704 963.601C882.605 965.665 859.075 966.491 855.359 949.566Z" fill="white" stroke="black" stroke-width="20" stroke-miterlimit="10"/>
<path d="M957.324 904.156C965.759 904.156 972.597 896.763 972.597 887.644C972.597 878.524 965.759 871.131 957.324 871.131C948.889 871.131 942.051 878.524 942.051 887.644C942.051 896.763 948.889 904.156 957.324 904.156Z" fill="black"/>
</svg>
