<svg width="1760" height="1760" viewBox="0 0 1760 1760" fill="none" xmlns="http://www.w3.org/2000/svg">
<g clip-path="url(#clip0_10_392)">
<path d="M1760 0H0V1760H1760V0Z" fill="white"/>
<path d="M621.569 700.35C593.102 688.628 579.289 658.486 550.403 648.02C524.03 638.392 506.029 648.857 488.447 670.626C473.795 689.046 459.142 709.978 456.631 733.422C452.445 776.122 487.61 811.288 508.541 848.965C538.682 904.225 539.101 971.207 525.705 1032.75C512.309 1094.29 487.192 1152.48 468.353 1212.34C459.144 1241.65 451.19 1272.62 454.957 1303.18C458.725 1333.74 475.051 1364.72 503.099 1377.28C534.914 1391.52 572.591 1380.21 602.732 1362.63C709.062 1301.51 763.483 1178.85 855.999 1098.47C888.652 1070 925.909 1046.98 965.678 1030.65C1079.54 983.766 1218.11 987.534 1308.95 904.644C1371.33 848.128 1397.7 754.772 1370.07 669.37C1339.51 574.759 1295.97 507.359 1288.86 492.288C1241.13 392.652 1222.3 526.197 1101.31 559.688C1055.26 572.247 970.283 565.549 926.327 583.969C892 598.203 864.79 625.414 838.835 652.207C812.88 678.999 785.252 705.792 750.506 719.607C715.76 733.422 676.409 722.118 621.569 699.512V700.35Z" fill="#FFE0F6" stroke="black" stroke-width="20" stroke-miterlimit="10"/>
<path d="M1146.1 645.089C1106.75 668.114 1107.59 733.841 1131.87 773.193C1135.64 779.472 1140.24 785.333 1146.1 789.938C1153.64 795.799 1162.85 798.311 1172.48 799.985C1206.39 806.265 1244.06 796.636 1267.51 770.68C1290.95 744.725 1297.23 702.023 1277.55 672.719C1265.41 654.718 1245.74 643.415 1224.81 638.81C1203.87 634.205 1178.76 625.832 1146.1 645.089Z" fill="white" stroke="black" stroke-width="20" stroke-miterlimit="10"/>
<path d="M1204.29 741.375C1213.54 741.375 1221.04 733.69 1221.04 724.21C1221.04 714.731 1213.54 707.047 1204.29 707.047C1195.04 707.047 1187.55 714.731 1187.55 724.21C1187.55 733.69 1195.04 741.375 1204.29 741.375Z" fill="black"/>
</g>
<defs>
<clipPath id="clip0_10_392">
<rect width="1760" height="1760" fill="white"/>
</clipPath>
</defs>
</svg>
