<svg width="1760" height="1760" viewBox="0 0 1760 1760" fill="none" xmlns="http://www.w3.org/2000/svg">
<rect width="1760" height="1760" fill="white"/>
<path d="M737.417 486.347C705.26 482.588 686.049 525.605 686.884 558.181C687.72 590.757 699.831 622.08 699.831 654.238C698.995 726.072 638.022 780.782 581.643 825.052C525.263 869.322 463.454 922.362 460.113 994.196C459.277 1012.99 463.036 1032.2 473.059 1048.07C492.688 1079.39 532.363 1091.09 559.508 1116.15C588.325 1142.88 600.853 1182.55 608.788 1221.39C616.723 1260.23 620.899 1299.91 637.605 1335.41C654.31 1370.91 687.302 1402.65 726.559 1403.48C776.257 1404.73 813.426 1360.47 840.989 1319.12C868.553 1277.77 900.292 1231 949.155 1223.9C963.772 1221.81 979.224 1223.9 992.17 1231C1014.3 1243.94 1024.33 1270.25 1041.87 1289.47C1072.77 1322.88 1126.23 1329.98 1167.99 1311.18C1209.75 1292.39 1238.99 1252.71 1252.35 1209.28C1265.72 1165.85 1264.46 1119.07 1257.36 1073.96C1254.86 1057.68 1251.52 1041.39 1244.42 1025.94C1230.64 995.449 1203.91 972.479 1177.6 951.597C1151.29 930.715 1123.31 910.668 1104.93 882.268C1086.55 853.869 1079.87 815.446 1097.83 787.047C1117.04 756.559 1156.3 747.789 1190.54 737.348C1236.06 723.566 1284.09 698.508 1297.87 652.985C1312.91 603.704 1271.56 546.07 1219.78 543.981C1199.31 543.146 1177.6 549.828 1158.39 542.728C1135 534.375 1122.05 508.064 1119.96 483.423C1117.88 458.783 1123.31 433.724 1124.56 409.084C1124.56 403.654 1124.56 398.225 1122.89 393.631C1116.62 379.431 1096.58 378.596 1081.13 381.102C984.653 395.302 915.327 364.814 805.909 474.235C790.874 489.27 761.223 489.688 738.253 486.764L737.417 486.347Z" fill="#FFD58C" stroke="black" stroke-width="20" stroke-miterlimit="10"/>
<path d="M909.06 991.27C862.704 1004.22 811.752 980.829 781.683 943.659C774.166 934.471 767.901 924.448 764.56 913.589C758.296 892.29 763.725 868.902 774.166 849.691C792.959 815.444 828.458 790.386 867.298 784.122C871.474 783.286 876.068 783.286 878.991 785.792C881.079 787.463 881.914 790.386 882.75 792.892C898.62 843.426 911.148 894.796 921.171 946.583C924.094 962.871 926.182 986.676 909.477 991.27H909.06Z" fill="white" stroke="black" stroke-width="20" stroke-miterlimit="10"/>
<path d="M840.462 907.067C849.673 906.543 856.746 899.211 856.261 890.69C855.775 882.17 847.915 875.688 838.704 876.213C829.493 876.737 822.42 884.07 822.905 892.59C823.39 901.11 831.251 907.592 840.462 907.067Z" fill="black"/>
</svg>
