<svg width="1760" height="1760" viewBox="0 0 1760 1760" fill="none" xmlns="http://www.w3.org/2000/svg">
<g clip-path="url(#clip0_10_386)">
<path d="M1760 0H0V1760H1760V0Z" fill="white"/>
<path d="M871.68 605.984C827.12 590.286 798.763 547.244 776.989 505.72C755.216 464.197 734.455 419.128 696.477 391.277C658.499 363.426 596.215 361.907 570.897 401.911C544.059 444.448 574.441 503.188 555.199 549.775C530.894 609.022 447.343 612.566 397.719 653.077C351.64 691.056 342.019 766.507 377.465 815.12C395.694 839.933 422.53 856.643 445.823 876.898C511.145 933.613 546.591 1022.23 539.502 1108.32C534.945 1159.97 518.741 1220.23 555.706 1256.69C569.378 1270.36 588.114 1277.45 606.85 1281.5C637.739 1288.59 673.691 1288.08 696.984 1266.81C710.656 1254.66 718.251 1236.94 725.34 1220.23C742.557 1181.24 762.811 1142.24 794.713 1114.39C826.614 1086.54 873.706 1071.86 913.203 1088.06C995.741 1121.99 985.614 1248.08 1049.42 1310.36C1099.04 1358.47 1181.07 1354.42 1244.37 1326.06C1297.03 1302.26 1347.16 1258.21 1351.21 1200.48C1355.26 1142.24 1312.73 1092.62 1277.79 1045.52C1242.85 998.43 1214.49 933.107 1245.89 883.988C1273.23 841.452 1331.97 832.843 1369.44 798.409C1409.95 760.937 1416.03 692.575 1383.11 648.52C1347.16 600.92 1278.3 586.741 1242.85 538.635C1229.68 520.405 1222.09 498.631 1207.4 481.92C1192.72 465.209 1167.4 453.056 1148.16 464.702C1138.54 470.273 1132.46 480.907 1126.38 490.529C1074.73 573.575 979.031 643.963 871.68 605.984Z" fill="#FF6640" stroke="black" stroke-width="20" stroke-miterlimit="10"/>
<path d="M726.353 916.902C714.2 860.187 745.595 799.928 792.688 765.494C804.334 757.391 816.487 749.796 830.665 746.758C856.997 740.681 884.848 748.783 907.635 762.961C948.144 788.281 975.487 832.843 980.55 879.937C980.55 885 981.057 890.571 977.512 894.115C974.98 896.647 971.943 897.154 968.398 898.166C906.115 913.864 843.325 925.511 780.028 933.613C760.28 936.145 730.911 937.664 726.353 916.902Z" fill="white" stroke="black" stroke-width="20" stroke-miterlimit="10"/>
<path d="M851.937 860.695C862.284 860.695 870.672 851.627 870.672 840.44C870.672 829.253 862.284 820.184 851.937 820.184C841.589 820.184 833.201 829.253 833.201 840.44C833.201 851.627 841.589 860.695 851.937 860.695Z" fill="black"/>
</g>
<defs>
<clipPath id="clip0_10_386">
<rect width="1760" height="1760" fill="white"/>
</clipPath>
</defs>
</svg>
