<svg width="1760" height="1760" viewBox="0 0 1760 1760" fill="none" xmlns="http://www.w3.org/2000/svg">
<rect width="1760" height="1760" fill="white"/>
<path d="M392.101 561.658C391.059 530.907 425.978 509.538 455.686 500.678C485.393 491.817 516.665 493.902 547.414 495.987C563.571 497.029 580.769 498.593 593.277 508.496C603.701 516.835 608.913 529.343 613.082 541.852C627.154 587.196 625.591 636.189 637.578 682.575C649.565 728.961 681.879 775.348 729.306 780.56C764.747 784.208 799.665 762.318 819.992 732.61C840.318 702.902 847.614 666.418 850.741 630.455C853.868 595.535 853.869 560.094 850.221 524.653C848.657 509.538 846.573 493.381 851.784 479.309C863.25 448.558 901.818 439.177 934.652 437.613C998.758 434.486 1062.86 443.346 1123.84 463.673C1134.79 467.321 1146.25 471.491 1155.11 479.309C1170.23 492.339 1175.44 513.186 1179.61 532.471C1188.99 572.082 1197.85 611.692 1207.23 651.303C1210.36 664.854 1213.48 678.927 1222.34 689.351C1235.89 706.029 1258.31 711.241 1278.11 718.016C1341.17 739.907 1395.38 794.111 1403.19 860.303C1411.01 926.495 1360.98 998.42 1294.27 1001.55C1274.46 1002.59 1254.14 997.899 1234.85 1003.11C1196.29 1014.06 1179.61 1059.4 1178.57 1099.53C1177.52 1139.66 1186.38 1180.32 1174.4 1218.36C1154.59 1281.95 1071.2 1316.87 1012.31 1285.6C972.698 1264.75 948.724 1223.06 929.962 1181.88C911.199 1140.71 894.52 1097.45 862.207 1066.7C829.894 1035.95 775.692 1021.35 739.731 1048.98C678.231 1095.88 726.7 1204.29 681.357 1267.36C663.115 1292.9 631.845 1305.93 601.616 1313.74C556.273 1325.73 506.762 1327.82 462.461 1311.14C418.161 1294.46 380.635 1257.45 370.733 1211.59C366.563 1191.26 354.576 1144.35 356.14 1124.03C367.085 946.821 400.44 820.171 392.101 561.136V561.658Z" fill="#E6E1E1" stroke="black" stroke-width="20" stroke-miterlimit="10"/>
<path d="M479.138 1053.15C437.964 1077.64 437.442 1149.05 463.501 1191.26C467.671 1198.04 472.884 1204.29 479.138 1209.5C487.477 1215.76 497.378 1218.89 507.281 1220.45C543.763 1227.22 584.416 1216.8 609.953 1188.66C635.491 1160.51 641.745 1114.65 620.898 1083.37C607.868 1064.09 586.5 1052.1 564.089 1046.89C541.678 1041.68 515.099 1032.3 479.138 1053.67V1053.15Z" fill="white" stroke="black" stroke-width="20" stroke-miterlimit="10"/>
<path d="M539.596 1138.1C548.231 1138.1 555.232 1131.1 555.232 1122.46C555.232 1113.83 548.231 1106.83 539.596 1106.83C530.961 1106.83 523.961 1113.83 523.961 1122.46C523.961 1131.1 530.961 1138.1 539.596 1138.1Z" fill="black" stroke="black" stroke-width="20" stroke-miterlimit="10"/>
</svg>
