<svg width="1760" height="1760" viewBox="0 0 1760 1760" fill="none" xmlns="http://www.w3.org/2000/svg">
<rect width="1760" height="1760" fill="white"/>
<path d="M682.939 554.563C626.598 581.084 572.328 611.748 520.13 646.141C513.916 650.285 507.287 654.843 502.73 661.059C482.016 690.066 518.886 726.945 520.543 762.582C522.615 808.578 469.588 833.441 437.275 866.177C395.019 909.687 387.561 982.617 420.703 1033.59C435.203 1055.96 455.917 1073.78 466.688 1097.81C480.359 1128.48 475.803 1163.29 476.217 1196.85C476.631 1230.42 484.502 1268.12 513.087 1285.53C547.885 1306.66 592.213 1286.36 626.183 1264.81C660.154 1243.26 699.924 1217.98 738.451 1230.42C781.121 1244.09 797.278 1293.82 822.548 1330.7C841.191 1358.05 867.704 1380.01 898.36 1393.68C925.288 1405.7 958.43 1410.26 982.872 1393.68C1005.24 1378.35 1013.11 1349.76 1020.57 1323.65C1033 1281.38 1049.57 1239.53 1078.57 1206.38C1107.57 1173.23 1149.82 1149.61 1193.74 1153.34C1235.16 1156.66 1282.39 1181.52 1314.29 1154.59C1324.23 1146.3 1330.45 1133.87 1335.83 1121.85C1361.52 1066.32 1380.99 995.049 1341.63 948.224C1328.38 932.477 1310.15 922.118 1295.65 908.029C1239.31 853.331 1248.01 761.339 1269.55 685.507C1291.09 609.676 1321.75 529.701 1296.48 455.527C1286.95 427.763 1264.99 400 1235.58 400C1214.45 400 1195.81 414.917 1185.45 432.736C1175.09 450.554 1170.95 471.687 1166.81 492.406C1159.77 529.286 1152.72 566.166 1146.1 603.046C1138.22 644.898 1129.94 687.993 1108.4 724.873C1086.85 761.753 1049.57 792.417 1006.9 794.075C960.088 795.732 918.659 762.996 890.903 725.702C863.147 688.408 844.505 644.484 815.92 607.604C787.335 570.724 738.866 527.629 683.353 554.149L682.939 554.563Z" fill="#8CFFD9" stroke="black" stroke-width="20" stroke-miterlimit="10"/>
<path d="M585.999 983.031C584.756 935.377 619.14 891.868 662.225 871.563C672.582 866.591 683.766 862.861 695.366 862.447C717.322 861.204 738.45 872.392 754.607 887.309C783.192 913.83 798.52 953.61 795.206 992.562C795.206 996.706 793.964 1001.26 790.65 1003.34C788.578 1004.99 785.678 1004.99 782.778 1005.41C730.58 1008.31 677.967 1008.31 625.768 1005.41C609.612 1004.58 585.998 1000.85 585.584 983.446L585.999 983.031Z" fill="white" stroke="black" stroke-width="20" stroke-miterlimit="10"/>
<path d="M713.416 942.955C715.123 933.962 709.764 925.391 701.447 923.811C693.13 922.232 685.004 928.242 683.297 937.236C681.59 946.229 686.948 954.801 695.265 956.381C703.582 957.96 711.708 951.949 713.416 942.955Z" fill="black"/>
</svg>
