<svg width="1760" height="1760" viewBox="0 0 1760 1760" fill="none" xmlns="http://www.w3.org/2000/svg">
<rect width="1760" height="1760" fill="white"/>
<path d="M476.474 552.897C449.729 568.309 441.117 633.132 437.037 684.81C434.317 718.808 436.13 754.62 452.449 784.538C470.128 817.177 521.804 837.576 534.95 872.028C562.148 945.011 543.109 1029.78 507.298 1084.63C494.152 1105.03 460.609 1120.9 462.876 1145.37C463.782 1157.16 470.128 1167.59 476.474 1178.01C503.219 1222.44 531.324 1267.77 573.027 1299.5C614.731 1331.23 672.3 1346.19 718.99 1323.98C730.322 1318.54 741.201 1310.83 747.094 1299.5C752.08 1289.98 753.44 1279.1 754.347 1268.22C760.24 1200.23 761.147 1131.78 757.521 1063.33C756.161 1040.66 754.8 1017.99 759.333 995.782C763.866 973.57 777.012 952.264 796.957 942.291C809.196 936.398 823.249 935.038 836.848 934.131C860.42 932.318 884.444 931.411 908.469 930.505C935.667 929.598 965.132 930.052 986.89 945.918C1006.84 960.424 1016.35 985.356 1024.97 1008.47C1042.19 1055.62 1058.96 1110.92 1031.77 1153.53C1018.17 1175.29 995.502 1189.35 977.824 1207.93C927.054 1261.88 932.947 1360.7 993.236 1403.31C1030.41 1429.6 1080.27 1432.77 1124.69 1421.9C1148.27 1416 1170.93 1406.48 1190.42 1391.98C1256.6 1342.11 1269.75 1247.37 1258.42 1165.32C1252.52 1122.26 1241.19 1080.1 1224.87 1039.75C1210.37 1003.49 1192.23 961.33 1212.63 928.692C1222.61 912.826 1239.83 903.307 1253.43 890.614C1287.43 859.335 1300.12 811.284 1303.29 765.499C1308.73 673.93 1282.89 577.375 1222.61 508.472C1185.43 466.314 1125.6 517.991 1094.32 523.431C1069.39 527.511 1042.19 523.431 1023.15 506.659C991.876 479.007 1000.94 424.156 995.049 382.905C989.61 343.467 962.865 299.495 922.975 301.309C889.431 302.669 865.859 336.213 857.699 368.399C840.474 435.942 876.738 524.791 771.119 512.098C738.028 508.019 737.574 436.849 733.948 417.356C722.616 348.906 690.431 318.987 644.648 343.466C602.944 365.679 604.759 435.942 593.426 469.941C582.547 501.219 568.494 520.258 531.323 539.75C508.658 551.536 499.139 539.751 476.474 552.897Z" fill="#FCFFA6" stroke="black" stroke-width="20" stroke-miterlimit="10"/>
<path d="M809.653 676.195C801.494 681.635 792.428 687.982 788.802 696.595C785.175 705.661 788.801 714.274 793.334 721.074C811.466 750.539 833.225 777.284 857.703 801.763C863.142 807.203 869.035 812.643 877.194 814.003C894.873 818.082 916.632 804.03 934.764 790.884C963.322 770.485 995.959 741.472 992.333 713.82C990.973 704.301 985.081 696.595 978.734 689.795C961.509 670.302 942.47 652.624 921.618 636.304C915.272 631.318 908.925 626.785 899.859 626.332C890.793 625.878 831.411 660.783 809.199 675.742L809.653 676.195Z" fill="white" stroke="black" stroke-width="20" stroke-miterlimit="10"/>
<path d="M907.334 733.766C915.577 726.842 917.691 715.79 912.055 709.08C906.42 702.371 895.168 702.545 886.925 709.469C878.682 716.393 876.569 727.446 882.205 734.155C887.84 740.865 899.091 740.691 907.334 733.766Z" fill="black"/>
</svg>
