<svg width="1760" height="1760" viewBox="0 0 1760 1760" fill="none" xmlns="http://www.w3.org/2000/svg">
<rect width="1760" height="1760" fill="white"/>
<path d="M691.969 428.323C647.183 459.004 628.493 522.129 577.007 538.351C569.248 540.819 561.138 542.583 554.438 546.815C533.632 560.568 535.395 591.249 539.979 615.934C549.148 667.775 558.317 722.436 539.979 771.808C525.874 809.189 496.604 841.28 490.961 880.778C484.966 923.801 508.594 964.71 518.116 1007.38C525.521 1041.24 524.11 1077.21 537.511 1108.94C550.911 1140.68 588.292 1167.13 619.677 1152.32C648.947 1138.22 653.884 1099.07 656 1066.63C659.526 1016.9 666.226 967.531 676.453 918.864C680.685 898.058 689.148 874.077 709.601 868.787C723.707 865.261 738.518 872.314 749.098 882.188C780.13 909.695 788.947 954.482 791.062 996.096C795.999 1085.67 778.72 1175.24 779.777 1264.82C780.13 1300.44 784.01 1337.47 804.463 1366.74C824.916 1396.01 865.47 1413.64 896.856 1397.42C928.594 1380.84 937.41 1340.29 939.879 1304.32C947.284 1182.65 918.367 1060.28 931.767 939.318C933.531 922.038 936.704 904.406 946.226 889.947C955.747 875.488 973.38 864.909 990.307 869.14C1012.88 874.43 1023.1 900.526 1027.33 923.449C1033.68 956.246 1035.45 990.1 1033.33 1023.6C1030.86 1057.1 1024.16 1091.31 1031.21 1124.46C1038.27 1157.61 1064.01 1190.06 1097.51 1190.41C1133.13 1191.11 1159.93 1156.91 1172.98 1123.76C1204.71 1044.06 1194.84 954.483 1210.71 870.198C1226.93 782.74 1271.01 700.219 1270.66 610.997C1270.66 560.568 1255.5 511.196 1231.87 466.762C1214.59 434.318 1191.67 403.637 1159.58 386.357C1016.76 309.478 1029.8 445.25 1015.34 575.379C1011.46 608.529 955.042 633.567 923.304 623.693C891.566 613.819 878.166 576.79 874.992 543.64C871.818 510.491 873.581 475.225 855.596 447.366C828.795 405.753 773.782 372.956 692.674 428.323H691.969Z" fill="#96BDF2" stroke="black" stroke-width="20" stroke-miterlimit="10"/>
<path d="M830.56 781.682C825.976 771.102 833.382 747.827 846.429 732.31C866.883 708.33 903.205 699.513 932.475 711.151C961.744 722.788 981.845 754.175 980.434 785.561C980.434 787.324 980.434 789.088 979.023 790.851C977.613 792.967 975.144 793.672 972.676 794.377C921.542 808.131 837.26 797.551 830.56 781.682Z" fill="#FAFCFF" stroke="black" stroke-width="20" stroke-miterlimit="10"/>
<path d="M904.967 737.6C910.81 737.6 915.546 732.864 915.546 727.021C915.546 721.178 910.81 716.441 904.967 716.441C899.124 716.441 894.387 721.178 894.387 727.021C894.387 732.864 899.124 737.6 904.967 737.6Z" fill="black" stroke="black" stroke-width="20" stroke-miterlimit="10"/>
</svg>
