<svg width="1760" height="1760" viewBox="0 0 1760 1760" fill="none" xmlns="http://www.w3.org/2000/svg">
<rect width="1760" height="1760" fill="white"/>
<path d="M853.371 356.781C815.907 360.861 796.248 405.374 798.103 443.209C799.957 481.045 815.165 517.396 813.681 554.861C812.939 571.924 807.746 590.471 794.022 600.858C784.378 607.905 772.138 610.131 762.123 616.437C727.997 637.951 735.786 691.366 711.305 723.266C700.919 736.62 685.712 745.523 676.439 759.619C655.667 791.519 674.213 833.064 684.228 869.787C703.887 941.749 686.453 1017.42 673.099 1090.49C669.39 1110.15 666.052 1130.56 669.761 1150.22C673.47 1169.88 686.083 1189.16 705.371 1195.1C732.82 1203.63 762.493 1183.23 790.684 1188.42C820.729 1193.62 838.534 1225.14 845.582 1254.82C852.629 1284.49 852.628 1316.4 866.724 1343.1C880.819 1369.81 916.428 1389.84 942.022 1372.78C966.132 1356.83 964.649 1321.22 958.714 1292.66C952.779 1264.09 946.473 1230.71 966.503 1209.57C980.227 1195.47 1001.74 1192.5 1021.4 1193.62C1041.06 1194.73 1060.72 1199.92 1080.38 1198.44C1133.05 1194.36 1172.37 1140.2 1172 1087.53C1171.63 1034.85 1138.99 986.262 1097.07 954.361C1085.57 945.458 1072.96 937.297 1064.8 925.056C1038.83 886.85 1068.88 835.29 1061.09 789.665C1059.61 781.133 1056.64 772.23 1050.33 766.295C1035.5 751.829 1011.39 758.135 991.727 763.699C972.068 769.263 945.732 771.117 935.717 752.942C931.636 745.894 931.636 736.991 931.636 728.831C932.378 691.366 937.2 654.272 945.731 617.92C951.295 594.551 956.488 565.247 937.571 550.781C932.378 546.7 926.072 544.475 920.508 541.137C898.995 527.041 897.14 496.253 902.704 471.029C908.267 445.806 919.024 420.952 915.315 395.729C911.606 370.505 883.787 353.071 853.371 356.409V356.781Z" fill="#B0FCA4" stroke="black" stroke-width="20" stroke-miterlimit="10"/>
<path d="M916.797 1045.61C942.02 1023.35 935.714 970.31 921.248 937.668C919.022 932.475 916.056 927.653 912.717 923.943C908.266 919.121 903.072 916.895 897.879 915.782C878.591 911.331 858.191 920.234 845.579 942.119C832.968 964.005 831.113 1000.36 842.611 1024.47C849.659 1039.3 861.158 1048.58 873.028 1052.29C884.897 1056 900.476 1059.71 916.797 1045.61Z" fill="white" stroke="black" stroke-width="20" stroke-miterlimit="10"/>
<path d="M882.613 994.851C887.732 994.679 891.663 988.065 891.394 980.08C891.125 972.095 886.758 965.761 881.639 965.934C876.52 966.106 872.589 972.719 872.858 980.704C873.127 988.69 877.495 995.023 882.613 994.851Z" fill="black"/>
</svg>
