<svg width="1760" height="1760" viewBox="0 0 1760 1760" fill="none" xmlns="http://www.w3.org/2000/svg">
<rect width="1760" height="1760" fill="white"/>
<path d="M671.986 488.165C650.478 498.177 638.611 525.248 641.207 548.982C656.411 696.945 586.325 650.962 559.626 677.291C549.614 687.303 550.726 703.25 554.064 716.97C562.593 750.716 566.671 786.687 557.771 820.433C548.871 854.179 525.51 885.7 492.136 896.454C451.345 909.804 397.204 893.487 370.134 926.862C357.526 942.438 355.671 964.317 356.042 984.342C356.042 1017.72 362.718 1056.28 391.271 1073.71C407.587 1083.73 427.612 1084.1 446.524 1084.1C534.038 1084.1 621.924 1075.2 707.585 1058.14C723.901 1054.8 740.959 1051.09 753.938 1040.71C779.154 1020.68 782.491 984.342 782.491 952.079C782.491 919.817 782.121 884.216 803.628 860.112C826.62 834.524 868.894 833.412 897.818 851.212C926.743 869.012 944.172 902.387 950.476 936.133C960.117 987.309 968.646 1041.08 908.201 1126.37C886.693 1156.78 881.131 1201.65 904.493 1230.95C924.517 1256.16 959.746 1263.95 991.637 1268.03C1065.8 1278.04 1140.71 1280.64 1215.24 1275.08C1232.3 1273.96 1250.1 1271.74 1263.82 1262.1C1290.89 1242.81 1290.89 1203.13 1287.93 1170.13C1283.1 1112.28 1278.28 1054.8 1273.46 996.95C1271.98 980.633 1271.24 962.092 1282.36 949.483C1291.26 939.471 1305.35 936.133 1317.96 932.796C1343.92 926.121 1369.88 916.479 1390.27 898.679C1410.67 880.879 1423.65 853.437 1418.83 827.108C1411.04 784.091 1363.57 762.583 1322.04 748.862C1308.32 744.412 1294.6 739.962 1283.85 730.32C1265.68 714.003 1261.6 687.303 1258.63 663.199C1250.47 593.853 1260.11 536.003 1225.63 504.853C1183.72 467.028 1067.29 510.045 1022.04 496.695C976.804 483.344 950.104 478.894 937.867 481.861C854.431 501.515 758.017 448.486 671.986 488.165Z" fill="#FFD58C" stroke="black" stroke-width="20" stroke-miterlimit="10"/>
<path d="M965 734.029C984.654 723.275 985.331 675.437 985.331 647.254C985.331 636.871 985.331 626.116 981.252 617.216C974.577 602.383 960.487 598.304 947.508 596.079C922.292 592 897.075 591.258 871.859 594.225C867.409 594.596 862.959 595.337 858.88 597.933C849.609 604.237 845.901 619.441 843.676 632.791C839.968 656.154 837.002 679.888 835.148 703.621C834.777 709.554 834.405 715.858 836.63 721.421C839.968 729.95 848.497 732.546 855.914 734.029C896.334 741.817 938.671 748.492 965 734.029Z" fill="white" stroke="black" stroke-width="20" stroke-miterlimit="10"/>
<path d="M914.508 678.402C920.652 678.402 925.633 673.421 925.633 667.277C925.633 661.133 920.652 656.152 914.508 656.152C908.364 656.152 903.383 661.133 903.383 667.277C903.383 673.421 908.364 678.402 914.508 678.402Z" fill="black" stroke="black" stroke-width="20" stroke-miterlimit="10"/>
</svg>
