<svg width="1760" height="1760" viewBox="0 0 1760 1760" fill="none" xmlns="http://www.w3.org/2000/svg">
<g clip-path="url(#clip0_10_410)">
<path d="M1760 0H0V1760H1760V0Z" fill="white"/>
<path d="M842.918 360.005C807.001 371.977 792.701 426.852 788.045 464.764C784.387 496.691 791.038 565.533 757.782 605.108C720.536 649.34 665.663 647.677 555.585 660.315C543.28 661.645 529.314 663.973 522.995 674.948C519.337 681.599 519.669 689.913 520.667 697.563C524.657 740.131 530.311 782.368 537.628 824.271C540.621 842.23 544.279 860.854 555.253 875.82C581.193 911.404 638.726 912.069 663.002 948.985C684.951 982.241 664.998 1031.13 630.079 1050.09C603.807 1064.39 567.89 1068.71 554.587 1095.65C548.269 1108.62 548.602 1123.58 549.599 1137.88C552.592 1197.41 555.585 1256.94 558.578 1316.47C558.911 1324.79 559.576 1333.77 565.23 1340.09C569.553 1345.07 576.204 1347.73 582.855 1349.73C642.716 1367.69 707.232 1360.7 769.421 1353.72C781.393 1352.39 793.699 1350.73 803.343 1343.41C815.648 1333.77 818.973 1316.81 819.305 1301.17C819.97 1266.59 809.329 1232.67 805.338 1198.08C801.347 1163.49 804.673 1125.25 828.618 1099.97C845.246 1082.34 871.185 1073.7 895.13 1078.02C919.074 1082.34 940.69 1098.64 950.667 1120.92C979.267 1183.78 913.753 1252.95 921.734 1321.79C922.399 1328.11 924.062 1334.76 928.718 1339.42C957.318 1368.02 1034.47 1357.38 1098.32 1356.38C1111.63 1356.38 1125.93 1355.38 1135.9 1346.74C1148.54 1335.76 1149.54 1317.14 1149.54 1300.51C1148.87 1251.95 1144.22 1203.4 1135.9 1155.51C1132.91 1137.55 1129.92 1116.6 1143.22 1103.96C1158.18 1089.66 1183.13 1096.98 1200.42 1108.28C1217.71 1119.59 1234.34 1135.56 1254.96 1135.89C1277.57 1136.55 1296.86 1118.26 1306.17 1097.64C1324.8 1055.74 1307.84 1000.87 1268.59 976.92C1241.99 960.624 1207.4 957.631 1184.46 936.347C1159.18 913.067 1155.52 875.154 1153.53 840.9C1143.55 679.936 1169.49 645.017 1141.89 635.039C1110.3 623.732 923.064 640.36 904.773 577.172C894.131 540.59 951.332 486.714 933.374 411.886C927.388 387.608 900.45 341.714 844.247 360.338L842.918 360.005Z" fill="#B7ABFF" stroke="black" stroke-width="20" stroke-miterlimit="10"/>
<path d="M885.15 742.792C802.342 768.067 780.726 889.788 813.982 933.687C869.52 1006.52 947.005 876.818 958.645 822.276C974.275 749.776 919.071 732.483 885.15 742.792Z" fill="white" stroke="black" stroke-width="20" stroke-miterlimit="10"/>
<path d="M880.164 852.872C885.674 852.872 890.14 848.405 890.14 842.895C890.14 837.385 885.674 832.918 880.164 832.918C874.654 832.918 870.188 837.385 870.188 842.895C870.188 848.405 874.654 852.872 880.164 852.872Z" fill="black" stroke="black" stroke-width="20" stroke-miterlimit="10"/>
</g>
<defs>
<clipPath id="clip0_10_410">
<rect width="1760" height="1760" fill="white"/>
</clipPath>
</defs>
</svg>
