<svg width="1760" height="1760" viewBox="0 0 1760 1760" fill="none" xmlns="http://www.w3.org/2000/svg">
<rect width="1760" height="1760" fill="white"/>
<path d="M592.162 559.885C570.583 563.881 562.591 589.457 559.394 611.036C550.603 674.975 550.203 740.513 559.394 804.851C563.79 836.022 570.983 869.19 593.361 891.569C622.133 920.341 668.088 923.938 702.454 946.316C730.027 964.699 748.409 995.469 751.606 1028.24C757.6 1094.57 702.054 1128.14 689.267 1132.94C657.298 1144.93 577.776 1083.79 564.589 1086.58C542.611 1091.38 536.217 1119.75 535.417 1142.53C533.419 1202.07 538.614 1262.02 550.603 1320.76C555.798 1345.54 562.591 1370.71 578.576 1390.29C598.556 1414.27 629.325 1425.46 660.095 1431.45C705.65 1440.64 752.804 1440.25 797.96 1430.25C832.726 1422.66 867.492 1408.28 889.071 1379.9C911.849 1349.93 914.646 1310.37 920.24 1273.2C925.835 1234.84 934.626 1196.88 946.215 1160.11C956.205 1128.54 973.389 1093.78 1005.76 1086.98C1020.14 1084.18 1035.33 1087.38 1048.51 1093.78C1083.28 1110.56 1104.46 1146.53 1116.85 1183.29C1129.24 1220.06 1133.63 1258.42 1145.62 1295.18C1150.02 1308.77 1156.01 1322.76 1166.4 1332.75C1181.98 1347.53 1205.16 1350.73 1226.74 1352.73C1254.31 1354.73 1281.89 1355.53 1309.06 1354.73C1314.25 1354.73 1319.85 1354.33 1323.44 1350.73C1328.24 1346.33 1328.24 1339.14 1327.84 1332.75C1321.85 1203.67 1315.85 1074.19 1310.26 945.117C1306.66 863.595 1302.67 782.473 1295.47 701.35C1292.28 664.585 1283.88 621.826 1250.32 606.241C1231.14 597.449 1208.76 600.247 1187.98 603.044C1148.02 608.639 1107.66 612.635 1067.3 615.033C1001.76 619.428 931.429 619.028 876.683 582.264C856.303 568.677 837.921 547.497 838.321 523.12C838.321 504.738 849.11 488.353 857.901 471.969C872.287 445.195 882.277 414.823 877.482 384.852C872.687 354.88 850.709 326.108 820.738 321.713C783.175 315.718 749.208 348.487 736.82 384.452C724.432 420.418 727.629 479.562 724.432 517.126C717.24 602.645 596.957 559.885 592.961 560.284L592.162 559.885Z" fill="#2667FF" stroke="black" stroke-width="20" stroke-miterlimit="10"/>
<path d="M844.318 834.023C860.302 822.434 857.504 773.68 857.504 743.309C857.504 732.12 857.505 720.531 854.308 710.94C849.113 694.955 837.525 690.56 827.135 688.162C806.755 683.766 786.375 682.967 765.995 686.164C762.398 686.563 758.801 687.362 755.605 690.16C748.012 696.953 745.215 713.338 743.617 727.724C740.42 752.9 738.421 778.476 736.823 804.051C736.823 810.445 736.024 817.238 738.022 823.233C740.819 832.424 747.613 835.222 753.607 836.82C785.975 845.212 825.821 847.128 847 831.543L844.318 834.023Z" fill="white" stroke="black" stroke-width="20" stroke-miterlimit="10"/>
<path d="M755.203 813.642C761.824 813.642 767.192 808.274 767.192 801.653C767.192 795.032 761.824 789.665 755.203 789.665C748.582 789.665 743.215 795.032 743.215 801.653C743.215 808.274 748.582 813.642 755.203 813.642Z" fill="black" stroke="black" stroke-width="20" stroke-miterlimit="10"/>
</svg>
