<svg width="1760" height="1760" viewBox="0 0 1760 1760" fill="none" xmlns="http://www.w3.org/2000/svg">
<rect width="1760" height="1760" fill="white"/>
<path d="M535.415 440.037C503.826 440.495 472.694 443.699 441.105 445.531C431.491 445.989 420.961 446.905 412.72 451.483C391.661 463.386 390.287 492.23 391.203 516.495C401.733 739.916 412.263 963.337 422.793 1186.76C424.624 1225.67 429.202 1270.08 459.876 1293.89C480.478 1309.46 507.946 1312.2 534.042 1314.04C697.025 1325.94 1070.15 1319.99 1098.99 1313.12C1155.3 1299.84 1200.63 1282.44 1206.12 1224.3C1209.33 1191.79 1201.08 1157.91 1212.99 1127.7C1227.18 1091.53 1267.47 1071.39 1305.92 1068.64C1329.73 1066.81 1353.54 1070.47 1376.89 1064.98C1413.51 1056.28 1441.9 1022.86 1447.85 985.771C1453.8 948.687 1437.32 909.771 1408.02 885.963C1372.31 857.12 1321.95 851.626 1285.32 823.698C1225.35 778.373 1220.77 691.844 1195.13 620.88C1191.01 608.976 1185.06 596.615 1173.61 591.121C1154.84 581.964 1133.33 596.615 1112.73 598.904C1077.47 602.567 1049.55 570.518 1032.15 539.844C1014.75 509.169 997.812 473.459 964.849 460.639C930.513 447.82 890.226 466.591 869.624 496.808C849.022 527.024 844.444 565.482 845.818 602.109C848.107 665.747 1019.33 1110.76 767.988 1057.65C516.646 1004.54 656.738 671.241 677.798 568.687C691.074 504.591 623.317 438.206 535.874 440.037H535.415Z" fill="#99E6FF" stroke="black" stroke-width="20" stroke-miterlimit="10"/>
<path d="M1007.88 816.373C1002.39 834.229 997.351 855.746 1010.17 869.939C1018.41 879.096 1031.69 882.3 1044.05 883.674C1059.61 885.963 1076.1 886.421 1091.2 881.843C1106.31 877.264 1120.05 867.192 1125.54 852.999C1131.03 837.891 1126.46 820.951 1120.5 806.301C1109.52 778.373 1093.95 751.361 1069.69 732.59C1066.94 730.759 1064.19 728.47 1060.99 727.554C1053.66 725.723 1045.42 730.301 1041.76 736.71C1038.1 743.12 1014.75 795.771 1008.34 816.373H1007.88Z" fill="white" stroke="black" stroke-width="20" stroke-miterlimit="10"/>
<path d="M1065.1 841.553C1073.7 841.553 1080.67 835.814 1080.67 828.734C1080.67 821.654 1073.7 815.915 1065.1 815.915C1056.51 815.915 1049.54 821.654 1049.54 828.734C1049.54 835.814 1056.51 841.553 1065.1 841.553Z" fill="black"/>
</svg>
