<svg width="1760" height="1760" viewBox="0 0 1760 1760" fill="none" xmlns="http://www.w3.org/2000/svg">
<g clip-path="url(#clip0_10_404)">
<path d="M1760 0H0V1760H1760V0Z" fill="white"/>
<path d="M529.535 765.519C525.776 785.984 529.535 807.286 534.129 828.169C542.9 871.189 553.341 917.133 585.083 947.623C623.09 984.377 684.486 991.478 717.064 1032.83C735.858 1056.63 741.705 1089.63 732.517 1118.45C723.328 1147.27 699.104 1170.66 669.868 1179.01C631.443 1189.87 585.084 1177.34 554.595 1202.82C535.383 1219.11 529.117 1245.42 523.688 1270.06C515.752 1307.24 511.576 1354.02 542.901 1375.32C557.519 1385.34 575.895 1386.59 593.437 1387.43C732.1 1394.95 870.762 1399.96 1009.84 1402.88C1064.14 1404.14 1118.43 1404.55 1171.89 1396.2C1191.52 1392.86 1211.99 1388.26 1227.44 1375.32C1243.31 1361.95 1252.08 1341.9 1260.02 1322.69C1271.71 1294.71 1283.41 1265.47 1280.07 1235.4C1275.89 1198.22 1248.74 1167.73 1220.76 1143.09C1192.78 1118.45 1161.03 1096.31 1141.41 1064.57C1121.78 1032.83 1118.02 986.883 1144.75 960.57C1171.89 933.839 1219.93 936.763 1244.98 907.944C1255.84 895.414 1260.44 878.707 1264.2 862.836C1280.49 794.756 1289.67 725.422 1291.76 655.671C1292.6 635.623 1303.46 578.82 1286.75 567.543C1263.78 551.672 1226.61 604.298 1168.14 592.603C1062.05 571.72 1166.05 406.323 1062.88 384.186C1035.74 378.339 1009.01 395.046 988.124 413.841C701.61 672.378 533.294 745.053 529.535 765.519Z" fill="#FFF570" stroke="black" stroke-width="20" stroke-miterlimit="10"/>
<path d="M1039.08 765.518C1044.09 778.048 1034.07 805.615 1017.78 823.157C992.303 850.305 949.283 859.076 915.035 844.04C880.787 829.004 858.651 790.996 861.575 753.824C861.575 751.735 861.993 749.647 863.246 747.976C864.917 745.47 867.84 745.053 870.763 744.217C931.742 730.017 1031.56 747.141 1039.08 765.518Z" fill="#FAFCFF" stroke="black" stroke-width="20" stroke-miterlimit="10"/>
<path d="M950.953 782.647C957.873 782.647 963.482 777.037 963.482 770.117C963.482 763.197 957.873 757.586 950.953 757.586C944.033 757.586 938.424 763.197 938.424 770.117C938.424 777.037 944.033 782.647 950.953 782.647Z" fill="black" stroke="black" stroke-width="20" stroke-miterlimit="10"/>
</g>
<defs>
<clipPath id="clip0_10_404">
<rect width="1760" height="1760" fill="white"/>
</clipPath>
</defs>
</svg>
