<svg width="1760" height="1760" viewBox="0 0 1760 1760" fill="none" xmlns="http://www.w3.org/2000/svg">
<rect width="1760" height="1760" fill="white"/>
<path d="M596 526.956C577 517 547.037 514.407 541.259 555.263C528.879 643.166 508.244 776.465 476.055 796.686C443.867 816.908 409.202 817.734 384.854 844.971C341.523 893.668 386.917 959.286 417.043 989C447.168 1018.71 489.675 1038.52 505.357 1077.73C528.054 1134.27 497.103 1186.27 489.675 1246.93C488.849 1253.12 488.437 1259.31 491.326 1264.68C494.214 1271.28 500.816 1274.99 507.006 1278.29C563.543 1308.01 629.16 1320.39 692.3 1312.14C712.934 1309.66 735.219 1303.88 749.25 1288.61C759.154 1277.47 764.105 1262.61 767.406 1247.76C776.073 1211.44 778.962 1173.47 794.232 1139.63C809.501 1105.79 840.863 1075.25 878.004 1076.08C904.415 1076.49 928.763 1093 944.858 1114.04C960.952 1135.09 970.858 1160.27 980.35 1185.03C1015.43 1277.06 987.776 1349.28 1138.4 1358.36C1172.66 1360.42 1210.62 1364.55 1236.62 1342.26C1259.73 1322.45 1265.51 1289.44 1269.22 1259.31C1299.35 1018.3 1310.08 773.988 1368.27 538.343C1375.28 509.454 1409.95 459.932 1382.71 447.551C1372.39 443.011 1306.78 468.185 1192.05 462.408C1058.35 455.392 1072.79 579.612 1077.33 601.897C1099.61 707.133 1116.53 819.384 1028.22 872.621C1011.71 882.526 890.798 941.953 833.023 688.149C818.167 622.944 733.98 593.23 587.892 523.073L596 526.956Z" fill="#3EC790" stroke="black" stroke-width="20" stroke-miterlimit="10"/>
<path d="M744.712 900.272C692.301 826.813 589.957 870.971 570.148 930.398C536.721 1029.03 666.715 1039.35 713.348 1021.6C774.837 998.08 766.171 930.398 744.712 900.272Z" fill="white" stroke="black" stroke-width="20" stroke-miterlimit="10"/>
<path d="M681.986 920.905C692.698 920.905 701.382 914.069 701.382 905.636C701.382 897.203 692.698 890.366 681.986 890.366C671.274 890.366 662.59 897.203 662.59 905.636C662.59 914.069 671.274 920.905 681.986 920.905Z" fill="black"/>
</svg>
