<svg width="1760" height="1760" viewBox="0 0 1760 1760" fill="none" xmlns="http://www.w3.org/2000/svg">
<rect width="1760" height="1760" fill="white"/>
<path d="M356.941 586.02C347.37 628.223 375.649 670.861 388.267 712.194C392.617 726.987 397.839 742.65 409.15 753.092C421.332 764.404 438.734 768.32 454.397 773.541C493.989 787.464 528.795 816.614 544.893 854.902C560.991 893.189 557.075 941.048 530.97 973.68C508.782 1001.52 473.54 1016.32 437.864 1019.8C426.552 1021.1 414.806 1021.1 404.799 1025.45C374.779 1038.51 369.994 1078.53 373.474 1111.17C375.65 1130.31 378.694 1149.02 383.48 1167.73C386.09 1178.6 389.572 1189.92 396.969 1198.18C415.242 1218.63 448.306 1212.54 473.54 1202.53C532.71 1179.04 586.224 1142.06 644.959 1117.26C703.694 1092.46 772.871 1080.71 830.3 1108.99C867.716 1127.26 895.561 1160.77 922.535 1192.53C949.51 1224.29 978.225 1256.92 1016.95 1273.45C1055.67 1289.99 1106.14 1284.76 1130.94 1251.26C1151.82 1222.55 1148.34 1182.95 1140.51 1148.15C1133.11 1115.08 1122.67 1082.89 1109.62 1051.56C1100.48 1029.81 1090.04 1008.49 1085.69 985.427C1081.34 962.367 1083.95 936.262 1099.17 918.424C1124.41 888.403 1171.83 891.449 1207.94 905.806C1244.05 920.164 1277.99 944.094 1316.71 948.445C1332.37 950.185 1348.91 948.445 1362.39 939.308C1371.96 932.782 1378.93 923.645 1384.58 913.638C1417.65 855.337 1407.64 777.457 1365.87 725.247C1324.11 673.037 1255.36 645.626 1188.36 646.932C1161.39 647.367 1134.85 652.153 1107.88 655.198C1094.39 656.503 1080.03 657.374 1067.85 651.718C1038.7 638.665 1035.22 599.943 1023.04 570.357C1000.85 516.406 940.808 486.386 882.944 479.424C836.826 473.768 782.442 484.21 758.948 524.238C734.149 565.571 752.858 618.651 745.026 666.51C743.721 674.777 741.11 683.479 735.019 689.57C728.058 696.531 717.617 698.707 708.045 700.012C666.278 706.973 619.29 710.889 585.354 685.219C544.457 654.328 538.801 591.676 498.34 560.35C457.008 528.154 368.688 539.901 358.246 585.585L356.941 586.02Z" fill="#FF82C1" stroke="black" stroke-width="20" stroke-miterlimit="10"/>
<path d="M815.938 791.38C775.041 816.179 775.042 888.403 800.712 931.477C805.062 938.438 809.847 944.964 815.938 949.75C824.204 955.841 833.777 958.887 843.783 961.062C879.894 967.589 919.921 957.146 944.72 928.866C969.52 900.586 976.045 854.032 955.162 821.835C942.545 802.257 921.226 790.074 899.037 784.418C876.848 778.762 850.745 769.625 815.504 790.945L815.938 791.38Z" fill="white" stroke="black" stroke-width="20" stroke-miterlimit="10"/>
<path d="M875.546 877.528C883.956 877.528 890.773 870.516 890.773 861.865C890.773 853.215 883.956 846.202 875.546 846.202C867.136 846.202 860.318 853.215 860.318 861.865C860.318 870.516 867.136 877.528 875.546 877.528Z" fill="black" stroke="black" stroke-width="20" stroke-miterlimit="10"/>
</svg>
