<svg width="1760" height="1760" viewBox="0 0 1760 1760" fill="none" xmlns="http://www.w3.org/2000/svg">
<rect width="1760" height="1760" fill="white"/>
<path d="M760.23 620.997C696.601 607.488 686.647 630.239 672.784 650.501C656.432 673.963 612 1011.67 612 1240.24C612 1315.96 726.105 1447.13 822.082 1368.92C889.266 1313.83 868.292 1237.04 863.671 1199.36C858.339 1155.64 860.829 1109.07 882.868 1071.39C904.907 1033.71 951.474 1007.05 993.774 1019.13C1023.28 1027.31 1046.74 1053.97 1051 1084.19C1055.63 1114.76 1042.12 1144.97 1026.12 1171.28C1005.86 1205.05 955.029 1374.26 1089.75 1374.26C1166.53 1374.26 1193.19 1307.78 1194.61 1269.39C1202.79 1058.95 1211.32 848.148 1219.5 637.704C1220.21 620.286 1220.92 602.511 1215.94 586.159C1208.48 560.565 1186.79 539.591 1161.2 532.837C1146.27 528.571 1127.43 527.505 1120.32 513.642C1116.77 507.243 1117.12 499.422 1117.83 491.957C1119.97 470.273 1126.01 448.589 1124.94 426.905C1123.88 405.22 1113.92 381.759 1094.02 372.872C1063.09 359.008 1027.19 388.868 1019.37 422.283C1011.55 455.698 1021.5 489.824 1026.12 523.595C1030.74 557.366 1053.49 633.794 1026.83 654.767C1006.22 670.764 925.524 656.544 760.23 621.707V620.997Z" fill="#442FBD" stroke="black" stroke-width="20" stroke-miterlimit="10"/>
<path d="M1012.97 809.401C1003.02 794.826 959.647 795.537 932.632 794.826C922.679 794.826 912.37 794.116 903.483 796.604C889.264 800.87 884.644 810.823 882.511 820.065C877.89 837.839 876.824 856.324 878.602 874.453C878.957 877.653 879.312 880.852 881.8 884.052C887.487 891.161 902.061 894.005 914.858 896.138C937.253 899.692 959.648 902.537 982.398 904.669C988.086 905.38 994.128 905.736 999.46 904.669C1007.99 902.537 1010.48 896.494 1012.26 891.517C1020.79 862.723 1026.12 829.308 1012.97 809.756V809.401Z" fill="white" stroke="black" stroke-width="20" stroke-miterlimit="10"/>
<path d="M949.343 857.034C955.233 857.034 960.007 852.259 960.007 846.369C960.007 840.479 955.233 835.705 949.343 835.705C943.454 835.705 938.68 840.479 938.68 846.369C938.68 852.259 943.454 857.034 949.343 857.034Z" fill="black" stroke="black" stroke-width="20" stroke-miterlimit="10"/>
</svg>
