<svg width="1760" height="1760" viewBox="0 0 1760 1760" fill="none" xmlns="http://www.w3.org/2000/svg">
<rect width="1760" height="1760" fill="white"/>
<path d="M700.673 382.765C661.574 360.727 610.035 394.14 578.4 425.775C546.766 457.411 531.481 504.331 537.168 548.407C544.988 609.901 589.774 660.02 607.191 719.381C627.452 787.272 610.035 859.785 600.438 930.165C590.841 1000.54 592.618 1079.81 641.314 1131.71C661.219 1153.04 686.811 1167.25 709.915 1185.03C744.749 1212.04 773.184 1246.88 792.734 1286.33C805.885 1312.99 814.771 1341.78 832.188 1365.95C849.605 1390.12 878.751 1408.96 907.898 1403.28C948.419 1395.46 966.546 1346.4 966.191 1305.17C965.836 1253.63 948.774 1203.87 942.021 1152.68C935.267 1101.49 942.021 1043.91 979.698 1008.72C1002.8 987.038 1060.38 948.294 1088.82 934.431C1184.08 888.222 1200.78 814.642 1169.86 725.423C1153.16 677.437 1115.48 640.114 1094.51 593.905C1061.81 521.037 1001.02 341.177 955.172 334.778C879.462 324.115 918.917 505.752 700.673 383.12V382.765Z" fill="#8CFFD9" stroke="black" stroke-width="20" stroke-miterlimit="10"/>
<path d="M859.915 748.528C864.18 764.168 868.801 781.585 877.331 792.96C886.573 805.401 896.525 805.756 905.056 804.69C941.312 801.136 976.145 790.827 1008.14 774.121C1015.24 770.566 1022.35 766.301 1026.26 755.993C1034.79 733.599 1024.13 692.722 1014.18 657.177C998.183 601.726 974.012 533.123 942.733 517.838C931.714 512.507 922.473 515.35 913.587 518.905C888.35 528.858 864.18 542.365 841.787 559.427C835.033 564.403 828.28 570.446 826.147 582.887C824.015 595.328 848.54 705.518 859.915 748.528Z" fill="white" stroke="black" stroke-width="20" stroke-miterlimit="10"/>
<path d="M938.874 689.874C947.427 686.979 949.718 670.915 943.991 653.993C938.263 637.072 926.686 625.701 918.133 628.597C909.579 631.492 907.289 647.556 913.016 664.478C918.743 681.399 930.32 692.77 938.874 689.874Z" fill="black"/>
</svg>
