<svg width="1760" height="1760" viewBox="0 0 1760 1760" fill="none" xmlns="http://www.w3.org/2000/svg">
<rect width="1760" height="1760" fill="white"/>
<path d="M600.251 560.818L513.307 579.874C466.857 590.197 412.467 607.268 398.969 652.528C387.853 689.451 410.085 727.564 430.333 760.517C457.329 804.585 482.737 849.448 506.558 895.502C524.82 930.439 542.288 966.965 544.67 1006.27C547.052 1044.38 535.539 1081.7 525.614 1118.63C515.689 1155.55 506.955 1194.45 515.689 1231.77C524.423 1269.09 554.992 1303.63 593.105 1304.82C636.775 1306.02 668.933 1265.92 708.633 1247.66C751.907 1227.8 806.694 1236.14 842.027 1268.3C859.495 1284.18 872.199 1305.22 886.095 1324.28C906.342 1352.07 930.559 1377.88 961.923 1392.57C993.286 1407.26 1031.8 1408.45 1060.78 1389.39C1094.13 1367.55 1106.04 1325.47 1117.55 1287.36C1129.86 1247.66 1144.15 1208.75 1160.43 1170.63C1175.51 1135.7 1193.77 1099.57 1225.93 1079.32C1247.37 1065.82 1272.78 1060.26 1296.2 1051.13C1343.84 1032.87 1385.92 995.153 1399.82 946.32C1413.71 897.487 1392.28 837.538 1345.83 816.893C1327.17 808.555 1306.13 806.57 1286.67 799.027C1244.59 783.147 1214.42 739.078 1214.42 694.215C1214.42 602.901 1352.97 619.179 1373.22 457.197C1375.21 440.125 1375.21 371.441 1362.9 359.53C1349.8 346.826 1311.29 433.376 1108.81 417.495C1067.53 414.319 1022.66 427.42 993.683 457.197C932.544 519.528 984.155 637.838 927.78 704.934C906.739 729.946 871.802 743.048 839.645 737.49C788.828 728.755 754.686 682.304 724.116 641.014C693.547 599.725 644.318 551.268 593.105 562.384L600.251 560.818Z" fill="#9DC0EB" stroke="black" stroke-width="20" stroke-miterlimit="10"/>
<path d="M998.844 865.329C1008.37 909.795 983.757 957.04 946.836 984.037C937.705 990.389 928.177 996.344 917.061 998.726C896.416 1003.49 874.581 997.138 856.716 986.022C824.955 966.171 803.517 931.233 799.547 894.311C799.547 890.341 799.15 885.974 801.929 883.195C803.914 881.21 806.296 880.812 809.075 880.018C857.907 867.711 907.135 858.58 956.761 852.227C972.244 850.242 995.271 849.051 998.844 865.329Z" fill="white" stroke="black" stroke-width="20" stroke-miterlimit="10"/>
<path d="M977.404 901.059C990.34 901.059 1000.83 892.171 1000.83 881.208C1000.83 870.244 990.34 861.357 977.404 861.357C964.467 861.357 953.98 870.244 953.98 881.208C953.98 892.171 964.467 901.059 977.404 901.059Z" fill="black"/>
</svg>
