<svg width="1760" height="1760" viewBox="0 0 1760 1760" fill="none" xmlns="http://www.w3.org/2000/svg">
<rect width="1760" height="1760" fill="white"/>
<path d="M1139.2 511.462C1113.54 482.028 1105.99 438.631 1119.2 402.404C1121.84 395.611 1124.86 388.441 1122.97 381.272C1118.82 367.309 1098.82 367.686 1084.86 370.705C1002.98 389.574 913.164 413.725 865.618 482.783C844.486 513.727 833.92 550.708 812.788 581.652C791.656 612.596 753.543 637.503 718.072 625.427C694.298 617.125 675.431 593.728 650.525 595.615C622.224 597.879 608.261 629.578 596.186 654.861C580.714 686.937 558.45 715.617 531.281 739.014C519.206 749.58 505.998 759.014 496.187 772.222C476.942 797.883 475.432 835.619 492.791 862.789C521.847 908.451 588.261 913.734 625.997 952.98C661.091 989.207 661.091 1053.36 626.374 1089.96C589.771 1128.45 528.639 1131.85 485.998 1163.17C443.357 1194.49 416.565 1239.4 432.791 1289.59C449.017 1339.78 507.885 1391.86 560.715 1391.86C606.752 1391.86 649.393 1366.57 684.864 1337.51C720.336 1308.46 752.411 1273.74 791.279 1249.59C830.146 1225.44 879.957 1211.48 922.976 1228.83C952.787 1240.91 975.428 1266.19 1005.24 1277.89C1060.71 1299.4 1121.46 1268.83 1171.28 1236.76C1189.39 1225.06 1207.88 1211.85 1218.44 1192.98C1227.12 1177.13 1229.01 1158.64 1229.39 1140.53C1229.77 1064.3 1200.33 991.471 1188.26 916.376C1176.18 841.28 1187.5 752.976 1249.01 708.07C1264.48 696.749 1282.6 688.824 1297.31 676.749C1329.01 649.956 1341.46 602.408 1326.37 563.539C1311.27 524.67 1269.77 498.255 1228.26 500.141C1194.67 502.028 1152.03 526.18 1139.2 511.462Z" fill="#FFD58C" stroke="black" stroke-width="20" stroke-miterlimit="10"/>
<path d="M877.695 897.886C879.582 915.245 881.846 934.113 889.393 947.321C897.318 961.661 907.506 963.548 916.94 963.925C955.808 965.812 993.543 960.151 1030.15 947.698C1038.07 945.057 1046.37 941.661 1052.03 931.472C1064.11 909.207 1059.96 864.678 1054.67 825.809C1046.75 765.054 1032.03 689.203 1001.47 668.448C990.902 661.278 980.336 662.788 970.524 665.052C942.223 671.467 915.053 682.033 888.638 696.373C880.714 700.524 872.789 705.807 868.638 718.638C864.488 731.468 873.167 851.093 878.072 897.886H877.695Z" fill="white" stroke="black" stroke-width="20" stroke-miterlimit="10"/>
<path d="M970.096 848.598C979.53 846.892 984.442 830.38 981.067 811.718C977.692 793.055 967.309 779.308 957.875 781.014C948.442 782.72 943.53 799.232 946.904 817.895C950.279 836.558 960.662 850.304 970.096 848.598Z" fill="black"/>
</svg>
