<svg width="1760" height="1760" viewBox="0 0 1760 1760" fill="none" xmlns="http://www.w3.org/2000/svg">
<rect width="1760" height="1760" fill="white"/>
<path d="M558.602 609.938C526.841 596.836 489.522 606.365 460.937 625.025C409.723 657.978 379.55 717.134 370.021 777.085C360.493 837.035 369.227 898.573 382.329 958.127C391.46 1000.61 403.37 1042.69 406.546 1085.97C410.914 1141.15 402.576 1196.74 409.723 1251.92C416.869 1307.11 445.454 1364.28 497.462 1382.94C533.193 1395.64 574.085 1387.31 606.64 1367.85C639.195 1348.4 665.001 1319.42 688.028 1289.24C720.186 1247.16 755.52 1197.13 808.322 1192.77C840.48 1189.99 871.05 1205.87 901.62 1216.59C969.509 1240.81 1052.09 1240.01 1107.27 1193.16C1134.27 1170.14 1152.13 1138.77 1166.03 1106.22C1197 1032.77 1209.3 950.186 1256.15 885.868C1283.94 847.754 1322.45 818.374 1349.85 780.26C1387.56 727.059 1435.6 620.261 1375.65 594.851C1308.56 566.663 1303.4 472.172 1239.08 482.891C1214.46 486.861 1171.19 517.829 1146.58 515.447C1103.3 511.08 1075.11 467.407 1064.79 424.926C1058.04 396.737 1049.71 360.211 1020.72 356.241C997.3 353.462 979.831 375.298 962.76 391.179C913.53 436.043 848.42 407.854 790.457 488.846C767.827 521.005 751.55 556.737 729.714 589.293C665.001 686.166 572.497 615.497 558.999 609.938H558.602Z" fill="#DAD4FF" stroke="black" stroke-width="20" stroke-miterlimit="10"/>
<path d="M543.516 1222.15C505.006 1197.53 489.126 1146.71 496.669 1101.45C498.257 1090.34 501.433 1079.62 507.388 1070.09C518.505 1052.22 538.355 1041.11 559 1036.34C595.525 1028 635.226 1037.14 664.208 1060.96C667.384 1063.34 670.163 1066.51 670.56 1070.49C670.56 1073.26 669.369 1075.65 667.781 1077.63C641.975 1120.51 613.787 1162.2 582.821 1201.9C573.292 1214.21 557.809 1230.88 543.913 1222.15H543.516Z" fill="white" stroke="black" stroke-width="20" stroke-miterlimit="10"/>
<path d="M581.786 1121.27C587.522 1115.54 587.145 1105.86 580.943 1099.66C574.742 1093.45 565.064 1093.08 559.327 1098.81C553.591 1104.55 553.968 1114.23 560.169 1120.43C566.371 1126.63 576.049 1127.01 581.786 1121.27Z" fill="black"/>
</svg>
