<svg width="1760" height="1760" viewBox="0 0 1760 1760" fill="none" xmlns="http://www.w3.org/2000/svg">
<rect width="1760" height="1760" fill="white"/>
<path d="M555.607 878.305C536.344 779.814 630.793 685.984 611.841 587.493C609.666 576.308 606.87 562.948 614.948 554.87C622.405 547.724 634.211 549.588 644.463 549.588C680.503 549.588 709.708 520.072 727.417 488.691C745.127 457.311 756.001 421.892 778.992 394.24C801.982 366.588 842.683 347.946 874.062 365.345C902.335 380.88 910.413 416.92 917.869 448.301C923.151 470.36 929.365 492.42 936.511 514.169C944.278 537.16 959.191 564.191 983.425 562.326C993.677 561.705 1002.69 555.491 1011.39 550.209C1037.17 534.364 1067.93 522.247 1097.45 530.014C1135.35 540.267 1158.03 582.522 1155.86 621.669C1153.68 660.817 1131.62 696.237 1104.9 725.442C1078.18 754.647 1047.12 778.571 1020.71 807.777C993.988 836.982 972.24 871.159 956.705 907.821C945.21 935.162 938.375 966.232 948.938 993.884C985.289 1087.09 1048.05 1094.24 1067.93 1151.72C1105.84 1261.39 1062.65 1385.98 946.142 1402.14C726.174 1432.59 808.507 1114.43 678.95 1122.2C661.241 1123.13 642.91 1132.45 626.754 1125C607.492 1115.99 605.006 1090.2 603.763 1068.76C600.035 1010.04 570.83 955.979 555.607 878.616V878.305Z" fill="#B7ABFF" stroke="black" stroke-width="20" stroke-miterlimit="10"/>
<path d="M866.917 1143.02C832.12 1164.15 832.741 1224.11 854.179 1260.15C857.596 1266.06 861.635 1271.34 866.917 1275.38C873.752 1280.66 881.83 1283.14 890.219 1284.7C920.356 1290.29 953.599 1281.59 974.415 1257.98C995.231 1234.36 1000.51 1195.22 983.425 1168.81C972.862 1152.34 955.153 1142.09 936.822 1137.74C918.491 1133.39 896.122 1125.93 867.228 1143.33L866.917 1143.02Z" fill="white" stroke="black" stroke-width="20" stroke-miterlimit="10"/>
<path d="M918.49 1231.26C926.726 1231.26 933.403 1224.3 933.403 1215.72C933.403 1207.14 926.726 1200.19 918.49 1200.19C910.254 1200.19 903.577 1207.14 903.577 1215.72C903.577 1224.3 910.254 1231.26 918.49 1231.26Z" fill="black"/>
</svg>
