<svg width="1760" height="1760" viewBox="0 0 1760 1760" fill="none" xmlns="http://www.w3.org/2000/svg">
<rect width="1760" height="1760" fill="white"/>
<path d="M375.958 1060.72C351.332 1124.91 387.665 1196.36 432.88 1248.04C457.102 1275.49 485.362 1300.93 520.887 1309.4C584.673 1324.34 647.247 1278.72 685.599 1225.43C723.95 1172.14 747.769 1109.16 792.984 1061.52C844.254 1007.43 921.765 976.743 996.047 986.028C1156.32 1005.81 1253.21 1037.3 1358.57 866.125C1404.59 791.842 1398.54 672.746 1365.03 602.5C1359.38 590.792 1352.11 579.084 1341.21 571.817C1329.1 564.147 1313.76 562.936 1299.23 562.532C1245.54 561.321 1191.84 566.973 1139.77 579.488C1102.62 588.37 1065.89 600.885 1027.54 600.885C989.184 600.885 948.41 585.948 929.839 552.843C912.076 521.353 915.71 476.945 886.239 455.951C853.943 432.94 808.728 457.97 784.506 489.46C760.284 520.949 744.539 560.514 711.032 581.103C685.598 596.848 651.284 600.885 635.539 625.915C625.851 640.853 625.85 659.423 623.024 677.187C600.417 822.524 436.11 906.9 376.765 1061.12L375.958 1060.72Z" fill="#FFC466" stroke="black" stroke-width="20" stroke-miterlimit="10"/>
<path d="M539 1023C509.53 1039.55 505.55 1088.57 523.313 1116.83C526.139 1121.27 529.772 1125.71 534.213 1128.94C539.865 1132.98 546.728 1135 553.591 1136.21C579.024 1140.65 606.88 1133.79 624.239 1115.21C641.598 1096.64 646.442 1065.96 631.505 1045.37C622.624 1032.45 607.687 1024.38 592.346 1021.15C577.005 1017.92 563.222 1009.27 539 1023Z" fill="white" stroke="black" stroke-width="20" stroke-miterlimit="10"/>
<path d="M577.41 1094.22C584.322 1094.22 589.925 1088.8 589.925 1082.11C589.925 1075.42 584.322 1070 577.41 1070C570.498 1070 564.896 1075.42 564.896 1082.11C564.896 1088.8 570.498 1094.22 577.41 1094.22Z" fill="black"/>
</svg>
