<svg width="1760" height="1760" viewBox="0 0 1760 1760" fill="none" xmlns="http://www.w3.org/2000/svg">
<rect width="1760" height="1760" fill="white"/>
<path d="M637.675 618.848C629.301 621.639 620.928 624.829 614.947 631.209C600.193 646.361 604.978 670.685 609.763 691.021C622.124 744.454 628.504 801.077 612.953 853.313C586.636 941.836 504.496 1000.45 453.058 1077.41C417.969 1130.05 397.633 1191.85 394.443 1254.85C392.849 1283.96 395.241 1313.87 406.804 1340.59C418.368 1367.3 439.501 1390.83 467.014 1400C510.876 1414.36 557.129 1390.83 599.795 1372.88C683.53 1337.4 776.038 1321.84 866.153 1335C956.268 1348.16 1041.6 1390.03 1132.51 1396.41C1162.42 1398.4 1193.92 1396.41 1219.83 1380.46C1252.93 1360.12 1269.68 1321.84 1282.44 1285.16C1355.81 1068.24 1339.86 829.787 1285.63 607.284C1283.23 597.315 1280.04 566.212 1271.67 560.231C1256.92 549.066 1216.65 588.543 1199.5 594.923C1144.07 615.259 1091.04 581.365 1071.11 525.54C1061.54 498.026 1067.12 348.096 970.224 356.869C861.368 366.439 871.337 543.883 845.817 578.175C824.684 606.885 668.378 608.082 638.074 618.449L637.675 618.848Z" fill="#9DC0EB" stroke="black" stroke-width="20" stroke-miterlimit="10"/>
<path d="M807.54 966.16C795.578 1000.05 785.211 1040.73 811.927 1067.44C829.072 1084.59 856.585 1090.17 882.105 1093.36C914.801 1097.35 948.694 1098.54 980.593 1089.77C1012.49 1081 1041.2 1061.86 1051.97 1035.14C1063.53 1006.83 1053.96 975.331 1041.6 946.621C1018.87 893.986 986.575 842.946 935.935 807.856C930.352 803.869 924.371 800.28 917.592 798.685C902.042 795.096 885.694 803.869 876.921 815.433C868.149 826.996 820.699 926.285 807.142 965.761L807.54 966.16Z" fill="white" stroke="black" stroke-width="20" stroke-miterlimit="10"/>
<path d="M926.368 1090.17C944.206 1090.17 958.666 1079.46 958.666 1066.25C958.666 1053.03 944.206 1042.32 926.368 1042.32C908.53 1042.32 894.07 1053.03 894.07 1066.25C894.07 1079.46 908.53 1090.17 926.368 1090.17Z" fill="#030005"/>
</svg>
