<svg width="1760" height="1760" viewBox="0 0 1760 1760" fill="none" xmlns="http://www.w3.org/2000/svg">
<rect width="1760" height="1760" fill="white"/>
<path d="M623.62 616.167C599.366 621.764 583.695 646.018 579.964 670.646C576.232 695.273 581.829 719.9 586.307 744.154C616.904 906.47 602.351 1076.62 544.143 1231.1C526.979 1276.25 508.323 1332.6 540.785 1368.42C575.859 1406.85 643.396 1385.21 675.858 1344.54C708.32 1303.86 719.887 1250.51 746.38 1205.73C772.872 1160.95 828.095 1123.64 875.483 1145.65C910.184 1162.07 925.109 1203.12 930.706 1241.18C936.303 1279.24 937.422 1319.54 957.571 1352C990.034 1404.24 1066.53 1417.3 1121.75 1390.43C1176.97 1363.57 1212.42 1305.36 1226.6 1245.65C1240.78 1185.95 1237.42 1123.26 1234.06 1061.7C1230.33 998.636 1226.97 935.202 1223.24 872.141C1208.69 620.645 1185.18 673.257 1064.29 637.809C979.586 612.809 912.05 630.346 892.274 524.001C885.557 488.18 890.408 450.866 879.96 416.164C869.513 381.462 833.692 349.371 799.364 361.685C789.289 365.416 780.707 372.506 773.618 379.969C705.708 450.119 713.917 596.017 623.993 616.54L623.62 616.167Z" fill="#E6E1E1" stroke="black" stroke-width="20" stroke-miterlimit="10"/>
<path d="M735.558 921.022C734.439 938.187 733.319 957.217 738.17 971.396C743.394 986.695 753.095 990.426 762.05 992.292C799.363 1000.87 837.423 1002.37 875.109 996.397C883.318 995.277 891.9 993.411 899.363 984.456C915.034 965.053 918.765 920.649 920.631 882.216C923.616 821.767 922.496 745.273 896.75 719.527C887.795 710.571 877.348 710.198 867.273 710.944C838.915 712.437 810.184 717.661 782.2 726.989C773.991 729.601 765.036 733.333 758.692 744.9C752.349 756.467 739.662 874.38 736.304 921.022H735.558Z" fill="white" stroke="black" stroke-width="20" stroke-miterlimit="10"/>
<path d="M880.33 909.456C889.809 909.456 897.494 894.253 897.494 875.5C897.494 856.747 889.809 841.544 880.33 841.544C870.85 841.544 863.166 856.747 863.166 875.5C863.166 894.253 870.85 909.456 880.33 909.456Z" fill="black"/>
</svg>
