<svg width="1760" height="1760" viewBox="0 0 1760 1760" fill="none" xmlns="http://www.w3.org/2000/svg">
<g clip-path="url(#clip0_10_59)">
<path d="M1760 0H0V1760H1760V0Z" fill="white"/>
<path d="M356.456 562.522C356.456 535.634 356 506.011 375.596 487.326C387.9 475.933 403.85 470.009 419.801 464.54C495.45 439.93 575.201 428.081 654.496 428.993C672.269 428.993 690.042 430.36 706.904 434.917C767.515 452.235 803.517 514.215 826.759 573.004C850 631.794 869.141 696.508 916.992 737.068C945.702 761.222 988.539 774.438 1020.44 754.386C1049.15 736.612 1058.72 700.153 1063.73 666.429C1068.75 634.528 1071.48 602.171 1072.85 569.814C1073.76 539.736 1075.13 505.556 1097.46 485.503C1113.86 470.92 1138.02 468.186 1159.89 466.363C1211.84 462.261 1271.09 463.173 1305.26 502.366C1335.8 537.001 1334.43 588.955 1331.7 634.984C1328.05 700.153 1325.77 766.69 1343.09 829.581C1355.85 876.522 1379.09 920.272 1390.94 967.668C1402.79 1015.06 1401.88 1069.75 1369.98 1106.67C1356.76 1122.62 1337.17 1134.47 1316.66 1134.01C1283.39 1134.01 1258.78 1103.93 1230.98 1086.16C1202.73 1067.93 1166.73 1060.18 1134.37 1070.21C1102.01 1080.23 1075.13 1108.49 1071.48 1142.21C1065.56 1192.8 1108.39 1238.83 1103.38 1289.42C1097.46 1349.12 1030.92 1381.47 971.679 1392.87C906.511 1405.63 839.063 1406.54 772.984 1397.88C715.107 1390.59 656.775 1375.55 607.557 1344.1C506.387 1280.3 466.74 1160.9 429.826 1047.42C418.433 1013.24 372.861 928.931 478.133 912.98C551.048 901.587 618.495 972.226 689.588 950.806C793.036 919.816 757.49 675.544 561.53 654.124C468.563 643.643 356.456 712.002 356.456 569.814L356.456 562.522Z" fill="#84FAB0" stroke="black" stroke-width="20" stroke-miterlimit="10"/>
<path d="M877.343 1216.95C878.255 1231.54 857.747 1256.6 834.961 1268.91C798.96 1288.05 751.108 1281.67 721.486 1253.87C691.864 1226.07 682.294 1178.67 698.7 1141.76C699.612 1139.48 700.523 1137.66 702.801 1136.29C705.536 1134.47 708.726 1134.92 711.916 1134.92C779.819 1142.21 875.976 1187.67 877.343 1210V1216.95Z" fill="#FAFCFF" stroke="black" stroke-width="20" stroke-miterlimit="10"/>
<path d="M775.72 1229.26C782.516 1229.26 788.024 1223.75 788.024 1216.95C788.024 1210.16 782.516 1204.65 775.72 1204.65C768.924 1204.65 763.416 1210.16 763.416 1216.95C763.416 1223.75 768.924 1229.26 775.72 1229.26Z" fill="black" stroke="black" stroke-width="20" stroke-miterlimit="10"/>
</g>
<defs>
<clipPath id="clip0_10_59">
<rect width="1760" height="1760" fill="white"/>
</clipPath>
</defs>
</svg>
