<svg width="1760" height="1760" viewBox="0 0 1760 1760" fill="none" xmlns="http://www.w3.org/2000/svg">
<rect width="1760" height="1760" fill="white"/>
<path d="M990.026 524.212C973.639 482.854 956.862 440.715 927.6 407.551C898.338 374.386 854.249 350.196 810.551 357.219C764.902 364.242 730.958 400.918 697.795 432.912C667.752 461.785 635.369 488.317 601.425 512.117C568.651 534.747 530.805 559.718 524.173 599.125C520.271 620.585 526.904 642.044 532.366 663.113C564.75 781.726 576.454 906.191 566.7 1029.09C562.018 1090.35 551.874 1152 561.628 1212.48C571.383 1272.95 605.327 1334.21 662.29 1356.45C678.287 1362.69 695.454 1365.42 712.231 1367.76C835.912 1385.71 961.544 1386.88 1085.62 1371.28C1126.58 1366.2 1169.5 1358.01 1201.88 1331.87C1239.34 1301.43 1254.95 1251.88 1265.09 1204.28C1293.18 1073.18 1312.3 928.43 1311.52 794.601C1310.35 510.556 1318.15 541.77 1297.08 530.065C1276.01 518.36 1208.91 562.059 1186.67 572.594C1093.42 618.244 1014.61 587.811 989.636 524.993L990.026 524.212Z" fill="#FCFFA6" stroke="black" stroke-width="20" stroke-miterlimit="10"/>
<path d="M820.303 774.702C745.002 841.812 758.267 1009.98 797.284 1114.15C803.526 1130.93 810.939 1146.54 820.303 1158.24C832.398 1173.46 847.614 1180.87 862.441 1185.16C917.063 1201.55 977.538 1175.8 1015.38 1107.52C1053.23 1039.24 1062.98 925.699 1031.38 848.835C1011.87 801.234 979.879 771.581 946.716 758.705C913.552 745.829 868.293 732.564 820.303 774.702Z" fill="white" stroke="black" stroke-width="20" stroke-miterlimit="10"/>
<path d="M913.944 1030.65C928.812 1030.65 940.865 1010.39 940.865 985.394C940.865 960.397 928.812 940.134 913.944 940.134C899.076 940.134 887.022 960.397 887.022 985.394C887.022 1010.39 899.076 1030.65 913.944 1030.65Z" fill="black"/>
</svg>
