<svg width="1760" height="1760" viewBox="0 0 1760 1760" fill="none" xmlns="http://www.w3.org/2000/svg">
<rect width="1760" height="1760" fill="white"/>
<path d="M553.755 444.821C529.616 437.924 520.256 480.292 516.807 504.924C509.91 555.668 514.344 607.397 516.807 658.633C520.749 765.539 513.359 872.444 495.131 977.872C474.44 1097.09 439.955 1215.33 444.389 1336.52C444.389 1347.85 445.867 1359.68 452.764 1368.55C459.168 1376.43 469.514 1379.88 478.874 1382.83C519.763 1395.15 562.623 1402.05 605.483 1403.52C632.578 1404.51 660.166 1403.03 684.798 1391.21C738.496 1366.08 760.172 1302.04 769.532 1243.41C778.892 1184.79 781.848 1121.73 816.825 1074.43C838.009 1045.86 873.971 1024.67 908.456 1032.06C942.941 1039.45 967.08 1071.97 975.948 1105.96C984.815 1139.96 981.86 1175.92 981.367 1210.9C980.874 1245.88 984.323 1282.82 1003.04 1312.38C1010.93 1324.7 1021.27 1335.54 1034.57 1340.96C1047.38 1346.38 1061.18 1347.36 1074.97 1347.85C1121.28 1349.82 1168.08 1350.32 1214.39 1344.9C1247.39 1340.96 1281.88 1333.08 1306.02 1309.92C1320.8 1295.63 1330.16 1277.41 1337.05 1258.19C1382.87 1135.03 1340.5 999.549 1317.35 870.474C1303.55 792.635 1296.66 713.317 1297.64 634C1297.64 589.661 1307.99 561.58 1298.63 518.226C1289.27 474.873 1267.59 432.012 1227.69 412.306C1212.91 404.916 1135.07 357.622 1103.05 419.203C1078.91 466.005 1052.8 488.668 1000.58 488.668C920.279 488.668 877.913 441.865 825.693 438.909C747.363 433.983 655.732 474.873 554.248 444.821H553.755Z" fill="#99E6FF" stroke="black" stroke-width="20" stroke-miterlimit="10"/>
<path d="M816.824 833.033C816.824 847.32 817.317 863.578 822.736 874.909C828.647 887.225 838.008 889.688 845.89 890.673C880.867 895.107 915.845 893.137 950.33 885.254C957.72 883.776 965.602 881.313 971.513 873.431C984.815 856.188 984.815 818.746 983.829 786.231C982.351 735.488 975.947 671.443 950.33 652.229C941.463 645.332 931.61 646.317 922.742 647.303C896.632 650.751 871.015 657.156 845.397 667.502C838.008 670.457 830.125 673.906 825.199 684.252C820.273 694.597 816.824 794.114 817.317 833.526L816.824 833.033Z" fill="white" stroke="black" stroke-width="20" stroke-miterlimit="10"/>
<path d="M905.231 798.855C913.906 798.118 919.855 784.773 918.518 769.049C917.181 753.324 909.064 741.175 900.389 741.913C891.714 742.651 885.765 755.996 887.102 771.72C888.439 787.444 896.555 799.593 905.231 798.855Z" fill="black"/>
</svg>
