<svg width="1760" height="1760" viewBox="0 0 1760 1760" fill="none" xmlns="http://www.w3.org/2000/svg">
<rect width="1760" height="1760" fill="white"/>
<path d="M671.845 467.412C653.309 482.922 610.562 509.781 586.73 511.294C562.898 512.808 528.474 501.08 511.073 518.104C496.319 532.479 494.05 554.799 492.915 575.605C489.51 653.156 495.563 731.085 511.829 807.123C521.665 854.41 535.283 901.319 533.392 949.363C531.879 992.111 517.882 1033.34 511.073 1075.71C504.263 1118.08 505.399 1164.61 530.366 1199.04C556.467 1235.36 602.24 1250.87 636.286 1279.99C662.388 1302.69 680.924 1332.58 702.487 1359.82C724.049 1387.05 751.664 1412.02 785.71 1418.45C833.752 1427.15 881.795 1394.62 907.896 1353.01C933.998 1311.39 944.212 1262.21 958.587 1215.31C972.962 1168.4 993.389 1120.35 1033.11 1091.6C1045.21 1082.9 1058.83 1076.09 1073.21 1073.44C1106.88 1066.64 1140.54 1080.63 1173.45 1089.71C1206.37 1098.79 1246.09 1120.73 1271.05 1097.66C1287.32 1082.52 1293.75 1041.29 1296.78 1019.35C1310.39 927.8 1279 835.117 1237.76 752.27C1214.31 704.604 1186.69 654.669 1193.5 602.086C1198.8 561.986 1223.39 527.561 1240.41 491.245C1257.43 454.928 1267.27 408.776 1243.82 375.864C1238.52 368.676 1231.71 362.245 1223.39 358.841C1196.53 347.87 1169.29 371.324 1142.81 384.186C1120.12 395.157 1094.01 397.805 1070.94 408.019C1019.87 430.717 1018.73 479.139 963.127 474.221C925.298 470.816 882.173 428.825 846.614 415.207C802.733 398.183 770.2 383.808 671.467 467.79L671.845 467.412Z" fill="#B7ABFF" stroke="black" stroke-width="20" stroke-miterlimit="10"/>
<path d="M880.279 1029.56C888.98 996.649 895.411 957.306 867.796 934.23C850.395 919.476 823.915 916.072 799.326 915.315C767.928 914.18 735.774 916.072 706.646 926.664C677.517 937.256 651.793 958.063 643.471 984.165C634.77 1012.16 646.498 1040.91 660.494 1067.01C686.218 1114.68 721.02 1160.45 771.711 1189.58C777.385 1192.61 783.06 1195.63 789.869 1196.77C805 1199.04 819.753 1189.2 826.941 1177.48C834.128 1165.75 870.822 1068.15 880.658 1029.94L880.279 1029.56Z" fill="white" stroke="black" stroke-width="20" stroke-miterlimit="10"/>
<path d="M767.589 1040.56C784.449 1039.11 797.245 1027.81 796.17 1015.32C795.095 1002.83 780.556 993.884 763.695 995.335C746.835 996.787 734.038 1008.09 735.114 1020.58C736.189 1033.07 750.728 1042.02 767.589 1040.56Z" fill="black"/>
</svg>
