<svg width="1760" height="1760" viewBox="0 0 1760 1760" fill="none" xmlns="http://www.w3.org/2000/svg">
<rect width="1760" height="1760" fill="white"/>
<path d="M631.036 562.225C617.812 583.452 585.101 578.233 568.05 596.676C549.259 616.512 561.439 637.043 559.003 664.187C554.479 715.69 516.201 754.665 504.717 805.124C499.845 825.308 502.281 865.675 506.109 886.555C509.937 907.434 521.768 926.921 540.56 936.317C561.439 946.757 585.798 942.929 609.112 940.145C651.914 935.273 697.153 936.666 736.475 954.761C751.786 961.721 765.705 971.465 776.145 984.689C798.764 1013.57 798.416 1054.64 786.932 1089.43C775.449 1124.23 753.178 1154.16 734.386 1185.48C715.595 1216.8 698.892 1251.25 699.588 1287.79C699.588 1301.36 702.372 1314.59 707.592 1327.11C721.511 1359.83 753.526 1383.49 788.672 1389.4C851.657 1400.19 913.251 1356 945.265 1300.67C977.28 1245.34 986.675 1180.26 999.898 1117.97C1008.6 1076.56 1021.13 1032.02 1056.27 1008.7C1104.64 976.337 1176.67 998.26 1222.61 962.417C1262.63 931.445 1264.02 870.895 1249.75 822.524C1235.48 774.153 1208.69 728.914 1203.82 678.455C1198.6 625.212 1217.74 566.053 1189.55 520.466C1180.85 506.198 1166.58 494.366 1149.88 493.322C1133.18 492.278 1117.86 501.674 1103.25 510.026C1067.76 529.861 1028.43 542.737 988.067 547.261C966.84 549.697 944.917 549.697 925.43 541.345C897.939 529.514 880.192 502.37 866.969 475.575C853.745 448.779 856.181 415.024 835.998 393.1C815.815 371.177 784.845 360.737 757.702 373.612C747.262 378.484 714.551 400.06 690.888 450.519C668.269 498.194 671.75 497.846 631.036 562.225Z" fill="#FFD58C" stroke="black" stroke-width="20" stroke-miterlimit="10"/>
<path d="M836.348 728.567C797.026 751.186 797.722 815.913 822.081 854.54C825.909 860.804 830.433 866.72 836.348 870.896C844.004 876.464 853.4 879.247 862.447 880.987C896.55 886.903 933.784 877.507 957.447 852.104C981.11 826.7 987.026 784.941 967.538 756.058C955.359 738.31 935.524 727.522 914.993 722.65C894.462 717.778 869.059 709.775 836.348 728.567Z" fill="white" stroke="black" stroke-width="20" stroke-miterlimit="10"/>
<path d="M894.465 823.57C903.69 823.57 911.168 816.091 911.168 806.866C911.168 797.641 903.69 790.162 894.465 790.162C885.24 790.162 877.762 797.641 877.762 806.866C877.762 816.091 885.24 823.57 894.465 823.57Z" fill="black"/>
</svg>
