<svg width="1760" height="1760" viewBox="0 0 1760 1760" fill="none" xmlns="http://www.w3.org/2000/svg">
<rect width="1760" height="1760" fill="white"/>
<path d="M747.537 432.465C708.226 402.981 641.616 427.005 629.968 474.689C624.508 497.257 629.968 520.917 635.428 543.485C650.715 607.914 666.003 672.342 681.29 736.771C691.846 781.179 701.674 831.411 677.287 869.995C632.88 940.611 513.126 919.499 461.44 985.384C444.696 1006.5 438.144 1033.8 432.32 1060.37C418.852 1118.24 405.385 1175.76 392.281 1233.63C388.641 1249.28 385.002 1265.66 388.277 1281.32C394.101 1311.16 423.221 1331.55 453.068 1337.74C482.915 1343.92 513.49 1338.46 543.338 1334.82C583.741 1329.73 624.872 1327.54 665.639 1327.91C716.962 1328.64 777.021 1329.73 809.052 1289.32C838.899 1251.83 827.979 1197.96 829.799 1150.28C831.983 1099.68 850.183 1050.18 881.85 1010.5C894.59 994.483 909.878 979.559 928.441 970.823C957.561 956.991 993.596 959.539 1020.53 977.011C1047.47 994.483 1064.21 1026.52 1063.48 1058.55C1062.39 1101.5 1032.91 1138.63 1026.36 1180.85C1020.17 1221.62 1036.91 1264.57 1068.21 1291.14C1099.52 1317.72 1143.92 1327.55 1183.96 1318.08C1232.01 1306.8 1270.23 1270.4 1302.26 1232.54C1317.18 1215.07 1322.28 1192.5 1328.1 1170.3C1339.39 1126.62 1324.83 1085.85 1301.53 1046.9C1269.5 993.027 1237.47 938.791 1205.07 884.919C1185.78 852.523 1165.76 816.123 1173.41 778.994C1179.6 749.146 1202.53 725.85 1223.27 704.01C1267.32 657.418 1309.18 603.91 1318.28 540.574C1327.38 477.238 1270.23 408.805 1215.99 398.977C1165.76 389.877 1120.99 392.789 1063.12 444.113C991.776 507.449 999.783 545.306 930.989 567.51C819.607 603.546 791.58 465.225 747.901 432.829L747.537 432.465Z" fill="#DAD4FF" stroke="black" stroke-width="20" stroke-miterlimit="10"/>
<path d="M1146.47 1078.57C1115.54 1098.23 1115.9 1154.28 1135.19 1187.77C1138.1 1193.23 1141.74 1198.33 1146.47 1201.97C1152.3 1206.7 1159.94 1209.25 1167.22 1210.7C1194.16 1215.8 1223.64 1207.79 1242.2 1185.59C1260.77 1163.38 1265.5 1126.98 1250.21 1102.23C1240.75 1086.94 1225.1 1077.48 1208.72 1073.11C1192.34 1068.74 1172.32 1062.19 1146.84 1078.2L1146.47 1078.57Z" fill="white" stroke="black" stroke-width="20" stroke-miterlimit="10"/>
<path d="M1192.34 1161.2C1199.57 1161.2 1205.44 1154.68 1205.44 1146.64C1205.44 1138.6 1199.57 1132.08 1192.34 1132.08C1185.1 1132.08 1179.23 1138.6 1179.23 1146.64C1179.23 1154.68 1185.1 1161.2 1192.34 1161.2Z" fill="black"/>
</svg>
