<svg width="1760" height="1760" viewBox="0 0 1760 1760" fill="none" xmlns="http://www.w3.org/2000/svg">
<rect width="1760" height="1760" fill="white"/>
<path d="M633.634 433.264C614.458 396.694 582.348 367.705 544.441 351.65C525.264 343.623 499.845 340.055 485.574 355.664C469.073 373.504 478.438 401.154 483.344 424.791C492.709 469.834 482.006 517.555 462.383 559.031C442.761 600.507 414.219 637.523 387.015 674.539C369.622 698.176 352.229 722.705 343.31 750.355C323.242 811.9 347.324 879.689 381.218 934.99C415.111 990.292 459.708 1039.35 486.466 1098.22C503.858 1136.57 513.669 1178.94 514.115 1221.31C515.007 1256.09 498.507 1294.45 508.764 1327.9C523.481 1375.17 581.903 1389.89 632.743 1402.82C667.974 1411.74 700.084 1374.28 719.261 1343.95C738.437 1313.63 747.802 1277.5 752.708 1241.82C759.844 1190.09 759.398 1137.02 751.37 1085.29C738.883 1006.35 708.557 930.977 694.287 852.038C680.016 773.1 684.475 685.243 733.977 622.36C750.032 601.845 771.438 584.005 796.858 576.424C816.927 570.626 838.334 571.072 858.848 574.639C900.769 581.775 942.69 602.291 964.542 638.415C985.503 672.755 985.502 716.461 976.583 755.707C967.664 794.953 949.379 831.523 936 869.431C904.336 957.289 897.201 1058.53 940.906 1140.59C958.299 1173.14 991.746 1223.98 1017.61 1249.85C1117.51 1349.75 1188.86 1220.86 1254.87 1142.37C1395.79 976.021 1346.29 870.77 1324.88 730.286C1303.48 589.803 1226.77 460.023 1118.4 367.705C1079.16 334.257 1029.65 304.377 978.814 313.742C944.028 320.432 914.594 344.961 879.363 349.421C859.74 352.097 840.117 348.083 820.495 351.204C778.574 357.448 747.357 392.68 721.045 426.129C711.679 437.724 701.868 450.212 687.597 455.563C673.326 460.915 647.906 460.023 633.189 431.926L633.634 433.264Z" fill="#63B6FF" stroke="black" stroke-width="20" stroke-miterlimit="10"/>
<path d="M1066.67 892.177C1031.89 916.706 1032.33 985.832 1053.74 1027.75C1057.31 1034.44 1061.32 1040.69 1066.67 1045.15C1073.36 1051.39 1081.83 1054.07 1089.86 1055.85C1120.19 1062.54 1153.64 1052.28 1174.6 1024.63C1195.56 996.982 1200.91 952.384 1183.52 921.165C1172.81 901.988 1154.97 890.393 1136.69 885.041C1118.4 879.69 1095.66 871.216 1066.67 891.285V892.177Z" fill="white" stroke="black" stroke-width="20" stroke-miterlimit="10"/>
<path d="M1118.4 994.307C1126.53 994.307 1133.12 986.12 1133.12 976.021C1133.12 965.923 1126.53 957.737 1118.4 957.737C1110.27 957.737 1103.69 965.923 1103.69 976.021C1103.69 986.12 1110.27 994.307 1118.4 994.307Z" fill="black"/>
</svg>
