<svg width="1760" height="1760" viewBox="0 0 1760 1760" fill="none" xmlns="http://www.w3.org/2000/svg">
<rect width="1760" height="1760" fill="white"/>
<path d="M689.86 485.465C653.924 435.731 585.581 444.394 530.715 472.31C520.768 477.444 510.821 484.182 507.933 494.77C503.12 511.776 517.88 527.178 530.393 539.692C607.078 617.662 627.292 733.174 644.619 841.306C649.111 870.504 656.17 902.912 680.876 918.634C704.94 934.036 736.063 927.619 764.619 926.335C807.935 924.089 855.743 937.245 879.487 973.503C900.342 1005.27 898.096 1047.3 885.583 1083.24C873.069 1119.18 851.572 1151.26 835.208 1185.27C818.844 1219.29 806.972 1258.43 815.956 1295.33C827.507 1343.78 875.636 1379.08 925.369 1382.61C975.102 1386.14 1024.51 1361.11 1057.24 1323.57C1089.97 1286.03 1106.97 1236.29 1112.43 1186.88C1115.96 1156.72 1115.32 1125.91 1106.97 1096.72C1097.99 1064.31 1080.02 1035.11 1058.52 1009.44C1037.99 984.733 1013.6 962.593 1000.13 933.073C984.085 897.457 986.974 855.103 1003.02 819.487C1019.06 783.871 1047.94 755.314 1080.98 734.136C1098.95 722.585 1118.2 713.28 1134.25 699.483C1159.6 677.343 1175.32 644.294 1175.96 610.924C1177.56 532.312 1132 509.851 1160.56 404.286C1169.86 369.312 1143.87 373.804 1122.37 385.676C1089.65 403.965 1068.47 387.922 1030.93 384.393C993.391 380.863 939.808 370.275 922.481 403.324C869.219 504.076 867.293 528.14 809.539 547.392C766.223 561.831 716.812 522.686 689.86 485.465Z" fill="#FF82C1" stroke="black" stroke-width="20" stroke-miterlimit="10"/>
<path d="M937.563 1177.57C909.328 1195.22 909.969 1244.96 927.296 1275.12C930.183 1279.93 933.392 1284.42 937.563 1287.63C943.018 1292.12 949.756 1294.05 956.494 1295.33C980.879 1300.15 1007.83 1292.77 1024.84 1272.87C1041.84 1252.98 1046.01 1220.89 1031.9 1198.43C1023.23 1184.63 1008.79 1176.29 994.034 1172.44C979.274 1168.59 960.986 1162.49 937.563 1176.93V1177.57Z" fill="white" stroke="black" stroke-width="20" stroke-miterlimit="10"/>
<path d="M979.277 1251.05C985.833 1251.05 991.148 1245.16 991.148 1237.9C991.148 1230.63 985.833 1224.74 979.277 1224.74C972.72 1224.74 967.405 1230.63 967.405 1237.9C967.405 1245.16 972.72 1251.05 979.277 1251.05Z" fill="black"/>
</svg>
