<svg width="1760" height="1760" viewBox="0 0 1760 1760" fill="none" xmlns="http://www.w3.org/2000/svg">
<rect width="1760" height="1760" fill="white"/>
<path d="M630.266 731.339C623.977 732.001 617.688 732.994 612.392 735.973C593.857 746.896 599.153 774.038 601.139 795.553C606.435 854.802 565.391 908.754 517.729 944.171C489.594 965.024 457.82 982.567 437.298 1011.03C398.241 1065.32 414.129 1145.09 456.827 1196.72C480.658 1225.52 512.764 1248.36 549.173 1256.3C585.582 1264.25 626.624 1255.64 653.103 1229.49C678.259 1204.67 687.857 1168.92 699.773 1135.49C718.639 1082.2 749.422 1028.58 800.726 1005.41C817.275 998.124 836.141 994.152 853.353 999.779C881.156 1009.05 895.058 1040.16 901.016 1068.63C907.304 1100.07 907.967 1132.51 902.34 1164.29C892.741 1217.58 866.923 1274.84 891.085 1323.16C920.874 1382.74 1024.81 1387.38 1061.88 1375.79C1201.88 1331.44 1200.56 1339.38 1239.62 1231.15C1251.53 1198.38 1248.22 1161.97 1244.91 1127.21C1233.66 1015.34 1198.24 904.12 1210.82 792.243C1217.44 733.325 1236.97 669.773 1209.17 617.144C1195.6 591.326 1172.1 572.129 1154.22 548.628C1136.35 525.127 1124.43 493.02 1138 467.202C1142.64 458.265 1149.92 449.328 1147.27 439.729C1144.29 429.138 1130.72 425.827 1119.8 425.496C1047.97 422.848 979.79 459.92 926.17 507.915C872.55 555.91 831.176 615.82 780.535 666.794C694.146 753.185 652.773 728.36 629.603 731.339H630.266Z" fill="#FFF570" stroke="black" stroke-width="20" stroke-miterlimit="10"/>
<path d="M921.204 701.217C867.583 732 868.576 819.383 901.675 871.35C906.971 879.625 913.26 887.569 921.204 893.527C931.464 901.14 944.374 904.781 956.951 907.098C1003.29 915.373 1054.59 902.464 1086.7 868.04C1118.8 833.616 1127.08 777.015 1100.27 738.289C1083.72 714.457 1056.58 699.562 1028.45 692.942C1000.31 686.322 965.887 675.73 921.204 701.217Z" fill="white" stroke="black" stroke-width="20" stroke-miterlimit="10"/>
<path d="M1000.31 829.976C1012.92 829.976 1023.15 819.751 1023.15 807.137C1023.15 794.524 1012.92 784.298 1000.31 784.298C987.697 784.298 977.472 794.524 977.472 807.137C977.472 819.751 987.697 829.976 1000.31 829.976Z" fill="black"/>
</svg>
