<svg width="1760" height="1760" viewBox="0 0 1760 1760" fill="none" xmlns="http://www.w3.org/2000/svg">
<rect width="1760" height="1760" fill="white"/>
<path d="M740.964 508.655C694.955 510.91 649.397 480.688 633.61 437.835C626.393 417.987 614.664 390.019 594.817 396.786C584.893 400.394 580.382 411.671 577.676 422.046C520.84 628.643 639.924 849.675 599.328 1059.88C587.149 1123.48 560.535 1189.34 581.735 1250.24C593.463 1284.07 619.625 1312.04 652.103 1326.47C679.167 1338.65 713.901 1339.55 736.454 1320.16C755.851 1303.47 762.165 1276.85 769.834 1252.49C780.208 1217.76 795.094 1184.83 814.039 1153.71C828.925 1128.9 850.124 1103.64 878.993 1101.83C915.078 1100.03 942.144 1138.82 944.85 1174.91C947.557 1210.99 933.573 1246.18 926.356 1281.81C919.139 1317.45 921.846 1359.4 949.361 1383.31C969.209 1400.45 997.175 1404.06 1023.79 1404.06C1058.52 1404.06 1094.61 1400 1123.02 1379.7C1163.17 1350.83 1190.23 1295.35 1176.7 1247.98C1134.75 1102.28 1343.6 1040.48 1213.69 950.718C1074.76 855.088 1179.86 725.176 1230.38 637.665C1266.92 574.062 1329.16 535.269 1120.77 425.204C1096.86 412.574 1081.52 388.215 1059.87 371.525C1030.1 348.069 988.153 341.753 952.518 354.384C880.346 380.547 855.988 502.34 741.416 508.204L740.964 508.655Z" fill="#442FBD" stroke="black" stroke-width="20" stroke-miterlimit="10"/>
<path d="M946.207 831.631C897.492 814.039 866.818 761.713 863.66 709.838C862.758 697.208 863.661 684.578 867.27 672.398C874.938 649.844 894.333 632.703 915.985 622.328C954.326 603.833 1000.79 603.833 1038.68 622.779C1042.74 624.583 1046.8 627.29 1047.7 631.801C1048.6 634.507 1047.7 637.665 1046.8 640.372C1029.2 694.502 1008.46 747.73 984.097 799.605C976.429 815.844 957.592 835.477 940 829.162L946.207 831.631Z" fill="white" stroke="black" stroke-width="20" stroke-miterlimit="10"/>
<path d="M964.002 711.38C968.907 703.576 966.045 692.95 957.608 687.647C949.171 682.344 938.354 684.373 933.449 692.177C928.545 699.981 931.408 710.607 939.845 715.909C948.282 721.212 959.097 719.184 964.002 711.38Z" fill="black"/>
</svg>
