<svg width="1760" height="1760" viewBox="0 0 1760 1760" fill="none" xmlns="http://www.w3.org/2000/svg">
<rect width="1760" height="1760" fill="white"/>
<path d="M772.153 460.262C765.976 476.843 744.518 482.045 726.962 478.469C709.406 474.892 693.476 466.114 675.92 464.488C654.138 462.538 631.705 472.617 619.026 490.173C606.347 507.729 603.747 532.438 612.525 552.27C616.751 561.373 622.928 569.501 627.154 578.929C641.784 612.091 625.204 650.13 605.372 680.366C585.541 710.602 560.832 740.187 557.256 775.949C541.651 937.857 675.595 928.104 728.913 961.916C765 984.674 783.531 1022.71 762.724 1059.78C748.094 1085.79 733.139 1112.12 718.509 1138.13C706.155 1160.24 693.151 1182.99 688.274 1208.03C674.945 1273.05 720.135 1341 781.58 1366.68C843.025 1392.37 915.199 1380.67 974.044 1350.1C1006.88 1332.87 1037.77 1308.49 1052.39 1274.68C1074.5 1222.98 1053.7 1163.81 1033.21 1111.14C1012.73 1058.48 992.575 998.979 1015.66 947.611C1035.49 903.395 1088.16 876.735 1135.62 887.139C1184.71 897.868 1220.48 941.108 1267.94 957.364C1283.55 962.891 1302.08 964.842 1316.06 955.739C1329.71 946.96 1335.56 930.38 1338.16 914.124C1344.02 878.686 1336.21 839.022 1309.88 814.313C1286.8 792.531 1253.64 786.028 1222.1 781.802C1190.57 777.575 1157.73 774.649 1130.75 758.393C1103.76 742.138 1084.26 707.35 1096.93 678.09C1113.19 640.376 1168.46 636.475 1192.84 603.313C1203.57 589.008 1207.15 570.151 1206.17 552.27C1204.87 531.463 1196.42 509.03 1177.56 499.276C1138.55 479.444 1095.96 527.236 1052.39 524.31C1015.98 522.034 992.25 486.272 974.369 454.735C964.291 436.854 954.212 418.973 944.134 401.416C936.656 388.087 928.529 374.106 915.849 365.653C882.038 342.245 809.864 356.875 772.477 460.262H772.153Z" fill="#424242" stroke="black" stroke-width="20" stroke-miterlimit="10"/>
<path d="M807.911 1102.69C755.244 1132.93 756.219 1218.76 788.73 1269.8C793.932 1277.93 800.109 1285.73 807.911 1291.58C817.99 1299.06 830.669 1302.64 843.024 1304.91C888.539 1313.04 938.93 1300.36 970.465 1266.55C1002 1232.74 1010.13 1177.14 983.795 1139.1C967.539 1115.7 940.881 1101.07 913.247 1094.56C885.613 1088.06 851.801 1077.66 807.911 1102.69Z" fill="white" stroke="black" stroke-width="20" stroke-miterlimit="10"/>
<path d="M885.611 1229.16C898 1229.16 908.044 1219.12 908.044 1206.73C908.044 1194.34 898 1184.3 885.611 1184.3C873.222 1184.3 863.179 1194.34 863.179 1206.73C863.179 1219.12 873.222 1229.16 885.611 1229.16Z" fill="black"/>
</svg>
