<svg width="1760" height="1760" viewBox="0 0 1760 1760" fill="none" xmlns="http://www.w3.org/2000/svg">
<path d="M1760 0H0V1760H1760V0Z" fill="white"/>
<path d="M426.049 1068.27C390.091 1075.54 358.174 1100.19 356.154 1136.55C354.134 1172.91 372.315 1207.66 390.496 1239.58C404.233 1263.41 417.968 1287.66 436.149 1308.26C477.359 1355.53 541.195 1383.81 603.818 1378.97C666.441 1374.12 726.236 1334.93 752.902 1278.36C788.86 1201.6 788.455 1061.8 901.176 1082C1082.18 1114.33 938.347 1282.81 1030.46 1344.22C1074.1 1373.31 1134.3 1331.69 1169.04 1292.1C1241.77 1209.27 1303.58 1138.97 1344.39 1090.49C1368.63 1062.21 1383.98 1021.8 1369.03 987.865C1358.12 962.411 1342.77 947.058 1305.2 939.785C1257.93 930.897 1126.21 992.713 1114.9 864.636C1104.8 746.659 1260.35 769.285 1301.56 758.78C1384.79 738.174 1391.66 695.751 1401.35 654.54C1411.86 611.309 1402.16 511.513 1396.1 504.645C1388.02 495.352 1028.85 459.797 744.013 495.756C707.248 500.604 668.865 506.665 639.776 529.695C602.202 559.593 589.678 610.501 586.041 658.176C582.001 717.165 581.193 809.284 598.566 865.848C615.535 920.392 657.553 992.309 643.816 1048.07C634.12 1086.45 604.626 1140.59 548.871 1111.5C513.721 1092.91 495.944 1053.73 426.049 1068.27Z" fill="#5CFF37" stroke="black" stroke-width="20" stroke-miterlimit="10"/>
<path d="M747.652 617.773C711.694 632.722 717.754 695.751 718.158 734.538C718.158 749.083 718.158 764.032 725.835 776.557C737.955 796.759 763.812 802.819 787.245 806.051C832.899 811.708 879.362 812.516 925.016 808.476C933.096 807.668 941.581 806.859 948.853 803.223C965.822 794.335 972.286 773.729 976.326 754.74C983.194 722.417 988.447 689.691 991.679 656.56C992.487 648.076 993.295 639.187 989.255 631.914C983.195 619.793 967.843 616.157 954.51 614.541C880.978 603.632 795.73 597.976 747.652 617.773Z" fill="white" stroke="black" stroke-width="20" stroke-miterlimit="10"/>
<path d="M866.029 716.76C872.277 716.76 877.342 711.333 877.342 704.639C877.342 697.945 872.277 692.518 866.029 692.518C859.782 692.518 854.717 697.945 854.717 704.639C854.717 711.333 859.782 716.76 866.029 716.76Z" fill="#030000" stroke="black" stroke-width="20" stroke-miterlimit="10"/>
</svg>
