<svg width="1760" height="1760" viewBox="0 0 1760 1760" fill="none" xmlns="http://www.w3.org/2000/svg">
<rect width="1760" height="1760" fill="white"/>
<path d="M829.735 412.253C787.337 388.199 742.899 441.606 691.532 460.36C670.74 468.106 647.503 471.775 632.011 487.267C615.704 503.167 611.218 527.629 599.396 547.198C582.273 575.736 551.698 592.452 525.199 612.429C498.7 632.405 474.239 662.575 479.539 695.19C485.654 735.143 530.091 755.12 568.413 766.536C610.404 779.174 653.21 790.182 690.717 813.012C728.223 835.843 760.022 872.127 764.915 915.75C769.807 959.372 740.045 1007.48 696.423 1011.96C674.001 1014.41 651.987 1005.85 632.419 994.842C578.605 964.673 528.052 914.119 466.9 921.457C409.825 928.388 369.872 988.319 369.057 1045.8C368.242 1103.29 375.58 1187.68 430.617 1203.99C568.413 1244.76 546.805 1325.07 638.126 1325.07C701.316 1325.07 747.792 1332 811.797 1333.63C848.896 1334.45 887.217 1334.45 921.87 1321.81C969.161 1304.69 1006.26 1266.36 1033.98 1224.37C1061.7 1182.38 1082.5 1135.9 1108.18 1093.1C1137.94 1043.76 1174.63 998.511 1217.03 959.78C1240.68 938.173 1266.36 918.196 1287.56 894.142C1346.26 828.096 1369.1 738.404 1387.44 651.974C1397.23 605.905 1406.6 559.021 1403.34 512.137C1400.08 465.252 1382.96 417.145 1347.49 386.16C1312.02 355.176 1256.58 344.984 1216.62 370.261C1186.45 389.422 1170.15 423.26 1149.36 452.206C1115.52 499.09 1126.12 570.028 1032.35 583.89C1001.78 588.374 947.962 565.951 922.686 547.605C910.048 538.229 901.487 524.775 893.333 511.321C878.657 487.675 875.395 438.752 829.327 412.66L829.735 412.253Z" fill="#96BDF2" stroke="black" stroke-width="20" stroke-miterlimit="10"/>
<path d="M732.708 1167.29C722.924 1110.22 636.495 1067 574.12 1056C563.928 1054.36 554.144 1053.14 545.583 1054.36C534.576 1056 526.422 1061.3 519.899 1067.41C495.438 1089.83 489.73 1127.34 511.745 1166.48C533.76 1205.62 585.943 1243.53 633.234 1250.87C662.179 1255.36 686.232 1248.02 702.539 1235.38C718.846 1222.74 738.823 1203.99 732.708 1167.7V1167.29Z" fill="white" stroke="black" stroke-width="20" stroke-miterlimit="10"/>
<path d="M623.695 1165.17C628.118 1157.85 621.861 1145.97 609.719 1138.63C597.577 1131.3 584.148 1131.29 579.725 1138.61C575.302 1145.94 581.559 1157.82 593.701 1165.15C605.843 1172.49 619.272 1172.49 623.695 1165.17Z" fill="black"/>
</svg>
