<svg width="1760" height="1760" viewBox="0 0 1760 1760" fill="none" xmlns="http://www.w3.org/2000/svg">
<rect width="1760" height="1760" fill="white"/>
<path d="M826.36 406.885C756.09 411.327 778.302 559.142 782.745 629.415C785.168 673.84 782.745 727.554 743.975 749.363C708.436 769.556 674.914 765.518 639.375 745.728C538.007 687.975 552.546 791.365 547.296 819.232C530.738 904.043 517.412 960.989 463.699 1052.26C445.929 1082.55 419.274 1118.09 436.64 1148.79C447.544 1168.17 471.372 1176.25 487.526 1191.6C521.046 1223.5 514.988 1278.02 532.758 1320.83C553.758 1371.72 613.125 1403.63 667.241 1392.72C721.358 1381.82 763.764 1329.31 762.956 1274.39C762.956 1248.95 754.475 1223.91 751.244 1198.46C748.013 1173.02 752.051 1144.34 771.032 1127.38C787.591 1112.44 811.822 1110.42 834.034 1109.21C885.323 1106.38 946.709 1111.63 971.344 1156.46C989.518 1189.17 979.422 1229.56 970.941 1266.31C962.46 1303.06 957.613 1345.87 982.652 1373.74C993.153 1385.86 1008.1 1393.13 1023.44 1397.97C1088.06 1417.76 1163.98 1388.68 1198.72 1330.93C1223.35 1290.14 1227.79 1240.46 1231.43 1192.81C1235.06 1146.36 1238.29 1099.92 1241.93 1053.47C1245.56 1002.99 1247.99 946.853 1216.89 906.87C1193.87 877.388 1156.31 862.446 1119.16 858.811C1088.87 855.984 1058.17 859.619 1028.69 851.945C989.519 841.445 956.403 809.943 944.287 771.172C932.171 732.401 941.46 687.572 968.114 656.878C980.23 642.743 1009.31 620.934 1019 605.183C1044.44 564.796 1027.48 464.637 1000.02 435.559C964.884 398.403 938.633 400.827 826.765 407.693L826.36 406.885Z" fill="#B0FCA4" stroke="black" stroke-width="20" stroke-miterlimit="10"/>
<path d="M787.994 977.547C782.744 965.431 791.224 938.776 806.167 921.006C829.591 893.543 871.188 883.446 904.708 896.773C938.228 910.101 961.248 946.045 959.633 981.989C959.633 984.009 959.633 986.028 958.017 988.048C956.402 990.471 953.575 991.278 950.748 992.086C892.189 1007.84 795.668 995.721 787.994 977.547Z" fill="#FAFCFF" stroke="black" stroke-width="20" stroke-miterlimit="10"/>
<path d="M878.055 957.353C884.746 957.353 890.171 951.929 890.171 945.238C890.171 938.546 884.746 933.122 878.055 933.122C871.363 933.122 865.939 938.546 865.939 945.238C865.939 951.929 871.363 957.353 878.055 957.353Z" fill="black" stroke="black" stroke-width="20" stroke-miterlimit="10"/>
</svg>
