<svg width="1760" height="1760" viewBox="0 0 1760 1760" fill="none" xmlns="http://www.w3.org/2000/svg">
<rect width="1760" height="1760" fill="white"/>
<path d="M614.776 726.637C590.936 721.556 556.543 697.324 536.22 710.613C514.725 724.683 465.873 802.459 465.091 814.574C461.574 852.876 560.842 871.636 548.727 1007.65C540.52 1101.84 532.313 1196.03 523.715 1290.22C522.151 1308.98 522.151 1331.26 537.393 1341.42C545.991 1347.28 557.325 1347.67 568.268 1347.67C589.372 1347.67 610.087 1347.67 631.191 1347.67C641.352 1347.67 651.904 1347.67 660.893 1343.37C683.951 1333.21 690.205 1303.51 689.423 1278.49C688.642 1253.48 684.343 1226.12 697.24 1204.63C714.436 1175.7 753.127 1170.23 786.738 1169.06C803.934 1168.28 821.912 1168.28 837.154 1176.09C856.305 1186.26 867.638 1207.36 871.156 1228.86C874.673 1250.35 871.547 1272.24 869.202 1293.74C867.248 1308.98 866.857 1326.57 877.8 1336.73C883.662 1342.2 891.87 1344.54 899.686 1346.5C936.814 1355.1 975.115 1359.4 1013.02 1359C1022.8 1359 1032.57 1358.22 1041.16 1353.92C1059.53 1344.54 1065 1321.09 1068.13 1300.38C1070.87 1282.4 1073.99 1264.42 1076.73 1246.84C1078.29 1237.85 1079.86 1228.47 1084.15 1220.65C1091.58 1207.36 1105.65 1199.15 1120.11 1194.85C1183.42 1174.53 1260.81 1208.53 1315.13 1170.62C1340.53 1153.04 1354.99 1120.99 1351.48 1090.11C1347.96 1059.24 1326.85 1031.49 1298.32 1019.76C1283.47 1013.9 1267.45 1011.95 1252.99 1004.52C1211.95 983.414 1204.92 928.698 1201.79 882.58C1198.66 836.461 1186.94 782.526 1143.95 765.33C1063.44 732.5 1105.26 572.649 1090.41 467.906C1082.59 412.798 947.366 300.239 987.621 705.532C994.265 771.192 1038.82 1008.43 890.306 990.84C788.692 978.724 822.303 749.696 830.12 711.785C845.362 638.699 843.798 562.487 825.82 490.183C818.394 460.089 794.554 385.049 737.885 402.637C642.133 431.949 716.781 747.742 614.776 726.637Z" fill="#442FBD" stroke="black" stroke-width="20" stroke-miterlimit="10"/>
<path d="M1132.22 1059.63C1158.8 1036.18 1152.16 979.898 1136.92 945.504C1134.57 940.033 1131.44 934.952 1127.93 931.043C1123.24 925.962 1117.76 923.617 1112.29 922.445C1091.97 917.755 1070.47 927.135 1057.19 950.194C1043.9 973.253 1041.94 1011.56 1054.06 1036.96C1061.49 1052.59 1073.6 1062.36 1086.11 1066.27C1098.61 1070.18 1115.03 1074.48 1132.22 1059.63Z" fill="white" stroke="black" stroke-width="20" stroke-miterlimit="10"/>
<path d="M1095.68 1006.03C1101.07 1005.85 1105.21 998.882 1104.93 990.468C1104.65 982.055 1100.04 975.382 1094.65 975.564C1089.26 975.745 1085.12 982.713 1085.4 991.126C1085.68 999.54 1090.29 1006.21 1095.68 1006.03Z" fill="black"/>
</svg>
