<svg width="1760" height="1760" viewBox="0 0 1760 1760" fill="none" xmlns="http://www.w3.org/2000/svg">
<rect width="1760" height="1760" fill="white"/>
<path d="M752.287 376C717.159 376 682.032 377.811 633.505 386.503C567.958 398.091 620.83 583.873 559.266 687.086C548.764 704.469 535.727 720.041 527.036 738.511C505.308 784.504 515.085 838.826 525.225 888.803C530.657 914.878 537.176 943.125 557.456 960.508C577.373 977.167 605.982 978.978 628.072 993.102C662.113 1014.83 672.254 1059.74 672.978 1099.94C673.702 1140.13 668.27 1182.14 682.756 1219.45C697.241 1256.75 742.146 1287.17 777.636 1268.33C795.019 1259.28 805.883 1240.81 812.04 1221.98C828.336 1173.81 820.369 1121.3 812.04 1070.96C803.71 1020.63 794.294 968.838 808.055 919.948C821.817 871.058 865.998 826.514 916.697 830.135C959.43 833.394 994.195 871.058 1005.06 912.342C1015.92 953.627 1007.23 998.172 992.747 1038.73C978.261 1079.29 957.981 1117.32 944.944 1158.24C933.718 1193.37 927.562 1230.31 927.2 1267.25C927.2 1299.48 932.27 1334.25 955.809 1356.34C970.657 1370.1 991.299 1376.98 1011.22 1380.6C1051.78 1387.84 1095.59 1383.86 1131.45 1363.58C1167.3 1343.3 1194.1 1304.55 1194.46 1263.26C1194.46 1232.12 1180.7 1202.79 1172.01 1173.09C1159.33 1130.36 1157.52 1084.36 1166.21 1040.91C1168.38 1030.77 1171.28 1020.26 1178.89 1013.38C1200.62 993.464 1235.38 1019.18 1263.99 1013.38C1283.91 1009.4 1297.67 990.205 1302.01 970.648C1306.36 951.092 1302.74 930.45 1299.12 910.532C1295.13 888.441 1291.15 866.35 1287.17 843.896C1283.54 824.702 1278.11 802.974 1260.73 794.282C1236.83 782.693 1204.24 803.336 1183.23 786.677C1172.01 777.623 1169.83 761.327 1168.75 746.841C1166.21 712.074 1163.31 677.308 1160.78 642.542C1158.97 617.191 1155.35 588.581 1135.07 573.371C1109.36 553.815 953.636 569.388 882.295 573.009C852.237 574.458 835.941 539.329 827.974 510.357C820.369 482.834 821.818 376.362 752.287 376.362V376Z" fill="#FF6640" stroke="black" stroke-width="20" stroke-miterlimit="10"/>
<path d="M994.557 1271.96C994.557 1278.48 994.557 1285.72 997.816 1290.79C1001.44 1296.22 1007.96 1297.31 1013.39 1297.31C1037.29 1298.39 1061.19 1297.31 1084.37 1292.96C1089.44 1291.88 1094.87 1290.79 1099.21 1287.17C1108.63 1279.2 1109.35 1262.18 1109.35 1247.69C1109.35 1224.88 1106.46 1196.27 1089.07 1187.94C1082.92 1185.04 1076.4 1185.4 1070.24 1186.13C1052.5 1187.94 1034.75 1191.56 1017.37 1196.63C1012.3 1198.08 1006.87 1199.89 1003.25 1204.6C999.626 1209.31 995.28 1254.21 994.918 1271.6L994.557 1271.96Z" fill="white" stroke="black" stroke-width="20" stroke-miterlimit="10"/>
<path d="M1055.4 1254.61C1061.38 1254.12 1065.75 1248.06 1065.17 1241.08C1064.59 1234.11 1059.28 1228.85 1053.3 1229.35C1047.32 1229.85 1042.94 1235.91 1043.52 1242.88C1044.1 1249.86 1049.42 1255.11 1055.4 1254.61Z" fill="black"/>
</svg>
