<svg width="1760" height="1760" viewBox="0 0 1760 1760" fill="none" xmlns="http://www.w3.org/2000/svg">
<rect width="1760" height="1760" fill="white"/>
<path d="M783.707 372.949C755.483 404.248 789.855 474.111 758.557 502.894C737.879 521.897 718.597 525.809 671.651 531.398C656.281 533.075 637.279 539.782 638.955 572.198C640.632 604.615 642.588 635.354 644.265 666.932C644.824 678.949 645.103 704.938 654.604 711.924C668.576 722.264 695.962 708.012 709.655 718.91C737.599 740.987 745.145 815.321 739.835 858.916C738.997 866.74 734.526 872.05 730.054 878.478C716.641 898.039 690.653 883.787 654.325 883.787C639.235 883.787 626.101 898.318 634.764 959.798C639.514 993.052 655.443 1037.49 660.193 1070.74C662.988 1089.46 657.678 1107.63 669.415 1122.44C688.417 1146.19 722.789 1149.27 752.969 1150.38C801.872 1152.34 893.25 1138.09 919.797 1164.36C946.345 1190.63 930.975 1221.09 928.46 1247.63C926.225 1271.11 923.988 1295.42 931.254 1318.05C938.52 1340.69 957.522 1361.09 981.275 1362.21C993.291 1362.77 1004.75 1358.58 1015.93 1354.1C1032.13 1347.68 1049.18 1339.57 1058.12 1324.76C1063.43 1315.82 1065.39 1305.48 1065.95 1295.14C1067.62 1269.15 1061.48 1242.6 1048.62 1219.97C1039.4 1203.48 1027.38 1180.56 1041.91 1168.55C1048.34 1162.96 1153.97 1159.89 1160.12 1155.69C1169.06 1149.83 1158.72 963.71 1152.02 955.047C1138.32 937.162 1122.11 944.707 1089.42 935.765C1063.15 928.499 1044.71 899.716 1048.34 872.609C1057.56 803.864 1133.85 857.519 1159.84 807.776C1184.15 760.828 1165.99 668.33 1157.05 672.242C1102.55 696.834 993.291 688.73 936.285 682.861C829.257 671.683 837.92 625.015 851.613 598.187C886.823 530.001 927.342 476.067 879.278 386.083C858.878 348.078 805.504 348.637 783.149 373.508L783.707 372.949Z" fill="white" stroke="black" stroke-width="20" stroke-miterlimit="10"/>
<path d="M943.111 964.27C957.922 956.166 959.196 920.117 959.196 898.878C959.196 891.054 959.197 882.95 956.123 876.243C951.093 865.065 940.474 861.99 930.693 860.314C911.691 857.24 892.689 856.681 873.686 858.916C870.333 859.196 866.98 859.755 863.907 861.711C856.92 866.462 854.126 877.919 852.449 887.98C849.655 905.585 847.419 923.47 846.022 941.355C845.742 945.826 845.463 950.577 847.14 954.769C849.655 961.196 856.082 963.152 861.671 964.27C892.13 970.138 927.34 973.213 947.18 962.314L943.111 964.27Z" fill="white" stroke="black" stroke-width="20" stroke-miterlimit="10"/>
<path d="M902.47 961.475C907.1 961.475 910.854 957.722 910.854 953.092C910.854 948.462 907.1 944.708 902.47 944.708C897.84 944.708 894.087 948.462 894.087 953.092C894.087 957.722 897.84 961.475 902.47 961.475Z" fill="black" stroke="black" stroke-width="20" stroke-miterlimit="10"/>
</svg>
