<svg width="1760" height="1760" viewBox="0 0 1760 1760" fill="none" xmlns="http://www.w3.org/2000/svg">
<rect width="1760" height="1760" fill="white"/>
<path d="M961.391 350.532C929.592 346.195 898.877 368.961 885.146 397.509C871.414 426.057 871.775 460.025 875.75 491.825C879.725 523.625 887.675 555.063 888.036 586.863C888.036 598.788 887.314 611.075 881.894 621.193C869.969 643.959 841.061 650.463 815.405 653.354C764.093 659.497 712.418 659.858 661.106 655.161C655.324 654.438 648.459 654.077 643.762 657.69C638.703 661.304 637.257 668.17 636.173 674.675C632.198 704.306 634.727 733.938 632.921 763.57C631.114 793.201 623.165 823.918 604.013 845.961C569.684 874.147 508.615 858.608 482.597 894.745C467.782 915.704 473.202 946.781 490.547 965.933C507.892 985.085 533.909 994.119 559.204 997.371C575.465 999.178 593.895 999.901 605.097 1011.83C614.131 1021.58 615.937 1035.68 617.021 1049.05C622.803 1119.15 623.526 1189.62 619.551 1259.72C619.551 1264.42 619.189 1270.2 622.441 1273.45C624.971 1276.34 629.307 1277.07 633.282 1277.43C702.662 1287.55 770.596 1283.21 782.882 1260.08C788.664 1249.24 787.942 1236.23 784.69 1224.31C750.722 1100 749.999 1040.01 783.966 978.942C807.454 937.024 863.465 913.897 906.827 934.133C958.501 957.983 972.954 1024.47 972.593 1081.57C971.509 1214.91 934.651 1338.5 942.601 1355.48C949.105 1368.85 965.004 1374.63 979.459 1378.25C1140.98 1419.44 1232.04 1419.44 1214.34 1318.26C1208.56 1285.74 1180.37 1262.61 1160.14 1236.59C1120.75 1186.36 1111.71 1107.23 1155.8 1060.97C1182.9 1032.42 1224.46 1021.22 1251.56 992.674C1287.33 954.731 1289.14 896.551 1285.89 844.515C1282.63 795.008 1276.49 745.501 1267.46 696.356C1265.29 684.792 1262.76 672.867 1255.17 664.195C1239.63 646.488 1210.36 646.849 1186.88 646.849C971.871 646.849 993.913 633.479 999.694 585.779C1004.39 546.029 1028.6 504.111 1030.41 464.361C1032.22 424.611 1021.38 358.482 961.391 350.532Z" fill="#442FBD" stroke="black" stroke-width="20" stroke-miterlimit="10"/>
<path d="M995.722 766.46C1001.5 776.94 995.722 801.513 983.075 818.135C963.923 844.153 927.788 856.078 896.712 846.322C865.635 836.565 842.869 806.21 841.785 774.049C841.785 772.242 841.786 770.435 842.509 768.628C843.593 766.46 846.121 765.376 848.651 764.654C899.602 746.585 987.049 750.921 995.36 766.46H995.722Z" fill="#FAFCFF" stroke="black" stroke-width="20" stroke-miterlimit="10"/>
<path d="M920.198 792.119C926.185 792.119 931.038 787.265 931.038 781.278C931.038 775.291 926.185 770.437 920.198 770.437C914.211 770.437 909.356 775.291 909.356 781.278C909.356 787.265 914.211 792.119 920.198 792.119Z" fill="black" stroke="black" stroke-width="20" stroke-miterlimit="10"/>
</svg>
