<svg width="1760" height="1760" viewBox="0 0 1760 1760" fill="none" xmlns="http://www.w3.org/2000/svg">
<rect width="1760" height="1760" fill="white"/>
<path d="M698.651 670.48C661.161 675.212 609.887 667.933 561.842 670.48C548.011 671.208 587.321 876.862 546.919 961.672C518.164 1021.37 450.829 1024.28 422.074 1083.97C403.875 1122.19 399.507 1169.15 423.894 1203.72C474.487 1275.07 517.8 1344.95 593.508 1374.07C625.174 1386.45 659.752 1393 693.238 1386.81C775.134 1371.16 779.866 1306.01 779.502 1252.5C779.502 1193.53 786.054 1134.93 799.885 1077.42C806.073 1051.21 814.808 1024.28 833.735 1004.99C854.118 984.603 883.6 976.231 911.626 968.587C962.947 954.756 1023.73 942.744 1064.5 976.959C1093.98 1001.71 1102.72 1045.03 1095.44 1083.24C1088.16 1121.46 1067.77 1155.31 1047.39 1188.07C948.752 1345.68 1005.53 1396.27 1086.34 1403.19C1120.91 1406.1 1155.86 1403.92 1189.71 1396.64C1234.11 1387.17 1286.16 1367.88 1287.62 1273.25C1289.07 1192.8 1271.97 1112 1238.12 1038.84C1229.38 1019.91 1219.19 1000.98 1217.01 980.235C1214.82 959.488 1221.74 935.828 1239.57 925.637C1255.22 916.901 1274.51 919.813 1292.35 916.901C1321.83 912.169 1348.04 888.51 1353.13 859.027C1358.23 829.543 1340.39 797.148 1311.64 788.413C1299.99 784.773 1287.25 785.137 1275.61 781.133C1251.95 773.125 1237.39 748.374 1232.66 723.987C1227.92 699.6 1230.84 674.12 1231.2 649.369C1231.2 637.357 1230.84 624.618 1224.29 614.426C1213.37 596.954 1189.34 592.951 1168.6 592.951C1147.85 592.951 1125.65 595.862 1107.45 586.035C1082.33 572.203 1074.69 540.9 1067.41 513.237C1045.57 433.887 998.254 342.162 948.753 350.534C842.107 368.369 866.857 522.336 837.738 602.414C823.543 641.361 788.601 659.197 695.786 670.844L698.651 670.48Z" fill="#DAD4FF" stroke="black" stroke-width="20" stroke-miterlimit="10"/>
<path d="M1047.03 706.151C983.693 610.058 860.668 667.932 836.282 745.825C795.88 875.042 952.755 888.509 1008.81 865.214C1083.06 834.639 1073.23 745.826 1047.03 706.151Z" fill="white" stroke="black" stroke-width="20" stroke-miterlimit="10"/>
<path d="M938.926 796.783C951.791 796.783 962.221 787.656 962.221 776.399C962.221 765.141 951.791 756.016 938.926 756.016C926.061 756.016 915.632 765.141 915.632 776.399C915.632 787.656 926.061 796.783 938.926 796.783Z" fill="black"/>
</svg>
