<svg width="1760" height="1760" viewBox="0 0 1760 1760" fill="none" xmlns="http://www.w3.org/2000/svg">
<rect width="1760" height="1760" fill="white"/>
<path d="M613.808 384.551C577.405 381.012 535.945 379.495 510.665 405.787C488.924 429.045 489.43 465.449 493.475 497.303C497.52 528.651 505.104 562.022 528.868 582.752C551.62 602.977 584.988 606.516 609.763 624.718C650.211 654.044 654.762 721.796 618.359 756.178C576.394 795.616 500.553 788.538 469.205 836.571C444.431 874.998 462.127 925.053 480.329 967.019C515.721 1050.45 549.597 1136.4 556.675 1226.91C560.214 1274.43 560.72 1331.06 600.662 1357.35C617.347 1367.97 637.571 1371.01 657.289 1372.02C697.738 1374.04 738.187 1368.48 776.612 1355.84C791.78 1350.78 807.453 1344.21 818.071 1331.57C828.688 1318.42 832.228 1300.73 832.733 1284.04C833.745 1229.94 807.453 1179.88 791.274 1128.82C775.094 1077.75 771.556 1014.55 809.476 976.121C840.824 944.267 891.383 940.727 935.371 947.3C990.987 955.896 1052.16 988.761 1058.23 1044.88C1060.76 1068.65 1052.16 1092.41 1044.07 1115.17C1028.91 1156.63 1013.74 1197.58 998.571 1239.04C989.47 1264.32 979.863 1289.6 979.358 1316.4C978.852 1343.2 988.459 1371.51 1010.2 1386.68C1028.4 1399.32 1052.16 1401.34 1074.41 1402.35C1140.65 1406.4 1217.5 1405.89 1259.97 1354.32C1281.2 1328.53 1289.29 1294.15 1296.37 1261.29C1308 1208.2 1319.63 1155.11 1318.62 1101.01C1317.61 1046.91 1303.45 991.29 1268.06 950.335C1237.22 913.93 1193.23 892.189 1158.34 859.829C1123.45 827.47 1097.16 776.403 1116.88 733.425C1139.63 683.875 1208.9 675.28 1260.98 693.482C1282.21 701.066 1304.97 711.684 1326.71 705.111C1346.93 698.538 1359.57 678.313 1368.67 659.1C1401.03 589.831 1411.65 510.954 1398.5 436.123C1395.47 419.438 1390.92 401.236 1377.27 390.618C1363.62 380 1345.41 380 1328.22 380C1104.75 383.034 879.755 411.348 614.819 385.056L613.808 384.551Z" fill="#ABCDFF" stroke="black" stroke-width="20" stroke-miterlimit="10"/>
<path d="M1036.5 654.044C1042.56 669.213 1030.43 702.583 1010.71 723.819C979.869 756.684 927.791 767.302 886.332 749.099C844.872 730.897 818.075 684.886 821.615 639.886C821.615 637.358 822.121 634.83 823.637 632.808C825.66 629.774 829.199 629.269 832.738 628.257C906.556 611.066 1027.39 631.797 1036.5 654.044Z" fill="#FAFCFF" stroke="black" stroke-width="20" stroke-miterlimit="10"/>
<path d="M929.807 740.505C938.184 740.505 944.974 733.714 944.974 725.337C944.974 716.959 938.184 710.169 929.807 710.169C921.43 710.169 914.638 716.959 914.638 725.337C914.638 733.714 921.43 740.505 929.807 740.505Z" fill="black" stroke="black" stroke-width="20" stroke-miterlimit="10"/>
</svg>
