<svg width="1760" height="1760" viewBox="0 0 1760 1760" fill="none" xmlns="http://www.w3.org/2000/svg">
<rect width="1760" height="1760" fill="white"/>
<path d="M615.208 504.789C586.543 503.642 567.814 541.482 563.992 569.765C559.788 600.343 555.584 630.919 551.38 661.497C548.704 681.372 545.646 702.011 536.473 719.975C527.3 737.939 510.101 752.846 489.844 753.992C478.76 754.757 468.059 750.935 457.739 747.877C429.456 739.086 395.822 732.589 373.272 751.317C344.607 775.014 354.926 823.556 380.152 851.075C405.377 878.595 440.158 895.794 465.001 923.696C494.431 956.566 506.279 1002.43 505.897 1046.39C505.515 1090.34 493.666 1133.53 480.289 1175.57C475.32 1190.86 470.352 1208.06 476.849 1222.59C485.64 1242.46 510.102 1248.58 531.123 1251.64C566.668 1256.99 602.595 1261.19 638.522 1264.25C667.952 1266.54 700.822 1267.31 723.754 1248.58C750.126 1227.17 753.948 1188.95 754.713 1154.94C755.859 1114.04 755.859 1073.14 754.713 1031.86C753.566 995.17 751.655 957.713 761.974 922.549C772.294 887.385 798.666 854.515 834.593 847.253C880.458 837.697 926.322 874.008 941.228 918.345C956.134 962.682 947.344 1011.22 932.82 1055.94C918.296 1100.66 898.42 1143.47 891.159 1189.72C889.248 1201.18 888.484 1213.8 893.453 1224.12C898.421 1234.44 907.976 1240.93 917.913 1246.67C957.28 1269.22 1003.15 1277.24 1048.25 1283.74C1064.68 1286.03 1081.5 1287.95 1097.55 1283.74C1134.24 1273.04 1151.44 1231.38 1159.85 1194.3C1170.93 1146.53 1175.9 1097.6 1175.14 1048.68C1174.37 1018.48 1172.84 984.086 1193.86 962.3C1214.89 940.513 1249.67 940.513 1279.86 944.336C1310.05 948.158 1342.92 954.273 1369.68 939.749C1404.46 920.638 1413.63 870.186 1394.52 835.404C1375.41 800.623 1333.75 782.277 1294 781.894C1268.01 781.894 1238.2 786.863 1218.71 769.281C1202.27 754.757 1200.75 729.913 1200.36 708.127C1199.6 670.288 1218.33 624.422 1217.56 586.583C1217.56 568.237 1216.41 548.362 1205.71 533.455C1190.04 512.433 1141.5 517.02 1115.13 515.873C973.333 509.375 852.175 515.873 615.208 504.789Z" fill="#FCFFA6" stroke="black" stroke-width="20" stroke-miterlimit="10"/>
<path d="M957.661 653.087C946.96 637.416 900.33 638.181 871.283 637.416C860.581 637.416 849.497 636.651 839.942 639.327C824.654 643.913 819.685 654.615 817.392 664.553C812.423 683.664 811.277 703.539 813.188 723.032C813.571 726.472 813.953 729.912 816.628 733.352C822.743 740.996 838.413 744.054 852.173 746.347C876.252 750.169 900.33 753.227 924.791 755.52C930.907 756.285 937.404 756.667 943.138 755.52C952.31 753.227 954.985 746.729 956.896 741.378C966.069 710.419 971.803 674.491 957.661 653.469V653.087Z" fill="white" stroke="black" stroke-width="20" stroke-miterlimit="10"/>
<path d="M889.25 732.972C895.582 732.972 900.716 727.838 900.716 721.505C900.716 715.172 895.582 710.039 889.25 710.039C882.917 710.039 877.784 715.172 877.784 721.505C877.784 727.838 882.917 732.972 889.25 732.972Z" fill="black" stroke="black" stroke-width="20" stroke-miterlimit="10"/>
</svg>
