<svg width="1760" height="1760" viewBox="0 0 1760 1760" fill="none" xmlns="http://www.w3.org/2000/svg">
<rect width="1760" height="1760" fill="white"/>
<path d="M822.351 386.459C788.797 398.697 774.588 437.779 767.877 472.913C761.166 508.048 756.033 546.735 729.584 570.421C689.714 606.345 627.737 587.791 574.05 582.264C561.023 581.08 546.417 581.08 537.337 590.554C530.626 597.66 529.048 608.319 527.864 618.188C522.732 658.455 518.389 699.116 514.047 739.777C512.073 760.305 514.046 798.202 525.889 815.177C550.364 851.101 608.394 829.784 648.659 846.759C698.004 867.681 709.846 891.762 706.293 934.792C702.741 977.821 672.344 1005.06 629.315 1007.43C592.603 1009.4 553.127 989.665 520.757 1007.43C491.545 1023.22 484.439 1061.12 480.097 1093.88C472.202 1157.05 464.308 1220.6 456.413 1283.77C454.834 1297.58 453.254 1312.19 459.57 1324.43C471.018 1346.53 500.625 1349.69 525.495 1350.09C586.288 1350.88 647.08 1352.06 707.873 1352.85C726.821 1352.85 747.744 1352.85 762.35 1340.61C773.798 1330.74 778.929 1315.74 782.087 1300.74C793.141 1247.05 783.666 1191.39 786.824 1136.91C789.982 1082.44 811.3 1022.04 861.434 999.534C907.226 978.611 966.045 999.534 994.467 1040.98C1022.89 1082.43 1021.7 1140.47 998.019 1185.07C969.991 1237.97 911.962 1281.4 917.489 1341.01C920.647 1373.38 943.543 1401.41 971.966 1417.59C1000.39 1433.78 1033.55 1438.91 1065.92 1440.49C1113.68 1442.86 1166.58 1435.36 1197.77 1399.43C1216.32 1378.12 1224.61 1350.09 1230.53 1322.45C1245.93 1252.19 1249.09 1174.02 1211.58 1112.44C1177.63 1056.38 1116.05 1023.22 1077.76 969.926C1065.13 952.161 1054.86 931.239 1055.26 909.132C1055.65 887.025 1068.68 864.524 1090 858.207C1136.97 844.39 1174.08 915.054 1222.64 909.132C1279.09 902.816 1305.93 799.387 1305.93 704.247C1305.93 639.506 1290.14 592.529 1266.45 581.87C1229.35 565.29 1206.85 624.109 1179.21 630.031C1121.18 642.269 1045.39 639.111 1002.36 598.45C965.65 563.316 974.334 537.261 949.069 458.307C933.674 410.146 893.015 361.194 821.958 387.249L822.351 386.459Z" fill="#FF82C1" stroke="black" stroke-width="20" stroke-miterlimit="10"/>
<path d="M804.19 734.252C799.453 749.648 795.11 768.202 806.163 780.44C813.269 788.335 824.716 791.098 835.375 792.282C848.797 794.256 863.009 794.651 876.036 790.703C889.063 786.756 900.906 778.071 905.643 765.833C910.38 752.805 906.431 738.199 901.299 725.567C891.825 701.486 878.403 678.195 857.481 662.009C855.113 660.43 852.744 658.456 849.981 657.667C843.665 656.088 836.56 660.035 833.402 665.562C830.244 671.089 810.112 716.487 804.585 734.252H804.19Z" fill="white" stroke="black" stroke-width="20" stroke-miterlimit="10"/>
<path d="M853.533 755.963C860.946 755.963 866.954 751.014 866.954 744.909C866.954 738.805 860.946 733.856 853.533 733.856C846.121 733.856 840.11 738.805 840.11 744.909C840.11 751.014 846.121 755.963 853.533 755.963Z" fill="black"/>
</svg>
