<svg width="1760" height="1760" viewBox="0 0 1760 1760" fill="none" xmlns="http://www.w3.org/2000/svg">
<rect width="1760" height="1760" fill="white"/>
<path d="M406.888 684.025C353.912 588.779 337.569 515.513 398.434 455.773C455.355 399.978 546.653 396.033 623.862 415.759C701.071 435.484 773.208 474.372 850.981 491.843C942.279 512.695 1037.52 504.242 1131.08 509.877C1231.95 516.077 1346.36 551.019 1386.37 643.447C1404.41 685.152 1404.41 731.366 1403.84 777.017C1402.72 910.586 1401.59 1044.16 1400.46 1177.73C1400.46 1194.63 1400.46 1211.54 1395.95 1227.88C1382.99 1279.73 1332.83 1313.55 1282.68 1331.58C1181.23 1367.65 1068.52 1357.51 963.695 1331.58C928.19 1323.13 892.685 1312.42 863.38 1291.01C810.404 1252.68 783.352 1184.49 728.123 1149.55C674.02 1115.17 604.137 1120.24 542.144 1136.02C493.677 1148.42 439.011 1166.45 397.307 1139.4C364.62 1117.99 352.785 1074.59 356.73 1035.14C360.675 995.688 377.018 959.618 389.417 922.422C421.541 826.612 424.922 715.586 406.888 683.462V684.025Z" fill="#FFC782" stroke="black" stroke-width="20" stroke-miterlimit="10"/>
<path d="M596.811 804.067C594.557 819.284 592.866 836.191 601.32 848.59C610.9 862.116 629.498 865.498 646.405 867.189C717.415 874.515 788.425 876.206 859.435 871.134C875.215 870.007 891.559 868.316 905.084 860.426C934.953 843.518 941.716 804.067 945.098 769.688C950.733 716.148 948.479 648.518 899.448 625.411C882.541 617.521 862.816 617.521 843.655 617.521C790.116 618.648 736.013 623.72 683.037 631.61C667.257 633.864 650.914 637.246 638.516 647.39C626.117 657.535 602.447 762.362 596.248 803.504L596.811 804.067Z" fill="white" stroke="black" stroke-width="20" stroke-miterlimit="10"/>
<path d="M782.787 776.45C800.839 776.45 815.474 762.825 815.474 746.017C815.474 729.209 800.839 715.583 782.787 715.583C764.734 715.583 750.1 729.209 750.1 746.017C750.1 762.825 764.734 776.45 782.787 776.45Z" fill="black"/>
</svg>
