<svg width="1760" height="1760" viewBox="0 0 1760 1760" fill="none" xmlns="http://www.w3.org/2000/svg">
<rect width="1760" height="1760" fill="white"/>
<path d="M1351.03 454.889C1300.31 442.103 1244.9 447.217 1197.59 469.38C1189.5 473.216 1181.4 477.478 1175.86 484.298C1168.19 493.674 1165.63 506.461 1163.92 518.395C1155.83 568.261 1147.3 621.112 1114.49 659.897C1081.67 698.682 1016.03 714.452 980.659 678.224C932.924 629.21 971.281 529.05 915.022 490.691C902.662 482.167 887.319 478.757 872.402 475.774C826.799 466.397 780.343 459.151 733.887 454.463C718.544 452.758 701.071 452.332 689.99 462.987C683.171 469.807 680.186 479.609 678.055 488.986C668.679 532.46 670.811 577.638 663.992 621.964C657.173 666.29 639.699 696.977 600.489 718.288C536.985 752.811 432.565 722.55 381.421 773.695C353.718 800.973 352.014 880.674 381.421 906.673C430.008 949.294 489.676 922.017 557.016 929.689C655.894 941.196 627.766 1044.77 597.932 1104.44C578.753 1142.79 641.829 1198.63 673.367 1228.04C695.53 1248.92 718.546 1269.81 746.675 1281.31C774.804 1292.82 809.751 1292.39 832.766 1272.79C870.698 1240.82 858.34 1181.15 853.225 1131.71C846.406 1063.09 868.993 982.965 931.645 954.835C967.019 939.065 1010.49 943.753 1042.88 965.49C1075.27 987.227 1095.73 1024.73 1098.72 1063.52C1102.13 1110.83 1081.24 1156.43 1078.68 1203.74C1078.26 1213.55 1078.68 1224.2 1082.94 1233.15C1088.06 1243.81 1097.86 1251.05 1108.09 1257.02C1162.22 1291.54 1226.15 1310.72 1290.08 1312C1299.03 1312 1308.41 1312 1316.08 1307.31C1324.18 1302.62 1328.86 1293.67 1332.7 1285.15C1350.6 1245.51 1360.83 1202.46 1362.53 1158.99C1362.96 1147.06 1362.53 1134.7 1359.12 1123.19C1352.73 1103.58 1336.54 1088.67 1321.62 1073.75C1292.64 1045.19 1265.79 1012.37 1255.13 973.162C1244.48 933.951 1253.85 887.067 1286.24 862.773C1300.31 852.118 1317.78 846.577 1331.42 835.496C1354.86 816.316 1364.24 785.203 1371.48 755.794C1386.4 693.141 1397.05 629.636 1402.6 565.278C1406 528.624 1404.3 469.807 1351.03 456.168V454.889Z" fill="white" stroke="black" stroke-width="20" stroke-miterlimit="10"/>
<path d="M882.206 838.908C883.058 852.547 863.453 875.562 842.143 887.07C808.473 904.971 763.722 899.004 736.019 873.005C708.316 847.006 699.366 802.68 714.709 768.157C715.562 766.026 716.413 764.321 718.544 763.042C721.101 761.337 724.085 761.764 727.068 761.764C790.572 768.583 880.927 818.024 882.206 838.908Z" fill="#FAFCFF" stroke="black" stroke-width="20" stroke-miterlimit="10"/>
<path d="M799.541 844.739C805.012 836.223 802.384 824.782 793.67 819.183C784.957 813.585 773.458 815.949 767.987 824.465C762.516 832.981 765.145 844.422 773.858 850.021C782.572 855.619 794.07 853.254 799.541 844.739Z" fill="black"/>
</svg>
