<svg width="1760" height="1760" viewBox="0 0 1760 1760" fill="none" xmlns="http://www.w3.org/2000/svg">
<rect width="1760" height="1760" fill="white"/>
<path d="M1046.75 504.325C1062.8 466.993 1078.11 422.569 1055.71 388.598C1033.31 355.373 985.902 357.986 948.199 371.052C815.677 415.476 897.057 606.985 874.286 668.208C860.1 705.913 810.078 761.91 759.682 759.67C745.123 758.923 707.418 751.084 693.233 754.07C664.862 760.043 671.955 791.401 667.849 820.52C662.622 858.971 648.81 896.302 628.279 928.78C613.72 951.552 595.803 973.204 564.446 969.844C533.088 966.485 506.582 928.407 474.478 922.807C447.974 917.954 431.922 937.366 427.816 963.871C423.709 990.377 435.655 1017.26 451.334 1039.28C484.558 1085.94 534.955 1118.42 566.685 1166.21C601.029 1217.72 610.36 1282.68 602.521 1343.9C600.281 1360.7 597.668 1380.11 609.24 1392.81C620.066 1404.75 638.358 1404.75 654.41 1404.01C711.899 1401.02 769.014 1398.41 826.502 1395.42C836.208 1395.05 845.914 1394.3 855.247 1391.31C881.751 1381.98 896.311 1351.37 895.191 1323.37C894.071 1295.37 880.259 1269.24 865.327 1245.35C850.395 1221.46 833.596 1198.31 825.01 1171.43C808.584 1120.66 830.983 1056.08 881.379 1037.41C920.949 1022.85 967.237 1040.4 994.488 1072.51C1021.74 1104.61 1031.44 1148.66 1029.2 1190.47C1026.96 1232.28 1014.65 1272.97 1001.58 1312.92C996.355 1328.97 991.875 1349.13 1004.19 1361.08C1013.15 1369.66 1131.86 1377.13 1146.8 1371.15C1202.04 1349.88 1206.15 1112.45 1201.67 1096.77C1194.2 1071.01 1172.55 1051.97 1151.65 1035.17C1130.74 1018.38 1108.35 1000.83 1098.64 975.818C1088.93 950.806 1098.27 916.088 1124.02 908.621C1144.18 903.022 1167.7 914.967 1185.99 904.888C1204.28 894.809 1209.51 791.402 1207.64 755.937C1207.64 749.964 1206.9 743.991 1203.16 739.138C1199.81 735.031 1194.58 732.791 1189.35 731.671C1160.61 724.205 1131.12 737.271 1101.63 737.271C1027.71 737.271 975.076 670.449 1047.87 503.952L1046.75 504.325Z" fill="#FFD58C" stroke="black" stroke-width="20" stroke-miterlimit="10"/>
<path d="M975.077 835.078C936.627 777.215 861.965 811.933 847.033 858.97C822.395 936.992 917.96 944.832 951.931 931.019C997.1 912.727 990.756 858.97 975.077 835.078Z" fill="white" stroke="black" stroke-width="20" stroke-miterlimit="10"/>
<path d="M909.378 889.954C917.212 889.954 923.564 884.438 923.564 877.634C923.564 870.831 917.212 865.315 909.378 865.315C901.544 865.315 895.192 870.831 895.192 877.634C895.192 884.438 901.544 889.954 909.378 889.954Z" fill="black"/>
</svg>
