<svg width="1760" height="1760" viewBox="0 0 1760 1760" fill="none" xmlns="http://www.w3.org/2000/svg">
<rect width="1760" height="1760" fill="white"/>
<path d="M633.361 608.617C607.947 592.884 582.533 572.714 553.085 575.941C503.064 581.588 472.002 638.065 475.229 688.491C478.457 738.917 505.887 783.695 531.301 827.263C556.715 870.831 581.322 918.433 577.692 968.455C575.272 1001.53 560.749 1032.6 553.892 1065.27C547.034 1097.95 549.858 1136.27 575.272 1158.06C615.611 1192.35 678.944 1161.28 729.369 1177.42C793.509 1197.59 809.241 1279.48 849.581 1333.54C882.659 1377.51 937.118 1404.54 991.979 1404.13C1023.44 1404.13 1055.72 1394.45 1078.71 1373.07C1123.49 1332.33 1122.68 1262.14 1112.59 1202.03C1102.51 1141.92 1086.37 1078.59 1110.58 1022.92C1129.94 978.54 1171.49 948.688 1206.18 915.206C1240.87 881.723 1272.34 835.331 1262.25 788.132C1254.19 751.422 1223.93 724.798 1202.96 693.735C1123.08 574.327 1232 413.771 1158.99 358.908C1130.75 337.528 954.464 436.766 941.555 567.066C933.89 643.31 1043.61 868.41 887.096 868.41C796.332 868.41 784.231 701.4 633.764 608.213L633.361 608.617Z" fill="white" stroke="black" stroke-width="20" stroke-miterlimit="10"/>
<path d="M866.528 1029.77C824.172 1054.78 825.382 1125.78 851.603 1168.14C855.637 1175 860.881 1181.45 866.932 1186.29C875 1192.34 885.085 1195.57 895.17 1197.19C931.879 1203.64 972.218 1193.55 997.229 1165.32C1022.24 1137.08 1029.1 1091.49 1008.12 1060.03C995.212 1040.66 973.832 1028.56 951.242 1023.32C928.652 1018.07 901.624 1009.2 866.528 1029.77Z" fill="white" stroke="black" stroke-width="20" stroke-miterlimit="10"/>
<path d="M929.459 1134.25C939.485 1134.25 947.612 1125.95 947.612 1115.7C947.612 1105.45 939.485 1097.14 929.459 1097.14C919.434 1097.14 911.307 1105.45 911.307 1115.7C911.307 1125.95 919.434 1134.25 929.459 1134.25Z" fill="black"/>
</svg>
