<svg width="1760" height="1760" viewBox="0 0 1760 1760" fill="none" xmlns="http://www.w3.org/2000/svg">
<g clip-path="url(#clip0_10_428)">
<path d="M1760 0H0V1760H1760V0Z" fill="white"/>
<path d="M610.688 454.513C562.26 502.942 543.251 452.702 513.832 468.996C499.348 477.143 491.202 492.985 485.318 508.374C466.761 559.066 467.666 616.548 487.128 666.788C514.737 737.395 578.553 801.666 564.07 875.894C553.208 930.208 503.422 966.417 466.309 1008.06C413.354 1067.35 382.578 1149.72 397.966 1227.57C413.354 1305.42 481.244 1374.22 560.449 1377.39C657.758 1381.46 734.7 1296.82 785.392 1213.54C810.737 1171.9 844.682 1122.57 893.11 1128C923.435 1131.17 946.517 1156.06 961.906 1182.31C977.294 1208.56 996.756 1230.74 1016.22 1254.28C1065.1 1313.57 1160.14 1319.45 1207.21 1258.8C1250.21 1203.13 1241.61 1123.47 1271.48 1060.11C1294.11 1012.58 1336.66 977.279 1364.72 932.923C1392.78 888.567 1403.19 822.939 1363.81 787.635C1345.71 771.794 1320.82 765.457 1303.17 749.163C1277.82 726.08 1272.84 687.155 1278.27 653.209C1284.16 615.19 1302.26 383 1209.93 383C1163.31 383 1169.2 464.923 1146.11 505.205C1117.15 556.803 1050.62 583.507 993.588 566.76C914.835 543.224 884.511 436.408 809.832 402.01C757.783 378.021 671.789 392.052 609.33 454.513H610.688Z" fill="#FF82C1" stroke="black" stroke-width="20" stroke-miterlimit="10"/>
<path d="M613.862 1070.52C562.719 1055.13 523.342 1106.27 512.48 1151.53C510.67 1158.78 509.764 1166.47 510.67 1173.71C512.027 1183.22 516.553 1191.82 521.985 1199.51C541.899 1228.03 574.939 1247.49 610.242 1246.13C645.544 1244.77 679.942 1218.07 686.731 1183.67C690.804 1162.4 684.921 1140.22 673.606 1122.12C662.291 1104.01 646.449 1080.02 613.862 1070.52Z" fill="white" stroke="black" stroke-width="20" stroke-miterlimit="10"/>
<path d="M610.126 1180.3C616.842 1173.58 616.986 1162.83 610.446 1156.29C603.906 1149.75 593.159 1149.9 586.443 1156.61C579.726 1163.33 579.583 1174.08 586.123 1180.62C592.663 1187.16 603.409 1187.01 610.126 1180.3Z" fill="black"/>
</g>
<defs>
<clipPath id="clip0_10_428">
<rect width="1760" height="1760" fill="white"/>
</clipPath>
</defs>
</svg>
