<svg width="1760" height="1760" viewBox="0 0 1760 1760" fill="none" xmlns="http://www.w3.org/2000/svg">
<rect width="1760" height="1760" fill="white"/>
<path d="M602.085 529.95C576.342 521.369 549.244 538.08 527.114 554.339C498.661 576.018 470.66 598.6 444.014 622.538C408.335 654.153 373.107 690.284 360.462 736.804C348.719 781.065 360.462 831.197 392.076 864.619C425.948 901.202 478.338 917.913 509.5 957.206C534.792 989.273 542.018 1035.34 527.566 1073.73C520.34 1092.7 509.049 1109.41 500.468 1127.48C482.854 1164.96 479.241 1209.68 496.855 1247.16C514.468 1284.65 555.567 1310.84 596.666 1306.33C630.538 1302.26 658.991 1278.78 682.476 1253.49C705.961 1228.19 726.736 1200.19 755.64 1181.67C784.545 1163.16 824.74 1156.83 852.29 1177.61C878.484 1197.48 883.904 1233.61 897.453 1262.97C924.551 1322.59 991.393 1359.62 1056.88 1356.91C1122.37 1354.2 1183.34 1314.01 1216.76 1257.55C1250.18 1201.09 1256.05 1130.64 1237.98 1067.86C1228.5 1033.99 1212.24 1002.37 1202.31 968.498C1192.37 934.624 1188.76 897.138 1203.66 865.071C1219.92 831.198 1253.79 809.97 1283.15 786.485C1345.02 738.159 1396.06 669.057 1403.28 590.471C1410.51 511.885 1362.63 426.524 1285.86 408.006C1253.79 400.328 1219.92 404.393 1187.4 399.425C1139.98 391.747 1096.62 364.648 1048.75 361.487C1007.65 358.777 965.649 375.488 937.197 405.297C911.905 431.944 897.905 467.623 877.13 498.335C853.645 533.112 820.224 560.662 782.738 579.631C679.314 631.119 624.215 538.08 602.537 530.854L602.085 529.95Z" fill="#424242" stroke="black" stroke-width="20" stroke-miterlimit="10"/>
<path d="M916.422 772.484C927.261 823.069 899.26 876.814 857.258 907.526C846.87 914.752 836.031 921.527 823.385 924.237C799.9 929.657 775.061 922.43 754.737 909.784C718.606 887.202 694.218 847.457 689.702 805.454C689.702 800.938 689.25 795.97 692.412 792.808C694.67 790.55 697.38 790.098 700.541 789.195C756.092 775.194 812.094 764.806 868.549 757.58C886.162 755.322 912.357 753.967 916.422 772.484Z" fill="white" stroke="black" stroke-width="20" stroke-miterlimit="10"/>
<path d="M804.41 859.2C813.638 859.2 821.12 851.112 821.12 841.135C821.12 831.157 813.638 823.068 804.41 823.068C795.181 823.068 787.699 831.157 787.699 841.135C787.699 851.112 795.181 859.2 804.41 859.2Z" fill="black"/>
</svg>
