<svg width="1760" height="1760" viewBox="0 0 1760 1760" fill="none" xmlns="http://www.w3.org/2000/svg">
<rect width="1760" height="1760" fill="white"/>
<path d="M756.499 481.036C736.42 509.929 706.548 532.457 672.758 543.231C649.741 550.577 623.786 553.515 605.177 569.186C586.568 584.368 578.733 608.854 571.388 631.381C547.392 706.309 518.009 784.175 458.754 836.086C437.206 854.696 412.231 869.878 392.643 890.936C357.383 929.624 346.12 988.881 365.219 1037.85C375.993 1065.28 394.601 1089.27 405.865 1116.7C428.391 1173.51 415.169 1239.13 435.737 1296.92C452.877 1345.89 495.482 1385.56 545.922 1398.78C596.363 1412 652.68 1399.76 692.346 1365.97C716.342 1345.4 733.972 1317.98 755.03 1293.98C777.067 1268.51 803.021 1246.48 831.914 1228.36C868.153 1205.83 910.758 1190.65 952.873 1196.52C1063.55 1212.19 1128.68 1399.27 1241.31 1362.05C1271.19 1352.26 1288.33 1321.4 1298.61 1292.02C1347.58 1153.43 1277.55 1016.3 1277.06 985.942C1276.57 926.685 1333.38 881.141 1341.21 822.374C1347.58 774.871 1319.18 727.857 1280.98 698.474C1197.73 633.83 1152.19 679.864 1088.52 613.262C1042.49 564.779 1027.31 495.728 1000.37 434.512C986.663 404.149 967.564 373.296 936.713 361.053C903.412 348.32 864.725 361.054 837.791 383.581C810.856 406.108 788.819 435.491 757.478 480.546L756.499 481.036Z" fill="#8CFFD9" stroke="black" stroke-width="20" stroke-miterlimit="10"/>
<path d="M760.912 779.277C681.579 824.821 683.048 954.108 732.019 1031C739.855 1043.24 749.159 1054.99 760.912 1063.81C776.093 1075.07 795.192 1080.46 813.801 1083.88C882.361 1096.13 958.266 1077.03 1005.77 1026.1C1053.27 975.166 1065.51 891.423 1025.85 834.125C1001.36 798.865 961.205 776.828 919.579 767.033C877.954 757.239 827.023 741.568 760.912 779.277Z" fill="white" stroke="black" stroke-width="20" stroke-miterlimit="10"/>
<path d="M877.96 969.781C896.622 969.781 911.75 954.652 911.75 935.989C911.75 917.327 896.622 902.198 877.96 902.198C859.298 902.198 844.17 917.327 844.17 935.989C844.17 954.652 859.298 969.781 877.96 969.781Z" fill="black"/>
</svg>
