<svg width="1760" height="1760" viewBox="0 0 1760 1760" fill="none" xmlns="http://www.w3.org/2000/svg">
<rect width="1760" height="1760" fill="white"/>
<path d="M630.019 507.767C602.283 472.218 547.677 468.749 506.506 487.391C465.335 506.033 435.431 542.016 406.828 576.698C399.461 585.802 391.66 595.339 389.06 606.611C383.859 628.287 398.594 650.397 415.929 664.704C433.264 679.01 454.067 689.415 468.368 706.322C496.971 739.27 494.805 788.693 483.97 831.178C473.135 873.664 444.966 879.733 445.833 923.519C446.266 951.265 464.468 1012.83 469.235 1040.14C477.036 1085.23 475.736 1131.18 475.736 1177.13C475.736 1212.68 476.603 1249.97 493.504 1281.18C510.406 1312.39 548.11 1335.37 581.914 1323.66C598.816 1317.6 611.817 1304.59 624.819 1292.45C665.123 1255.6 717.996 1225.25 772.168 1231.76C818.106 1237.39 856.677 1268.17 895.248 1293.75C941.62 1324.97 993.626 1350.98 1049.1 1356.18C1104.57 1361.38 1165.24 1341.87 1198.18 1296.79C1253.65 1221.35 1214.65 1112.54 1243.69 1023.23C1254.52 989.849 1274.89 959.936 1293.52 930.022C1326.46 875.831 1354.63 817.739 1366.33 755.311C1378.03 692.883 1372.4 625.686 1342.06 570.195C1311.73 514.703 1254.09 472.218 1190.81 468.316C1179.98 467.882 1137.51 462.68 1119.74 518.172C1113.24 538.547 1121.47 584.068 1121.04 605.311C1118.87 735.369 1061.23 823.808 950.721 860.658C829.374 901.41 720.596 811.236 692.859 672.507C680.725 613.114 665.123 554.154 630.019 508.634V507.767Z" fill="#FCFFA6" stroke="black" stroke-width="20" stroke-miterlimit="10"/>
<path d="M942.914 973.939C894.376 1001.71 895.242 1080.7 925.146 1128C929.913 1135.38 935.547 1142.76 942.914 1147.97C952.449 1154.91 963.716 1158.38 975.418 1160.12C1017.46 1167.5 1063.83 1155.78 1092.86 1124.97C1121.9 1094.15 1129.27 1042.51 1105.43 1007.36C1090.7 985.657 1065.99 972.203 1040.42 966.561C1014.86 960.92 983.652 950.938 943.348 973.939H942.914Z" fill="white" stroke="black" stroke-width="20" stroke-miterlimit="10"/>
<path d="M1014.42 1090.25C1025.91 1090.25 1035.23 1080.92 1035.23 1069.42C1035.23 1057.91 1025.91 1048.58 1014.42 1048.58C1002.93 1048.58 993.621 1057.91 993.621 1069.42C993.621 1080.92 1002.93 1090.25 1014.42 1090.25Z" fill="black"/>
</svg>
