<svg width="1760" height="1760" viewBox="0 0 1760 1760" fill="none" xmlns="http://www.w3.org/2000/svg">
<rect width="1760" height="1760" fill="white"/>
<path d="M1026.29 511.745C1059.11 438.792 1087.56 386.996 1018.99 391.738C905.553 399.763 847.193 343.59 738.861 401.587C704.574 419.825 681.595 453.018 659.345 485.117C632.353 524.147 605.362 563.177 578.37 602.206C568.887 615.702 559.403 631.022 561.227 647.072C564.51 673.335 594.419 685.372 615.21 701.786C643.661 724.036 658.251 759.783 665.911 795.165C680.866 863.375 673.935 936.328 646.579 1000.53C630.895 1037.73 608.645 1071.65 593.69 1108.86C578.735 1146.07 571.44 1189.11 586.395 1226.31C591.136 1237.99 598.432 1248.93 609.009 1255.86C620.317 1262.79 634.542 1264.25 648.038 1262.06C687.431 1256.22 717.341 1225.22 747.98 1200.05C778.619 1174.88 820.201 1153 857.041 1168.68C888.775 1182.18 904.094 1218.29 911.754 1252.21C919.414 1286.13 923.426 1322.25 944.582 1349.6C963.913 1374.77 997.106 1388.63 1028.84 1384.62C1060.57 1380.61 1089.02 1359.09 1101.79 1329.91C1117.84 1293.07 1107.99 1250.75 1106.17 1210.63C1103.25 1150.44 1120.39 1088.07 1160.52 1043.57C1179.85 1021.68 1204.29 1004.9 1225.08 984.477C1255.72 954.201 1279.42 915.171 1283.44 872.494C1287.45 829.817 1269.94 783.492 1233.47 760.877C1180.21 727.684 1104.34 749.934 1054.01 712.364C1026.65 691.937 983.61 608.407 1026.65 512.11L1026.29 511.745Z" fill="#99E6FF" stroke="black" stroke-width="20" stroke-miterlimit="10"/>
<path d="M1006.95 840.761C1022.63 879.791 1008.04 925.751 978.864 956.026C971.569 963.321 963.544 969.887 954.426 973.9C936.553 981.56 915.762 979.371 897.889 972.076C866.155 959.309 840.987 930.858 831.869 898.029C830.774 894.746 830.045 890.734 831.869 887.816C833.328 885.992 835.516 884.898 837.705 883.803C880.016 865.201 923.057 848.786 967.192 835.29C981.052 830.913 1001.48 826.9 1006.95 840.761Z" fill="white" stroke="black" stroke-width="20" stroke-miterlimit="10"/>
<path d="M929.97 925.329C937.313 924.051 942.145 916.578 940.763 908.64C939.38 900.701 932.306 895.303 924.963 896.582C917.62 897.861 912.789 905.333 914.171 913.271C915.554 921.21 922.627 926.608 929.97 925.329Z" fill="black"/>
</svg>
