<svg width="1760" height="1760" viewBox="0 0 1760 1760" fill="none" xmlns="http://www.w3.org/2000/svg">
<path d="M1760 0H0V1760H1760V0Z" fill="white"/>
<path d="M468.575 508.467C507.861 530.69 618.179 550.532 586.433 681.488C561.036 786.649 457.861 839.032 420.956 901.732C406.274 926.733 399.131 955.701 394.369 984.671C389.21 1016.81 386.829 1050.55 397.543 1081.5C408.258 1112.45 434.051 1139.83 466.591 1143.8C502.702 1148.17 536.036 1123.96 561.036 1097.77C586.036 1071.58 608.655 1040.62 641.591 1025.15C685.639 1004.91 745.957 1022.37 764.608 1066.82C781.671 1106.9 763.417 1153.33 767.385 1196.58C772.147 1248.57 813.02 1295.79 863.814 1307.7C914.608 1319.6 972.147 1296.19 1000.32 1252.14C1030.88 1203.72 1024.93 1141.82 1026.12 1084.28C1027.31 1026.74 1042.39 960.861 1093.97 935.463C1143.97 911.256 1203.89 937.05 1247.15 971.575C1270.16 989.829 1294.77 1011.66 1324.13 1010.86C1360.64 1009.67 1386.04 974.353 1399.13 940.225C1424.53 875.541 1425.72 797.364 1386.04 740.219C1340 674.344 1250.32 649.344 1205.08 583.072C1186.04 554.897 1174.13 519.182 1145.16 501.721C1109.85 480.689 1072.94 506.483 1031.67 508.07C949.528 511.642 865.798 453.307 784.052 443.783C568.972 418.386 458.655 502.118 468.972 508.07L468.575 508.467Z" fill="#DEB0FF" stroke="black" stroke-width="20" stroke-miterlimit="10"/>
<path d="M834.453 692.994C788.421 724.344 789.215 813.235 817.787 866.411C822.152 875.142 827.707 883.078 834.453 889.031C843.183 896.57 854.295 900.539 865.009 902.92C904.692 911.254 948.342 898.158 976.12 863.236C1003.9 828.315 1010.64 770.377 987.628 731.09C973.739 706.883 950.326 691.803 926.12 685.057C901.914 678.311 872.549 667.197 834.453 692.992V692.994Z" fill="white" stroke="black" stroke-width="20" stroke-miterlimit="10"/>
<path d="M902.306 823.553C913.045 823.553 921.75 813.248 921.75 800.537C921.75 787.825 913.045 777.52 902.306 777.52C891.567 777.52 882.861 787.825 882.861 800.537C882.861 813.248 891.567 823.553 902.306 823.553Z" fill="black"/>
</svg>
