<svg width="1760" height="1760" viewBox="0 0 1760 1760" fill="none" xmlns="http://www.w3.org/2000/svg">
<g clip-path="url(#clip0_10_416)">
<path d="M1760 0H0V1760H1760V0Z" fill="white"/>
<path d="M547.236 1028.05C511.365 1016.09 467.922 1028.05 444.009 1056.74C426.87 1077.47 421.29 1105.37 417.703 1132.07C410.529 1182.29 396.979 1238.09 411.327 1286.72C425.675 1335.34 470.313 1377.59 519.336 1392.34C557.997 1404.3 600.643 1395.53 636.513 1376.4C672.384 1357.27 701.877 1328.97 729.776 1299.47C775.611 1250.85 823.438 1195.05 889.599 1186.28C944.999 1178.71 1003.59 1211.39 1026.7 1262.41C1037.86 1287.12 1041.05 1315.02 1053.01 1339.33C1081.31 1397.12 1158.23 1422.23 1218.81 1399.91C1279.39 1377.59 1320.44 1315.81 1327.22 1251.64C1333.99 1187.47 1309.28 1122.51 1269.83 1071.89C1249.9 1046.78 1226.78 1024.46 1208.05 998.153C1192.11 976.232 1179.75 951.52 1171.38 925.613C1166.2 909.67 1162.61 892.531 1166.2 876.19C1172.98 843.507 1205.26 822.383 1236.35 810.028C1267.43 797.672 1301.71 789.302 1326.02 766.185C1380.23 715.168 1353.52 589.22 1286.17 568.494C1255.88 559.327 1228.77 591.611 1201.27 607.554C1135.91 646.215 1039.86 629.475 1000 564.508C976.485 526.245 974.493 478.815 960.543 436.168C946.593 393.521 917.499 349.279 865.287 356.852C687.529 381.962 797.532 594.002 625.752 637.047C595.461 644.62 585.498 668.934 632.129 704.805C674.775 737.488 720.211 767.779 755.284 808.433C790.357 849.087 811.481 902.894 805.104 955.904C768.835 1264 616.186 1051.16 547.236 1028.05Z" fill="#FF6640" stroke="black" stroke-width="20" stroke-miterlimit="10"/>
<path d="M506.573 1145.63C466.717 1171.93 467.514 1247.26 491.826 1292.3C495.812 1299.47 500.595 1306.25 506.573 1311.43C514.146 1317.81 523.711 1321.4 533.277 1322.99C567.553 1330.16 605.815 1319 629.728 1289.51C653.642 1260.02 659.62 1210.99 639.692 1177.51C627.337 1156.79 607.409 1144.03 586.285 1138.45C565.162 1132.87 539.654 1123.7 506.573 1145.63Z" fill="white" stroke="black" stroke-width="20" stroke-miterlimit="10"/>
<path d="M540.052 1177.91C549.297 1177.91 556.792 1169.17 556.792 1158.38C556.792 1147.6 549.297 1138.85 540.052 1138.85C530.807 1138.85 523.312 1147.6 523.312 1158.38C523.312 1169.17 530.807 1177.91 540.052 1177.91Z" fill="black"/>
</g>
<defs>
<clipPath id="clip0_10_416">
<rect width="1760" height="1760" fill="white"/>
</clipPath>
</defs>
</svg>
