<svg width="1760" height="1760" viewBox="0 0 1760 1760" fill="none" xmlns="http://www.w3.org/2000/svg">
<rect width="1760" height="1760" fill="white"/>
<path d="M613.252 620.426C601.8 729.016 471.579 820.215 535.629 1014.91C551.323 1062.85 578.894 1102.72 596.285 1149.38C615.373 1201.55 621.736 1260.52 642.52 1311.42C663.304 1362.32 708.69 1405.16 750.683 1386.5C765.953 1379.71 778.678 1365.71 788.858 1349.17C818.55 1301.66 826.61 1238.46 829.579 1177.8C832.548 1117.14 832.124 1054.79 848.242 997.947C864.361 941.107 902.536 888.933 949.619 886.387C990.763 884.267 1027.24 919.049 1066.69 934.744C1104.02 949.59 1146.43 946.621 1180.79 922.443C1215.15 898.265 1240.18 851.18 1241.87 800.279C1245.69 698.899 1162.98 620.85 1157.89 519.471C1157.04 498.686 1158.31 474.508 1146.86 459.661C1126.07 432.09 1045.06 502.928 968.282 433.362C862.24 337.073 798.19 372.28 721.415 398.579C631.491 429.12 593.74 443.542 557.262 409.608C546.233 399.428 617.918 575.887 613.252 620.426Z" fill="#8CFFD9" stroke="black" stroke-width="20" stroke-miterlimit="10"/>
<path d="M664.154 893.6C630.645 919.475 631.493 994.131 651.853 1038.25C655.247 1045.46 659.064 1052.24 664.154 1056.91C670.517 1063.27 678.576 1066.67 686.635 1068.36C715.479 1075.15 747.716 1064.54 767.652 1035.28C787.588 1006.01 792.678 957.651 776.135 924.989C765.955 904.629 748.988 891.903 731.173 886.389C713.358 880.875 692.15 871.543 664.154 893.176V893.6Z" fill="white" stroke="black" stroke-width="20" stroke-miterlimit="10"/>
<path d="M713.356 1003.04C721.321 1003.04 727.778 994.304 727.778 983.528C727.778 972.751 721.321 964.015 713.356 964.015C705.391 964.015 698.935 972.751 698.935 983.528C698.935 994.304 705.391 1003.04 713.356 1003.04Z" fill="black"/>
</svg>
