<svg width="1760" height="1760" viewBox="0 0 1760 1760" fill="none" xmlns="http://www.w3.org/2000/svg">
<rect width="1760" height="1760" fill="white"/>
<path d="M655.806 477.692C632.833 474.224 610.294 482.026 600.325 502.832C590.356 523.639 589.922 547.912 581.253 569.152C564.782 609.03 523.171 631.57 485.027 651.943C446.884 672.315 381 692.688 381 750.338C381 840.064 481.56 919.821 520.137 979.205C589.056 1085.4 568.683 1120.95 550.479 1202.87C547.444 1215.44 544.41 1228.44 546.144 1241.45C547.011 1250.55 550.478 1259.22 554.379 1267.02C571.284 1299.97 604.659 1323.81 641.502 1329.01C678.345 1334.21 716.922 1320.77 742.496 1294.33C787.575 1247.08 785.407 1173.83 805.346 1111.84C820.95 1062.86 852.592 1018.65 896.37 991.342C940.149 964.034 996.064 956.231 1044.18 973.57C1074.52 984.84 1100.96 1005.65 1120.9 1031.22C1141.27 1058.09 1154.71 1089.74 1172.48 1118.35C1190.25 1146.95 1215.39 1173.83 1248.33 1182.06C1298.18 1194.63 1351.06 1156.92 1369.26 1108.81C1387.47 1060.7 1377.93 1006.08 1358.86 957.965C1339.79 909.851 1312.05 866.072 1292.11 818.391C1272.17 770.711 1260.9 716.961 1276.07 667.981C1286.04 637.205 1305.55 610.331 1318.98 580.855C1330.69 555.281 1337.19 527.54 1338.49 499.365C1339.79 471.623 1334.15 451.251 1309.88 438.247C1281.71 423.076 1247.46 430.878 1218.86 445.182C1133.9 487.661 1035.51 489.829 941.015 491.563C856.493 492.863 811.847 499.798 654.939 477.692H655.806Z" fill="#B7ABFF" stroke="black" stroke-width="20" stroke-miterlimit="10"/>
<path d="M569.114 834.862C568.247 844.398 567.381 855.234 571.282 863.037C575.616 871.706 583.852 873.873 591.221 874.74C622.862 879.508 654.937 880.375 686.579 876.908C693.514 876.041 700.883 875.174 706.951 870.406C720.388 859.57 723.422 834.862 724.722 813.189C727.323 779.379 726.456 736.466 704.351 722.162C696.549 716.961 687.879 716.961 679.211 717.394C654.937 718.261 631.098 721.296 607.258 726.497C600.323 728.231 592.954 729.965 587.319 736.466C581.684 742.968 571.282 808.854 568.681 834.862H569.114Z" fill="white" stroke="black" stroke-width="20" stroke-miterlimit="10"/>
<path d="M652.335 817.089C660.474 817.089 667.072 808.55 667.072 798.017C667.072 787.483 660.474 778.945 652.335 778.945C644.196 778.945 637.598 787.483 637.598 798.017C637.598 808.55 644.196 817.089 652.335 817.089Z" fill="black"/>
</svg>
