<svg width="1760" height="1760" viewBox="0 0 1760 1760" fill="none" xmlns="http://www.w3.org/2000/svg">
<g clip-path="url(#clip0_10_452)">
<path d="M1760 0H0V1760H1760V0Z" fill="white"/>
<path d="M704.105 699.931C666.571 715.957 616.385 694.87 586.442 722.283C568.308 738.731 565.356 765.723 559.451 789.762C541.739 861.457 487.336 927.67 501.253 999.788C511.374 1052.51 556.078 1091.73 578.429 1140.65C594.877 1176.5 599.094 1216.14 601.203 1255.36C602.89 1292.9 603.733 1332.96 625.241 1364.17C642.532 1389.48 673.318 1404.66 703.683 1403.81C734.047 1402.97 763.99 1385.68 780.015 1359.95C801.945 1324.11 797.307 1279.4 802.368 1237.65C807.428 1193.37 826.406 1148.24 862.253 1121.67C898.1 1095.1 953.346 1092.15 985.819 1122.94C1014.5 1149.93 1019.14 1193.79 1016.18 1233.01C1013.23 1271.39 1006.06 1314.41 1029.26 1345.19C1049.92 1372.18 1086.61 1379.78 1120.77 1382.73C1144.39 1384.84 1169.69 1385.26 1189.51 1373.03C1216.93 1356.16 1226.2 1321.15 1231.69 1289.52C1246.03 1205.6 1251.09 1119.98 1256.15 1034.79C1262.05 936.105 1267.53 836.575 1251.09 739.153C1246.87 713.427 1238.86 685.592 1216.93 671.674C1203.01 663.24 1186.14 661.553 1170.11 661.131C1134.27 660.287 1098.42 663.661 1063 659.022C1027.57 654.383 1002.69 659.023 981.602 622.753C950.395 568.77 988.35 387 889.244 387C796.042 387 786.764 518.583 770.738 618.535C764.834 655.227 731.939 688.122 704.105 699.931Z" fill="#FF82C1" stroke="black" stroke-width="20" stroke-miterlimit="10"/>
<path d="M761.044 1060.52C712.545 1063.47 667.42 1029.73 645.49 986.292C640.008 975.749 635.791 964.361 634.947 952.553C633.26 930.201 643.381 908.27 658.142 891.401C684.289 861.457 724.354 844.588 763.996 846.696C768.213 846.696 772.852 847.539 774.961 850.913C776.648 853.022 777.07 855.974 777.07 858.926C781.709 912.066 783.395 965.627 782.13 1018.77C781.708 1035.64 778.756 1059.25 761.044 1060.52Z" fill="white" stroke="black" stroke-width="20" stroke-miterlimit="10"/>
<path d="M730.299 949.323C731.64 940.809 725.266 932.733 716.063 931.283C706.859 929.834 698.312 935.56 696.971 944.074C695.631 952.587 702.004 960.663 711.207 962.112C720.411 963.562 728.958 957.836 730.299 949.323Z" fill="black"/>
</g>
<defs>
<clipPath id="clip0_10_452">
<rect width="1760" height="1760" fill="white"/>
</clipPath>
</defs>
</svg>
