<svg width="1760" height="1760" viewBox="0 0 1760 1760" fill="none" xmlns="http://www.w3.org/2000/svg">
<g clip-path="url(#clip0_10_446)">
<path d="M1760 0H0V1760H1760V0Z" fill="white"/>
<path d="M632.943 657.746C612.209 632.539 543.502 554.073 493.902 587.817C452.434 615.87 460.972 881.355 452.028 976.897C447.149 1029.75 443.896 1088.7 477.64 1129.77C495.528 1151.72 521.954 1165.14 545.534 1180.59C580.498 1203.35 611.802 1231.81 637.822 1264.74C660.588 1294.02 679.29 1326.54 704.496 1353.37C764.666 1417.61 863.051 1443.63 947.208 1417.2C1015.51 1395.66 1070.39 1344.84 1134.22 1312.72C1169.59 1294.83 1207.4 1282.63 1240.74 1261.49C1297.66 1224.9 1348.88 1183.43 1353.76 1103.34C1358.64 1023.25 1380.19 975.271 1337.9 922.418C1316.76 895.991 1243.99 856.962 1226.1 828.502C1181.38 758.167 1193.17 683.359 1214.31 607.332C1232.2 542.689 1267.98 488.209 1237.89 452.838C1212.69 423.566 1207.81 444.3 1128.53 410.962C1057.38 381.283 1011.85 409.336 975.26 467.474C935.418 529.679 920.782 696.369 865.491 738.245C744.338 830.535 700.837 739.872 633.349 657.746H632.943Z" fill="#8CFFD9" stroke="black" stroke-width="20" stroke-miterlimit="10"/>
<path d="M1137.88 976.898C1088.69 924.451 965.503 933.803 889.478 960.636C877.281 965.108 865.491 969.986 856.954 976.898C845.977 985.436 840.285 995.6 837.032 1006.17C825.242 1043.98 843.944 1085.86 893.95 1112.28C943.956 1138.71 1026.89 1145.22 1083.4 1123.67C1118.37 1110.25 1139.91 1087.89 1149.26 1064.72C1158.62 1041.54 1168.78 1010.24 1137.88 976.898Z" fill="white" stroke="black" stroke-width="20" stroke-miterlimit="10"/>
<path d="M983.792 1060.25C1002.2 1060.25 1017.13 1051.87 1017.13 1041.54C1017.13 1031.21 1002.2 1022.84 983.792 1022.84C965.38 1022.84 950.455 1031.21 950.455 1041.54C950.455 1051.87 965.38 1060.25 983.792 1060.25Z" fill="black"/>
</g>
<defs>
<clipPath id="clip0_10_446">
<rect width="1760" height="1760" fill="white"/>
</clipPath>
</defs>
</svg>
