<svg width="1760" height="1760" viewBox="0 0 1760 1760" fill="none" xmlns="http://www.w3.org/2000/svg">
<g clip-path="url(#clip0_10_440)">
<path d="M1760 0H0V1760H1760V0Z" fill="white"/>
<path d="M770.66 593.979C793.583 560.289 811.99 523.473 825.536 484.92C834.219 460.607 840.47 432.474 827.967 409.55C818.589 392.532 800.529 382.112 782.121 374.818C735.234 356.062 682.442 351.895 633.123 363.356C620.272 366.482 606.38 371.345 599.781 382.806C594.224 392.531 594.919 404.688 596.655 415.802C609.159 492.213 653.962 566.541 637.638 642.258C629.65 679.421 607.074 712.07 589.361 745.76C557.061 806.542 539.001 874.965 536.222 943.735C535.528 961.449 536.222 979.857 541.779 996.528C559.493 1049.67 620.967 1073.29 656.046 1116.7C666.118 1128.86 674.106 1143.1 677.927 1158.38C685.22 1186.17 680.011 1215.34 677.58 1243.82C673.065 1293.49 681.4 1350.8 721.688 1379.97C746.695 1398.04 779.343 1401.86 810.254 1403.24C848.458 1404.63 891.178 1401.16 916.532 1372.68C954.042 1330.31 931.467 1259.45 962.03 1211.87C981.133 1181.65 1018.64 1167.41 1054.07 1164.98C1127.35 1159.77 1181.88 1179.22 1187.79 1120.52C1199.25 1005.56 1195.08 889.9 1195.77 876.354C1202.37 763.474 1062.75 818.699 1024.55 781.535C1018.3 775.63 1013.43 768.684 1006.14 764.169C993.636 756.528 976.965 758.264 963.42 764.169C949.875 770.073 937.719 779.103 924.868 786.05C888.052 806.195 841.512 808.973 803.655 790.912C765.797 772.851 738.012 733.951 735.928 691.925C734.192 657.887 749.474 625.586 770.313 594.674L770.66 593.979Z" fill="#FF3B83" stroke="black" stroke-width="20" stroke-miterlimit="10"/>
<path d="M692.169 1019.45C664.384 1008.34 648.06 977.423 647.365 947.206C647.365 939.912 647.712 932.272 650.491 925.325C655.353 912.127 667.162 902.401 679.666 896.844C702.241 886.772 729.332 887.466 750.865 898.928C752.949 899.97 755.38 901.707 756.075 904.138C756.075 905.875 756.075 907.612 755.38 909.001C743.919 940.26 730.721 970.825 715.439 1000.7C710.577 1010.07 702.241 1023.61 692.169 1019.45Z" fill="white" stroke="black" stroke-width="20" stroke-miterlimit="10"/>
<path d="M704.706 948.745C707.819 944.135 706.476 937.787 701.707 934.567C696.938 931.346 690.549 932.473 687.436 937.083C684.323 941.693 685.665 948.041 690.434 951.262C695.203 954.482 701.593 953.356 704.706 948.745Z" fill="black"/>
</g>
<defs>
<clipPath id="clip0_10_440">
<rect width="1760" height="1760" fill="white"/>
</clipPath>
</defs>
</svg>
