<svg width="1760" height="1760" viewBox="0 0 1760 1760" fill="none" xmlns="http://www.w3.org/2000/svg">
<rect width="1760" height="1760" fill="white"/>
<path d="M711.697 729.173C687.549 729.173 663.401 736.719 655.1 758.981C646.799 781.243 650.573 806.147 653.591 830.295C660.76 888.78 661.515 948.02 655.855 1006.5C652.082 1045.75 643.026 1088.38 612.841 1113.29C584.166 1137.06 544.17 1138.95 507.194 1142.72C470.217 1146.49 429.09 1155.55 408.715 1186.49C396.641 1204.6 394 1227.62 394 1249.5C394 1273.65 397.019 1298.93 411.357 1318.17C437.014 1352.13 486.064 1354.02 528.323 1353.26C637.367 1351 746.41 1348.74 855.453 1346.47C901.485 1345.34 947.895 1344.59 993.927 1340.06C1110.14 1328.36 1217.67 1289.12 1245.97 1271.39C1305.59 1234.03 1310.87 1200.83 1303.32 1149.51C1288.99 1049.9 1203.71 1040.46 1170.51 984.62C1152.4 954.057 1168.62 905.76 1194.66 881.611C1224.84 853.689 1270.5 809.543 1272.76 768.415C1274.65 735.965 1247.48 734.833 1218.05 720.494C1188.62 706.156 1155.79 695.969 1135.04 671.065C1102.97 631.824 1114.67 574.471 1127.5 525.419C1140.32 476.367 1149.76 417.882 1115.04 380.904C1083.35 346.945 1025.24 349.586 987.89 377.508C950.536 405.43 932.048 451.841 924.124 497.497C916.201 543.153 918.087 589.941 913.182 636.352C910.164 665.405 902.617 697.101 878.469 712.948C865.263 722.004 801.875 729.173 711.697 729.173Z" fill="#FFF570" stroke="black" stroke-width="20" stroke-miterlimit="10"/>
<path d="M777.727 1001.98C775.84 1013.67 774.331 1026.88 781.5 1036.69C789.046 1047.26 803.384 1049.9 816.59 1051.41C871.677 1057.44 927.52 1058.2 982.608 1054.43C994.682 1053.67 1007.51 1052.16 1018.07 1046.12C1041.47 1032.54 1046.75 1001.98 1049.39 975.188C1053.54 933.305 1052.41 880.48 1013.92 862.368C1000.72 856.331 985.249 855.954 970.533 856.331C928.652 857.086 886.77 860.859 845.266 867.274C832.815 869.16 819.985 871.801 810.553 879.725C801.12 887.649 782.632 969.528 777.727 1001.6V1001.98Z" fill="white" stroke="black" stroke-width="20" stroke-miterlimit="10"/>
<path d="M922.991 979.715C936.953 979.715 948.271 969.241 948.271 956.321C948.271 943.4 936.953 932.927 922.991 932.927C909.029 932.927 897.711 943.4 897.711 956.321C897.711 969.241 909.029 979.715 922.991 979.715Z" fill="black"/>
</svg>
