<svg width="1760" height="1760" viewBox="0 0 1760 1760" fill="none" xmlns="http://www.w3.org/2000/svg">
<rect width="1760" height="1760" fill="white"/>
<path d="M706.308 876.845C663.68 855.083 605.55 870.286 579.317 910.233C563.517 934.082 559.046 963.595 545.333 988.636C533.707 1009.8 516.119 1026.5 501.512 1045.87C486.905 1065.25 475.279 1088.5 478.558 1112.05C485.414 1163.03 551.295 1183.3 573.057 1229.81C580.807 1246.5 586.173 1264.69 587.068 1283.17C588.558 1320.13 604.953 1329.67 624.628 1344.28C644.303 1358.89 672.027 1363.36 693.49 1351.73C715.251 1339.81 725.685 1314.77 741.782 1295.69C773.679 1258.13 832.107 1246.2 876.226 1268.56C929.884 1295.69 969.83 1370.51 1029.75 1374.99C1085.79 1379.16 1122.16 1353.52 1153.16 1330.87C1190.72 1303.44 1179.1 1251.57 1184.46 1205.36C1194.6 1121 1185.65 1032.46 1147.2 956.738C1119.18 901.29 1076.25 854.487 1032.73 809.77C998.745 775.19 962.974 739.416 947.771 693.507C924.519 624.048 944.491 565.023 971.32 496.755C998.149 428.488 984.139 371.549 946.876 350.682C909.614 329.814 858.638 329.814 829.424 359.625C775.17 415.073 789.18 482.744 799.912 540.876C807.066 579.332 823.164 615.403 835.386 652.667C851.185 701.258 848.503 829.446 792.162 873.566C761.159 897.713 735.522 892.048 706.606 877.143L706.308 876.845Z" fill="#FFE0F6" stroke="black" stroke-width="20" stroke-miterlimit="10"/>
<path d="M905.446 964.19C871.462 984.462 872.058 1042.29 892.925 1076.88C896.204 1082.54 900.378 1087.61 905.446 1091.48C912.004 1096.55 920.053 1098.94 928.102 1100.43C957.614 1105.79 990.106 1097.45 1010.38 1074.49C1030.65 1051.54 1036.01 1014.27 1019.02 988.636C1008.59 972.836 991.299 962.998 973.413 958.825C955.527 954.651 933.467 947.496 905.446 964.19Z" fill="white" stroke="black" stroke-width="20" stroke-miterlimit="10"/>
<path d="M955.823 1049.45C963.891 1049.45 970.43 1042.64 970.43 1034.25C970.43 1025.85 963.891 1019.04 955.823 1019.04C947.756 1019.04 941.217 1025.85 941.217 1034.25C941.217 1042.64 947.756 1049.45 955.823 1049.45Z" fill="black"/>
</svg>
