<svg width="1760" height="1760" viewBox="0 0 1760 1760" fill="none" xmlns="http://www.w3.org/2000/svg">
<rect width="1760" height="1760" fill="white"/>
<path d="M842.274 335.325C807.16 331.514 775.584 358.464 758.162 388.952C740.741 419.44 732.847 454.828 716.515 486.132C700.182 517.437 671.6 546.564 636.213 546.836C625.597 546.836 614.437 544.658 605.182 549.286C586.672 558.269 588.577 584.674 591.027 605.363C596.471 651.639 589.938 699.549 571.973 742.831C563.534 762.975 553.734 788.291 568.978 803.807C573.605 808.435 579.594 811.157 585.583 813.879C613.62 826.673 641.658 841.1 662.89 863.15C684.122 885.199 698.004 916.776 692.288 946.992C683.577 993.541 635.397 1020.22 606.271 1057.78C576.328 1096.17 568.162 1156.05 601.099 1191.99C632.947 1226.83 690.655 1228.19 721.414 1264.39C738.836 1284.81 747.546 1303.32 755.44 1328.91C763.334 1354.5 750.54 1383.9 781.572 1398.05C812.604 1412.21 851.802 1396.96 868.679 1377.36C885.556 1357.76 893.722 1332.18 899.166 1306.86C911.143 1252.69 916.043 1192.26 955.24 1152.79C1008.05 1099.7 1103.32 1106.24 1152.05 1049.07C1185.8 1009.33 1183.62 944.27 1147.15 906.976C1126.46 885.743 1095.97 871.861 1084.81 844.367C1073.38 815.512 1087.53 782.846 1106.04 758.075C1124.55 733.303 1147.96 710.71 1157.49 681.31C1167.02 651.911 1165.39 627.412 1136.8 612.712C1112.58 600.462 1068.48 624.962 1033.91 637.484C989.539 653.544 954.424 657.355 915.498 630.95C884.739 609.99 865.956 584.13 875.211 548.197C905.971 425.701 892.633 402.562 886.372 381.874C880.928 363.908 870.039 338.864 842.002 335.87L842.274 335.325Z" fill="#B0FCA4" stroke="black" stroke-width="20" stroke-miterlimit="10"/>
<path d="M807.16 737.66C754.624 784.481 763.879 901.806 791.1 974.487C795.455 986.192 800.627 997.08 807.16 1005.25C815.598 1015.86 826.215 1021.04 836.559 1024.03C874.668 1035.46 916.859 1017.5 943.264 969.859C969.668 922.222 976.473 843.007 954.424 789.381C940.814 756.171 918.493 735.482 895.356 726.499C872.218 717.516 840.641 708.261 807.16 737.66Z" fill="white" stroke="black" stroke-width="20" stroke-miterlimit="10"/>
<path d="M872.216 916.232C882.589 916.232 890.998 902.095 890.998 884.655C890.998 867.216 882.589 853.078 872.216 853.078C861.843 853.078 853.434 867.216 853.434 884.655C853.434 902.095 861.843 916.232 872.216 916.232Z" fill="black"/>
</svg>
