<svg width="1760" height="1760" viewBox="0 0 1760 1760" fill="none" xmlns="http://www.w3.org/2000/svg">
<g clip-path="url(#clip0_10_434)">
<path d="M1760 0H0V1760H1760V0Z" fill="white"/>
<path d="M603.228 616.619C586.269 665.377 531.153 700.144 530.729 751.447C530.729 792.997 559.558 829.036 589.661 857.867C619.763 886.698 653.257 915.954 665.128 955.809C677.848 996.935 664.704 1042.3 640.961 1077.92C617.219 1113.53 584.573 1142.36 552.775 1171.19C534.968 1187.73 516.313 1205.96 511.225 1229.7C508.681 1242.42 510.377 1255.99 513.769 1268.29C525.216 1311.11 559.559 1349.69 603.653 1356.9C658.345 1365.8 709.221 1327.22 745.683 1285.25C767.306 1260.23 787.233 1233.1 803.768 1204.26C820.727 1175.43 835.143 1144.91 858.038 1120.74C880.933 1096.57 914.426 1079.19 947.072 1086.4C984.382 1094.45 1008.55 1131.76 1018.3 1169.07C1028.05 1206.38 1027.2 1245.39 1037.38 1282.28C1047.55 1319.17 1072.15 1356.48 1109.46 1363.68C1123.45 1366.65 1137.86 1364.96 1151.85 1361.14C1205.27 1346.3 1246.4 1294.57 1249.79 1239.46C1252.76 1185.18 1223.5 1135.58 1199.76 1086.82C1179.84 1046.97 1163.3 1005.41 1149.73 962.592C1135.32 916.801 1124.29 867.195 1135.74 820.557C1145.49 781.55 1169.66 747.631 1179.41 708.624C1184.5 688.697 1185.35 667.073 1175.6 649.266C1161.18 622.978 1130.65 620.011 1100.55 617.467C1049.67 613.227 960.216 648.842 953.433 522.07C951.737 492.39 961.912 463.56 965.304 434.305C968.696 405.05 959.368 369.435 931.809 358.835C916.97 353.323 899.587 356.291 885.596 363.923C842.351 387.666 847.014 522.918 765.61 553.869C717.701 572.1 643.506 501.719 603.228 616.619Z" fill="#63B6FF" stroke="black" stroke-width="20" stroke-miterlimit="10"/>
<path d="M984.376 776.464C994.551 823.95 968.266 874.405 928.836 903.236C919.085 910.02 908.908 916.379 897.037 918.923C874.99 924.011 851.673 917.228 832.594 905.356C798.676 884.157 775.78 846.846 771.54 807.415C771.54 803.175 771.116 798.512 774.084 795.544C776.204 793.424 778.749 793 781.716 792.152C833.866 779.008 886.438 769.256 939.435 762.472C955.97 760.352 980.56 759.08 984.376 776.464Z" fill="white" stroke="black" stroke-width="20" stroke-miterlimit="10"/>
<path d="M879.225 857.868C887.889 857.868 894.912 850.275 894.912 840.908C894.912 831.542 887.889 823.949 879.225 823.949C870.562 823.949 863.537 831.542 863.537 840.908C863.537 850.275 870.562 857.868 879.225 857.868Z" fill="black"/>
</g>
<defs>
<clipPath id="clip0_10_434">
<rect width="1760" height="1760" fill="white"/>
</clipPath>
</defs>
</svg>
