<svg width="1760" height="1760" viewBox="0 0 1760 1760" fill="none" xmlns="http://www.w3.org/2000/svg">
<rect width="1760" height="1760" fill="white"/>
<path d="M580.372 405.771C544.453 426.567 529.707 479.501 524.792 520.714C519.877 561.928 550.124 582.724 531.598 619.778C523.279 636.793 480.177 647.758 488.873 704.095C496.057 749.089 511.936 780.85 488.873 820.551C450.685 886.341 470.346 962.718 488.873 1016.79C524.792 1122.28 652.21 1429.3 945.232 1363.13C983.798 1354.43 1194.02 1323.81 1262.07 1102.99C1371.34 748.333 1160.75 548.695 1098.74 594.445C1065.09 619.022 1102.9 669.309 1068.49 744.174C962.246 972.549 685.859 869.705 658.636 761.567C628.389 642.086 707.79 586.883 738.793 537.351C782.274 467.024 696.068 338.847 581.128 405.771H580.372Z" fill="url(#paint0_linear_64_7919)" stroke="black" stroke-width="20" stroke-miterlimit="10"/>
<path d="M1017.45 1081.44C1025.39 1052.33 1031.82 1017.54 1011.4 995.613C998.544 981.623 978.505 977.085 959.6 975.195C935.78 972.548 910.825 972.548 888.14 980.488C865.454 988.428 845.037 1005.44 837.475 1028.51C829.535 1053.08 837.476 1079.55 847.306 1103.37C865.077 1147.23 890.031 1189.96 927.84 1218.69C931.999 1221.72 936.536 1224.74 941.451 1225.88C952.794 1228.52 964.514 1220.58 970.564 1210.75C976.613 1200.92 1008.37 1115.09 1017.45 1081.44Z" fill="white" stroke="black" stroke-width="20" stroke-miterlimit="10"/>
<path d="M930.582 1085.11C943.73 1084.69 954.098 1075.21 953.74 1063.94C953.382 1052.67 942.433 1043.87 929.285 1044.29C916.136 1044.71 905.767 1054.19 906.125 1065.46C906.483 1076.73 917.433 1085.53 930.582 1085.11Z" fill="#030005"/>
<defs>
<linearGradient id="paint0_linear_64_7919" x1="466.943" y1="879.535" x2="1302.53" y2="879.535" gradientUnits="userSpaceOnUse">
<stop stop-color="#EEFF82"/>
<stop offset="0.07" stop-color="#EAFF8A"/>
<stop offset="0.17" stop-color="#E0FFA0"/>
<stop offset="0.3" stop-color="#D0FFC4"/>
<stop offset="0.37" stop-color="#C7FFDB"/>
<stop offset="0.71" stop-color="#91ADFF"/>
<stop offset="1" stop-color="#CFADFF"/>
</linearGradient>
</defs>
</svg>
