<svg width="1760" height="1760" viewBox="0 0 1760 1760" fill="none" xmlns="http://www.w3.org/2000/svg">
<rect width="1760" height="1760" fill="white"/>
<path d="M418.684 754.286C411.481 731.073 405.477 705.859 414.682 683.846C421.086 668.638 434.293 657.031 445.499 644.624C469.112 617.809 483.92 583.79 487.522 548.17C488.722 535.362 489.122 521.354 496.326 510.548C515.136 482.933 557.559 498.942 590.777 501.743C696.834 509.748 757.667 352.459 863.724 356.061C877.732 356.461 892.14 360.463 902.545 369.669C915.352 380.875 920.155 398.085 925.758 414.494C936.163 445.712 950.171 476.529 973.383 500.142C996.596 523.756 1029.41 538.964 1062.23 534.162C1102.25 528.558 1141.87 494.139 1178.69 510.948C1197.5 519.753 1208.31 539.765 1217.52 558.175C1274.75 671.839 1359.19 787.505 1349.19 914.377C1339.18 1041.25 1339.18 1134.1 1256.74 1237.36C1179.89 1333.81 1035.82 1375.84 881.734 1387.44C789.684 1394.25 709.241 1414.66 609.587 1368.23C555.558 1343.02 532.346 1303.4 522.34 1244.56C512.335 1185.73 517.138 1125.7 517.138 1065.66C517.138 943.593 438.295 819.523 418.284 754.286H418.684Z" fill="#FF82C1" stroke="black" stroke-width="20" stroke-miterlimit="10"/>
<path d="M738.06 965.606C736.059 978.013 734.458 992.021 742.062 1002.43C750.066 1013.63 765.275 1016.44 779.282 1018.04C837.714 1024.44 896.946 1025.24 955.377 1021.24C968.184 1020.44 981.791 1018.84 992.997 1012.43C1017.81 998.025 1023.41 965.606 1026.22 937.19C1030.62 892.765 1029.42 836.734 988.595 817.523C974.587 811.119 958.179 810.719 942.57 811.119C898.146 811.92 853.722 815.922 809.699 822.726C796.491 824.727 782.884 827.528 772.879 835.933C762.873 844.338 743.263 931.187 738.06 965.206V965.606Z" fill="white" stroke="black" stroke-width="20" stroke-miterlimit="10"/>
<path d="M898.146 876.757C912.955 876.757 924.96 865.647 924.96 851.943C924.96 838.238 912.955 827.129 898.146 827.129C883.336 827.129 871.331 838.238 871.331 851.943C871.331 865.647 883.336 876.757 898.146 876.757Z" fill="black"/>
</svg>
