<svg width="1760" height="1760" viewBox="0 0 1760 1760" fill="none" xmlns="http://www.w3.org/2000/svg">
<rect width="1760" height="1760" fill="white"/>
<path d="M721.071 704.961C599.822 710.663 541.668 684.816 516.202 728.148C488.835 774.52 525.704 806.069 530.645 915.539C537.107 1052.76 492.635 1095.71 465.649 1184.27C448.925 1240.15 439.043 1307.81 478.573 1350.76C501.759 1375.84 540.147 1386.11 572.835 1376.22C626.428 1359.88 653.035 1300.2 696.366 1264.85C746.918 1223.8 824.457 1218.86 879.571 1253.83C920.621 1279.68 948.748 1323.77 992.839 1343.54C1048.71 1368.24 1119.03 1343.54 1154 1293.74C1188.97 1243.95 1190.11 1174.77 1163.5 1119.65C1143.74 1078.6 1110.67 1044.77 1095.46 1002.2C1079.5 957.731 1084.44 908.317 1098.88 863.085C1113.33 817.852 1135.75 776.421 1155.9 733.469C1197.33 644.525 1227.36 545.318 1207.97 449.152C1200.37 411.142 1180.98 370.471 1144.12 359.068C1107.25 347.665 1067.72 369.711 1041.11 397.838C968.513 473.859 950.268 594.351 866.267 657.448C827.118 687.097 778.086 701.921 720.692 704.582L721.071 704.961Z" fill="#63B6FF" stroke="black" stroke-width="20" stroke-miterlimit="10"/>
<path d="M955.974 1130.3C949.133 1134.86 941.53 1140.18 938.489 1147.4C935.448 1155 938.489 1162.23 942.29 1167.93C957.494 1192.63 975.739 1215.06 996.264 1235.59C1000.83 1240.15 1005.77 1244.71 1012.61 1245.85C1027.43 1249.27 1045.68 1237.49 1060.88 1226.46C1084.83 1209.36 1112.19 1185.03 1109.15 1161.85C1108.01 1153.86 1103.07 1147.4 1097.75 1141.7C1083.3 1125.36 1067.34 1110.53 1049.86 1096.85C1044.54 1092.67 1039.21 1088.87 1031.61 1088.49C1024.01 1088.11 974.218 1117.37 955.594 1129.92L955.974 1130.3Z" fill="white" stroke="black" stroke-width="20" stroke-miterlimit="10"/>
<path d="M1037.66 1178.59C1044.57 1172.79 1046.34 1163.52 1041.62 1157.9C1036.89 1152.27 1027.46 1152.42 1020.55 1158.22C1013.64 1164.03 1011.86 1173.29 1016.59 1178.92C1021.32 1184.55 1030.75 1184.4 1037.66 1178.59Z" fill="black"/>
</svg>
