<svg width="1760" height="1760" viewBox="0 0 1760 1760" fill="none" xmlns="http://www.w3.org/2000/svg">
<rect width="1760" height="1760" fill="white"/>
<path d="M880.614 356.298C850.883 358.18 823.787 373.61 816.637 402.588C809.486 431.566 816.261 461.674 815.884 491.029C815.884 521.513 807.228 552.749 788.412 577.211C769.595 601.673 739.865 617.856 709.382 616.727C679.275 615.598 647.663 598.663 621.32 612.587C604.385 621.243 594.976 640.06 587.074 657.372C569.386 696.135 551.698 734.898 534.01 773.662C508.42 829.737 482.453 886.564 470.41 947.156C464.013 979.521 461.755 1013.39 472.293 1044.63C485.088 1081.89 514.818 1110.86 533.258 1145.49C552.075 1180.49 559.226 1221.51 553.581 1260.65C548.688 1294.52 534.764 1328.39 541.914 1361.89C548.312 1391.24 570.892 1415.33 597.235 1430C628.094 1447.31 665.351 1453.71 699.598 1445.06C733.844 1436.4 764.327 1411.19 777.122 1378.44C798.573 1322.75 769.595 1262.15 747.015 1206.83C728.198 1159.79 713.898 1107.48 728.952 1058.93C744.005 1010.38 798.197 971.618 845.238 989.306C881.366 1003.23 900.935 1044.25 903.946 1082.64C906.957 1121.03 897.925 1159.79 895.667 1198.55C893.409 1237.32 899.429 1279.84 926.902 1307.31C953.998 1334.41 995.394 1340.81 1033.78 1339.68C1054.1 1338.93 1074.8 1336.67 1093.24 1327.64C1111.68 1318.61 1126.73 1301.67 1129.75 1281.72C1132.38 1263.66 1124.85 1245.97 1118.08 1229.04C1096.63 1175.6 1081.2 1118.02 1086.84 1060.81C1089.1 1039.36 1094.75 1016.78 1110.55 1002.1C1126.36 987.424 1154.58 984.413 1168.51 1000.97C1175.28 1008.88 1177.54 1019.79 1181.68 1029.57C1195.6 1061.56 1233.24 1081.13 1267.86 1074.74C1302.48 1068.34 1330.71 1038.61 1336.73 1003.98C1342.75 969.36 1326.94 932.478 1298.72 911.779C1256.57 880.543 1194.85 885.059 1156.09 850.059C1138.78 834.253 1127.86 810.92 1130.5 787.963C1133.13 765.006 1150.44 743.178 1173.02 738.285C1183.18 736.027 1193.72 737.533 1203.88 734.522C1236.62 724.737 1240.76 680.705 1238.88 646.835C1238.13 634.039 1236.25 619.361 1224.96 612.587C1219.69 609.577 1213.67 609.2 1207.65 608.824C1150.44 607.318 1086.09 629.899 1040.93 594.899C1000.29 563.286 1000.29 502.695 1007.06 451.513C1008.94 436.459 1011.2 420.653 1006.68 406.352C1000.29 386.406 973.567 350.653 880.989 356.674L880.614 356.298Z" fill="#ABCDFF" stroke="black" stroke-width="20" stroke-miterlimit="10"/>
<path d="M798.575 746.188C791.801 750.704 784.275 755.972 781.264 763.123C778.253 770.65 781.264 777.8 785.028 783.445C800.081 807.907 818.144 830.112 838.466 850.434C842.982 854.95 847.875 859.466 854.649 860.595C869.326 863.983 887.39 852.316 902.443 841.402C926.152 824.467 953.248 800.381 950.237 777.424C949.108 769.521 944.216 763.123 938.947 757.477C924.647 741.295 908.84 726.618 891.529 713.069C886.26 708.93 880.993 705.166 873.466 704.79C865.939 704.413 816.64 733.392 798.199 745.811L798.575 746.188Z" fill="white" stroke="black" stroke-width="20" stroke-miterlimit="10"/>
<path d="M879.155 794.355C885.998 788.607 887.753 779.43 883.074 773.86C878.395 768.29 869.054 768.435 862.211 774.183C855.368 779.932 853.613 789.107 858.292 794.677C862.971 800.248 872.311 800.104 879.155 794.355Z" fill="black"/>
</svg>
