<svg width="1760" height="1760" viewBox="0 0 1760 1760" fill="none" xmlns="http://www.w3.org/2000/svg">
<rect width="1760" height="1760" fill="white"/>
<path d="M810.36 359.216C775.425 363.196 762.158 406.533 761.273 441.911C760.389 477.289 761.273 518.417 733.414 539.201C711.303 555.563 680.791 550.699 653.374 548.045C625.956 545.392 593.233 548.045 579.082 571.925C564.047 596.69 578.198 632.068 561.394 655.948C546.801 676.732 516.288 677.617 492.851 687.788C452.167 705.919 434.922 762.524 457.917 800.997C494.178 860.697 586.599 849.2 641.876 891.653C675.042 917.302 690.962 962.851 681.233 1003.54C671.504 1044.22 636.57 1077.39 595.444 1085.35C576.429 1088.88 555.203 1086.67 540.168 1074.73C513.635 1053.06 514.519 1007.96 486.218 988.499C460.127 970.811 422.097 985.846 405.735 1012.82C389.373 1039.8 388.489 1072.96 391.142 1103.92C396.007 1168.04 411.042 1231.28 435.364 1290.54C445.977 1316.63 460.128 1344.05 485.334 1357.31C502.138 1366.16 521.152 1367.49 540.168 1368.81C603.846 1372.79 667.525 1377.21 731.203 1381.19C764.811 1383.41 801.072 1384.73 828.932 1365.72C863.424 1342.28 872.711 1294.96 869.173 1253.39C865.635 1211.82 852.37 1171.14 853.254 1129.13C854.139 1087.12 876.248 1041.57 916.931 1031.4C940.811 1025.2 968.229 1034.05 984.149 1052.62C1004.93 1076.94 1005.37 1112.32 998.741 1143.28C992.108 1174.23 978.399 1203.86 973.977 1235.26C969.555 1266.66 976.188 1302.92 1001.84 1321.49C1019.53 1334.32 1042.52 1336.97 1064.19 1338.3C1136.27 1343.16 1208.79 1342.72 1280.87 1337.41C1291.49 1336.53 1302.54 1335.2 1310.06 1328.13C1316.25 1322.38 1318.9 1313.53 1321.11 1305.13C1337.03 1239.24 1344.11 1171.14 1341.46 1103.48C1341.01 1088 1339.69 1071.64 1333.05 1057.93C1316.69 1024.32 1275.57 1012.38 1238.42 1007.52C1201.27 1002.65 1160.59 998.228 1134.94 971.253C1116.81 951.795 1109.74 922.608 1117.7 897.402C1126.1 870.868 1159.71 836.375 1231.34 825.762C1262.3 820.897 1272.91 767.388 1254.34 721.839C1217.19 632.952 1212.33 567.061 1148.21 563.081C1117.25 560.87 1080.55 563.965 1049.15 562.196C1021.74 560.427 987.244 562.196 969.113 541.412C941.254 509.572 966.902 478.616 962.038 436.605C958.5 404.765 937.274 376.02 908.088 363.196C878.902 350.371 843.968 357.889 810.36 361.427V359.216Z" fill="#B7ABFF" stroke="black" stroke-width="20" stroke-miterlimit="10"/>
<path d="M989.036 762.125C957.639 717.019 866.543 713.066 809.498 728.986C800.211 731.64 791.367 734.736 784.734 739.6C775.89 745.349 771.467 753.309 767.93 761.269C756.432 790.455 766.603 824.949 800.653 849.271C834.703 873.594 894.403 885.091 936.855 871.824C962.945 863.864 980.634 847.502 989.036 829.813C997.438 812.124 1007.17 787.802 987.266 759.5L989.036 762.125Z" fill="white" stroke="black" stroke-width="20" stroke-miterlimit="10"/>
<path d="M900.349 808.772C901.166 800.509 890.992 792.738 877.625 791.415C864.258 790.093 852.759 795.719 851.941 803.983C851.124 812.247 861.297 820.019 874.665 821.341C888.032 822.664 899.531 817.036 900.349 808.772Z" fill="black"/>
</svg>
