<svg width="1760" height="1760" viewBox="0 0 1760 1760" fill="none" xmlns="http://www.w3.org/2000/svg">
<rect width="1760" height="1760" fill="white"/>
<path d="M734.22 739.505C723.618 713.706 719.378 669.53 682.978 645.144C671.669 637.369 565.649 635.249 502.037 649.385C429.591 665.289 437.365 767.777 466.697 838.459C481.894 874.86 501.33 911.261 503.804 950.843C505.218 970.987 500.27 993.959 482.954 1004.56C472.705 1010.92 460.336 1011.63 448.674 1014.46C427.47 1019.76 408.033 1033.54 398.138 1052.98C388.243 1072.42 388.243 1097.15 400.612 1115.18C429.591 1157.23 498.503 1141.33 540.204 1171.02C571.657 1193.28 580.138 1237.1 575.544 1275.63C570.95 1314.15 556.461 1350.55 551.513 1388.72C550.453 1397.91 550.099 1408.15 555.4 1415.58C559.641 1421.58 567.062 1424.76 574.13 1427.24C607.703 1438.9 643.397 1443.85 679.09 1442.08C699.234 1441.02 721.498 1436.07 733.16 1419.46C744.822 1402.5 740.581 1379.53 733.16 1360.09C716.55 1316.62 686.158 1279.51 672.023 1235.34C657.887 1191.16 666.721 1132.85 708.775 1113.76C739.521 1099.63 778.043 1113.06 799.247 1139.56C820.451 1166.07 826.458 1202.12 821.864 1235.69C819.39 1255.84 813.735 1277.39 823.63 1294.71C832.819 1311.32 852.963 1318.03 870.987 1323.34C937.779 1343.48 1004.57 1363.62 1071.72 1383.77C1101.76 1392.96 1135.33 1401.44 1163.25 1387.66C1193.99 1372.46 1206.72 1335.35 1209.9 1301.42C1213.78 1261.49 1208.84 1220.14 1190.11 1184.8C1176.68 1159.35 1155.47 1133.56 1161.13 1105.28C1164.31 1089.73 1455.16 911.968 1247 835.985C1205.66 820.788 1185.51 860.724 1148.76 870.266C1087.27 886.523 1040.62 886.523 1003.16 851.535C930.004 784.387 981.246 678.719 1009.16 613.338C1040.62 539.829 1092.92 402.706 981.954 351.462C916.928 321.422 876.641 365.952 854.377 409.421C812.322 490.705 864.271 614.751 863.564 658.574C863.211 691.441 855.437 735.971 831.759 758.589C808.081 781.207 751.537 785.095 733.514 740.919L734.22 739.505Z" fill="#E6E1E1" stroke="black" stroke-width="20" stroke-miterlimit="10"/>
<path d="M941.671 1217.67C939.198 1206.36 951.213 1184.8 967.116 1172.43C991.854 1152.99 1029.31 1151.58 1055.82 1168.54C1082.32 1185.51 1096.11 1220.49 1088.33 1251.24C1087.98 1253.01 1087.27 1254.77 1086.21 1256.19C1084.44 1257.95 1081.97 1258.31 1079.5 1258.31C1026.49 1261.84 945.559 1234.63 941.671 1218.02V1217.67Z" fill="#FAFCFF" stroke="black" stroke-width="20" stroke-miterlimit="10"/>
<path d="M1019.77 1252.65C1025.63 1252.65 1030.37 1247.91 1030.37 1242.05C1030.37 1236.2 1025.63 1231.45 1019.77 1231.45C1013.92 1231.45 1009.17 1236.2 1009.17 1242.05C1009.17 1247.91 1013.92 1252.65 1019.77 1252.65Z" fill="black" stroke="black" stroke-width="20" stroke-miterlimit="10"/>
</svg>
