<svg width="1760" height="1760" viewBox="0 0 1760 1760" fill="none" xmlns="http://www.w3.org/2000/svg">
<g clip-path="url(#clip0_10_466)">
<path d="M1760 0H0V1760H1760V0Z" fill="white"/>
<path d="M831.164 520.412C775.447 489.727 594.973 513.951 584.072 524.853C572.364 536.561 586.091 564.42 582.054 580.57C569.134 632.655 534.008 677.068 492.423 710.983C462.545 735.612 393.504 785.275 397.138 815.96C399.964 840.185 426.208 874.504 436.301 896.711C462.545 954.852 445.184 1021.87 435.09 1085.26C433.475 1094.95 432.264 1105.05 435.09 1114.74C442.761 1139.37 473.85 1146.23 499.69 1148.65C550.561 1153.9 609.105 1156.73 645.038 1119.99C675.319 1088.9 703.985 948.796 718.52 923.359C729.825 903.575 744.763 883.387 766.969 877.331C840.45 856.739 857.408 955.66 856.197 1012.99C854.582 1099.8 851.755 1188.22 861.849 1203.97C872.75 1221.73 894.552 1229.4 914.739 1234.65C966.822 1248.38 1020.92 1254.44 1075.03 1253.23C1086.33 1253.23 1098.44 1252.42 1108.54 1246.36C1119.04 1240.31 1125.9 1229.4 1131.95 1218.5C1184.04 1124.83 1183.63 1044.89 1240.56 1019.45C1267.21 1007.34 1299.1 1013.8 1326.96 1004.92C1360.07 994.42 1383.49 963.735 1395.6 931.03C1405.29 905.594 1408.92 875.312 1395.6 851.894C1364.92 799.002 1277.3 817.172 1235.31 772.758C1203.42 738.843 1211.49 685.547 1213.91 639.115C1215.93 608.026 1213.92 576.937 1209.47 546.252C1208.67 541.003 1207.45 535.35 1203.82 531.312C1199.38 526.871 1192.52 526.063 1186.06 525.66C1096.02 519.603 1024.56 525.66 1014.06 545.444C994.277 582.993 1154.97 761.049 959.152 812.326C915.951 823.631 854.178 800.617 854.178 701.294C854.178 668.993 892.533 554.731 831.164 520.412Z" fill="#FF3B83" stroke="black" stroke-width="20" stroke-miterlimit="10"/>
<path d="M976.516 1040.85C976.516 1048.12 976.515 1056.19 980.149 1061.84C984.187 1067.9 991.455 1069.11 997.511 1069.11C1024.16 1070.32 1050.81 1069.11 1076.64 1064.27C1082.3 1063.05 1088.35 1061.84 1093.2 1057.81C1103.7 1048.92 1104.5 1029.95 1104.5 1013.8C1104.5 988.36 1101.27 956.464 1081.89 947.177C1075.03 943.947 1067.76 944.351 1060.9 945.158C1041.11 947.177 1021.33 951.215 1001.95 956.868C996.299 958.483 990.244 960.501 986.206 965.75C982.169 970.999 977.324 1021.06 976.92 1040.44L976.516 1040.85Z" fill="white" stroke="black" stroke-width="20" stroke-miterlimit="10"/>
<path d="M1044.22 1021.72C1050.88 1021.17 1055.76 1014.42 1055.12 1006.64C1054.47 998.862 1048.54 993.006 1041.87 993.56C1035.21 994.114 1030.33 1000.87 1030.97 1008.64C1031.62 1016.42 1037.55 1022.28 1044.22 1021.72Z" fill="black"/>
</g>
<defs>
<clipPath id="clip0_10_466">
<rect width="1760" height="1760" fill="white"/>
</clipPath>
</defs>
</svg>
