<svg width="1760" height="1760" viewBox="0 0 1760 1760" fill="none" xmlns="http://www.w3.org/2000/svg">
<rect width="1760" height="1760" fill="white"/>
<path d="M893.007 406.663C836.307 403.679 805.138 461.043 797.843 517.413C790.549 573.783 806.465 630.484 812.102 687.186C813.428 699.123 813.428 713.049 804.807 721.339C799.502 726.644 791.544 728.634 784.25 730.292C752.418 736.924 719.591 738.25 687.428 734.603C683.781 734.271 679.802 733.939 676.817 735.929C673.17 738.582 672.839 743.887 672.839 748.529C673.833 796.278 674.497 844.358 675.492 892.106C675.492 902.717 675.823 913.991 679.802 923.939C689.417 948.808 717.271 960.745 742.802 968.04C768.334 975.335 796.517 982.629 812.433 1004.18C829.343 1027.39 825.034 1061.88 808.123 1085.09C791.213 1108.3 764.023 1122.56 736.502 1131.18C715.613 1137.81 692.402 1142.79 678.476 1159.7C671.844 1167.65 667.865 1177.6 663.886 1187.22C648.302 1226.68 632.386 1266.14 616.802 1305.59C615.144 1309.57 613.487 1313.55 614.15 1317.86C615.476 1326.49 624.76 1331.13 632.718 1334.44C689.749 1356.99 749.101 1379.87 810.443 1376.55C827.022 1375.56 844.927 1372.24 855.87 1359.64C863.164 1351.69 866.481 1340.74 869.133 1330.46C877.754 1298.96 885.049 1266.8 890.023 1234.64C894.334 1209.1 897.317 1182.91 906.27 1158.37C915.223 1133.83 931.138 1110.95 954.348 1099.35C977.559 1087.74 1009.06 1090.73 1025.97 1110.29C1039.56 1126.21 1041.89 1149.09 1053.16 1166.66C1075.71 1201.48 1126.11 1205.12 1166.23 1194.18C1183.14 1189.54 1200.71 1182.58 1210.99 1168.32C1221.93 1153.06 1226.91 1132.18 1222.26 1113.61C1203.03 1037.34 1168.22 841.042 1133.07 843.695C1074.05 847.674 946.391 809.541 947.717 802.91C966.949 698.791 994.47 586.052 978.554 481.27C975.57 462.37 954.017 409.316 892.675 406L893.007 406.663Z" fill="#84FAB0" stroke="black" stroke-width="20" stroke-miterlimit="10"/>
<path d="M906.937 1008.16C901.301 998.879 905.943 975.999 916.553 960.414C933.132 935.877 965.959 923.608 994.474 931.566C1022.99 939.524 1045.21 966.383 1047.53 995.894C1047.53 997.552 1047.53 999.21 1046.86 1000.87C1045.87 1002.86 1043.55 1003.85 1041.56 1004.85C995.469 1023.42 915.227 1022.42 906.937 1008.49V1008.16Z" fill="#FAFCFF" stroke="black" stroke-width="20" stroke-miterlimit="10"/>
<path d="M976.23 987.602C981.724 987.602 986.178 983.149 986.178 977.655C986.178 972.161 981.724 967.708 976.23 967.708C970.736 967.708 966.283 972.161 966.283 977.655C966.283 983.149 970.736 987.602 976.23 987.602Z" fill="black" stroke="black" stroke-width="20" stroke-miterlimit="10"/>
</svg>
