<svg width="1760" height="1760" viewBox="0 0 1760 1760" fill="none" xmlns="http://www.w3.org/2000/svg">
<rect width="1760" height="1760" fill="white"/>
<path d="M916.275 413.886C879.173 426.941 843.789 448.24 822.834 481.22C802.565 513.513 797.756 552.677 793.29 590.123C789.511 623.103 785.388 656.083 781.609 689.064C777.143 727.884 769.243 772.201 736.264 793.157C705.689 812.395 665.838 803.807 631.485 793.157C597.132 782.507 559.687 769.453 526.021 782.164C499.225 792.127 479.3 818.579 477.239 847.093C475.865 864.271 480.675 881.448 485.141 897.938C497.851 944.659 510.562 991.381 523.616 1038.1C542.51 1106.81 561.405 1176.21 594.384 1239.76C607.782 1265.53 623.585 1290.26 646.258 1308.47C687.138 1341.79 744.508 1348.67 796.038 1337.67C890.853 1317.06 853.752 1184.8 1037.89 1191.67C1109 1194.41 1188.7 1299.54 1254.31 1271.37C1291.07 1255.57 1317.87 1219.15 1322.33 1179.64C1326.8 1140.14 1308.59 1098.57 1276.3 1075.21C1258.09 1061.81 1148.16 1053.56 1233.36 913.397C1245.04 894.158 1252.25 871.485 1251.22 849.155C1250.88 840.566 1248.47 831.634 1242.98 825.107C1233.36 813.77 1216.52 812.052 1201.75 811.365C1170.49 809.99 1130.3 818.236 1099.03 818.923C1071.21 819.61 950.972 828.542 1000.44 688.72C1015.56 646.121 1050.25 598.369 1072.93 558.861C1103.16 506.986 1106.25 347.582 916.961 413.886H916.275Z" fill="#424242" stroke="black" stroke-width="20" stroke-miterlimit="10"/>
<path d="M812.182 1020.92C794.319 1020.24 776.111 1019.21 760.652 1010.28C745.193 1001.34 733.857 981.761 739.01 962.866C746.911 932.978 784.013 928.168 807.03 909.273C832.451 888.317 839.665 850.528 858.216 822.357C862.338 816.173 867.491 809.99 874.018 807.928C886.729 803.462 899.096 815.142 905.28 827.853C911.463 840.565 915.243 854.993 925.205 863.926C939.977 876.98 962.307 871.827 981.888 870.796C1001.47 869.766 1025.86 879.041 1025.52 900.341C1025.52 927.137 987.728 938.818 982.575 965.271C978.796 984.852 994.256 1001 1006.97 1014.4C1019.68 1027.8 1031.7 1049.44 1021.05 1065.93C1010.06 1083.11 985.667 1077.61 970.208 1066.62C954.749 1055.62 938.602 1040.85 920.051 1045.66C896.691 1051.5 882.951 1085.51 859.59 1085.17C845.162 1085.17 834.856 1071.08 829.359 1057.34C823.863 1043.6 820.771 1027.45 812.182 1020.92Z" fill="white" stroke="black" stroke-width="20" stroke-miterlimit="10"/>
<path d="M922.316 961.123C926.012 947.578 917.879 933.561 904.151 929.816C890.423 926.071 876.299 934.015 872.603 947.56C868.908 961.105 877.041 975.123 890.769 978.868C904.497 982.613 918.621 974.668 922.316 961.123Z" fill="black"/>
</svg>
