<svg width="1760" height="1760" viewBox="0 0 1760 1760" fill="none" xmlns="http://www.w3.org/2000/svg">
<rect width="1760" height="1760" fill="white"/>
<path d="M838.5 388.959C803.619 403.713 778.296 441.534 778.707 476.78C779.527 522.681 855.034 648.911 805.38 698.911C784.452 719.812 750.803 720.632 721.667 725.55C687.197 730.878 656.009 720.632 629.746 729.239C603.483 737.845 583.785 752.189 578.451 778.829C573.937 801.78 582.965 825.14 582.965 848.501C582.965 883.747 562.858 914.894 547.264 946.452C531.67 978.009 520.59 1016.53 537.415 1047.27C551.777 1073.5 582.145 1085.8 605.945 1103.83C660.523 1144.81 681.862 1224.32 655.599 1287.03C647.802 1305.88 635.901 1326.37 643.698 1345.63C646.16 1351.78 651.085 1357.11 656.009 1362.03C704.842 1408.34 782.4 1403.01 848.878 1389.49C863.241 1386.62 878.014 1383.34 890.325 1375.14C918.229 1357.11 926.436 1318.58 919.46 1285.8C912.484 1253.01 894.018 1224.73 877.604 1195.63C859.548 1164.07 843.954 1130.47 840.672 1094.4C837.389 1058.34 848.057 1019.4 875.962 996.042C912.074 965.714 972.807 972.271 1001.94 1009.16C1026.97 1041.12 1026.56 1086.62 1017.13 1126.37C1009.74 1156.7 999.07 1192.35 1019.59 1215.71C1031.49 1229.24 1050.37 1233.34 1068.01 1236.62C1100.43 1242.35 1133.67 1246.86 1166.5 1241.12C1199.33 1235.39 1230.92 1218.17 1246.93 1189.49C1258.83 1168.58 1261.29 1143.99 1263.34 1120.22C1272.78 1012.85 1275.65 903.009 1248.16 798.501C1240.77 770.222 1219.84 739.485 1192.35 729.649C1178.81 724.73 1056.52 788.255 961.727 746.042C942.851 737.435 919.05 694.402 959.676 595.632C971.576 566.124 988.812 538.665 997.43 508.337C1006.05 478.009 1004.81 441.533 983.476 418.173C958.444 390.714 908.381 359.566 832.054 391.533L838.5 388.959Z" fill="#FF3B83" stroke="black" stroke-width="20" stroke-miterlimit="10"/>
<path d="M931.764 462.024C904.269 421.45 850.922 446.041 840.253 478.828C822.607 533.336 890.727 539.073 914.939 529.237C947.357 516.123 943.254 478.828 931.764 462.024Z" fill="white" stroke="black" stroke-width="20" stroke-miterlimit="10"/>
<path d="M884.57 500.548C890.235 500.548 894.829 496.694 894.829 491.941C894.829 487.188 890.235 483.335 884.57 483.335C878.904 483.335 874.311 487.188 874.311 491.941C874.311 496.694 878.904 500.548 884.57 500.548Z" fill="black"/>
</svg>
