<svg width="1760" height="1760" viewBox="0 0 1760 1760" fill="none" xmlns="http://www.w3.org/2000/svg">
<g clip-path="url(#clip0_10_460)">
<path d="M1760 0H0V1760H1760V0Z" fill="white"/>
<path d="M1018.69 384.866C960.413 393.295 943.555 471.361 941.722 502.514C938.057 563.354 965.91 729.015 908.737 767.865C882.349 785.824 820.411 777.394 761.038 775.561C754.075 775.561 746.745 775.195 740.514 778.127C722.19 786.557 722.19 812.212 725.122 832.37C735.018 902.373 740.515 972.742 741.248 1043.48C741.248 1080.13 740.515 1116.78 731.719 1152.33C728.054 1166.99 722.923 1181.65 713.027 1192.65C704.231 1202.54 692.137 1208.41 679.676 1213.17C637.162 1229.66 589.152 1231.86 545.172 1219.77C537.109 1217.57 528.679 1214.64 522.815 1208.41C516.585 1201.44 514.752 1191.55 513.653 1182.38C510.721 1147.93 519.884 1113.48 520.25 1078.66C520.617 1043.84 509.255 1004.99 478.469 989.235C442.186 970.543 394.907 994.366 377.316 1031.02C359.724 1067.67 364.855 1111.65 377.682 1150.13C390.51 1188.61 410.301 1224.9 421.663 1264.12C428.26 1287.57 432.29 1312.86 446.217 1333.02C470.04 1366.37 515.119 1375.53 556.166 1378.83C595.015 1382.13 633.865 1383.23 672.713 1383.96C724.023 1385.06 775.699 1386.16 827.008 1387.63C957.115 1390.56 1087.59 1393.49 1216.6 1379.93C1244.08 1377 1273.4 1372.6 1293.93 1354.28C1315.92 1334.85 1322.88 1304.06 1329.11 1275.48C1332.04 1262.28 1334.61 1248.36 1330.58 1235.53C1326.18 1222.33 1315.55 1212.8 1304.19 1204.74C1263.51 1175.79 1208.16 1154.9 1196.44 1106.15C1185.81 1061.44 1230.52 1013.06 1275.97 1020.02C1303.45 1024.42 1334.97 1043.48 1355.86 1025.15C1365.76 1016.36 1368.32 1001.7 1369.79 988.502C1374.92 939.756 1373.82 890.278 1366.86 841.533C1364.66 826.139 1360.26 808.914 1346.33 801.95C1338.64 798.285 1290.99 804.149 1282.56 804.882C1178.48 813.312 1106.65 786.923 1082.82 746.608C1055.34 700.794 1119.47 669.641 1133.4 530.368C1137.06 492.252 1133.4 368.006 1019.05 384.499L1018.69 384.866Z" fill="#FF6640" stroke="black" stroke-width="20" stroke-miterlimit="10"/>
<path d="M1075.12 985.204C1011.35 888.446 887.844 946.721 863.289 1025.15C822.608 1155.26 980.568 1168.82 1037.01 1145.37C1111.77 1114.58 1101.51 1025.15 1075.12 985.204Z" fill="white" stroke="black" stroke-width="20" stroke-miterlimit="10"/>
<path d="M966.638 1076.83C979.592 1076.83 990.093 1067.64 990.093 1056.31C990.093 1044.97 979.592 1035.78 966.638 1035.78C953.684 1035.78 943.182 1044.97 943.182 1056.31C943.182 1067.64 953.684 1076.83 966.638 1076.83Z" fill="black"/>
</g>
<defs>
<clipPath id="clip0_10_460">
<rect width="1760" height="1760" fill="white"/>
</clipPath>
</defs>
</svg>
