<svg width="1760" height="1760" viewBox="0 0 1760 1760" fill="none" xmlns="http://www.w3.org/2000/svg">
<rect width="1760" height="1760" fill="white"/>
<path d="M1056.8 367.29C1014.23 359.202 972.514 390.278 952.933 428.591C933.351 466.905 931.649 511.603 929.946 555.025C928.244 595.892 926.967 636.759 925.264 677.627C925.264 687.418 924.411 697.209 921.006 706.574C908.661 738.076 867.369 744.462 833.314 745.313C773.292 747.442 712.844 749.144 652.822 751.273C643.882 751.273 634.517 752.124 626.854 756.807C612.381 766.173 610.678 786.18 611.104 803.208C611.104 857.272 620.044 980.725 600.037 1001.16C591.523 1009.67 576.623 1007.97 564.704 1005.84C537.034 1001.58 491.06 994.348 463.815 1001.16C422.098 1012.23 388.043 1064.16 399.111 1105.88C418.267 1176.12 543.419 1192.72 564.278 1262.54C576.197 1302.13 557.467 1344.7 560.447 1386.42C561.298 1397.49 564.278 1409.83 572.792 1416.64C580.029 1422.6 589.394 1423.88 598.334 1425.16C675.383 1434.52 754.135 1431.54 830.334 1416.64C841.402 1414.52 852.47 1411.96 861.836 1406C887.377 1389.82 892.06 1353.64 884.823 1324.27C877.587 1294.89 860.558 1268.93 852.044 1239.55C838.422 1192.3 850.767 1136.53 887.802 1104.18C924.837 1071.83 987.414 1070.12 1022.32 1104.18C1054.67 1136.11 1058.08 1188.47 1046.58 1232.74C1035.09 1277.01 1012.53 1317.46 999.334 1361.3C995.928 1372.8 993.374 1385.57 999.334 1396.21C1008.27 1412.81 1031.26 1413.24 1049.99 1411.96C1139.81 1404.72 1230.06 1397.91 1319.88 1390.68C1327.11 1390.25 1333.92 1389.4 1340.74 1386.42C1362.45 1376.63 1365 1347.68 1365 1323.84C1363.72 1203.79 1362.02 1083.32 1360.74 963.272C1360.32 921.127 1356.49 872.598 1321.58 848.333C1302.85 835.562 1279.44 833.008 1257.3 831.305C1201.11 827.048 1136.41 821.088 1103.63 775.112C1076.38 736.799 1082.77 682.309 1106.61 641.867C1125.76 609.514 1155.56 583.547 1170.46 549.065C1197.7 486.061 1167.06 386.447 1057.65 366.013L1056.8 367.29Z" fill="#FFE0F6" stroke="black" stroke-width="20" stroke-miterlimit="10"/>
<path d="M1011.68 856.42C999.765 838.966 947.831 839.817 915.478 838.966C903.559 838.966 891.215 838.115 880.573 841.095C863.545 846.203 858.011 858.123 855.457 869.191C849.923 890.476 848.645 912.613 850.774 934.323C851.199 938.155 851.625 941.985 854.605 945.817C861.416 954.331 878.869 957.737 894.194 960.291C921.012 964.548 947.832 967.953 975.076 970.507C981.887 971.359 989.123 971.785 995.508 970.507C1005.72 967.953 1008.7 960.717 1010.83 954.757C1021.05 920.275 1027.43 880.259 1011.68 856.845V856.42Z" fill="white" stroke="black" stroke-width="20" stroke-miterlimit="10"/>
<path d="M950.807 889.201C957.86 889.201 963.577 883.483 963.577 876.429C963.577 869.376 957.86 863.658 950.807 863.658C943.754 863.658 938.037 869.376 938.037 876.429C938.037 883.483 943.754 889.201 950.807 889.201Z" fill="black" stroke="black" stroke-width="20" stroke-miterlimit="10"/>
</svg>
