<svg width="1760" height="1760" viewBox="0 0 1760 1760" fill="none" xmlns="http://www.w3.org/2000/svg">
<g clip-path="url(#clip0_10_83)">
<path d="M1760 0H0V1760H1760V0Z" fill="white"/>
<path d="M478.371 853.299C465.914 732.875 427.619 615.219 367.178 510.483C360.257 498.948 353.337 485.567 357.028 472.648C360.257 462.498 369.485 455.577 378.713 450.04C435.924 414.974 505.131 400.209 571.57 408.053C590.026 410.36 609.404 414.513 624.168 426.048C642.623 440.351 652.312 462.959 664.308 482.799C702.603 544.165 773.656 579.692 845.17 590.765C916.684 601.839 989.583 591.688 1061.1 579.231C1110.93 570.464 1157.06 582.46 1196.74 614.296C1245.65 653.054 1250.73 708.421 1278.41 764.711C1296.86 802.084 1329.62 829.768 1355.92 862.065C1382.22 894.363 1402.98 936.811 1390.52 976.491C1368.84 1045.7 1272.41 1052.62 1221.2 1103.84C1182.44 1142.59 1174.6 1201.65 1156.14 1253.79C1137.69 1305.93 1091.09 1358.53 1037.57 1346.99C958.209 1329.92 951.749 1185.04 913.916 1102.91C906.995 1087.69 898.69 1072 884.388 1062.31C843.786 1034.63 788.42 1076.61 772.733 1123.68C757.046 1170.74 761.66 1223.34 739.052 1266.71C706.755 1329 629.243 1354.37 559.574 1353.45C541.58 1353.45 523.125 1351.6 506.515 1343.76C479.294 1330.38 463.146 1301.31 454.379 1272.24C409.164 1119.98 488.521 957.113 477.91 854.683L478.371 853.299Z" fill="#B0FCA4" stroke="black" stroke-width="20" stroke-miterlimit="10"/>
<path d="M990.4 806.5C943.339 833.722 939.755 913.742 968.822 960.342C973.436 967.725 978.972 974.646 985.893 980.182C995.121 987.103 1006.19 990.333 1017.27 992.179C1057.87 999.561 1102.62 988.026 1130.31 957.574C1157.99 927.122 1165.37 876.369 1142.3 841.764C1128 820.54 1104.01 807.16 1079.55 801.623C1055.1 796.086 1024.65 786.397 985.893 809.005L990.4 806.5Z" fill="white" stroke="black" stroke-width="20" stroke-miterlimit="10"/>
<path d="M1055.1 922.968C1066.06 922.968 1074.94 913.879 1074.94 902.667C1074.94 891.454 1066.06 882.365 1055.1 882.365C1044.15 882.365 1035.26 891.454 1035.26 902.667C1035.26 913.879 1044.15 922.968 1055.1 922.968Z" fill="black"/>
</g>
<defs>
<clipPath id="clip0_10_83">
<rect width="1760" height="1760" fill="white"/>
</clipPath>
</defs>
</svg>
