<svg width="1760" height="1760" viewBox="0 0 1760 1760" fill="none" xmlns="http://www.w3.org/2000/svg">
<rect width="1760" height="1760" fill="white"/>
<path d="M1089.58 592.138C1078.93 567.495 1093.53 534.028 1101.14 489.305C1109.05 441.235 1108.44 319.844 1003.17 335.36C920.12 347.529 905.212 446.712 959.67 508.168C973.665 523.989 989.788 547.415 993.135 568.103C994.96 579.36 995.569 591.834 990.093 601.569C980.358 618.607 957.54 621.345 938.069 622.258C891.826 624.388 845.582 626.517 799.339 628.647C768.003 630.168 732.409 633.819 714.155 659.071C699.247 679.759 701.376 707.445 703.506 732.697C711.111 823.664 712.328 915.24 707.156 1006.51C705.635 1032.07 705.028 1061.58 724.195 1078.62C754.922 1106.3 804.511 1078.01 844.669 1088.05C885.436 1098.09 905.821 1146.16 904.3 1188.45C902.778 1230.74 886.958 1270.9 882.698 1312.88C878.439 1354.87 891.218 1403.55 929.247 1421.8C971.231 1441.88 1025.08 1410.24 1039.38 1365.82C1050.03 1332.35 1043.64 1295.84 1032.08 1262.68C1020.52 1229.52 1004.7 1197.88 995.874 1163.8C987.659 1131.86 987.659 1095.05 1008.96 1070.1C1018.39 1059.15 1032.69 1050.93 1047.29 1052.45C1077.1 1055.5 1089.58 1093.22 1087.45 1123.04C1085.32 1152.85 1076.19 1185.1 1090.18 1211.57C1104.18 1238.34 1141.6 1249.3 1167.76 1234.39C1194.84 1219.18 1204.58 1183.88 1201.23 1153.16C1197.88 1122.43 1184.5 1093.52 1175.37 1064.01C1166.24 1034.5 1162.59 1000.73 1177.5 973.35C1187.54 955.4 1204.58 942.318 1215.53 924.976C1228.61 904.592 1232.26 879.645 1235 855.61C1241.08 802.063 1243.52 747.909 1242.91 694.059C1242.61 667.59 1239.56 637.774 1218.57 621.649C1179.33 591.53 1100.53 617.694 1089.58 592.138Z" fill="#B0FCA4" stroke="black" stroke-width="20" stroke-miterlimit="10"/>
<path d="M903.384 715.659C894.865 703.186 857.749 703.794 834.627 703.185C826.108 703.185 817.287 702.577 809.682 704.707C797.512 708.358 793.557 716.876 791.731 724.787C787.776 739.999 786.864 755.819 788.385 771.335C788.689 774.073 788.992 776.812 791.122 779.55C795.99 785.635 808.463 788.068 819.415 789.894C838.582 792.936 857.749 795.37 877.22 797.196C882.088 797.804 887.259 798.108 891.823 797.196C899.124 795.37 901.255 790.198 902.776 785.939C910.078 761.295 914.64 732.697 903.384 715.964V715.659Z" fill="white" stroke="black" stroke-width="20" stroke-miterlimit="10"/>
<path d="M818.81 728.743C823.851 728.743 827.937 724.656 827.937 719.616C827.937 714.575 823.851 710.488 818.81 710.488C813.769 710.488 809.684 714.575 809.684 719.616C809.684 724.656 813.769 728.743 818.81 728.743Z" fill="black" stroke="black" stroke-width="20" stroke-miterlimit="10"/>
</svg>
