<svg width="1760" height="1760" viewBox="0 0 1760 1760" fill="none" xmlns="http://www.w3.org/2000/svg">
<rect width="1760" height="1760" fill="white"/>
<path d="M591.989 443C565 443 490.286 450.06 456.665 486.204C423.044 522.347 409.175 574.882 415.479 624.054C423.464 685.414 459.607 738.788 483.562 795.945C505.836 850.581 517.183 909.84 515.922 968.678C514.241 1053.99 488.185 1141.83 515.502 1222.94C536.515 1285.14 588.207 1333.9 647.884 1362.05C707.562 1390.21 774.383 1399.04 839.944 1399.04C902.143 1399.04 968.965 1389.79 1016.03 1349.03C1080.33 1293.13 1089.58 1196.05 1142.11 1129.22C1183.72 1076.27 1248.86 1047.27 1296.77 999.778C1359.39 937.577 1388.39 843.436 1371.58 756.44C1354.77 669.443 1303.07 614.387 1221.54 579.925C1168.17 557.65 1105.97 511 1068.57 540.419C1031.16 569.838 1028.22 643.806 929.04 670.283C829.858 696.761 769.76 634.14 741.603 568.997C711.764 499.652 652.011 443 600 443H591.989Z" fill="#B0FCA4" stroke="black" stroke-width="20" stroke-miterlimit="10"/>
<path d="M828.59 819.479C726.466 856.043 672.252 1029.62 669.31 1149.39C668.89 1168.73 670.151 1187.22 674.774 1202.77C681.078 1222.94 692.845 1236.39 705.873 1246.9C753.783 1285.14 824.387 1283.88 889.948 1230.51C955.509 1177.13 1010.56 1067.86 1010.14 978.343C1010.14 922.867 989.971 880.419 961.813 854.362C933.655 828.305 893.73 796.364 829.01 819.899L828.59 819.479Z" fill="white" stroke="black" stroke-width="20" stroke-miterlimit="10"/>
<path d="M979.817 1112.75C989.855 1087.77 985.945 1062.68 971.085 1056.71C956.224 1050.74 936.04 1066.15 926.002 1091.13C915.964 1116.12 919.873 1141.21 934.734 1147.18C949.594 1153.15 969.779 1137.74 979.817 1112.75Z" fill="black"/>
</svg>
