<svg width="1760" height="1760" viewBox="0 0 1760 1760" fill="none" xmlns="http://www.w3.org/2000/svg">
<rect width="1760" height="1760" fill="white"/>
<path d="M878.688 343.242C838.714 333.127 797.295 358.654 771.769 391.404C746.244 424.155 727.942 461.24 707.233 497.362C673.038 558.047 588.756 564.309 576.234 597.541C560.822 638.479 603.686 653.409 618.616 666.413C682.671 724.209 720.718 809.939 720.718 896.15C720.718 982.361 682.671 1068.09 618.616 1125.89C583.458 1157.67 541.557 1181.27 509.771 1216.43C477.984 1251.59 458.72 1304.09 479.911 1345.99C495.322 1375.85 528.072 1393.19 560.822 1400.41C608.983 1410.53 662.924 1401.38 700.972 1369.59C742.391 1335.39 761.174 1281.45 782.365 1232.33C803.556 1183.2 835.342 1131.67 886.394 1115.77C941.779 1098.43 1002.46 1130.22 1038.1 1175.98C1056.89 1200.06 1070.85 1227.99 1089.15 1252.55C1116.12 1289.16 1189.81 1371.03 1264.94 1278.56C1324.18 1205.84 1291.43 1093.14 1222.56 1007.41C1205.22 985.732 1184.51 966.949 1169.1 943.831C1130.09 883.627 1138.76 796.934 1188.85 745.4C1211 722.764 1238.94 707.352 1263.02 687.124C1396.91 572.496 1323.7 379.363 1257.24 389.477C1203.3 397.665 1220.15 471.354 1141.65 507.958C1102.16 526.26 1059.78 513.738 1022.21 492.064C984.643 470.391 956.709 435.232 935.037 397.665C922.996 375.992 908.066 350.948 878.688 343.242Z" fill="#63B6FF" stroke="black" stroke-width="20" stroke-miterlimit="10"/>
<path d="M1046.77 748.291C1058.33 802.233 1028.47 859.547 983.681 892.297C972.604 900.004 961.046 907.228 947.56 910.117C922.516 915.897 896.028 908.191 874.355 894.706C835.826 870.624 809.818 828.241 805.002 783.45C805.002 778.634 804.521 773.336 807.892 769.964C810.3 767.556 813.19 767.075 816.561 766.111C875.8 751.181 935.52 740.103 995.722 732.397C1014.5 729.989 1042.44 728.544 1046.77 748.291Z" fill="white" stroke="black" stroke-width="20" stroke-miterlimit="10"/>
<path d="M927.326 840.763C937.167 840.763 945.145 832.138 945.145 821.498C945.145 810.858 937.167 802.233 927.326 802.233C917.484 802.233 909.506 810.858 909.506 821.498C909.506 832.138 917.484 840.763 927.326 840.763Z" fill="black"/>
</svg>
