<svg width="1760" height="1760" viewBox="0 0 1760 1760" fill="none" xmlns="http://www.w3.org/2000/svg">
<g clip-path="url(#clip0_10_480)">
<path d="M1760 0H0V1760H1760V0Z" fill="white"/>
<path d="M588.149 506.268C559.386 514.556 545.736 545.758 535.498 573.546C522.823 608.648 509.66 643.262 496.985 678.363C477.972 730.04 458.96 782.692 451.647 837.295C445.797 884.097 416.546 923.099 490.16 1003.05C609.6 1132.73 669.563 933.825 764.627 1001.59C799.728 1026.45 820.204 1075.21 802.653 1114.69C787.54 1147.85 751.952 1165.4 726.602 1191.72C679.313 1239.5 673.951 1327.74 725.139 1371.13C745.615 1388.68 771.453 1397.46 797.778 1402.82C840.191 1412.08 885.042 1413.55 925.993 1398.43C966.944 1383.32 1014.23 1360.41 1024.96 1318.48C1034.22 1280.45 1010.82 1231.21 1003.51 1193.19C996.194 1155.16 993.269 1111.77 1016.18 1080.08C1042.02 1044.98 1091.75 1036.69 1135.62 1037.67C1179.5 1038.64 1225.32 1044.98 1265.79 1027.92C1326.24 1002.56 1355.49 929.436 1349.15 864.109C1342.81 798.781 1308.2 739.79 1271.64 685.676C1247.26 649.111 1220.45 612.548 1182.42 590.609C1126.36 557.458 1050.8 557.945 1006.43 510.656C972.306 474.091 964.506 416.564 925.505 385.363C888.942 355.624 820.203 347.336 793.878 386.337C678.338 556.97 614.962 498.468 588.149 506.268Z" fill="#63B6FF" stroke="black" stroke-width="20" stroke-miterlimit="10"/>
<path d="M784.615 1224.88C754.39 1243.4 754.877 1295.08 773.403 1326.28C776.328 1331.15 779.74 1336.03 784.615 1339.44C790.465 1343.83 797.778 1346.27 804.603 1347.73C830.441 1352.61 859.204 1344.81 877.242 1324.33C895.28 1303.85 899.667 1269.73 885.042 1246.81C875.779 1232.68 860.667 1223.41 844.579 1220C828.491 1216.59 809.478 1209.76 784.615 1224.88Z" fill="white" stroke="black" stroke-width="20" stroke-miterlimit="10"/>
<path d="M828.974 1300.93C835.974 1300.93 841.649 1294.82 841.649 1287.28C841.649 1279.74 835.974 1273.63 828.974 1273.63C821.974 1273.63 816.299 1279.74 816.299 1287.28C816.299 1294.82 821.974 1300.93 828.974 1300.93Z" fill="black"/>
</g>
<defs>
<clipPath id="clip0_10_480">
<rect width="1760" height="1760" fill="white"/>
</clipPath>
</defs>
</svg>
