<svg width="1760" height="1760" viewBox="0 0 1760 1760" fill="none" xmlns="http://www.w3.org/2000/svg">
<rect width="1760" height="1760" fill="white"/>
<path d="M612.322 565.342C579.528 528.36 556.153 563.946 529.29 594.648C521.266 603.719 497.194 625.001 493.007 636.514C480.448 672.1 510.451 706.989 533.825 736.644C564.526 775.719 587.552 823.516 585.11 873.406C582.668 923.296 549.873 973.186 501.38 984.002C459.166 993.422 409.626 974.582 375.436 1000.75C346.829 1022.73 345.782 1064.59 347.527 1100.53C348.573 1119.02 349.969 1138.21 358.342 1154.95C369.854 1178.33 393.229 1193.33 416.952 1204.5C454.98 1222.64 498.24 1234.15 539.407 1224.73C618.602 1207.29 672.677 1119.02 753.965 1116.58C801.412 1115.18 843.974 1144.14 878.862 1176.24C913.749 1208.33 945.497 1244.97 988.059 1265.55C1026.44 1284.04 1072.14 1287.88 1112.96 1275.32C1136.33 1268.34 1159.01 1255.08 1171.57 1234.15C1208.2 1173.45 1141.91 1090.06 1172.96 1025.87C1196.34 978.071 1260.18 968.651 1301.35 935.158C1348.1 897.479 1362.05 830.842 1356.82 771.183C1354.73 748.156 1350.19 724.781 1339.38 704.197C1317.05 662.68 1249.02 574.413 1187.27 582.786C1144.01 588.717 1142.26 592.555 1100.05 562.9C1072.49 543.711 1052.6 514.754 1024.34 496.961C972.011 463.817 897.352 472.888 854.092 517.196C825.484 546.502 809.087 589.764 771.757 606.161C726.753 626.048 683.448 643.823 621 573L612.322 565.342Z" fill="#B0FCA4" stroke="black" stroke-width="20" stroke-miterlimit="10"/>
<path d="M894.56 663.028C827.227 723.036 839.089 873.404 873.976 966.556C879.558 981.558 886.187 995.513 894.56 1005.98C905.375 1019.59 918.981 1026.22 932.238 1030.05C981.08 1044.71 1035.16 1021.68 1069 960.625C1102.84 899.571 1111.56 798.045 1083.3 729.315C1065.86 686.752 1037.25 660.237 1007.6 648.723C977.941 637.21 937.471 625.348 894.56 663.028Z" fill="white" stroke="black" stroke-width="20" stroke-miterlimit="10"/>
<path d="M995.731 768.391C1009.03 768.391 1019.8 750.271 1019.8 727.92C1019.8 705.569 1009.03 687.45 995.731 687.45C982.436 687.45 971.658 705.569 971.658 727.92C971.658 750.271 982.436 768.391 995.731 768.391Z" fill="black"/>
</svg>
