<svg width="1760" height="1760" viewBox="0 0 1760 1760" fill="none" xmlns="http://www.w3.org/2000/svg">
<rect width="1760" height="1760" fill="white"/>
<path d="M761.093 436.897C721.957 442.358 683.732 454.19 648.237 471.938C615.472 488.321 582.708 513.35 574.972 549.301C566.78 586.617 587.713 623.023 603.186 658.064C634.585 730.421 641.411 820.071 595.45 884.237C547.668 950.678 454.38 976.162 414.789 1047.61C395.222 1082.19 391.581 1123.61 392.036 1163.2C392.491 1200.06 397.497 1238.74 418.43 1269.23C437.543 1296.99 468.487 1314.74 498.976 1329.3C540.387 1348.87 584.528 1364.8 630.034 1368.44C720.137 1375.26 807.964 1333.4 898.522 1335.67C972.242 1337.49 1041.41 1368.89 1112.86 1385.73C1184.3 1402.57 1268.03 1403.48 1322.19 1353.42C1359.5 1319.29 1375.88 1266.5 1371.79 1216.44C1367.69 1166.38 1344.94 1119.06 1314 1079.46C1283.05 1039.87 1243.92 1006.65 1221.16 962.054C1200.68 921.097 1195.68 872.86 1207.51 828.717C1222.98 771.833 1263.94 725.87 1303.07 682.183C1342.21 638.496 1383.16 592.078 1397.73 535.194C1412.29 478.309 1380.43 387.294 1323.1 372.277C1256.2 354.984 1251.2 440.993 1235.27 468.752C1198.41 532.918 1180.21 545.205 1106.94 554.762C981.799 570.234 883.505 419.604 760.182 436.897H761.093Z" fill="#2667FF" stroke="black" stroke-width="20" stroke-miterlimit="10"/>
<path d="M597.268 1024.85C546.301 1055.8 547.211 1144.08 578.61 1197.33C583.616 1205.97 589.532 1213.71 597.268 1219.63C607.279 1227.36 619.111 1231 631.397 1233.28C675.539 1241.47 724.23 1228.73 754.72 1193.69C785.209 1158.65 792.945 1101.31 767.917 1062.17C752.444 1038.05 726.506 1023.03 699.657 1016.21C672.808 1009.38 640.043 998.914 597.723 1024.4L597.268 1024.85Z" fill="white" stroke="black" stroke-width="20" stroke-miterlimit="10"/>
<path d="M672.814 1155.01C684.877 1155.01 694.657 1144.61 694.657 1131.8C694.657 1118.98 684.877 1108.59 672.814 1108.59C660.75 1108.59 650.971 1118.98 650.971 1131.8C650.971 1144.61 660.75 1155.01 672.814 1155.01Z" fill="black"/>
</svg>
