<svg width="1760" height="1760" viewBox="0 0 1760 1760" fill="none" xmlns="http://www.w3.org/2000/svg">
<g clip-path="url(#clip0_10_474)">
<path d="M1760 0H0V1760H1760V0Z" fill="white"/>
<path d="M579.5 463.613C557.777 480.324 531.362 503.333 523.425 529.235C515.905 555.138 523.425 582.293 527.185 609.031C532.616 652.897 525.096 698.435 505.461 738.124C483.319 783.661 446.974 820.008 416.895 860.95C386.815 901.892 362.585 951.189 370.523 1000.9C383.056 1079.45 467.026 1125.82 499.194 1198.51C515.487 1235.7 517.158 1277.47 530.526 1315.49C535.957 1330.95 543.477 1345.99 555.593 1357.27C590.685 1391.11 650.425 1379.41 689.695 1350.58C728.965 1321.76 755.702 1279.14 792.048 1246.97C828.393 1214.81 882.285 1192.66 925.315 1215.22C954.141 1230.68 970.434 1261.6 990.904 1287.5C1043.96 1353.93 1141.3 1386.09 1219 1351.84C1266.63 1330.95 1302.14 1288.75 1323.45 1241.54C1344.75 1194.34 1351.85 1141.7 1354.36 1090.31C1361.88 913.589 1303.39 725.173 1164.28 615.715C1127.1 586.471 1076.55 563.075 1033.93 583.547C993.411 603.182 975.447 656.24 932.417 669.191C894.818 680.889 853.877 654.568 834.242 620.31C814.607 586.053 810.43 545.529 803.328 506.676C798.314 479.52 792.048 450.694 773.248 430.223C700.139 350.427 608.649 440.667 574.81 467.405L579.5 463.613Z" fill="#9DC0EB" stroke="black" stroke-width="20" stroke-miterlimit="10"/>
<path d="M1130.67 859.499C1057.98 749.206 914.447 811.235 886.457 900.639C840.085 1048.95 1020.14 1064.41 1084.48 1037.67C1169.7 1002.58 1158 900.64 1127.93 855.102L1130.67 859.499Z" fill="white" stroke="black" stroke-width="20" stroke-miterlimit="10"/>
<path d="M1004.26 959.127C1019.03 959.127 1031 948.653 1031 935.732C1031 922.811 1019.03 912.336 1004.26 912.336C989.498 912.336 977.527 922.811 977.527 935.732C977.527 948.653 989.498 959.127 1004.26 959.127Z" fill="black"/>
</g>
<defs>
<clipPath id="clip0_10_474">
<rect width="1760" height="1760" fill="white"/>
</clipPath>
</defs>
</svg>
