<svg width="1760" height="1760" viewBox="0 0 1760 1760" fill="none" xmlns="http://www.w3.org/2000/svg">
<rect width="1760" height="1760" fill="white"/>
<path d="M773.556 446.22C784.95 337.097 676.707 328.771 621.49 359.448C582.487 381.36 548.743 412.476 524.202 449.288C518.067 458.491 483.446 485.662 559.261 554.904C620.175 610.561 659.616 686.816 681.527 766.576C703.439 846.337 707.821 929.603 706.945 1011.99C705.63 1150.48 757.341 1109.72 928.69 1235.5C1011.52 1296.41 1071.99 1395.46 1173.22 1413.42C1227.56 1423.07 1283.66 1389.76 1309.51 1341.11C1335.37 1292.47 1333.18 1232.43 1312.58 1181.16C1302.94 1157.05 1289.79 1135.14 1277.08 1112.35C1242.03 1048.37 1213.98 975.18 1228.44 903.308C1234.58 873.069 1248.16 844.583 1254.3 814.345C1268.76 743.349 1230.63 678.489 1170.59 637.732C1011.52 529.486 1047.45 611.876 964.625 649.565C909.408 674.545 833.594 658.769 798.974 608.809C764.353 558.849 766.106 519.407 773.556 446.658V446.22Z" fill="#E6E1E1" stroke="black" stroke-width="20" stroke-miterlimit="10"/>
<path d="M974.708 1036.1C980.405 1094.82 1064.11 1185.97 1125.9 1233.74C1135.98 1241.63 1145.62 1248.21 1154.38 1252.15C1165.78 1257.41 1174.1 1257.41 1181.12 1255.66C1206.97 1249.52 1215.74 1218.4 1196.45 1168.88C1177.17 1119.36 1127.65 1053.19 1080.76 1018.57C1051.84 997.091 1027.3 989.203 1009.77 991.394C992.238 993.586 970.764 998.406 974.708 1036.1Z" fill="white" stroke="black" stroke-width="20" stroke-miterlimit="10"/>
<path d="M1125.88 1155.07C1130.91 1150.9 1125.46 1136.04 1113.71 1121.89C1101.96 1107.73 1088.36 1099.65 1083.33 1103.82C1078.3 1107.99 1083.75 1122.85 1095.5 1137C1107.25 1151.16 1120.85 1159.25 1125.88 1155.07Z" fill="black"/>
</svg>
