<svg width="1760" height="1760" viewBox="0 0 1760 1760" fill="none" xmlns="http://www.w3.org/2000/svg">
<rect width="1760" height="1760" fill="white"/>
<path d="M604.119 542.629C571.798 557.982 531.801 565.659 514.428 596.768C501.5 619.797 514.832 647.675 521.296 673.532C534.225 726.054 515.236 780.597 505.944 833.928C496.652 887.259 521.296 982.203 566.545 1011.7C616.642 1044.02 665.124 985.435 723.705 995.536C781.882 1005.64 830.363 1058.16 834.808 1117.15C838.04 1160.78 820.263 1202.8 807.739 1244.41C795.215 1286.03 787.538 1333.7 809.355 1371.68C819.455 1388.65 834.807 1402.38 851.776 1412.48C901.873 1441.98 968.131 1441.17 1017.42 1410.06C1066.71 1378.95 1096.2 1319.56 1090.95 1261.38C1086.51 1210.88 1058.22 1166.03 1040.04 1118.76C1021.86 1071.49 1015.4 1012.5 1048.93 974.527C1090.95 926.448 1168.52 938.569 1227.1 913.115C1271.14 894.127 1303.46 853.32 1318.41 807.666C1333.36 762.012 1332.14 712.722 1321.64 665.855C1313.96 631.514 1298.21 563.638 1265.48 550.709C1228.72 536.165 1188.32 587.88 1149.13 593.94C1094.18 602.02 1030.35 581.819 1001.66 519.6C956.819 421.827 943.89 349.508 826.324 366.476C739.462 378.597 667.144 513.136 604.522 542.629H604.119Z" fill="#FFF570" stroke="black" stroke-width="20" stroke-miterlimit="10"/>
<path d="M894.378 1274C889.53 1295.01 882.89 1329.66 896.626 1345.42C905.514 1355.52 918.847 1358.35 931.775 1359.96C947.935 1361.58 964.499 1361.58 979.852 1355.92C995.204 1350.26 1008.94 1337.74 1013.38 1321.18C1018.23 1303.4 1012.98 1284.41 1006.11 1267.44C993.588 1235.93 976.62 1205.22 950.763 1185.02C947.935 1182.6 945.107 1180.58 941.471 1179.77C933.795 1177.75 925.715 1183.4 922.079 1191.08C918.443 1198.76 897.434 1259.76 891.778 1284.01L894.378 1274Z" fill="white" stroke="black" stroke-width="20" stroke-miterlimit="10"/>
<path d="M950.937 1310.28C959.632 1309.92 966.412 1303.13 966.081 1295.1C965.75 1287.07 958.434 1280.86 949.739 1281.22C941.044 1281.58 934.264 1288.37 934.595 1296.4C934.926 1304.42 942.242 1310.64 950.937 1310.28Z" fill="black"/>
</svg>
