<svg width="1760" height="1760" viewBox="0 0 1760 1760" fill="none" xmlns="http://www.w3.org/2000/svg">
<rect width="1760" height="1760" fill="white"/>
<path d="M577 1115.38C553.929 1145.71 531.286 1177.33 520.605 1214.07C509.924 1250.81 513.769 1293.54 538.549 1322.16C559.483 1346.51 591.953 1356.77 622.713 1365.31C728.667 1393.51 838.892 1406.33 948.691 1403.34C996.541 1402.06 1046.1 1396.93 1087.54 1372.15C1140.52 1340.11 1170.85 1281.15 1191.79 1222.61C1238.78 1093.16 1255.44 952.597 1239.64 815.88C1234.08 767.174 1219.98 712.914 1176.83 690.27C1130.26 665.918 1070.45 690.27 1021.32 671.044C978.17 654.382 953.39 607.813 943.137 562.525C932.883 517.237 934.165 469.813 922.63 424.953C919.212 412.136 914.94 399.318 906.822 389.064C880.761 357.021 829.066 363.857 793.606 384.365C770.535 397.609 749.174 415.981 738.066 440.334C720.549 479.64 733.366 525.355 738.066 568.079C742.765 610.803 732.512 663.781 692.352 679.162C677.399 684.716 653.474 689.416 638.948 696.679C600.07 715.478 611.178 768.456 633.821 805.199C656.465 841.941 691.925 872.703 699.615 915C707.732 959.86 681.671 1004.29 650.483 1037.62C619.295 1070.94 586.399 1102.13 576.572 1115.38H577Z" fill="#2667FF" stroke="black" stroke-width="20" stroke-miterlimit="10"/>
<path d="M1084.12 903.466C1094.37 951.317 1067.89 1002.16 1028.15 1031.21C1018.33 1038.05 1008.07 1044.46 996.111 1047.02C973.895 1052.15 950.398 1045.31 931.172 1033.35C896.994 1011.99 873.923 974.388 869.651 934.655C869.651 930.382 869.224 925.683 872.214 922.692C874.351 920.556 876.914 920.129 879.905 919.274C932.454 906.03 985.431 896.203 1038.83 889.367C1055.5 887.231 1081.3 891.483 1085.14 909L1084.12 903.466Z" fill="white" stroke="black" stroke-width="20" stroke-miterlimit="10"/>
<path d="M978.169 985.496C986.899 985.496 993.977 977.845 993.977 968.407C993.977 958.968 986.899 951.317 978.169 951.317C969.439 951.317 962.361 958.968 962.361 968.407C962.361 977.845 969.439 985.496 978.169 985.496Z" fill="black"/>
</svg>
