<svg width="1760" height="1760" viewBox="0 0 1760 1760" fill="none" xmlns="http://www.w3.org/2000/svg">
<rect width="1760" height="1760" fill="white"/>
<path d="M620.425 774.323C585.747 804.23 644.285 907.629 568.249 969.351C522.436 1006.57 452.763 1003.39 407.904 1042.21C378.317 1067.98 366.228 1111.25 376.726 1148.79C387.225 1186.33 419.676 1216.87 457.853 1225.78C505.893 1237.24 556.16 1216.24 595.928 1186.97C635.696 1157.7 668.146 1119.52 707.596 1089.61C747.046 1059.71 796.04 1037.12 844.716 1046.34C887.347 1054.62 921.707 1085.48 949.386 1118.56C977.064 1151.65 1000.92 1188.88 1033.69 1216.87C1078.87 1255.37 1139.95 1273.82 1198.81 1267.14C1230.63 1263.32 1262.44 1252.19 1286.94 1231.51C1311.43 1210.83 1328.3 1179.97 1328.3 1147.83C1328.3 1088.02 1274.21 1042.84 1221.08 1014.85C1167.95 986.849 1108.14 962.988 1076.33 912.083C1055.01 877.723 1050.24 835.727 1051.51 795.639C1052.78 764.779 1057.24 733.918 1052.78 703.375C1047.06 662.652 994.562 486.713 880.667 492.122C741.638 498.803 745.773 666.788 735.274 693.513C699.642 783.868 649.058 749.189 620.425 774.323Z" fill="#424242" stroke="black" stroke-width="20" stroke-miterlimit="10"/>
<path d="M782.681 778.142C731.142 807.73 732.096 891.722 763.911 941.672C769.001 949.626 775.046 957.262 782.681 962.988C792.543 970.306 804.951 973.806 817.041 976.033C861.581 983.986 910.893 971.578 941.753 938.49C972.613 905.403 980.567 850.998 954.797 813.775C938.89 790.868 912.802 776.551 885.76 770.188C858.718 763.825 825.63 753.644 782.681 778.142Z" fill="white" stroke="black" stroke-width="20" stroke-miterlimit="10"/>
<path d="M859.036 901.904C871.16 901.904 880.988 892.075 880.988 879.951C880.988 867.827 871.16 857.999 859.036 857.999C846.912 857.999 837.084 867.827 837.084 879.951C837.084 892.075 846.912 901.904 859.036 901.904Z" fill="black"/>
</svg>
