<svg width="1760" height="1760" viewBox="0 0 1760 1760" fill="none" xmlns="http://www.w3.org/2000/svg">
<rect width="1760" height="1760" fill="white"/>
<path d="M494.929 679.153C462.915 711.168 415.731 699.952 402.01 709.099C380.286 723.201 378 753.692 378 779.609C378 858.504 380.668 942.353 424.878 1007.53C447.364 1041.07 479.379 1066.98 512.155 1090.61C547.219 1116.15 583.807 1139.4 621.157 1160.74C642.5 1172.94 666.511 1184.76 690.903 1180.56C706.91 1177.89 720.631 1168.75 733.589 1159.22C762.555 1137.49 788.852 1111.96 820.485 1094.81C852.119 1077.66 891.374 1068.89 924.532 1084.14C969.124 1104.34 985.893 1158.46 991.229 1207.24C996.565 1256.03 996.183 1308.24 1023.24 1348.64C1047.25 1384.09 1091.46 1405.05 1134.15 1400.48C1171.12 1396.67 1204.66 1375.32 1231.34 1349.4C1266.4 1315.87 1293.08 1273.56 1308.32 1227.44C1371.59 1036.49 1323.57 896.237 1295.75 847.833C1195.13 673.654 1088.03 656.503 1025.91 668.699C980.176 677.465 886.801 679.752 898.997 557.789C913.099 417.913 836.111 408.765 801.048 415.626C708.053 433.539 700.431 527.298 700.431 614.578C700.431 654.597 676.039 678.228 637.165 688.137C544.551 711.005 560.939 612.673 485.477 688.137L494.929 679.153Z" fill="#B0FCA4" stroke="black" stroke-width="20" stroke-miterlimit="10"/>
<path d="M1077.75 848.975C1022.49 903.096 1032.4 1039.92 1060.98 1124.15C1065.56 1137.87 1070.89 1150.45 1077.75 1159.98C1086.52 1172.18 1097.57 1178.27 1108.62 1182.09C1148.64 1195.43 1192.85 1174.46 1220.29 1119.2C1247.73 1063.93 1254.97 972.08 1232.11 909.193C1218.01 870.699 1194.38 846.306 1169.98 836.016C1145.59 825.725 1112.82 814.672 1077.75 848.975Z" fill="white" stroke="black" stroke-width="20" stroke-miterlimit="10"/>
<path d="M1145.97 1057.07C1156.92 1057.07 1165.79 1040.52 1165.79 1020.1C1165.79 999.685 1156.92 983.133 1145.97 983.133C1135.03 983.133 1126.15 999.685 1126.15 1020.1C1126.15 1040.52 1135.03 1057.07 1145.97 1057.07Z" fill="black"/>
</svg>
