<svg width="1760" height="1760" viewBox="0 0 1760 1760" fill="none" xmlns="http://www.w3.org/2000/svg">
<rect width="1760" height="1760" fill="white"/>
<path d="M1157.2 404.216C1169.25 406.407 1181.3 409.694 1191.16 415.721C1214.17 429.965 1225.68 458.455 1230.61 485.3C1244.3 559.81 1222.94 635.416 1210.88 709.926C1200.48 772.931 1197.19 837.032 1207.05 900.037C1216.36 959.755 1238.28 1017.28 1253.62 1075.9C1268.96 1134.53 1277.72 1197.53 1260.74 1255.6C1240.47 1324.64 1184.04 1381.61 1116.11 1405.72C1047.62 1430.38 960.515 1417.77 918.33 1358.06C904.634 1338.33 896.416 1314.77 888.198 1292.31C872.858 1249.03 855.327 1205.75 827.934 1169.04C800.541 1132.33 760 1102.75 714.528 1096.72C667.413 1090.7 620.297 1109.87 577.564 1130.14C536.475 1149.87 487.716 1170.68 447.175 1149.32C411.016 1130.14 398.416 1082.48 404.442 1041.94C410.468 1001.39 430.191 964.138 443.888 925.787C481.142 819.5 475.116 598.161 483.333 523.103C486.073 499.545 647.69 647.469 830.673 555.427C901.347 519.816 1088.71 392.71 1156.65 403.667L1157.2 404.216Z" fill="#2667FF" stroke="black" stroke-width="20" stroke-miterlimit="10"/>
<path d="M809.3 813.473C784.647 834.292 758.35 861.685 764.376 894.01C768.211 914.281 784.647 930.717 801.083 944.414C821.901 961.397 845.459 976.738 871.208 983.86C897.505 990.982 926.541 988.244 947.36 972.355C969.274 955.371 977.492 926.882 982.422 899.489C991.736 849.085 993.38 795.394 974.753 746.633C972.561 741.155 970.37 735.676 966.535 731.841C957.221 722.527 941.881 721.979 930.376 727.458C918.871 732.936 838.337 789.367 809.848 814.021L809.3 813.473Z" fill="white" stroke="black" stroke-width="20" stroke-miterlimit="10"/>
<path d="M903.358 895.124C909.702 884.817 904.818 870.29 892.449 862.677C880.081 855.065 864.911 857.25 858.568 867.558C852.224 877.865 857.109 892.392 869.477 900.004C881.846 907.617 897.015 905.432 903.358 895.124Z" fill="#030005"/>
</svg>
