<svg width="1760" height="1760" viewBox="0 0 1760 1760" fill="none" xmlns="http://www.w3.org/2000/svg">
<rect width="1760" height="1760" fill="white"/>
<path d="M679.412 382.186C642.298 343.502 586.888 386.368 548.728 424.006C523.114 449.098 497.5 479.94 499.069 516.009C499.591 531.692 523.636 571.42 523.636 667.606C523.636 768.497 480.25 913.821 528.864 1056.53C555.001 1132.85 582.183 1212.83 567.023 1268.77C528.341 1413.57 674.707 1403.11 719.662 1387.43C893.733 1327.32 1195.87 1123.44 1262.26 905.457C1288.92 817.635 1328.13 733.996 1360.54 648.265C1373.08 615.854 1385.63 582.399 1387.72 547.897C1389.81 513.396 1380.4 475.757 1354.26 452.756C1306.69 409.891 1230.9 430.279 1171.31 406.755C1150.92 398.391 1116.94 369.64 1096.55 361.799C1026.51 334.093 1032.78 411.982 971.099 436.551C921.961 455.893 866.028 458.507 813.232 451.711C760.436 444.916 713.913 418.778 679.412 382.708V382.186Z" fill="#DAD4FF" stroke="black" stroke-width="20" stroke-miterlimit="10"/>
<path d="M987.301 855.275C1019.71 829.137 1055.26 796.204 1051.07 754.907C1048.46 728.77 1029.12 707.337 1009.78 689.563C985.209 667.085 957.504 646.697 925.618 636.765C893.731 626.833 857.139 629.446 829.957 648.788C801.206 669.698 788.661 705.768 779.775 740.269C763.57 804.045 756.252 872.002 775.07 934.732C777.161 941.528 779.775 948.324 784.479 954.074C794.934 966.62 814.798 967.142 829.434 960.869C844.071 954.596 949.664 885.594 987.301 855.275Z" fill="white" stroke="black" stroke-width="20" stroke-miterlimit="10"/>
<path d="M930.924 783.271C939.75 770.42 934.943 751.787 920.188 741.654C905.433 731.52 886.318 733.724 877.492 746.575C868.667 759.426 873.473 778.059 888.228 788.193C902.982 798.326 922.099 796.123 930.924 783.271Z" fill="#030005"/>
</svg>
