<svg width="1760" height="1760" viewBox="0 0 1760 1760" fill="none" xmlns="http://www.w3.org/2000/svg">
<rect width="1760" height="1760" fill="white"/>
<path d="M481.532 1048.43C454.896 1089.82 454.176 1146.34 479.373 1188.45C504.569 1230.57 554.962 1256.48 603.916 1252.53C642.791 1249.29 680.945 1226.97 696.063 1190.97C707.222 1164.33 705.062 1134.1 713.701 1106.38C722.34 1078.66 750.776 1052.39 777.413 1063.55C798.65 1072.18 805.489 1099.18 804.769 1122.22C804.049 1145.26 801.53 1167.93 805.489 1190.61C814.488 1245.33 862.002 1250.01 897.277 1252.53C950.19 1255.76 1001.66 1220.13 1017.5 1169.37C1029.38 1131.22 1015.34 1090.18 997.704 1054.19C984.025 1026.47 967.828 996.953 972.507 965.996C975.027 949.798 983.305 935.039 993.744 922.44C1012.46 899.763 1039.46 883.565 1068.61 879.965C1099.21 876.006 1131.25 886.804 1153.56 908.042C1175.88 929.28 1187.4 961.317 1184.52 991.913C1182.36 1017.11 1170.84 1041.23 1172.28 1066.43C1174.44 1101.34 1202.88 1131.58 1236.35 1140.94C1269.83 1150.3 1306.9 1141.3 1336.06 1122.22C1365.21 1103.14 1387.17 1074.34 1404.09 1044.11C1440.44 978.955 1455.56 896.163 1421.73 829.57C1408.41 803.293 1393.29 777.736 1373.49 755.778C1308.7 683.066 1400.85 428.213 1258.31 531.162C1196.04 575.798 1214.04 590.916 946.231 620.792C805.849 636.631 616.874 623.673 599.596 633.032C551.723 658.229 623.713 688.466 590.237 777.016C556.762 865.567 538.405 957.717 480.452 1048.07L481.532 1048.43Z" fill="#7968D9" stroke="black" stroke-width="20" stroke-miterlimit="10"/>
<path d="M745.014 770.178C703.98 794.655 704.7 864.487 729.896 906.243C733.856 913.082 738.895 919.202 745.014 923.881C752.933 930.001 762.652 932.88 772.371 934.68C808.006 941.159 847.241 931.08 871.717 903.363C896.194 875.646 902.673 830.651 882.156 799.694C869.558 780.616 848.68 768.737 827.083 763.698C805.486 758.658 778.85 750.02 745.014 770.178Z" fill="white" stroke="black" stroke-width="20" stroke-miterlimit="10"/>
<path d="M805.845 872.766C815.586 872.766 823.483 864.547 823.483 854.408C823.483 844.269 815.586 836.05 805.845 836.05C796.104 836.05 788.207 844.269 788.207 854.408C788.207 864.547 796.104 872.766 805.845 872.766Z" fill="black"/>
</svg>
