<svg width="1760" height="1760" viewBox="0 0 1760 1760" fill="none" xmlns="http://www.w3.org/2000/svg">
<rect width="1760" height="1760" fill="white"/>
<path d="M626.853 505.694C586.069 532.484 570.875 586.864 577.272 635.246C583.67 683.628 608.46 727.212 632.85 769.597C657.24 811.981 682.431 855.165 690.827 903.147C699.624 953.529 688.429 1006.71 660.04 1049.09C633.251 1089.88 591.267 1121.87 576.872 1168.25C566.077 1203.84 574.074 1243.42 592.467 1275.81C610.859 1308.2 638.848 1334.19 668.837 1356.58C704.023 1382.17 747.605 1404.16 789.989 1392.97C837.17 1380.57 873.155 1340.59 899.145 1299.4C1019.9 1111.87 1085.87 1348.18 1235.41 1198.64C1332.17 1101.87 1249.41 982.718 1126.65 960.326C1003.9 937.934 1003.1 710.818 1221.82 724.413C1378.96 734.01 1269.4 501.296 1175.04 519.689C966.319 560.874 971.517 444.916 887.15 403.332C838.769 379.74 777.993 381.34 732.411 410.529C693.627 435.32 669.236 477.305 626.853 505.294V505.694Z" fill="#99E6FF" stroke="black" stroke-width="20" stroke-miterlimit="10"/>
<path d="M847.961 787.19C893.943 783.592 937.526 814.38 959.517 854.765C964.715 864.761 969.113 875.158 970.313 886.354C972.712 907.546 963.116 928.338 949.521 944.732C925.531 973.921 887.945 990.715 850.36 989.516C846.362 989.516 841.964 988.715 839.565 985.917C837.965 983.917 837.566 981.119 837.166 978.719C831.568 928.338 828.77 877.957 828.77 827.176C828.77 811.182 831.169 788.79 847.562 787.19H847.961Z" fill="white" stroke="black" stroke-width="20" stroke-miterlimit="10"/>
<path d="M911.09 895.553C912.162 887.453 905.932 879.947 897.175 878.788C888.419 877.628 880.451 883.255 879.379 891.355C878.307 899.455 884.536 906.963 893.293 908.122C902.049 909.281 910.018 903.653 911.09 895.553Z" fill="black"/>
</svg>
