<svg width="1760" height="1760" viewBox="0 0 1760 1760" fill="none" xmlns="http://www.w3.org/2000/svg">
<rect width="1760" height="1760" fill="white"/>
<path d="M611.793 673.723C571.687 715.474 498.707 698.379 450.054 729.939C427.042 745.061 411.592 771.361 409.291 798.976C406.989 826.591 418.495 854.863 438.877 873.273C465.505 897.271 503.638 903.517 534.211 921.927C565.77 940.666 589.11 972.554 597.657 1008.39C601.602 1024.83 602.26 1042.91 595.028 1058.36C585.823 1078.41 565.769 1090.9 552.291 1108.33C532.895 1132.98 527.636 1166.84 534.211 1197.75C540.786 1228.65 558.208 1255.93 579.905 1278.62C606.862 1306.56 641.708 1328.26 680.171 1332.86C718.633 1337.46 760.382 1322.67 782.408 1290.78C801.475 1262.84 803.448 1227 805.749 1193.14C808.379 1158.3 812.652 1123.45 825.473 1091.23C838.293 1059.02 861.634 1029.43 893.522 1015.62C933.957 997.868 982.61 1008.06 1018.44 1033.7C1036.85 1046.85 1052.63 1064.28 1059.21 1085.64C1065.45 1107.34 1061.84 1130.35 1060.85 1152.71C1059.53 1180.65 1063.15 1208.92 1071.04 1235.88C1078.6 1261.52 1090.44 1286.51 1110.49 1304.59C1132.51 1324.64 1163.74 1334.18 1193.33 1329.9C1222.92 1325.63 1250.2 1307.88 1265.65 1282.56C1286.69 1248.7 1285.71 1205.64 1278.8 1166.19C1272.56 1131.01 1261.71 1096.49 1246.59 1064.27C1235.08 1039.29 1221.27 1015.29 1212.4 989.32C1175.91 880.176 1320.88 895.956 1327.13 803.907C1333.37 711.858 1315.62 677.34 1233.77 627.37C1201.88 607.974 1161.44 600.741 1138.1 571.812C1133.17 565.565 1118.38 522.171 1076.3 550.772C1054.27 565.894 978.337 602.056 944.148 544.526C901.412 472.53 863.278 397.247 798.188 437.025C780.107 448.203 770.245 469.242 766.3 489.953C762.355 510.665 763.341 532.362 761.697 553.402C760.054 574.77 755.123 596.467 743.288 614.22C731.453 631.972 711.401 645.451 689.704 644.794C678.527 644.794 668.008 640.848 656.831 641.506C641.051 642.492 628.559 655.642 611.136 673.723H611.793Z" fill="#E6E1E1" stroke="black" stroke-width="20" stroke-miterlimit="10"/>
<path d="M785.364 862.752C763.996 861.766 741.972 860.78 723.562 850.26C705.153 839.74 691.346 816.071 697.592 793.387C707.125 757.554 751.505 751.965 779.447 729.281C810.02 704.296 818.567 658.601 840.921 624.74C845.852 617.179 852.099 609.946 859.989 607.316C875.439 602.056 889.903 616.192 897.464 630.986C905.025 645.78 909.299 663.532 921.463 674.38C939.543 689.831 965.843 683.914 989.512 682.599C1013.18 681.284 1042.11 692.462 1042.11 718.104C1042.11 750.321 996.744 764.128 990.498 796.017C985.896 819.687 1004.63 838.754 1020.08 854.863C1035.53 870.971 1050 896.942 1036.85 916.996C1023.37 937.707 994.442 930.803 975.704 917.982C956.966 905.161 937.571 887.08 915.217 892.668C887.274 899.572 870.508 940.665 842.237 940.337C825.142 940.337 812.651 923.571 805.747 906.805C798.844 890.039 806.52 870.642 796 862.752H785.364Z" fill="white" stroke="black" stroke-width="20" stroke-miterlimit="10"/>
<path d="M918.067 790.566C922.511 774.276 912.624 757.391 895.984 752.851C879.344 748.311 862.253 757.836 857.809 774.126C853.365 790.416 863.251 807.303 879.891 811.843C896.53 816.382 913.622 806.856 918.067 790.566Z" fill="black"/>
</svg>
