<svg width="1760" height="1760" viewBox="0 0 1760 1760" fill="none" xmlns="http://www.w3.org/2000/svg">
<rect width="1760" height="1760" fill="white"/>
<path d="M1099.52 531.971C1097.77 474.789 1070.27 463.441 1047.57 459.949C1024.88 456.457 1001.31 463.004 980.792 473.044C917.065 504.472 876.035 569.51 849.845 635.858C823.656 702.206 808.815 772.919 778.697 837.521C762.111 873.315 736.358 910.418 697.074 916.529C670.885 920.894 643.387 910.417 618.507 918.711C591.444 927.877 576.603 956.25 555.215 975.02C525.534 1000.77 481.449 1009.07 458.315 1040.93C434.308 1074.1 441.291 1119.94 450.894 1159.66C460.496 1199.38 474.464 1242.59 509.82 1263.11C528.589 1274.02 550.85 1277.08 572.238 1276.64C640.766 1275.77 706.24 1245.65 774.332 1245.65C852.464 1245.65 924.921 1286.24 988.649 1331.64C1029.68 1360.89 1142.29 1435.09 1192.49 1395.81C1215.62 1377.91 1246.61 1350.41 1213.44 1255.25C1083.37 882.481 1502.4 725.777 1315.14 625.382C1238.76 584.351 1104.32 669.905 1099.52 531.971Z" fill="#FFC466" stroke="black" stroke-width="20" stroke-miterlimit="10"/>
<path d="M809.256 1045.29C804.454 1054.46 799.652 1065.37 801.398 1074.98C803.144 1085.45 812.31 1091.13 820.603 1095.49C855.959 1113.83 893.498 1127.79 931.909 1137.83C940.202 1140.02 949.369 1142.2 958.098 1139.58C977.74 1133.9 990.398 1109.9 1000 1088.51C1015.28 1054.9 1030.12 1010.81 1009.6 986.804C1002.62 978.511 992.144 974.582 982.105 971.526C953.733 962.36 924.051 954.939 894.37 950.574C885.64 949.265 876.038 947.955 867.308 952.756C858.578 957.558 821.914 1020.41 809.256 1045.73V1045.29Z" fill="white" stroke="black" stroke-width="20" stroke-miterlimit="10"/>
<path d="M938.356 1050.01C942.177 1039.35 937.548 1027.93 928.016 1024.52C918.485 1021.1 907.66 1026.98 903.839 1037.65C900.018 1048.31 904.647 1059.73 914.178 1063.14C923.71 1066.56 934.534 1060.68 938.356 1050.01Z" fill="black"/>
</svg>
