<svg width="1760" height="1760" viewBox="0 0 1760 1760" fill="none" xmlns="http://www.w3.org/2000/svg">
<rect width="1760" height="1760" fill="white"/>
<path d="M850.655 376.768C807.794 370.392 769.538 404.752 746.868 441.238C724.198 477.724 708.612 520.232 676.378 549.279C660.438 563.449 638.83 580.806 646.623 600.998C650.165 610.562 659.729 616.229 667.168 623.314C688.421 643.505 693.026 676.803 686.296 705.142C679.566 733.48 663.98 759.34 649.103 784.49C598.803 871.277 557.713 968.691 564.798 1068.94C566.923 1096.57 575.424 1127.74 600.928 1138.72C626.078 1149.7 655.125 1134.83 682.046 1139.43C710.029 1144.04 731.283 1169.19 739.784 1196.46C748.286 1223.74 746.159 1252.79 743.326 1281.12C741.2 1303.09 739.075 1326.11 746.16 1347.01C761.746 1395.19 828.34 1418.21 870.138 1389.17C899.539 1368.97 912.645 1331.43 913.354 1296C914.062 1260.58 905.206 1225.51 898.83 1190.44C892.454 1154.66 888.911 1117.47 894.933 1081.69C900.955 1045.91 917.25 1010.49 945.233 987.111C1003.68 937.873 1093.3 951.688 1161.66 917.681C1220.82 888.28 1258.01 825.581 1271.12 760.757C1287.41 682.117 1270.41 628.627 1213.03 572.304C1199.92 559.552 1157.41 508.897 1139.35 506.417C1106.76 501.812 1104.63 529.797 1080.19 552.113C1055.75 574.43 1026 597.809 993.762 591.079C966.487 585.411 948.067 559.552 939.566 533.339C931.064 507.126 929.648 478.787 922.209 451.865C914.77 424.944 902.373 383.852 851.364 376.414L850.655 376.768Z" fill="#99E6FF" stroke="black" stroke-width="20" stroke-miterlimit="10"/>
<path d="M924.336 783.783C873.682 739.504 783.355 772.802 733.055 814.955C724.908 821.686 717.823 829.479 712.864 837.626C706.842 848.608 705.425 860.297 705.779 871.633C706.842 913.078 731.992 952.398 776.624 969.755C821.256 987.112 885.371 978.257 922.21 944.605C944.881 924.059 955.507 897.137 956.57 871.278C957.633 845.419 956.57 811.413 924.69 783.429L924.336 783.783Z" fill="white" stroke="black" stroke-width="20" stroke-miterlimit="10"/>
<path d="M830.234 899.465C844.07 895.926 853.084 884.452 850.369 873.839C847.654 863.225 834.237 857.49 820.402 861.029C806.566 864.569 797.551 876.043 800.266 886.657C802.981 897.27 816.399 903.005 830.234 899.465Z" fill="black"/>
</svg>
