<svg width="1760" height="1760" viewBox="0 0 1760 1760" fill="none" xmlns="http://www.w3.org/2000/svg">
<rect width="1760" height="1760" fill="white"/>
<path d="M441.223 834.818C391.256 858.406 381.637 930.1 384.43 985.345C385.671 1008 395.913 1025.38 410.81 1042.76C439.053 1075.04 484.675 1080.63 526.262 1070.69C567.85 1060.76 610.058 1043.38 652.266 1051.76C700.682 1061.38 736.372 1102.97 761.511 1145.49C786.65 1188.01 805.892 1235.19 840.341 1270.57C879.756 1310.6 937.482 1332.02 993.657 1326.74C1049.83 1321.47 1102.59 1289.81 1133.63 1242.95C1194.77 1150.77 1203.46 1080.63 1203.46 953.377C1203.46 890.994 1280.11 819.611 1308.67 764.366C1337.22 709.121 1342.81 631.841 1294.7 592.425C1256.53 561.078 1196.32 563.872 1162.49 527.559C1136.73 499.937 1130.83 453.382 1096.38 437.554C1057.28 419.863 1018.48 458.038 980.621 478.211C828.547 559.837 765.545 496.523 730.165 527.559C699.44 554.25 761.821 754.434 573.125 805.023C519.434 819.61 497.087 808.438 441.223 834.818Z" fill="#FFF570" stroke="black" stroke-width="20" stroke-miterlimit="10"/>
<path d="M897.447 1015.76C847.169 1044.62 848.1 1126.56 879.136 1175.29C884.101 1183.04 889.998 1190.49 897.447 1196.08C907.068 1203.22 919.171 1206.63 930.965 1208.81C974.414 1216.56 1022.52 1204.46 1052.62 1172.18C1082.73 1139.9 1090.49 1086.83 1065.35 1050.52C1049.83 1028.17 1024.38 1014.21 998.001 1008C971.621 1001.79 939.345 991.861 897.447 1015.76Z" fill="white" stroke="black" stroke-width="20" stroke-miterlimit="10"/>
<path d="M971.625 1136.18C983.451 1136.18 993.039 1126.59 993.039 1114.76C993.039 1102.94 983.451 1093.35 971.625 1093.35C959.798 1093.35 950.211 1102.94 950.211 1114.76C950.211 1126.59 959.798 1136.18 971.625 1136.18Z" fill="black"/>
</svg>
