<svg width="1760" height="1760" viewBox="0 0 1760 1760" fill="none" xmlns="http://www.w3.org/2000/svg">
<rect width="1760" height="1760" fill="white"/>
<path d="M498.754 610.31C422.339 621.997 363.454 702.46 375.591 778.428C380.086 805.848 400.313 830.122 400.313 857.991C400.313 969.92 403.909 1049.03 382.333 1155.12C373.793 1197.82 400.763 1246.37 469.986 1224.34C497.855 1215.35 568.876 1123.65 613.376 1085.44C653.831 1050.83 713.615 1030.6 761.262 1054.88C790.03 1069.71 809.359 1097.58 831.834 1120.51C854.309 1143.43 885.774 1164.11 917.239 1156.02C958.143 1145.68 973.426 1096.23 978.371 1054.43C983.315 1012.62 988.709 963.627 1024.67 941.601C1069.17 913.731 1132.55 953.737 1142.44 1005.43C1152.33 1057.13 1124.46 1108.82 1088.05 1146.58C1051.64 1184.34 1006.69 1213.56 971.179 1252.21C959.492 1264.8 948.704 1279.18 944.658 1296.27C934.32 1340.77 977.023 1381.22 1020.62 1395.16C1088.05 1416.29 1164.01 1397.41 1222 1356.5C1279.99 1315.59 1320.89 1254.46 1349.21 1189.73C1384.27 1109.27 1400.9 1015.32 1368.99 933.509C1336.62 850.799 1259.31 790.115 1233.24 705.157C1224.25 675.489 1220.65 642.225 1200.42 618.851C1154.13 565.808 1066.92 602.668 998.598 585.137C901.506 559.965 851.612 424.661 751.373 426.01C644.392 427.359 600.791 594.577 498.754 609.861V610.31Z" fill="#FCFFA6" stroke="black" stroke-width="20" stroke-miterlimit="10"/>
<path d="M736.536 649.416C688.439 702.459 701.025 826.075 723.05 904.29C726.646 916.876 731.142 928.563 736.536 937.554C743.728 948.791 752.268 954.635 760.808 957.782C792.273 969.919 826.885 951.039 848.911 899.345C870.936 847.651 876.33 763.143 858.35 704.706C847.113 669.195 828.683 646.719 809.354 636.83C790.026 626.941 762.607 620.198 736.536 648.967V649.416Z" fill="white" stroke="black" stroke-width="20" stroke-miterlimit="10"/>
<path d="M786.428 949.691C794.869 949.691 801.712 934.396 801.712 915.528C801.712 896.661 794.869 881.365 786.428 881.365C777.988 881.365 771.146 896.661 771.146 915.528C771.146 934.396 777.988 949.691 786.428 949.691Z" fill="black"/>
</svg>
