<svg width="1760" height="1760" viewBox="0 0 1760 1760" fill="none" xmlns="http://www.w3.org/2000/svg">
<rect width="1760" height="1760" fill="white"/>
<path d="M654.966 695.838C627.092 656.227 571.835 640.089 527.824 620.039C517.555 615.148 507.284 610.258 500.927 601.455C483.812 577.493 503.861 545.218 523.421 523.212C561.564 480.178 600.197 436.165 649.098 406.334C697.999 376.504 759.614 361.344 813.895 380.416C888.714 406.823 933.215 490.447 1009.01 513.92C1089.21 538.861 1179.68 489.469 1257.92 519.3C1326.38 545.218 1361.1 626.885 1352.79 699.26C1344.47 771.636 1303.4 836.187 1256.45 892.425C1214.89 942.306 1165.98 994.631 1165.49 1059.67C1165.01 1116.89 1202.66 1167.26 1211.95 1223.5C1223.2 1293.91 1181.63 1370.2 1115.13 1395.63C1048.62 1421.06 964.021 1387.32 936.148 1321.79C916.587 1275.82 921.478 1217.14 884.802 1183.4C839.324 1141.34 764.016 1170.19 718.538 1212.25C673.06 1254.3 634.917 1310.05 575.746 1327.66C557.164 1333.04 535.158 1334.01 519.51 1321.79C509.73 1313.96 503.372 1302.23 499.46 1290.49C473.543 1215.67 520 1138.89 564.5 1073.85C742.5 813.692 685.285 739.36 655.455 696.815L654.966 695.838Z" fill="#FF3B83" stroke="black" stroke-width="20" stroke-miterlimit="10"/>
<path d="M969.884 689.481C931.741 695.838 887.241 707.085 872.082 742.784C862.302 765.279 868.171 791.687 875.995 814.671C885.775 844.501 898.979 873.354 920.495 895.849C942.012 918.344 973.308 933.504 1004.12 929.592C1036.88 925.68 1063.78 901.718 1086.76 877.756C1128.81 832.765 1165.49 780.928 1179.18 720.778C1180.65 714.421 1181.63 707.574 1180.65 700.728C1177.71 686.057 1162.07 676.277 1146.91 674.81C1131.75 673.343 1014.38 681.656 969.884 689.481Z" fill="white" stroke="black" stroke-width="20" stroke-miterlimit="10"/>
<path d="M1010.49 830.438C1023.55 823.946 1028 806.332 1020.42 791.096C1012.85 775.859 996.125 768.769 983.065 775.26C970.005 781.752 965.557 799.367 973.131 814.603C980.704 829.84 997.431 836.929 1010.49 830.438Z" fill="#030005"/>
</svg>
