<svg width="1760" height="1760" viewBox="0 0 1760 1760" fill="none" xmlns="http://www.w3.org/2000/svg">
<rect width="1760" height="1760" fill="white"/>
<path d="M834.267 668.211C816.108 614.429 799.345 578.109 790.265 521.883C785.376 491.5 783.63 459.72 794.805 431.083C805.98 402.446 832.522 378 863.253 378C912.843 378 946.717 417.463 949.161 467.054C951.606 516.645 930.303 598.015 950.209 643.415C966.273 680.084 1008.18 701.039 1048.34 704.88C1115.74 711.516 1189.77 655.289 1245.65 693.006C1283.02 718.5 1288.95 770.186 1290.35 815.586C1292.1 865.526 1292.1 918.609 1266.6 961.565C1242.86 1001.73 1199.9 1027.92 1175.46 1067.73C1163.93 1086.24 1156.95 1108.24 1159.39 1129.89C1163.58 1162.37 1188.03 1187.52 1208.28 1213.01C1228.54 1238.5 1246 1272.73 1232.73 1302.76C1220.86 1329.65 1189.77 1341.53 1161.49 1350.61C1125.52 1362.13 1085.71 1373.66 1050.44 1358.99C1029.83 1350.61 1013.77 1334.19 994.211 1324.42C952.305 1303.11 900.969 1313.59 857.665 1331.4C814.362 1349.21 773.153 1375.05 727.056 1384.48C680.958 1393.91 625.782 1382.39 602.035 1341.53C594.003 1327.91 590.511 1312.19 587.018 1296.83C580.383 1268.19 573.748 1239.2 567.113 1210.57C561.176 1185.42 555.588 1159.93 559.08 1134.43C569.906 1054.81 676.07 1006.96 687.245 927.689C692.134 892.068 676.069 851.208 697.721 822.571C723.214 788.696 750.803 816.983 775.248 807.205C812.266 792.537 861.856 750.629 834.267 668.56V668.211Z" fill="#DEB0FF" stroke="black" stroke-width="20" stroke-miterlimit="10"/>
<path d="M997.357 1043.29C1015.87 1033.16 1012.37 990.551 1012.37 964.01C1012.37 954.231 1012.37 944.104 1008.53 935.722C1002.25 921.753 988.976 917.911 976.753 915.816C953.006 911.974 929.258 911.276 905.511 914.069C901.321 914.419 897.13 915.117 893.288 917.562C884.558 923.499 881.066 937.817 878.97 950.39C875.478 972.391 872.684 994.742 870.938 1017.09C870.588 1022.68 870.24 1028.62 872.335 1033.86C875.478 1041.89 883.511 1044.33 890.495 1045.73C928.56 1053.06 972.562 1056.91 997.357 1043.29Z" fill="white" stroke="black" stroke-width="20" stroke-miterlimit="10"/>
<path d="M941.477 992.646C947.263 992.646 951.954 987.956 951.954 982.17C951.954 976.384 947.263 971.693 941.477 971.693C935.691 971.693 931 976.384 931 982.17C931 987.956 935.691 992.646 941.477 992.646Z" fill="black" stroke="black" stroke-width="20" stroke-miterlimit="10"/>
</svg>
