<svg width="1760" height="1760" viewBox="0 0 1760 1760" fill="none" xmlns="http://www.w3.org/2000/svg">
<g clip-path="url(#clip0_10_485)">
<path d="M1760 0H0V1760H1760V0Z" fill="white"/>
</g>
<g clip-path="url(#clip1_10_485)">
<path d="M841.281 296.591C751.851 312.57 801.321 424.081 803.601 477.361C805.121 511.991 798.651 550.051 773.541 573.641C733.961 610.561 671.171 596.471 617.131 601.041C606.091 602.181 594.681 604.081 586.301 611.321C571.461 624.261 572.601 647.091 574.501 666.501C582.111 738.811 585.161 816.06 550.521 880C518.171 939.75 455.381 981.99 434.831 1047.07C431.791 1057.34 429.501 1068 432.171 1078.28C435.591 1090.84 466.041 1138.79 510.571 1206.91C524.271 1227.84 523.891 1255.62 539.491 1275.03C553.951 1293.3 576.021 1304.34 598.101 1311.95C619.031 1319.18 641.101 1324.51 663.181 1321.46C685.251 1318.42 706.561 1306.62 716.461 1286.83C732.061 1255.24 714.181 1218.71 702.381 1185.6C682.971 1130.8 681.831 1068.77 703.141 1014.72C709.991 996.83 719.881 979.71 735.111 967.91C750.331 956.11 771.261 950.79 788.771 958.78C811.601 968.67 821.121 996.46 821.881 1021.57C822.641 1046.69 816.551 1071.43 819.981 1096.16C826.831 1146.01 875.541 1186.35 925.401 1183.69C975.261 1181.03 1020.16 1136.5 1022.06 1086.26C1023.2 1059.24 1013.31 1032.98 1004.17 1007.48C995.041 981.98 985.901 955.34 988.571 928.32C991.231 901.3 1008.74 873.9 1035.38 868.57C1062.4 863.24 1089.42 882.27 1101.98 906.63C1114.54 930.99 1116.44 959.53 1117.96 986.93C1119.48 1013.95 1121.01 1041.35 1122.53 1068.37C1123.67 1086.26 1124.81 1104.9 1133.95 1120.13C1145.37 1139.16 1167.82 1149.81 1190.27 1150.2C1239.74 1151.72 1281.22 1108.72 1295.3 1061.15C1309.38 1013.58 1301.39 962.96 1293.4 914.25C1278.56 825.58 1290.74 682.481 1259.91 598.001C1248.11 565.271 1140.03 559.941 1121.77 558.041C1077.62 553.471 1033.1 551.571 988.571 551.951C970.681 551.951 952.041 552.331 936.051 544.341C883.151 518.081 898.371 451.48 907.511 416.09C912.841 395.16 929.571 280.992 841.281 296.592V296.591Z" fill="#99E6FF" stroke="black" stroke-width="20" stroke-miterlimit="10"/>
<path d="M959.251 800.838C974.471 789.798 971.811 743.378 971.811 714.448C971.811 703.788 971.811 692.758 968.771 683.618C963.821 668.398 952.791 664.208 942.891 661.928C923.481 657.738 904.071 656.978 884.661 660.028C881.241 660.408 877.811 661.168 874.771 663.838C867.541 670.308 864.881 685.908 863.351 699.608C860.301 723.588 858.401 747.938 856.881 772.298C856.881 778.388 856.121 784.858 858.021 790.568C860.681 799.318 867.151 801.988 872.861 803.508C903.691 811.498 939.081 815.688 959.251 800.848V800.838Z" fill="white" stroke="black" stroke-width="20" stroke-miterlimit="10"/>
<path d="M917 745.66C923.31 745.66 928.42 740.55 928.42 734.24C928.42 727.93 923.31 722.82 917 722.82C910.69 722.82 905.58 727.93 905.58 734.24C905.58 740.55 910.69 745.66 917 745.66Z" fill="black" stroke="black" stroke-width="20" stroke-miterlimit="10"/>
</g>
<defs>
<clipPath id="clip0_10_485">
<rect width="1760" height="1760" fill="white"/>
</clipPath>
<clipPath id="clip1_10_485">
<rect width="892" height="1048.34" fill="white" transform="translate(421 284)"/>
</clipPath>
</defs>
</svg>
