<svg width="1760" height="1760" viewBox="0 0 1760 1760" fill="none" xmlns="http://www.w3.org/2000/svg">
<rect width="1760" height="1760" fill="white"/>
<path d="M711.441 362.929C628.411 410.565 690.601 506.168 704.163 534.287C717.726 562.406 785.871 649.408 704.163 667.602C689.608 670.91 633.041 668.595 627.418 682.488C624.772 689.435 656.528 744.019 656.528 957.389C656.528 997.086 674.392 1083.1 650.574 1114.85C641.973 1126.1 630.727 1135.36 621.134 1145.95C595.331 1174.73 583.753 1216.41 593.346 1253.79C602.939 1291.17 634.365 1322.6 672.076 1330.21C709.787 1337.82 752.13 1319.62 770.985 1285.88C783.225 1263.72 785.21 1237.58 795.795 1214.43C806.381 1191.27 831.191 1170.76 854.677 1179.03C872.871 1185.65 881.802 1206.16 884.779 1225.34C887.756 1244.53 886.764 1264.38 894.373 1282.24C906.612 1310.69 941.677 1326.9 971.118 1317.97C1000.56 1309.04 1020.41 1275.29 1014.12 1245.19C1009.16 1221.37 990.966 1200.2 994.274 1176.05C998.244 1149.59 1030.99 1134.04 1056.13 1142.64C1081.27 1151.24 1097.15 1178.7 1098.48 1205.49C1099.8 1228.32 1092.19 1251.48 1095.83 1273.97C1103.11 1318.3 1152.73 1345.76 1197.38 1342.78C1202.35 1342.45 1207.31 1341.79 1211.94 1339.47C1217.23 1336.49 1223.85 1332.52 1224.18 1326.57C1230.46 1220.38 1219.22 641.469 1148.76 628.898C1007.51 603.426 941.677 585.231 819.282 532.633C806.381 527.009 825.235 481.027 816.635 433.721C808.034 386.416 756.76 337.126 711.441 363.26V362.929Z" fill="#FF82C1" stroke="black" stroke-width="20" stroke-miterlimit="10"/>
<path d="M869.237 901.813C862.952 922.323 857.327 947.133 871.552 963.674C880.814 973.929 895.37 977.567 909.263 979.552C926.795 981.868 944.989 982.53 961.86 977.568C978.731 972.605 994.278 960.697 1000.23 944.156C1006.52 926.623 1001.22 907.436 994.609 890.234C982.369 858.146 965.168 827.05 938.042 805.548C935.065 803.232 931.758 800.917 928.119 799.924C919.849 797.609 910.917 803.232 906.286 810.179C901.655 817.126 876.183 877.995 868.906 901.813H869.237Z" fill="white" stroke="black" stroke-width="20" stroke-miterlimit="10"/>
<path d="M932.751 930.592C942.434 930.592 950.283 924.075 950.283 916.036C950.283 907.997 942.434 901.48 932.751 901.48C923.068 901.48 915.219 907.997 915.219 916.036C915.219 924.075 923.068 930.592 932.751 930.592Z" fill="#030005"/>
</svg>
