<svg width="1760" height="1760" viewBox="0 0 1760 1760" fill="none" xmlns="http://www.w3.org/2000/svg">
<rect width="1760" height="1760" fill="white"/>
<path d="M828.695 466.502C727.148 454.413 745.799 664.42 711.259 681.345C676.72 698.27 607.985 683.418 569.646 689.635C563.774 690.671 557.903 692.053 553.067 695.853C542.706 704.488 543.396 720.031 544.777 733.502C568.61 936.947 581.39 1141.43 583.463 1346.25C583.463 1373.2 585.88 1404.63 607.986 1419.83C617.657 1426.39 629.4 1430.53 641.144 1430.53C773.777 1430.53 1157.86 1486.84 1172.37 1423.63C1192.05 1339 997.25 1286.15 971.69 1261.98C940.95 1232.62 928.515 1182.53 949.584 1145.23C970.653 1107.92 1026.61 1093.76 1059.08 1121.39C1093.62 1150.75 1089.82 1192.55 1122.28 1217.76C1137.48 1229.51 1161.31 1232.96 1175.47 1219.49C1209.67 1187.71 1222.1 829.18 1168.91 797.057C1154.41 788.422 917.117 789.458 886.722 758.371C865.999 737.647 871.179 651.64 874.633 622.626C881.887 559.762 883.268 473.065 828.35 466.502H828.695Z" fill="#FFF570" stroke="black" stroke-width="20" stroke-miterlimit="10"/>
<path d="M721.967 1190.82C713.332 1190.13 704.007 1189.78 697.099 1194.27C689.5 1199.11 688.119 1207.4 687.773 1215C685.355 1247.12 686.392 1279.59 690.882 1311.37C691.918 1318.28 693.3 1325.53 697.79 1331.75C708.152 1344.87 730.603 1346.6 749.6 1347.29C779.995 1348.33 817.989 1345.22 829.387 1322.42C833.532 1314.48 833.186 1305.5 832.495 1296.86C830.423 1272.68 826.624 1248.5 820.752 1224.67C819.025 1217.76 816.952 1210.16 810.735 1204.98C804.518 1199.8 745.109 1192.2 721.967 1190.82Z" fill="white" stroke="black" stroke-width="20" stroke-miterlimit="10"/>
<path d="M759.725 1288.07C769.059 1287.57 776.269 1280.53 775.83 1272.34C775.39 1264.15 767.468 1257.91 758.134 1258.41C748.801 1258.91 741.591 1265.96 742.03 1274.15C742.469 1282.34 750.391 1288.57 759.725 1288.07Z" fill="black"/>
</svg>
