<svg width="1760" height="1760" viewBox="0 0 1760 1760" fill="none" xmlns="http://www.w3.org/2000/svg">
<rect width="1760" height="1760" fill="white"/>
<path d="M1023.16 412.587C1000.28 403.436 917.165 404.961 901.914 502.19C864.93 735.156 856.541 733.631 756.266 733.631C726.907 733.631 699.074 724.861 640.739 715.329C651.033 843.823 656.371 982.992 638.833 1110.72C634.639 1141.99 620.531 1181.26 588.885 1181.64C568.678 1181.64 552.664 1164.49 544.657 1146.18C536.65 1127.88 532.837 1107.67 522.924 1090.13C502.716 1054.29 454.676 1037.52 416.929 1053.15C379.183 1068.78 355.925 1114.16 366.6 1153.81C382.233 1214.05 452.769 1236.93 505.386 1270.1C553.427 1300.22 591.173 1344.83 640.739 1372.67C669.716 1388.68 701.362 1398.98 733.77 1406.6C823.752 1427.95 917.546 1432.15 1008.67 1418.8C1036.5 1414.61 1066.62 1407.37 1082.64 1384.49C1099.03 1360.85 1094.46 1328.06 1080.73 1302.89C1067.01 1277.73 1046.04 1257.14 1028.88 1234.64C1008.67 1207.95 992.658 1176.69 989.226 1143.13C985.795 1109.58 996.089 1073.74 1020.49 1051.24C1057.09 1017.31 1122.67 1023.03 1152.79 1062.3C1172.24 1087.46 1176.81 1120.26 1180.63 1151.9C1184.44 1183.55 1188.25 1216.34 1206.55 1242.27C1224.85 1268.19 1262.22 1283.83 1288.91 1266.67C1314.07 1251.04 1318.27 1216.72 1319.79 1186.98C1324.37 1107.29 1328.94 1027.6 1333.52 947.533C1340.76 821.327 1347.63 692.833 1320.94 569.296C1316.36 548.325 1308.74 525.067 1288.91 517.06C1275.56 511.722 1260.31 515.153 1246.21 518.204C1202.36 526.973 1153.56 527.736 1116.19 502.571C1083.02 480.075 1068.15 432.414 1023.16 414.112V412.587Z" fill="#8CFFD9" stroke="black" stroke-width="20" stroke-miterlimit="10"/>
<path d="M1173 736.3C1179.1 747.357 1173 773.284 1159.66 790.823C1139.45 818.276 1101.32 830.858 1068.53 820.564C1035.74 810.269 1011.72 778.241 1010.58 744.306C1010.58 742.4 1010.58 740.494 1011.34 738.587C1012.48 736.3 1015.15 735.156 1017.82 734.393C1071.58 715.329 1163.85 719.904 1172.62 736.3H1173Z" fill="#FAFCFF" stroke="black" stroke-width="20" stroke-miterlimit="10"/>
<path d="M1092.94 784.34C1099.25 784.34 1104.37 779.219 1104.37 772.902C1104.37 766.584 1099.25 761.463 1092.94 761.463C1086.62 761.463 1081.5 766.584 1081.5 772.902C1081.5 779.219 1086.62 784.34 1092.94 784.34Z" fill="black" stroke="black" stroke-width="20" stroke-miterlimit="10"/>
</svg>
