<svg width="1760" height="1760" viewBox="0 0 1760 1760" fill="none" xmlns="http://www.w3.org/2000/svg">
<rect width="1760" height="1760" fill="white"/>
<path d="M1023.7 382.944C952.356 367.396 876.902 416.785 846.263 452.455C782.698 526.54 759.834 623.033 571.426 574.1C549.476 568.613 462.131 503.217 448.412 518.308C437.437 530.198 420.516 968.304 424.632 1253.21C425.089 1287.96 426.005 1324.55 444.297 1354.27C478.137 1409.61 553.591 1417.84 618.528 1419.67C688.038 1421.96 757.547 1424.24 827.057 1426.07C905.255 1428.36 983.453 1431.1 1061.19 1422.87C1100.06 1418.76 1140.31 1411.9 1173.23 1390.86C1217.59 1362.51 1243.66 1312.2 1254.17 1260.98C1264.69 1209.76 1261.49 1156.72 1258.29 1104.12C1257.38 1086.75 1256 1068.91 1247.77 1053.82C1224.91 1011.29 1165 1011.75 1118.36 998.944C1061.65 983.852 1011.35 935.834 1006.78 877.299C1002.2 818.763 1056.16 758.855 1114.24 768.001C1142.14 772.574 1165.46 790.41 1190.15 803.214C1214.85 816.019 1335.12 773.946 1358.44 758.855C1384.51 741.934 1388.16 705.807 1389.54 675.167C1390.91 633.094 1392.28 591.479 1394.11 549.406C1394.57 530.656 1395.48 510.991 1387.71 494.071C1379.93 476.236 1319.57 501.388 1268.35 492.242C1199.3 479.895 1194.27 418.615 1024.61 382.03L1023.7 382.944Z" fill="#3EC790" stroke="black" stroke-width="20" stroke-miterlimit="10"/>
<path d="M892.453 1038.27C812.883 917.542 658.315 990.255 627.676 1088.12C576.916 1250.47 774.013 1267.39 844.437 1238.12C937.727 1199.7 924.921 1088.12 891.996 1038.27H892.453Z" fill="white" stroke="black" stroke-width="20" stroke-miterlimit="10"/>
<path d="M756.631 1152.14C772.795 1152.14 785.899 1140.68 785.899 1126.53C785.899 1112.39 772.795 1100.92 756.631 1100.92C740.467 1100.92 727.363 1112.39 727.363 1126.53C727.363 1140.68 740.467 1152.14 756.631 1152.14Z" fill="black"/>
</svg>
