<svg width="1760" height="1760" viewBox="0 0 1760 1760" fill="none" xmlns="http://www.w3.org/2000/svg">
<rect width="1760" height="1760" fill="white"/>
<path d="M783.411 505.452C753.914 511.616 748.191 553 746.43 582.937C744.669 612.875 748.191 644.134 735.865 671.43C716.053 715.455 664.544 733.506 618.318 747.154C596.746 753.758 573.413 759.921 551.841 752.437C539.074 748.034 528.068 739.229 516.181 732.625C484.924 715.896 443.981 718.537 414.925 738.789C385.869 759.041 370.02 796.903 374.862 831.683C384.548 897.722 457.188 934.703 522.784 947.031C542.155 950.553 562.407 953.194 578.696 964.201C608.633 984.452 615.677 1024.96 618.318 1061.06C621.84 1113.89 620.52 1166.72 614.797 1219.11C611.715 1249.05 609.953 1286.47 635.928 1301.88C645.173 1307.16 656.179 1308.48 667.185 1309.8C764.479 1319.49 862.655 1322.13 960.83 1317.73C1003.53 1315.53 1055.04 1305.84 1070.01 1265.78C1076.17 1249.05 1074.41 1231 1076.17 1213.39C1079.26 1187.41 1092.9 1161.88 1114.92 1147.79C1136.93 1133.7 1168.19 1133.7 1188.44 1150.43C1208.25 1167.16 1213.97 1195.34 1213.09 1221.31C1212.21 1247.29 1206.93 1273.26 1210.01 1299.24C1210.89 1304.96 1212.21 1311.56 1217.05 1315.09C1220.57 1318.17 1225.86 1318.61 1230.26 1319.05C1272.08 1323.45 1313.91 1323.89 1355.73 1319.05C1362.33 1318.17 1369.82 1317.29 1374.66 1312C1378.62 1307.16 1379.06 1300.56 1379.5 1294.39C1390.07 1066.34 1400.63 838.287 1411.64 610.234C1412.52 588.221 1412.52 562.686 1395.79 548.597C1385.23 539.352 1370.26 537.151 1356.17 535.83C1277.81 527.906 1196.36 531.428 1122.4 503.692C1102.59 496.207 1083.22 486.521 1062.09 485.2C1023.78 482.559 989.006 506.773 951.585 515.578C900.516 527.465 844.604 491.364 784.291 504.132L783.411 505.452Z" fill="#DAD4FF" stroke="black" stroke-width="20" stroke-miterlimit="10"/>
<path d="M1024.67 867.345C948.503 786.778 786.492 820.678 750.392 878.352C690.959 974.768 893.032 999.863 966.993 987.095C1064.73 970.365 1056.36 900.364 1024.67 867.345Z" fill="white" stroke="black" stroke-width="20" stroke-miterlimit="10"/>
<path d="M910.822 913.8C911.446 905.069 898.386 897.021 881.652 895.825C864.918 894.628 850.847 900.735 850.222 909.466C849.598 918.197 862.657 926.246 879.392 927.443C896.126 928.639 910.197 922.531 910.822 913.8Z" fill="black"/>
</svg>
