<svg width="1760" height="1760" viewBox="0 0 1760 1760" fill="none" xmlns="http://www.w3.org/2000/svg">
<rect width="1760" height="1760" fill="white"/>
<path d="M414.307 657.649C406.403 670.001 406.746 684.469 406.059 699.291C398.842 871.861 394.718 1044.43 393 1217.35C393 1227.94 393 1239.59 399.53 1247.7C407.434 1257.58 421.524 1259 434.239 1259.7C643.181 1268.52 852.123 1273.82 1061.41 1275.93C1077.56 1275.93 1095.78 1275.58 1107.12 1263.58C1115.71 1254.41 1118.46 1241.35 1120.52 1228.65C1126.36 1195.12 1131.86 1161.24 1137.7 1127.72C1140.45 1112.54 1143.2 1097.01 1152.13 1084.66C1174.47 1053.96 1220.18 1059.96 1255.57 1071.6C1290.97 1083.25 1332.55 1096.66 1362.45 1074.07C1372.76 1066.31 1380.32 1054.66 1385.13 1042.31C1401.28 1000.67 1385.48 949.852 1352.49 920.561C1319.49 891.27 1272.07 882.095 1229.11 890.918C1186.16 899.74 1147.67 924.796 1116.74 956.558C1099.21 974.556 1083.75 994.671 1063.81 1010.2C1030.82 1035.96 984.775 1046.19 945.942 1031.37C907.109 1016.55 878.241 973.85 882.708 931.501C887.176 889.153 929.446 853.157 970.341 860.921C982.712 863.391 994.397 869.037 1006.77 870.802C1019.14 872.566 1033.92 869.038 1039.76 857.745C1043.2 851.04 1042.85 842.923 1042.51 835.159C1039.76 783.282 1034.95 731.405 1028.07 679.882C1026.7 670 1025.33 659.766 1018.8 652.355C1012.27 644.944 1002.3 642.121 992.678 640.357C932.882 628.005 871.024 630.475 809.853 633.299C721.878 637.181 633.558 641.062 545.583 645.297C518.434 646.356 422.212 645.297 414.307 657.649Z" fill="white" stroke="black" stroke-width="20" stroke-miterlimit="10"/>
<path d="M682.011 879.273C672.733 853.511 630.807 856.334 604.689 855.275C595.067 855.275 585.102 854.923 576.51 859.51C562.764 867.274 557.952 885.625 555.203 902.211C550.392 934.326 548.673 967.146 550.048 999.613C550.048 1005.26 550.735 1011.26 553.141 1016.55C558.639 1028.9 572.386 1033.84 584.758 1037.02C606.064 1042.67 628.058 1047.25 649.708 1050.43C655.206 1051.14 661.049 1051.84 666.204 1049.37C674.451 1045.14 677.2 1034.55 678.919 1025.37C687.854 973.851 694.039 913.505 682.011 879.273Z" fill="white" stroke="black" stroke-width="20" stroke-miterlimit="10"/>
<path d="M619.12 963.614C624.814 963.614 629.429 958.874 629.429 953.027C629.429 947.18 624.814 942.44 619.12 942.44C613.426 942.44 608.811 947.18 608.811 953.027C608.811 958.874 613.426 963.614 619.12 963.614Z" fill="black" stroke="black" stroke-width="20" stroke-miterlimit="10"/>
</svg>
