<svg width="1760" height="1760" viewBox="0 0 1760 1760" fill="none" xmlns="http://www.w3.org/2000/svg">
<rect width="1760" height="1760" fill="white"/>
<path d="M887.295 689.111C845.576 685.697 905.879 588.225 920.67 548.782C935.461 509.338 944.941 463.446 924.082 427.416C899.051 384.179 831.164 374.318 795.134 408.831C766.311 436.518 761.002 481.272 766.311 520.716C771.621 560.159 785.654 598.845 787.929 638.668C788.688 648.15 787.928 658.39 783.377 666.734C776.551 678.112 763.277 683.422 750.382 687.214C713.973 697.834 676.427 703.523 638.502 703.902C624.848 703.902 608.539 705.04 602.092 716.797C599.058 722.486 599.059 729.693 599.438 736.14C601.334 790.376 603.609 844.611 605.505 898.846C605.505 907.19 606.264 915.913 602.851 923.498C595.266 942.082 571.752 948.151 551.651 946.255C531.55 944.358 512.208 937.152 492.107 939.428C445.458 944.359 418.531 1003.52 436.736 1046.76C454.94 1090 506.14 1112.37 552.789 1108.2C599.438 1104.03 641.536 1078.24 676.427 1047.14C702.217 1024.38 725.352 997.835 755.692 981.147C782.62 966.356 813.719 960.287 844.438 959.15C892.984 957.633 946.458 972.045 973.765 1012.63C994.624 1043.73 995.384 1087.72 975.283 1119.2C955.182 1150.68 915.36 1168.89 878.193 1163.2C842.543 1157.51 808.409 1132.48 773.517 1142.34C737.867 1152.2 722.317 1193.16 715.111 1229.57C707.905 1265.98 684.391 1370.28 691.976 1382.41C702.595 1399.48 1244.94 1433.99 1252.9 1357.76C1270.35 1193.16 1208.15 1035.76 1214.97 892.778C1218.01 833.232 1222.18 672.423 1214.97 664.079C1206.63 653.839 1033.31 700.489 887.675 688.732L887.295 689.111Z" fill="#2667FF" stroke="black" stroke-width="20" stroke-miterlimit="10"/>
<path d="M889.952 798.34C853.543 747.518 783.001 778.238 768.968 819.199C745.834 887.467 835.718 894.294 868.334 882.158C911.19 865.849 905.123 819.199 890.332 798.34H889.952Z" fill="white" stroke="black" stroke-width="20" stroke-miterlimit="10"/>
<path d="M797.036 829.438C804.367 829.438 810.309 821.966 810.309 812.75C810.309 803.533 804.367 796.062 797.036 796.062C789.705 796.062 783.762 803.533 783.762 812.75C783.762 821.966 789.705 829.438 797.036 829.438Z" fill="black"/>
</svg>
