<svg width="1760" height="1760" viewBox="0 0 1760 1760" fill="none" xmlns="http://www.w3.org/2000/svg">
<rect width="1760" height="1760" fill="white"/>
<path d="M631.672 706.566C600.246 679.829 566.943 650.747 555.217 610.877C543.491 571.006 564.598 518.94 605.875 514.249C634.956 510.966 667.32 531.136 692.18 515.188C702.499 508.621 708.128 497.363 713.288 486.575C728.767 454.209 740.493 419.498 763.007 391.824C785.522 364.149 823.046 344.448 857.287 355.706C902.785 370.247 916.856 426.534 925.299 473.441C933.742 520.347 954.381 576.635 1001.29 583.671C1066.02 593.521 1105.88 501.116 1171.08 495.956C1212.83 492.672 1250.35 529.259 1260.2 570.068C1270.05 610.877 1259.26 654.031 1244.72 693.432C1193.13 829.461 1091.81 965.02 1130.28 1105.27C1148.57 1172.82 1199.23 1238.48 1179.53 1306.03C1158.42 1377.33 1071.17 1403.13 997.064 1407.35C878.863 1414.38 740.493 1381.55 691.242 1274.13C641.523 1165.31 707.659 1040.54 706.721 920.928C705.783 832.744 671.073 740.808 631.204 707.035L631.672 706.566Z" fill="#FFD58C" stroke="black" stroke-width="20" stroke-miterlimit="10"/>
<path d="M830.084 833.682C822.11 862.295 815.543 897.006 832.898 919.521C844.155 934.062 861.979 938.753 879.334 941.567C900.911 944.851 923.425 945.789 944.063 938.753C964.702 931.717 983.933 915.3 990.969 892.316C998.473 867.924 992.376 841.187 984.402 817.265C969.392 772.704 948.285 729.081 914.982 699.061C911.23 695.777 907.477 692.494 902.787 691.556C892.468 688.741 881.68 695.777 876.051 706.097C870.422 716.416 838.996 800.379 830.084 833.682Z" fill="white" stroke="black" stroke-width="20" stroke-miterlimit="10"/>
<path d="M908.413 873.551C920.07 873.551 929.52 864.521 929.52 853.382C929.52 842.242 920.07 833.212 908.413 833.212C896.756 833.212 887.306 842.242 887.306 853.382C887.306 864.521 896.756 873.551 908.413 873.551Z" fill="black"/>
</svg>
