<svg width="1760" height="1760" viewBox="0 0 1760 1760" fill="none" xmlns="http://www.w3.org/2000/svg">
<rect width="1760" height="1760" fill="white"/>
<path d="M1027.96 553.873C1007.53 526.631 1013.94 488.572 1017.95 454.519C1021.95 420.467 1018.75 379.603 989.104 362.377C962.263 346.752 925.407 361.575 908.982 388.016C892.557 414.457 891.756 447.709 896.964 478.156C905.377 526.631 926.208 571.5 941.431 618.373C956.654 665.245 965.468 716.524 949.444 762.996C933.42 809.468 885.747 837.111 836.873 837.111C741.127 837.111 759.554 660.037 785.193 512.609C797.211 443.702 736.72 406.445 698.662 399.635C660.604 392.824 619.743 394.827 582.086 402.439C572.471 404.442 562.454 406.445 555.243 413.255C546.029 422.069 544.427 435.69 543.226 448.109C524.798 663.242 558.45 878.776 592.101 1091.91C594.104 1103.52 595.706 1115.14 601.314 1125.56C614.134 1150.4 643.378 1161.61 670.619 1166.42C697.861 1171.23 727.106 1172.03 751.543 1184.85C796.411 1208.08 814.039 1261.77 832.467 1309.04C850.895 1356.31 884.145 1407.19 934.622 1409.2C974.282 1410.8 1009.54 1377.95 1021.95 1339.89C1034.37 1301.83 1028.76 1260.57 1018.75 1222.11C1008.73 1183.65 994.711 1145.59 990.705 1105.93C986.699 1066.27 993.911 1023 1021.55 994.154C1031.57 983.738 1044.79 975.325 1058.81 975.725C1086.05 975.725 1104.08 1005.37 1108.48 1032.61C1112.89 1059.86 1109.69 1088.7 1120.9 1113.54C1140.13 1155.6 1202.63 1169.63 1237.48 1139.58C1257.91 1122.35 1267.53 1094.71 1269.53 1068.27C1271.53 1041.83 1266.73 1014.99 1262.72 988.545C1252.71 920.841 1248.3 852.335 1249.9 783.829C1250.7 734.552 1251.5 677.264 1213.05 646.015C1164.17 606.354 1084.45 630.391 1027.96 554.674V553.873Z" fill="#442FBD" stroke="black" stroke-width="20" stroke-miterlimit="10"/>
<path d="M816.447 989.345C772.38 914.43 686.65 959.7 669.424 1020.19C641.381 1120.75 750.748 1131.17 790.008 1113.14C841.686 1089.1 834.474 1019.79 816.447 989.345Z" fill="white" stroke="black" stroke-width="20" stroke-miterlimit="10"/>
<path d="M740.734 1059.45C749.806 1059.45 757.161 1052.46 757.161 1043.83C757.161 1035.2 749.806 1028.21 740.734 1028.21C731.663 1028.21 724.311 1035.2 724.311 1043.83C724.311 1052.46 731.663 1059.45 740.734 1059.45Z" fill="black"/>
</svg>
