<svg width="1760" height="1760" viewBox="0 0 1760 1760" fill="none" xmlns="http://www.w3.org/2000/svg">
<rect width="1760" height="1760" fill="white"/>
<path d="M701.185 597.205C639.574 557.004 567.039 522.921 498.874 550.45C430.709 577.979 383.081 651.39 386.139 724.801C388.761 797.774 434.641 861.571 457.8 931.049C489.698 1027.18 477.9 1132.49 501.059 1230.81C516.789 1297.23 563.107 1368.89 631.272 1367.58C710.798 1365.83 750.124 1271.01 815.231 1224.69C895.194 1167.89 1005.31 1191.05 1101.44 1169.63C1210.68 1144.73 1299.82 1058.64 1344.82 955.957C1389.83 853.269 1394.2 736.598 1375.85 626.045C1355.75 506.753 1228.16 409.746 1183.59 415.427C1144.26 420.234 1138.58 490.148 1084.83 552.635C1038.52 606.382 967.729 620.802 897.379 625.609C827.029 630.415 750.124 628.667 701.622 597.205H701.185Z" fill="#63B6FF" stroke="black" stroke-width="20" stroke-miterlimit="10"/>
<path d="M1027.59 844.964C1038.08 893.905 1010.99 945.904 970.349 975.618C960.299 982.609 949.812 989.163 937.578 991.785C914.856 997.029 890.823 990.038 871.16 977.803C836.204 955.954 812.608 917.501 808.238 876.863C808.238 872.493 807.801 867.687 810.86 864.628C813.045 862.443 815.667 862.006 818.725 861.132C872.471 847.586 926.654 837.536 981.273 830.544C998.315 828.36 1023.66 827.049 1027.59 844.964Z" fill="white" stroke="black" stroke-width="20" stroke-miterlimit="10"/>
<path d="M919.22 928.424C928.149 928.424 935.388 920.599 935.388 910.945C935.388 901.292 928.149 893.466 919.22 893.466C910.291 893.466 903.053 901.292 903.053 910.945C903.053 920.599 910.291 928.424 919.22 928.424Z" fill="black"/>
</svg>
