<svg width="1760" height="1760" viewBox="0 0 1760 1760" fill="none" xmlns="http://www.w3.org/2000/svg">
<rect width="1760" height="1760" fill="white"/>
<path d="M652.377 637.136C625.066 645.785 584.555 673.096 625.976 731.816C632.804 741.831 724.296 983.994 580.003 1232.98C566.803 1255.74 553.602 1278.96 547.685 1304.45C541.768 1329.94 544.954 1359.53 564.072 1377.74C592.748 1405.5 641.908 1395.03 674.226 1371.36C755.703 1310.82 772.09 1196.11 833.539 1115.54C848.105 1096.43 866.768 1078.22 890.437 1073.67C934.135 1065.02 973.735 1105.99 985.57 1148.77C997.405 1191.56 991.943 1237.54 998.77 1281.69C1002.41 1304.91 1009.24 1327.67 1019.25 1349.06C1026.08 1363.17 1034.27 1376.83 1045.65 1386.84C1077.06 1413.7 1126.68 1407.78 1159.45 1382.74C1192.22 1357.71 1210.89 1319.02 1223.63 1279.87C1234.1 1247.55 1241.84 1214.32 1240.93 1180.18C1238.65 1103.71 1194.04 1034.98 1145.79 975.345C1116.66 939.384 1084.8 903.88 1071.6 859.726C1058.85 817.848 1065.23 770.052 1087.99 732.726C1112.11 693.124 1155.81 658.53 1150.35 612.1C1146.7 580.237 1099.82 557.022 1078.43 533.807C1047.93 500.122 1044.29 460.976 1012.88 428.202C981.474 395.428 938.231 369.026 892.713 373.578C757.524 387.234 767.083 601.631 652.377 637.591V637.136Z" fill="#FF3B83" stroke="black" stroke-width="20" stroke-miterlimit="10"/>
<path d="M847.65 553.836C805.318 578.871 806.228 649.426 832.174 692.214C836.27 699.042 841.277 705.415 847.65 709.967C855.843 716.34 865.857 719.071 875.871 720.892C912.741 727.72 952.797 717.251 978.287 689.028C1003.78 660.806 1010.15 615.287 989.212 583.423C976.011 563.85 954.618 552.015 932.314 546.553C910.01 541.09 882.699 532.441 847.65 552.925V553.836Z" fill="white" stroke="black" stroke-width="20" stroke-miterlimit="10"/>
<path d="M925.031 603.451C935.087 603.451 943.239 595.095 943.239 584.788C943.239 574.481 935.087 566.125 925.031 566.125C914.976 566.125 906.824 574.481 906.824 584.788C906.824 595.095 914.976 603.451 925.031 603.451Z" fill="black"/>
</svg>
