<svg width="1760" height="1760" viewBox="0 0 1760 1760" fill="none" xmlns="http://www.w3.org/2000/svg">
<rect width="1760" height="1760" fill="white"/>
<path d="M1323.39 666.957C1310.23 646.487 1312.97 605.183 1328.32 586.541C1343.67 567.899 1365.24 555.105 1382.42 537.925C1396.31 524.035 1407.64 507.221 1411.3 487.848C1414.95 468.474 1409.83 446.908 1395.21 434.115C1375.47 416.569 1344.77 418.762 1320.28 428.266C1295.79 437.77 1273.49 453.122 1248.27 460.433C1227.44 466.281 1204.78 466.647 1186.5 477.978C1164.57 491.868 1154.7 519.283 1134.6 536.097C1106.82 559.126 1064.78 558.029 1036.64 580.692C1010.68 601.893 1003.74 638.08 987.292 666.957C949.643 733.118 852.78 756.147 789.545 714.111C768.345 700.221 751.531 680.847 730.331 666.957C694.144 643.929 647.357 639.908 606.419 652.336C565.481 664.764 529.66 692.179 502.977 725.807C373.217 888.103 429.507 974.733 511.018 1067.94C592.529 1161.15 467.887 1291.28 617.019 1330.76C774.193 1372.43 788.083 1241.2 835.235 1181.99C869.228 1139.59 911.263 1133.74 950.008 1149.46C981.809 1162.25 1001.55 1195.15 1032.62 1209.4C1061.13 1222.56 1096.22 1217.45 1122.17 1199.9C1148.12 1182.35 1166.03 1154.21 1174.44 1123.87C1188.69 1073.06 1178.46 1019.33 1173.34 967.058C1168.22 914.787 1170.78 857.033 1204.05 816.459C1224.88 790.872 1255.58 775.885 1280.8 754.319C1306.03 732.752 1342.94 693.641 1316.99 653.798L1323.39 666.957Z" fill="#FFF570" stroke="black" stroke-width="20" stroke-miterlimit="10"/>
<path d="M612.631 797.818C553.416 831.813 554.513 928.313 591.065 985.701C596.913 994.839 603.858 1003.61 612.631 1010.19C623.962 1018.6 638.217 1022.62 652.107 1025.18C703.28 1034.32 759.936 1020.06 795.391 982.046C830.846 944.031 839.984 881.525 810.377 838.758C792.101 812.439 762.129 795.991 731.059 788.68C699.99 781.37 661.976 769.673 612.631 797.818Z" fill="white" stroke="black" stroke-width="20" stroke-miterlimit="10"/>
<path d="M758.834 929.044C772.763 929.044 784.055 917.753 784.055 903.823C784.055 889.894 772.763 878.602 758.834 878.602C744.905 878.602 733.613 889.894 733.613 903.823C733.613 917.753 744.905 929.044 758.834 929.044Z" fill="black"/>
</svg>
