<svg width="1760" height="1760" viewBox="0 0 1760 1760" fill="none" xmlns="http://www.w3.org/2000/svg">
<rect width="1760" height="1760" fill="white"/>
<path d="M697.777 435.951C663.118 424.771 613.926 438.746 586.535 463.343C559.702 487.381 532.87 510.859 506.037 534.897C475.292 561.73 444.547 589.682 424.981 625.459C397.031 676.33 395.354 737.263 394.795 795.402C393.677 873.665 393.118 952.487 392 1030.75C392 1049.76 392 1070.44 400.944 1086.65C433.926 1144.79 492.062 1190.07 600.51 1140.88C765.417 1065.41 682.125 894.349 791.69 849.068C833.615 831.738 881.69 829.502 924.175 845.714C966.659 861.926 1001.32 898.261 1012.5 941.865C1029.27 1007.27 994.609 1073.79 965.541 1134.73C936.473 1195.66 913.553 1271.13 950.448 1328.15C976.162 1368.4 1025.35 1386.85 1071.75 1395.79C1120.39 1405.29 1170.7 1408.09 1218.77 1395.79C1266.85 1383.49 1311.57 1356.1 1338.4 1314.73C1370.82 1264.42 1419.45 1180.57 1363.55 1076.59C1333.37 1020.13 1279.14 980.997 1248.96 924.535C1218.77 868.074 1203.12 795.96 1237.22 741.176C1281.94 669.063 1393.18 655.646 1427.84 577.942C1451.88 523.158 1419.45 451.044 1362.44 433.715C1336.72 425.888 1309.33 427.566 1282.5 427.007C1239.45 425.889 1195.85 417.503 1155.6 402.41C1109.21 385.08 1061.13 358.246 1012.5 368.868C970.013 377.812 939.268 412.472 902.374 435.392C848.15 468.933 800.634 467.256 698.895 435.392L697.777 435.951Z" fill="white" stroke="black" stroke-width="20" stroke-miterlimit="10"/>
<path d="M1251.19 1283.99C1302.05 1253.24 1300.94 1166.59 1269.63 1114.04C1264.6 1105.66 1258.45 1097.83 1251.19 1092.24C1241.12 1084.42 1229.38 1081.06 1217.64 1078.83C1174.04 1070.44 1125.41 1083.3 1095.22 1117.96C1065.04 1152.62 1057.21 1208.52 1082.36 1247.65C1098.02 1271.69 1123.73 1286.22 1150.56 1292.93C1177.4 1299.64 1209.82 1310.26 1251.74 1285.1L1251.19 1283.99Z" fill="white" stroke="black" stroke-width="20" stroke-miterlimit="10"/>
<path d="M1176.28 1201.81C1188.32 1201.81 1198.08 1191.55 1198.08 1178.89C1198.08 1166.23 1188.32 1155.97 1176.28 1155.97C1164.24 1155.97 1154.48 1166.23 1154.48 1178.89C1154.48 1191.55 1164.24 1201.81 1176.28 1201.81Z" fill="black"/>
</svg>
