<svg width="1760" height="1760" viewBox="0 0 1760 1760" fill="none" xmlns="http://www.w3.org/2000/svg">
<rect width="1760" height="1760" fill="white"/>
<path d="M625.348 372.541C583.96 385.097 545.828 408.349 515.601 438.577C502.58 451.598 490.49 467.409 489.56 486.011C487.7 523.679 530.947 547.861 541.643 584.134C551.408 618.082 529.552 653.425 502.58 675.747C475.609 698.069 443.057 713.415 417.945 738.063C370.978 783.636 359.352 861.298 390.043 918.963C396.554 931.519 405.39 943.61 416.55 951.981C444.917 974.302 484.909 973.838 520.717 967.327C556.524 960.816 591.866 949.655 627.673 953.376C673.245 958.491 714.168 989.649 736.024 1030.11C757.881 1070.57 762.066 1119.4 751.835 1164.5C741.605 1211.47 716.958 1262.16 738.35 1305.41C754.626 1338.43 792.758 1354.71 829.03 1361.22C860.187 1366.8 894.599 1366.8 922.035 1350.98C967.608 1324.48 979.699 1265.42 993.185 1214.26C1003.88 1173.8 1019.23 1133.81 1045.73 1100.79C1072.24 1067.78 1110.84 1043.59 1152.69 1042.2C1185.71 1041.27 1217.79 1053.82 1249.88 1062.66C1281.97 1071.5 1318.24 1075.68 1346.61 1058.94C1371.72 1044.06 1385.67 1015.69 1398.22 989.184C1423.8 934.774 1449.38 869.669 1419.62 817.119C1400.08 782.241 1358.23 759.454 1350.79 719.926C1341.49 673.887 1370.32 628.778 1392.64 587.389C1423.8 529.259 1370.79 490.196 1325.68 476.71C1316.38 473.919 1306.61 472.524 1297.78 476.245C1290.8 479.035 1285.22 484.15 1279.64 489.266C1256.39 512.053 1234.53 537.165 1205.24 551.581C1168.97 569.718 1125.72 567.858 1086.19 559.022C1032.25 546.466 981.559 519.959 940.637 482.755C908.55 453.923 882.508 418.115 847.166 393.003C799.733 359.055 736.024 338.593 626.278 372.076L625.348 372.541Z" fill="#FF82C1" stroke="black" stroke-width="20" stroke-miterlimit="10"/>
<path d="M1080.14 768.754C1087.12 748.757 1095.02 725.97 1094.09 707.834C1093.16 687.837 1082.47 679.931 1072.7 674.351C1030.38 651.564 985.741 637.148 938.773 631.567C928.542 630.172 917.382 629.707 905.756 637.613C880.179 655.75 861.113 707.834 845.767 753.408C822.051 825.025 797.404 917.102 820.191 956.631C828.096 970.582 840.652 974.302 852.743 977.093C887.62 984.998 923.427 988.253 960.164 986.393C971.325 985.928 982.95 984.533 994.576 972.442C1006.2 960.351 1061.08 823.164 1080.14 768.754Z" fill="white" stroke="black" stroke-width="20" stroke-miterlimit="10"/>
<path d="M906.999 814.209C913.292 791.7 909.17 770.875 897.792 767.694C886.415 764.513 872.09 780.181 865.797 802.689C859.504 825.198 863.626 846.024 875.004 849.205C886.382 852.386 900.706 836.718 906.999 814.209Z" fill="black"/>
</svg>
