<svg width="1760" height="1760" viewBox="0 0 1760 1760" fill="none" xmlns="http://www.w3.org/2000/svg">
<rect width="1760" height="1760" fill="white"/>
<path d="M680.708 602.834C668.648 602.182 653.98 610.657 648.113 621.088C628.23 656.944 597.264 708.772 620.733 748.213C627.252 758.97 636.705 767.119 643.876 777.224C670.278 814.709 654.958 865.886 638.986 908.913C632.141 927.167 624.318 946.724 608.347 957.807C594.005 967.586 575.751 968.564 558.476 967.26C520.013 964 479.921 949.332 444.392 964.326C414.73 977.039 396.803 1007.35 384.09 1036.69C372.03 1064.72 362.252 1097.32 374.964 1125.35C390.284 1159.25 431.354 1171.64 467.861 1178.16C531.096 1189.57 595.309 1194.46 659.521 1192.83C677.123 1192.5 695.702 1191.2 711.348 1183.05C745.899 1165.45 756.982 1122.42 778.169 1090.15C813.046 1036.69 884.755 1010.29 946.035 1027.89C955.161 1030.5 964.288 1034.08 971.459 1040.28C985.149 1052.66 989.06 1072.55 988.408 1091.13C987.757 1109.71 983.519 1127.96 984.823 1146.21C985.801 1158.6 989.386 1171.31 998.513 1179.79C1005.03 1185.98 1013.83 1189.24 1022.31 1191.85C1060.12 1204.23 1099.88 1210.1 1139.65 1209.78C1147.8 1209.78 1156.27 1209.12 1163.12 1204.89C1170.62 1200 1174.53 1190.87 1177.79 1182.07C1194.41 1136.76 1205.82 1089.17 1211.69 1041.25C1214.62 1016.15 1216.25 990.403 1225.7 966.608C1235.16 942.813 1253.73 921.3 1278.83 916.736C1300.67 912.825 1322.51 921.951 1344.68 920.321C1379.55 918.039 1408.24 888.377 1420.3 855.455C1432.36 822.533 1431.38 786.351 1430.08 751.147C1430.08 742.672 1429.42 733.871 1424.86 726.7C1412.15 706.165 1379.55 714.965 1358.37 702.905C1336.2 690.192 1333.92 659.226 1335.88 633.475C1337.83 607.724 1339.13 577.735 1319.58 561.111C1302.63 546.443 1276.23 549.377 1256.34 559.481C1236.46 569.586 1221.14 587.188 1201.91 598.597C1087.17 667.375 1025.57 556.874 893.23 580.017C735.469 607.398 737.098 605.116 680.708 602.834Z" fill="#DAD4FF" stroke="black" stroke-width="20" stroke-miterlimit="10"/>
<path d="M475.354 1081.02C473.072 1086.89 470.79 1093.73 473.398 1099.6C476.332 1106.12 484.154 1109.05 491.325 1111.33C521.639 1121.11 552.605 1128.28 584.222 1132.85C591.067 1133.83 598.238 1134.8 605.083 1132.85C619.751 1128.61 625.944 1113.29 630.508 1099.6C637.679 1078.41 642.568 1050.38 623.337 1036.69C616.492 1031.8 608.017 1029.84 599.542 1028.21C576.073 1023.65 551.953 1020.72 528.158 1019.09C520.987 1018.76 513.49 1018.44 507.297 1021.37C501.104 1024.3 481.547 1064.72 475.354 1081.02Z" fill="white" stroke="black" stroke-width="20" stroke-miterlimit="10"/>
<path d="M576.137 1077.31C577.607 1070.44 572.378 1063.5 564.457 1061.81C556.535 1060.11 548.922 1064.3 547.452 1071.17C545.981 1078.03 551.21 1084.97 559.132 1086.67C567.053 1088.37 574.666 1084.18 576.137 1077.31Z" fill="black"/>
</svg>
