<svg width="1760" height="1760" viewBox="0 0 1760 1760" fill="none" xmlns="http://www.w3.org/2000/svg">
<rect width="1760" height="1760" fill="white"/>
<path d="M828.801 379.246C774.405 409.742 753.8 481.86 696.52 506.998C680.036 514.415 659.844 516.476 649.13 530.9C643.36 538.729 641.3 548.207 640.064 557.686C634.706 591.478 634.294 625.682 638.827 659.475C640.476 671.838 642.948 685.025 652.014 693.679C668.91 710.575 698.581 702.745 719.185 715.52C739.789 728.295 743.498 756.73 744.734 781.044C746.383 817.721 748.443 854.81 738.553 890.251C728.663 925.691 705.174 959.072 670.558 971.435C633.47 984.622 589.789 971.435 554.349 988.743C515.201 1007.7 501.19 1055.09 490.888 1097.13C474.404 1164.71 457.92 1232.71 441.849 1300.29C439.376 1309.77 437.316 1320.07 441.025 1329.14C443.909 1336.97 450.915 1342.32 457.508 1346.86C479.349 1362.11 504.486 1372 529.212 1381.06C579.487 1399.61 640.888 1413.21 682.097 1379C760.394 1313.48 744.734 1150.7 888.966 1209.22C968.499 1241.36 924.405 1366.64 930.999 1378.18C945.834 1402.9 1125.09 1409.5 1135.81 1400.43C1143.22 1394.25 1147.35 1385.18 1150.64 1376.53C1189.38 1281.33 1178.25 1174.6 1183.2 1071.57C1184.02 1055.5 1185.67 1038.61 1194.32 1025.01C1216.16 992.04 1265.62 998.221 1302.29 983.385C1336.08 969.786 1359.16 936.818 1369.87 901.79C1380.59 866.761 1381 829.672 1381 793.407C1381 769.093 1380.18 741.483 1362.46 724.586C1336.08 699.448 1289.52 713.46 1258.61 693.679C1237.59 680.08 1228.11 651.233 1229.76 608.375C1236.77 422.93 1095.83 610.435 978.389 405.209C942.949 343.806 876.603 352.872 829.625 379.246H828.801Z" fill="#FF3B83" stroke="black" stroke-width="20" stroke-miterlimit="10"/>
<path d="M824.261 637.221C843.217 593.95 892.668 569.224 940.058 569.224C951.597 569.224 963.136 570.46 973.85 574.993C994.042 583.235 1008.47 602.192 1016.71 622.385C1031.54 658.238 1028.25 700.684 1008.88 734.476C1006.82 737.773 1004.34 741.482 1000.22 742.306C997.751 742.718 994.866 741.894 992.394 740.657C944.179 721.289 896.789 699.035 851.047 674.309C836.624 666.479 817.256 653.292 823.849 637.632L824.261 637.221Z" fill="white" stroke="black" stroke-width="20" stroke-miterlimit="10"/>
<path d="M960.801 606.573C966.129 599.191 964.913 589.212 958.085 584.284C951.256 579.356 941.402 581.345 936.075 588.727C930.747 596.108 931.963 606.088 938.791 611.016C945.619 615.945 955.473 613.955 960.801 606.573Z" fill="black"/>
</svg>
