<svg width="1760" height="1760" viewBox="0 0 1760 1760" fill="none" xmlns="http://www.w3.org/2000/svg">
<rect width="1760" height="1760" fill="white"/>
<path d="M739.918 395.984C677.059 359.274 638.338 337.65 593.08 369.332C577.491 379.892 564.919 394.476 552.85 409.06C523.683 443.759 494.516 477.955 465.852 512.654C455.795 524.723 445.738 536.793 440.206 551.376C434.675 566.463 434.675 582.554 434.675 598.647C434.675 625.3 436.686 652.456 438.698 679.109C440.206 697.715 442.721 716.825 453.784 731.912C483.453 771.137 553.352 755.547 582.519 795.275C592.576 809.356 595.09 826.957 597.102 844.055C600.119 876.239 602.131 908.424 602.131 941.112C602.131 996.932 593.079 1060.29 547.318 1091.47C514.631 1113.6 470.379 1113.6 436.687 1134.22C405.006 1153.83 386.399 1189.03 379.359 1225.74C372.319 1262.45 375.336 1299.67 377.85 1336.38C378.856 1347.95 379.861 1360.01 384.89 1370.07C399.976 1400.75 441.715 1404.27 475.91 1403.77C520.163 1403.26 564.416 1402.76 609.171 1401.75C645.881 1401.25 685.607 1399.74 714.271 1376.61C756.512 1342.92 756.009 1280.56 774.615 1229.77C789.199 1190.04 817.863 1154.33 856.584 1137.24C895.305 1120.14 943.58 1123.16 976.77 1149.81C1028.57 1191.55 1027.56 1269.49 1048.18 1332.86C1053.21 1348.45 1060.75 1364.54 1074.83 1372.59C1083.88 1377.62 1093.94 1378.62 1104 1379.63C1147.75 1384.15 1192.5 1388.68 1235.25 1378.62C1248.82 1375.6 1262.4 1370.58 1272.46 1361.52C1289.56 1346.44 1295.59 1321.8 1295.59 1298.66C1295.59 1254.41 1279 1211.66 1270.95 1167.91C1262.9 1124.16 1266.93 1073.37 1300.12 1044.2C1323.25 1024.09 1355.43 1018.05 1379.07 998.441C1397.67 982.851 1409.24 959.718 1414.77 936.083C1428.35 880.262 1377.06 801.31 1337.83 741.969C1221.17 566.965 1182.95 706.768 1083.88 655.976C913.408 568.474 929.028 506.103 749 401L739.918 395.984Z" fill="#DEB0FF" stroke="black" stroke-width="20" stroke-miterlimit="10"/>
<path d="M958.156 854.615C987.322 835.003 1014.98 804.83 995.871 772.142C987.825 758.062 974.247 748.004 961.173 738.449C914.406 703.247 868.142 668.548 821.374 633.346C790.196 609.71 751.475 584.566 716.777 597.641C683.085 610.213 672.525 655.976 685.599 691.68C698.674 727.385 729.852 754.541 761.03 777.171C792.208 799.8 825.9 819.916 851.044 849.084C858.084 857.13 864.119 866.181 872.668 873.222C899.823 894.846 934.521 871.21 957.653 855.118L958.156 854.615Z" fill="white" stroke="black" stroke-width="20" stroke-miterlimit="10"/>
<path d="M748.354 642.653C763.659 629.784 767.661 609.356 757.294 597.027C746.927 584.698 726.116 585.136 710.811 598.006C695.507 610.875 691.504 631.303 701.871 643.632C712.238 655.962 733.049 655.523 748.354 642.653Z" fill="black"/>
</svg>
