<svg width="1760" height="1760" viewBox="0 0 1760 1760" fill="none" xmlns="http://www.w3.org/2000/svg">
<rect width="1760" height="1760" fill="white"/>
<path d="M583.255 400.456C543.41 447.697 588.595 510.136 555.733 573.397C549.161 585.721 547.107 600.509 548.339 614.476C549.16 625.567 553.679 635.837 558.608 645.696C582.433 691.293 619.814 728.264 644.05 773.45C668.286 818.637 676.501 879.434 642.407 917.637C623.101 939.409 593.525 950.089 576.272 973.093C547.107 1011.3 571.342 1064.29 571.342 1112.35C571.342 1234.76 571.343 1274.61 601.329 1316.51C620.636 1343.62 656.373 1352.25 689.236 1359.23C743.047 1370.74 806.717 1379.36 846.152 1341.57C865.048 1323.08 874.496 1297.2 885.587 1273.38C899.142 1244.21 917.216 1216.28 944.327 1199.03C971.439 1181.77 1008.82 1178.08 1034.7 1196.97C1062.22 1216.69 1069.61 1254.48 1070.02 1288.58C1070.02 1309.12 1069.61 1331.3 1081.12 1348.55C1091.8 1364.16 1110.28 1371.97 1128.36 1377.31C1161.63 1387.17 1196.96 1391.69 1231.87 1390.04C1242.14 1390.04 1252.82 1388.4 1261.45 1383.47C1276.23 1374.43 1281.58 1356.36 1285.27 1339.52C1297.6 1279.95 1299.65 1218.33 1291.02 1158.36C1287.74 1134.94 1282.4 1110.3 1266.38 1092.63C1252.82 1077.84 1233.51 1070.04 1217.49 1058.13C1183.81 1032.66 1166.97 987.471 1175.59 946.392C1186.28 896.687 1228.17 861.359 1258.16 820.281C1291.43 774.273 1310.74 717.994 1311.97 660.895C1312.38 635.837 1308.28 607.903 1288.15 592.704C1263.91 574.219 1252.41 584.488 1199.42 586.953C1151.36 589.418 1073.31 538.48 1073.31 624.335C1073.31 705.26 1044.56 746.75 992.388 779.202C945.149 808.368 839.99 796.865 802.61 756.197C725.794 673.218 799.734 562.306 803.431 516.708C806.307 483.845 802.61 448.518 784.125 421.406C759.889 386.078 662.946 305.975 583.255 400.456Z" fill="#9DC0EB" stroke="black" stroke-width="20" stroke-miterlimit="10"/>
<path d="M724.562 1076.61C716.757 1074.56 708.542 1072.5 701.558 1076.61C693.754 1081.54 690.878 1091.81 689.235 1101.26C681.019 1141.52 675.679 1182.59 674.036 1224.08C674.036 1233.12 673.626 1242.57 676.501 1250.79C683.484 1268.86 703.612 1275.02 720.864 1279.13C748.386 1285.29 783.303 1288.17 798.091 1261.05C803.431 1251.61 804.663 1240.1 805.485 1229.42C808.36 1198.2 809.182 1166.98 807.949 1135.76C807.949 1126.73 807.128 1116.87 802.609 1109.47C798.091 1102.08 745.511 1082.36 724.562 1076.61Z" fill="white" stroke="black" stroke-width="20" stroke-miterlimit="10"/>
<path d="M759.127 1189.4C760.249 1179.03 754.21 1169.87 745.639 1168.94C737.068 1168.01 729.211 1175.67 728.089 1186.05C726.968 1196.42 733.006 1205.59 741.577 1206.51C750.148 1207.44 758.006 1199.78 759.127 1189.4Z" fill="black"/>
</svg>
