<svg width="1760" height="1760" viewBox="0 0 1760 1760" fill="none" xmlns="http://www.w3.org/2000/svg">
<rect width="1760" height="1760" fill="white"/>
<path d="M633.621 411.87C607.269 467.812 533.761 484.918 483.831 521.904C476.896 526.99 469.499 532.538 465.338 540.397C461.178 548.719 461.64 557.966 461.64 567.212C461.64 737.349 337.739 892.228 349.297 1061.9C356.694 1168.24 421.419 1269.03 515.269 1319.88C587.852 1359.18 672.456 1368.89 754.285 1374.9C888.819 1385.53 1033.06 1386.92 1148.18 1316.64C1230.47 1266.71 1288.26 1185.34 1335.42 1101.66C1368.24 1043.87 1396.9 970.362 1362.23 913.495C1349.75 893.153 1330.79 877.896 1315.54 859.866C1277.16 816.407 1259.13 753.068 1277.16 698.051C1300.74 624.541 1378.87 578.771 1401.06 505.26C1405.23 492.315 1406.61 477.059 1399.21 465.5C1385.35 444.233 1352.98 451.168 1328.48 456.716C1281.79 466.887 1231.86 462.726 1187.47 444.696C1157.89 432.675 1130.61 414.182 1100.56 402.624C1070.51 391.066 1035.37 386.442 1007.17 401.699C961.865 426.203 952.618 490.004 911.935 521.904C886.97 541.784 853.221 546.408 821.321 546.408C799.592 546.408 776.477 543.634 759.371 530.689C739.954 516.356 731.17 492.315 723.31 469.661C715.451 447.007 706.205 422.966 686.325 409.096C666.445 395.227 638.707 400.312 634.084 410.946L633.621 411.87Z" fill="#FF3B83" stroke="black" stroke-width="20" stroke-miterlimit="10"/>
<path d="M758.907 1042.48C757.52 1063.75 756.133 1087.33 762.143 1104.9C768.616 1123.85 780.636 1128.48 791.732 1130.79C837.963 1141.42 885.119 1143.27 931.813 1135.87C941.984 1134.49 952.617 1132.17 961.864 1121.08C981.281 1097.04 985.904 1042.02 988.215 994.401C991.914 919.504 990.527 824.726 958.627 792.826C947.532 781.73 934.587 781.268 922.104 782.192C886.968 784.042 851.37 790.514 816.697 802.072C806.526 805.309 795.43 809.932 787.571 824.264C779.711 838.596 763.993 984.692 759.832 1042.48H758.907Z" fill="white" stroke="black" stroke-width="20" stroke-miterlimit="10"/>
<path d="M880.955 1003.19C892.7 1003.19 902.221 984.349 902.221 961.113C902.221 937.878 892.7 919.042 880.955 919.042C869.21 919.042 859.688 937.878 859.688 961.113C859.688 984.349 869.21 1003.19 880.955 1003.19Z" fill="black"/>
</svg>
