<svg width="1760" height="1760" viewBox="0 0 1760 1760" fill="none" xmlns="http://www.w3.org/2000/svg">
<rect width="1760" height="1760" fill="white"/>
<path d="M438.037 882.479C382.089 930.375 337.16 1008.36 368.101 1075.33C394.38 1132.13 467.706 1160.95 481.269 1221.99C492.713 1273.7 458.381 1338.55 496.104 1375C509.243 1387.72 528.316 1392.81 546.542 1396.2C617.325 1410.61 702.094 1411.03 749.565 1356.78C797.46 1301.68 786.016 1215.63 821.196 1151.63C845.355 1107.97 892.403 1077.88 941.993 1073.64C991.583 1069.4 1042.87 1091.87 1073.81 1130.86C1117.04 1185.54 1122.13 1268.19 1178.5 1309.73C1234.45 1350.84 1322.18 1326.26 1359.48 1267.77C1396.78 1209.27 1389.58 1129.59 1354.4 1069.82C1319.22 1010.06 1259.88 967.674 1197.57 937.156C1164.09 920.626 1127.64 906.214 1102.21 878.663C1076.78 851.112 1067.03 804.488 1092.04 776.514C1114.92 750.658 1159.85 748.115 1175.11 717.173C1188.67 689.622 1170.02 656.137 1144.59 638.759C1119.16 621.381 1088.22 614.175 1062.37 598.068C997.517 558.649 972.086 474.725 911.899 428.524C847.898 379.356 755.499 382.324 681.75 415.385C608 448.446 548.661 506.091 491.441 562.888C480.421 573.908 468.554 585.777 465.163 601.036C459.653 624.348 474.911 647.236 485.508 668.853C520.687 740.061 503.733 826.529 438.46 882.479H438.037Z" fill="#63B6FF" stroke="black" stroke-width="20" stroke-miterlimit="10"/>
<path d="M551.635 951.566C505.436 976.15 506.284 1046.51 534.682 1088.47C539.344 1095.26 544.854 1101.61 551.635 1106.28C560.536 1112.21 571.556 1115.18 582.153 1117.3C621.994 1123.65 666.075 1113.48 693.625 1085.93C721.175 1058.38 728.381 1012.6 705.493 981.661C691.506 962.587 668.194 950.295 643.611 945.209C619.027 940.122 589.782 931.221 551.635 951.566Z" fill="white" stroke="black" stroke-width="20" stroke-miterlimit="10"/>
<path d="M619.45 1054.99C630.218 1054.99 638.947 1046.83 638.947 1036.76C638.947 1026.7 630.218 1018.53 619.45 1018.53C608.683 1018.53 599.953 1026.7 599.953 1036.76C599.953 1046.83 608.683 1054.99 619.45 1054.99Z" fill="black"/>
</svg>
