<svg width="1760" height="1760" viewBox="0 0 1760 1760" fill="none" xmlns="http://www.w3.org/2000/svg">
<rect width="1760" height="1760" fill="white"/>
<path d="M574.753 710.61C558.189 708.244 542.019 711.005 532.948 724.809C523.878 738.613 520.722 755.966 510.468 768.981C493.51 791.067 460.381 797.772 447.761 822.618C438.69 840.366 443.423 862.847 454.86 879.411C466.297 895.976 483.65 907.413 500.609 917.668C545.963 944.487 594.866 965.784 634.305 1000.88C708.843 1066.75 737.634 1179.94 704.111 1273.41C700.562 1283.27 696.617 1294.71 701.35 1303.78C704.111 1308.51 708.449 1311.67 713.182 1314.82C760.902 1347.16 808.623 1379.5 856.343 1411.45C865.414 1417.76 874.879 1424.07 885.922 1426.44C906.036 1431.17 927.727 1420.92 941.136 1405.14C954.545 1389.36 960.46 1368.46 963.221 1347.95C967.165 1316.4 964.405 1284.06 967.165 1252.11C969.926 1220.17 980.18 1187.04 1004.63 1166.53C1029.48 1146.02 1066.94 1142.47 1094.95 1158.25C1130.44 1178.36 1148.58 1223.72 1187.23 1236.34C1213.66 1245.02 1244.02 1234.76 1264.93 1216.22C1285.83 1197.69 1299.63 1172.45 1311.07 1146.81C1322.11 1121.57 1331.97 1095.54 1339.46 1069.12C1348.14 1038.75 1354.06 1004.04 1337.49 977.221C1320.53 950.008 1286.22 940.937 1255.85 929.5C1225.49 918.062 1193.54 896.37 1193.15 864.424C1193.15 841.155 1210.11 821.435 1229.04 808.026C1247.97 794.617 1269.66 784.757 1286.22 768.192C1302.79 751.628 1312.65 725.203 1301.21 705.089C1291.74 688.524 1270.84 681.425 1251.52 680.637C1232.19 679.848 1212.87 680.637 1193.54 679.848C1069.31 673.537 1063 544.965 1051.96 419.942C1049.2 386.813 1027.51 353.683 997.138 341.457C908.007 305.567 852.005 393.517 795.214 425.857C780.227 434.534 763.663 444.394 758.93 461.353C753.803 479.889 765.24 498.82 774.706 515.779C794.03 550.881 773.523 593.081 755.775 629.365C743.549 654.212 672.955 724.414 574.753 711.399V710.61Z" fill="#FFD58C" stroke="black" stroke-width="20" stroke-miterlimit="10"/>
<path d="M840.961 862.056C835.44 871.522 829.919 881.776 830.313 891.636C831.102 902.679 838.99 908.595 846.483 913.328C878.428 933.442 912.345 949.612 947.839 961.444C955.727 964.205 964.009 966.571 972.686 964.205C992.011 959.472 1006.6 935.414 1018.04 914.117C1036.18 880.593 1054.72 836.421 1037.76 811.18C1031.84 802.503 1022.38 798.164 1013.31 794.22C986.883 783.572 959.671 774.895 932.064 768.979C923.782 767.007 915.105 765.824 906.035 769.768C896.964 773.712 855.554 836.421 840.961 861.662V862.056Z" fill="white" stroke="black" stroke-width="20" stroke-miterlimit="10"/>
<path d="M962.708 871.424C967.494 860.679 964.276 848.808 955.522 844.908C946.767 841.009 935.791 846.558 931.006 857.302C926.22 868.046 929.436 879.918 938.191 883.818C946.945 887.717 957.922 882.168 962.708 871.424Z" fill="black"/>
</svg>
