<svg width="1760" height="1760" viewBox="0 0 1760 1760" fill="none" xmlns="http://www.w3.org/2000/svg">
<rect width="1760" height="1760" fill="white"/>
<path d="M1083.29 360.838C1078.29 335.322 1044.1 314.81 1019.09 320.313C994.071 325.817 973.559 343.827 953.548 360.838C865.497 435.383 765.439 494.919 657.877 536.945C616.353 552.955 569.825 570.466 549.814 609.99C528.801 652.015 545.811 703.546 534.805 749.574C529.302 771.087 517.795 793.101 523.798 814.614C526.8 825.62 533.804 835.126 540.808 843.631C577.329 890.16 616.852 942.692 611.349 1001.73C606.847 1052.76 564.822 1098.29 514.293 1106.29C471.768 1113.3 418.737 1099.79 391.722 1132.81C382.716 1143.31 378.714 1157.32 375.212 1170.83C365.706 1207.35 358.702 1249.38 379.714 1280.4C399.726 1309.41 437.248 1318.92 471.268 1326.42C502.286 1333.43 533.304 1340.43 564.823 1346.94C614.351 1357.94 672.885 1366.45 708.906 1330.93C728.917 1310.91 735.922 1281.9 745.428 1255.38C760.937 1210.85 786.451 1167.33 826.974 1143.31C867.498 1119.3 926.032 1120.8 957.05 1156.82C990.57 1195.34 982.065 1254.88 1004.08 1300.91C1034.1 1362.95 1111.14 1383.96 1178.68 1398.47C1198.69 1402.97 1220.2 1406.97 1239.71 1399.97C1276.24 1386.96 1288.74 1342.93 1296.75 1304.91C1303.75 1271.89 1310.26 1238.37 1317.26 1205.35C1321.26 1184.84 1325.76 1163.33 1319.76 1143.31C1315.26 1128.3 1305.75 1115.8 1295.25 1103.79C1260.23 1062.76 1217.2 1028.24 1190.69 981.215C1164.17 934.186 1158.17 869.147 1196.69 831.124C1223.7 804.608 1264.23 798.604 1296.75 779.593C1345.28 752.076 1374.79 694.541 1371.79 639.007C1368.79 583.474 1334.77 530.441 1286.74 501.924C1246.72 478.41 1199.19 470.905 1157.17 452.393C1115.14 433.882 1090.13 396.36 1081.12 351.333L1083.29 360.838Z" fill="#63B6FF" stroke="black" stroke-width="20" stroke-miterlimit="10"/>
<path d="M827.474 786.594C815.467 730.56 845.985 671.524 892.512 637.503C904.019 629.498 916.026 621.994 930.034 618.992C956.049 612.989 983.565 620.994 1006.08 635.002C1046.1 660.018 1073.12 704.044 1078.12 750.572C1078.12 755.575 1078.62 761.079 1075.12 764.581C1072.62 767.082 1069.62 767.583 1066.11 768.583C1004.58 784.093 942.541 795.6 880.005 803.605C860.494 806.106 831.977 807.107 827.474 786.594Z" fill="white" stroke="black" stroke-width="20" stroke-miterlimit="10"/>
<path d="M951.042 731.56C961.265 731.56 969.553 722.6 969.553 711.548C969.553 700.495 961.265 691.535 951.042 691.535C940.819 691.535 932.531 700.495 932.531 711.548C932.531 722.6 940.819 731.56 951.042 731.56Z" fill="black"/>
</svg>
