<svg width="1760" height="1760" viewBox="0 0 1760 1760" fill="none" xmlns="http://www.w3.org/2000/svg">
<rect width="1760" height="1760" fill="white"/>
<path d="M738.663 665.589C719.625 646.551 718.161 617.628 719.259 592C719.991 576.623 723.652 560.88 722.554 545.503C721.456 530.126 714.134 513.285 699.49 507.428C678.988 499.007 656.289 516.58 647.869 537.083C639.448 557.585 640.18 580.285 635.055 601.885C628.465 628.978 611.991 653.873 589.658 670.349C581.238 676.572 571.719 681.698 566.227 690.851C552.315 713.916 573.183 741.009 585.265 764.806C609.794 813.866 591.123 880.499 544.993 909.788C528.519 920.039 509.847 926.263 494.471 937.612C449.44 970.929 447.976 1042.69 479.827 1088.82C511.678 1134.95 566.959 1159.11 621.875 1170.83C648.601 1176.69 677.157 1179.98 702.052 1168.63C728.778 1156.18 745.253 1129.46 764.656 1107.49C797.24 1070.15 844.467 1043.05 893.891 1045.62C943.316 1048.18 991.275 1087.72 993.472 1137.14C996.035 1206.71 916.956 1253.57 903.41 1321.67C899.749 1340.7 901.946 1362.31 915.491 1375.85C928.305 1388.67 947.708 1391.59 965.648 1394.16C1005.19 1399.28 1047.29 1404.04 1083.53 1387.57C1096.71 1381.71 1108.43 1373.29 1119.78 1364.87C1136.62 1352.79 1153.83 1339.97 1164.44 1322.4C1181.28 1293.84 1178.35 1258.33 1174.69 1225.38C1169.93 1183.64 1165.54 1141.54 1160.78 1099.8C1158.95 1082.23 1157.12 1063.19 1167.01 1048.55C1183.48 1023.65 1220.46 1026.21 1247.18 1013.03C1269.51 1002.05 1284.53 978.983 1291.48 955.186C1298.44 931.388 1299.17 905.76 1299.54 880.864C1299.9 847.914 1300.63 815.33 1301 782.38C1301 763.342 1301 743.572 1292.21 726.731C1284.89 713.55 1272.81 703.665 1266.59 690.119C1259.26 674.01 1261.83 655.338 1262.19 637.764C1262.56 620.191 1260.73 595.661 1240.59 589.071C1213.5 579.918 1176.16 594.197 1149.8 583.214C1123.44 572.23 1106.96 541.476 1099.64 514.017C1089.76 478.138 1109.16 440.428 1107.33 403.085C1104.4 354.391 1059 311.922 1009.95 313.021C960.889 314.119 894.989 364.277 895.356 412.97C895.356 462.395 935.627 504.133 943.315 552.826C951.37 602.252 944.78 649.114 901.946 674.376C859.111 699.638 787.721 715.015 739.029 666.321L738.663 665.589Z" fill="#B7ABFF" stroke="black" stroke-width="20" stroke-miterlimit="10"/>
<path d="M635.424 1063.55C610.529 1029.51 613.824 980.446 635.424 944.201C640.55 935.414 646.774 926.993 654.828 920.769C670.204 909.054 691.072 906.125 710.475 909.054C744.523 913.813 776.008 935.414 792.849 965.069C794.68 967.998 796.145 972.026 795.046 975.321C794.314 977.517 792.117 978.982 790.287 980.446C753.676 1009 715.601 1035.36 676.062 1059.16C663.614 1066.48 644.943 1075.64 635.79 1063.55H635.424Z" fill="white" stroke="black" stroke-width="20" stroke-miterlimit="10"/>
<path d="M702.222 989.248C709.063 986.222 711.958 977.772 708.687 970.376C705.415 962.979 697.216 959.436 690.374 962.462C683.533 965.488 680.639 973.938 683.91 981.335C687.182 988.731 695.38 992.274 702.222 989.248Z" fill="black"/>
</svg>
