<svg width="1760" height="1760" viewBox="0 0 1760 1760" fill="none" xmlns="http://www.w3.org/2000/svg">
<rect width="1760" height="1760" fill="white"/>
<path d="M633.417 555.177C619.301 540.556 601.151 524.423 580.985 528.96C553.256 535.01 548.72 571.815 549.224 600.048C550.232 661.051 547.207 722.56 539.14 783.059C535.107 816.334 528.049 851.625 504.858 876.329C478.138 904.562 435.79 912.125 408.061 938.846C379.829 966.07 371.762 1008.42 369.242 1047.75C365.713 1100.68 369.746 1154.12 380.837 1206.56C385.878 1231.26 393.441 1256.97 412.095 1273.61C426.211 1286.21 444.36 1292.26 463.014 1296.3C494.271 1302.85 528.049 1303.36 556.282 1288.74C606.697 1262.52 622.83 1200 652.575 1152.11C690.89 1091.61 769.034 1049.76 835.582 1076.99C892.046 1100.18 921.79 1164.21 928.848 1224.71C932.377 1253.44 934.898 1287.73 960.61 1301.34C969.685 1305.88 979.768 1307.39 989.851 1308.4C1044.3 1314.45 1098.24 1319.99 1152.69 1326.04C1170.34 1328.06 1190.5 1329.07 1203.61 1316.46C1210.67 1309.41 1214.2 1299.83 1216.21 1290.25C1230.33 1232.27 1217.22 1170.76 1224.78 1111.27C1227.3 1092.11 1232.35 1072.45 1245.96 1058.33C1265.62 1037.66 1297.38 1035.64 1324.1 1024.55C1382.08 999.849 1409.3 921.2 1378.55 865.742C1357.88 828.434 1317.55 805.243 1298.39 767.43C1276.21 724.576 1284.78 673.152 1289.32 624.752C1292.85 587.444 1292.85 549.631 1289.32 511.819C1286.8 477.536 1277.22 438.211 1245.96 424.094C1214.2 409.978 1177.9 430.144 1143.62 426.615C1110.85 423.086 1083.12 398.382 1049.85 395.357C1009.01 391.324 972.205 422.078 948.006 454.848C923.807 487.619 904.65 526.44 872.888 552.152C827.01 588.956 763.488 591.477 704.502 592.989C678.286 593.494 660.64 583.41 632.407 554.169L633.417 555.177Z" fill="#63B6FF" stroke="black" stroke-width="20" stroke-miterlimit="10"/>
<path d="M953.044 717.012C1011.02 715.5 1063.96 757.849 1088.16 810.282C1094.21 822.886 1098.74 836.499 1099.25 850.616C1100.26 877.336 1087.15 903.048 1069 922.711C1036.73 957.498 987.83 976.152 940.944 971.614C935.903 971.614 930.357 970.102 927.836 966.069C925.819 963.548 925.82 960.019 925.316 956.49C921.787 892.966 921.786 828.936 925.819 765.412C926.827 745.749 931.869 717.012 952.539 716.508L953.044 717.012Z" fill="white" stroke="black" stroke-width="20" stroke-miterlimit="10"/>
<path d="M1023.85 857.699C1025.8 847.583 1018.51 837.675 1007.57 835.569C996.638 833.463 986.192 839.956 984.244 850.072C982.296 860.189 989.583 870.097 1000.52 872.203C1011.46 874.309 1021.9 867.816 1023.85 857.699Z" fill="black"/>
</svg>
