<svg width="1760" height="1760" viewBox="0 0 1760 1760" fill="none" xmlns="http://www.w3.org/2000/svg">
<rect width="1760" height="1760" fill="white"/>
<path d="M544.519 743.719C513.547 726.722 504.86 693.862 473.133 703.304C448.205 710.859 456.136 758.072 457.647 775.447C462.935 835.88 529.41 844.567 539.231 904.623C545.274 941.639 524.878 981.677 491.263 998.296C474.267 1006.61 453.871 1010.38 441.784 1024.74C431.209 1036.82 429.32 1054.2 428.187 1070.06C425.165 1106.7 422.899 1143.34 421.388 1179.97C420.633 1198.48 420.255 1217.37 427.432 1234.36C441.406 1267.23 478.799 1282.71 512.792 1294.42C534.699 1301.97 558.116 1309.91 580.023 1303.49C595.508 1299.33 608.35 1288.38 618.926 1276.29C644.987 1246.07 657.828 1207.17 679.735 1174.31C701.642 1141.45 739.412 1112.36 777.937 1121.05C815.33 1129.36 837.236 1169.02 847.812 1205.66C858.388 1242.3 864.808 1283.09 890.869 1311.8C920.708 1345.03 969.054 1352.97 1013.24 1357.12C1030.24 1358.63 1048.75 1359.76 1063.86 1352.21C1092.18 1337.86 1098.6 1301.22 1101.63 1269.49C1104.65 1237.76 1107.67 1206.04 1110.69 1174.31C1112.58 1153.91 1114.85 1132.76 1122.78 1113.87C1130.71 1094.99 1146.19 1077.61 1166.21 1072.7C1190.01 1066.66 1214.56 1078.37 1238.73 1079.88C1284.06 1083.28 1327.49 1049.66 1342.22 1006.98C1356.95 964.302 1325.98 875.162 1322.2 829.837C1311.25 701.038 1214.94 811.329 1132.22 741.83C1092.18 708.214 1072.17 655.713 1065.74 603.966C1060.46 562.041 1073.68 515.96 1055.93 477.433C1024.58 409.823 935.439 386.406 884.827 409.824C716.751 487.632 829.305 652.313 752.632 728.611C711.085 769.781 666.893 810.951 544.141 744.097L544.519 743.719Z" fill="#8CFFD9" stroke="black" stroke-width="20" stroke-miterlimit="10"/>
<path d="M884.068 616.432C838.744 662.135 846.675 776.203 870.093 846.835C873.87 858.166 878.402 869.12 884.068 877.052C891.244 887.25 900.309 892.538 909.374 895.56C942.234 906.514 978.493 889.139 1001.15 842.68C1023.82 796.222 1029.86 719.169 1010.98 666.668C999.267 634.185 980.004 614.166 959.986 605.478C939.968 596.791 912.773 587.726 884.068 616.432Z" fill="white" stroke="black" stroke-width="20" stroke-miterlimit="10"/>
<path d="M939.963 790.18C948.933 790.18 956.204 776.313 956.204 759.208C956.204 742.102 948.933 728.235 939.963 728.235C930.994 728.235 923.723 742.102 923.723 759.208C923.723 776.313 930.994 790.18 939.963 790.18Z" fill="black"/>
</svg>
