<svg width="1760" height="1760" viewBox="0 0 1760 1760" fill="none" xmlns="http://www.w3.org/2000/svg">
<g clip-path="url(#clip0_10_498)">
<path d="M1760 0H0V1760H1760V0Z" fill="white"/>
<path d="M740.206 402.665C708.373 408.373 692.876 445.071 693.295 476.468C693.714 507.865 703.766 539.262 698.321 570.659C693.714 597.57 678.217 621.628 672.353 648.132C663.976 688.092 689.526 719.08 699.997 758.632C711.306 801.854 735.599 875.658 723.452 918.472C665.651 1124.39 526.175 953.538 476.333 1048.14C453.715 1090.95 462.51 1166.79 453.715 1254.05C452.877 1263.02 452.039 1272.4 455.808 1280.56C461.253 1292.38 474.238 1298.9 486.385 1303.8C523.662 1319.7 561.777 1333.16 600.311 1344.57C635.494 1355.17 672.353 1363.74 709.212 1362.11C746.07 1360.47 783.767 1348.24 808.897 1321.74C838.217 1290.75 846.174 1246.3 847.85 1204.31C849.525 1162.31 845.756 1119.49 857.064 1079.13C868.373 1038.76 899.368 999.614 942.09 993.905C992.771 987.381 1039.26 1033.05 1046.38 1082.39C1051.83 1119.49 1042.61 1163.94 1071.93 1188C1093.71 1205.94 1125.96 1202.27 1154.03 1197.37C1177.48 1193.3 1200.52 1189.22 1223.97 1185.14C1232.35 1183.51 1241.15 1182.29 1248.27 1177.39C1257.06 1171.28 1261.67 1161.49 1265.02 1151.3C1288.06 1083.61 1265.02 1010.22 1257.48 939.267C1255.39 918.471 1254.55 896.453 1262.09 876.881C1269.63 857.309 1287.22 839.775 1309 837.736C1329.94 835.697 1349.21 847.93 1368.06 856.901C1386.91 865.871 1412.04 870.764 1427.53 856.901C1434.24 850.784 1438 841.814 1440.52 833.251C1453.92 782.69 1427.53 724.382 1380.2 699.916C1350.05 684.422 1314.03 681.975 1284.71 664.85C1253.29 646.501 1232.77 611.026 1233.61 575.144C1233.61 559.242 1237.8 542.524 1230.68 528.253C1226.91 520.913 1221.04 514.797 1214.76 509.088C1164.08 461.381 1111.31 412.451 1044.71 390.025C957.588 361.074 861.253 379.015 740.625 401.442L740.206 402.665Z" fill="#2667FF" stroke="black" stroke-width="20" stroke-miterlimit="10"/>
<path d="M1103.35 1083.38C1103.77 1088.68 1106.28 1106.04 1109.63 1110.11C1113.4 1114.19 1118.42 1114.6 1122.61 1114.19C1141.88 1112.97 1160.31 1109.7 1178.74 1104C1182.93 1102.77 1186.7 1101.14 1189.63 1097.88C1196.33 1090.13 1194.65 1076.27 1192.98 1064.04C1190.47 1044.87 1184.6 1021.22 1169.94 1015.92C1164.92 1013.88 1159.89 1015.11 1154.86 1015.92C1141.04 1019.18 1127.22 1023.67 1113.82 1029.79C1110.05 1031.42 1105.86 1033.46 1103.35 1037.94C1100.83 1042.43 1102.93 1079.94 1104.18 1095.03L1103.35 1083.38Z" fill="white" stroke="black" stroke-width="20" stroke-miterlimit="10"/>
<path d="M1151.47 1074.53C1156.22 1073.54 1159.05 1068.1 1157.79 1062.37C1156.53 1056.65 1151.66 1052.81 1146.91 1053.8C1142.16 1054.79 1139.33 1060.24 1140.59 1065.96C1141.85 1071.69 1146.72 1075.52 1151.47 1074.53Z" fill="black"/>
</g>
<defs>
<clipPath id="clip0_10_498">
<rect width="1760" height="1760" fill="white"/>
</clipPath>
</defs>
</svg>
