<svg width="1760" height="1760" viewBox="0 0 1760 1760" fill="none" xmlns="http://www.w3.org/2000/svg">
<rect width="1760" height="1760" fill="white"/>
<path d="M608.232 501C574.568 502.603 535.693 503.004 527.277 535.867C522.468 553.101 526.476 572.739 518.06 588.77C501.228 620.833 451.532 615.221 424.681 639.268C403.44 658.505 402.238 693.774 416.265 719.023C430.292 744.272 455.941 761.104 481.991 772.727C506.037 783.548 532.087 791.163 550.923 809.198C568.958 826.431 578.174 850.477 583.785 874.524C589.396 897.769 590.599 926.225 572.164 941.053C542.507 965.1 497.22 930.633 461.151 943.458C442.715 949.87 429.891 968.306 425.483 987.544C421.075 1006.78 422.277 1026.82 424.281 1046.46C427.888 1085.73 431.093 1125.41 434.7 1164.69C435.501 1174.31 436.304 1183.92 440.712 1192.74C451.132 1214.78 477.983 1222.4 501.628 1227.61C559.74 1240.43 617.851 1253.66 675.962 1266.48C704.417 1272.9 738.482 1278.11 759.722 1257.67C770.944 1247.25 775.753 1231.62 778.558 1216.79C785.772 1180.32 783.768 1141.44 797.394 1106.57C811.021 1071.71 848.693 1041.65 883.96 1054.47C914.819 1065.7 927.243 1103.77 925.239 1136.63C923.235 1169.5 912.014 1201.56 912.816 1234.02C912.816 1245.24 915.621 1257.67 924.037 1265.28C930.449 1271.29 939.666 1273.3 948.082 1275.3C976.937 1282.11 1006.19 1288.53 1035.05 1295.34C1053.88 1299.75 1075.13 1303.76 1091.96 1294.14C1101.58 1288.53 1108.39 1279.31 1113.6 1270.09C1125.22 1250.05 1132.84 1228.01 1135.64 1204.76C1138.85 1178.31 1135.64 1151.46 1142.05 1125.81C1148.47 1100.16 1167.7 1074.51 1194.15 1073.71C1208.98 1073.31 1223.01 1080.52 1237.44 1083.73C1271.1 1091.75 1308.77 1076.92 1327.61 1048.06C1346.44 1019.2 1346.04 978.726 1326.01 951.073C1317.19 939.049 1305.57 929.431 1296.75 917.408C1287.93 905.384 1281.92 889.754 1286.73 876.128C1294.75 853.283 1324.8 848.875 1344.44 834.848C1379.71 809.198 1376.5 755.092 1360.47 714.213C1339.23 659.707 1267.89 600.393 1209.78 593.179C1133.24 583.56 1077.93 617.226 1010.2 625.241C971.327 629.65 940.869 590.373 906.002 621.233C871.135 652.093 931.25 748.68 838.272 784.75C684.779 844.065 690.389 665.319 698.805 641.272C705.618 622.836 696.401 496.992 608.232 501.401V501Z" fill="#FCFFA6" stroke="black" stroke-width="20" stroke-miterlimit="10"/>
<path d="M571.767 1102.97C569.362 1109.78 566.957 1117.39 568.56 1123.81C570.163 1130.62 576.175 1133.83 581.385 1135.83C604.229 1144.65 627.874 1151.06 651.92 1153.87C657.13 1154.67 662.741 1155.07 668.352 1152.66C679.974 1147.05 686.387 1129.82 691.196 1114.19C698.81 1090.14 705.223 1058.88 691.196 1044.85C686.387 1040.04 679.974 1038.44 673.562 1036.84C655.527 1033.23 637.091 1031.23 618.656 1030.83C613.045 1030.83 607.435 1030.83 602.225 1034.83C597.016 1038.84 578.179 1084.53 571.767 1102.97Z" fill="white" stroke="black" stroke-width="20" stroke-miterlimit="10"/>
<path d="M650.243 1092.82C651.999 1085.28 648.529 1078.02 642.493 1076.61C636.457 1075.21 630.14 1080.19 628.384 1087.73C626.628 1095.28 630.098 1102.53 636.134 1103.94C642.171 1105.34 648.487 1100.37 650.243 1092.82Z" fill="black"/>
</svg>
