<svg width="1760" height="1760" viewBox="0 0 1760 1760" fill="none" xmlns="http://www.w3.org/2000/svg">
<rect width="1760" height="1760" fill="white"/>
<path d="M770.91 529.706C755.547 504.807 732.526 467.479 703.39 464.3C679.022 461.651 656.773 477.014 637.172 491.317C611.215 510.918 582.079 535.817 584.198 568.662C585.257 584.025 593.733 598.328 600.62 612.102C619.69 650.244 630.815 693.684 622.339 735.535C613.864 777.385 582.608 815.528 540.759 824.004C498.379 832.48 449.114 811.82 414.151 836.718C386.605 856.319 381.306 894.461 378.128 928.366C376.538 950.086 374.421 971.806 372.832 994.056C371.772 1009.42 370.711 1024.78 376.539 1039.08C388.723 1067.69 425.276 1076.7 457.06 1077.23C516.391 1078.82 575.193 1066.63 630.815 1047.03C665.778 1034.85 699.681 1020.01 736.234 1013.13C772.786 1006.24 811.987 1007.83 843.771 1026.9C879.793 1048.62 899.924 1089.41 913.697 1129.14C927.471 1168.88 937.536 1211.26 961.904 1245.69C986.272 1280.12 1029.71 1306.08 1069.97 1293.9C1109.7 1282.24 1131.95 1239.33 1143.6 1199.6C1151.02 1174.17 1156.85 1146.63 1175.39 1127.55C1206.11 1095.77 1258.03 1100.54 1297.76 1082C1345.97 1059.75 1371.39 1006.77 1393.11 958.032C1402.12 937.371 1411.65 916.182 1412.18 893.932C1412.71 871.682 1403.71 847.313 1383.58 836.718C1351.79 820.296 1311 845.195 1278.16 831.951C1236.84 814.999 1294.05 612.632 1223.6 598.328C1138.31 580.846 1068.38 672.494 981.504 660.31C894.627 648.125 812.516 598.328 765.369 520.984L770.91 529.706Z" fill="#63B6FF" stroke="black" stroke-width="20" stroke-miterlimit="10"/>
<path d="M1092.22 840.956C1129.31 846.783 1158.44 879.098 1168.51 914.062C1171.16 922.538 1172.74 931.543 1171.68 940.549C1169.57 956.972 1158.44 971.275 1145.2 981.341C1121.36 998.823 1087.99 1005.18 1058.32 996.704C1055.14 995.645 1051.96 994.584 1050.37 991.936C1049.31 989.817 1049.84 987.698 1050.37 985.579C1054.61 945.847 1061.5 906.645 1070.5 867.973C1073.15 855.789 1078.98 838.837 1092.75 840.956H1092.22Z" fill="white" stroke="black" stroke-width="20" stroke-miterlimit="10"/>
<path d="M1123.04 935.381C1125.32 929.364 1121.63 922.38 1114.8 919.783C1107.96 917.186 1100.56 919.958 1098.28 925.975C1095.99 931.992 1099.68 938.976 1106.52 941.573C1113.36 944.171 1120.75 941.398 1123.04 935.381Z" fill="black"/>
</svg>
