<svg width="1760" height="1760" viewBox="0 0 1760 1760" fill="none" xmlns="http://www.w3.org/2000/svg">
<rect width="1760" height="1760" fill="white"/>
<path d="M449.287 971.453C493.697 1022.95 575.431 1013.5 640.156 993.186C704.881 972.87 777.638 946.885 838.111 977.595C912.758 1015.86 924.569 1116.5 919.372 1200.12C916.537 1247.37 912.758 1299.81 941.105 1337.61C962.837 1366.43 999.688 1380.6 1035.59 1383.44C1109.77 1389.11 1182.05 1351.31 1233.08 1297.45C1284.1 1243.59 1316.7 1175.08 1343.63 1106.1C1369.61 1038.54 1389.93 957.279 1347.88 898.222C1332.29 876.489 1310.09 860.425 1295.44 838.219C1261.9 787.666 1276.07 720.105 1299.22 664.354C1322.37 608.604 1354.02 553.326 1353.08 492.852C1353.08 483.875 1352.13 474.898 1346.94 467.811C1331.82 446.551 1298.75 458.835 1275.6 471.591C1214.18 505.136 1144.26 523.561 1074.33 525.451C1014.81 526.869 942.994 505.608 929.766 447.495C925.041 427.652 928.349 406.392 920.317 387.966C904.726 353.949 856.065 348.279 822.521 365.288C788.977 382.296 765.827 413.478 739.843 440.409C713.858 467.339 679.369 491.907 642.518 487.182C604.722 482.457 566.454 448.913 532.911 467.811C503.146 484.347 506.453 526.869 498.894 559.941C485.666 616.636 432.752 653.96 402.515 703.568C351.018 788.139 387.397 900.112 449.287 971.453Z" fill="#7968D9" stroke="black" stroke-width="20" stroke-miterlimit="10"/>
<path d="M621.727 651.126C559.364 684.671 560.308 780.107 599.049 836.802C605.191 845.779 612.751 854.756 621.727 860.898C634.011 868.93 648.656 873.182 663.302 875.544C717.161 884.521 777.162 870.347 814.485 833.023C851.808 795.698 861.73 733.806 830.549 691.285C811.178 665.3 779.524 648.764 746.925 642.149C714.326 635.535 673.696 623.251 622.199 651.126H621.727Z" fill="white" stroke="black" stroke-width="20" stroke-miterlimit="10"/>
<path d="M714.33 791.446C728.942 791.446 740.787 780.235 740.787 766.405C740.787 752.576 728.942 741.365 714.33 741.365C699.718 741.365 687.873 752.576 687.873 766.405C687.873 780.235 699.718 791.446 714.33 791.446Z" fill="black"/>
</svg>
