<svg width="1760" height="1760" viewBox="0 0 1760 1760" fill="none" xmlns="http://www.w3.org/2000/svg">
<g clip-path="url(#clip0_10_491)">
<path d="M1760 0H0V1760H1760V0Z" fill="white"/>
<path d="M719.91 477.515C700.169 483.931 677.466 482.944 659.206 492.815C626.14 510.089 618.244 553.026 611.334 589.548C596.035 667.526 566.424 742.543 523.488 809.663C504.24 839.276 482.525 868.394 472.655 901.954C464.265 929.592 464.266 959.204 465.747 988.322C467.721 1026.32 471.669 1064.33 478.085 1101.84C480.059 1112.2 482.032 1123.06 488.448 1131.45C495.851 1140.33 506.709 1144.77 518.06 1147.73C556.554 1158.1 598.503 1153.66 633.543 1135.89C655.752 1125.03 675.985 1108.25 700.661 1104.3C750.014 1095.91 793.938 1141.32 807.756 1189.68C821.575 1238.05 815.652 1288.89 821.575 1338.24C826.016 1374.27 839.835 1413.75 872.407 1429.05C885.732 1435.46 900.538 1436.95 915.343 1436.95C936.565 1436.95 958.28 1433.98 975.553 1422.14C1008.62 1399.93 1016.52 1355.51 1017.5 1316.03C1018.49 1276.55 1016.51 1233.61 1038.23 1200.54C1056.98 1172.41 1090.05 1156.12 1123.61 1151.19C1157.17 1146.25 1191.22 1151.19 1224.78 1156.12C1240.57 1158.59 1257.35 1161.06 1272.16 1155.14C1288.94 1148.23 1299.8 1131.94 1308.68 1116.15C1348.16 1046.56 1374.81 969.569 1387.64 890.11C1389.12 880.733 1390.11 871.356 1386.66 862.472C1377.77 841.744 1349.64 840.756 1328.42 833.847C1292.39 821.509 1270.19 783.506 1265.74 745.504C1261.3 707.502 1272.16 669.994 1284 633.966C1292.39 609.289 1298.81 577.209 1278.08 561.416C1256.37 545.129 1226.76 562.897 1199.61 566.845C1137.43 576.222 1070.31 503.673 1054.02 433.591C1031.81 341.3 1008.13 319.091 937.552 323.532C842.796 329.455 777.158 458.267 719.91 477.515Z" fill="#84FAB0" stroke="black" stroke-width="20" stroke-miterlimit="10"/>
<path d="M1079.69 954.859C1075.24 962.262 1066.86 979.437 1066.86 987.334C1066.86 996.217 1073.77 1001.15 1079.69 1005.1C1104.86 1021.39 1132.01 1034.22 1160.63 1043.6C1167.05 1045.57 1173.46 1047.54 1180.37 1045.57C1195.67 1041.62 1207.52 1021.88 1216.89 1004.61C1231.7 977.463 1247 941.435 1233.18 920.706C1228.24 913.797 1220.84 910.342 1213.44 906.888C1192.71 898.498 1171 891.588 1148.29 887.147C1141.88 885.666 1134.47 884.678 1127.57 888.133C1120.66 891.588 1086.6 942.422 1074.76 963.15L1079.69 954.859Z" fill="white" stroke="black" stroke-width="20" stroke-miterlimit="10"/>
<path d="M1173.31 969.836C1177.19 961.121 1174.69 951.539 1167.72 948.434C1160.74 945.328 1151.95 949.876 1148.06 958.59C1144.18 967.305 1146.69 976.887 1153.66 979.992C1160.63 983.098 1169.43 978.551 1173.31 969.836Z" fill="black"/>
</g>
<defs>
<clipPath id="clip0_10_491">
<rect width="1760" height="1760" fill="white"/>
</clipPath>
</defs>
</svg>
