<svg width="1760" height="1760" viewBox="0 0 1760 1760" fill="none" xmlns="http://www.w3.org/2000/svg">
<rect width="1760" height="1760" fill="white"/>
<path d="M498.461 484.282C458.82 464.379 411.443 444.477 389.206 481.505C380.987 494.927 379.054 511.126 377.12 526.4C373.252 559.262 368.902 592.586 365.034 625.448C360.683 659.698 357.783 697.65 380.02 724.958C403.225 752.728 447.218 760.133 467.038 790.681C485.892 820.303 473.807 858.256 461.238 891.118C447.702 926.756 434.165 961.931 420.146 997.57C409.994 1024.41 399.357 1053.11 405.642 1080.88C409.993 1099.86 422.079 1116.52 430.297 1134.57C460.27 1200.29 439.482 1287.31 493.143 1337.29C533.751 1375.25 604.815 1371.08 647.841 1336.37C690.866 1301.66 708.269 1242.87 701.985 1189.19C693.283 1111.43 643.007 1028.12 684.582 960.543C719.872 903.614 818.975 899.448 859.583 953.138C894.873 999.422 882.304 1063.29 876.02 1120.22C870.702 1167.9 870.219 1216.03 875.053 1263.24C877.47 1289.62 883.755 1318.78 906.476 1334.05C922.429 1344.7 942.732 1345.63 961.586 1346.55C1023.47 1349.33 1084.86 1352.11 1146.74 1354.42C1199.43 1356.73 1254.54 1358.58 1303.37 1339.61C1352.2 1320.63 1394.26 1274.35 1388.94 1223.9C1383.62 1173.91 1337.69 1138.74 1297.09 1107.26C1258.41 1077.64 1220.7 1045.24 1197.98 1003.12C1175.26 961.006 1170.91 907.317 1197.98 867.976C1225.06 828.634 1289.35 812.897 1326.58 844.37C1341.56 856.867 1352.68 876.306 1372.5 880.472C1391.35 884.637 1410.69 871.215 1419.39 854.553C1428.1 837.891 1428.1 818.452 1428.1 799.938C1427.13 698.114 1418.43 596.289 1401.02 495.852C1397.64 475.488 1388.94 444.94 1376.85 427.815C1350.75 391.251 1243.91 441.7 1175.26 456.048C1004.61 492.15 1027.33 368.109 866.834 401.896C822.842 411.153 775.466 431.518 735.341 451.42C674.429 481.505 569.042 519.92 497.495 484.282H498.461Z" fill="#442FBD" stroke="black" stroke-width="20" stroke-miterlimit="10"/>
<path d="M781.751 665.252C774.983 675.897 768.216 688.394 769.182 699.965C770.149 712.461 779.334 719.404 788.519 724.958C826.71 748.1 867.318 766.613 910.343 780.036C920.012 782.813 929.68 785.59 940.315 783.276C963.52 777.722 980.924 749.951 994.943 724.958C1016.7 686.079 1039.42 634.704 1019.11 605.545C1011.86 595.363 1000.75 590.272 989.626 586.106C958.203 573.609 925.329 563.89 891.973 557.41C881.821 555.559 871.185 553.708 860.55 558.336C849.914 562.964 799.638 635.63 781.751 664.789V665.252Z" fill="white" stroke="black" stroke-width="20" stroke-miterlimit="10"/>
<path d="M928.071 674.944C933.829 662.568 929.994 648.91 919.507 644.438C909.02 639.965 895.851 646.372 890.093 658.748C884.336 671.123 888.169 684.781 898.656 689.254C909.144 693.726 922.313 687.32 928.071 674.944Z" fill="black"/>
</svg>
