<svg width="1760" height="1760" viewBox="0 0 1760 1760" fill="none" xmlns="http://www.w3.org/2000/svg">
<rect width="1760" height="1760" fill="white"/>
<path d="M765.522 484.027C695.091 506.438 704.055 634.817 734.788 702.048C744.393 723.178 753.677 748.15 742.792 767.679C713.979 819.222 612.175 785.607 614.096 797.132C629.783 887.094 632.984 970.332 633.945 1047.81C633.945 1054.21 633.944 1061.25 630.423 1066.7C624.02 1076.62 608.654 1076.94 598.089 1071.5C587.525 1066.06 579.201 1056.77 568.956 1050.69C544.626 1035.64 509.41 1042.05 491.482 1064.14C465.551 1096.47 453.705 1163.38 511.331 1211.08C656.994 1330.82 619.538 1370.84 670.121 1395.49C701.814 1410.86 739.271 1400.61 774.166 1394.53C876.291 1376.92 980.656 1399.01 1084.06 1401.57C1103.59 1401.89 1124.08 1401.57 1141.69 1392.93C1169.86 1378.84 1183.94 1346.83 1195.47 1317.69C1210.84 1279.28 1226.2 1240.54 1241.57 1202.12C1253.41 1172.35 1265.26 1140.97 1259.5 1109.6C1253.73 1078.22 1222.04 1049.41 1191.63 1059.33C1168.9 1066.7 1148.41 1092.95 1126.64 1083.34C1113.51 1077.58 1108.71 1060.93 1109.35 1046.53C1111.59 1002.67 1147.77 968.731 1166.98 929.033C1198.99 863.083 1182.98 784.967 1166.02 713.254C1160.57 690.523 1153.85 665.552 1134.64 651.785C1126.64 646.022 1089.18 636.418 1087.9 560.223C1087.26 529.489 1081.18 399.188 1012.67 408.472C905.423 422.879 1006.59 540.373 989.619 626.173C973.612 706.21 818.025 710.052 830.19 595.759C839.154 511.24 820.266 466.739 765.522 484.027Z" fill="#96BDF2" stroke="black" stroke-width="20" stroke-miterlimit="10"/>
<path d="M845.553 990.502C839.471 1010.35 834.029 1034.36 847.795 1050.37C856.759 1060.29 870.844 1063.82 884.29 1065.74C901.258 1067.98 918.866 1068.62 935.193 1063.82C951.52 1059.01 966.566 1047.49 972.329 1031.48C978.411 1014.51 973.29 995.944 966.887 979.296C955.042 948.242 938.395 918.148 912.143 897.338C909.262 895.097 906.06 892.856 902.538 891.896C894.535 889.655 885.891 895.097 881.409 901.82C876.927 908.544 852.276 967.451 845.233 990.502H845.553Z" fill="white" stroke="black" stroke-width="20" stroke-miterlimit="10"/>
<path d="M907.022 1018.35C916.393 1018.35 923.989 1012.05 923.989 1004.27C923.989 996.487 916.393 990.181 907.022 990.181C897.651 990.181 890.055 996.487 890.055 1004.27C890.055 1012.05 897.651 1018.35 907.022 1018.35Z" fill="#030005"/>
</svg>
