<svg width="1760" height="1760" viewBox="0 0 1760 1760" fill="none" xmlns="http://www.w3.org/2000/svg">
<rect width="1760" height="1760" fill="white"/>
<path d="M838.753 406.55C744.518 401.29 765.556 498.158 742.764 545.935C724.794 584.068 685.346 611.244 643.269 615.188C621.792 616.942 598.562 613.435 578.838 622.201C542.021 638.857 536.323 687.071 524.489 725.643C505.204 787.445 407.901 888.258 427.624 950.061C455.676 1039.92 547.28 921.57 594.179 959.704C621.354 981.619 631.873 1023.7 625.737 1057.89C605.137 1175.79 521.86 1374.35 523.613 1384.87C531.064 1435.71 960.601 1373.03 987.776 1359.01C1014.95 1344.98 1036.43 1317.37 1034.24 1287.56C1032.04 1257.76 1007.94 1234.97 989.09 1211.73C961.916 1178.42 943.069 1138.54 934.302 1096.9C918.962 1023.26 954.026 983.372 1003.12 971.538C1166.6 931.651 1120.14 1153.44 1152.58 1170.53C1168.8 1178.86 1259.96 1179.74 1281.88 1157.82C1297.66 1142.04 1401.09 697.591 1328.34 644.117C1311.68 631.844 1225.34 653.76 1175.81 565.659C1162.22 541.113 1176.68 481.94 1177.12 453.888C1178 416.193 1156.96 337.296 1081.57 354.391C925.536 389.894 1144.69 530.155 1014.51 581.438C944.383 609.052 896.17 576.178 893.541 500.349C892.664 479.31 907.127 411.372 839.19 407.427L838.753 406.55Z" fill="#FFD58C" stroke="black" stroke-width="20" stroke-miterlimit="10"/>
<path d="M1041.24 750.189C1048.26 762.9 1041.24 792.705 1025.9 812.868C1002.67 844.426 958.844 858.891 921.15 847.056C883.456 835.222 855.842 798.403 854.527 759.393C854.527 757.202 854.528 755.011 855.405 752.819C856.72 750.189 859.787 748.874 862.855 747.997C924.656 726.082 1030.73 731.342 1040.81 750.189H1041.24Z" fill="#FAFCFF" stroke="black" stroke-width="20" stroke-miterlimit="10"/>
<path d="M973.746 805.855C981.008 805.855 986.896 799.968 986.896 792.706C986.896 785.443 981.008 779.557 973.746 779.557C966.484 779.557 960.598 785.443 960.598 792.706C960.598 799.968 966.484 805.855 973.746 805.855Z" fill="black" stroke="black" stroke-width="20" stroke-miterlimit="10"/>
</svg>
