<svg width="1760" height="1760" viewBox="0 0 1760 1760" fill="none" xmlns="http://www.w3.org/2000/svg">
<rect width="1760" height="1760" fill="white"/>
<path d="M589.107 558.558C550.806 552.87 504.921 550.216 481.031 580.933C470.413 594.585 467 612.029 463.587 628.715C428.32 807.708 393.053 986.702 357.786 1165.7C355.511 1177.45 353.236 1189.59 357.028 1200.96C365.371 1224.48 394.949 1230.92 419.598 1233.58C605.034 1254.05 790.848 1274.15 976.284 1294.63C996.003 1296.91 1016.1 1298.8 1035.06 1292.74C1055.16 1285.91 1070.71 1270.36 1083.98 1254.05C1137.83 1186.55 1161.72 1095.54 1227.32 1039.79C1267.9 1005.28 1320.61 987.84 1361.57 954.089C1402.52 920.338 1429.82 857.387 1398.35 814.534C1374.46 782.3 1328.57 776.612 1289.14 781.542C1249.7 786.472 1209.88 799.366 1170.44 794.056C1150.72 791.402 1129.11 781.921 1122.66 762.96C1118.49 749.687 1122.66 735.277 1126.45 721.625C1138.97 678.014 1146.93 632.886 1149.96 587.759C1150.72 579.416 1149.96 569.177 1143.52 564.247C1138.97 561.213 1133.28 560.834 1127.97 561.213C954.289 563.488 778.334 587.379 588.727 559.696L589.107 558.558Z" fill="#2667FF" stroke="black" stroke-width="20" stroke-miterlimit="10"/>
<path d="M917.888 848.286C923.955 859.283 917.889 885.071 904.616 902.515C884.518 929.819 846.596 942.333 813.984 932.094C781.371 921.855 757.481 890 756.344 856.249C756.344 854.353 756.343 852.457 757.102 850.561C758.239 848.286 760.894 847.148 763.549 846.39C817.018 827.429 908.788 831.979 917.51 848.286H917.888Z" fill="#FAFCFF" stroke="black" stroke-width="20" stroke-miterlimit="10"/>
<path d="M837.108 896.067C843.391 896.067 848.485 890.973 848.485 884.69C848.485 878.407 843.391 873.313 837.108 873.313C830.825 873.313 825.732 878.407 825.732 884.69C825.732 890.973 830.825 896.067 837.108 896.067Z" fill="black" stroke="black" stroke-width="20" stroke-miterlimit="10"/>
</svg>
