<svg width="1760" height="1760" viewBox="0 0 1760 1760" fill="none" xmlns="http://www.w3.org/2000/svg">
<rect width="1760" height="1760" fill="white"/>
<path d="M566.58 676.202C557.549 730.067 550.776 770.707 535.617 823.281C528.844 846.181 543.035 868.76 557.226 873.92C639.794 904.562 715.59 824.894 773.001 894.563C812.672 942.622 771.711 991.002 740.747 1015.19C703.979 1043.9 661.727 1064.86 625.926 1094.54C576.578 1135.5 540.777 1192.91 525.94 1255.16C523.683 1264.52 522.392 1274.84 527.875 1282.58C533.359 1290 543.68 1291.93 553.033 1292.58C640.117 1299.67 726.234 1276.13 812.673 1263.87C1023.93 1234.52 1085.86 1327.41 1126.5 1351.28C1182.62 1384.18 1224.55 1349.67 1236.8 1306.13C1253.9 1245.17 1234.87 1175.5 1189.07 1131.63C1156.49 1100.34 1112.95 1082.6 1080.05 1051.96C1047.15 1021.32 1027.16 966.489 1055.86 931.655C1066.83 918.431 1082.63 910.367 1095.53 898.756C1141.33 857.793 1136.82 785.866 1128.43 724.906C1122.95 684.588 1116.5 565.893 1113.6 560.087C1101.34 536.542 1060.06 572.666 1035.22 562.345C1006.84 550.411 995.871 515.899 992.968 485.258C987.163 422.685 971.681 324.31 889.113 341.082C836.54 351.726 813.64 417.524 834.282 482.032C863.31 572.989 971.036 604.921 891.693 664.268C841.7 701.361 670.436 682.653 566.903 676.202H566.58Z" fill="#FF6640" stroke="black" stroke-width="20" stroke-miterlimit="10"/>
<path d="M1024.9 754.58C979.423 692.652 891.049 730.067 873.31 780.061C844.282 863.6 957.169 872.308 997.485 857.149C1051.03 837.474 1043.28 780.061 1024.9 754.58Z" fill="white" stroke="black" stroke-width="20" stroke-miterlimit="10"/>
<path d="M947.172 812.96C956.435 812.96 963.944 807.184 963.944 800.058C963.944 792.933 956.435 787.157 947.172 787.157C937.909 787.157 930.4 792.933 930.4 800.058C930.4 807.184 937.909 812.96 947.172 812.96Z" fill="black"/>
</svg>
