<svg width="1760" height="1760" viewBox="0 0 1760 1760" fill="none" xmlns="http://www.w3.org/2000/svg">
<rect width="1760" height="1760" fill="white"/>
<path d="M530.932 428.38L540.881 590.873C542.355 612.981 543.459 636.194 535.353 656.828C516.93 703.623 456.504 724.626 442.134 772.526C429.606 813.426 456.504 856.536 489.665 883.066C522.826 909.595 563.724 925.808 596.517 953.443C634.836 985.499 660.26 1032.66 666.155 1082.41C674.63 1154.99 642.942 1229.42 658.786 1300.91C666.155 1334.07 684.579 1365.76 712.581 1384.92C740.584 1404.08 778.166 1410.71 809.853 1397.44C859.226 1376.44 879.491 1316.38 879.123 1262.95C878.754 1209.53 862.91 1156.84 864.752 1103.41C866.226 1064.72 878.754 1023.82 910.441 1001.71C957.235 969.286 1020.24 991.026 1074.04 1008.71C1145.15 1031.93 1219.57 1045.93 1294.37 1049.98C1329.74 1051.82 1367.33 1051.09 1396.8 1031.93C1432.91 1008.71 1448.75 959.338 1436.23 918.07C1423.7 876.802 1385.38 845.851 1343.01 838.482C1292.53 829.639 1235.79 850.272 1192.31 823.374C1153.62 799.424 1143.31 747.471 1144.04 701.781C1145.88 615.929 1173.52 533.024 1186.41 447.909C1188.99 432.065 1189.73 413.273 1177.94 402.219C1162.83 388.586 1139.25 397.06 1120.46 404.798C1031.29 441.645 932.917 448.646 836.382 446.435C739.846 444.224 643.68 433.907 531.669 427.643L530.932 428.38Z" fill="#FCFFA6" stroke="black" stroke-width="20" stroke-miterlimit="10"/>
<path d="M857.753 631.403C847.805 604.505 802.853 607.453 774.851 606.347C764.534 606.347 753.85 605.979 744.638 610.769C729.9 618.875 724.742 638.035 721.794 655.353C716.636 688.884 714.793 723.151 716.267 757.049C716.267 762.945 717.003 769.209 719.583 774.736C725.478 787.632 740.217 792.79 753.481 796.107C776.325 802.002 799.907 806.792 823.12 810.108C829.015 810.845 835.278 811.582 840.805 809.003C849.648 804.582 852.595 793.528 854.437 783.948C864.017 730.152 870.649 667.144 857.753 631.403Z" fill="white" stroke="black" stroke-width="20" stroke-miterlimit="10"/>
<path d="M779.267 708.78C785.372 708.78 790.32 703.831 790.32 697.726C790.32 691.621 785.372 686.673 779.267 686.673C773.162 686.673 768.213 691.621 768.213 697.726C768.213 703.831 773.162 708.78 779.267 708.78Z" fill="black" stroke="black" stroke-width="20" stroke-miterlimit="10"/>
</svg>
