<svg width="1760" height="1760" viewBox="0 0 1760 1760" fill="none" xmlns="http://www.w3.org/2000/svg">
<g clip-path="url(#clip0_10_512)">
<path d="M1760 0H0V1760H1760V0Z" fill="white"/>
<path d="M584.429 499C559.036 510.069 559.362 545.555 561.315 573.553C563.92 610.015 562.292 646.803 556.106 682.94C551.223 711.264 543.41 740.239 525.179 762.702C492.624 803.397 433.7 816.094 401.796 857.44C376.078 890.321 372.497 935.248 374.45 976.92C375.427 1000.36 378.356 1024.13 389.099 1044.64C411.888 1087.93 467.231 1107.14 515.087 1097.38C562.943 1087.61 602.985 1053.75 631.959 1014.36C652.794 985.71 669.398 953.154 695.768 929.388C722.137 905.948 758.924 892.925 793.757 899.111C828.591 905.297 860.17 931.993 867.658 966.502C877.099 1009.8 850.729 1051.8 826.312 1088.59C807.43 1117.56 788.549 1147.19 778.132 1180.07C767.714 1212.95 765.76 1250.06 779.759 1281.64C800.594 1328.2 852.683 1354.57 903.469 1359.78C959.138 1365.31 1018.06 1348.71 1058.43 1309.64C1096.19 1272.85 1115.08 1219.79 1118.01 1167.05C1120.94 1114.31 1109.54 1061.89 1094.24 1011.43C1089.03 994.5 1083.5 976.92 1088.38 959.991C1091.31 949.898 1097.5 941.108 1105.31 934.271C1133.31 909.203 1180.19 910.18 1207.53 935.899C1231.3 958.688 1241.06 997.43 1271.99 1009.15C1290.55 1016.31 1312.36 1010.45 1328.64 998.732C1344.91 987.012 1356.63 970.083 1366.73 953.154C1389.19 915.715 1407.74 872.09 1398.63 829.767C1387.89 779.631 1342.63 746.099 1308.78 707.683C1271.99 666.012 1246.27 614.248 1234.88 559.879C1232.92 550.438 1231.3 540.346 1224.79 532.858C1216 522.44 1200.7 520.487 1187.02 519.51C1047.04 508.441 906.398 503.232 765.761 503.558C721.486 503.558 703.456 503.883 611 499H584.429Z" fill="#B7ABFF" stroke="black" stroke-width="20" stroke-miterlimit="10"/>
<path d="M1040.85 1120.82C984.207 1034.87 874.491 1086.63 852.679 1156.3C816.543 1271.88 956.856 1283.92 1006.99 1263.09C1073.4 1235.74 1064.29 1156.3 1040.85 1120.82Z" fill="white" stroke="black" stroke-width="20" stroke-miterlimit="10"/>
<path d="M944.16 1201.88C955.667 1201.88 964.995 1193.72 964.995 1183.65C964.995 1173.58 955.667 1165.42 944.16 1165.42C932.653 1165.42 923.324 1173.58 923.324 1183.65C923.324 1193.72 932.653 1201.88 944.16 1201.88Z" fill="black"/>
<path d="M566.851 903.016C529.738 852.88 457.792 883.157 443.793 923.526C420.028 991.242 511.833 998.079 544.714 986.033C588.338 970.081 582.152 923.526 566.851 903.016Z" fill="white" stroke="black" stroke-width="20" stroke-miterlimit="10"/>
<path d="M503.696 950.223C511.247 950.223 517.37 945.558 517.37 939.805C517.37 934.051 511.247 929.387 503.696 929.387C496.145 929.387 490.023 934.051 490.023 939.805C490.023 945.558 496.145 950.223 503.696 950.223Z" fill="black"/>
</g>
<defs>
<clipPath id="clip0_10_512">
<rect width="1760" height="1760" fill="white"/>
</clipPath>
</defs>
</svg>
