<svg width="1760" height="1760" viewBox="0 0 1760 1760" fill="none" xmlns="http://www.w3.org/2000/svg">
<rect width="1760" height="1760" fill="white"/>
<path d="M581.221 482.384C560.049 510.347 573.232 550.293 589.61 581.451C615.974 632.184 648.729 679.32 686.677 722.463C718.634 758.814 755.783 793.567 770.163 839.506C790.136 903.021 762.573 972.129 724.625 1026.86C699.06 1063.61 655.919 1099.96 614.376 1083.18C592.805 1074.39 579.223 1053.62 564.843 1035.64C547.267 1014.07 526.097 994.499 499.733 985.311C451.798 968.534 406.26 982.914 401.865 1026.86C393.477 1109.15 447.004 1217.4 521.702 1253.35C596.4 1289.3 682.683 1290.9 765.37 1284.91C848.057 1278.92 930.746 1264.94 1013.43 1273.33C1065.36 1278.52 1117.29 1292.1 1169.22 1289.3C1227.14 1286.11 1285.06 1260.14 1318.61 1213.01C1352.17 1165.87 1356.56 1097.16 1321.81 1050.82C1304.63 1027.65 1276.67 1010.88 1247.91 1012.87C1214.36 1015.27 1185.6 1042.43 1151.64 1042.43C1122.48 1042.43 1096.12 1021.66 1082.94 995.697C1069.76 969.732 1068.16 939.373 1070.15 910.212C1076.15 834.713 1107.7 763.608 1147.25 698.894C1228.74 564.674 1204.37 470 1204.37 470C1204.37 470 816.706 492.77 601 482.384H581.221Z" fill="#FFF570" stroke="black" stroke-width="20" stroke-miterlimit="10"/>
<path d="M1011.44 640.97C1017.83 652.555 1011.44 679.719 997.456 698.094C976.284 726.856 936.338 740.038 901.985 729.253C867.632 718.467 842.468 684.912 841.27 649.359C841.27 647.362 841.268 645.365 842.067 643.368C843.265 640.971 846.061 639.772 848.857 638.973C905.18 619 1001.85 623.793 1011.04 640.97H1011.44Z" fill="#FAFCFF" stroke="black" stroke-width="20" stroke-miterlimit="10"/>
<path d="M927.542 691.305C934.16 691.305 939.525 685.94 939.525 679.321C939.525 672.702 934.16 667.337 927.542 667.337C920.923 667.337 915.559 672.702 915.559 679.321C915.559 685.94 920.923 691.305 927.542 691.305Z" fill="black" stroke="black" stroke-width="20" stroke-miterlimit="10"/>
</svg>
