<svg width="1760" height="1760" viewBox="0 0 1760 1760" fill="none" xmlns="http://www.w3.org/2000/svg">
<rect width="1760" height="1760" fill="white"/>
<path d="M693.841 1165.49C787.14 1183.9 894.245 1168 988.381 1156.29C1115.57 1140.39 1188.37 1203.15 1286.69 1156.29C1336.89 1132.44 1384.59 1092.69 1392.96 1037.88C1401.32 983.072 1380.82 924.078 1339.82 886.004C1318.48 866.34 1292.13 851.696 1276.65 827.429C1257.82 798.56 1258.24 761.742 1253.22 727.852C1248.2 693.962 1232.3 655.888 1199.25 646.265C1161.59 635.387 1126.45 665.93 1092.14 684.757C1012.23 729.107 914.327 713.208 824.794 696.054C714.759 675.134 602.633 653.378 504.313 599.824C491.761 593.129 478.792 585.598 464.567 586.017C433.188 587.272 417.29 623.672 409.341 653.796C397.626 696.891 385.493 739.985 373.778 783.08C368.757 801.489 363.737 820.317 367.084 839.144C370.849 861.738 385.911 880.147 400.554 897.719C421.473 922.823 575.02 1142.06 694.259 1165.91L693.841 1165.49Z" fill="#99E6FF" stroke="black" stroke-width="20" stroke-miterlimit="10"/>
<path d="M682.127 781.824C636.941 833.287 649.075 952.11 669.576 1027.42C672.923 1039.55 677.106 1050.85 682.127 1059.22C688.821 1070.1 696.77 1075.54 704.72 1078.88C734.006 1090.6 766.221 1072.19 786.722 1022.82C807.223 973.448 812.244 891.443 795.509 835.379C785.049 801.07 767.895 779.314 749.905 770.109C731.915 760.905 706.393 754.21 682.127 781.824Z" fill="white" stroke="black" stroke-width="20" stroke-miterlimit="10"/>
<path d="M732.334 967.172C740.19 967.172 746.559 952.561 746.559 934.537C746.559 916.513 740.19 901.902 732.334 901.902C724.478 901.902 718.108 916.513 718.108 934.537C718.108 952.561 724.478 967.172 732.334 967.172Z" fill="black"/>
</svg>
