<svg width="1760" height="1760" viewBox="0 0 1760 1760" fill="none" xmlns="http://www.w3.org/2000/svg">
<g clip-path="url(#clip0_10_504)">
<path d="M1760 0H0V1760H1760V0Z" fill="white"/>
<path d="M611.348 566.935C605.839 640.135 587.735 712.548 555.858 779.057C520.046 854.225 466.92 927.819 471.249 1010.86C473.216 1045.49 491.319 1100.98 522.802 1115.15C572.388 1137.97 629.845 1075.79 680.611 1096.26C714.456 1110.03 754.595 1148.6 753.021 1185.2C748.692 1300.12 658.178 1345.77 664.081 1358.75C678.248 1391.42 1020.23 1368.59 1134.75 1361.9C1154.43 1360.72 1174.89 1359.54 1191.82 1349.31C1227.63 1328.06 1233.53 1279.65 1235.11 1237.94C1242.98 1039.59 1250.85 841.632 1258.72 643.283C1259.9 615.735 1258.32 582.677 1234.71 568.115C1220.54 559.457 1202.84 560.638 1186.7 557.489C1147.35 549.618 1115.08 513.019 1113.11 472.877C1112.72 461.464 1104.84 375.276 1038.34 384.722C1001.74 389.838 982.849 446.115 980.881 483.109C978.52 525.612 1013.15 627.148 1016.69 669.258C1020.23 711.367 1019.84 759.773 984.816 783.78C846.29 880.593 808.903 646.825 779.781 617.702C738.46 576.38 703.83 573.625 611.348 566.935Z" fill="#99E6FF" stroke="black" stroke-width="20" stroke-miterlimit="10"/>
<path d="M1102.88 1001.81C1034.4 897.912 901.386 960.487 875.019 1044.7C831.337 1184.41 1000.95 1198.97 1061.56 1173.79C1141.84 1140.73 1131.22 1044.7 1102.88 1001.81Z" fill="white" stroke="black" stroke-width="20" stroke-miterlimit="10"/>
<path d="M985.991 1099.8C999.901 1099.8 1011.18 1089.93 1011.18 1077.76C1011.18 1065.59 999.901 1055.72 985.991 1055.72C972.081 1055.72 960.807 1065.59 960.807 1077.76C960.807 1089.93 972.081 1099.8 985.991 1099.8Z" fill="black"/>
</g>
<defs>
<clipPath id="clip0_10_504">
<rect width="1760" height="1760" fill="white"/>
</clipPath>
</defs>
</svg>
