<svg width="1760" height="1760" viewBox="0 0 1760 1760" fill="none" xmlns="http://www.w3.org/2000/svg">
<rect width="1760" height="1760" fill="white"/>
<path d="M788.752 565.514C741.624 643.704 623.27 644.775 562.219 712.79C524.732 755.099 515.627 815.08 509.201 871.313C492.599 1011.09 477.069 1150.34 463.68 1290.65C460.467 1322.25 459.396 1359.74 484.031 1380.09C496.884 1390.8 514.021 1394.55 530.623 1397.22C584.712 1406.86 647.905 1411.15 686.464 1372.59C710.563 1348.49 719.132 1312.61 724.487 1278.87C729.842 1245.13 733.591 1209.78 751.264 1180.33C768.937 1150.87 806.424 1129.99 838.021 1142.3C872.831 1156.23 883.006 1200.14 888.361 1237.09C892.646 1266.55 896.394 1296.01 900.679 1325.46C902.821 1339.92 904.963 1354.92 914.067 1365.63C926.92 1381.16 948.877 1383.84 969.228 1385.98C996.54 1388.66 1023.32 1391.33 1050.63 1394.01C1070.98 1396.15 1091.87 1397.76 1110.61 1389.73C1145.42 1375.27 1172.2 1343.67 1177.55 1306.18C1183.98 1261.19 1188.26 1220.49 1182.91 1174.97C1178.09 1134.81 1167.91 1084.46 1191.48 1051.26C1258.42 957.001 1410.51 885.773 1358.56 809.725C1332.86 771.701 1285.73 774.379 1254.13 741.174C1234.32 720.288 1222 691.368 1232.71 664.055C1243.42 636.742 1263.24 614.784 1284.12 594.433C1314.65 564.442 1346.25 536.058 1379.98 509.816C1407.3 487.858 1437.29 465.365 1448 432.161C1458.71 398.957 1436.75 353.435 1401.94 356.113C1388.02 357.184 1376.24 364.682 1364.45 372.18C1320 398.957 1270.2 416.63 1218.79 424.663C1154.52 434.839 1088.65 429.483 1024.39 439.659C926.92 455.19 827.31 501.248 788.752 565.514Z" fill="#FCFFA6" stroke="black" stroke-width="20" stroke-miterlimit="10"/>
<path d="M733.587 960.75C720.734 900.768 753.402 837.572 803.207 801.155C815.524 792.586 828.377 784.553 843.372 781.34C871.22 774.913 900.674 783.481 924.774 798.477C967.617 825.254 996.536 872.384 1001.89 922.19C1001.89 927.545 1002.43 933.436 998.678 937.185C996 939.863 992.787 940.399 989.038 941.47C923.167 958.072 856.76 970.389 789.818 978.958C768.932 981.636 738.407 982.707 733.587 960.75Z" fill="white" stroke="black" stroke-width="20" stroke-miterlimit="10"/>
<path d="M865.858 901.304C876.801 901.304 885.673 891.712 885.673 879.881C885.673 868.05 876.801 858.459 865.858 858.459C854.914 858.459 846.043 868.05 846.043 879.881C846.043 891.712 854.914 901.304 865.858 901.304Z" fill="black"/>
</svg>
