<svg width="1760" height="1760" viewBox="0 0 1760 1760" fill="none" xmlns="http://www.w3.org/2000/svg">
<rect width="1760" height="1760" fill="white"/>
<path d="M730.419 686.779C658.685 686.012 609.968 750.075 568.155 808.384C553.961 828.332 540.152 854.035 550.893 876.284C565.853 907.357 616.105 906.206 632.6 936.512C640.656 951.473 637.587 970.27 630.298 985.614C603.83 1040.47 529.411 1063.49 511.381 1121.8C503.326 1147.5 508.313 1175.12 507.929 1201.97C507.545 1223.45 503.326 1244.55 504.093 1265.65C504.86 1286.75 510.998 1309.38 527.493 1323.19C542.453 1335.85 563.168 1339.31 582.732 1341.61C625.312 1346.59 668.275 1348.9 711.239 1348.9C725.432 1348.9 740.009 1348.51 752.668 1341.61C777.219 1328.18 782.973 1295.96 789.11 1268.34C795.632 1239.95 805.989 1210.41 828.238 1191.61C850.487 1172.82 886.929 1167.45 908.411 1187.39C943.319 1219.62 915.316 1284.45 944.853 1321.66C965.184 1347.36 1003.16 1348.13 1035.38 1352.73C1059.93 1356.18 1084.1 1363.09 1108.65 1364.62C1133.2 1366.16 1160.05 1361.17 1178.08 1343.91C1195.35 1327.8 1201.87 1303.25 1207.62 1280.23C1216.83 1242.63 1224.5 1198.9 1200.72 1168.6C1178.08 1139.83 1137.04 1135.22 1105.58 1117.19C1066.84 1094.94 1059.55 1051.98 1069.14 1014.77C1075.66 989.45 1099.83 964.899 1125.53 964.132C1155.07 963.365 1186.52 970.269 1212.22 956.076C1235.62 943.033 1247.13 916.563 1255.57 891.245C1270.53 844.828 1278.97 796.492 1280.89 747.39C1281.27 735.882 1280.89 723.606 1275.9 713.248C1266.7 696.369 1245.6 689.464 1226.42 689.081C1207.24 688.697 1187.67 692.15 1168.88 688.697C1129.37 681.409 1100.98 644.582 1088.7 606.221C1073.36 558.269 1079.11 396 1009.68 396C912.247 396 886.162 579.751 837.061 642.664C813.277 673.353 792.179 687.546 730.803 686.779H730.419Z" fill="#63B6FF" stroke="black" stroke-width="20" stroke-miterlimit="10"/>
<path d="M857.777 1000.57C823.253 994.052 797.552 961.445 790.647 925.769C789.112 916.946 787.962 908.123 789.88 899.299C792.949 882.42 804.457 868.227 818.266 858.253C842.433 840.606 874.272 834.852 901.508 843.292C904.194 844.059 907.646 845.594 908.413 848.279C909.18 850.197 908.797 852.499 908.413 854.417C901.508 894.696 892.302 934.208 880.794 973.721C877.341 985.996 870.436 1003.26 857.777 1000.96V1000.57Z" fill="white" stroke="black" stroke-width="20" stroke-miterlimit="10"/>
<path d="M858.223 912.647C860.899 906.418 858.019 899.199 851.79 896.523C845.561 893.846 838.342 896.727 835.666 902.956C832.99 909.185 835.87 916.404 842.098 919.08C848.327 921.756 855.547 918.876 858.223 912.647Z" fill="black"/>
</svg>
