<svg width="1760" height="1760" viewBox="0 0 1760 1760" fill="none" xmlns="http://www.w3.org/2000/svg">
<rect width="1760" height="1760" fill="white"/>
<path d="M695.178 551.257C668.717 534.22 628.481 544.732 613.62 572.644C608.908 581.706 606.37 592.581 609.27 602.73C612.532 614.33 622.319 623.03 629.206 633.179C654.942 669.428 644.793 719.089 633.556 762.225C621.957 807.174 606.733 849.585 563.598 866.984C537.137 877.496 511.038 856.835 469.353 888.009C437.455 911.57 428.031 960.869 449.779 994.218C476.24 1035.18 538.224 1039.17 567.223 1077.95C591.509 1110.58 584.984 1156.25 572.66 1195.04C567.948 1210.26 562.51 1225.85 565.41 1241.43C572.297 1276.96 620.144 1289.65 653.855 1276.23C687.566 1262.82 711.489 1233.1 739.038 1209.54C766.586 1185.97 799.934 1167.13 835.819 1162.41C871.705 1157.7 911.215 1168.57 935.501 1195.76C960.512 1223.31 969.574 1266.45 1002.56 1283.85C1016.7 1291.46 1033.01 1292.91 1048.96 1294C1079.41 1296.53 1109.49 1299.07 1139.94 1301.61C1152.99 1302.7 1166.76 1303.78 1178.72 1298.35C1197.57 1289.65 1206.64 1268.26 1213.16 1248.32C1245.42 1149.73 1263.54 1046.05 1266.08 942.382C1266.08 933.682 1266.08 924.62 1263.18 916.645C1254.85 896.346 1230.56 889.821 1209.54 882.934C1160.96 867.347 1114.57 835.448 1097.89 787.237C1081.22 739.026 1108.04 675.953 1158.06 667.253C1183.44 662.904 1210.62 671.965 1234.55 662.903C1268.26 650.579 1281.31 610.342 1288.56 575.181C1298.34 528.057 1306.68 478.759 1294.72 431.636C1292.54 422.936 1289.28 414.236 1282.39 408.799C1272.61 401.549 1258.83 404.087 1248.32 409.886C1237.81 415.686 1229.83 425.111 1220.41 432.723C1189.96 457.01 1144.65 460.272 1110.94 441.06C1086.65 427.286 1068.89 402.999 1043.16 392.487C999.66 374.363 946.013 403.362 927.527 446.86C916.652 472.597 915.202 501.958 901.791 526.608C886.204 555.244 856.118 573.369 824.583 580.981C793.047 588.593 757.162 590.768 695.54 551.257H695.178Z" fill="#99E6FF" stroke="black" stroke-width="20" stroke-miterlimit="10"/>
<path d="M1016.33 1125.08C1014.16 1137.76 1011.98 1151.9 1013.8 1162.77C1015.97 1174.74 1022.13 1178 1027.57 1180.17C1051.49 1189.24 1076.14 1192.86 1101.15 1191.05C1106.59 1190.69 1112.39 1189.96 1117.83 1183.8C1129.79 1170.39 1135.59 1137.4 1139.94 1108.76C1146.83 1063.81 1152.26 1006.54 1137.4 985.517C1132.33 978.268 1125.44 977.18 1118.92 976.818C1100.07 975.73 1081.22 977.905 1062.01 982.98C1056.21 984.43 1050.41 986.605 1045.33 994.942C1040.26 1003.28 1022.5 1090.64 1016.7 1125.08H1016.33Z" fill="white" stroke="black" stroke-width="20" stroke-miterlimit="10"/>
<path d="M1097.26 1084.03C1098.78 1069.89 1095.01 1057.9 1088.84 1057.24C1082.67 1056.58 1076.43 1067.5 1074.92 1081.63C1073.4 1095.76 1077.18 1107.76 1083.35 1108.42C1089.52 1109.08 1095.75 1098.16 1097.26 1084.03Z" fill="black"/>
</svg>
