<svg width="1760" height="1760" viewBox="0 0 1760 1760" fill="none" xmlns="http://www.w3.org/2000/svg">
<rect width="1760" height="1760" fill="white"/>
<path d="M1056.44 429.879C1057.85 402.773 1049.05 363.346 1030.39 343.633C1011.73 323.567 981.461 315.823 954.708 322.159C927.955 328.496 904.721 347.153 890.993 370.739C877.264 393.973 872.336 421.078 860.719 445.72C841.71 485.147 805.1 515.774 762.858 527.391C744.905 532.319 725.544 534.431 711.463 546.4C702.663 554.145 697.383 565.058 693.511 576.323C682.95 608.005 683.654 642.504 676.262 675.242C668.869 707.981 650.564 742.127 618.179 751.632C605.154 755.504 591.425 755.152 578.049 757.616C545.311 763.601 517.15 788.947 507.645 820.63C498.141 852.312 507.645 888.923 531.23 912.156C565.024 945.247 622.051 950.175 648.1 989.602C666.053 1017.06 663.237 1052.62 658.661 1085C648.1 1160.34 631.555 1235.32 609.73 1308.19C605.154 1323.68 600.226 1341.28 609.026 1355.01C616.771 1367.33 632.612 1371.9 646.692 1375.07C681.19 1383.17 716.04 1391.27 750.537 1399.36C764.618 1402.88 779.403 1406.05 793.836 1403.59C826.221 1398.31 847.342 1366.27 856.847 1334.94C866.351 1303.61 868.816 1269.82 883.952 1240.6C899.089 1211.38 934.291 1188.5 964.212 1201.52C991.67 1213.14 1000.82 1247.29 1003.64 1276.86C1006.45 1306.43 1007.86 1339.52 1028.98 1360.64C1043.42 1375.07 1064.19 1380.35 1084.25 1384.58C1114.88 1390.56 1145.85 1394.43 1176.83 1395.84C1187.39 1396.19 1198.3 1396.55 1207.46 1391.62C1221.19 1384.58 1227.87 1369.09 1232.8 1354.65C1244.42 1320.86 1269.76 1253.97 1273.99 1218.42C1275.75 1202.93 1118.4 1173.01 1126.14 1062.82C1129.66 1015.65 1161.69 988.547 1207.46 1003.68C1224.35 1009.32 1245.12 1011.08 1258.15 998.755C1265.89 991.363 1269.06 980.45 1271.88 970.241C1290.53 901.596 1304.61 826.966 1279.27 760.433C1271.52 740.015 1259.56 720.653 1241.95 707.981C1210.27 685.451 1172.96 676.299 1139.52 677.707C1095.52 679.819 1044.82 677.002 1020.54 640.391C962.1 552.737 1053.27 494.3 1056.44 429.879Z" fill="#FF6640" stroke="black" stroke-width="20" stroke-miterlimit="10"/>
<path d="M694.921 1227.22C692.808 1239.54 690.696 1253.27 692.456 1263.83C694.569 1275.45 700.553 1278.62 705.833 1280.73C729.066 1289.53 753.004 1293.05 777.293 1291.29C782.573 1290.94 788.205 1290.23 793.486 1284.25C805.102 1271.22 810.734 1239.19 814.959 1211.38C821.647 1167.73 826.927 1112.11 812.495 1091.69C807.566 1084.65 800.878 1083.59 794.542 1083.24C776.237 1082.18 757.932 1084.3 739.275 1089.23C733.642 1090.63 728.01 1092.75 723.082 1100.84C718.154 1108.94 700.905 1193.78 695.273 1227.22H694.921Z" fill="white" stroke="black" stroke-width="20" stroke-miterlimit="10"/>
<path d="M773.607 1187.4C775.079 1173.68 771.414 1162.03 765.422 1161.39C759.429 1160.74 753.378 1171.35 751.907 1185.08C750.435 1198.8 754.1 1210.45 760.092 1211.09C766.085 1211.73 772.136 1201.13 773.607 1187.4Z" fill="black"/>
</svg>
