<svg width="1760" height="1760" viewBox="0 0 1760 1760" fill="none" xmlns="http://www.w3.org/2000/svg">
<rect width="1760" height="1760" fill="white"/>
<path d="M637.263 633.041C616.589 649.034 593.575 671.659 600.596 696.625C602.937 704.426 608.008 711.057 612.298 718.079C656.767 785.173 654.427 871.772 650.526 952.13C648.576 988.798 641.554 1033.66 606.837 1046.14C582.653 1055.11 555.348 1043.02 530.383 1048.48C501.517 1054.72 481.233 1083.98 480.063 1113.62C478.893 1143.27 494.106 1171.75 514.78 1192.42C535.454 1213.1 562.369 1227.53 589.284 1240.01C626.731 1257.57 665.349 1272.39 704.746 1284.48C734.782 1293.84 768.328 1300.87 796.414 1287.21C829.18 1270.83 842.833 1232.21 855.315 1197.88C867.797 1163.56 887.301 1125.33 923.188 1117.53C964.536 1108.16 1003.15 1146.78 1014.47 1187.74C1025.78 1228.7 1018.37 1272 1020.32 1314.13C1020.32 1322.32 1021.49 1330.51 1025.39 1337.53C1030.07 1346.12 1038.65 1351.58 1046.84 1356.65C1066.74 1367.96 1088.58 1376.54 1110.03 1385.12C1145.92 1399.17 1186.49 1412.82 1221.98 1398C1266.06 1379.27 1282.06 1325.83 1292.59 1279.02C1301.95 1238.06 1310.92 1197.1 1320.28 1155.75C1326.13 1130.4 1331.6 1103.87 1324.96 1078.91C1317.55 1051.6 1296.49 1030.15 1275.03 1011.42C1253.58 992.699 1230.96 974.364 1218.08 949.009C1205.21 923.653 1205.21 889.326 1226.28 870.212C1246.56 852.268 1280.89 853.048 1296.49 831.204C1310.92 811.309 1301.56 781.273 1282.84 764.889C1264.11 748.506 1238.76 743.045 1214.57 737.973C1190.39 732.902 1165.03 727.441 1145.92 711.838C1134.22 702.086 1125.25 688.823 1114.32 678.68C1103.4 668.538 1087.8 659.956 1072.98 663.857C1051.91 669.318 1043.33 693.894 1031.24 712.228C1001.2 756.697 928.649 763.329 891.202 724.32C853.365 684.922 858.436 622.508 864.677 568.286C870.918 514.065 871.308 450.091 829.18 415.373C778.86 374.414 706.306 392.358 687.193 395.479C617.759 407.182 675.1 453.602 675.1 536.3C675.1 566.726 655.987 619.387 637.263 633.43V633.041Z" fill="#DEB0FF" stroke="black" stroke-width="20" stroke-miterlimit="10"/>
<path d="M1083.5 1221.68C1081.16 1235.33 1078.82 1250.55 1080.77 1262.25C1083.11 1275.12 1089.74 1278.63 1095.59 1280.97C1121.34 1290.72 1147.86 1294.63 1174.78 1292.68C1180.63 1292.29 1186.87 1291.5 1192.72 1284.87C1205.6 1270.44 1211.84 1234.94 1216.52 1204.13C1223.93 1155.76 1229.78 1094.12 1213.79 1071.5C1208.33 1063.7 1200.91 1062.53 1193.89 1062.14C1173.61 1060.96 1153.33 1063.31 1132.65 1068.77C1126.41 1070.33 1120.17 1072.67 1114.71 1081.64C1109.25 1090.61 1090.13 1184.62 1083.89 1221.68H1083.5Z" fill="white" stroke="black" stroke-width="20" stroke-miterlimit="10"/>
<path d="M1170.42 1177.72C1172.05 1162.51 1167.99 1149.61 1161.35 1148.89C1154.71 1148.18 1148.01 1159.93 1146.37 1175.14C1144.74 1190.35 1148.8 1203.26 1155.45 1203.97C1162.09 1204.68 1168.79 1192.93 1170.42 1177.72Z" fill="black"/>
</svg>
