<svg width="1760" height="1760" viewBox="0 0 1760 1760" fill="none" xmlns="http://www.w3.org/2000/svg">
<rect width="1760" height="1760" fill="white"/>
<path d="M551.703 587.895C525.214 584.952 495.783 596.725 490.877 622.724C487.443 640.874 494.801 660.005 490.877 678.155C481.557 723.776 414.845 730.153 390.809 769.887C373.64 797.848 383.451 835.62 404.053 861.128C424.655 886.637 453.597 903.315 481.067 921.956C508.536 940.597 535.516 962.181 547.288 992.594C556.118 1014.67 555.627 1038.71 554.156 1062.25C549.251 1127 531.101 1190.77 506.084 1250.62C495.782 1275.15 485.482 1307.52 505.593 1325.18C512.461 1331.56 521.781 1334.01 531.101 1336.47C568.872 1346.77 606.643 1355.6 644.904 1363.45C695.429 1373.75 752.821 1380.61 795.497 1351.18C834.74 1324.2 850.437 1275.15 861.719 1228.55C877.416 1164.28 889.679 1097.57 922.545 1039.69C955.411 981.802 1015.26 934.219 1081.48 937.163C1156.53 940.106 1218.83 1005.35 1293.88 1004.37C1341.46 1003.88 1386.1 974.935 1413.08 935.691C1448.89 883.203 1494.01 678.155 1440.06 632.044C1404.74 601.14 1317.42 633.516 1271.31 624.686C1225.2 615.856 1174.68 597.216 1156.53 553.557C1136.42 504.012 1167.81 442.204 1140.34 395.602C1124.64 369.113 1093.74 355.377 1063.82 348.509C1021.14 338.699 977.975 349.981 937.261 366.659C839.645 406.884 821.495 532.464 777.838 579.556C762.632 595.744 675.807 601.63 551.703 587.404V587.895Z" fill="#FFF570" stroke="black" stroke-width="20" stroke-miterlimit="10"/>
<path d="M631.168 1182.44C628.224 1199.61 625.281 1218.74 627.734 1233.45C630.677 1249.64 639.016 1254.06 646.374 1257C678.749 1269.26 712.105 1274.17 745.952 1271.72C753.31 1271.23 761.158 1270.24 768.516 1261.9C784.704 1243.75 792.552 1199.12 798.439 1160.36C807.759 1099.53 815.117 1022.03 795.005 993.577C788.138 983.766 778.818 982.295 769.988 981.804C744.481 980.333 718.973 983.276 692.975 990.143C685.126 992.106 677.277 995.049 670.41 1006.33C663.543 1017.61 639.507 1135.84 631.658 1182.44H631.168Z" fill="white" stroke="black" stroke-width="20" stroke-miterlimit="10"/>
<path d="M740.706 1126.61C742.757 1107.49 737.65 1091.26 729.3 1090.36C720.949 1089.46 712.518 1104.24 710.467 1123.37C708.416 1142.49 713.523 1158.72 721.874 1159.62C730.224 1160.52 738.656 1145.74 740.706 1126.61Z" fill="black"/>
</svg>
