<svg width="1760" height="1760" viewBox="0 0 1760 1760" fill="none" xmlns="http://www.w3.org/2000/svg">
<g clip-path="url(#clip0_10_518)">
<path d="M1760 0H0V1760H1760V0Z" fill="white"/>
<path d="M823.789 619.938C814.144 616.148 795.542 610.637 783.486 625.794C779.352 630.961 777.285 637.506 775.907 643.707C766.262 685.389 768.673 729.483 760.75 771.51C752.827 813.537 729.748 857.286 689.444 871.41C628.128 892.768 564.745 837.306 500.328 843.507C444.179 849.019 403.531 898.624 376.662 948.23C360.471 978.2 346.692 1009.89 343.592 1044C340.492 1078.1 349.448 1113.93 373.217 1138.04C403.186 1168.35 451.068 1174.21 492.749 1164.91C534.431 1155.61 571.289 1132.53 608.148 1111.17C650.174 1087.06 694.611 1064.32 742.838 1058.12C791.064 1051.92 844.113 1064.66 875.46 1101.87C899.229 1129.77 907.496 1167.32 925.753 1199.01C977.424 1289.61 1105.57 1316.83 1200.64 1273.77C1249.21 1251.72 1293.65 1206.94 1290.55 1153.89C1288.48 1115.3 1262.65 1083.27 1243.36 1049.85C1224.07 1016.44 1212.36 971.655 1236.12 941.34C1259.55 911.715 1303.64 911.714 1338.43 897.935C1391.48 876.922 1425.24 816.293 1415.25 760.487C1405.26 704.681 1352.9 659.209 1296.06 657.486C1276.08 656.797 1255.76 661.275 1235.78 659.553C1215.8 657.831 1194.1 648.53 1186.86 629.583C1182.04 617.526 1184.11 604.091 1185.14 591.345C1187.9 561.031 1185.14 528.649 1169.3 502.813C1153.45 476.977 1120.73 459.408 1091.45 468.365C1062.16 477.321 1045.63 507.636 1035.64 536.228C1025.65 564.82 1017.73 596.513 995.681 617.182C966.057 645.085 901.64 650.597 823.789 619.938Z" fill="url(#paint0_linear_10_518)" stroke="black" stroke-width="20" stroke-miterlimit="10"/>
<path d="M931.268 815.946C875.463 847.983 876.496 938.926 910.944 993.01C916.455 1001.62 923.001 1009.89 931.268 1016.09C941.947 1024.02 955.381 1027.8 968.471 1030.22C1016.7 1038.83 1070.09 1025.39 1103.5 989.565C1136.92 953.739 1145.53 894.832 1117.63 854.528C1100.4 829.725 1072.16 814.223 1042.88 807.334C1013.6 800.444 977.772 789.421 931.268 815.946Z" fill="white" stroke="black" stroke-width="20" stroke-miterlimit="10"/>
<path d="M1013.6 949.952C1026.73 949.952 1037.37 939.31 1037.37 926.183C1037.37 913.056 1026.73 902.414 1013.6 902.414C1000.47 902.414 989.832 913.056 989.832 926.183C989.832 939.31 1000.47 949.952 1013.6 949.952Z" fill="black"/>
</g>
<defs>
<linearGradient id="paint0_linear_10_518" x1="418.343" y1="1205.56" x2="1455.91" y2="728.47" gradientUnits="userSpaceOnUse">
<stop stop-color="#FF8C8C"/>
<stop offset="0.13" stop-color="#FFDA91"/>
<stop offset="0.39" stop-color="#F4FABE"/>
<stop offset="0.62" stop-color="#A4F799"/>
<stop offset="0.73" stop-color="#86DFF7"/>
<stop offset="0.8" stop-color="#9AC5FA"/>
<stop offset="0.86" stop-color="#AAB2FC"/>
<stop offset="0.93" stop-color="#B3A6FE"/>
<stop offset="1" stop-color="#B7A3FF"/>
</linearGradient>
<clipPath id="clip0_10_518">
<rect width="1760" height="1760" fill="white"/>
</clipPath>
</defs>
</svg>
