<svg width="1760" height="1760" viewBox="0 0 1760 1760" fill="none" xmlns="http://www.w3.org/2000/svg">
<rect width="1760" height="1760" fill="white"/>
<path d="M669.046 578.115C599.409 568.107 602.328 596.046 591.903 631.908C583.98 658.596 576.475 684.867 568.552 711.555C561.88 734.073 555.208 757.842 560.212 780.777C564.382 799.542 575.64 816.222 585.231 832.902C605.247 868.347 618.591 908.379 616.506 949.245C614.421 990.111 595.239 1030.56 561.046 1053.08C513.092 1084.35 441.37 1078.52 408.428 1125.64C392.165 1148.99 390.914 1180.26 398.42 1207.37C405.926 1234.47 421.355 1259.08 436.783 1283.26C454.297 1310.37 472.644 1338.31 500.165 1354.99C529.355 1372.92 565.216 1376.25 599.826 1378.34C654.868 1381.26 709.911 1382.51 764.536 1381.26C785.386 1380.84 807.069 1379.59 824.583 1368.33C857.525 1347.48 861.695 1302.03 875.039 1264.91C883.796 1241.56 897.973 1219.88 918.823 1206.53C939.672 1193.19 968.444 1191.11 988.877 1204.87C1027.24 1230.3 1019.73 1290.35 1046.84 1327.05C1077.7 1368.75 1139.41 1367.08 1190.7 1359.99C1211.55 1357.07 1233.23 1354.15 1250.75 1342.48C1290.78 1315.79 1292.03 1258.66 1292.03 1210.29C1292.03 1027.22 1331.23 899.205 1357.91 686.118C1380.85 502.638 1275.35 573.945 1206.96 568.524C1152.34 563.937 1158.17 518.901 1150.67 484.29C1143.16 449.679 1138.58 412.566 1115.22 385.878C1088.54 355.437 1040.58 348.348 1003.05 364.194C965.525 380.04 938.421 415.068 925.912 453.849C913.819 490.545 912.568 533.496 885.464 561.435C860.444 586.872 743.27 588.957 668.212 578.532L669.046 578.115Z" fill="#FCFFA6" stroke="black" stroke-width="20" stroke-miterlimit="10"/>
<path d="M618.584 1157.75C606.074 1157.75 592.314 1157.75 582.306 1161.5C571.464 1165.67 568.962 1172.76 567.711 1179.01C562.707 1205.7 563.125 1231.97 568.546 1258.24C569.796 1264.08 571.464 1269.92 578.136 1274.51C592.731 1284.93 624.839 1285.76 652.777 1285.76C696.561 1285.76 752.021 1282.01 769.534 1262.83C775.789 1256.16 775.372 1248.65 774.955 1241.98C772.87 1221.96 768.283 1202.37 760.36 1182.77C757.859 1176.93 755.357 1171.09 746.6 1166.92C737.843 1162.75 652.36 1158.16 618.584 1157.75Z" fill="white" stroke="black" stroke-width="20" stroke-miterlimit="10"/>
<path d="M669.56 1237.14C683.13 1236.46 693.86 1230.5 693.526 1223.83C693.191 1217.16 681.919 1212.3 668.349 1212.98C654.778 1213.66 644.048 1219.62 644.383 1226.29C644.717 1232.96 655.989 1237.82 669.56 1237.14Z" fill="black"/>
</svg>
