<svg width="1760" height="1760" viewBox="0 0 1760 1760" fill="none" xmlns="http://www.w3.org/2000/svg">
<rect width="1760" height="1760" fill="white"/>
<path d="M589.852 553.747C565.792 542.896 536.542 557.521 522.388 579.223C508.235 600.926 504.461 628.29 501.63 654.238C491.251 745.294 480.4 836.349 470.021 927.404C461.529 1000.06 453.037 1072.72 448.319 1145.84C445.488 1186.42 444.074 1227.46 451.15 1267.09C453.981 1282.19 458.226 1298.23 469.077 1309.55C480.872 1322.29 498.8 1327.48 515.783 1331.73C599.76 1352.49 686.567 1361.45 772.902 1369.94C831.403 1375.61 890.374 1381.74 948.875 1387.4C1013.51 1393.53 1078.14 1400.14 1142.78 1393.53C1163.06 1391.17 1184.29 1387.4 1200.8 1375.13C1223.92 1357.68 1232.41 1327.01 1238.55 1298.23C1273.46 1139.24 1285.72 976.471 1298.46 814.175C1300.82 780.678 1303.65 746.237 1296.1 713.212C1288.55 680.187 1270.16 648.105 1239.96 633.007C1202.69 614.136 1153.63 623.572 1120.13 598.095C1089.94 574.978 1084.75 532.045 1080.97 494.302C1077.2 456.559 1069.18 413.154 1036.15 393.339C999.827 371.165 950.762 391.451 922.455 423.061C894.149 454.671 879.996 496.66 857.822 532.988C849.33 547.142 839.423 560.824 825.269 569.788C809.229 580.167 789.886 583.47 771.015 585.357C724.781 590.546 676.187 592.906 589.852 553.747Z" fill="#FFE0F6" stroke="black" stroke-width="20" stroke-miterlimit="10"/>
<path d="M1001.24 943.446C1005.01 927.405 1008.31 909.005 1002.65 894.851C996.517 879.282 982.365 874.093 969.155 870.79C913.485 856.165 856.871 848.616 799.315 848.145C786.577 848.145 773.367 848.144 761.572 855.693C735.624 871.733 725.718 913.723 718.641 950.523C707.79 1008.08 701.185 1081.68 737.512 1110.93C750.25 1121.31 765.818 1123.2 780.915 1124.14C823.847 1127.44 867.723 1127.44 911.126 1122.73C923.864 1121.31 937.546 1119.42 948.396 1109.52C959.247 1099.61 990.856 987.794 1000.76 943.918L1001.24 943.446Z" fill="white" stroke="black" stroke-width="20" stroke-miterlimit="10"/>
<path d="M871.98 993.548C873.991 975.42 863.865 959.42 849.363 957.811C834.861 956.202 821.474 969.594 819.463 987.722C817.453 1005.85 827.578 1021.85 842.081 1023.46C856.583 1025.07 869.969 1011.68 871.98 993.548Z" fill="black"/>
</svg>
