<svg width="1760" height="1760" viewBox="0 0 1760 1760" fill="none" xmlns="http://www.w3.org/2000/svg">
<rect width="1760" height="1760" fill="white"/>
<path d="M409.681 694.691C395.685 608.379 412.597 515.07 466.832 446.838C521.067 378.605 614.957 340.115 699.516 362.276C770.663 380.938 826.647 438.09 896.627 460.251C968.357 483.578 1046.5 468.415 1122.31 471.331C1198.12 474.247 1283.85 506.906 1304.26 579.803C1327.59 662.616 1254.69 740.179 1241.28 825.324C1221.45 950.708 1283.85 1079.59 1383.57 1222.47C1406.9 1255.71 1421.48 1330.94 1353.83 1362.44C1328.75 1374.1 1294.35 1374.1 1247.69 1371.77C1169.55 1367.68 1152.05 1419.59 1067.5 1335.03C1023.76 1291.29 997.515 1203.23 995.182 1141.41C992.85 1079.59 979.437 1010.78 928.118 976.952C883.797 947.209 820.232 955.374 778.827 989.199C737.422 1023.02 717.011 1078.43 717.011 1132.08C717.011 1182.82 733.923 1232.97 725.175 1283.12C716.428 1332.69 680.272 1376.43 633.035 1394.51C585.798 1412.59 529.814 1404.43 490.159 1373.52C425.427 1323.95 413.764 1232.39 410.264 1150.74C403.85 996.197 434.174 839.32 410.264 695.274L409.681 694.691Z" fill="#DEB0FF" stroke="black" stroke-width="20" stroke-miterlimit="10"/>
<path d="M866.886 681.861C878.55 730.265 848.808 781.585 803.321 810.744C792.241 817.743 779.994 824.158 767.164 826.49C742.088 831.739 715.262 824.741 693.685 812.494C655.196 790.916 628.37 753.009 623.705 712.769C623.705 708.687 623.705 704.022 626.621 700.523C628.954 698.773 631.869 697.607 635.368 697.024C694.851 683.61 755.501 673.696 816.151 666.698C835.395 664.365 862.804 663.782 867.469 681.278L866.886 681.861Z" fill="white" stroke="black" stroke-width="20" stroke-miterlimit="10"/>
<path d="M746.166 764.674C756.151 764.674 764.244 756.841 764.244 747.178C764.244 737.516 756.151 729.683 746.166 729.683C736.182 729.683 728.088 737.516 728.088 747.178C728.088 756.841 736.182 764.674 746.166 764.674Z" fill="black"/>
</svg>
