<svg width="1760" height="1760" viewBox="0 0 1760 1760" fill="none" xmlns="http://www.w3.org/2000/svg">
<rect width="1760" height="1760" fill="white"/>
<path d="M582.042 667.179C540.117 656.895 497.006 688.141 478.812 727.298C460.619 766.456 461.014 811.15 460.619 854.263C459.432 983.6 449.149 1112.94 428.977 1240.69C422.649 1280.25 417.507 1326.92 445.589 1355.4C458.246 1368.05 475.253 1375.17 492.656 1379.52C555.543 1394.55 625.154 1375.96 672.22 1331.66C711.376 1294.09 733.13 1242.67 760.816 1196C788.502 1149.33 826.868 1103.45 880.262 1092.37C918.627 1084.46 959.761 1097.12 990.611 1121.64C1021.46 1146.16 1041.63 1182.16 1052.31 1219.73C1067.34 1273.52 1068.13 1339.97 1115.2 1370.43C1134.18 1382.69 1157.52 1386.25 1180.06 1387.83C1211.31 1389.81 1245.32 1387.43 1268.66 1366.87C1292.79 1345.51 1298.72 1310.7 1303.47 1278.66C1309.79 1233.97 1316.12 1189.27 1320.47 1144.58C1323.64 1108.19 1325.22 1070.62 1316.52 1035.02C1310.98 1012.08 1300.3 989.138 1280.13 977.272C1267.87 969.757 1253.23 967.384 1238.6 965.011C1215.66 961.451 1192.72 957.496 1169.78 953.936C1137.35 948.794 1100.56 940.883 1083.95 912.405C1064.57 879.577 1085.14 834.091 1119.15 816.688C1153.17 799.285 1194.3 804.031 1230.29 816.688C1246.51 822.621 1263.12 830.136 1280.53 829.344C1322.05 827.367 1344.99 779.904 1350.93 738.769C1356.46 700.007 1354.49 659.663 1345.39 621.693C1343.81 615.76 1342.23 609.827 1338.67 605.477C1326.01 590.051 1301.49 599.148 1282.11 603.499C1239 613.387 1194.7 591.237 1163.06 560.386C1131.42 529.535 1109.66 490.774 1083.56 455.176C1057.45 419.579 1024.23 386.354 981.514 375.675C940.381 364.996 894.105 378.048 864.441 408.9C811.838 463.878 820.144 556.431 771.89 614.969C729.175 666.783 652.84 684.186 582.438 666.783L582.042 667.179Z" fill="#B7ABFF" stroke="black" stroke-width="20" stroke-miterlimit="10"/>
<path d="M721 1284C736.821 1300.61 749.343 1314.26 770.701 1322.57C779.007 1325.73 788.104 1327.71 796.805 1325.73C809.858 1322.96 819.35 1312.28 827.26 1302C834.379 1292.51 841.103 1282.22 847.036 1271.94C851.782 1263.63 855.738 1254.93 854.947 1245.44C854.551 1240.69 852.573 1236.34 850.596 1232.39C838.335 1207.07 820.932 1183.74 800.365 1165.15C798.783 1163.57 796.806 1161.98 794.432 1161.59C790.477 1161.19 786.918 1164.75 784.545 1167.92C761.209 1199.16 741.038 1232.78 716.516 1281.04L721 1284Z" fill="white" stroke="black" stroke-width="20" stroke-miterlimit="10"/>
<path d="M629 902.519C674.089 909.638 701.491 949.191 712.961 993.094C715.73 1003.77 717.312 1014.85 716.125 1025.92C713.357 1046.89 699.514 1064.68 682.902 1077.34C653.238 1099.49 612.896 1107.4 577.299 1097.51C573.74 1096.33 569.389 1095.14 567.807 1091.58C566.62 1089.21 567.016 1086.44 567.411 1084.07C573.344 1034.62 582.441 985.184 594.702 936.534C598.262 921.504 605.777 900.146 621.993 902.519L629 902.519Z" fill="white" stroke="black" stroke-width="20" stroke-miterlimit="10"/>
<path d="M657.211 1021.42C660.125 1013.88 655.879 1005.22 647.729 1002.07C639.579 998.918 630.611 1002.48 627.697 1010.01C624.784 1017.55 629.029 1026.22 637.179 1029.37C645.329 1032.52 654.298 1028.96 657.211 1021.42Z" fill="black"/>
</svg>
