<svg width="1760" height="1760" viewBox="0 0 1760 1760" fill="none" xmlns="http://www.w3.org/2000/svg">
<g clip-path="url(#clip0_10_542)">
<path d="M1760 0H0V1760H1760V0Z" fill="white"/>
<path d="M762.135 669.46C737.603 645.788 711.78 624.267 683.805 604.469C664.437 590.696 635.602 579.076 620.108 596.722C613.222 604.9 611.93 616.521 611.069 627.281C607.626 662.573 602.032 697.435 593.854 732.297C587.829 758.551 577.93 787.388 553.828 799.44C525.853 813.643 492.714 799.009 462.156 790.831C426.434 780.932 385.978 781.363 354.56 800.731C323.142 820.099 304.204 862.278 319.268 896.279C334.762 930.711 376.079 944.483 413.522 950.509C450.966 956.534 491.853 958.686 520.689 983.219C554.259 1011.19 561.145 1059.4 562.866 1102.87C565.879 1173.45 561.145 1244.47 548.233 1313.76C543.93 1337.44 540.486 1365.84 558.993 1380.91C567.601 1387.79 579.221 1389.94 590.411 1391.67C628.285 1397.26 666.159 1401.13 704.463 1403.29C730.286 1404.58 752.666 1404.58 769.882 1356.37C785.806 1311.61 791.832 1263.41 808.186 1218.65C824.541 1173.88 855.529 1130.41 900.72 1116.64C945.91 1102.87 965.707 1131.28 978.188 1160.97C997.125 1206.59 985.935 1324.09 1024.67 1356.37C1068.14 1392.53 1237.71 1411.03 1250.62 1356.37C1281.61 1227.68 1243.31 1137.3 1368.55 816.655C1391.79 756.83 1461.51 677.637 1444.3 615.66C1427.94 555.404 1328.52 519.251 1286.77 472.768C1280.32 465.881 1273.86 458.565 1265.26 454.691C1234.27 440.918 1205 476.211 1172.29 484.389C1137 493.427 1102.57 469.325 1075.03 445.222C1047.48 421.12 1017.78 393.575 981.632 394.005C937.302 394.435 904.162 437.476 893.402 480.515C882.643 523.555 887.377 569.177 879.63 612.647C875.327 637.61 865.858 663.434 844.769 678.067C823.68 692.701 794.844 702.17 769.882 678.067L762.135 669.46Z" fill="#9DC0EB" stroke="black" stroke-width="20" stroke-miterlimit="10"/>
<path d="M741.046 1062.41C694.995 1044.34 667.451 993.547 665.299 944.482C664.868 932.431 665.299 920.38 670.033 908.759C677.78 887.239 696.717 871.314 717.806 862.276C754.819 845.49 799.148 846.781 834.87 866.149C838.744 868.301 842.618 870.884 843.478 874.758C843.909 877.34 843.478 880.352 842.187 882.935C824.111 934.152 802.591 984.509 778.49 1033.15C770.743 1048.21 757.831 1069.3 741.476 1062.84L741.046 1062.41Z" fill="white" stroke="black" stroke-width="20" stroke-miterlimit="10"/>
<path d="M760.132 947.659C765.008 940.339 762.546 930.133 754.633 924.862C746.72 919.59 736.353 921.25 731.477 928.57C726.601 935.889 729.063 946.096 736.976 951.368C744.889 956.639 755.256 954.979 760.132 947.659Z" fill="black"/>
</g>
<defs>
<clipPath id="clip0_10_542">
<rect width="1760" height="1760" fill="white"/>
</clipPath>
</defs>
</svg>
