<svg width="1760" height="1760" viewBox="0 0 1760 1760" fill="none" xmlns="http://www.w3.org/2000/svg">
<rect width="1760" height="1760" fill="white"/>
<path d="M816.27 580.315L809.706 472.571C808.547 453.262 806.616 432.408 792.714 418.892C771.861 398.424 736.333 407.306 712.004 423.526C657.168 459.826 627.047 522.774 599.629 582.246C518.92 756.413 437.824 934.056 411.951 1124.44C406.158 1165.76 406.158 1214.42 437.824 1241.84C457.133 1258.45 483.778 1262.69 509.265 1266.17C528.187 1268.87 547.882 1271.58 566.805 1266.94C602.332 1258.06 625.889 1224.85 642.494 1192.41C665.278 1146.84 680.725 1097.02 713.549 1058.02C746.374 1019.02 805.071 995.072 848.709 1020.95C879.988 1039.48 893.89 1077.71 898.138 1114.02C902.386 1150.32 898.138 1187 905.089 1222.92C912.04 1258.83 932.121 1295.52 966.491 1306.72C1013.99 1322.55 1063.81 1282.78 1084.27 1237.21C1104.74 1191.64 1106.67 1139.89 1122.89 1092.39C1139.11 1044.89 1178.11 998.162 1227.93 1000.09C1256.12 1001.25 1281.6 1017.47 1309.41 1020.95C1361.93 1027.12 1412.13 980.011 1416.38 927.49C1420.63 874.97 1384.33 823.608 1336.05 802.368C1304.77 788.852 1263.07 779.97 1255.35 747.144C1250.71 727.449 1255.35 638.628 1255.35 610.437C1255.35 604.644 1165.37 621.25 1064.96 583.018C1030.98 569.888 1001.63 544.786 986.571 579.929C969.579 619.319 948.727 628.973 907.793 635.924C886.939 639.4 818.588 617.775 816.27 580.315Z" fill="#FCFFA6" stroke="black" stroke-width="20" stroke-miterlimit="10"/>
<path d="M1170.39 825.539C1147.61 784.218 1074.24 778.811 1026.74 790.397C1019.02 792.328 1011.68 794.645 1005.89 798.507C998.548 803.527 993.914 810.092 990.825 817.043C979.626 842.531 985.418 873.812 1012.06 896.983C1038.71 920.154 1086.21 932.897 1121.74 923.243C1143.75 917.064 1159.2 903.547 1167.3 888.1C1175.41 872.653 1187.29 856.646 1173 830L1170.39 825.539Z" fill="white" stroke="black" stroke-width="20" stroke-miterlimit="10"/>
<path d="M1091.65 859.099C1092.82 851.943 1085.07 844.714 1074.34 842.952C1063.6 841.19 1053.95 845.564 1052.78 852.72C1051.6 859.875 1059.35 867.104 1070.09 868.866C1080.82 870.627 1090.47 866.255 1091.65 859.099Z" fill="black"/>
</svg>
