<svg width="1760" height="1760" viewBox="0 0 1760 1760" fill="none" xmlns="http://www.w3.org/2000/svg">
<path d="M1760 0H0V1760H1760V0Z" fill="white"/>
<path d="M962.44 529.945C920.316 478.662 934.053 389.833 878.192 354.576C844.768 333.513 798.522 343.129 768.303 367.855C738.083 392.58 719.768 429.669 705.574 466.757C684.97 521.703 671.234 579.397 664.366 638.006C661.619 661.816 660.245 686.999 668.487 709.436C683.597 752.477 766.929 795.518 804.475 821.617C900.17 887.094 838.357 1006.14 787.076 1028.12C758.23 1040.49 724.347 1034.99 695.044 1024C614.916 994.239 557.224 1044.61 531.125 1094.06C492.206 1167.78 493.58 1214.48 482.133 1296.9C478.928 1319.79 477.555 1344.98 491.291 1363.29C501.822 1377.03 519.221 1383.9 535.704 1388.93C586.528 1404.96 640.099 1414.58 693.212 1416.87C717.937 1417.78 744.036 1416.87 764.182 1403.13C790.281 1385.27 798.98 1350.93 812.259 1322.08C823.248 1297.82 838.815 1275.38 858.046 1256.15C883.229 1231.42 917.111 1212.19 952.367 1216.77C1005.94 1223.64 1037.53 1281.79 1049.44 1334.45C1052.64 1349.1 1055.85 1364.67 1066.38 1375.2C1074.62 1383.44 1086.07 1387.1 1097.05 1390.77C1117.66 1397.64 1139.18 1404.5 1161.16 1404.05C1183.13 1403.59 1206.03 1394.89 1217.48 1376.11C1222.51 1367.87 1225.26 1358.26 1227.55 1349.1C1261.43 1220.43 1290.28 1090.39 1314.09 959.898C1322.79 911.362 1331.03 862.369 1326.91 813.375C1322.79 764.382 1305.84 714.93 1270.59 680.589C1188.63 600.917 1040.28 624.727 962.44 530.403V529.945Z" fill="#FFF570" stroke="black" stroke-width="20" stroke-miterlimit="10"/>
<path d="M1061.34 785.907C1018.3 812.006 1018.75 887.096 1045.31 931.969C1049.43 939.295 1054.47 946.164 1061.34 950.742C1069.58 957.153 1080.11 960.358 1090.18 962.19C1127.73 969.058 1168.94 958.069 1194.58 928.764C1220.22 899.46 1227.08 850.466 1205.57 817.498C1192.29 796.893 1170.31 784.073 1147.42 778.578C1124.52 773.084 1097.51 764.387 1061.34 785.907Z" fill="white" stroke="black" stroke-width="20" stroke-miterlimit="10"/>
<path d="M1125.44 896.249C1135.56 896.249 1143.76 887.434 1143.76 876.56C1143.76 865.686 1135.56 856.871 1125.44 856.871C1115.33 856.871 1107.13 865.686 1107.13 876.56C1107.13 887.434 1115.33 896.249 1125.44 896.249Z" fill="black"/>
</svg>
