<svg width="1760" height="1760" viewBox="0 0 1760 1760" fill="none" xmlns="http://www.w3.org/2000/svg">
<rect width="1760" height="1760" fill="white"/>
<path d="M612.545 528.425C586.352 524.545 558.704 511.448 533.966 521.634C499.042 535.701 494.676 582.268 488.855 619.619C482.549 659.88 468.483 698.686 447.625 733.126C432.589 757.864 413.671 788.424 428.223 813.648C435.984 827.23 451.02 834.021 464.602 841.782C515.533 871.857 549.972 925.214 565.979 981.968C581.986 1038.72 581.501 1099.36 575.196 1158.05C571.315 1193.46 565.495 1228.38 567.435 1263.79C569.375 1299.21 579.562 1335.59 603.815 1361.29C623.702 1382.15 650.865 1394.76 678.998 1402.04C796.383 1432.6 931.715 1372.45 987.011 1264.77C1011.75 1216.74 1025.33 1157.56 1070.93 1128.94C1126.71 1094.02 1201.89 1122.15 1263.01 1099.84C1313.46 1081.41 1347.41 1027.08 1345.96 972.751C1344.5 918.423 1308.12 868.461 1259.61 845.663C1219.35 826.745 1173.76 825.775 1129.62 824.319C1085.48 822.864 1039.4 820.924 1000.11 800.066C960.818 779.208 930.259 735.551 939.961 691.895C943.841 673.947 954.027 658.425 964.213 643.388C978.28 621.559 992.832 599.731 1006.9 577.903C1023.88 551.709 1041.82 524.059 1047.16 493.5C1055.89 442.567 1026.79 388.725 981.191 364.471C935.595 340.218 873.507 341.673 792.988 406.187C749.817 440.628 703.736 541.522 613.03 528.425H612.545Z" fill="#FF3B83" stroke="black" stroke-width="20" stroke-miterlimit="10"/>
<path d="M718.775 1111C673.18 1138.65 673.664 1218.2 701.798 1265.74C706.163 1273.5 711.499 1280.77 718.775 1285.62C727.506 1292.41 738.663 1295.81 749.334 1297.75C789.109 1305.03 832.764 1293.38 859.928 1262.34C887.091 1231.3 894.367 1179.39 871.569 1144.47C857.502 1122.64 834.22 1109.06 809.967 1103.24C785.714 1097.42 756.609 1087.71 718.29 1110.51L718.775 1111Z" fill="white" stroke="black" stroke-width="20" stroke-miterlimit="10"/>
<path d="M786.194 1227.9C796.909 1227.9 805.596 1218.56 805.596 1207.04C805.596 1195.52 796.909 1186.18 786.194 1186.18C775.478 1186.18 766.791 1195.52 766.791 1207.04C766.791 1218.56 775.478 1227.9 786.194 1227.9Z" fill="black"/>
</svg>
