<svg width="1760" height="1760" viewBox="0 0 1760 1760" fill="none" xmlns="http://www.w3.org/2000/svg">
<rect width="1760" height="1760" fill="white"/>
<path d="M817.593 356.815C774.83 353.964 742.249 394.285 723.921 432.976C705.594 471.668 690.118 516.062 652.649 537.241C621.289 555.161 577.303 554.754 556.94 584.486C543.907 603.628 545.536 629.695 534.54 650.466C516.62 683.863 468.969 695.267 456.751 731.108C447.791 757.581 462.045 786.091 480.372 806.862C498.699 827.634 521.914 844.739 535.354 868.769C567.121 924.159 540.649 992.99 525.58 1054.9C514.584 1100.51 509.696 1147.35 511.325 1194.19C512.14 1217.81 515.398 1243.06 529.245 1262.2C541.464 1278.9 560.197 1289.08 579.339 1296.42C613.957 1309.45 651.834 1313.52 688.895 1308.63C705.186 1306.6 721.477 1302.12 734.917 1293.16C764.241 1273.2 773.608 1234.51 780.532 1199.48C787.455 1165.27 794.379 1130.65 801.303 1096.44C804.561 1079.33 808.633 1061.82 818.815 1047.57C837.142 1022.32 871.354 1015.8 902.307 1010.91C925.521 1007.25 950.771 1004.39 970.321 1017.02C994.757 1033.31 998.83 1067.12 1000.46 1096.44C1003.31 1145.72 1006.16 1195 1008.6 1244.28C1009.42 1257.32 1010.64 1271.16 1019.19 1280.53C1025.71 1287.86 1035.89 1291.12 1045.67 1293.97C1072.55 1301.71 1100.24 1307.01 1128.34 1309.86C1144.63 1311.49 1161.33 1312.3 1176.81 1307.82C1211.02 1297.64 1232.2 1263.83 1247.27 1231.25C1315.69 1080.56 1309.99 908.276 1303.06 743.326C1301.43 707.078 1298.58 667.164 1273.74 640.691C1241.16 606.072 1185.36 608.923 1138.52 618.29C1091.69 627.658 1040.37 640.283 998.422 617.475C956.881 595.075 939.369 545.387 927.965 499.364C916.562 453.341 929.596 362.924 829 356.815L817.593 356.815Z" fill="#3EC790" stroke="black" stroke-width="20" stroke-miterlimit="10"/>
<path d="M1123.45 834.966C1118.16 833.337 1112.05 832.115 1107.57 836.595C1102.27 841.483 1100.64 851.258 1099.83 859.811C1095.35 896.873 1092.91 934.343 1092.91 971.813C1092.91 979.959 1092.91 988.512 1095.35 995.843C1100.64 1011.73 1114.49 1016.21 1126.71 1018.65C1145.85 1022.72 1169.88 1022.72 1179.25 997.472C1182.51 988.512 1183.32 978.33 1183.32 968.147C1184.54 939.638 1184.14 911.535 1182.51 883.433C1182.1 875.287 1181.28 866.327 1178.03 859.811C1174.77 853.294 1138.11 838.632 1123.45 834.966Z" fill="white" stroke="black" stroke-width="20" stroke-miterlimit="10"/>
<path d="M1149.33 934.08C1149.81 924.645 1145.47 916.752 1139.63 916.451C1133.79 916.15 1128.66 923.555 1128.18 932.99C1127.69 942.425 1132.03 950.316 1137.87 950.617C1143.71 950.918 1148.84 943.514 1149.33 934.08Z" fill="black"/>
</svg>
