<svg width="1760" height="1760" viewBox="0 0 1760 1760" fill="none" xmlns="http://www.w3.org/2000/svg">
<g clip-path="url(#clip0_10_530)">
<path d="M1760 0H0V1760H1760V0Z" fill="white"/>
<path d="M570.917 724.17C563.462 724.17 555.614 724.17 548.551 727.309C534.032 734.765 530.893 753.993 530.108 770.473C526.184 868.573 545.804 967.065 535.602 1064.77C527.362 1143.64 500.287 1219.77 494.009 1299.03C492.44 1318.26 690.988 1415.19 707.86 1402.63C721.986 1392.03 750.239 1239 774.567 1167.58C782.022 1146 784.77 1080.86 911.119 1080.86C1000.58 1080.86 1010.79 1122.85 1013.92 1172.68C1018.63 1255.09 1022.95 1343.77 1035.51 1360.64C1050.42 1380.65 1223.46 1388.89 1231.31 1381.83C1239.16 1374.77 1264.66 1279.02 1268.98 1227.23C1277.22 1132.66 1282.71 959.609 1281.93 945.483C1276.43 867.003 1183.44 889.37 1155.58 840.712C1138.31 810.498 1150.08 767.334 1180.3 750.461C1207.37 735.157 1245.83 737.904 1263.88 712.398C1273.29 699.056 1276.04 628.032 1277.22 605.665C1278.39 578.197 1280.75 524.439 1235.23 521.3C1201.49 518.945 1190.89 563.287 1109.27 581.729C1068.47 591.147 1019.81 595.463 989.597 566.425C969.977 547.59 992.343 372.58 874.234 391.416C841.273 396.517 796.148 399.264 786.338 639.019C781.63 746.144 625.523 724.562 585.5 724.17H570.917Z" fill="#DEB0FF" stroke="black" stroke-width="20" stroke-miterlimit="10"/>
<path d="M870.316 901.927C869.531 912.915 869.139 925.472 871.886 934.889C875.025 945.092 881.304 947.446 886.797 948.623C910.34 954.117 933.883 955.294 957.427 951.37C962.528 950.585 968.021 949.408 972.338 943.522C982.147 930.965 984.501 901.927 985.679 876.814C987.641 837.182 986.856 787.347 970.768 770.474C965.274 764.588 958.604 764.588 952.325 764.98C934.668 765.765 916.619 769.296 898.961 775.575C893.86 777.537 888.366 779.891 884.442 787.347C880.518 794.803 872.671 872.105 870.709 902.32L870.316 901.927Z" fill="white" stroke="black" stroke-width="20" stroke-miterlimit="10"/>
<path d="M931.926 881.519C937.994 881.519 942.913 871.504 942.913 859.152C942.913 846.799 937.994 836.785 931.926 836.785C925.858 836.785 920.939 846.799 920.939 859.152C920.939 871.504 925.858 881.519 931.926 881.519Z" fill="black"/>
</g>
<defs>
<clipPath id="clip0_10_530">
<rect width="1760" height="1760" fill="white"/>
</clipPath>
</defs>
</svg>
