<svg width="1760" height="1760" viewBox="0 0 1760 1760" fill="none" xmlns="http://www.w3.org/2000/svg">
<g clip-path="url(#clip0_10_524)">
<path d="M1760 0H0V1760H1760V0Z" fill="white"/>
<path d="M647.2 576.094C622.183 569.192 591.127 564.016 573.442 582.995C566.541 590.328 563.092 599.817 560.935 609.307C547.564 663.655 563.522 729.649 525.134 770.195C500.549 796.075 444.477 785.724 421.616 828.426C405.657 858.188 412.127 900.459 438.869 921.595C460.435 938.848 502.274 942.73 525.566 957.827C555.759 977.668 559.209 1015.62 560.071 1051.86C560.934 1088.09 561.797 1123.03 557.484 1158.83C554.896 1179.96 554.465 1202.82 566.542 1220.51C585.952 1248.98 630.809 1249.41 658.414 1229.14C686.018 1208.86 699.39 1173.93 706.291 1140.28C713.193 1106.64 715.349 1071.7 727.426 1039.35C750.286 977.237 813.691 930.653 879.684 934.535C945.676 938.417 1005.63 997.941 1003.04 1063.93C1000.89 1129.07 946.108 1182.12 937.481 1246.82C929.286 1309.8 972.85 1375.36 1033.67 1392.18C1094.48 1409 1166.08 1375.36 1191.1 1317.13C1210.94 1271.84 1204.04 1219.65 1191.1 1172.2C1178.16 1124.75 1158.75 1078.6 1154.01 1029.43C1141.93 900.891 1230.35 617.934 1224.74 611.032C1215.25 599.386 1091.03 639.931 986.653 577.388C979.752 573.074 973.712 567.036 971.124 559.272C968.105 551.508 969.4 543.312 970.694 535.117C974.145 510.099 984.064 478.18 983.633 452.731C982.77 425.126 969.4 381.992 927.13 379.404C819.298 372.934 868.9 572.643 789.105 590.76C751.148 599.386 710.605 593.348 647.2 576.525V576.094Z" fill="#7968D9" stroke="black" stroke-width="20" stroke-miterlimit="10"/>
<path d="M1029.35 1197.65C997.864 1215.33 998.297 1265.37 1017.71 1295.56C1020.73 1300.31 1024.61 1305.05 1029.35 1308.5C1035.39 1312.82 1043.15 1314.97 1050.49 1316.27C1077.66 1321.01 1107.85 1313.68 1126.83 1293.84C1145.81 1273.99 1150.55 1241.21 1135.03 1218.78C1125.54 1204.98 1109.15 1196.35 1092.76 1192.9C1076.37 1189.45 1055.66 1182.98 1029.35 1197.65Z" fill="white" stroke="black" stroke-width="20" stroke-miterlimit="10"/>
<path d="M1076.37 1270.97C1083.75 1270.97 1089.74 1265.18 1089.74 1258.03C1089.74 1250.89 1083.75 1245.09 1076.37 1245.09C1068.98 1245.09 1063 1250.89 1063 1258.03C1063 1265.18 1068.98 1270.97 1076.37 1270.97Z" fill="black"/>
</g>
<defs>
<clipPath id="clip0_10_524">
<rect width="1760" height="1760" fill="white"/>
</clipPath>
</defs>
</svg>
