<svg width="1760" height="1760" viewBox="0 0 1760 1760" fill="none" xmlns="http://www.w3.org/2000/svg">
<rect width="1760" height="1760" fill="white"/>
<path d="M523.332 499.072C446.105 509.301 376.038 714.905 384.732 961.937C389.335 1088.78 473.211 1285.17 494.692 1312.28C540.721 1370.08 623.063 1380.82 696.711 1386.95C715.123 1388.49 735.069 1390.02 751.435 1380.82C786.724 1361.89 784.167 1311.26 780.076 1271.88C774.961 1219.71 776.495 1163.96 801.555 1117.93C826.616 1071.9 881.341 1038.14 931.973 1051.95C973.911 1063.2 1003.06 1102.59 1015.34 1144.01C1027.61 1185.44 1025.57 1229.43 1025.05 1272.9C1025.05 1308.7 1028.12 1350.64 1057.79 1371.1C1076.71 1383.89 1101.26 1383.89 1124.27 1383.89C1145.75 1383.89 1167.75 1383.37 1189.23 1382.86C1201.5 1382.86 1214.8 1382.35 1225.03 1375.7C1234.74 1369.56 1240.88 1359.34 1244.97 1348.6C1272.59 1276.99 1231.68 1191.07 1274.64 1127.65C1304.3 1083.66 1385.62 1068.32 1416.31 1024.85C1454.66 970.632 1431.14 899.028 1340.61 854.02C1295.61 831.517 1237.3 828.959 1211.73 785.997C1205.08 774.745 1180.02 723.088 1171.84 712.348C1144.73 676.035 1114.56 707.233 1073.64 686.775C1022.5 661.203 1003.57 599.317 985.162 545.103C966.75 490.889 936.064 430.537 879.805 420.308C849.63 415.193 819.456 425.934 791.327 437.698C710.52 470.942 630.735 485.263 522.822 500.095L523.332 499.072Z" fill="#FF3B83" stroke="black" stroke-width="20" stroke-miterlimit="10"/>
<path d="M642.494 661.203C559.641 708.768 561.175 843.791 612.319 924.089C620.502 936.876 630.219 949.151 642.494 958.357C658.348 970.12 678.294 975.746 697.729 979.326C769.33 992.113 848.604 972.166 898.213 918.975C947.823 865.784 960.609 778.325 919.183 718.485C893.611 681.661 851.672 658.646 808.2 648.416C764.727 638.187 711.538 621.821 642.494 661.203Z" fill="white" stroke="black" stroke-width="20" stroke-miterlimit="10"/>
<path d="M662.948 938.41C682.437 938.41 698.237 922.61 698.237 903.12C698.237 883.63 682.437 867.83 662.948 867.83C643.458 867.83 627.658 883.63 627.658 903.12C627.658 922.61 643.458 938.41 662.948 938.41Z" fill="black"/>
</svg>
