<svg width="1760" height="1760" viewBox="0 0 1760 1760" fill="none" xmlns="http://www.w3.org/2000/svg">
<rect width="1760" height="1760" fill="white"/>
<path d="M586.486 1119.49C525.177 1155.8 455.99 1205.46 458.045 1276.71C458.73 1302.74 469.69 1328.09 486.13 1348.29C538.192 1412.35 640.261 1420.22 711.845 1379.12C783.43 1338.02 827.271 1259.24 844.397 1178.4C860.152 1105.45 861.18 1021.19 916.666 971.18C952.288 938.983 1007.09 930.078 1051.27 948.917C1085.18 963.302 1112.58 992.074 1148.89 998.582C1210.88 1009.54 1262.94 949.259 1283.5 889.661C1305.42 826.637 1308.5 756.42 1289.32 692.369C1273.91 640.306 1238.28 588.586 1185.54 577.283C1140.33 567.35 1084.5 586.188 1051.96 553.306C1013.94 514.944 1046.14 444.728 1018.39 398.487C1000.58 368.688 960.508 357.385 926.599 365.606C892.69 373.826 864.947 398.145 843.712 425.547C755.001 539.606 753.631 719.086 631.355 795.125C612.174 807.113 589.569 817.046 581.006 837.94C573.128 856.779 579.978 878.357 586.143 897.881C611.832 978.031 630.822 1093.35 581.5 1122.46L586.486 1119.49Z" fill="#E6E1E1" stroke="black" stroke-width="20" stroke-miterlimit="10"/>
<path d="M678.278 1256.5C683.758 1284.59 669.373 1313.7 648.48 1330.48C643.342 1334.59 637.862 1338.02 631.697 1339.73C620.051 1342.82 607.721 1338.71 597.446 1331.85C579.293 1319.52 566.962 1297.6 564.907 1274.31C564.907 1271.91 564.908 1269.17 566.278 1267.46C567.305 1266.43 568.675 1265.75 570.388 1265.41C598.131 1257.87 626.216 1251.71 654.645 1247.94C663.55 1246.57 676.566 1246.22 678.278 1256.5Z" fill="white" stroke="black" stroke-width="20" stroke-miterlimit="10"/>
<path d="M621.763 1303.77C626.492 1303.77 630.326 1299.32 630.326 1293.83C630.326 1288.35 626.492 1283.9 621.763 1283.9C617.034 1283.9 613.2 1288.35 613.2 1293.83C613.2 1299.32 617.034 1303.77 621.763 1303.77Z" fill="black"/>
</svg>
