<svg width="1760" height="1760" viewBox="0 0 1760 1760" fill="none" xmlns="http://www.w3.org/2000/svg">
<rect width="1760" height="1760" fill="white"/>
<path d="M1205.74 425.244C1290 449.377 1303.06 564.506 1279.72 648.775C1253.21 744.517 1172.9 822.456 1165.38 921.759C1162.22 960.926 1171.32 999.698 1177.65 1038.47C1190.7 1116.01 1195.45 1195.14 1190.7 1273.87C1189.12 1303.94 1185.95 1334.4 1174.88 1362.89C1163.8 1391.37 1144.02 1417.09 1116.72 1429.35C1085.86 1443.2 1047.49 1438.45 1021.38 1416.69C990.52 1391.37 979.837 1348.64 977.068 1308.68C974.298 1268.73 977.068 1227.98 964.804 1189.6C956.1 1161.91 932.759 1133.42 904.274 1138.56C887.262 1141.73 874.998 1155.97 863.525 1168.63C812.095 1224.81 746.818 1268.33 675.211 1293.65C643.957 1304.73 607.164 1311.85 579.471 1293.65C564.438 1284.15 554.547 1268.33 546.239 1252.5C519.733 1200.68 512.611 1129.46 555.734 1090.3C585.801 1062.6 649.891 1065.77 658.595 1025.81C698.948 840.655 381.662 947.079 495.996 683.194C548.613 561.736 662.156 740.165 709.63 416.144C715.169 378.164 811.699 368.669 835.041 416.144C852.052 450.564 856.404 473.906 854.822 512.282C853.239 543.932 856.009 577.165 871.042 605.255C886.076 633.345 909.417 645.609 941.462 647.587C950.561 648.378 960.056 648.379 968.76 644.818C978.651 640.862 986.563 633.345 992.497 624.245C1024.54 577.165 1007.93 509.117 1039.58 461.641C1058.17 433.552 1100.5 394.384 1205.74 424.452V425.244Z" fill="white" stroke="black" stroke-width="20" stroke-miterlimit="10"/>
<path d="M1020.18 842.237C978.645 797.531 873.804 805.838 808.923 828.785C798.637 832.345 788.746 836.698 781.625 842.632C772.13 849.753 767.383 858.853 764.614 867.557C754.328 899.999 770.548 935.605 812.879 957.76C855.211 979.916 926.027 985.85 973.897 967.255C1003.57 955.782 1022.16 936.792 1030.08 917.011C1037.99 897.229 1046.3 870.722 1020.18 842.237Z" fill="white" stroke="black" stroke-width="20" stroke-miterlimit="10"/>
<path d="M889.233 913.449C904.746 913.449 917.323 906.364 917.323 897.624C917.323 888.884 904.746 881.799 889.233 881.799C873.72 881.799 861.145 888.884 861.145 897.624C861.145 906.364 873.72 913.449 889.233 913.449Z" fill="black"/>
</svg>
