<svg width="1760" height="1760" viewBox="0 0 1760 1760" fill="none" xmlns="http://www.w3.org/2000/svg">
<rect width="1760" height="1760" fill="white"/>
<path d="M706.796 378.419C670.515 385.879 649.831 418.77 652.544 455.73C656.613 514.052 689.842 599.501 655.595 654.433C638.981 681.22 605.751 699.191 575.235 690.714C553.873 684.95 535.224 667.318 513.523 669.691C494.874 671.726 481.312 688.002 470.8 703.261C409.428 792.779 380.267 903.659 389.761 1011.83C393.83 1057.94 404.68 1103.72 405.358 1150.17C406.036 1190.52 399.594 1230.54 391.118 1270.21C389.422 1277.67 387.727 1285.13 389.761 1292.59C394.169 1310.9 415.87 1318.36 434.519 1320.39C453.168 1322.43 474.53 1323.11 486.737 1337.01C495.214 1346.84 497.248 1360.4 501.995 1372.27C521.661 1422.46 592.189 1437.72 639.32 1411.27C686.452 1384.82 710.865 1329.89 716.629 1276.31C719.681 1247.15 718.663 1217.65 723.41 1188.83C728.157 1160.01 740.025 1130.84 763.76 1113.55C787.495 1096.26 824.454 1095.92 843.103 1118.3C868.534 1149.15 847.173 1197.64 862.431 1234.6C880.402 1277.67 936.688 1286.14 983.481 1287.84C1017.05 1289.2 1050.62 1290.55 1084.19 1291.57C1108.94 1292.59 1136.74 1292.59 1154.71 1275.63C1167.26 1264.1 1172.68 1246.81 1176.07 1229.86C1185.23 1189.17 1187.94 1147.12 1184.21 1105.41C1181.84 1079.98 1178.11 1051.84 1193.37 1031.49C1206.59 1014.2 1230.33 1008.44 1251.69 1010.13C1273.05 1011.83 1293.73 1020.64 1314.42 1027.08C1327.64 1031.15 1341.88 1034.54 1355.78 1032.51C1371.72 1029.8 1385.62 1019.96 1396.13 1007.76C1420.55 979.613 1429.02 938.584 1417.5 902.981C1405.97 867.377 1375.11 839.233 1338.83 830.756C1295.77 820.922 1240.84 833.807 1213.71 798.882C1196.76 776.502 1200.83 745.646 1200.15 717.502C1199.47 689.358 1196.08 644.599 1168.28 640.869C1161.49 639.852 1136.4 688.68 977.038 688.68C817.673 688.68 796.99 682.237 793.599 635.105C792.243 616.794 818.69 475.736 783.088 414.023C773.593 397.747 752.91 368.585 707.474 377.74L706.796 378.419Z" fill="#FFE0F6" stroke="black" stroke-width="20" stroke-miterlimit="10"/>
<path d="M859.378 962.659C874.976 962.659 892.268 962.659 904.814 958.251C918.716 953.843 921.429 946.044 923.124 939.602C929.567 911.119 929.227 882.975 922.445 855.17C921.089 849.066 919.056 842.624 910.579 837.877C892.269 827.026 851.918 826.687 816.654 827.026C761.385 827.704 692.215 832.112 669.836 852.796C662.037 859.917 662.376 867.716 663.054 875.176C665.427 896.538 671.531 917.222 681.025 937.906C683.737 944.01 687.467 950.452 698.318 954.521C709.168 958.59 816.994 962.32 859.378 962.659Z" fill="white" stroke="black" stroke-width="20" stroke-miterlimit="10"/>
<path d="M807.163 915.071C818.196 914.481 826.621 904.301 825.981 892.332C825.341 880.364 815.879 871.14 804.846 871.73C793.813 872.32 785.388 882.5 786.028 894.468C786.667 906.436 796.13 915.66 807.163 915.071Z" fill="black"/>
</svg>
