<svg width="1760" height="1760" viewBox="0 0 1760 1760" fill="none" xmlns="http://www.w3.org/2000/svg">
<path d="M1760 0H0V1760H1760V0Z" fill="white"/>
<path d="M460.53 415.998C481.464 480.895 448.494 566.204 484.081 624.821C523.333 689.718 664.114 652.559 716.449 685.531C768.784 718.503 813.792 779.737 799.661 839.923C785.531 900.11 782.915 948.259 699.179 967.1C579.855 993.792 552.117 889.119 449.54 972.857C397.728 1015.25 425.989 1205.75 423.373 1291.06C423.373 1302.58 423.373 1314.09 427.56 1324.56C433.317 1337.64 445.877 1346.02 458.438 1352.82C529.09 1391.03 614.395 1386.84 694.468 1382.13C730.579 1380.03 768.784 1376.89 796.521 1353.34C839.436 1317.23 836.296 1252.33 843.623 1196.86C849.903 1150.8 866.65 1104.22 900.668 1072.3C934.685 1040.37 987.545 1026.24 1029.41 1046.13C1067.09 1064.45 1089.07 1106.84 1091.17 1148.18C1093.26 1189.53 1078.61 1230.88 1058.2 1266.99C1041.45 1296.82 1021.04 1335.03 1041.45 1362.24C1052.96 1377.94 1073.9 1382.65 1092.74 1386.32C1158.16 1398.35 1224.62 1404.11 1291.09 1403.59C1315.16 1403.59 1341.85 1401.49 1358.6 1384.75C1371.16 1372.71 1375.87 1354.91 1380.06 1337.64C1388.43 1303.1 1395.76 1268.04 1402.56 1232.45C1414.07 1170.69 1420.88 1102.65 1387.38 1049.79C1353.37 996.932 1288.47 975.474 1231.43 948.259C1174.38 921.044 1115.76 873.419 1118.38 810.615C1120.47 769.793 1152.4 732.11 1192.7 723.737C1240.32 713.793 1299.98 739.438 1333.48 704.372C1350.23 686.578 1352.84 660.41 1352.84 635.812C1352.84 588.186 1348.66 540.559 1338.19 493.98C1334 475.139 1328.77 455.775 1316.73 441.12C1284.28 402.391 1224.1 411.812 1173.33 414.952C1079.13 420.709 987.021 390.354 892.818 383.55C817.979 378.316 743.14 387.737 668.824 398.204C615.966 405.531 563.108 413.382 460.008 415.475L460.53 415.998Z" fill="#FCFFA6" stroke="black" stroke-width="20" stroke-miterlimit="10"/>
<path d="M522.802 1194.24C520.709 1205.76 518.615 1218.32 522.802 1228.26C527.512 1238.73 537.98 1242.39 547.923 1244.49C588.745 1253.38 630.089 1257.57 671.433 1256.52C680.854 1256.52 690.275 1256 698.649 1250.77C716.966 1239.25 723.246 1209.94 726.91 1184.3C733.19 1144 735.806 1092.71 708.592 1073.35C699.172 1066.54 687.657 1065.5 676.667 1064.97C645.266 1063.4 613.866 1064.97 582.465 1068.64C573.044 1069.68 563.624 1071.25 555.773 1078.58C547.923 1085.91 530.78 1158.12 524.5 1189L522.802 1194.24Z" fill="white" stroke="black" stroke-width="20" stroke-miterlimit="10"/>
<path d="M653.112 1159.83C654.066 1147.15 646.427 1136.24 636.051 1135.46C625.675 1134.68 616.491 1144.33 615.537 1157.01C614.584 1169.69 622.222 1180.6 632.598 1181.38C642.974 1182.17 652.159 1172.52 653.112 1159.83Z" fill="black"/>
</svg>
