<svg width="1760" height="1760" viewBox="0 0 1760 1760" fill="none" xmlns="http://www.w3.org/2000/svg">
<rect width="1760" height="1760" fill="white"/>
<path d="M1016.74 362.263C981.142 349.319 938.671 355.791 918.042 387.747C897.413 419.702 899.84 462.174 912.38 497.77C924.919 533.366 947.165 565.321 966.176 598.085C979.928 621.951 992.063 651.884 978.715 676.154C967.389 696.783 941.906 704.468 919.255 709.727C808.021 735.615 694.765 751.795 580.7 758.266C564.116 759.075 543.487 762.312 537.824 778.087C534.993 785.368 536.611 793.862 537.824 801.547C545.51 846.447 547.937 891.751 544.701 937.054C543.488 953.639 541.06 971.437 529.734 983.167C505.465 1008.25 385.737 955.661 358.232 1066.49C345.693 1116.65 388.973 1140.92 413.647 1159.12C469.061 1199.98 542.679 1202 576.251 1261.87C590.004 1286.14 596.475 1314.05 613.463 1335.89C650.676 1384.02 721.057 1386.05 781.73 1384.02C895.795 1379.98 1009.86 1375.93 1123.52 1371.48C1173.27 1369.87 1232.33 1362.18 1255.38 1318.09C1264.69 1300.29 1265.9 1279.66 1265.9 1259.44C1266.31 1230.72 1265.5 1202.4 1263.07 1173.69C1262.26 1166 1261.45 1158.31 1258.22 1151.44C1246.89 1130 1216.15 1130.81 1191.88 1132.43C1157.9 1134.45 1122.31 1131.21 1092.78 1114.63C1063.25 1098.04 1040.6 1065.68 1043.03 1031.71C1045.45 1002.18 1066.08 976.29 1092.78 963.346C1119.48 950.402 1150.62 949.594 1179.34 956.47C1193.5 959.706 1208.46 964.965 1222.22 959.302C1245.27 949.998 1246.89 919.256 1248.91 894.582C1250.53 873.953 1254.98 853.323 1251.74 832.694C1244.87 791.031 1215.74 784.963 1172.46 764.739C1123.52 742.087 1189.45 532.557 1189.45 532.557C1189.45 532.557 1104.11 534.984 1093.19 533.366C1060.02 528.512 1099.66 391.792 1017.14 361.859L1016.74 362.263Z" fill="#FFF570" stroke="black" stroke-width="20" stroke-miterlimit="10"/>
<path d="M776.062 944.336C787.792 938.268 815.298 944.74 833.904 958.897C862.623 980.74 875.565 1021.19 864.644 1055.57C853.723 1089.95 819.343 1115.44 783.343 1116.25C781.321 1116.25 779.299 1116.25 777.276 1115.03C774.849 1113.82 773.635 1110.99 772.826 1108.16C753.006 1050.72 759.073 953.639 776.062 944.336Z" fill="#FAFCFF" stroke="black" stroke-width="20" stroke-miterlimit="10"/>
<path d="M794.267 986C800.969 986 806.401 980.567 806.401 973.865C806.401 967.163 800.969 961.73 794.267 961.73C787.565 961.73 782.133 967.163 782.133 973.865C782.133 980.567 787.565 986 794.267 986Z" fill="black" stroke="black" stroke-width="20" stroke-miterlimit="10"/>
</svg>
