<svg width="1760" height="1760" viewBox="0 0 1760 1760" fill="none" xmlns="http://www.w3.org/2000/svg">
<g clip-path="url(#clip0_10_554)">
<path d="M1760 0H0V1760H1760V0Z" fill="white"/>
<path d="M597.585 505.676C562.806 523.304 558.517 570.471 560.899 609.539C563.282 648.607 563.282 694.821 531.361 717.69C490.389 746.277 431.789 711.973 384.623 728.172C346.033 741.512 326.023 789.156 336.981 828.224C347.938 867.291 384.146 896.354 423.689 905.883C448.463 912.077 474.19 911.601 499.44 915.889C524.691 920.177 550.419 931.61 562.806 954.003C572.334 971.155 572.81 991.642 572.81 1011.18C572.81 1048.82 572.81 1085.98 572.81 1123.62C572.81 1146.01 573.764 1170.78 589.962 1186.03C603.778 1199.37 624.265 1201.28 643.322 1202.7C836.274 1216.04 1029.7 1219.38 1222.65 1207.47C1275.06 1204.13 1332.71 1197.46 1367.49 1158.4C1392.26 1130.76 1400.36 1092.65 1407.51 1056.44C1413.7 1024.04 1417.51 984.019 1390.83 964.009C1369.39 947.81 1339.38 954.003 1314.13 961.626C1277.44 972.584 1241.71 984.972 1203.6 990.213C1165.48 995.454 1125.94 992.118 1093.07 973.061C1060.19 954.003 1036.37 916.364 1041.61 878.726C1046.85 839.658 1081.63 808.69 1119.75 800.114C1157.86 791.538 1198.83 801.066 1234.09 819.171C1267.91 836.323 1303.65 861.098 1339.85 849.664C1362.72 842.517 1379.4 822.03 1387.5 799.161C1395.6 776.292 1396.55 752.47 1397.5 728.172C1398.93 687.198 1400.84 645.748 1402.27 604.774C1402.27 597.628 1402.74 590.482 1399.88 583.812C1393.21 568.089 1372.73 564.754 1356.05 563.324C1131.18 545.22 906.308 527.115 598.061 505.676H597.585Z" fill="#FFFEF7" stroke="black" stroke-width="20" stroke-miterlimit="10"/>
<path d="M910.585 744.85C827.687 619.07 666.657 694.824 634.736 796.782C581.853 965.917 787.192 983.546 860.561 953.054C957.752 913.033 944.888 796.782 910.585 744.85Z" fill="white" stroke="black" stroke-width="20" stroke-miterlimit="10"/>
<path d="M769.082 863.481C785.922 863.481 799.574 851.536 799.574 836.801C799.574 822.066 785.922 810.121 769.082 810.121C752.242 810.121 738.592 822.066 738.592 836.801C738.592 851.536 752.242 863.481 769.082 863.481Z" fill="black"/>
</g>
<defs>
<clipPath id="clip0_10_554">
<rect width="1760" height="1760" fill="white"/>
</clipPath>
</defs>
</svg>
