<svg width="1760" height="1760" viewBox="0 0 1760 1760" fill="none" xmlns="http://www.w3.org/2000/svg">
<rect width="1760" height="1760" fill="white"/>
<path d="M594.54 631.325C584.228 631.325 573.595 633.258 568.117 641.959C562.639 650.66 561.672 661.616 560.705 671.928C558.127 701.575 555.549 730.9 552.972 760.548C551.36 778.916 549.104 799.218 535.57 812.108C520.102 827.254 494.645 826.932 474.021 820.165C453.398 813.397 434.708 801.151 413.762 795.351C379.926 786.006 303.877 795.995 307.099 863.346C309.355 912.973 375.737 942.298 455.332 915.873C482.722 906.85 513.013 892.671 539.437 904.272C561.349 913.94 570.695 940.365 570.05 964.211C569.406 988.058 560.705 1010.62 556.516 1034.14C555.227 1040.59 554.905 1048.64 559.738 1053.15C562.639 1056.05 567.15 1056.7 571.017 1057.34C627.41 1066.69 684.769 1069.59 741.806 1065.72C765.974 1064.11 792.076 1060.24 808.188 1042.2C842.346 1004.17 804.321 939.075 828.167 893.96C844.279 863.668 889.393 854.001 915.817 875.914C932.252 889.771 939.986 912.006 939.986 933.597C939.986 955.188 933.541 976.135 926.452 996.437C922.907 1006.43 919.04 1017.06 921.296 1027.37C926.13 1048.96 952.553 1056.38 974.466 1059.6C1009.27 1064.75 1044.07 1069.59 1079.2 1074.74C1092.09 1076.68 1105.94 1078.29 1117.54 1072.49C1153.96 1054.44 1132.37 989.669 1164.91 965.5C1181.99 952.932 1206.48 957.766 1224.53 968.723C1242.57 979.679 1257.4 995.792 1275.44 1006.43C1306.7 1024.47 1348.91 1023.83 1377.92 1002.56C1406.92 981.29 1420.13 939.075 1405.63 905.883C1385 859.157 1353.42 866.247 1301.87 809.53C1288.01 794.384 1272.54 741.213 1259.97 725.422C1250.95 714.143 1182.96 703.509 1171.68 694.808C1047.29 598.777 980.589 584.92 839.768 600.388C767.263 608.445 742.129 632.291 595.185 632.291L594.54 631.325Z" fill="#84FAB0" stroke="black" stroke-width="20" stroke-miterlimit="10"/>
<path d="M852.335 774.404C848.145 764.737 855.235 743.468 867.48 729.611C886.492 708.02 919.684 700.287 946.43 711.243C973.176 722.2 991.222 750.88 989.611 779.883C989.611 781.494 989.61 783.105 988.321 784.717C987.032 786.65 984.777 787.295 982.521 787.939C935.796 800.185 858.457 789.228 852.335 775.049V774.404Z" fill="#FAFCFF" stroke="black" stroke-width="20" stroke-miterlimit="10"/>
<path d="M892.935 759.258C898.274 759.258 902.601 754.929 902.601 749.59C902.601 744.251 898.274 739.922 892.935 739.922C887.595 739.922 883.268 744.251 883.268 749.59C883.268 754.929 887.595 759.258 892.935 759.258Z" fill="black" stroke="black" stroke-width="20" stroke-miterlimit="10"/>
</svg>
