<svg width="1760" height="1760" viewBox="0 0 1760 1760" fill="none" xmlns="http://www.w3.org/2000/svg">
<rect width="1760" height="1760" fill="white"/>
<path d="M759.459 369.781C700.113 390.325 690.526 475.238 692.809 543.716C695.091 612.194 713.351 681.129 703.308 749.607C698.286 784.759 683.677 835.89 653.091 853.694C610.18 878.803 570.463 871.042 600.593 930.846C609.723 949.107 622.506 965.998 626.614 985.628C637.571 1039.04 584.616 1080.58 552.66 1124.41C506.553 1187.87 505.183 1286.93 564.985 1338.06C593.289 1362.26 630.724 1373.22 667.244 1379.61C726.591 1390.56 795.067 1389.65 837.978 1347.19C879.977 1306.11 883.173 1240.37 880.433 1181.93C877.694 1123.5 874.499 1059.58 907.824 1011.19C921.063 992.02 941.606 975.585 965.345 975.129C1001.41 974.216 1028.34 1011.19 1031.99 1046.8C1035.65 1082.41 1022.86 1117.56 1013.28 1152.26C1003.69 1186.95 998.67 1225.76 1016.47 1257.26C1045.69 1310.21 1129.23 1311.13 1173.06 1270.04C1216.88 1228.95 1227.38 1161.85 1219.16 1102.04C1212.32 1054.11 1194.97 1007.09 1163.93 970.107C1139.73 940.89 1107.78 919.433 1082.21 891.128C1056.65 862.824 1037.02 824.933 1045.69 788.411C1054.36 750.52 1090.88 724.955 1127.41 712.172C1163.93 699.389 1203.64 696.194 1240.62 682.955C1255.68 677.476 1270.75 670.172 1281.25 658.303C1290.38 647.346 1295.86 633.651 1299.97 619.955C1314.12 577.499 1324.62 533.673 1331.46 489.39C1333.75 472.955 1335.12 454.238 1323.25 442.369C1312.75 432.325 1296.77 431.869 1282.16 432.325C1225.1 434.608 1167.12 436.89 1110.51 429.586C1016.02 417.26 897.324 321.39 759.002 369.325L759.459 369.781Z" fill="#FF3B83" stroke="black" stroke-width="20" stroke-miterlimit="10"/>
<path d="M884.996 496.237C870.844 492.584 854.866 488.932 842.541 488.932C828.845 488.932 824.736 494.41 821.997 498.976C810.584 518.606 805.107 540.063 805.563 562.432C805.563 567.454 806.019 572.476 812.866 577.954C827.475 590.28 863.996 599.867 896.408 607.628C947.081 619.497 1010.99 631.823 1035.64 621.78C1044.32 618.128 1045.69 612.193 1046.14 606.258C1048.43 589.824 1047.06 572.933 1042.49 555.128C1041.12 550.107 1039.3 544.172 1030.17 538.693C1021.03 533.215 923.342 505.824 884.996 496.237Z" fill="white" stroke="black" stroke-width="20" stroke-miterlimit="10"/>
<path d="M938.715 563.996C940.563 554.852 933.848 545.779 923.716 543.73C913.584 541.682 903.872 547.433 902.023 556.577C900.174 565.721 906.89 574.794 917.022 576.843C927.154 578.891 936.866 573.14 938.715 563.996Z" fill="black"/>
</svg>
