<svg width="1760" height="1760" viewBox="0 0 1760 1760" fill="none" xmlns="http://www.w3.org/2000/svg">
<rect width="1760" height="1760" fill="white"/>
<path d="M591.16 583.651C554.853 585.401 518.546 584.089 484.426 597.65C441.557 614.273 396.501 644.019 389.94 689.514C380.316 756.443 455.118 800.188 496.674 853.994C571.476 951.107 536.48 1088.47 532.981 1210.95C532.106 1232.39 532.981 1255.57 545.667 1273.51C556.603 1289.25 574.976 1298 592.91 1304.13C634.467 1319 683.896 1325.12 720.203 1300.19C771.383 1264.32 768.76 1189.08 766.572 1126.52C764.385 1063.97 782.32 984.79 843.998 972.542C895.178 962.481 941.983 1011.91 951.169 1063.53C960.355 1115.15 943.733 1166.77 932.36 1217.51C920.986 1268.26 914.425 1325.13 941.109 1369.74C949.858 1384.18 961.669 1396.87 975.667 1406.05C1012.85 1430.99 1060.97 1431.86 1105.59 1432.3C1133.14 1432.3 1163.33 1431.42 1183.89 1413.05C1208.38 1391.18 1209.26 1354 1207.94 1321.63C1206.2 1264.32 1204.44 1207.45 1202.69 1150.15C1201.82 1119.09 1201.38 1085.84 1218.01 1059.59C1250.81 1007.1 1335.68 1004.48 1363.67 949.357C1388.61 900.363 1352.73 842.62 1312.05 806.312C1271.37 770.004 1220.63 738.07 1204.01 686.014C1189.57 640.957 1204.01 592.838 1213.63 546.469C1223.25 500.099 1223.69 445.855 1189.57 412.609C1157.2 381.113 1106.02 382.426 1060.97 385.488C1051.78 386.363 1041.28 387.238 1034.72 393.8C1028.6 399.486 1024.66 408.236 1025.97 416.547C1039.97 518.472 1041.28 564.842 1009.35 633.958C977.416 703.075 927.548 729.321 856.246 735.446C683.022 750.319 635.617 581.337 584 583.962L591.16 583.651Z" fill="#FFF570" stroke="black" stroke-width="20" stroke-miterlimit="10"/>
<path d="M1225.01 865.366C1232.01 878.052 1225.01 907.798 1209.7 927.921C1186.51 959.417 1142.77 973.853 1105.15 962.042C1067.53 950.231 1039.97 913.485 1038.66 874.553C1038.66 872.365 1038.66 870.178 1039.53 867.991C1040.85 865.366 1043.91 864.054 1046.97 863.179C1108.65 841.306 1214.51 846.556 1224.57 865.366H1225.01Z" fill="#FAFCFF" stroke="black" stroke-width="20" stroke-miterlimit="10"/>
<path d="M1133.58 916.549C1140.83 916.549 1146.7 910.673 1146.7 903.425C1146.7 896.177 1140.83 890.302 1133.58 890.302C1126.33 890.302 1120.46 896.177 1120.46 903.425C1120.46 910.673 1126.33 916.549 1133.58 916.549Z" fill="black" stroke="black" stroke-width="20" stroke-miterlimit="10"/>
</svg>
