<svg width="1760" height="1760" viewBox="0 0 1760 1760" fill="none" xmlns="http://www.w3.org/2000/svg">
<rect width="1760" height="1760" fill="white"/>
<path d="M756.388 720.475C756.388 677.941 777.469 638.366 800.4 602.489C823.331 566.612 849.22 531.475 860.685 490.42C872.151 449.365 865.124 399.804 831.468 373.544C798.181 347.654 748.251 352.462 712.375 374.653C676.499 396.845 651.349 432.722 628.049 467.859C604.748 502.995 582.187 539.982 548.53 565.873C541.133 571.79 532.626 576.969 527.818 585.106C515.612 604.338 525.599 628.749 530.777 650.941C547.79 727.503 500.449 815.53 542.242 882.105C560.735 911.325 592.172 928.708 619.171 950.53C646.171 972.352 670.581 1033.01 662.445 1066.67C652.459 1108.09 588.104 1118.08 558.146 1148.78C514.503 1193.9 532.256 1243.46 539.653 1305.97C541.502 1319.65 543.352 1334.45 552.598 1344.8C558.516 1351.46 566.653 1355.53 574.79 1359.23C635.815 1385.49 704.608 1384.01 771.182 1382.53C797.441 1381.79 825.55 1380.68 846.632 1364.78C894.713 1328.9 880.288 1239.39 893.603 1202.78C904.329 1172.82 929.109 1147.3 959.437 1137.68C989.765 1128.06 1025.64 1135.46 1048.57 1158.02C1100.72 1209.43 1088.15 1369.95 1099.24 1376.61C1107.75 1382.16 1224.25 1387.34 1239.05 1381.05C1278.25 1364.78 1284.91 1313 1285.65 1270.46C1287.13 1142.86 1319.3 763.749 1305.62 716.406C1291.93 669.064 1234.98 663.516 1190.97 644.653C1184.31 641.695 1175.8 639.475 1169.88 643.543C1164.71 647.242 1168.77 790.379 1057.45 859.544C1016.02 885.434 966.464 895.42 918.013 890.612C878.439 886.913 838.495 875.448 808.537 849.557C778.579 823.667 756.018 780.023 756.018 720.475H756.388Z" fill="#FF82C1" stroke="black" stroke-width="20" stroke-miterlimit="10"/>
<path d="M640.991 1257.88C636.183 1246.79 643.949 1222.38 658.004 1206.1C679.825 1181.32 717.92 1172.08 748.248 1184.65C778.576 1197.23 800.028 1230.14 798.178 1263.06C798.178 1264.91 798.178 1266.76 796.699 1268.61C795.219 1270.83 792.63 1271.57 790.041 1272.31C736.413 1286.73 647.648 1274.53 640.62 1258.25L640.991 1257.88Z" fill="#FAFCFF" stroke="black" stroke-width="20" stroke-miterlimit="10"/>
<path d="M719.031 1268.61C725.159 1268.61 730.126 1263.64 730.126 1257.51C730.126 1251.39 725.159 1246.42 719.031 1246.42C712.903 1246.42 707.936 1251.39 707.936 1257.51C707.936 1263.64 712.903 1268.61 719.031 1268.61Z" fill="black" stroke="black" stroke-width="20" stroke-miterlimit="10"/>
</svg>
