<svg width="1760" height="1760" viewBox="0 0 1760 1760" fill="none" xmlns="http://www.w3.org/2000/svg">
<rect width="1760" height="1760" fill="white"/>
<path d="M536.962 483.765C528.637 501.394 527.168 521.47 526.189 540.567C513.458 783.937 501.215 1026.82 488.484 1270.19C487.505 1287.33 487.016 1305.93 497.299 1319.65C511.989 1339.72 540.878 1340.7 565.362 1340.21C782.773 1332.87 1000.18 1326.01 1217.59 1318.67C1232.77 1318.18 1248.93 1317.2 1261.18 1308.87C1274.89 1299.57 1280.76 1282.43 1284.68 1266.27C1299.37 1209.96 1300.84 1150.71 1301.82 1092.43C1305.25 932.8 1294.48 772.185 1312.1 613.53C1326.79 485.234 1351.27 436.266 1285.66 442.142C1192.13 450.467 1085.88 416.679 941.426 419.127C760.25 422.555 545.775 463.198 535.981 483.275L536.962 483.765Z" fill="#9DC0EB" stroke="black" stroke-width="20" stroke-miterlimit="10"/>
<path d="M797.949 794.222C787.666 794.222 779.342 801.567 779.342 811.851C779.342 841.231 780.32 898.034 790.603 929.373C805.293 972.954 836.633 1012.62 880.703 1025.84C896.372 1030.74 912.53 1031.72 928.689 1031.72C958.559 1031.23 989.406 1024.86 1012.91 1006.74C1035.43 989.604 1050.13 963.651 1057.96 936.719C1064.33 914.683 1068.24 840.252 1069.71 813.809C1069.71 808.423 1065.8 804.016 1059.92 803.526L797.949 794.222Z" fill="white" stroke="black" stroke-width="20" stroke-miterlimit="10"/>
<path d="M927.711 921.048C935.824 921.048 942.4 914.471 942.4 906.357C942.4 898.244 935.824 891.667 927.711 891.667C919.598 891.667 913.021 898.244 913.021 906.357C913.021 914.471 919.598 921.048 927.711 921.048Z" fill="black" stroke="black" stroke-width="20" stroke-miterlimit="10"/>
</svg>
