<svg width="1760" height="1760" viewBox="0 0 1760 1760" fill="none" xmlns="http://www.w3.org/2000/svg">
<rect width="1760" height="1760" fill="white"/>
<path d="M571.948 527.499C516.713 534.667 493.944 567.134 489.306 610.986C484.668 654.838 498.161 698.268 495.631 742.12C491.836 814.222 446.298 876.205 408.772 937.766C371.246 999.328 339.623 1074.8 365.343 1141.85C397.81 1225.75 503.642 1255.27 593.03 1247.26C665.974 1240.93 738.917 1217.74 811.44 1227.86C867.518 1235.87 918.537 1262.86 971.663 1281.83C1036.17 1305.03 1105.32 1316.41 1174.05 1315.57C1227.6 1314.72 1283.26 1305.87 1327.95 1275.93C1372.64 1245.99 1403.42 1191.6 1393.3 1138.89C1384.45 1092.51 1345.66 1052.88 1346.92 1005.65C1348.19 964.331 1384.87 932.707 1394.99 893.071C1443.9 706.279 1333.85 645.561 1327.95 514.849C1326.69 489.972 1326.26 458.769 1303.49 447.807C1295.06 443.59 1285.36 444.012 1276.09 444.012C1134.42 446.542 992.324 449.072 850.653 451.18C808.488 452.023 765.481 452.866 724.582 462.986C652.903 481.117 590.078 525.391 571.948 527.499Z" fill="#DAD4FF" stroke="black" stroke-width="20" stroke-miterlimit="10"/>
<path d="M795.837 995.954C794.572 1004.81 793.728 1014.93 798.367 1022.52C803.848 1030.53 813.967 1032.64 823.243 1033.48C862.877 1038.12 902.512 1038.54 942.146 1035.59C951.001 1034.75 959.855 1033.9 967.444 1029.26C984.31 1019.15 987.684 995.533 989.792 975.293C992.743 943.248 991.9 902.769 964.493 889.276C954.795 884.638 943.833 884.638 933.292 884.638C903.355 885.481 873.419 888.011 843.482 893.071C834.628 894.336 825.351 896.444 818.605 902.769C811.859 909.094 798.366 971.077 794.993 995.533L795.837 995.954Z" fill="white" stroke="black" stroke-width="20" stroke-miterlimit="10"/>
<path d="M899.562 979.51C909.575 979.51 917.692 971.392 917.692 961.379C917.692 951.365 909.575 943.248 899.562 943.248C889.548 943.248 881.431 951.365 881.431 961.379C881.431 971.392 889.548 979.51 899.562 979.51Z" fill="black"/>
</svg>
