<svg width="1760" height="1760" viewBox="0 0 1760 1760" fill="none" xmlns="http://www.w3.org/2000/svg">
<g clip-path="url(#clip0_10_548)">
<path d="M1760 0H0V1760H1760V0Z" fill="white"/>
<path d="M560.86 399.641C497.188 399.641 490.714 501.626 487.476 565.299C475.066 801.106 464.275 1036.91 455.102 1272.72C455.102 1285.13 454.023 1297.54 458.88 1308.87C472.909 1344.49 520.931 1347.19 558.702 1345.03C644.497 1340.71 731.369 1343.95 816.625 1355.28C873.282 1362.29 939.113 1370.39 979.582 1329.38C1020.05 1288.37 1013.58 1215.52 1055.13 1175.59C1095.59 1136.2 1164.12 1144.29 1211.06 1112.46C1261.25 1078.46 1272.04 1009.93 1278.51 949.498C1286.07 875.572 1293.62 801.646 1299.56 727.721C1306.03 648.399 1310.89 567.997 1297.4 489.215C1293.08 463.314 1284.99 435.794 1263.95 421.225C1247.22 409.893 1226.18 408.275 1206.21 407.196C1021.13 397.483 975.805 399.101 561.4 399.101L560.86 399.641Z" fill="#FF82C1" stroke="black" stroke-width="20" stroke-miterlimit="10"/>
<path d="M1030.37 742C936.485 599.545 750.804 679.157 714.652 794.632C654.757 986.191 887.32 1006.16 970.417 971.622C1080.49 926.295 1065.38 794.632 1026.53 735.815L1030.37 742Z" fill="white" stroke="black" stroke-width="20" stroke-miterlimit="10"/>
<path d="M866.812 870.174C885.884 870.174 901.343 856.644 901.343 839.955C901.343 823.267 885.884 809.738 866.812 809.738C847.739 809.738 832.277 823.267 832.277 839.955C832.277 856.644 847.739 870.174 866.812 870.174Z" fill="black"/>
</g>
<defs>
<clipPath id="clip0_10_548">
<rect width="1760" height="1760" fill="white"/>
</clipPath>
</defs>
</svg>
