<svg width="1760" height="1760" viewBox="0 0 1760 1760" fill="none" xmlns="http://www.w3.org/2000/svg">
<rect width="1760" height="1760" fill="white"/>
<path d="M555.002 554.2C528.615 554.985 507.882 574.626 496.574 594.267C485.265 613.908 481.024 635.905 477.726 657.51C469.716 714.861 466.888 772.997 468.773 830.741C469.244 844.489 470.187 859.417 480.082 870.809C495.631 889.271 525.788 892.02 552.646 894.77C599.294 899.483 647.356 909.697 683.166 935.229C718.977 960.762 738.767 1005.15 719.448 1040.9C703.899 1069.18 668.559 1085.68 634.162 1097.07C599.765 1108.46 534.269 1117.1 505.055 1136.35C432.02 1185.45 469.716 1352.4 489.506 1366.54C502.228 1375.57 538.039 1367.33 566.782 1367.33C677.041 1367.33 683.166 1384.22 755.73 1374.79C771.28 1372.82 787.771 1370.07 800.023 1361.43C820.755 1346.9 821.226 1320.97 823.111 1298.19C826.409 1257.73 841.016 1216.48 874 1186.63C936.669 1130.46 1041.27 1162.28 1053.05 1243.98C1074.26 1387.36 1053.52 1378.72 1184.52 1382.65C1394.67 1388.54 1364.04 1080.96 1274.99 1030.29C1201.95 988.653 1112.9 1047.57 1085.57 1006.72C1069.07 982.367 1063.89 863.345 1076.61 837.812C1089.34 812.279 1111.48 800.495 1156.72 798.138C1182.16 796.566 1259.91 798.138 1267.92 782.032C1275.93 765.927 1276.87 749.429 1277.34 732.93C1279.23 686.971 1279.7 640.226 1267.45 595.445C1264.62 585.232 1260.85 574.626 1252.84 566.377C1233.05 545.558 1195.83 546.344 1164.26 547.915C1096.4 551.058 1028.55 549.879 961.171 544.379C940.438 542.808 918.292 540.059 904.156 527.489C887.193 512.562 884.837 489.778 883.895 468.959C881.068 419.465 865.99 375.47 813.687 377.041C755.259 378.612 751.961 426.536 745.835 452.068C741.123 472.495 741.123 493.707 729.815 512.169C704.37 553.415 645.873 551.45 562 554.2H555.002Z" fill="#FF82C1" stroke="black" stroke-width="20" stroke-miterlimit="10"/>
<path d="M734 758.21C743.424 758.995 765.629 760.035 773.639 757.679C782.12 754.929 784.005 749.822 785.419 745.108C790.131 725.467 791.073 705.434 787.775 685.793C787.303 681.472 785.89 676.758 781.178 673.223C770.34 664.974 745.838 663.01 724.635 662.224C691.18 660.653 649.244 661.046 635.108 674.795C630.396 679.508 629.925 685.008 630.396 690.507C631.338 705.434 634.165 720.361 639.349 735.288C640.762 739.609 642.647 744.322 649.244 747.465C655.84 750.607 720.865 757.286 746.31 759.25L734 758.21Z" fill="white" stroke="black" stroke-width="20" stroke-miterlimit="10"/>
<path d="M709.557 716.041C719.966 716.041 728.405 711.995 728.405 707.006C728.405 702.016 719.966 697.971 709.557 697.971C699.147 697.971 690.709 702.016 690.709 707.006C690.709 711.995 699.147 716.041 709.557 716.041Z" fill="black"/>
</svg>
