<svg width="1760" height="1760" viewBox="0 0 1760 1760" fill="none" xmlns="http://www.w3.org/2000/svg">
<rect width="1760" height="1760" fill="white"/>
<path d="M558.902 643.736C553.065 661.328 550.371 678.92 550.371 696.886C550.371 723.087 551.269 749.288 551.269 775.489C551.269 793.081 551.269 812.544 537.8 826.019C504.575 859.706 430.493 829.388 390.534 857.46C366.289 874.303 365.84 904.621 367.636 930.822C368.983 957.397 370.779 983.972 372.126 1010.55C372.575 1021.4 373.922 1033 382.452 1040.86C390.983 1048.73 404.901 1050.97 417.473 1052.09C470.004 1055.84 531.065 1047.6 567.882 1079.04C582.249 1091.02 589.882 1107.49 596.617 1123.21C615.474 1170.37 625.351 1219.78 625.8 1269.19C625.8 1286.4 624.902 1304 629.841 1320.46C634.78 1336.93 647.351 1353.4 666.658 1359.39C677.433 1362.76 689.107 1363.13 700.331 1362.76C722.331 1362.76 744.78 1361.26 766.78 1359.02C789.23 1356.77 812.577 1353.03 829.189 1340.3C858.373 1317.84 853.883 1279.29 851.638 1246.35C849.393 1209.3 852.536 1171.49 864.209 1135.56C871.842 1111.61 883.965 1087.65 905.965 1070.81C927.965 1053.96 962.087 1046.48 988.577 1058.08C1025.84 1074.18 1030.78 1116.1 1030.78 1150.91C1030.78 1180.85 1030.78 1211.17 1031.23 1241.11C1031.23 1257.96 1031.23 1275.55 1041.11 1290.52C1059.07 1319.34 1102.62 1327.95 1140.78 1333.94C1163.68 1337.31 1211.27 1333.19 1232.37 1324.21C1266.5 1309.24 1248.54 1278.54 1248.54 1246.35C1248.54 1194.33 1249.44 1142.67 1249.88 1090.65C1249.88 1079.42 1249.88 1067.81 1256.17 1058.08C1266.05 1041.99 1289.39 1035.25 1310.95 1033.38C1332.5 1031.51 1354.5 1033.38 1375.6 1028.89C1416.91 1019.9 1446.54 985.095 1446.99 949.911C1447.44 914.727 1421.4 880.291 1384.58 862.699C1367.52 854.465 1348.21 849.599 1332.5 839.493C1262.91 794.578 1308.7 686.032 1240.46 639.245C1216.66 622.776 1183.88 618.658 1153.35 614.915C1081.97 606.681 1013.72 624.273 955.353 575.614C914.495 541.554 945.924 406.432 813.924 432.259C754.209 443.862 751.964 513.481 747.923 543.05C745.229 562.514 745.229 583.1 734.005 600.318C722.78 617.535 578.208 587.218 559.8 643.362L558.902 643.736Z" fill="#8CFFD9" stroke="black" stroke-width="20" stroke-miterlimit="10"/>
<path d="M819.762 879.167C832.783 879.916 846.701 880.665 857.477 877.296C869.15 873.553 871.844 866.441 873.191 860.452C879.477 833.503 880.824 806.553 876.334 779.604C875.436 773.615 874.089 767.627 867.354 762.387C852.987 751.158 819.762 748.538 790.579 747.04C745.232 744.795 687.762 745.543 668.905 764.258C662.17 770.621 662.17 778.107 662.17 785.593C663.068 806.179 667.109 826.391 674.292 846.603C676.537 852.592 679.231 858.956 687.762 863.447C696.293 867.939 784.742 876.922 819.762 879.542V879.167Z" fill="white" stroke="black" stroke-width="20" stroke-miterlimit="10"/>
<path d="M770.374 820.776C784.508 820.776 795.966 815.247 795.966 808.425C795.966 801.603 784.508 796.073 770.374 796.073C756.24 796.073 744.782 801.603 744.782 808.425C744.782 815.247 756.24 820.776 770.374 820.776Z" fill="black"/>
</svg>
