<svg width="1760" height="1760" viewBox="0 0 1760 1760" fill="none" xmlns="http://www.w3.org/2000/svg">
<rect width="1760" height="1760" fill="white"/>
<path d="M479.726 600.093C452.443 600.466 442.156 629.549 440.814 652.294C437.236 700.02 440.814 753.711 481.514 787.641C497.169 800.691 516.848 809.64 534.291 821.198C562.468 839.468 585.278 865.569 591.093 895.025C596.907 924.481 582.595 957.666 551.734 973.326C530.713 984.139 504.772 985.63 480.62 990.477C456.468 995.324 430.527 1004.65 421.135 1024.03C417.109 1032.24 416.662 1041.19 416.215 1050.13C413.084 1104.2 409.953 1158.26 407.27 1212.33C406.822 1222.4 406.375 1232.84 410.848 1242.53C422.477 1265.27 457.81 1270.49 487.329 1272.73C519.084 1274.97 551.287 1277.21 583.042 1279.07C624.637 1282.05 671.152 1283.17 701.565 1259.68C733.321 1235.07 733.321 1194.06 742.266 1158.64C748.08 1135.15 758.815 1112.78 773.574 1092.27C794.595 1063.19 829.481 1036.71 870.629 1037.83C907.751 1038.95 939.507 1063.56 952.924 1092.27C966.342 1120.98 965.448 1153.42 960.528 1183.99C958.292 1197.41 956.055 1211.21 960.975 1223.89C972.604 1252.97 1015.99 1261.55 1052.22 1265.65C1082.63 1269 1113.49 1272.36 1143.9 1275.71C1167.16 1278.32 1192.65 1280.19 1211.44 1268.63C1226.65 1259.31 1234.7 1243.65 1238.27 1227.99C1251.69 1172.43 1249.9 1158.26 1240.51 1104.95C1231.12 1051.63 1168.95 1012.1 1165.37 959.157C1164.48 944.615 1168.95 928.955 1181.92 919.634C1199.81 906.584 1227.54 909.94 1249.46 917.77C1271.37 925.6 1291.05 938.277 1314.31 942.006C1363.95 950.581 1398.84 915.905 1414.49 876.009C1430.15 836.113 1423.89 799.573 1418.52 753.711C1413.15 707.849 1370.22 662.361 1319.23 649.311C1215.91 613.516 1094.71 651.175 986.916 625.82C960.081 619.482 933.692 609.042 917.591 590.026C908.199 579.213 902.831 566.163 895.228 554.604C864.815 507.251 799.515 478.913 735.11 480.032C670.705 481.151 609.43 509.115 567.388 549.757C545.92 570.637 526.24 599.72 480.173 600.466L479.726 600.093Z" fill="#FCFFA6" stroke="black" stroke-width="20" stroke-miterlimit="10"/>
<path d="M646.557 594.125C590.65 624.327 591.544 710.085 625.983 761.166C631.35 769.369 638.059 777.199 646.557 782.792C657.291 790.249 670.709 793.978 683.679 796.215C731.983 804.045 785.207 791.741 818.751 757.811C852.295 723.88 860.793 668.324 833.063 630.292C816.067 606.802 787.443 592.261 757.924 585.922C728.405 579.584 693.072 569.517 646.557 594.125Z" fill="white" stroke="black" stroke-width="20" stroke-miterlimit="10"/>
<path d="M729.299 720.15C742.391 720.15 753.004 710.135 753.004 697.779C753.004 685.424 742.391 675.407 729.299 675.407C716.208 675.407 705.595 685.424 705.595 697.779C705.595 710.135 716.208 720.15 729.299 720.15Z" fill="black"/>
</svg>
