<svg width="1760" height="1760" viewBox="0 0 1760 1760" fill="none" xmlns="http://www.w3.org/2000/svg">
<rect width="1760" height="1760" fill="white"/>
<path d="M884.791 371.476C825.858 383.759 811.651 447.364 796.392 496.494C781.659 543.869 769.03 600.895 714.833 619.757C690.629 628.092 659.583 628.092 644.85 646.515C632.748 661.868 640.115 682.485 645.903 700.47C663.793 753.986 668.529 810.574 658.531 865.406C651.165 905.324 628.539 950.945 581.182 958.841C550.663 964.105 520.67 951.384 491.204 942.611C461.738 933.837 425.431 929.45 402.805 947.435C385.441 961.472 382.81 984.283 389.124 1004.02C395.438 1023.76 409.119 1040.43 420.695 1058.42C458.054 1115.44 473.314 1182.12 463.842 1246.6C459.633 1276.43 451.214 1309.77 473.84 1333.45C488.573 1348.81 512.778 1354.95 535.404 1360.65C586.97 1373.37 647.481 1384.34 689.576 1356.7C708.519 1343.98 720.095 1325.12 729.566 1305.82C753.245 1257.57 767.978 1206.24 796.918 1159.75C811.651 1136.06 830.594 1113.69 856.903 1098.33C883.213 1082.98 917.941 1076.4 947.933 1086.05C991.081 1099.21 1012.13 1140.88 1013.71 1179.05C1015.29 1217.21 1002.13 1254.94 998.973 1293.1C997.921 1304.94 997.921 1317.22 1004.76 1327.75C1012.65 1340.04 1027.91 1347.49 1043.17 1353.63C1091.06 1372.93 1143.15 1385.22 1196.29 1389.6C1217.87 1391.36 1241.02 1391.36 1258.38 1380.39C1269.43 1373.37 1276.27 1362.41 1282.06 1351.88C1336.79 1256.69 1372.04 1154.48 1406.77 1052.71C1415.71 1026.39 1425.18 999.197 1422.55 972C1416.77 902.253 1338.36 845.666 1340.99 775.919C1342.05 750.916 1354.15 726.79 1358.88 701.787C1363.62 676.783 1359.41 647.832 1335.73 632.479C1310.48 615.809 1274.17 620.634 1242.07 621.073C1172.09 621.95 1080.53 615.809 1036.33 570.627C982.135 515.356 1012.13 344.718 885.844 371.915L884.791 371.476Z" fill="#63B6FF" stroke="black" stroke-width="20" stroke-miterlimit="10"/>
<path d="M811.654 867.599C799.551 900.937 789.028 940.856 816.389 967.175C833.753 983.844 861.641 989.546 887.951 992.617C921.1 996.565 955.828 997.443 987.399 989.108C1018.97 980.773 1048.96 961.472 1060.01 935.152C1072.12 907.078 1062.12 875.933 1049.49 848.298C1026.34 796.536 993.714 746.09 942.148 711.436C936.36 707.488 930.571 703.979 923.731 702.663C907.945 699.154 891.108 707.927 882.689 719.332C874.27 730.737 825.861 828.559 811.654 867.161V867.599Z" fill="white" stroke="black" stroke-width="20" stroke-miterlimit="10"/>
<path d="M932.151 914.097C950.168 914.097 964.774 903.492 964.774 890.41C964.774 877.328 950.168 866.722 932.151 866.722C914.134 866.722 899.527 877.328 899.527 890.41C899.527 903.492 914.134 914.097 932.151 914.097Z" fill="#030005"/>
</svg>
