<svg width="1760" height="1760" viewBox="0 0 1760 1760" fill="none" xmlns="http://www.w3.org/2000/svg">
<rect width="1760" height="1760" fill="white"/>
<path d="M796.436 430.567C735.797 432.065 717.381 475.502 706.601 502.837C695.82 530.173 687.286 561.627 659.437 578.852C617.215 605.064 557.923 585.218 505.37 589.337C497.284 590.086 489.2 591.21 482.462 594.954C471.233 601.32 466.292 612.554 461.8 623.413C443.384 669.471 424.967 715.53 406.551 761.214C404.305 766.831 402.059 772.448 403.407 778.065C404.754 784.431 410.144 789.673 414.187 795.29C451.019 845.093 394.423 914.742 426.764 966.418C434.4 978.775 446.977 988.885 456.41 1000.49C479.318 1028.58 485.157 1063.78 482.911 1097.48C480.665 1131.18 471.232 1164.51 466.292 1197.83C463.147 1219.55 462.698 1243.89 479.318 1260.74C487.852 1269.35 499.531 1274.97 511.209 1279.84C543.55 1293.69 578.136 1303.43 614.071 1309.05C638.775 1312.79 666.624 1314.29 686.837 1301.56C707.948 1288.08 713.338 1263.74 717.381 1241.65C723.669 1207.94 731.305 1173.49 749.272 1142.79C767.239 1112.08 796.885 1084.37 835.963 1073.14C875.042 1061.9 923.104 1070.52 946.91 1098.23C970.716 1125.56 967.123 1162.26 965.326 1195.96C963.53 1229.66 957.241 1269.73 999.463 1288.45C1012.04 1294.07 1024.62 1299.69 1037.64 1303.43C1076.72 1315.04 1116.25 1326.27 1155.33 1337.88C1188.12 1347.62 1228.99 1355.85 1254.15 1335.63C1266.72 1325.52 1271.66 1310.54 1275.71 1295.94C1291.88 1240.15 1306.25 1184.35 1319.73 1128.18C1324.22 1109.09 1328.26 1088.87 1318.83 1071.27C1299.96 1035.32 1235.28 1025.96 1223.15 988.136C1213.27 957.43 1247.41 927.474 1283.79 918.487C1304.45 913.244 1326.91 912.121 1343.98 900.887C1357.01 892.275 1363.75 879.169 1370.03 866.063C1388 827.119 1400.13 785.928 1406.42 744.363C1408.21 732.006 1409.56 719.274 1404.17 708.041C1399.23 697.556 1389.35 689.318 1378.12 682.952C1341.74 661.233 1294.57 655.991 1250.1 651.872C1239.32 650.748 1228.09 650 1217.76 652.621C1204.74 655.991 1194.41 664.603 1185.87 673.59C1129.72 732.38 1070.43 705.045 991.379 683.701C924.451 665.352 890.314 653.369 894.806 607.311C898.399 573.235 910.976 528.301 897.051 496.097C883.127 463.894 867.406 427.196 796.885 429.069L796.436 430.567Z" fill="#FFD58C" stroke="black" stroke-width="20" stroke-miterlimit="10"/>
<path d="M784.754 780.309C750.616 762.335 708.843 743.238 672.46 752.225C649.552 757.842 636.076 773.569 625.745 789.296C612.719 809.142 603.287 830.487 604.185 853.329C605.083 876.171 619.008 900.51 645.509 915.863C673.807 931.965 711.089 935.709 745.226 936.458C808.56 937.956 873.242 933.088 924.897 911.37C930.736 909.123 936.126 906.502 939.72 902.383C947.805 893.396 942.415 880.289 931.635 871.302C920.854 862.315 824.281 801.279 784.754 780.309Z" fill="white" stroke="black" stroke-width="20" stroke-miterlimit="10"/>
<path d="M754.833 856.211C759.408 844.839 751.296 832.315 736.714 828.238C722.131 824.161 706.601 830.075 702.026 841.447C697.451 852.82 705.564 865.344 720.146 869.421C734.729 873.498 750.258 867.584 754.833 856.211Z" fill="#030005"/>
</svg>
