<svg width="1760" height="1760" viewBox="0 0 1760 1760" fill="none" xmlns="http://www.w3.org/2000/svg">
<g clip-path="url(#clip0_10_566)">
<path d="M1760 0H0V1760H1760V0Z" fill="white"/>
<path d="M746.368 616.546C713.33 589.004 643.304 608.998 613.269 639.044C560.495 691.625 587.097 781.405 527.457 828.262C504.717 846.147 473.824 853.659 447.651 867.609C421.479 881.558 398.738 907.313 408.178 931.635C418.475 957.747 457.52 966.689 478.544 988.15C503 1013.55 496.564 1050.03 488.841 1081.51C475.969 1133.37 462.668 1184.88 453.658 1237.1C452.8 1241.75 451.942 1247.12 454.945 1251.41C457.949 1255.7 463.956 1257.85 469.534 1259.64C496.994 1268.58 524.454 1277.52 552.343 1286.46C578.944 1295.05 608.979 1303.99 635.58 1295.41C657.463 1288.25 672.909 1270.73 680.632 1252.13C688.355 1233.53 690.072 1213.5 693.504 1194.18C697.366 1170.57 704.23 1146.96 718.819 1126.58C733.407 1106.19 757.434 1089.38 785.323 1085.44C817.932 1080.79 851.828 1094.74 870.707 1117.28C889.585 1139.81 893.018 1169.86 883.149 1195.97C875.855 1215.28 862.984 1237.82 877.572 1253.91C883.15 1260.35 892.589 1263.93 901.17 1267.15C948.796 1285.03 998.138 1300.41 1048.34 1312.58C1063.78 1316.15 1080.09 1319.73 1095.11 1316.15C1119.99 1310.43 1134.15 1288.61 1143.59 1268.94C1161.61 1232.1 1175.34 1193.82 1184.78 1154.83C1188.64 1139.1 1191.65 1122.64 1187.35 1106.9C1181.35 1083.3 1160.32 1064.7 1147.02 1043.23C1131.58 1017.48 1127.29 986.362 1141.44 960.25C1155.6 934.139 1189.07 914.823 1223.4 917.685C1257.72 920.547 1287.33 944.155 1322.08 942.724C1351.26 941.651 1375.28 922.692 1392.45 902.662C1470.54 811.808 1458.52 674.813 1365.42 594.333C1347.39 578.594 1326.37 565.002 1301.91 556.775C1243.99 537.46 1177.49 552.841 1121.28 575.733C1065.07 598.625 986.553 639.044 926.056 651.921C859.551 665.871 812.354 671.951 741.988 612.932L746.368 616.546Z" fill="#B7ABFF" stroke="black" stroke-width="20" stroke-miterlimit="10"/>
<path d="M1203.23 678.39C1164.18 698.421 1165.04 754.936 1189.07 788.916C1192.93 794.282 1197.65 799.647 1203.23 803.224C1210.95 808.231 1219.96 810.735 1228.97 812.166C1262.44 817.531 1299.77 809.305 1322.94 786.77C1346.11 764.236 1352.11 727.751 1332.81 702.355C1320.79 686.974 1301.05 677.317 1280.89 673.025C1260.72 668.732 1235.41 661.936 1203.23 678.39Z" fill="white" stroke="black" stroke-width="20" stroke-miterlimit="10"/>
<path d="M1260.72 761.733C1269.73 761.733 1277.03 755.167 1277.03 747.067C1277.03 738.968 1269.73 732.402 1260.72 732.402C1251.72 732.402 1244.42 738.968 1244.42 747.067C1244.42 755.167 1251.72 761.733 1260.72 761.733Z" fill="black"/>
</g>
<defs>
<clipPath id="clip0_10_566">
<rect width="1760" height="1760" fill="white"/>
</clipPath>
</defs>
</svg>
