<svg width="1760" height="1760" viewBox="0 0 1760 1760" fill="none" xmlns="http://www.w3.org/2000/svg">
<rect width="1760" height="1760" fill="white"/>
<path d="M901.245 680.386C817.369 692.488 781.077 642.734 738.735 648.785C702.846 653.828 687.926 688.79 675.425 717.365C666.15 738.207 654.456 758.378 640.343 777.203C627.035 795.357 609.696 813.846 585.097 819.897C550.821 828.301 515.335 810.484 479.849 811.493C437.911 812.837 400.409 844.774 400.006 879.735C399.602 908.982 420.975 935.204 429.846 963.442C447.589 1017.57 419.362 1073.71 409.684 1129.51C408.071 1137.92 407.264 1146.99 410.893 1155.06C416.539 1167.16 431.056 1174.22 444.363 1180.27C476.623 1194.73 509.286 1208.18 542.353 1220.61C551.224 1223.98 560.499 1227.34 570.177 1227C585.5 1226.33 598.001 1216.58 605.26 1205.49C612.518 1194.39 615.341 1181.62 619.777 1169.52C631.471 1137.24 655.666 1108 687.523 1087.49C714.137 1070.34 751.639 1059.25 780.673 1073.03C815.756 1089.84 817.369 1132.54 804.465 1164.81C799.223 1177.25 796.804 1190.02 795.594 1203.13C788.335 1271.38 885.922 1259.27 904.068 1228.35C927.053 1189.69 933.102 1147.67 952.055 1107.32C957.297 1095.89 964.152 1084.46 974.234 1075.72C999.638 1053.87 1044 1052.86 1074.64 1069C1105.29 1085.14 1122.63 1115.39 1125.86 1145.65C1127.07 1158.09 1126.26 1171.2 1133.11 1182.29C1143.6 1200.44 1169.41 1207.84 1192.8 1213.55C1207.31 1217.25 1223.85 1220.61 1237.15 1214.9C1250.86 1209.18 1257.72 1196.07 1262.56 1183.97C1279.09 1141.61 1287.16 1097.24 1286.75 1052.86C1286.75 1038.41 1285.54 1023.95 1279.49 1010.51C1268.61 985.63 1243.2 967.477 1217.8 951.677C1192.39 935.877 1165.37 920.413 1148.84 897.889C1132.31 875.366 1129.89 843.093 1152.47 824.604C1169.81 810.485 1196.42 808.131 1220.62 808.804C1240.38 809.476 1260.14 811.493 1279.49 814.854C1294.41 817.544 1310.54 821.242 1325.06 817.208C1349.26 810.821 1359.34 787.624 1365.79 767.118C1383.53 709.296 1394.42 649.794 1398.05 589.955C1398.45 581.215 1398.05 570.793 1389.58 565.751C1383.94 562.389 1376.27 562.389 1369.02 562.389C1102.87 567.095 1143.2 534.823 1131.5 554.321C1073.03 652.483 998.429 666.266 901.245 680.049V680.386Z" fill="#FF3B83" stroke="black" stroke-width="20" stroke-miterlimit="10"/>
<path d="M779.866 918.5C777 886 794.786 845.11 832.288 822.25C841.563 816.872 851.241 811.829 862.532 809.812C883.501 805.778 905.68 811.156 923.826 820.569C956.086 837.378 977.862 866.962 981.894 898.226C981.894 901.587 982.297 905.285 979.475 907.639C977.458 909.319 975.039 909.655 972.216 910.327C922.616 920.749 872.613 928.481 822.207 933.86C806.48 935.541 783.495 936.213 779.866 922.43L779.866 918.5Z" fill="white" stroke="black" stroke-width="20" stroke-miterlimit="10"/>
<path d="M879.472 885.116C887.712 885.116 894.392 879.095 894.392 871.669C894.392 864.242 887.712 858.222 879.472 858.222C871.232 858.222 864.552 864.242 864.552 871.669C864.552 879.095 871.232 885.116 879.472 885.116Z" fill="black"/>
</svg>
