<svg width="1760" height="1760" viewBox="0 0 1760 1760" fill="none" xmlns="http://www.w3.org/2000/svg">
<rect width="1760" height="1760" fill="white"/>
<path d="M720.101 549.996C688.746 565.756 670.302 592.28 662.464 621.878C645.403 686.841 628.343 752.188 611.282 817.151C607.593 831.374 602.982 846.749 590.532 857.127C575.316 869.428 552.262 871.735 531.051 869.045C509.841 866.354 490.475 859.818 469.265 857.127C441.138 853.283 411.628 857.128 388.112 870.198C364.596 883.267 348.919 906.715 351.224 930.163C353.991 960.146 383.04 983.21 412.089 1000.89C441.138 1018.57 474.337 1034.33 491.858 1060.47C502.002 1075.46 505.691 1092.38 508.919 1109.29C514.913 1140.81 517.68 1172.72 517.68 1204.62C517.68 1249.21 513.991 1299.95 550.879 1332.63C582.694 1361.07 640.792 1364.91 677.218 1341.08C710.417 1319.56 722.867 1281.5 723.789 1246.14C724.712 1210.77 716.873 1175.41 720.101 1140.43C724.712 1088.15 758.372 1035.1 816.008 1014.35C873.645 993.589 952.953 1017.04 969.552 1067.39C988.918 1126.59 922.06 1185.02 930.36 1245.75C934.971 1277.27 959.869 1305.33 991.224 1323.78C1080.22 1376.45 1216.24 1353.77 1284.48 1282.65C1352.72 1211.54 1354.57 1104.68 1301.08 1025.49C1278.02 991.666 1246.21 961.299 1234.22 923.628C1222.23 885.957 1242.06 837.139 1288.17 829.836C1316.3 825.607 1348.11 837.908 1373.01 825.223C1389.61 816.766 1396.53 799.469 1401.6 783.709C1416.81 734.891 1427.42 685.303 1432.95 634.948C1436.18 604.965 1434.34 569.216 1403.9 553.071C1392.84 547.305 1379.47 545.383 1367.02 543.846C1273.88 531.929 1178.89 531.93 1085.75 543.461C1059.47 546.921 1030.42 550.381 1007.82 538.849C997.218 533.083 989.379 524.626 982.463 515.785C963.558 491.184 952.031 463.507 931.743 440.059C911.455 416.611 876.873 397.776 843.213 404.311C810.014 410.461 789.264 437.753 775.893 464.276C762.521 490.799 762.06 529.239 720.561 549.996H720.101Z" fill="#99E6FF" stroke="black" stroke-width="20" stroke-miterlimit="10"/>
<path d="M869.953 697.603C815.083 725.28 816.465 804.85 850.125 852.131C855.659 859.819 862.114 866.737 869.953 872.119C880.558 879.038 893.468 882.498 906.379 884.42C953.872 891.723 1005.98 880.191 1038.71 849.055C1071.45 817.919 1079.75 766.41 1052.55 731.045C1035.95 709.519 1007.82 695.681 979.232 689.915C950.644 684.149 915.14 674.155 869.953 697.219V697.603Z" fill="white" stroke="black" stroke-width="20" stroke-miterlimit="10"/>
<path d="M951.106 814.458C963.838 814.458 974.16 805.165 974.16 793.701C974.16 782.237 963.838 772.944 951.106 772.944C938.373 772.944 928.051 782.237 928.051 793.701C928.051 805.165 938.373 814.458 951.106 814.458Z" fill="black"/>
</svg>
