<svg width="1760" height="1760" viewBox="0 0 1760 1760" fill="none" xmlns="http://www.w3.org/2000/svg">
<rect width="1760" height="1760" fill="white"/>
<path d="M628.019 534.619C609.848 530.744 590.831 540.608 579.421 552.938C568.011 565.269 562.94 580.77 558.291 595.918C545.191 639.955 534.627 684.697 527.02 729.791C524.484 743.883 521.526 759.736 508.003 768.544C489.409 780.874 462.363 773.828 439.121 776.998C401.088 782.283 377 817.161 377 849.22C377 881.279 395.594 911.575 414.188 939.759C432.782 967.943 452.221 997.183 455.602 1029.24C458.983 1060.95 445.882 1092.3 442.079 1124.01C440.811 1136.34 440.811 1149.37 447.995 1159.94C456.869 1173.33 474.618 1181.08 491.522 1187.07C540.12 1204.33 591.253 1217.02 643.655 1224.77C656.755 1226.53 670.278 1228.29 682.533 1224.77C701.972 1219.83 715.072 1203.98 722.679 1188.13C736.202 1159.59 737.47 1128.59 740.005 1097.94C742.541 1067.29 746.767 1035.94 764.516 1009.51C782.265 983.092 817.762 961.954 854.105 965.83C886.644 969.353 912.422 991.899 924.677 1016.91C936.933 1041.92 938.623 1070.11 939.891 1097.24C941.158 1118.37 942.004 1139.86 943.271 1161C943.271 1166.64 943.694 1172.63 946.652 1177.91C955.527 1193.41 980.459 1194.82 1000.74 1193.76C1058.22 1190.95 1115.69 1185.66 1172.74 1177.91C1198.52 1174.39 1225.98 1170.16 1245.85 1155.36C1280.5 1129.29 1276.7 1084.2 1272.47 1045.45C1266.98 996.126 1265.71 946.101 1268.67 896.427C1268.67 889.029 1269.93 881.278 1275.01 875.289C1284.73 864.72 1303.74 865.425 1319.8 862.959C1370.93 855.56 1398.82 808.001 1404.32 765.02C1412.35 703.016 1390.37 641.365 1365.02 582.531C1360.79 572.667 1355.72 562.098 1345.58 556.109C1326.56 544.836 1300.36 553.643 1277.96 559.28C1231.9 570.906 1180.34 565.974 1138.09 546.245C1127.94 541.313 1117.8 535.323 1105.97 534.267C1086.11 532.153 1068.36 543.074 1050.61 550.825C1005.39 570.553 952.146 570.553 901.435 568.439C827.059 565.621 752.261 560.689 628.019 534.619Z" fill="#FF82C1" stroke="black" stroke-width="20" stroke-miterlimit="10"/>
<path d="M823.676 686.809C804.237 686.104 782.685 685.753 767.049 690.685C749.723 695.969 745.92 705.48 744.229 713.935C736.2 749.517 735.777 785.453 744.229 820.682C745.92 828.433 748.455 836.535 758.597 842.876C780.995 857.32 831.705 859.081 875.232 859.434C943.692 860.138 1030.32 856.616 1058.21 831.603C1067.93 822.796 1067.93 812.931 1067.09 803.419C1064.55 776.644 1057.37 749.871 1045.54 723.801C1042.16 716.05 1037.51 707.947 1024.41 702.31C1011.31 696.673 876.923 688.571 824.521 687.162L823.676 686.809Z" fill="white" stroke="black" stroke-width="20" stroke-miterlimit="10"/>
<path d="M901.81 794.214C923.036 793.602 939.943 785.855 939.572 776.911C939.201 767.966 921.693 761.21 900.467 761.822C879.241 762.433 862.335 770.181 862.706 779.126C863.077 788.071 880.585 794.826 901.81 794.214Z" fill="black"/>
</svg>
