<svg width="1760" height="1760" viewBox="0 0 1760 1760" fill="none" xmlns="http://www.w3.org/2000/svg">
<g clip-path="url(#clip0_10_18)">
<path d="M1760 0H0V1760H1760V0Z" fill="white"/>
<path d="M576.19 1025.24C526.066 1019.96 494.409 1132.52 522.549 1201.11C530.463 1220.46 542.774 1238.05 548.93 1257.83C555.525 1277.62 555.965 1299.17 561.241 1319.39C571.353 1358.08 597.734 1376.11 634.667 1391.06C771.407 1446.46 796.909 1330.38 871.214 1308.84C945.52 1287.29 1023.78 1316.75 1086.66 1206.83C1105.12 1174.29 1113.04 1170.78 1117.87 1133.4C1123.59 1089.43 1124.91 1044.58 1121.83 1000.18C1117.43 935.102 1104.24 870.028 1109.08 804.954C1113.92 739.88 1140.3 671.728 1196.14 637.871C1218.56 624.241 1244.06 617.206 1267.8 605.774C1291.55 594.342 1313.97 576.755 1321.45 551.692C1332.88 512.56 1303.86 474.307 1275.72 445.287C1246.7 415.828 1214.6 386.808 1175.47 373.178C1163.16 368.781 1147.33 366.583 1138.1 375.816C1132.38 381.092 1130.18 389.446 1127.99 396.921C1106.44 469.91 1043.57 529.268 969.263 546.416C943.322 552.572 793.391 520.474 783.279 727.568C764.812 1105.26 657.426 1032.71 584 1025.24H576.19Z" fill="#84FAB0" stroke="black" stroke-width="20" stroke-miterlimit="10"/>
<path d="M1139.86 484C1117.14 501.925 1112.6 534.104 1129.75 557.408C1132.38 561.365 1135.9 564.883 1139.86 567.521C1145.13 571.038 1151.73 572.797 1158.33 573.676C1182.07 577.194 1208.45 571.478 1225.16 556.089C1241.86 540.7 1245.82 515.198 1232.19 497.61C1223.84 487.057 1209.77 480.022 1195.26 477.384C1180.75 474.746 1156.97 470.504 1139.86 484Z" fill="white" stroke="black" stroke-width="20" stroke-miterlimit="10"/>
<path d="M1180.75 538.501C1187.31 538.501 1192.62 533.973 1192.62 528.388C1192.62 522.803 1187.31 518.275 1180.75 518.275C1174.19 518.275 1168.88 522.803 1168.88 528.388C1168.88 533.973 1174.19 538.501 1180.75 538.501Z" fill="black"/>
</g>
<defs>
<clipPath id="clip0_10_18">
<rect width="1760" height="1760" fill="white"/>
</clipPath>
</defs>
</svg>
