<svg width="1760" height="1760" viewBox="0 0 1760 1760" fill="none" xmlns="http://www.w3.org/2000/svg">
<rect width="1760" height="1760" fill="white"/>
<path d="M653.641 721.87C641.441 695.832 625.336 668.98 637.536 643.348C649.737 617.717 684.875 599.409 717.572 605.919C732.701 609.173 746.365 616.904 761.494 618.938C790.288 622.6 816.641 603.885 832.746 583.135C856.659 553.029 866.419 511.531 842.994 481.018C829.817 463.93 805.904 448.47 810.784 428.534C814.2 413.481 832.746 378.493 899.117 371.17C933.279 367.508 1082.61 357.337 1135.32 614.463C1149.47 681.999 1236.83 677.523 1240.25 687.288C1265.62 753.197 1286.61 913.087 1230 935.871C1156.79 965.163 1053.82 971.266 1053.82 1085.59C1053.82 1177.13 1163.14 1177.13 1204.13 1199.91C1233.9 1216.59 1221.21 1376.89 1212.92 1389.5C1193.4 1420.02 545.788 1398.45 543.836 1360.21C537.979 1247.11 500.889 1095.35 538.955 1046.94C560.916 1018.87 627.776 1034.73 674.138 967.604C708.3 917.969 706.836 836.193 653.641 721.87Z" fill="#E6E1E1" stroke="black" stroke-width="20" stroke-miterlimit="10"/>
<path d="M761.491 1149.87C741.97 1147.43 720.009 1145.4 703.416 1147.02C685.359 1149.06 680.479 1155.16 677.551 1160.45C664.862 1184.05 660.47 1208.86 664.374 1233.68C665.35 1239.38 666.814 1245.07 676.575 1250.36C698.048 1262.57 748.802 1268.67 793.212 1273.15C863 1280.47 951.332 1286.57 982.566 1271.92C993.791 1266.64 994.767 1260.13 994.767 1253.62C995.255 1234.9 991.35 1215.78 982.566 1196.66C980.126 1190.96 976.71 1184.86 963.533 1179.57C950.356 1174.28 815.174 1155.57 761.979 1149.47L761.491 1149.87Z" fill="white" stroke="black" stroke-width="20" stroke-miterlimit="10"/>
<path d="M844.095 1219.14C845.263 1208.62 834.897 1199.23 820.941 1198.15C806.985 1197.07 794.724 1204.72 793.556 1215.24C792.388 1225.75 802.756 1235.15 816.712 1236.23C830.667 1237.31 842.927 1229.65 844.095 1219.14Z" fill="black"/>
</svg>
