<svg width="1760" height="1760" viewBox="0 0 1760 1760" fill="none" xmlns="http://www.w3.org/2000/svg">
<rect width="1760" height="1760" fill="white"/>
<path d="M729.13 624.434C699.901 624.1 670.272 624.434 642.244 630.776C614.216 637.118 586.989 649.468 570.172 669.496C547.349 696.533 546.949 732.249 545.347 765.295C543.746 798.341 538.541 834.724 509.712 857.756C493.296 870.774 470.874 877.783 451.655 887.797C416.82 905.822 389.993 936.865 386.39 970.912C382.786 1004.96 404.407 1041.34 442.045 1055.7C453.656 1060.04 466.469 1062.37 476.079 1069.72C489.292 1079.4 492.095 1095.42 494.097 1109.77C498.501 1141.48 502.505 1173.19 506.109 1205.24C506.909 1212.91 508.11 1220.92 514.517 1226.6C520.923 1232.27 530.933 1233.94 540.543 1234.94C558.961 1236.95 577.78 1238.95 596.198 1240.62C605.407 1241.29 614.616 1241.95 623.425 1239.62C649.05 1232.61 655.457 1205.24 657.859 1182.54C661.463 1152.83 667.069 1122.79 681.883 1095.42C696.698 1068.05 721.923 1043.68 755.156 1032.66C788.389 1021.65 830.431 1026.66 854.455 1049.02C879.279 1072.05 880.08 1106.1 881.681 1137.14C883.283 1168.18 888.889 1202.9 918.919 1221.26C941.341 1234.94 971.371 1235.28 1002.6 1235.61H1164.36C1198.8 1235.28 1235.63 1234.61 1264.06 1218.25C1303.3 1195.89 1312.91 1152.16 1319.72 1112.78C1342.94 975.585 1543.94 596.395 1366.56 611.749C1348.14 613.418 1250.45 634.114 1188.39 622.431C1148.75 615.087 1109.51 596.395 1091.09 566.02C1076.28 541.653 1076.28 512.946 1068.67 486.243C1061.06 459.539 1039.44 431.5 1007.01 429.164C979.779 427.161 955.355 443.851 938.939 462.209C920.52 482.571 906.907 506.27 899.7 530.971C891.692 558.676 890.09 590.053 865.666 610.08C840.441 631.109 800.801 626.103 729.531 625.101L729.13 624.434Z" fill="#8CFFD9" stroke="black" stroke-width="20" stroke-miterlimit="10"/>
<path d="M996.598 933.861C991.393 948.548 985.787 964.904 987.389 978.256C988.99 992.609 998.6 997.95 1007.41 1001.29C1044.65 1016.31 1083.88 1024.99 1124.73 1027.32C1133.53 1027.99 1143.14 1027.99 1152.75 1021.65C1173.97 1007.96 1187.99 969.911 1199.2 936.532C1216.42 884.46 1233.63 817.367 1212.41 789.996C1205.21 780.316 1193.99 777.979 1183.58 776.644C1153.55 772.305 1122.32 771.304 1090.69 773.974C1081.48 774.642 1071.47 775.976 1061.86 784.989C1052.25 794.001 1011.41 894.474 996.999 934.195L996.598 933.861Z" fill="white" stroke="black" stroke-width="20" stroke-miterlimit="10"/>
<path d="M1133.38 899.673C1137.82 883.31 1133.38 868.529 1123.46 866.658C1113.53 864.786 1101.89 876.533 1097.45 892.895C1093.01 909.257 1097.45 924.039 1107.37 925.91C1117.29 927.782 1128.94 916.035 1133.38 899.673Z" fill="black"/>
</svg>
