<svg width="1760" height="1760" viewBox="0 0 1760 1760" fill="none" xmlns="http://www.w3.org/2000/svg">
<g clip-path="url(#clip0_10_572)">
<path d="M1760 0H0V1760H1760V0Z" fill="white"/>
<path d="M821.663 411.931C689.417 440.134 701.719 621.44 609.893 647.446C591.44 652.573 553.655 660.631 541.353 673.085C531.687 682.608 527.732 695.061 524.218 707.148C480.282 849.262 436.346 991.743 392.41 1133.86C383.623 1162.79 374.836 1194.66 391.092 1221.4C409.545 1251.43 452.602 1263.89 492.145 1271.21C518.506 1275.97 545.307 1280 572.108 1282.93C588.804 1284.76 606.817 1286.23 622.195 1280.37C641.966 1273.41 654.268 1256.93 661.298 1240.08C685.902 1183.3 667.009 1115.54 705.673 1065C729.838 1033.13 779.485 1013.72 822.102 1026.54C854.176 1036.43 876.144 1062.43 883.613 1090.27C891.082 1118.11 885.37 1147.04 875.265 1174.51C866.478 1198.32 855.055 1226.16 872.629 1245.94C880.977 1255.09 894.158 1260.22 906.899 1264.62C938.093 1274.87 970.606 1282.2 1004 1286.23C1022.45 1288.43 1042.66 1289.16 1057.16 1279.64C1071.66 1270.11 1075.17 1253.63 1077.81 1238.25C1087.04 1187.7 1095.82 1137.52 1105.05 1086.97C1107.69 1072.69 1114.72 1054.74 1132.29 1053.64C1145.03 1052.91 1154.7 1062.43 1163.92 1069.76C1201.27 1100.53 1264.1 1106.75 1309.79 1085.14C1355.48 1063.53 1380.97 1015.92 1369.98 973.063C1359 930.209 1313.31 895.413 1261.02 889.552C1230.71 886.256 1196.88 891.018 1172.71 876C1139.76 855.855 1129.21 822.524 1153.82 781.135C1170.51 752.932 1229.39 717.404 1185.89 683.706C1142.4 650.009 1112.08 699.456 1035.63 691.398C999.603 687.736 975.439 656.236 964.455 627.3C953.471 598.365 956.546 567.231 957.425 536.831C958.304 506.43 957.425 474.564 938.972 448.192C920.519 421.821 866.92 402.609 812 414.33L821.663 411.931Z" fill="#DAD4FF" stroke="black" stroke-width="20" stroke-miterlimit="10"/>
<path d="M525.315 943.001C521.8 955.821 512.791 991.378 514.109 1002.73C515.427 1014.82 522.457 1018.48 528.608 1020.68C554.53 1030.57 582.21 1035.33 610.329 1034.6C616.48 1034.6 623.07 1033.87 629.661 1028C644.159 1014.82 652.946 981.856 659.537 953.287C670.081 908.235 680.187 850.729 665.248 829.119C659.976 821.427 652.507 820.328 645.038 819.596C623.949 817.764 602.42 819.23 580.452 823.625C573.862 824.724 567.271 826.555 560.681 834.98C554.091 843.404 528.168 930.577 519.381 965.007L525.315 943.001Z" fill="white" stroke="black" stroke-width="20" stroke-miterlimit="10"/>
<path d="M613.507 926.73C616.193 912.543 612.737 900.301 605.786 899.386C598.835 898.472 591.023 909.231 588.336 923.418C585.65 937.605 589.108 949.847 596.059 950.762C603.009 951.676 610.821 940.917 613.507 926.73Z" fill="black"/>
</g>
<defs>
<clipPath id="clip0_10_572">
<rect width="1760" height="1760" fill="white"/>
</clipPath>
</defs>
</svg>
