<svg width="1760" height="1760" viewBox="0 0 1760 1760" fill="none" xmlns="http://www.w3.org/2000/svg">
<rect width="1760" height="1760" fill="white"/>
<path d="M534.994 597.26C488.159 611.231 464.526 654.932 451.635 695.051C446.909 709.38 443.042 724.783 448.198 738.753C456.362 760.245 483.432 772.783 509.643 778.514C535.854 784.246 563.783 784.603 589.135 792.484C655.306 813.977 683.235 890.633 644.993 940.424C606.751 990.215 515.228 1002.75 457.651 968.006C449.057 962.633 438.315 956.186 428.433 959.768C420.269 962.634 417.261 970.872 415.113 978.036C400.074 1029.26 385.035 1080.48 369.996 1131.71C366.129 1144.6 362.691 1158.93 371.714 1169.68C376.87 1176.13 385.894 1180.07 394.058 1183.29C442.182 1202.99 499.33 1218.04 548.314 1200.13C599.876 1181.5 625.228 1134.22 661.321 1098.39C685.813 1074.04 718.04 1053.62 754.992 1045.38C791.945 1037.14 834.483 1042.87 863.272 1064.01C895.069 1087.65 905.811 1125.98 901.944 1161.44C900.655 1173.62 898.507 1187.59 907.96 1196.9C913.116 1201.92 921.279 1204.78 928.584 1206.93C947.49 1213.02 966.826 1219.11 985.732 1224.84C1026.12 1237.74 1077.25 1248.84 1107.76 1223.41C1124.52 1209.44 1129.68 1188.66 1133.54 1168.96C1143 1121.32 1152.88 1073.68 1162.33 1026.04C1164.05 1017.08 1166.63 1007.41 1175.22 1001.68C1183.82 995.946 1195.85 996.304 1206.59 998.095C1246.98 1004.9 1284.36 1029.26 1325.61 1024.6C1372.88 1018.87 1401.24 976.604 1407.68 937.201C1416.27 883.111 1393.5 823.648 1340.65 791.409C1314.44 775.29 1282.64 766.693 1253.85 754.155C1225.07 741.618 1197.14 722.992 1188.97 696.842C1180.81 671.051 1191.98 639.887 1171.35 619.469C1136.98 585.798 1057.06 621.261 1022.25 587.947C1012.8 578.992 1009.36 566.813 1005.5 555.708C992.177 518.454 961.24 479.051 914.834 476.186C877.022 473.678 843.507 496.962 819.874 521.678C796.242 546.395 776.477 575.052 744.25 592.246C679.798 626.992 608.899 602.992 548.314 597.26L534.994 597.26Z" fill="#FFE0F6" stroke="black" stroke-width="20" stroke-miterlimit="10"/>
<path d="M823.314 793.201C814.721 812.186 806.127 835.469 820.736 851.947C830.189 862.335 846.087 866.633 861.126 869.499C880.462 873.081 900.657 874.872 919.563 870.932C938.469 866.992 956.946 856.962 964.68 841.917C973.273 825.798 968.977 807.171 962.961 790.335C952.219 759.171 935.462 728.365 907.102 706.156C904.095 703.649 900.657 701.499 896.79 700.066C887.766 697.559 877.454 701.858 871.868 708.306C866.282 714.753 832.767 770.634 822.884 792.484L823.314 793.201Z" fill="white" stroke="black" stroke-width="20" stroke-miterlimit="10"/>
<path d="M911.209 811.374C911.88 803.679 903.791 796.917 893.14 796.272C882.49 795.626 873.311 801.34 872.639 809.035C871.968 816.731 880.058 823.492 890.709 824.138C901.36 824.784 910.537 819.069 911.209 811.374Z" fill="#030005"/>
</svg>
