<svg width="1760" height="1760" viewBox="0 0 1760 1760" fill="none" xmlns="http://www.w3.org/2000/svg">
<rect width="1760" height="1760" fill="white"/>
<path d="M817.706 439.412C777.286 461.989 713.422 498.718 665.726 507.142C618.03 515.566 565.485 511.86 524.66 489.62C513.747 483.892 503.238 476.478 490.708 474.456C457.159 469.402 434.119 501.077 421.993 527.36C404.612 565.1 387.232 603.514 381.977 643.613C376.723 683.712 376.723 748.409 405.421 781.095C447.862 828.607 535.978 824.9 574.377 874.771C603.883 912.848 603.479 962.382 590.141 1006.52C584.078 1027.08 574.781 1047.97 555.784 1061.79C525.873 1084.03 478.581 1083.02 442.608 1068.53C428.46 1062.8 411.888 1055.38 398.954 1062.46C390.061 1067.52 387.636 1077.62 386.019 1086.38C377.127 1136.59 368.639 1186.46 359.746 1236.67C357.725 1248.13 356.108 1260.26 362.98 1270.03C368.234 1277.44 377.935 1281.82 387.232 1285.87C444.224 1309.79 508.088 1322.6 571.952 1322.93C602.671 1322.93 635.815 1319.57 657.642 1301.71C686.745 1277.78 683.915 1238.69 695.233 1205.67C704.934 1177.37 725.952 1152.09 754.651 1134.91C785.37 1116.37 832.661 1109.64 858.53 1132.55C881.165 1152.77 876.315 1184.44 871.06 1211.74C865.806 1239.03 863.785 1271.72 889.654 1289.24C899.759 1295.98 912.289 1299.35 924.415 1302.38C980.599 1316.87 1048.91 1329 1092.16 1295.98C1128.94 1268.01 1128.94 1220.83 1129.34 1179.39C1129.75 1127.83 1134.6 1075.94 1143.49 1025.06C1147.13 1004.84 1151.17 984.284 1162.89 966.088C1174.62 947.892 1194.02 932.392 1218.27 929.359C1264.35 922.957 1312.04 960.697 1354.08 943.512C1388.44 929.696 1406.22 861.63 1407.84 829.955C1413.5 721.789 1336.3 742.68 1310.02 714.712C1262.73 664.842 1269.6 621.71 1258.29 558.697C1246.97 495.685 1166.94 470.75 1113.18 485.913C818.11 568.133 832.661 429.64 817.301 438.401L817.706 439.412Z" fill="#B0FCA4" stroke="black" stroke-width="20" stroke-miterlimit="10"/>
<path d="M984.238 832.986C1008.49 811.757 1035.17 784.8 1032.34 757.506C1030.32 739.984 1016.57 727.853 1002.43 717.744C984.238 705.276 964.028 694.493 940.584 691.798C917.141 689.102 889.655 694.493 869.445 711.004C848.023 728.527 837.918 754.473 831.45 778.735C818.92 823.888 812.857 870.726 826.6 911.499C828.217 915.879 829.833 920.26 833.067 923.63C840.747 930.706 855.298 929.358 866.212 922.955C877.125 916.553 956.348 857.922 984.642 832.986H984.238Z" fill="white" stroke="black" stroke-width="20" stroke-miterlimit="10"/>
<path d="M943.042 791.027C949.681 781.328 946.104 769.205 935.052 763.947C924 758.69 909.66 762.29 903.021 771.988C896.383 781.687 899.961 793.81 911.013 799.068C922.065 804.325 936.404 800.725 943.042 791.027Z" fill="#030005"/>
</svg>
