<svg width="1760" height="1760" viewBox="0 0 1760 1760" fill="none" xmlns="http://www.w3.org/2000/svg">
<rect width="1760" height="1760" fill="white"/>
<path d="M1085.82 532.651C1108.48 439.569 992.704 481.817 933.374 480.099C903.297 479.069 872.397 483.534 843.968 492.121C777.222 512.386 747.144 574.899 707.179 623.673C695.231 638.443 681.634 652.525 673.806 669.012C668.038 681.377 665.978 694.774 663.918 708.169C659.386 735.991 655.266 763.812 650.733 791.634C647.437 812.243 644.142 833.195 633.017 851.399C621.893 869.603 601.703 885.747 576.983 888.151C543.198 891.243 510.237 868.573 476.864 874.069C437.31 880.595 422.478 920.438 414.65 953.412C406.41 988.79 398.169 1024.51 390.341 1059.89C384.16 1087.71 377.981 1118.28 395.285 1143.01C410.942 1165 443.903 1167.74 473.98 1172.21C511.061 1177.36 530.426 1201.75 579.043 1161.22C604.176 1140.26 618.596 1113.13 639.197 1089.09C663.094 1061.26 703.471 1039.28 744.26 1039.28C901.649 1039.28 839.024 1134.43 839.024 1168.77C839.024 1194.53 879.401 1215.14 943.263 1219.61C974.988 1222.01 1036.38 1216.86 1044.62 1213.77C1108.07 1190.07 1069.34 1111.07 1075.11 1077.06C1080.05 1045.46 1096.53 1020.39 1131.14 1007.34C1188.82 985.699 1271.64 997.721 1303.36 992.912C1351.16 985.699 1377.94 943.451 1393.59 904.982C1411.72 860.329 1424.5 812.929 1414.61 766.56C1404.72 720.19 1367.23 675.882 1312.84 663.173C1281.94 655.96 1248.98 659.738 1216.84 660.082C1184.7 660.425 1150.09 657.334 1126.2 639.13C1091.59 613.025 1076.76 567.686 1085.41 531.965L1085.82 532.651Z" fill="#9DC0EB" stroke="black" stroke-width="20" stroke-miterlimit="10"/>
<path d="M811.42 823C801.531 784.53 826.664 749.043 864.981 725.687C874.458 720.191 884.346 715.039 895.883 712.978C917.307 708.857 939.968 714.352 958.508 723.97C991.469 741.144 1013.72 771.37 1017.84 803.313C1017.84 806.748 1018.25 810.526 1015.37 812.931C1013.31 814.648 1010.83 814.992 1007.95 815.679C957.273 826.327 906.183 834.226 854.681 839.722C838.613 841.439 815.127 842.126 811.419 828.044L811.42 823Z" fill="white" stroke="black" stroke-width="20" stroke-miterlimit="10"/>
<path d="M913.19 790.26C921.609 790.26 928.434 784.109 928.434 776.521C928.434 768.933 921.609 762.782 913.19 762.782C904.77 762.782 897.945 768.933 897.945 776.521C897.945 784.109 904.77 790.26 913.19 790.26Z" fill="black"/>
</svg>
