<svg width="1760" height="1760" viewBox="0 0 1760 1760" fill="none" xmlns="http://www.w3.org/2000/svg">
<rect width="1760" height="1760" fill="white"/>
<path d="M887.382 634.837C865.156 589.39 880.252 537.3 876.478 488.357C875.64 476.82 874.8 464.584 868.091 454.446C849.639 426.129 801.415 426.828 762.834 431.372C740.189 434.169 715.866 437.665 700.35 451.3C688.608 461.438 683.996 475.771 679.802 489.405C664.286 540.097 648.351 590.438 632.835 641.13C629.061 653.715 624.867 666.651 627.383 679.236C632.835 708.253 667.222 726.431 682.738 752.651C697.415 777.822 693.641 807.188 689.448 834.806C684.835 864.522 680.221 894.237 675.608 923.953C670.576 955.416 663.867 989.677 635.351 1010.3C601.383 1034.42 551.48 1030.23 506.61 1030.58C457.965 1030.58 404.288 1040.37 375.352 1072.88C351.449 1099.8 349.772 1135.81 353.546 1169.02C355.224 1186.15 358.579 1203.63 370.74 1217.61C384.579 1233.7 407.643 1242.08 429.869 1249.43C468.449 1262.71 507.867 1276 549.383 1278.44C590.899 1280.89 635.77 1271.1 663.028 1244.88C681.06 1227.05 689.448 1203.98 702.448 1183.35C727.609 1143.5 781.704 1110.29 832.446 1124.27C865.574 1133.36 887.8 1159.58 902.058 1186.15C916.316 1212.72 925.123 1241.39 943.993 1265.86C965.8 1293.82 1001.44 1314.8 1041.28 1318.65C1081.12 1322.49 1123.48 1306.76 1143.19 1277.74C1162.48 1249.43 1158.28 1214.12 1145.28 1183.35C1132.28 1152.59 1111.31 1124.97 1097.48 1094.56C1083.64 1064.49 1076.93 1030.93 1088.25 1000.51C1099.57 970.099 1132.7 943.531 1170.86 942.132C1217.41 940.734 1261.44 974.644 1306.73 964.856C1329.8 959.961 1347.83 943.88 1358.31 925.701C1368.8 907.522 1372.15 887.595 1375.93 867.668C1385.15 816.627 1391.44 757.545 1348.25 720.838C1332.73 707.553 1312.18 698.813 1292.47 690.423C1267.73 679.935 1242.57 669.447 1217.83 659.309C1198.12 650.919 1176.73 642.529 1154.93 645.325C1127.25 648.821 1112.57 676.439 1085.32 682.033C1049.25 689.374 910.446 682.033 887.382 634.837Z" fill="#FF6640" stroke="black" stroke-width="20" stroke-miterlimit="10"/>
<path d="M776.671 898.782C766.606 859.627 792.606 818.026 831.606 794.253C841.251 788.66 851.315 783.416 863.057 781.318C884.864 777.123 907.927 782.717 926.798 792.506C960.346 809.986 982.992 840.75 987.185 873.262C987.185 876.758 987.604 880.604 984.669 883.051C982.572 884.799 980.056 885.148 977.121 885.847C925.541 896.685 873.541 904.726 821.122 910.319C804.767 912.067 780.445 913.115 776.671 898.782Z" fill="white" stroke="black" stroke-width="20" stroke-miterlimit="10"/>
<path d="M880.672 859.629C889.241 859.629 896.188 853.368 896.188 845.645C896.188 837.922 889.241 831.662 880.672 831.662C872.103 831.662 865.156 837.922 865.156 845.645C865.156 853.368 872.103 859.629 880.672 859.629Z" fill="black"/>
</svg>
