<svg width="1760" height="1760" viewBox="0 0 1760 1760" fill="none" xmlns="http://www.w3.org/2000/svg">
<rect width="1760" height="1760" fill="white"/>
<path d="M1014.79 669.16L999.229 509.086C997.896 494.635 996.119 479.813 988.562 466.844C974.784 443.871 943.226 431.643 912.557 429.419C881.888 427.196 851.664 434.237 821.884 440.536C805.883 444.241 788.548 447.947 776.548 457.581C765.436 466.474 759.658 479.072 754.324 491.3C729.878 546.881 704.987 602.462 680.54 657.673C670.762 679.905 660.539 702.509 659.65 726.223C658.761 748.456 665.427 770.688 667.205 792.92C669.428 819.599 664.538 846.278 660.094 872.957C655.649 897.783 651.205 922.981 640.093 946.325C635.204 957.441 628.537 968.186 617.869 975.968C590.312 997.83 546.308 993.754 509.417 986.714C472.525 979.673 430.745 972.263 398.742 989.308C360.962 1009.69 356.516 1054.15 361.85 1091.21C368.073 1133.82 382.297 1175.32 404.076 1214.23C414.299 1232.38 426.3 1250.54 445.857 1262.77C468.081 1276.85 496.972 1280.55 524.974 1282.03C558.754 1283.89 593.867 1282.04 622.758 1267.21C671.65 1242.39 686.319 1189.77 720.988 1151.6C736.1 1134.93 755.212 1121.22 777.436 1110.85C812.105 1094.91 860.109 1090.46 887.222 1114.55C918.78 1142.71 902.334 1189.4 922.779 1224.23C935.669 1245.72 961.893 1260.17 989.451 1267.21C1017.01 1274.25 1046.34 1274.99 1075.23 1275.37C1117.46 1276.11 1166.35 1274.62 1191.69 1246.46C1211.25 1224.97 1209.47 1195.33 1210.36 1168.28C1211.24 1142.34 1215.69 1116.03 1223.69 1090.84C1226.36 1081.94 1230.36 1072.68 1238.36 1066.38C1253.91 1054.89 1277.92 1059.71 1297.92 1063.04C1345.48 1071.57 1404.59 1067.12 1430.37 1032.29C1440.6 1018.58 1443.71 1002.28 1444.6 986.343C1446.37 956.699 1440.15 927.056 1427.26 899.636C1414.37 872.957 1389.04 845.537 1354.37 846.278C1330.37 846.649 1307.7 861.471 1284.14 858.136C1254.8 854.06 1240.14 825.528 1239.69 800.701C1239.25 775.875 1248.58 751.049 1243.25 726.594C1241.91 721.406 1240.14 716.218 1235.69 712.513C1230.36 708.066 1221.91 706.955 1214.36 706.214C1177.46 702.508 1140.57 701.026 1103.24 701.767C1072.12 702.508 1018.34 703.99 1014.79 669.16Z" fill="#FF3B83" stroke="black" stroke-width="20" stroke-miterlimit="10"/>
<path d="M800.545 865.176C790.322 893.338 781.432 927.056 804.545 949.289C819.213 963.37 842.771 968.187 864.995 970.781C892.997 974.116 922.332 974.856 949 967.816C975.669 960.776 1001 944.471 1010.34 922.239C1020.56 898.524 1012.12 872.217 1001.45 848.873C981.893 805.149 954.335 762.536 910.776 733.263C905.887 729.928 900.997 726.964 895.219 725.853C881.885 722.888 867.661 730.299 860.55 739.933C853.438 749.567 812.546 832.198 800.545 864.806V865.176Z" fill="white" stroke="black" stroke-width="20" stroke-miterlimit="10"/>
<path d="M902.331 904.455C917.55 904.455 929.888 895.496 929.888 884.445C929.888 873.394 917.55 864.436 902.331 864.436C887.111 864.436 874.773 873.394 874.773 884.445C874.773 895.496 887.111 904.455 902.331 904.455Z" fill="#030005"/>
</svg>
