<svg width="1760" height="1760" viewBox="0 0 1760 1760" fill="none" xmlns="http://www.w3.org/2000/svg">
<rect width="1760" height="1760" fill="white"/>
<path d="M857.175 668.022C846.16 642.948 845.737 613.206 857.175 588.132C872.002 555.641 904.197 529.86 914.788 496.31C931.733 443.336 883.015 384.005 818.2 373.057C753.385 362.109 684.334 396.365 658.493 446.867C643.242 476.886 641.124 510.437 629.686 541.515C618.248 572.593 592.407 604.024 553.856 608.968C543.266 610.381 531.828 609.675 522.508 614.266C513.188 618.857 508.952 627.686 505.139 636.162C464.047 724.452 441.595 818.746 439.053 913.04C438.63 932.818 441.594 956.126 461.928 965.661C481.839 974.843 506.833 965.661 529.285 968.134C571.648 972.372 593.254 1012.63 601.727 1047.24C607.234 1070.2 611.045 1094.21 603.42 1116.81C595.795 1139.42 575.038 1160.25 547.502 1164.49C527.592 1167.32 507.257 1161.67 487.346 1164.14C458.54 1167.67 436.088 1187.8 425.497 1210.05C414.906 1232.3 414.059 1257.37 413.211 1281.39C412.364 1303.99 413.212 1329.06 432.275 1344.96C443.713 1354.49 459.81 1359.08 475.061 1362.26C519.965 1371.8 566.565 1374.97 612.74 1371.44C627.567 1370.38 642.394 1368.62 655.527 1362.61C702.973 1341.78 702.126 1286.33 722.884 1245.01C736.44 1217.82 762.281 1194.51 795.324 1183.91C828.367 1173.32 868.189 1177.21 895.301 1195.57C949.949 1233 940.206 1312.11 997.396 1347.07C1033.83 1369.32 1091.02 1362.26 1118.13 1332.24C1144.4 1302.93 1140.58 1262.67 1138.89 1226.29C1138.04 1201.57 1138.89 1176.85 1141.01 1152.13C1143.12 1128.47 1150.32 1100.92 1176.59 1091.03C1195.65 1083.97 1218.11 1089.27 1238.86 1090.33C1283.34 1092.09 1327.4 1069.14 1345.62 1035.59C1363.83 1002.04 1354.94 959.305 1324.01 932.817C1286.31 900.327 1222.34 891.85 1194.81 853.003C1164.73 810.977 1191.84 753.411 1165.15 709.972C1157.95 698.318 1145.24 687.37 1129.57 686.664C1113.05 685.958 1099.49 696.552 1086.36 704.675C1047.81 728.337 996.549 736.46 949.949 726.924C903.35 717.389 866.07 688.783 856.327 666.181L857.175 668.022Z" fill="#B7ABFF" stroke="black" stroke-width="20" stroke-miterlimit="10"/>
<path d="M725.851 454.99C692.384 470.176 693.231 513.261 713.566 539.395C716.955 543.633 720.768 547.519 725.851 550.344C732.206 554.229 740.254 555.994 748.303 557.053C777.11 560.938 809.306 554.935 829.217 537.63C849.127 520.325 854.21 492.425 837.688 473.354C827.521 461.7 810.576 454.284 792.784 451.105C774.991 447.927 753.811 442.629 725.851 454.99Z" fill="white" stroke="black" stroke-width="20" stroke-miterlimit="10"/>
<path d="M809.73 549.285C817.684 549.285 824.133 544.225 824.133 537.984C824.133 531.743 817.684 526.683 809.73 526.683C801.775 526.683 795.325 531.743 795.325 537.984C795.325 544.225 801.775 549.285 809.73 549.285Z" fill="black"/>
</svg>
