<svg width="1760" height="1760" viewBox="0 0 1760 1760" fill="none" xmlns="http://www.w3.org/2000/svg">
<rect width="1760" height="1760" fill="white"/>
<path d="M585.973 634.36C568.246 627.405 550.519 620.016 530.707 618.277C510.895 616.539 490.039 621.32 478.047 634.36C468.141 645.661 466.578 660.438 466.057 673.912C463.45 716.508 461.363 762.146 488.996 798.222C512.458 828.647 552.605 846.034 586.495 868.201C625.076 893.41 658.444 927.312 667.307 967.734C676.171 1008.16 654.274 1054.23 609.435 1070.75C565.118 1087.26 508.81 1072.49 467.621 1093.78C422.261 1117.25 418.089 1169.85 419.132 1214.18C420.175 1250.26 420.697 1286.33 421.74 1322.41C421.74 1335.45 422.782 1348.92 431.124 1359.79C441.03 1372.39 459.278 1378.48 476.483 1383.26C527.057 1397.17 579.194 1405.86 632.374 1409.34C671.999 1411.95 716.838 1409.34 742.385 1384.13C756.463 1370.22 761.676 1351.53 766.368 1333.71C777.838 1289.37 788.267 1243.3 817.464 1205.05C846.661 1166.8 899.32 1136.81 953.022 1143.77C1020.28 1152.46 1060.42 1211.57 1076.07 1266.77C1085.45 1299.37 1091.19 1335.45 1119.34 1359.35C1153.23 1387.61 1206.41 1388.91 1254.38 1388.48C1271.58 1388.48 1291.39 1387.17 1301.3 1375.44C1307.56 1368.05 1308.6 1358.48 1309.12 1349.36C1313.81 1260.69 1312.77 1171.59 1305.99 1082.92C1304.43 1064.66 1302.86 1045.54 1290.87 1029.89C1279.92 1015.98 1262.2 1006.42 1247.08 995.988C1213.19 972.517 1188.68 940.352 1178.25 904.711C1170.96 879.936 1172.52 849.076 1197.55 834.298C1213.71 824.736 1235.08 824.735 1253.33 818.215C1278.36 809.088 1295.04 788.66 1302.86 766.493C1310.68 744.326 1310.68 721.724 1310.16 698.688C1310.16 682.171 1310.16 665.22 1302.86 650.007C1295.57 634.794 1280.97 620.45 1261.15 618.277C1245.51 616.104 1230.39 621.32 1215.79 625.666C1161.57 640.444 1101.09 639.575 1047.39 623.493C1031.23 618.712 1015.59 612.192 1004.64 601.326C994.731 590.894 990.039 577.421 986.911 564.381C974.919 516.135 973.354 465.281 946.764 421.381C920.174 377.482 858.13 342.71 803.385 360.965C758.026 376.613 737.693 421.816 736.129 462.673C734.565 503.53 746.556 544.387 741.863 585.244C738.735 610.888 725.701 639.141 696.504 647.834C667.307 656.961 629.246 652.18 585.451 634.794L585.973 634.36Z" fill="#8CFFD9" stroke="black" stroke-width="20" stroke-miterlimit="10"/>
<path d="M707.977 1191.14C707.977 1182.02 707.977 1172.02 701.721 1165.06C694.943 1157.68 682.951 1156.81 672.524 1156.37C628.207 1155.94 583.368 1158.98 539.572 1165.93C529.666 1167.67 519.76 1169.41 511.939 1174.63C494.734 1186.36 493.692 1210.27 493.692 1230.7C494.214 1262.86 500.47 1302.85 532.796 1313.28C544.266 1317.19 556.257 1315.89 568.249 1314.58C601.617 1311.11 634.463 1305.02 667.31 1297.2C676.695 1295.02 687.123 1291.98 693.9 1285.46C700.678 1278.94 707.456 1215.48 707.977 1190.71V1191.14Z" fill="white" stroke="black" stroke-width="20" stroke-miterlimit="10"/>
<path d="M599.774 1252.7C610.941 1251.7 618.977 1242.97 617.724 1233.18C616.472 1223.39 606.405 1216.26 595.238 1217.26C584.072 1218.25 576.034 1226.99 577.286 1236.78C578.539 1246.56 588.607 1253.69 599.774 1252.7Z" fill="black"/>
</svg>
