<svg width="1760" height="1760" viewBox="0 0 1760 1760" fill="none" xmlns="http://www.w3.org/2000/svg">
<g clip-path="url(#clip0_10_111)">
<path d="M1760 0H0V1760H1760V0Z" fill="white"/>
<path d="M401.509 1050C394.946 1123.14 428.701 1219.72 490.585 1224.87C545.437 1229.56 586.225 1185.49 621.855 1143.29C657.486 1101.1 717.496 1057.03 769.535 1073.44C798.602 1082.35 818.761 1108.6 832.357 1135.32C849.703 1170.02 859.08 1208.46 880.177 1240.81C901.274 1273.16 935.498 1294.73 975.816 1282.07C1064.42 1253.94 1065.36 1071.56 1148.34 1054.22C1196.63 1043.9 1217.26 1118.45 1235.54 1140.01C1253.83 1161.58 1280.55 1177.52 1307.74 1173.77C1354.62 1167.67 1376.66 1112.35 1381.82 1065.47C1386.97 1016.71 1385.1 967.482 1375.72 919.192C1352.28 800.577 1284.77 695.558 1210.7 600.385C1204.13 591.946 1196.63 583.038 1186.32 579.287C1163.81 571.786 1143.19 592.884 1124.43 607.886C973.941 729.314 964.096 556.783 908.306 532.873C807.509 489.74 771.879 617.732 708.588 620.545C679.521 621.951 628.888 596.165 599.821 592.415C553.407 586.32 481.209 613.981 441.359 648.206C321.81 751.35 404.322 1011.59 401.509 1043L401.509 1050Z" fill="#DEB0FF" stroke="black" stroke-width="20" stroke-miterlimit="10"/>
<path d="M800.946 728.846C724.997 772.448 726.404 896.22 773.286 969.827C780.787 981.548 789.695 992.8 800.946 1001.24C815.48 1012.02 833.764 1017.18 851.579 1020.46C917.214 1032.18 989.882 1013.9 1035.36 965.139C1080.83 916.38 1092.55 836.209 1054.58 781.356C1031.14 747.6 992.694 726.502 952.844 717.125C912.994 707.749 864.237 692.746 800.946 728.846Z" fill="white" stroke="black" stroke-width="20" stroke-miterlimit="10"/>
<path d="M912.992 911.224C930.858 911.224 945.341 896.741 945.341 878.874C945.341 861.008 930.858 846.525 912.992 846.525C895.127 846.525 880.645 861.008 880.645 878.874C880.645 896.741 895.127 911.224 912.992 911.224Z" fill="black"/>
</g>
<defs>
<clipPath id="clip0_10_111">
<rect width="1760" height="1760" fill="white"/>
</clipPath>
</defs>
</svg>
