<svg width="1760" height="1760" viewBox="0 0 1760 1760" fill="none" xmlns="http://www.w3.org/2000/svg">
<rect width="1760" height="1760" fill="white"/>
<path d="M982.362 490.923C979.211 469.471 973.959 447.143 959.78 428.755C945.601 410.367 920.393 396.358 894.135 399.422C871.553 401.611 853.696 415.184 836.89 427.88C752.864 490.486 656.76 542.147 553.303 579.798C538.073 585.489 522.318 590.743 510.239 600.375C466.651 635.399 494.484 700.195 462.975 743.538C441.443 773.308 394.179 787.756 380 820.592C370.022 843.796 379.999 869.626 395.754 890.203C411.509 910.78 433.04 927.854 449.846 947.994C485.032 989.585 499.737 1041.25 503.413 1092.03C507.089 1142.82 501.312 1193.6 500.786 1244.83C500.786 1256.21 500.786 1267.59 507.088 1277.66C514.44 1289.04 527.045 1299.99 542.275 1301.3C619.999 1307.43 686.17 1334.14 703.5 1329.32C739.211 1320.13 759.168 1287.73 764.419 1257.08C769.671 1226.44 764.943 1194.92 769.67 1164.27C774.396 1131.87 790.677 1100.35 817.985 1077.15C845.294 1053.94 885.206 1040.37 924.068 1043.43C980.26 1048.25 1024.9 1086.78 1048.53 1129.68C1072.16 1172.59 1077.94 1220.31 1088.97 1266.28C1094.22 1288.61 1101.57 1311.81 1121.53 1327.13C1144.11 1344.64 1290.11 1383.17 1335.8 1345.08C1422.45 1272.84 1385.69 1165.58 1345.25 1106.04C1329.49 1083.27 1307.44 1064.01 1293.26 1040.81C1274.35 1009.29 1268.05 955.874 1297.98 937.924C1322.14 923.476 1384.11 940.112 1407.74 888.451C1426.12 849.049 1411.94 810.084 1410.37 768.055C1406.69 687.498 1299.56 662.981 1212.91 709.389C1181.4 726.463 1138.86 726.901 1103.15 717.707C1073.74 709.827 1050.11 691.001 1030.68 671.3C989.188 628.833 994.965 574.545 981.836 491.799L982.362 490.923Z" fill="#424242" stroke="black" stroke-width="20" stroke-miterlimit="10"/>
<path d="M705.081 800.45C691.426 822.778 678.297 849.923 693.527 871.375C703.505 884.947 721.885 891.952 740.266 896.768C763.373 902.897 787.531 907.275 811.163 904.648C834.795 902.021 858.428 891.514 870.507 874.002C883.111 855.177 880.484 832.41 876.283 811.395C867.88 772.43 852.125 733.466 820.616 703.258C817.465 700.193 813.263 696.69 809.062 694.939C798.559 690.999 785.431 694.939 777.553 702.382C769.676 709.824 721.36 774.182 705.605 800.013L705.081 800.45Z" fill="white" stroke="black" stroke-width="20" stroke-miterlimit="10"/>
<path d="M811.092 833.199C813.034 823.909 804.187 814.864 791.329 812.996C778.471 811.127 766.473 817.142 764.53 826.432C762.587 835.721 771.436 844.768 784.293 846.637C797.151 848.506 809.149 842.489 811.092 833.199Z" fill="#030005"/>
</svg>
