<svg width="1760" height="1760" viewBox="0 0 1760 1760" fill="none" xmlns="http://www.w3.org/2000/svg">
<g clip-path="url(#clip0_10_584)">
<path d="M1760 0H0V1760H1760V0Z" fill="white"/>
<path d="M889.204 439.884C815.989 439.505 785.975 523.287 776.88 583.945C767.785 644.602 768.24 710.945 721.856 757.954C687.749 792.453 630.905 810.271 578.154 802.689C551.324 798.898 515.853 792.075 502.665 811.788C495.844 822.403 501.301 836.43 497.208 848.182C469.014 926.657 407.622 886.472 380.337 921.729C353.961 955.469 389.432 997.93 413.079 1033.19C448.549 1087.02 456.734 1152.99 434.906 1211.37C427.63 1230.7 418.08 1254.21 433.542 1269.75C444.911 1281.12 464.465 1282.64 481.745 1283.78C525.856 1286.05 569.967 1288.33 614.078 1290.6C678.653 1294.01 754.142 1293.26 793.706 1250.42C829.631 1211.75 818.262 1156.78 817.352 1107.87C816.443 1058.97 843.728 997.929 902.391 995.654C941.499 994.138 975.151 1021.81 986.52 1052.9C997.889 1083.99 992.432 1117.35 986.52 1149.57C979.244 1188.62 975.151 1237.15 1014.71 1259.14C1028.81 1266.72 1045.64 1269.75 1062.46 1271.65C1108.39 1277.71 1154.78 1282.26 1200.71 1284.91C1233.91 1286.81 1271.2 1286.43 1295.75 1267.48C1318.94 1249.28 1323.04 1220.47 1325.77 1193.93C1342.59 1019.92 1401.25 655.596 1386.7 644.222C1376.7 636.64 1200.25 656.354 1110.21 646.118C1038.36 637.778 961.964 623.371 953.324 563.472C950.141 540.726 956.962 517.601 953.324 494.854C949.686 472.108 936.382 440.268 895 439.888L889.204 439.884Z" fill="#FF82C1" stroke="black" stroke-width="20" stroke-miterlimit="10"/>
<path d="M971.515 879.65C983.339 880.787 996.981 881.925 1006.99 878.892C1017.9 875.859 1021.08 869.035 1022.45 862.969C1029.72 837.569 1031.54 811.79 1028.36 786.01C1027.45 780.324 1026.54 774.258 1020.63 769.329C1007.44 758.335 976.063 754.924 948.777 753.028C906.031 749.995 851.915 749.237 833.27 766.297C826.904 772.363 826.449 779.566 826.449 786.39C826.449 805.724 829.633 825.438 835.545 844.773C837.364 850.459 839.637 856.525 847.823 861.074C856.008 865.623 938.773 876.617 971.515 879.65Z" fill="white" stroke="black" stroke-width="20" stroke-miterlimit="10"/>
<path d="M950.473 814.104C950.907 803.013 944.341 793.834 935.806 793.602C927.272 793.369 920.001 802.172 919.567 813.263C919.132 824.354 925.699 833.533 934.233 833.765C942.768 833.998 950.039 825.195 950.473 814.104Z" fill="black"/>
</g>
<defs>
<clipPath id="clip0_10_584">
<rect width="1760" height="1760" fill="white"/>
</clipPath>
</defs>
</svg>
