<svg width="1760" height="1760" viewBox="0 0 1760 1760" fill="none" xmlns="http://www.w3.org/2000/svg">
<rect width="1760" height="1760" fill="white"/>
<path d="M433.916 755.346C405.208 770.698 370 1055.62 370 1202.38C370 1213.67 370 1225.86 377.042 1235.79C390.583 1255.21 421.457 1258.82 448.539 1260.18C686.322 1271.46 924.647 1282.75 1162.43 1294.49C1192.22 1295.85 1224.72 1296.75 1248.01 1281.85C1267.51 1269.66 1276.72 1248.89 1284.84 1229.47C1329.8 1119.29 1365.01 1005.95 1391 891.712C1396.96 865.523 1401.84 836.624 1386.13 813.595C1356.34 769.795 1281.05 778.826 1220.39 776.116C977.728 766.182 1040.02 699.805 1050.31 681.291C1073.06 640.652 1095.27 585.112 1088.22 540.408C1081.18 495.705 1041.64 465 971.77 465C918.689 465 876.44 504.284 859.107 545.827C841.774 587.369 834.734 631.621 829.317 675.873C813.068 814.046 449.081 747.217 432.831 755.797L433.916 755.346Z" fill="#FF6640" stroke="black" stroke-width="20" stroke-miterlimit="10"/>
<path d="M802.779 951.768C790.321 975.249 778.404 1004.15 795.195 1025.37C806.028 1038.92 826.07 1045.24 845.027 1049.75C868.86 1055.17 894.316 1058.33 918.691 1054.72C943.065 1051.11 966.897 1038.92 977.73 1020.4C989.646 1000.54 985.313 977.055 979.355 955.38C967.98 915.644 949.565 875.908 915.441 846.557C911.649 843.396 907.859 840.236 902.984 838.43C891.609 834.817 878.608 839.784 871.025 847.46C863.442 855.137 817.403 923.772 802.779 951.316V951.768Z" fill="white" stroke="black" stroke-width="20" stroke-miterlimit="10"/>
<path d="M913.437 979.968C914.843 970.313 905.148 961.391 891.785 960.039C878.421 958.687 866.45 965.417 865.044 975.072C863.639 984.727 873.331 993.651 886.695 995.003C900.058 996.355 912.031 989.623 913.437 979.968Z" fill="#030005"/>
</svg>
