<svg width="1760" height="1760" viewBox="0 0 1760 1760" fill="none" xmlns="http://www.w3.org/2000/svg">
<rect width="1760" height="1760" fill="white"/>
<path d="M528.091 444.058C484.53 444.058 486.125 581.79 482.406 614.119C460.625 790.38 423.439 902.426 361.285 1071.6C357.566 1081.34 354.378 1091.97 360.221 1100.39C364.471 1106.14 371.909 1109.69 378.815 1112.34C439.907 1137.59 584.402 1116.77 653.994 1145.56C822.395 1215.09 691.712 1423.68 888.268 1423.68C971.672 1423.68 977.516 1383.38 1016.3 1314.73C1099.7 1165.49 1292.54 1310.31 1339.29 1200.48C1344.07 1188.96 1347.25 1111.9 1347.79 1099.5C1349.38 1038.39 1347.25 968.855 1293.07 927.226C1262.79 903.754 1220.82 894.453 1182.57 881.167C1144.32 867.881 1105.01 847.953 1092.26 815.18C1077.92 778.865 1102.89 738.121 1139.54 715.092C1176.2 692.063 1222.95 683.206 1267.57 676.12C1289.88 672.577 1314.32 668.149 1327.6 653.092C1334.51 645.12 1337.16 634.934 1339.82 625.191C1356.29 559.646 1372.75 494.544 1389.22 429C1152.82 447.6 746.428 443.172 529.153 443.172L528.091 444.058Z" fill="#B0FCA4" stroke="black" stroke-width="20" stroke-miterlimit="10"/>
<path d="M649.213 784.179C641.776 794.365 634.338 806.323 635.401 817.394C636.463 829.352 646.558 835.994 656.651 841.308C698.619 863.452 743.242 881.166 790.522 894.01C801.147 896.667 811.771 899.324 823.458 897.11C848.957 891.795 868.082 865.223 883.488 841.308C907.393 804.107 932.361 754.95 910.05 727.049C902.081 717.306 889.863 712.434 877.645 708.448C843.115 696.49 806.99 687.191 770.335 680.99C759.179 679.219 747.492 677.448 735.805 681.876C724.118 686.305 668.869 755.835 649.213 783.736V784.179Z" fill="white" stroke="black" stroke-width="20" stroke-miterlimit="10"/>
<path d="M810.019 794.099C816.346 782.258 812.133 769.189 800.609 764.91C789.085 760.631 774.614 766.761 768.286 778.602C761.959 790.444 766.172 803.513 777.696 807.792C789.221 812.071 803.692 805.941 810.019 794.099Z" fill="black"/>
</svg>
