<svg width="1760" height="1760" viewBox="0 0 1760 1760" fill="none" xmlns="http://www.w3.org/2000/svg">
<g clip-path="url(#clip0_10_578)">
<path d="M1760 0H0V1760H1760V0Z" fill="white"/>
<path d="M582 683L566.235 752.704C563.397 766.603 559.494 781.39 547.079 790.557C533.244 800.612 398.802 802.386 391.353 872.472C384.258 936.94 486.066 946.995 526.86 970.358C560.914 990.171 561.269 1022.7 563.397 1057.3C565.88 1094.26 566.944 1169.38 575.812 1177.96C631.859 1231.19 1132.39 1208.41 1153.31 1200.73C1182.4 1190.08 1194.46 1161.69 1200.49 1135.96C1206.52 1110.23 1211.84 1081.84 1235.26 1064.1C1262.22 1043.4 1303.36 1044.58 1339.9 1042.51C1376.44 1040.44 1419.72 1029.21 1428.94 999.634C1447.03 941.376 1340.26 941.967 1332.1 910.621C1317.91 855.025 1408.72 860.939 1412.27 807.709C1415.46 761.576 1323.59 748.269 1296.27 745.903C1284.56 745.016 1272.5 744.424 1262.22 739.989C1220 721.358 1240.22 653.933 1195.53 640.034C1188.43 637.668 1180.63 637.372 1172.82 637.372C990.493 633.232 808.161 665.466 589.647 642.695L582 683Z" fill="#B7ABFF" stroke="black" stroke-width="20" stroke-miterlimit="10"/>
<path d="M1002 872C940.278 793.929 825.187 845.564 801.42 908.849C762.045 1013.83 914.934 1024.77 969.562 1005.85C1041.93 981.005 1032 908.849 1006.46 876.615L1002 872Z" fill="white" stroke="black" stroke-width="20" stroke-miterlimit="10"/>
<path d="M901.459 950.246C913.998 950.246 924.161 942.832 924.161 933.686C924.161 924.54 913.998 917.125 901.459 917.125C888.921 917.125 878.756 924.54 878.756 933.686C878.756 942.832 888.921 950.246 901.459 950.246Z" fill="black"/>
</g>
<defs>
<clipPath id="clip0_10_578">
<rect width="1760" height="1760" fill="white"/>
</clipPath>
</defs>
</svg>
