<svg width="1760" height="1760" viewBox="0 0 1760 1760" fill="none" xmlns="http://www.w3.org/2000/svg">
<rect width="1760" height="1760" fill="white"/>
<path d="M953.05 374.062C920.15 376.348 889.991 403.775 882.68 430.44C875.369 457.105 880.853 484.914 881.31 512.341C881.767 539.768 878.568 563.766 857.092 584.337C804.544 635 613.086 598.05 513.93 611.764C541.346 720.329 559.167 724.519 568.306 732.138C580.643 742.423 598.92 745.851 616.284 748.137C737.373 764.136 736.003 779.754 747.427 785.849C772.101 799.562 776.67 825.084 766.617 844.893C747.426 881.843 658.78 878.415 664.721 947.745C669.747 1002.98 778.498 983.933 793.121 1042.98C799.975 1071.17 783.067 1100.88 753.366 1115.74C723.665 1130.59 687.568 1133.26 653.297 1136.69C619.027 1140.11 582.927 1146.21 556.425 1165.26C527.637 1186.21 516.215 1218.97 508.447 1250.2C504.334 1266.97 496.109 1308.49 498.394 1314.2C504.334 1329.44 528.095 1333.25 547.287 1333.63C686.653 1337.82 827.39 1328.3 964.929 1348.1C1056.77 1361.44 1259.2 1391.15 1269.71 1386.2C1288.9 1377.82 1311.75 1256.3 1312.66 1172.11C1314.03 1014.03 1312.66 855.94 1308.09 697.854C1308.09 684.14 1307.18 669.665 1298.5 657.856C1282.5 636.524 1247.77 632.715 1217.62 630.048C1171.47 625.858 1126.23 619.001 1081.45 609.478C1059.97 604.906 1036.67 598.05 1026.16 581.67C1019.3 570.623 1020.22 557.671 1022.5 545.481C1028.44 515.769 1043.07 486.818 1044.44 456.724C1045.81 426.631 1031.19 368.348 953.05 374.443V374.062Z" fill="#FF82C1" stroke="black" stroke-width="20" stroke-miterlimit="10"/>
<path d="M965.843 1054.41C964.472 1071.93 963.557 1091.36 968.127 1105.83C973.153 1121.45 983.205 1125.26 991.887 1127.55C1029.81 1136.31 1067.74 1137.83 1105.67 1131.73C1113.89 1130.59 1122.57 1128.69 1129.88 1119.55C1145.88 1099.74 1149.53 1054.41 1151.36 1014.79C1154.1 952.698 1153.19 874.607 1127.14 848.323C1118 839.181 1107.49 838.799 1097.44 839.561C1068.65 841.085 1040.32 846.418 1011.54 855.941C1003.31 858.608 994.172 862.417 987.775 874.226C981.378 886.035 968.584 1006.79 965.385 1054.41H965.843Z" fill="white" stroke="black" stroke-width="20" stroke-miterlimit="10"/>
<path d="M1114.8 947.364C1130.95 947.364 1144.05 937.301 1144.05 924.889C1144.05 912.476 1130.95 902.414 1114.8 902.414C1098.65 902.414 1085.56 912.476 1085.56 924.889C1085.56 937.301 1098.65 947.364 1114.8 947.364Z" fill="black"/>
</svg>
