<svg width="1760" height="1760" viewBox="0 0 1760 1760" fill="none" xmlns="http://www.w3.org/2000/svg">
<rect width="1760" height="1760" fill="white"/>
<path d="M715.654 650.707C699.383 615.144 729.727 566.017 697.623 539.254C680.912 525.322 654.086 526.055 631.657 519.456C610.108 512.857 593.397 498.925 574.487 487.927C555.577 476.928 531.39 468.863 510.28 475.462C499.726 478.761 490.93 485.361 483.453 492.693C428.482 545.486 433.32 623.577 437.278 693.235C448.712 876.545 435.079 1060.59 423.645 1243.9C421.446 1276.53 423.205 1315.76 456.188 1333.72C469.821 1341.05 486.532 1343.25 502.804 1343.99C586.361 1348.75 680.473 1320.52 713.896 1256.73C728.409 1229.23 730.168 1198.44 735.885 1168.74C742.921 1131.35 756.993 1093.22 787.338 1064.99C817.682 1036.76 866.058 1019.53 910.035 1030.16C947.856 1039.69 974.682 1066.82 1001.51 1091.02C1044.61 1129.51 1095.18 1163.98 1154.55 1181.94C1213.92 1199.9 1283.4 1199.54 1337.5 1172.41C1395.55 1143.45 1428.53 1086.25 1428.97 1029.79C1428.97 988.365 1413.58 948.403 1403.02 908.074C1387.63 850.148 1381.91 790.022 1386.31 730.63C1387.63 712.299 1389.39 692.135 1374.88 678.203C1358.61 662.439 1329.14 663.172 1304.51 667.572C1279.89 671.971 1254.38 679.303 1230.63 672.337C1196.77 662.438 1183.14 627.243 1186.65 597.547C1190.17 567.85 1205.56 539.621 1209.96 509.924C1214.36 480.228 1203.36 445.032 1170.38 432.934C1140.04 421.568 1102.66 436.233 1083.75 458.964C1064.84 481.694 1060.88 511.024 1060 538.887C1058.68 592.414 1065.72 652.906 1023.06 692.868C990.075 724.031 936.861 732.83 887.166 735.396C850.225 737.229 811.966 735.763 779.422 721.464C746.879 707.166 727.528 677.103 715.654 651.073V650.707Z" fill="#FFD58C" stroke="black" stroke-width="20" stroke-miterlimit="10"/>
<path d="M1318.15 974.435C1266.25 906.977 1165.55 947.672 1145.32 1002.3C1112.33 1092.85 1240.75 1102.39 1286.92 1086.26C1348.05 1064.62 1339.26 1002.3 1318.15 974.802V974.435Z" fill="white" stroke="black" stroke-width="20" stroke-miterlimit="10"/>
<path d="M1229.31 1038.23C1239.76 1038.23 1248.22 1031.82 1248.22 1023.93C1248.22 1016.03 1239.76 1009.63 1229.31 1009.63C1218.87 1009.63 1210.4 1016.03 1210.4 1023.93C1210.4 1031.82 1218.87 1038.23 1229.31 1038.23Z" fill="black"/>
</svg>
