<svg width="1760" height="1760" viewBox="0 0 1760 1760" fill="none" xmlns="http://www.w3.org/2000/svg">
<rect width="1760" height="1760" fill="white"/>
<path d="M973.715 371.355C927.014 376.856 904.68 425.522 898.081 464.454C891.482 503.386 898.08 543.164 894.527 582.52C890.974 621.875 872.191 663.769 830.567 682.812C783.359 704.394 724.984 689.16 672.192 680.697C662.04 679.004 650.873 677.734 641.228 681.12C619.401 688.737 617.877 713.705 621.431 733.171C632.598 801.302 657.979 867.74 661.024 936.718C664.07 1005.7 639.198 1080.6 571.686 1119.95C550.873 1132.22 527.015 1140.26 505.695 1151.69C465.593 1172.85 434.121 1205.86 422.954 1244.37C411.786 1282.88 424.477 1326.04 458.487 1353.54C497.066 1384.44 556.457 1391.21 608.234 1380.21C660.01 1369.2 705.187 1342.97 746.811 1315.46C793.004 1284.57 844.273 1248.17 903.664 1253.68C961.532 1258.75 1002.14 1301.5 1042.75 1336.2C1079.81 1367.51 1124.98 1395.44 1177.27 1402.63C1229.55 1409.83 1289.45 1391.21 1311.28 1350.58C1353.41 1273.14 1237.17 1192.32 1248.33 1107.68C1256.96 1041.66 1337.17 1000.62 1375.24 942.642C1390.47 919.367 1399.09 891.438 1387.93 866.471C1369.65 825.846 1309.75 811.88 1257.98 808.918C1206.2 805.956 1148.84 808.495 1108.23 781.412C1075.24 759.407 1061.02 722.591 1060.52 687.467C1060.01 652.343 1072.19 618.066 1082.34 583.789C1094.53 543.164 1105.7 501.693 1100.11 460.222C1094.53 418.751 1069.65 360.352 973.715 371.355Z" fill="#442FBD" stroke="black" stroke-width="20" stroke-miterlimit="10"/>
<path d="M887 909.5C889.03 890.88 890.977 868.584 903.16 852.927C915.343 837.269 940.216 826.267 963.566 832.192C1000.11 841.925 1003.67 881.28 1025.5 906.247C1049.86 934.177 1096.56 943.063 1130.57 964.222C1138.18 968.877 1145.29 974.379 1147.32 981.573C1151.89 995.537 1136.66 1007.39 1120.42 1013.31C1104.17 1019.24 1085.9 1022.62 1074.23 1032.78C1056.97 1048.01 1062.04 1071.29 1061.54 1092.02C1061.03 1112.76 1048.34 1137.72 1021.43 1136.88C987.931 1135.61 976.256 1095.41 943.768 1088.64C919.403 1083.56 898.591 1099.22 880.825 1112.33C863.058 1125.45 835.647 1136.88 815.342 1124.61C794.53 1111.91 803.159 1086.94 817.88 1070.86C832.601 1054.78 851.891 1038.7 847.83 1018.81C842.247 994.268 800.621 977.763 802.652 953.219C803.667 937.985 821.942 927.829 839.708 922.751C857.475 917.672 868 915 880 911.5L887 909.5Z" fill="white" stroke="black" stroke-width="20" stroke-miterlimit="10"/>
<path d="M995.378 1008.83C1001.04 994.388 992.02 978.975 975.232 974.4C958.444 969.826 940.245 977.823 934.584 992.263C928.922 1006.7 937.943 1022.12 954.73 1026.69C971.518 1031.26 989.717 1023.27 995.378 1008.83Z" fill="black"/>
</svg>
