<svg width="1760" height="1760" viewBox="0 0 1760 1760" fill="none" xmlns="http://www.w3.org/2000/svg">
<rect width="1760" height="1760" fill="white"/>
<path d="M697.424 665.516C664.872 663.254 611.071 648.178 578.971 652.701C549.584 656.847 529.691 680.968 522.005 705.09C507.085 750.319 521.1 799.317 506.181 844.546C483.123 913.52 396.77 961.387 387.728 1032.62C380.946 1087.65 423.445 1137.78 437.46 1191.68C449.667 1239.92 442.885 1297.21 486.288 1330C511.606 1349.22 549.583 1354.5 582.588 1347.34C615.592 1340.18 644.075 1321.71 665.776 1299.85C691.546 1273.09 711.44 1238.79 749.869 1226.73C788.751 1214.67 831.249 1230.12 869.226 1244.07C986.323 1286.66 1117.44 1315.3 1242.22 1291.93C1261.21 1288.54 1280.2 1283.64 1295.57 1273.47C1335.35 1247.46 1336.26 1197.71 1325.41 1156.25C1314.56 1114.79 1295.12 1072.95 1307.32 1032.25C1318.17 996.44 1351.18 968.549 1376.5 938.019C1401.81 907.49 1413.57 690.014 1385.09 679.084C1339.42 661.369 1222.78 659.485 1217.81 653.078C1212.83 646.67 1209.67 602.195 1206.05 525.683C1204.24 484.601 1180.28 419.773 1096.64 411.481C908.56 393.012 969.596 552.444 936.592 602.573C913.082 638.379 885.051 679.461 697.424 665.516Z" fill="url(#paint0_linear_74_17)" stroke="black" stroke-width="20" stroke-miterlimit="10"/>
<path d="M838.935 866.785C829.441 866.785 821.755 872.439 821.755 880.354C821.755 902.968 822.66 946.689 832.154 970.811C845.717 1004.36 874.652 1034.89 915.342 1045.06C929.81 1048.83 944.729 1049.58 959.648 1049.58C987.227 1049.21 1015.71 1044.31 1037.41 1030.36C1058.21 1017.17 1071.77 997.194 1079.01 976.464C1084.88 959.504 1088.5 902.214 1089.86 881.861C1089.86 877.715 1086.24 874.323 1080.82 873.946L838.935 866.785Z" fill="white" stroke="black" stroke-width="20" stroke-miterlimit="10"/>
<path d="M969.141 905.604C976.632 905.604 982.704 900.542 982.704 894.298C982.704 888.053 976.632 882.99 969.141 882.99C961.65 882.99 955.577 888.053 955.577 894.298C955.577 900.542 961.65 905.604 969.141 905.604Z" fill="black" stroke="black" stroke-width="20" stroke-miterlimit="10"/>
<defs>
<linearGradient id="paint0_linear_74_17" x1="470.464" y1="1185.65" x2="1271.38" y2="613.59" gradientUnits="userSpaceOnUse">
<stop stop-color="#FE82C0"/>
<stop offset="0.17" stop-color="#EABAA4"/>
<stop offset="0.29" stop-color="#DEDC92"/>
<stop offset="0.35" stop-color="#DAEA8C"/>
<stop offset="0.48" stop-color="#CBED7E"/>
<stop offset="0.6" stop-color="#BAF26F"/>
<stop offset="0.79" stop-color="#A1F8B6"/>
<stop offset="0.93" stop-color="#92FDE5"/>
<stop offset="1" stop-color="#8CFFF7"/>
</linearGradient>
</defs>
</svg>
