<svg width="1760" height="1760" viewBox="0 0 1760 1760" fill="none" xmlns="http://www.w3.org/2000/svg">
<rect width="1760" height="1760" fill="white"/>
<path d="M571.509 523.224C538.7 521.879 508.042 540.711 492.444 564.476C476.846 588.241 472.543 616.49 472.005 643.842C470.929 706.616 485.451 772.08 461.247 831.716C439.195 885.075 388.099 929.018 374.114 984.17C366.046 1015.56 371.424 1048.29 376.803 1080.12C382.719 1117.34 389.175 1155.01 395.092 1192.22C397.781 1207.47 399.932 1223.16 408.538 1236.61C420.371 1255 441.885 1268 463.938 1277.42C521.489 1301.18 593.023 1303.42 650.036 1278.31C707.049 1253.2 745.776 1199.85 739.86 1146.49C736.632 1119.58 723.185 1094.02 722.109 1067.57C719.42 1022.28 756.532 976.546 809.242 963.543C861.953 950.54 923.807 974.305 944.784 1016.45C961.995 1051.88 951.236 1091.78 935.638 1127.65C920.04 1163.53 900.68 1199.4 901.756 1237.51C901.756 1248.27 904.443 1259.93 913.049 1268C923.268 1276.97 939.943 1279.21 955.003 1280.56C1043.75 1288.18 1133.03 1293.11 1221.78 1294.9C1235.23 1294.9 1248.67 1295.35 1261.05 1291.32C1297.08 1279.66 1304.61 1240.2 1306.22 1207.47C1308.91 1144.69 1312.14 1081.92 1314.83 1019.59C1315.91 1001.66 1316.44 983.272 1310.53 966.233C1297.08 928.568 1253.51 903.459 1232 868.484C1208.33 830.82 1213.18 781.945 1243.83 747.867C1263.2 726.345 1291.16 711.1 1310.53 689.577C1340.11 656.845 1405.19 512.014 1391.21 504.392C1385.83 501.253 586.569 517.843 571.509 523.224Z" fill="#FCFFA6" stroke="black" stroke-width="20" stroke-miterlimit="10"/>
<path d="M1027.61 709.304C1036.22 722.308 1027.61 752.798 1008.79 773.424C980.283 805.708 926.496 820.505 880.24 808.398C833.984 796.292 800.098 758.627 798.484 718.72C798.484 716.478 798.485 714.237 799.561 711.995C801.175 709.304 804.939 707.958 808.704 707.062C884.542 684.642 1014.7 690.024 1027.07 709.304H1027.61Z" fill="#FAFCFF" stroke="black" stroke-width="20" stroke-miterlimit="10"/>
<path d="M915.201 733.521C924.112 733.521 931.336 727.498 931.336 720.069C931.336 712.64 924.112 706.618 915.201 706.618C906.289 706.618 899.062 712.64 899.062 720.069C899.062 727.498 906.289 733.521 915.201 733.521Z" fill="black" stroke="black" stroke-width="20" stroke-miterlimit="10"/>
</svg>
