<svg width="1760" height="1760" viewBox="0 0 1760 1760" fill="none" xmlns="http://www.w3.org/2000/svg">
<g clip-path="url(#clip0_10_105)">
<path d="M1760 0H0V1760H1760V0Z" fill="white"/>
<path d="M485.855 1026.23C470.665 991.376 445.646 977.526 418.393 992.717C391.14 1007.91 379.524 1040.52 369.695 1070.01C355.399 1114.24 351.825 1149.54 361.207 1194.66C395.161 1359.97 538.126 1318.42 629.267 1318.42C726.215 1318.42 822.717 1252.74 919.218 1250.06C1029.12 1246.93 1137.69 1317.52 1236.42 1268.83C1286.46 1244.25 1329.8 1180.81 1357.94 1132.56C1380.28 1094.14 1399.94 1052.59 1403.51 1008.35C1407.09 964.123 1391 915.871 1354.37 890.851C1328.46 872.98 1295.84 868.512 1267.7 855.109C1239.55 841.706 1213.64 810.878 1223.47 781.391C1228.83 765.753 1242.68 754.584 1255.63 744.308C1276.18 728.671 1296.74 712.587 1317.29 696.95C1338.73 680.419 1361.07 646.91 1339.63 630.38C1324.88 619.21 1304.78 629.486 1288.25 636.634C1241.78 656.739 1185.49 652.272 1143.05 625.018C1071.12 579 1034.04 449.881 948.705 441.839C852.204 432.904 795.017 581.234 701.196 604.02C678.411 609.381 654.286 608.934 631.501 614.742C608.716 620.55 585.93 637.081 583.25 660.761C581.463 675.057 587.717 689.354 594.419 702.311C623.906 759.945 666.348 814.005 673.05 878.342C686.006 1000.76 647.138 1138.81 540.807 1087.88C519.809 1077.6 491.216 1035.61 487.642 1026.67L485.855 1026.23Z" fill="#96BDF2" stroke="black" stroke-width="20" stroke-miterlimit="10"/>
<path d="M813.334 776.921C811.994 787.644 811.1 799.26 815.568 807.749C820.482 817.131 829.864 819.365 837.906 820.706C873.647 826.067 909.388 826.96 945.13 823.386C953.172 822.493 961.214 821.599 967.915 816.238C983.105 804.175 986.233 776.921 988.02 753.242C990.701 716.159 989.807 668.801 965.235 653.164C956.746 647.802 946.917 647.356 937.088 647.802C909.836 648.696 883.03 651.823 856.224 657.632C848.182 659.419 840.14 661.653 833.885 668.801C827.631 675.949 816.462 742.406 813.334 771V776.921Z" fill="white" stroke="black" stroke-width="20" stroke-miterlimit="10"/>
<path d="M906.711 757.263C915.84 757.263 923.241 747.861 923.241 736.264C923.241 724.667 915.84 715.266 906.711 715.266C897.581 715.266 890.181 724.667 890.181 736.264C890.181 747.861 897.581 757.263 906.711 757.263Z" fill="black"/>
</g>
<defs>
<clipPath id="clip0_10_105">
<rect width="1760" height="1760" fill="white"/>
</clipPath>
</defs>
</svg>
