<svg width="1760" height="1760" viewBox="0 0 1760 1760" fill="none" xmlns="http://www.w3.org/2000/svg">
<rect width="1760" height="1760" fill="white"/>
<path d="M592.443 591.72C553.867 596.008 530.722 631.169 515.805 661.184C500.889 691.2 492.147 724.217 469.516 750.802C447.398 776.958 397.504 785.963 376.93 838.276C330.124 957.481 434.538 955.337 458.198 1021.8C480.83 1084.83 459.741 1152.15 454.597 1217.76C451.511 1254.64 458.198 1298.37 496.26 1316.81C511.176 1324.1 529.181 1325.82 546.669 1327.96C579.073 1331.39 611.475 1334.82 643.879 1338.25C691.199 1342.97 744.179 1346.83 780.183 1321.1C826.475 1288.08 818.246 1228.05 825.962 1177.45C833.677 1127.28 864.536 1077.54 917.515 1052.25C970.493 1026.95 1045.08 1032.09 1083.14 1071.54C1122.23 1111.85 1122.74 1179.6 1179.84 1200.18C1210.7 1211.33 1245.67 1202.75 1277.56 1194.18C1290.93 1190.75 1304.82 1186.89 1314.08 1178.31C1325.4 1168.02 1328.48 1153.44 1330.54 1139.72C1341.86 1048.39 1316.65 956.623 1319.22 864.861C1322.82 750.373 1370.15 639.745 1380.43 525.686C1382.49 505.961 1382.49 484.521 1369.63 467.798C1354.2 448.074 1324.37 440.356 1297.11 435.21C1250.3 426.634 1195.78 423.204 1160.81 450.218C1124.8 478.09 1124.8 527.401 1092.91 558.274C1057.93 592.149 997.24 594.293 943.747 593.864C868.652 593.435 782.242 570.28 591.932 591.72H592.443Z" fill="#84FAB0" stroke="black" stroke-width="20" stroke-miterlimit="10"/>
<path d="M949.403 884.585C965.348 885.442 983.352 885.871 996.211 882.869C1010.61 879.439 1014.21 873.007 1015.76 867.004C1023.99 841.705 1025.01 816.406 1019.87 791.107C1018.84 785.533 1016.78 779.959 1008.55 774.814C990.552 764.094 948.89 761.949 912.886 760.663C856.307 758.519 784.811 759.377 761.151 776.957C752.921 782.96 752.405 790.249 752.92 796.681C753.948 815.977 759.094 834.845 767.838 853.712C770.41 859.286 773.497 865.289 784.812 869.577C796.128 873.865 905.683 882.441 949.403 884.585Z" fill="white" stroke="black" stroke-width="20" stroke-miterlimit="10"/>
<path d="M903.628 826.7C912.15 826.7 919.058 820.939 919.058 813.835C919.058 806.73 912.15 800.972 903.628 800.972C895.106 800.972 888.195 806.73 888.195 813.835C888.195 820.939 895.106 826.7 903.628 826.7Z" fill="black" stroke="black" stroke-width="20" stroke-miterlimit="10"/>
</svg>
