<svg width="1760" height="1760" viewBox="0 0 1760 1760" fill="none" xmlns="http://www.w3.org/2000/svg">
<rect width="1760" height="1760" fill="white"/>
<path d="M854.4 451C842.224 502.132 867.479 566.249 717.75 561.361C675.808 559.857 633.866 553.465 592.375 556.848C572.982 558.352 553.139 562.112 537.354 572.263C517.059 585.046 501.275 604.597 499.471 625.652C494.059 680.92 494.51 731.675 497.216 775.664C498.118 789.199 625.297 767.017 662.278 840.708C677.612 871.913 667.239 910.638 637.023 933.196C617.63 947.859 592.375 955.003 568.923 965.154C494.059 998.24 441.293 1064.03 433.626 1134.34C431.371 1154.64 434.528 1178.33 454.372 1190.36C478.274 1205.02 511.197 1194.87 539.609 1187.35C588.767 1174.19 649.651 1172.31 683.926 1204.27C728.123 1245.25 659.122 1479.86 914.382 1440.01C973.462 1430.61 1026.68 1387.75 1026.23 1337.74C1026.23 1303.9 1003.23 1273.83 988.796 1242.24C973.913 1209.91 967.148 1174.95 969.403 1140.73C971.207 1113.66 982.031 1082.83 1012.25 1072.31C1050.13 1059.52 1088.46 1086.59 1127.25 1097.5C1170.09 1109.53 1221.96 1099 1250.82 1070.05C1279.68 1041.1 1282.39 994.856 1254.43 965.154C1231.43 940.716 1193.55 929.813 1161.07 914.398C1128.6 898.983 1097.48 870.785 1105.15 840.331C1112.37 811.757 1148 796.343 1170.54 774.161C1198.96 745.963 1205.72 707.238 1210.68 670.393C1214.74 643.323 1228.27 607.229 1202.57 589.934C1181.82 575.647 1138.98 581.663 1115.52 570.384C1086.66 556.473 1076.74 526.019 1074.93 498.197C1073.13 470.375 1077.19 441.801 1065.91 415.859C1054.64 389.917 1028.48 368.863 996.462 360.968C964.442 353.072 875.597 354.952 854.4 444.057L854.4 451Z" fill="#FFF570" stroke="black" stroke-width="20" stroke-miterlimit="10"/>
<path d="M977.073 763.631C987.897 805.74 959.935 850.481 917.993 876.047C907.62 882.063 896.797 887.702 884.169 889.958C860.717 894.47 835.913 888.454 815.618 877.927C779.539 859.128 755.185 826.043 750.676 791.078C750.676 787.318 750.225 783.182 753.382 780.55C755.636 778.671 758.342 778.295 761.499 777.543C816.971 765.888 872.894 757.24 929.268 751.225C946.856 749.345 973.014 748.216 977.073 763.631Z" fill="white" stroke="black" stroke-width="20" stroke-miterlimit="10"/>
<path d="M865.229 835.82C874.444 835.82 881.915 829.087 881.915 820.781C881.915 812.476 874.444 805.743 865.229 805.743C856.013 805.743 848.542 812.476 848.542 820.781C848.542 829.087 856.013 835.82 865.229 835.82Z" fill="black"/>
</svg>
