<svg width="1760" height="1760" viewBox="0 0 1760 1760" fill="none" xmlns="http://www.w3.org/2000/svg">
<rect width="1760" height="1760" fill="white"/>
<path d="M828.093 651.202C775.906 643.678 713.124 656.435 683.696 693.399C664.076 717.932 664.861 749.989 659.76 779.102C653.482 815.085 636.217 849.76 610.32 878.873C589.916 902.098 562.056 928.267 573.043 955.745C584.03 983.55 626.015 990.746 655.051 1007.76C686.442 1026.07 703.315 1060.42 696.644 1092.15C689.974 1123.88 674.671 1145.14 616.205 1149.4C551.854 1153.98 516.54 1089.86 457.682 1135.33C426.291 1159.54 424.722 1273.7 511.046 1333.89C554.209 1363.98 615.813 1364.64 672.316 1363.98C728.035 1363.33 784.146 1362.35 839.865 1361.69C852.813 1361.69 866.547 1361.04 877.534 1355.15C885.774 1350.57 891.267 1343.05 895.191 1335.52C914.025 1301.5 913.633 1262.25 914.418 1224.63C915.203 1187.01 917.949 1147.43 941.885 1115.7C965.82 1083.97 1017.22 1063.04 1057.25 1080.38C1093.74 1096.4 1105.51 1134.35 1120.42 1166.41C1123.56 1172.95 1126.7 1179.16 1132.58 1184.4C1144.75 1194.87 1163.97 1196.17 1181.24 1196.83C1227.54 1198.79 1285.22 1195.19 1304.06 1159.54C1312.3 1143.84 1310.33 1125.84 1307.98 1108.83C1303.27 1074.16 1298.17 1038.5 1280.12 1007.1C1253.44 960.324 1188.3 998.596 1212.24 884.433C1225.97 818.683 1309.55 859.573 1323.28 838.311C1343.29 807.889 1340.94 762.093 1340.94 638.116C1340.94 627.322 1239.7 647.276 1218.52 644.332C1156.52 635.499 1127.09 574.329 1127.48 521.991C1127.48 496.476 1132.19 470.634 1125.13 446.1C1118.07 421.567 1095.31 397.033 1064.7 396.052C1023.89 394.416 997.603 431.708 989.363 465.074C978.769 507.926 981.908 552.74 965.035 593.957C948.163 635.173 905.785 662.323 828.486 650.874L828.093 651.202Z" fill="#FF3B83" stroke="black" stroke-width="20" stroke-miterlimit="10"/>
<path d="M857.917 897.845C856.347 912.892 855.17 929.575 861.448 942.006C868.119 955.417 881.46 958.688 893.231 960.324C943.456 967.848 994.466 969.156 1044.69 963.923C1055.68 962.941 1067.45 961.306 1076.87 953.455C1098.06 936.445 1102.76 897.519 1105.51 863.826C1109.44 810.833 1108.26 743.774 1073.34 721.203C1061.17 713.353 1047.05 713.025 1033.7 713.679C995.251 714.988 957.19 719.568 919.521 727.746C908.142 730.036 896.37 733.306 888.13 743.447C879.89 753.587 862.625 856.956 858.309 897.845H857.917Z" fill="white" stroke="black" stroke-width="20" stroke-miterlimit="10"/>
<path d="M990.152 870.041C1002.94 870.041 1013.3 856.713 1013.3 840.273C1013.3 823.833 1002.94 810.506 990.152 810.506C977.366 810.506 967.001 823.833 967.001 840.273C967.001 856.713 977.366 870.041 990.152 870.041Z" fill="black"/>
</svg>
