<svg width="1760" height="1760" viewBox="0 0 1760 1760" fill="none" xmlns="http://www.w3.org/2000/svg">
<rect width="1760" height="1760" fill="white"/>
<path d="M548.534 660.223C536.196 679.27 534.825 718.505 533.911 740.219C531.627 782.122 526.6 824.026 519.746 865.929C515.176 893.357 515.633 913.927 482.733 917.736C464.912 919.641 397.284 903.642 391.343 993.162C389.973 1011.07 384.946 1038.11 395.913 1053.73C408.251 1071.64 437.952 1072.78 454.402 1087.63C502.382 1130.68 469.025 1203.44 497.356 1257.53C513.806 1288.77 551.275 1310.87 591.487 1317.34C610.222 1320.39 629.871 1320.39 647.235 1313.91C676.022 1302.86 691.102 1275.82 693.386 1249.53C695.671 1223.25 687.903 1197.35 682.876 1171.44C677.393 1144.39 674.651 1116.59 674.651 1089.16C674.651 1062.11 679.221 1032.02 703.439 1013.73C714.406 1005.35 728.571 1000.78 743.194 997.733C780.663 990.496 822.246 996.972 852.404 1016.78C882.563 1036.59 899.927 1070.49 893.073 1102.11C886.219 1136.01 855.603 1162.68 832.756 1191.63C804.425 1227.82 787.061 1273.91 805.796 1314.29C829.557 1365.72 900.841 1388.96 966.184 1396.19C978.522 1397.72 991.317 1398.48 1003.65 1396.19C1040.21 1388.58 1056.2 1353.15 1066.71 1323.06C1079.05 1286.87 1091.85 1250.3 1104.18 1214.11C1108.3 1202.3 1112.41 1190.11 1122 1180.2C1140.74 1161.16 1174.55 1158.11 1204.25 1160.01C1233.96 1161.92 1264.57 1167.25 1292.9 1160.01C1323.06 1152.01 1345.45 1129.54 1358.25 1105.16C1371.04 1080.78 1374.7 1054.11 1378.35 1027.83C1383.38 992.782 1382.46 948.211 1344.08 932.974C1335.86 929.926 1326.72 928.022 1320.78 922.689C1315.29 916.975 1314.38 909.355 1314.38 902.118C1314.38 831.263 1345.45 763.076 1359.62 693.364C1361.44 684.603 1362.36 674.317 1354.59 668.222C1347.28 662.127 1335.4 663.269 1324.89 664.031C1250.41 670.888 1151.25 653.747 1067.63 623.272C1051.63 617.558 1079.96 497.562 1047.52 454.135C1025.59 424.803 974.866 415.66 936.483 428.993C898.099 442.326 871.596 473.943 860.172 507.085C847.378 544.798 848.749 632.795 814.934 660.223C800.312 672.032 561.328 641.176 548.534 660.223Z" fill="#7968D9" stroke="black" stroke-width="20" stroke-miterlimit="10"/>
<path d="M1067.17 761.17C1078.13 803.835 1050.26 848.785 1007.76 874.689C997.253 880.784 986.287 886.499 973.492 888.785C949.731 893.356 924.599 887.261 904.036 876.595C867.48 857.548 842.805 824.025 838.235 788.598C838.235 784.789 837.778 780.598 840.977 777.932C843.262 776.027 846.003 775.645 849.202 774.884C905.407 763.074 962.068 754.314 1019.19 748.219C1037.01 746.314 1063.05 745.552 1067.17 761.17Z" fill="white" stroke="black" stroke-width="20" stroke-miterlimit="10"/>
<path d="M954.302 833.929C963.639 833.929 971.209 827.106 971.209 818.69C971.209 810.275 963.639 803.453 954.302 803.453C944.964 803.453 937.395 810.275 937.395 818.69C937.395 827.106 944.964 833.929 954.302 833.929Z" fill="black"/>
</svg>
