<svg width="1760" height="1760" viewBox="0 0 1760 1760" fill="none" xmlns="http://www.w3.org/2000/svg">
<path d="M1760 0H0V1760H1760V0Z" fill="white"/>
<path d="M892.872 506.394C849.67 515.813 830.728 556.816 817.435 592.277C804.142 627.739 784.203 668.741 740.668 676.775C719.067 680.931 696.802 675.39 675.201 671.511C669.219 670.403 662.905 669.572 657.92 672.342C653.932 674.559 651.938 678.438 649.944 682.316C629.008 727.751 614.054 775.126 605.745 823.331C604.416 831.088 603.087 838.845 606.078 846.325C609.733 855.745 619.703 862.394 627.014 870.429C647.95 893.7 644.627 925.837 636.652 954.095C627.014 989.003 606.742 1027.24 565.867 1038.32C532.967 1047.18 491.094 1036.93 466.502 1057.16C456.865 1065.19 451.88 1076.27 447.892 1087.08C436.593 1117.27 428.617 1148.58 424.297 1179.89C423.965 1182.66 423.633 1185.7 424.962 1188.2C426.624 1191.24 430.611 1192.63 434.267 1194.01C498.405 1217.56 567.861 1239.73 636.984 1230.58C654.929 1228.37 673.207 1223.38 686.5 1213.13C702.119 1200.94 708.433 1182.93 714.083 1165.76C722.391 1140.82 730.699 1115.89 739.007 1090.95C744.324 1074.89 749.973 1058.54 760.94 1044.97C782.541 1018.65 825.078 1005.63 861.634 1014.49C898.189 1023.36 926.437 1053 928.098 1084.86C929.095 1108.41 917.132 1131.13 910.818 1154.12C904.504 1177.12 905.168 1204.82 926.105 1220.61C935.077 1227.54 947.041 1231.42 958.672 1234.74C1001.54 1246.93 1046.07 1254.41 1091.27 1256.63C1101.57 1257.18 1112.21 1257.46 1121.51 1253.86C1137.46 1247.76 1144.77 1232.52 1151.09 1218.67C1166.04 1184.59 1180.66 1150.24 1195.62 1116.17C1200.94 1103.7 1206.58 1091.23 1206.58 1077.93C1206.58 1035.27 1151.42 996.206 1170.69 956.311C1178.67 939.689 1198.28 928.607 1218.88 922.789C1239.48 916.971 1261.09 915.032 1281.69 910.599C1325.22 901.18 1366.1 879.016 1388.03 846.325C1409.97 813.634 1409.97 769.861 1383.05 739.941C1368.43 723.872 1346.82 711.405 1339.85 692.289C1332.54 672.342 1342.84 650.733 1337.85 630.232C1329.21 595.602 1282.35 579.81 1242.14 569.282C1234.5 567.343 1226.52 565.404 1218.88 566.789C1205.26 569.559 1197.94 581.472 1191.3 592C1166.71 630.509 1170.03 703.094 1096.25 687.857C1045.41 677.329 935.41 670.957 960.998 598.372C965.651 585.074 964.986 570.945 967.312 557.093C969.639 543.241 968.974 528.28 959.337 516.921C949.699 505.563 927.434 498.636 892.872 506.116V506.394Z" fill="#9DC0EB" stroke="black" stroke-width="20" stroke-miterlimit="10"/>
<path d="M995.891 1148.86C994.229 1155.78 992.568 1163.54 994.229 1169.63C995.891 1176.28 1000.54 1178.22 1004.53 1179.33C1022.14 1184.59 1040.75 1187.09 1059.36 1186.53C1063.35 1186.53 1067.67 1185.98 1071.66 1182.93C1080.63 1175.73 1084.95 1157.72 1087.94 1141.93C1092.93 1117.27 1096.92 1085.69 1085.62 1074.05C1081.63 1069.9 1076.65 1069.34 1071.66 1069.07C1057.7 1068.24 1043.41 1069.07 1029.12 1071.56C1024.8 1072.39 1020.48 1073.22 1016.49 1077.93C1012.51 1082.64 1000.21 1130.02 995.891 1148.86Z" fill="white" stroke="black" stroke-width="20" stroke-miterlimit="10"/>
<path d="M1056.19 1127.01C1057.3 1119.26 1054.35 1112.6 1049.62 1112.13C1044.88 1111.66 1040.14 1117.56 1039.03 1125.31C1037.92 1133.06 1040.87 1139.72 1045.61 1140.19C1050.35 1140.66 1055.08 1134.76 1056.19 1127.01Z" fill="black"/>
</svg>
