<svg width="1760" height="1760" viewBox="0 0 1760 1760" fill="none" xmlns="http://www.w3.org/2000/svg">
<rect width="1760" height="1760" fill="white"/>
<path d="M855.031 552.522C874.729 516.805 886.056 474.928 871.282 437.568C856.508 400.209 809.724 369.417 762.939 377.218C721.08 384.197 693.01 417.862 679.221 451.527C665.431 485.192 662.477 521.731 646.718 554.986C630.959 588.24 596.486 619.031 553.642 619.442C542.315 619.442 530.496 617.388 520.154 621.083C497.008 628.883 497.008 655.98 498.978 676.918C516.214 837.032 423.138 989.754 389.651 1148.23C385.218 1169.98 382.264 1194.21 396.545 1213.09C404.425 1223.36 416.736 1230.75 429.048 1237.73C460.566 1255.38 492.576 1271.8 525.571 1287.4C549.21 1298.49 576.295 1309.57 602.888 1304.23C623.079 1300.13 639.331 1287.81 651.642 1273.85C681.683 1241.01 695.472 1200.78 717.633 1163.83C739.794 1126.88 773.281 1090.75 821.05 1081.72C867.342 1073.1 915.604 1091.98 952.539 1117.02C1151.99 1252.92 1283.48 1354.32 1345.53 1046.41C1374.09 905.593 1458.79 776.27 1342.57 716.33C1317.95 703.603 1196.8 638.737 1168.73 632.989C1137.71 626.831 839.272 580.85 854.538 553.754L855.031 552.522Z" fill="#E6E1E1" stroke="black" stroke-width="20" stroke-miterlimit="10"/>
<path d="M582.701 896.97C578.269 915.444 574.329 935.971 578.269 951.983C582.701 969.636 595.013 974.564 605.847 978.258C653.616 992.628 702.863 998.786 753.095 997.554C763.929 997.554 775.748 996.323 786.582 987.702C810.22 968.406 822.04 920.782 830.412 878.496C843.708 812.808 854.542 729.056 824.502 697.854C814.16 686.769 800.371 685.128 787.074 684.306C749.647 682.254 711.235 684.307 672.822 690.875C661.496 692.928 649.184 695.392 639.335 707.708C629.485 720.024 594.028 846.883 582.701 896.97Z" fill="white" stroke="black" stroke-width="20" stroke-miterlimit="10"/>
<path d="M744.036 839.31C746.962 818.821 739.262 801.212 726.839 799.979C714.416 798.746 701.973 814.356 699.046 834.844C696.12 855.333 703.819 872.942 716.242 874.175C728.666 875.408 741.11 859.798 744.036 839.31Z" fill="black"/>
</svg>
