<svg width="1760" height="1760" viewBox="0 0 1760 1760" fill="none" xmlns="http://www.w3.org/2000/svg">
<rect width="1760" height="1760" fill="white"/>
<path d="M708.118 589.683C708.118 553.295 727.462 534.275 729.446 506.571C731.43 478.866 718.038 447.853 688.278 435.035C660.997 423.457 626.773 429.659 601.973 444.132C577.173 458.604 559.316 480.107 542.948 501.609C521.124 530.554 500.292 560.738 481.444 591.337C471.524 607.464 462.1 624.004 459.62 641.784C456.644 663.286 464.084 684.788 466.068 706.29C469.044 741.85 456.643 776.999 445.731 811.732C415.475 905.183 392.163 999.874 376.291 1095.81C374.307 1108.21 372.323 1121.03 376.291 1133.02C382.243 1152.04 400.595 1166.51 421.923 1174.78C443.252 1183.05 466.564 1185.95 489.38 1188.84C516.164 1192.15 546.916 1195.04 568.245 1180.57C580.645 1172.3 587.589 1159.07 593.045 1146.25C606.437 1114.41 614.373 1081.33 629.253 1049.91C644.134 1018.48 666.454 988.295 701.174 971.342C746.806 949.013 810.295 955.629 848.488 986.641C886.68 1018.07 896.104 1066.45 893.624 1111.1C892.632 1133.02 889.656 1156.59 902.056 1176.02C910.488 1188.43 924.376 1197.53 938.76 1205.38C972.489 1223.58 1010.68 1235.98 1050.36 1242.18C1060.78 1243.84 1072.19 1245.08 1082.6 1242.6C1104.43 1238.05 1118.31 1220.68 1126.75 1203.32C1152.54 1150.8 1145.59 1091.26 1154.03 1035.02C1156.01 1020.96 1159.98 1005.25 1173.37 996.566C1196.19 981.68 1228.43 994.912 1256.7 1001.11C1312.75 1013.11 1376.73 989.95 1404.01 947.36C1431.29 904.769 1419.39 847.293 1376.73 815.04C1348.96 794.365 1308.28 780.72 1299.85 750.534C1293.9 729.446 1328.62 590.097 1299.85 600.848C1251.24 619.455 1121.79 618.215 1118.81 549.161C1117.32 514.013 1100.46 478.039 1071.19 452.402C1039.95 425.111 983.401 421.803 948.185 445.372C911.976 469.355 903.048 510.705 884.696 545.852C866.84 580.999 851.96 637.65 808.311 648.814C764.663 659.978 708.118 643.851 708.118 589.683Z" fill="#63B6FF" stroke="black" stroke-width="20" stroke-miterlimit="10"/>
<path d="M937 846C927.576 816.228 954.633 790.641 990.345 772.86C998.777 768.725 1008.7 765.003 1019.11 762.935C1038.95 759.628 1059.79 763.763 1077.15 771.206C1107.9 784.438 1128.73 807.594 1132.2 831.99C1132.2 834.471 1132.2 837.365 1130.22 839.433C1128.23 840.673 1125.75 841.088 1123.27 841.501C1076.15 849.771 1028.54 855.973 980.425 860.108C965.545 861.348 943.721 861.762 940.249 851.011L937 846Z" fill="white" stroke="black" stroke-width="20" stroke-miterlimit="10"/>
<path d="M1034.99 822.067C1042.93 822.067 1049.37 817.439 1049.37 811.73C1049.37 806.021 1042.93 801.393 1034.99 801.393C1027.04 801.393 1020.6 806.021 1020.6 811.73C1020.6 817.439 1027.04 822.067 1034.99 822.067Z" fill="black"/>
</svg>
