<svg width="1760" height="1760" viewBox="0 0 1760 1760" fill="none" xmlns="http://www.w3.org/2000/svg">
<rect width="1760" height="1760" fill="white"/>
<path d="M944.988 569.678C925.549 508.659 995.931 439.258 963.756 383.938C944.653 351.081 895.721 345.717 863.211 365.498C830.702 385.279 813.274 423.165 806.235 460.38C799.197 497.595 800.873 536.151 796.851 574.036C794.84 594.153 790.819 614.939 780.094 632.038C769.369 649.137 750.6 662.883 730.491 662.548C708.036 662.548 680.554 647.796 666.813 665.565C662.456 670.93 661.45 678.306 660.445 685.346C657.764 703.786 655.082 722.897 661.45 740.331C666.478 754.077 677.202 765.476 686.251 777.211C708.036 805.709 722.783 841.583 717.42 877.121C712.058 912.66 682.565 945.516 646.704 946.522C616.54 947.193 582.019 928.418 559.564 948.534C548.169 958.592 545.823 975.356 543.812 990.443C541.466 1008.88 539.455 1026.99 537.109 1045.43C533.423 1075.6 530.406 1108.46 546.158 1134.27C562.246 1160.76 594.085 1173.17 624.248 1180.88C640.671 1185.24 710.717 1167.47 733.843 1162.44C769.369 1154.73 806.235 1174.84 828.355 1203.34C850.475 1231.84 861.535 1267.71 871.255 1302.58C926.89 1500.39 1047.88 1388.74 1062.96 1356.56C1083.41 1313.31 1114.57 1205.02 1162.84 1188.59C1182.27 1181.88 1203.72 1182.55 1223.16 1175.51C1246.62 1167.13 1265.06 1148.69 1278.13 1127.57C1312.31 1070.91 1305.61 992.454 1262.04 942.499C1233.22 909.642 1188.64 884.832 1180.93 841.918C1175.91 812.414 1190.32 782.91 1208.42 759.441C1226.51 735.972 1249.31 715.521 1264.39 689.705C1279.47 663.889 1286.51 630.362 1270.75 604.546C1266.73 597.841 1261.04 591.806 1253.66 589.124C1237.24 583.089 1219.81 595.159 1206.07 605.887C1163.84 638.073 1113.9 663.889 1060.62 664.224C1007.33 664.56 964.762 630.697 945.658 570.684L944.988 569.678Z" fill="#84FAB0" stroke="black" stroke-width="20" stroke-miterlimit="10"/>
<path d="M864.217 950.881C856.173 913.331 876.953 873.433 908.122 850.635C915.83 845.271 923.874 840.242 933.258 838.23C950.686 834.207 969.119 839.571 984.201 848.959C1011.01 865.722 1029.11 895.226 1032.46 926.406C1032.46 929.759 1032.8 933.447 1030.45 935.794C1028.78 937.47 1026.77 937.805 1024.42 938.476C983.195 948.869 941.637 956.58 899.743 961.945C886.672 963.621 867.233 964.627 864.217 950.881Z" fill="white" stroke="black" stroke-width="20" stroke-miterlimit="10"/>
<path d="M947.334 913.33C954.183 913.33 959.735 907.326 959.735 899.92C959.735 892.513 954.183 886.509 947.334 886.509C940.486 886.509 934.934 892.513 934.934 899.92C934.934 907.326 940.486 913.33 947.334 913.33Z" fill="black"/>
</svg>
