<svg width="1760" height="1760" viewBox="0 0 1760 1760" fill="none" xmlns="http://www.w3.org/2000/svg">
<g clip-path="url(#clip0_10_596)">
<path d="M1760 0H0V1760H1760V0Z" fill="white"/>
<path d="M739.176 698.73C668.151 734.771 574.995 652.391 526.616 708.169C490.074 750.646 548.232 757.082 395.374 914.118C352.142 958.74 351.627 997.355 427.799 1077.59C470.517 1122.21 544.115 1144.52 612.566 1139.37C637.27 1137.66 749.984 1118.78 804.54 1211.03C830.788 1255.22 815.862 1352.19 880.711 1391.66C921.885 1416.98 1002.69 1399.39 1026.88 1362.06C1051.07 1324.73 1052.61 1280.11 1058.27 1238.06C1063.93 1196.01 1076.8 1150.53 1115.4 1123.07C1146.8 1100.76 1189.51 1093.89 1226.57 1078.88C1302.23 1047.98 1352.67 978.477 1350.61 908.54C1348.55 838.603 1353.18 699.159 1275.47 671.699C1162.24 631.796 1027.39 727.476 1041.8 578.592C1046.44 531.395 1038.2 481.625 1010.92 440.006C1001.14 424.989 987.248 411.687 969.235 404.393C934.237 390.664 891.004 404.823 863.727 427.993C778.806 499.646 831.817 651.533 739.176 698.73Z" fill="#FF6640" stroke="black" stroke-width="20" stroke-miterlimit="10"/>
<path d="M842.624 768.663C789.098 813.714 798.362 927.843 826.154 998.209C830.786 1009.37 835.933 1020.09 842.624 1028.25C851.373 1038.54 862.182 1043.69 872.475 1046.69C911.075 1057.85 954.308 1040.26 981.071 993.92C1007.84 947.581 1015.04 871.208 992.394 818.862C978.498 786.683 955.852 766.517 932.177 757.936C908.502 749.355 876.592 739.916 842.624 768.663Z" fill="white" stroke="black" stroke-width="20" stroke-miterlimit="10"/>
<path d="M911.591 937.711C922.109 937.711 930.635 923.88 930.635 906.818C930.635 889.757 922.109 875.926 911.591 875.926C901.074 875.926 892.549 889.757 892.549 906.818C892.549 923.88 901.074 937.711 911.591 937.711Z" fill="black"/>
</g>
<defs>
<clipPath id="clip0_10_596">
<rect width="1760" height="1760" fill="white"/>
</clipPath>
</defs>
</svg>
