<svg width="1760" height="1760" viewBox="0 0 1760 1760" fill="none" xmlns="http://www.w3.org/2000/svg">
<rect width="1760" height="1760" fill="white"/>
<path d="M517 1037C467 1104 467.74 1155.93 448.901 1226.83C438.49 1266.49 432.542 1314.58 461.295 1343.83C489.057 1371.59 535.656 1368.12 571.845 1352.75C619.933 1332.42 661.081 1295.24 685.868 1249.13C724.041 1177.75 726.024 1085.53 785.018 1030.01C822.694 994.314 880.696 981.92 929.775 998.776C978.854 1015.63 1017.03 1060.75 1024.96 1112.31C1034.87 1175.76 1005.13 1251.61 1049.25 1298.22C1072.55 1323 1109.24 1329.45 1143.44 1331.43C1177.65 1333.41 1212.85 1332.42 1243.58 1318.05C1297.12 1293.75 1326.37 1236.25 1352.15 1183.2C1384.87 1114.29 1417.59 1030.01 1375.95 965.56C1358.6 938.789 1330.84 920.446 1307.04 899.128C1283.24 877.811 1261.43 849.057 1263.41 817.328C1265.4 780.642 1297.12 753.375 1312.99 720.655C1332.82 680.002 1327.36 630.426 1306.05 590.766C1284.73 551.105 1249.04 520.368 1209.87 498.554C1179.63 481.203 1142.95 468.809 1109.73 480.707C1064.62 497.067 1042.31 554.575 995.214 565.482C927.297 581.346 873.756 489.135 804.351 494.588C743.87 499.546 714.622 572.422 661.081 600.681C612.498 625.965 552.017 610.596 499.963 626.956C448.405 642.82 410.728 686.943 376.521 728.587C367.102 739.989 357.682 751.888 356.195 766.76C354.212 786.591 367.598 805.43 384.453 815.841C401.309 826.252 421.138 831.209 439.977 838.15C480.628 853.023 519.296 880.289 536.152 920.446C557.469 972.997 542 1007 536.152 1015L517 1037Z" fill="#2667FF" stroke="black" stroke-width="20" stroke-miterlimit="10"/>
<path d="M731.475 836.663C730.484 852.032 729.493 869.383 733.955 882.273C738.416 896.154 747.834 899.625 755.766 901.608C790.468 909.54 825.171 910.531 859.873 905.574C867.31 904.582 875.242 902.599 882.183 894.667C896.559 876.82 900.029 836.663 902.012 801.464C904.491 746.435 903.995 677.029 879.703 653.728C871.275 645.796 861.857 645.3 852.437 645.796C826.163 646.787 799.889 651.745 774.11 660.173C766.178 662.652 758.246 666.122 752.297 676.533C746.348 686.944 734.946 794.524 731.971 836.663H731.475Z" fill="white" stroke="black" stroke-width="20" stroke-miterlimit="10"/>
<path d="M822.194 807.413C830.956 807.413 838.057 793.652 838.057 776.676C838.057 759.7 830.956 745.939 822.194 745.939C813.433 745.939 806.33 759.7 806.33 776.676C806.33 793.652 813.433 807.413 822.194 807.413Z" fill="black"/>
</svg>
