<svg width="1760" height="1760" viewBox="0 0 1760 1760" fill="none" xmlns="http://www.w3.org/2000/svg">
<g clip-path="url(#clip0_10_590)">
<path d="M1760 0H0V1760H1760V0Z" fill="white"/>
<path d="M423.359 528.146C392.708 553.698 407.419 598.16 414.163 633.422C430.101 714.679 411.711 896.102 418.454 905.301C425.197 914.499 531.863 906.323 583.97 906.834C625.655 906.834 664.889 923.698 698.605 945.162C734.773 968.16 766.037 997.289 780.75 1033.06C795.462 1068.84 791.784 1110.74 763.585 1140.38C740.29 1164.91 704.122 1177.69 675.31 1197.11C642.207 1219.6 618.912 1251.79 610.33 1286.54C601.135 1322.32 610.33 1364.73 645.885 1386.2C659.372 1394.37 675.923 1398.97 692.475 1401.53C773.393 1414.31 861.669 1374.44 892.933 1311.58C924.197 1248.72 906.419 1166.45 966.495 1120.45C998.372 1095.92 1044.35 1089.28 1087.87 1089.79C1131.4 1090.3 1174.31 1096.94 1217.83 1094.39C1261.36 1091.83 1306.72 1078.55 1330.63 1048.39C1344.73 1030.51 1350.25 1008.53 1354.54 987.067C1382.74 855.728 1501.05 617.58 1392.55 544.5C1320.21 495.95 1155.31 541.433 1010.63 537.856C874.542 534.79 520.217 447.4 423.359 528.146Z" fill="#FFF570" stroke="black" stroke-width="20" stroke-miterlimit="10"/>
<path d="M870.247 827.621C868.408 839.887 867.182 853.174 873.925 862.884C881.894 873.616 896.607 876.172 909.48 877.705C965.878 883.837 1022.89 884.859 1079.9 880.771C1092.16 879.749 1105.65 878.726 1116.07 872.082C1139.98 858.284 1145.49 827.111 1147.95 799.514C1152.24 756.586 1151.01 702.926 1111.78 684.528C1098.29 678.396 1082.35 677.885 1067.03 678.396C1024.12 679.418 981.204 682.995 938.292 689.639C925.419 691.683 912.545 694.239 902.737 702.415C892.929 710.592 875.152 789.293 870.247 822V827.621Z" fill="white" stroke="black" stroke-width="20" stroke-miterlimit="10"/>
<path d="M1019.21 805.644C1033.77 805.644 1045.57 794.89 1045.57 781.625C1045.57 768.359 1033.77 757.605 1019.21 757.605C1004.66 757.605 992.854 768.359 992.854 781.625C992.854 794.89 1004.66 805.644 1019.21 805.644Z" fill="black"/>
</g>
<defs>
<clipPath id="clip0_10_590">
<rect width="1760" height="1760" fill="white"/>
</clipPath>
</defs>
</svg>
