<svg width="1760" height="1760" viewBox="0 0 1760 1760" fill="none" xmlns="http://www.w3.org/2000/svg">
<rect width="1760" height="1760" fill="white"/>
<path d="M957.824 520.911C962.801 487.338 967.778 452.633 956.013 420.191C944.248 387.749 911.668 357.947 871.395 356.061C840.625 354.93 811.665 369.641 789.945 387.749C758.722 413.777 737.002 447.351 728.405 483.188C722.975 505.445 722.522 528.456 714.83 550.335C707.137 572.215 689.037 593.34 662.792 598.998C639.715 603.902 612.112 596.357 592.654 608.051C575.912 617.86 573.196 637.098 571.839 654.074C562.336 749.136 540.164 843.067 505.322 933.602C495.819 958.877 484.959 984.151 484.054 1010.18C483.149 1036.21 493.556 1064.5 518.896 1080.35C564.146 1108.64 627.044 1085.63 683.155 1079.21C755.102 1071.29 893.116 1091.28 839.721 1192.76C819.81 1230.11 807.592 1274.62 829.312 1311.21C837.005 1324.04 848.771 1334.98 862.346 1344.03C905.333 1371.95 968.23 1376.85 1016.65 1355.72C1065.07 1334.6 1096.29 1288.58 1092.67 1243.31C1087.69 1172.77 1008.96 1113.16 1020.27 1043.38C1027.96 995.846 1088.14 956.237 1143.8 968.308C1191.31 978.493 1229.32 1019.99 1278.19 1013.2C1325.71 1006.41 1344.71 958.877 1350.59 919.267C1363.72 834.013 1359.19 747.25 1352.4 661.619C1351.5 648.416 1350.14 634.836 1340.64 624.273C1327.52 609.561 1303.08 606.165 1281.36 604.657C1232.94 600.884 1184.53 599.376 1136.11 600.508C1097.65 601.262 1057.83 603.525 1022.08 591.453C986.331 579.382 953.298 548.072 957.371 521.289L957.824 520.911Z" fill="#7968D9" stroke="black" stroke-width="20" stroke-miterlimit="10"/>
<path d="M849.676 742.725C798.995 771.017 799.901 851.745 831.124 900.031C836.101 907.953 841.983 915.119 849.676 920.401C859.631 927.568 871.396 930.964 883.613 932.85C927.506 940.394 975.924 928.7 1006.69 897.012C1037.46 865.325 1045.16 812.89 1019.82 777.053C1004.43 755.174 978.639 741.217 951.488 735.181C924.791 729.145 892.211 719.337 849.676 742.725Z" fill="white" stroke="black" stroke-width="20" stroke-miterlimit="10"/>
<path d="M924.789 861.551C936.785 861.551 946.51 852.093 946.51 840.426C946.51 828.759 936.785 819.301 924.789 819.301C912.794 819.301 903.069 828.759 903.069 840.426C903.069 852.093 912.794 861.551 924.789 861.551Z" fill="black"/>
</svg>
