<svg width="1760" height="1760" viewBox="0 0 1760 1760" fill="none" xmlns="http://www.w3.org/2000/svg">
<rect width="1760" height="1760" fill="white"/>
<path d="M697.073 610.916C647.946 599.312 595.544 592.486 554.605 617.741C513.666 642.997 490.331 685.317 485.828 727.637C482.143 759.377 488.283 791.118 489.921 822.858C496.881 960.398 424.828 1097.6 452.257 1233.43C459.626 1269.95 477.23 1308.17 515.304 1326.94C545.189 1341.62 583.672 1340.94 615.195 1328.65C646.718 1316.37 670.462 1293.16 685.2 1266.88C714.677 1213.64 706.08 1148.79 741.697 1097.94C774.857 1050.16 849.366 1023.54 911.593 1042.31C973.821 1061.08 1011.48 1126.27 984.056 1176.43C959.083 1221.83 893.58 1245.38 872.701 1292.13C869.426 1299.64 867.379 1308.17 869.017 1316.02C873.52 1333.77 895.218 1344.35 915.687 1351.52C970.136 1370.29 1028.68 1379.84 1087.63 1379.5C1110.56 1379.5 1134.71 1377.46 1153.95 1366.88C1174.83 1355.61 1187.11 1335.82 1193.66 1315.68C1216.18 1248.11 1184.66 1174.73 1202.26 1105.79C1212.09 1066.88 1237.06 1032.07 1260.39 997.257C1300.92 936.848 1339 872.345 1341.86 803.063C1344.73 733.781 1302.56 659.038 1224.37 635.148C1194.48 625.933 1162.14 624.908 1131.03 619.789C1099.91 614.67 1048.74 605.456 1029.91 584.296C1004.52 555.286 1030.73 514.672 1033.59 478.495C1036.46 442.318 1028.27 398.974 988.559 384.298C953.761 371.329 912.003 389.418 891.124 415.698C870.245 441.977 865.332 474.741 859.601 506.14C853.869 537.538 846.091 570.302 821.937 594.192C797.783 618.083 760.119 625.932 697.482 611.257L697.073 610.916Z" fill="#DEB0FF" stroke="black" stroke-width="20" stroke-miterlimit="10"/>
<path d="M823.165 810.232C813.749 836.17 805.561 867.227 826.85 887.704C840.36 900.674 862.057 905.111 882.527 907.5C908.319 910.572 935.338 911.254 959.902 904.769C984.465 898.285 1007.8 883.268 1016.4 862.791C1025.81 840.948 1018.03 816.716 1008.21 795.215C990.196 754.942 964.814 715.694 924.694 688.732C920.191 685.661 915.687 682.93 910.365 681.906C898.083 679.176 884.983 686.002 878.433 694.875C871.883 703.749 834.218 779.856 823.165 809.89V810.232Z" fill="white" stroke="black" stroke-width="20" stroke-miterlimit="10"/>
<path d="M916.916 846.409C930.934 846.409 942.298 838.158 942.298 827.979C942.298 817.801 930.934 809.549 916.916 809.549C902.898 809.549 891.534 817.801 891.534 827.979C891.534 838.158 902.898 846.409 916.916 846.409Z" fill="#030005"/>
</svg>
