<svg width="1760" height="1760" viewBox="0 0 1760 1760" fill="none" xmlns="http://www.w3.org/2000/svg">
<rect width="1760" height="1760" fill="white"/>
<path d="M980.508 553.27C990.234 518.524 997.643 488.797 985.603 459.842C973.562 430.886 948.554 403.861 913.821 394.596C856.859 379.539 798.508 414.285 759.607 452.12C720.706 489.955 686.436 535.511 630.4 553.27C597.983 563.694 555.376 567.941 545.188 595.352C542.409 603.46 543.336 612.339 544.262 620.833C553.525 685.693 580.848 752.483 556.303 814.641C545.651 842.052 525.275 865.988 507.214 890.697C461.829 953.627 429.875 1023.12 413.666 1095.32C404.404 1137.78 400.236 1182.95 420.612 1222.33C436.358 1253.99 465.997 1279.09 498.415 1300.32C556.766 1338.15 626.695 1364.02 700.329 1368.65C773.963 1373.29 850.375 1356.3 906.411 1316.53C947.165 1287.58 976.34 1248.59 1018.48 1221.18C1099.99 1168.67 1219.01 1166.74 1292.64 1106.51C1331.08 1074.85 1351.46 1031.23 1364.89 987.988C1385.26 921.197 1390.36 850.16 1366.28 784.142C1342.19 718.124 1284.31 603.846 1209.28 599.213C1148.62 595.352 980.752 550.949 983.068 544L980.508 553.27Z" fill="#99E6FF" stroke="black" stroke-width="20" stroke-miterlimit="10"/>
<path d="M887.888 767.925C812.865 803.83 814.253 905.754 860.564 966.367C867.974 976.019 876.773 985.284 887.888 992.233C902.244 1001.11 920.305 1005.36 937.903 1008.06C1002.74 1017.71 1074.52 1002.66 1119.44 962.506C1164.36 922.354 1175.94 856.336 1138.43 811.165C1115.27 783.368 1077.3 765.995 1037.93 758.274C998.57 750.552 950.407 738.198 887.888 767.925Z" fill="white" stroke="black" stroke-width="20" stroke-miterlimit="10"/>
<path d="M998.568 918.108C1016.22 918.108 1030.52 906.181 1030.52 891.469C1030.52 876.756 1016.22 864.83 998.568 864.83C980.92 864.83 966.613 876.756 966.613 891.469C966.613 906.181 980.92 918.108 998.568 918.108Z" fill="black"/>
</svg>
