<svg width="1760" height="1760" viewBox="0 0 1760 1760" fill="none" xmlns="http://www.w3.org/2000/svg">
<rect width="1760" height="1760" fill="white"/>
<path d="M772.837 630.584L644.217 618.4C639.832 618.095 635.081 617.486 631.062 619.314C620.465 623.883 624.485 637.286 629.966 646.12C680.026 732.632 688.795 835.593 654.082 927.283C644.947 951.348 632.158 975.412 610.965 993.385C550.309 1045.17 435.939 1036.34 385.148 1094.82C351.897 1133.21 363.224 1193.21 409.264 1220.93C457.862 1250.48 526.558 1241.65 582.464 1223.07C638.37 1204.49 692.449 1177.37 752.375 1174.02C789.28 1171.89 826.551 1178.9 863.456 1176.16C926.305 1171.59 984.404 1136.86 1009.98 1088.73C1020.21 1069.54 1024.96 1048.83 1032.27 1029.03C1044.69 994.604 1066.98 959.268 1106.45 945.864C1164.91 926.064 1229.95 961.705 1292.8 955.612C1360.03 949.215 1409.36 891.642 1409 834.983C1408.63 778.324 1366.98 726.539 1312.53 692.727C1258.09 658.914 1192.32 640.941 1126.91 626.624C1095.12 619.618 1059.68 611.089 1045.06 586.719C1024.96 552.907 1056.39 505.691 1026.79 477.057C1005.96 456.952 966.133 460.303 940.19 475.229C912.42 491.374 894.515 518.79 893.785 547.119C893.419 559.609 895.977 572.707 892.688 584.892C882.457 620.532 828.013 635.763 773.934 630.584H772.837Z" fill="#84FAB0" stroke="black" stroke-width="20" stroke-miterlimit="10"/>
<path d="M1127.64 707.958C1086.71 729.89 1087.81 792.642 1112.66 830.11C1116.68 836.202 1121.43 841.685 1127.64 845.95C1135.68 851.433 1145.18 854.175 1154.68 855.698C1189.76 861.485 1228.85 852.346 1253.34 827.672C1277.82 802.998 1284.03 762.484 1263.57 734.459C1251.14 717.401 1230.32 706.739 1208.76 702.17C1187.2 697.601 1161.62 689.681 1127.64 707.958Z" fill="white" stroke="black" stroke-width="20" stroke-miterlimit="10"/>
<path d="M1187.57 800.257C1197.05 800.257 1204.74 792.892 1204.74 783.807C1204.74 774.722 1197.05 767.358 1187.57 767.358C1178.08 767.358 1170.39 774.722 1170.39 783.807C1170.39 792.892 1178.08 800.257 1187.57 800.257Z" fill="black"/>
<path d="M1187.57 800.257C1197.05 800.257 1204.74 792.892 1204.74 783.807C1204.74 774.722 1197.05 767.358 1187.57 767.358C1178.08 767.358 1170.39 774.722 1170.39 783.807C1170.39 792.892 1178.08 800.257 1187.57 800.257Z" fill="black"/>
</svg>
