<svg width="1760" height="1760" viewBox="0 0 1760 1760" fill="none" xmlns="http://www.w3.org/2000/svg">
<rect width="1760" height="1760" fill="white"/>
<path d="M735.149 545.302C695.378 528.895 647.817 555.215 624.856 587.003C616.246 598.966 609.276 612.638 612.146 626.311C617.886 650.579 649.866 661.858 675.697 673.822C749.089 708.344 792.141 779.442 794.191 849.854C795.011 880.275 788.451 911.721 767.13 936.673C730.229 979.741 658.477 991.705 595.335 986.236C557.204 983.16 517.843 975.298 480.942 984.868C433.38 997.515 403.859 1036.82 386.229 1075.45C368.188 1115.1 360.398 1165.34 396.069 1195.77C417.39 1213.88 448.961 1220.38 478.892 1225.5C625.266 1250.11 774.92 1262.42 924.164 1261.73C968.855 1261.73 1017.24 1259.34 1052.09 1235.76C1117.69 1191.66 1098.01 1102.79 1140.65 1042.29C1164.84 1008.11 1209.94 985.21 1257.09 982.475C1282.92 981.108 1332.13 1004.35 1335.41 982.818C1372.31 709.028 1396.5 581.875 1351.81 578.799C1332.54 577.432 1313.68 583.585 1294.82 587.003C1241.1 597.599 1182.88 590.421 1135.32 567.862C1125.89 563.418 1116.87 557.949 1111.95 550.087C1100.06 531.287 1117.28 509.753 1121.79 488.903C1129.58 453.013 1094.73 416.781 1052.09 408.92C1009.45 401.058 963.936 418.149 935.235 445.493C910.224 469.762 896.284 500.525 871.273 525.136C846.263 549.746 799.111 571.963 735.149 545.302Z" fill="#FF82C1" stroke="black" stroke-width="20" stroke-miterlimit="10"/>
<path d="M567.046 1056.31C550.236 1055.28 531.785 1054.6 517.845 1058.02C502.674 1061.78 498.984 1068.61 497.344 1075.11C488.734 1102.11 487.504 1129.11 493.244 1156.11C494.474 1161.93 496.114 1168.08 505.134 1173.21C523.995 1184.49 567.456 1187.22 605.587 1188.59C665.039 1190.64 739.66 1189.95 765.081 1171.5C773.691 1165 774.102 1157.48 773.692 1150.3C772.462 1129.8 767.132 1109.63 758.112 1089.46C755.242 1083.65 751.961 1077.16 740.481 1072.71C729 1068.27 613.377 1059.04 567.866 1056.65L567.046 1056.31Z" fill="white" stroke="black" stroke-width="20" stroke-miterlimit="10"/>
<path d="M631.419 1139.37C649.761 1139.37 664.63 1133.86 664.63 1127.06C664.63 1120.27 649.761 1114.76 631.419 1114.76C613.077 1114.76 598.208 1120.27 598.208 1127.06C598.208 1133.86 613.077 1139.37 631.419 1139.37Z" fill="black"/>
</svg>
