<svg width="1760" height="1760" viewBox="0 0 1760 1760" fill="none" xmlns="http://www.w3.org/2000/svg">
<rect width="1760" height="1760" fill="white"/>
<path d="M695.796 625.943C644.576 623.096 590.794 638.397 564.331 675.047C543.416 703.514 560.064 720.95 582.686 731.98C614.271 747.281 648.843 759.379 672.319 782.864C703.478 814.533 706.04 859.012 705.186 899.933C704.332 933.381 701.771 968.252 682.564 997.786C663.357 1027.32 621.953 1049.03 583.112 1040.49C568.172 1037.28 554.941 1029.81 540.428 1024.83C487.928 1007.75 408.538 1028.74 384.635 1071.09C360.733 1113.43 375.245 1171.79 413.66 1205.95C452.074 1240.11 525.489 1256.12 581.831 1253.63C643.722 1250.78 703.906 1226.94 745.308 1188.51C777.32 1158.98 797.808 1121.97 828.539 1091.73C859.271 1061.48 907.504 1037.28 953.602 1047.96C991.163 1056.5 1017.2 1085.68 1030.86 1116.28C1044.52 1146.88 1049.21 1179.62 1061.16 1210.57C1073.11 1241.53 1095.31 1272.13 1131.59 1284.94C1177.26 1300.95 1236.59 1278.18 1251.53 1239.04C1257.93 1222.67 1257.08 1205.24 1255.8 1188.16C1251.1 1126.95 1239.15 1066.11 1240.86 1004.9C1242.57 943.7 1259.64 880.362 1306.16 833.036C1327.5 811.331 1354.82 793.54 1375.74 771.478C1397.08 749.417 1411.59 722.729 1418.42 694.974C1424.4 669.71 1422.69 640.532 1400.49 622.385C1369.33 597.121 1318.54 607.44 1276.29 616.335C1241.71 623.452 1205.86 628.078 1170.86 623.096C1135.86 618.115 1101.71 602.459 1084.21 576.839C1065.86 550.151 1067.57 515.635 1046.22 490.371C1021.89 461.905 972.382 453.365 932.686 465.107C892.991 476.85 863.54 505.316 845.186 536.985C834.516 555.132 826.833 574.703 811.894 590.359C791.833 611.353 758.966 629.857 696.222 626.655L695.796 625.943Z" fill="#99E6FF" stroke="black" stroke-width="20" stroke-miterlimit="10"/>
<path d="M853.727 817.025C843.909 844.068 835.374 876.449 857.569 897.799C871.655 911.32 894.276 915.945 915.618 918.436C942.508 921.639 970.679 922.351 996.289 915.59C1021.9 908.829 1046.23 893.172 1055.19 871.823C1065.01 849.049 1056.9 823.786 1046.65 801.369C1027.87 759.381 1001.41 718.46 959.581 690.35C954.886 687.147 950.191 684.3 944.642 683.233C931.837 680.386 918.178 687.503 911.349 696.754C904.52 706.006 865.251 785.356 853.727 816.669V817.025Z" fill="white" stroke="black" stroke-width="20" stroke-miterlimit="10"/>
<path d="M951.471 854.744C966.087 854.744 977.934 846.141 977.934 835.529C977.934 824.917 966.087 816.314 951.471 816.314C936.856 816.314 925.008 824.917 925.008 835.529C925.008 846.141 936.856 854.744 951.471 854.744Z" fill="#030005"/>
</svg>
