<svg width="1760" height="1760" viewBox="0 0 1760 1760" fill="none" xmlns="http://www.w3.org/2000/svg">
<rect width="1760" height="1760" fill="white"/>
<path d="M889.25 466.237C857.348 464.047 825.823 477.188 807.808 499.402C789.793 521.617 781.536 548.212 768.775 572.617C756.014 597.022 735.747 621.739 705.347 630.187C666.69 640.825 616.773 624.555 587.124 648.022C562.728 667.42 569.484 700.586 559.351 727.181C549.217 754.089 522.57 773.487 500.426 794.45C422.736 868.603 397.215 974.671 417.857 1071.66C424.237 1101.7 435.497 1132.05 459.142 1155.2C477.532 1173.66 503.054 1186.49 528.95 1196.5C589.376 1219.97 656.932 1229.67 723.362 1225.29C758.266 1222.79 794.672 1215.9 820.944 1196.19C849.092 1175.54 861.477 1143.63 865.231 1112.34C868.984 1081.05 865.981 1049.76 868.233 1018.79C871.61 977.8 885.123 936.813 913.646 903.647C942.17 870.481 986.832 845.45 1035.62 841.383C1084.41 837.315 1136.58 856.714 1160.98 892.383C1184.62 927.113 1179.37 970.291 1167.36 1009.09C1155.35 1047.89 1137.71 1086.06 1138.08 1126.11C1138.08 1150.2 1147.47 1176.48 1172.24 1188.37C1201.14 1202.14 1236.79 1191.19 1267.19 1180.23C1291.96 1171.16 1317.86 1161.46 1335.12 1143.94C1352.39 1126.11 1358.77 1102.64 1362.52 1080.11C1386.54 934.935 1427.82 754.089 1294.96 658.034C1150.09 553.531 1080.66 661.788 1018.36 616.733C976.323 586.384 993.588 473.746 888.5 466.237H889.25Z" fill="#9DC0EB" stroke="black" stroke-width="20" stroke-miterlimit="10"/>
<path d="M564.232 946.823C503.431 975.921 504.557 1058.52 542.088 1107.64C548.093 1115.47 555.224 1122.98 564.232 1128.61C575.866 1135.8 590.504 1139.25 604.766 1141.44C657.31 1149.26 715.483 1137.06 751.888 1104.52C788.294 1071.98 797.677 1018.47 767.276 981.866C748.51 959.338 717.735 945.259 685.834 939.001C653.932 932.744 614.899 922.731 564.232 946.823Z" fill="white" stroke="black" stroke-width="20" stroke-miterlimit="10"/>
<path d="M653.93 1068.54C668.232 1068.54 679.827 1058.87 679.827 1046.95C679.827 1035.02 668.232 1025.36 653.93 1025.36C639.628 1025.36 628.033 1035.02 628.033 1046.95C628.033 1058.87 639.628 1068.54 653.93 1068.54Z" fill="black"/>
</svg>
