<svg width="1760" height="1760" viewBox="0 0 1760 1760" fill="none" xmlns="http://www.w3.org/2000/svg">
<g clip-path="url(#clip0_10_99)">
<path d="M1760 0H0V1760H1760V0Z" fill="white"/>
<path d="M479.938 947.503C454.783 919.268 424.494 896.679 399.34 868.957C374.185 841.234 353.65 805.298 356.217 767.821C358.784 730.345 391.638 693.382 429.114 697.489C464.536 701.596 487.124 736.505 518.953 751.907C568.749 776.036 635.487 750.88 679.123 784.25C704.278 803.245 714.031 836.101 727.378 864.85C740.726 893.599 765.881 922.861 797.196 920.295C817.731 918.754 835.185 903.353 846.993 886.925C875.741 846.368 882.927 794.517 882.927 744.72C882.927 695.949 877.281 647.178 865.987 599.947C857.26 563.497 849.046 516.267 880.875 496.758C894.736 488.031 912.19 488.544 928.617 488.031C980.981 487.004 1032.83 476.223 1081.6 456.715C1121.64 440.8 1164.25 418.212 1204.81 432.586C1238.18 444.394 1258.2 477.763 1274.62 508.566C1310.56 576.332 1342.9 646.151 1371.14 717.511C1395.26 779.116 1416.31 851.502 1382.43 909C1362.92 941.856 1328.53 962.905 1301.32 989.6C1263.33 1026.56 1237.15 1077.9 1237.66 1130.78C1237.66 1160.04 1246.39 1188.79 1247.93 1217.54C1251.01 1271.44 1228.42 1328.43 1183.76 1359.75C1139.1 1391.06 1073.9 1391.57 1032.83 1355.64C982.521 1311.49 978.413 1226.27 921.943 1189.82C877.281 1161.07 816.704 1174.93 771.014 1201.63C725.325 1228.32 686.309 1267.34 639.08 1290.44C591.85 1313.54 527.68 1318.68 490.204 1280.69C445.542 1234.99 462.997 1160.04 481.478 1098.95C499.959 1037.86 503.039 973.172 479.938 947.503Z" fill="#FCFFA6" stroke="black" stroke-width="20" stroke-miterlimit="10"/>
<path d="M992.273 808.378C979.952 750.879 1011.27 690.301 1059.01 655.391C1070.82 647.177 1083.14 639.476 1097.51 636.396C1124.21 630.236 1152.44 638.45 1175.54 652.824C1216.61 678.493 1244.34 723.67 1249.47 771.414C1249.47 776.548 1249.98 782.195 1246.39 785.789C1243.82 788.356 1240.74 788.869 1237.15 789.896C1174.01 805.811 1110.35 817.618 1046.18 825.832C1026.16 828.399 996.893 829.426 992.273 808.378Z" fill="white" stroke="black" stroke-width="20" stroke-miterlimit="10"/>
<path d="M1119.59 751.393C1130.08 751.393 1138.58 742.2 1138.58 730.858C1138.58 719.517 1130.08 710.323 1119.59 710.323C1109.1 710.323 1100.59 719.517 1100.59 730.858C1100.59 742.2 1109.1 751.393 1119.59 751.393Z" fill="black"/>
</g>
<defs>
<clipPath id="clip0_10_99">
<rect width="1760" height="1760" fill="white"/>
</clipPath>
</defs>
</svg>
