<svg width="1760" height="1760" viewBox="0 0 1760 1760" fill="none" xmlns="http://www.w3.org/2000/svg">
<rect width="1760" height="1760" fill="white"/>
<path d="M1037.38 425.321C1029.82 395.017 998.051 374.183 967.038 374.94C936.026 375.698 906.904 393.881 888.372 419.26C869.84 444.64 861.519 475.702 857.737 506.764C853.199 544.645 850.93 591.238 816.135 607.147C789.66 619.269 759.782 604.875 732.173 596.92C704.564 588.965 665.987 593.132 658.423 621.163C655.776 631.77 658.423 642.755 658.801 653.361C661.071 693.136 634.596 729.122 629.68 768.518C624.763 806.398 640.647 846.173 670.147 870.037C698.891 893.523 740.872 904.13 755.622 938.222C760.917 949.965 761.673 962.844 761.295 975.724C760.16 1024.21 737.468 1074.59 695.109 1098.08C652.75 1121.56 591.859 1110.58 567.654 1068.15C551.391 1039.36 568.032 1010.57 527.942 989.74C451.545 949.965 425.071 1038.61 421.288 1063.99C411.833 1131.79 450.032 1209.07 491.635 1263.24C533.237 1317.41 609.256 1347.71 673.93 1324.6C768.859 1290.89 811.218 1161.72 910.686 1145.43C929.218 1142.4 949.263 1143.91 965.904 1153.38C998.43 1171.57 1009.4 1212.86 1013.56 1249.98C1017.72 1287.1 1019.23 1327.25 1042.3 1356.42C1060.83 1379.53 1090.33 1391.65 1119.46 1393.92C1148.58 1396.2 1178.08 1390.51 1206.44 1382.94C1233.29 1375.74 1260.15 1367.03 1281.33 1349.22C1317.26 1318.92 1329.74 1267.4 1324.82 1220.43C1319.9 1173.46 1300.99 1129.14 1283.97 1085.2C1266.96 1041.26 1251.07 995.043 1253.34 948.071C1255.99 898.448 1278.3 851.855 1288.89 802.989C1299.48 754.123 1294.19 695.788 1254.47 665.862C1211.74 634.042 1146.69 647.679 1104.71 615.102C1073.31 590.859 1063.86 548.433 1056.67 509.795C1051.38 481.763 1043.81 454.868 1036.63 424.943L1037.38 425.321Z" fill="url(#paint0_linear_76_54)" stroke="black" stroke-width="20" stroke-miterlimit="10"/>
<path d="M1124.37 1153C1085.8 1173.46 1086.55 1231.8 1110.38 1266.65C1114.16 1272.33 1118.7 1277.63 1124.37 1281.42C1131.94 1286.34 1141.01 1288.99 1150.09 1290.51C1183.37 1295.81 1220.06 1287.48 1242.75 1264.37C1265.44 1241.27 1271.49 1203.39 1252.58 1177.63C1240.86 1161.72 1221.19 1151.87 1201.15 1147.32C1181.1 1142.78 1156.14 1135.96 1124.37 1152.63V1153Z" fill="white" stroke="black" stroke-width="20" stroke-miterlimit="10"/>
<path d="M1181.1 1238.99C1190.08 1238.99 1197.37 1232.21 1197.37 1223.84C1197.37 1215.47 1190.08 1208.69 1181.1 1208.69C1172.12 1208.69 1164.84 1215.47 1164.84 1223.84C1164.84 1232.21 1172.12 1238.99 1181.1 1238.99Z" fill="black"/>
<defs>
<linearGradient id="paint0_linear_76_54" x1="471.212" y1="1078.76" x2="1344.37" y2="794.712" gradientUnits="userSpaceOnUse">
<stop stop-color="#FF993F"/>
<stop offset="0.04" stop-color="#FFB33E"/>
<stop offset="0.08" stop-color="#FFC93E"/>
<stop offset="0.13" stop-color="#FFDA3D"/>
<stop offset="0.19" stop-color="#FFE63D"/>
<stop offset="0.27" stop-color="#FFED3D"/>
<stop offset="0.5" stop-color="#FFEF3D"/>
<stop offset="0.75" stop-color="#9DFF94"/>
<stop offset="1" stop-color="#40FFC9"/>
</linearGradient>
</defs>
</svg>
