<svg width="1760" height="1760" viewBox="0 0 1760 1760" fill="none" xmlns="http://www.w3.org/2000/svg">
<rect width="1760" height="1760" fill="white"/>
<path d="M525.768 655.947C498.036 650.89 470.738 667.146 465.971 690.264C461.205 713.383 472.037 736.862 475.07 759.981C483.737 825.002 434.773 886.411 433.04 951.432C431.74 1005.26 462.505 1055.83 487.637 1105.31C512.768 1154.8 533.133 1211.52 511.468 1262.09C501.935 1283.76 485.037 1304.71 487.637 1327.83C490.237 1350.59 512.335 1369.01 537.467 1377.68C562.598 1386.35 590.764 1387.43 618.062 1388.16C657.059 1388.88 696.924 1389.24 734.621 1380.57C772.319 1371.9 807.849 1351.67 824.314 1322.05C832.98 1306.16 835.581 1288.1 844.247 1272.2C861.146 1240.05 902.31 1218.38 944.341 1219.1C986.371 1219.82 1026.24 1242.94 1041.83 1275.45C1053.97 1301.46 1054.4 1335.78 1083.86 1349.51C1093.83 1354.2 1105.1 1355.28 1116.36 1356.37C1170.09 1361.06 1224.69 1361.79 1278.42 1357.81C1290.55 1357.09 1303.55 1355.65 1313.52 1349.87C1327.38 1341.92 1333.45 1327.11 1337.35 1313.38C1350.35 1269.67 1355.98 1224.52 1353.38 1179.73C1352.51 1164.56 1350.78 1149.02 1343.85 1134.94C1334.75 1116.51 1317.85 1102.06 1304.42 1085.81C1266.72 1041.38 1253.72 983.219 1269.32 930.119C1279.72 894.719 1302.25 862.57 1316.55 828.254C1330.85 793.937 1336.48 753.84 1314.38 722.413C1293.15 692.07 1250.25 676.537 1208.66 669.674C1167.06 662.811 1125.03 659.199 1083 655.225C954.306 642.582 973.371 567.808 982.904 509.289C989.837 466.303 990.704 372.745 902.31 371.3C854.646 370.578 812.183 399.114 821.282 483.642C827.782 543.967 832.547 569.253 798.749 619.464C764.952 669.675 639.727 676.537 526.202 655.225L525.768 655.947Z" fill="#FFD58C" stroke="black" stroke-width="20" stroke-miterlimit="10"/>
<path d="M813.48 869.793C802.648 875.934 791.382 882.797 786.616 891.828C781.416 901.581 786.616 910.612 792.249 917.836C815.214 948.902 842.512 977.077 873.71 1002.36C880.643 1007.78 888.01 1013.56 898.409 1015.37C921.374 1019.34 949.106 1004.17 972.938 990.082C1009.77 968.047 1052.67 936.62 1048.33 907C1046.6 896.885 1039.23 888.938 1031.43 881.713C1009.33 861.123 985.503 842.34 959.072 825.362C951.272 820.305 942.605 815.248 931.339 815.248C920.073 815.248 842.946 853.176 813.914 869.432L813.48 869.793Z" fill="white" stroke="black" stroke-width="20" stroke-miterlimit="10"/>
<path d="M937.063 929.696C947.875 922.125 950.899 910.292 943.819 903.265C936.739 896.238 922.235 896.679 911.424 904.25C900.613 911.82 897.588 923.654 904.668 930.681C911.749 937.708 926.252 937.267 937.063 929.696Z" fill="black"/>
</svg>
