<svg width="1760" height="1760" viewBox="0 0 1760 1760" fill="none" xmlns="http://www.w3.org/2000/svg">
<rect width="1760" height="1760" fill="white"/>
<path d="M600.332 386.046C561.639 384.58 534.379 418.303 527.783 450.193C521.188 482.083 526.464 515.439 513.273 545.496C505.798 563.091 492.168 579.219 490.409 597.913C487.771 625.038 510.634 648.864 519.868 675.256C536.136 723.641 503.599 772.392 486.891 820.41C468.864 872.827 469.744 929.642 489.53 981.692C497.005 1001.49 507.557 1020.91 524.705 1035.94C566.476 1072.23 636.386 1072.23 694.865 1059.77C729.601 1052.44 766.535 1041.81 800.391 1051.7C840.843 1063.8 861.949 1101.92 864.587 1137.84C867.225 1173.77 855.793 1208.95 853.154 1244.51C850.516 1280.07 858.431 1319.65 890.528 1343.11C906.357 1354.84 927.022 1361.07 947.248 1366.21C977.147 1373.54 1009.24 1377.94 1038.7 1369.5C1085.31 1356.31 1112.13 1314.52 1120.49 1274.2C1128.84 1233.88 1123.56 1192.09 1128.84 1151.41C1134.12 1110.72 1154.34 1067.47 1197.43 1047.67C1247.56 1024.58 1319.67 1037.04 1357.04 1000.75C1371.11 987.191 1376.83 969.231 1381.66 951.636C1387.38 931.109 1391.78 910.582 1395.29 889.689C1397.05 879.059 1398.37 868.428 1394.41 858.165C1387.82 840.937 1366.71 829.941 1345.17 825.542C1323.62 821.144 1301.64 821.877 1280.09 819.677C1252.83 816.745 1225.13 808.314 1206.23 791.819C1187.32 775.324 1177.65 749.666 1187.76 728.406C1208.86 684.054 1288.45 685.52 1326.7 650.331C1347.37 631.27 1353.52 604.145 1356.16 578.12C1359.24 550.262 1360.12 522.037 1358.8 494.179C1357.92 474.019 1354.84 452.759 1339.01 437.73C1315.27 415.37 1274.38 415.737 1238.32 417.57C1058.49 425.634 879.096 397.776 599.892 386.413L600.332 386.046Z" fill="#99E6FF" stroke="black" stroke-width="20" stroke-miterlimit="10"/>
<path d="M983.742 671.222C907.236 574.452 759.06 632.735 729.601 711.177C680.795 841.302 870.301 854.865 938.014 831.406C1027.71 800.615 1015.4 711.176 983.742 671.222Z" fill="white" stroke="black" stroke-width="20" stroke-miterlimit="10"/>
<path d="M853.597 762.495C869.138 762.495 881.736 753.304 881.736 741.968C881.736 730.631 869.138 721.441 853.597 721.441C838.056 721.441 825.456 730.631 825.456 741.968C825.456 753.304 838.056 762.495 853.597 762.495Z" fill="black"/>
</svg>
