<svg width="1760" height="1760" viewBox="0 0 1760 1760" fill="none" xmlns="http://www.w3.org/2000/svg">
<rect width="1760" height="1760" fill="white"/>
<path d="M636.41 406.06C614.975 404.712 602.438 426.289 600.011 443.821C595.967 473.154 602.437 502.486 602.841 532.156C603.246 561.825 595.967 593.18 570.488 613.746C545.413 633.639 509.015 641.394 482.728 659.937C441.88 688.933 442.688 736.134 508.61 762.432C542.582 776.255 588.283 765.129 616.593 786.033C640.859 804.239 640.05 835.931 633.983 862.566C627.512 890.213 615.784 919.209 588.283 935.729C559.973 952.924 520.743 950.902 490.411 965.399C412.76 1002.15 408.312 1054.07 403.459 1111.05C401.032 1140.04 400.224 1168.7 401.842 1197.7C402.651 1214.22 405.481 1232.76 420.445 1243.89C431.365 1251.98 446.733 1254 460.888 1255.69C548.245 1265.8 637.623 1266.81 725.384 1258.72C754.908 1256.03 786.857 1250.97 804.652 1231.08C825.278 1208.15 817.594 1175.78 821.234 1147.46C824.873 1117.12 843.881 1087.11 875.427 1072.28C906.972 1057.44 951.863 1061.15 974.916 1084.75C1013.34 1123.86 979.769 1192.64 1023.45 1227.37C1045.29 1244.56 1078.05 1246.25 1107.97 1247.26C1146.8 1248.27 1185.22 1249.28 1224.04 1250.29C1232.54 1250.29 1241.43 1250.63 1249.52 1247.93C1264.08 1242.88 1271.36 1229.05 1275.41 1216.24C1288.75 1177.13 1291.18 1136.34 1293.2 1095.88C1296.44 1037.89 1299.27 979.897 1302.5 921.906C1303.31 906.06 1305.33 888.528 1319.08 877.739C1327.98 870.996 1340.11 868.636 1351.03 864.927C1391.07 851.441 1421 817.388 1421 781.312C1421 745.237 1390.26 709.836 1348.2 701.744C1324.34 697.024 1293.2 697.698 1283.09 679.154C1279.05 672.074 1279.85 663.645 1280.26 655.891C1283.9 614.421 1287.13 572.951 1290.77 531.144C1291.18 525.413 1291.58 519.343 1287.94 514.623C1283.09 508.554 1272.98 506.868 1264.08 506.194C1222.02 502.148 1200.18 499.789 1147.61 493.046C1001.61 474.502 1053.78 647.125 932.855 631.616C879.875 624.872 875.831 605.655 853.183 531.481C837.814 480.57 828.513 463.375 798.989 438.763C769.466 414.151 710.825 410.78 636.815 406.397L636.41 406.06Z" fill="#FFE0F6" stroke="black" stroke-width="20" stroke-miterlimit="10"/>
<path d="M1085.73 783.674C1045.29 731.752 928.409 730.74 853.59 749.621C841.457 752.655 830.134 756.365 821.236 761.759C809.912 768.839 803.441 777.943 799.397 787.046C784.029 821.098 796.971 860.882 841.458 889.203C885.945 917.187 963.191 929.999 1018.6 914.153C1052.97 904.375 1075.62 885.832 1087.35 865.266C1099.08 844.699 1111.21 816.715 1085.73 783.674Z" fill="white" stroke="black" stroke-width="20" stroke-miterlimit="10"/>
<path d="M965.789 834.407C966.911 824.957 953.765 816.137 936.428 814.708C919.091 813.278 904.127 819.779 903.005 829.229C901.884 838.679 915.029 847.5 932.367 848.93C949.704 850.36 964.668 843.858 965.789 834.407Z" fill="black"/>
</svg>
