<svg width="1760" height="1760" viewBox="0 0 1760 1760" fill="none" xmlns="http://www.w3.org/2000/svg">
<rect width="1760" height="1760" fill="white"/>
<path d="M508.586 461C471.538 510.187 462.39 648.217 464.22 656.606C474.282 698.549 601.432 665.375 616.069 749.261C622.015 782.053 617.441 818.276 589.083 841.916C568.044 859.456 538.314 869.37 519.104 888.816C496.693 911.313 493.034 942.579 491.205 971.939C486.174 1038.67 484.344 1105.77 485.717 1172.5C518.648 1178.6 552.951 1172.12 586.339 1167.16C674.156 1153.82 764.26 1151.91 852.534 1161.83C865.798 1163.35 879.977 1165.64 888.21 1173.65C895.071 1180.13 896.9 1189.28 898.272 1198.05C903.761 1238.09 898.73 1279.26 909.707 1318.54C920.684 1357.81 952.7 1397.47 1000.72 1403.57C1056.07 1410.43 1105.46 1369.25 1122.39 1324.64C1139.31 1280.03 1132.45 1231.98 1135.65 1185.47C1136.11 1178.98 1137.02 1171.74 1142.51 1166.78C1148.92 1160.68 1159.44 1160.3 1169.04 1159.92C1211.12 1158.39 1253.66 1156.87 1295.74 1155.34C1306.71 1154.96 1318.6 1154.2 1327.29 1148.48C1337.81 1141.62 1340.1 1129.41 1341.93 1118.74C1349.71 1066.12 1350.62 1012.74 1345.13 959.738C1344.22 949.824 1342.39 939.529 1335.07 931.903C1328.21 925.039 1317.69 921.607 1307.17 919.319C1229.42 902.542 1138.85 938.385 1070.25 903.306C1035.94 885.766 1015.82 851.449 1018.11 817.895C1020.39 784.341 1045.55 753.074 1080.77 737.059C1125.13 716.85 1179.1 720.663 1229.41 726.383C1247.25 728.289 1266.92 729.815 1281.1 720.664C1294.82 711.512 1297.56 695.117 1299.39 680.628C1307.17 613.901 1314.94 547.173 1322.72 480.827C1283.39 481.59 1244.51 482.735 1205.17 483.116C991.577 486.929 777.982 484.259 508.586 461Z" fill="#9DC0EB" stroke="black" stroke-width="20" stroke-miterlimit="10"/>
<path d="M944.47 944.486C952.702 959.357 943.097 995.199 923.887 1019.6C893.7 1057.73 837.9 1075.65 791.247 1062.31C744.595 1048.96 709.833 1005.49 709.376 958.976C709.376 956.307 709.376 953.637 710.748 951.349C712.578 948.299 716.695 946.774 719.896 945.63C798.565 918.177 931.663 922.371 944.47 944.486Z" fill="#FAFCFF" stroke="black" stroke-width="20" stroke-miterlimit="10"/>
<path d="M828.295 1019.98C835.874 1019.98 842.016 1014.86 842.016 1008.55C842.016 1002.23 835.874 997.105 828.295 997.105C820.717 997.105 814.573 1002.23 814.573 1008.55C814.573 1014.86 820.717 1019.98 828.295 1019.98Z" fill="black" stroke="black" stroke-width="20" stroke-miterlimit="10"/>
</svg>
