<svg width="1760" height="1760" viewBox="0 0 1760 1760" fill="none" xmlns="http://www.w3.org/2000/svg">
<rect width="1760" height="1760" fill="white"/>
<path d="M634.78 497.015L610.056 660.577C608.062 673.542 605.271 687.838 593.307 696.149C578.951 706.122 558.215 703.795 539.472 702.132C499.993 698.476 457.723 700.803 423.428 718.09C389.133 735.377 360.821 770.615 366.802 803.527C371.986 832.45 399.9 869.018 446.159 871.013C492.417 873.008 611.252 860.043 635.178 879.657C659.105 899.271 659.903 909.577 661.897 938.832C665.486 991.025 657.511 1043.22 663.492 1095.41C669.474 1147.61 691.407 1201.46 740.855 1233.04C780.334 1258.31 831.377 1265.96 880.825 1268.95C917.911 1270.94 957.391 1270.28 990.091 1255.32C1025.98 1239.36 1049.51 1208.11 1059.88 1175.53C1070.24 1142.95 1069.05 1108.38 1065.46 1074.47C1061.07 1034.58 1053.1 994.349 1063.07 955.121C1073.04 915.893 1106.53 877.663 1153.59 871.679C1195.86 866.027 1238.93 886.971 1280.8 878.992C1310.31 873.341 1333.84 854.059 1347.39 831.785C1360.95 809.511 1366.54 784.246 1370.12 759.313C1377.3 713.103 1380.49 666.228 1379.69 619.686C1379.69 607.386 1378.9 553.198 1370.92 542.892C1361.75 530.592 899.967 468.757 634.78 497.015Z" fill="#FF3B83" stroke="black" stroke-width="20" stroke-miterlimit="10"/>
<path d="M770.363 1011.64C761.988 1011.64 755.209 1016.62 755.209 1023.6C755.209 1043.55 756.007 1082.11 764.381 1103.39C776.345 1132.98 801.866 1159.91 837.756 1168.88C850.517 1172.21 863.676 1172.87 876.835 1172.87C901.161 1172.54 926.284 1168.22 945.425 1155.92C963.769 1144.28 975.733 1126.66 982.113 1108.38C987.297 1093.42 990.487 1042.89 991.683 1024.93C991.683 1021.28 988.494 1018.29 983.708 1017.95L770.363 1011.64Z" fill="white" stroke="black" stroke-width="20" stroke-miterlimit="10"/>
<path d="M873.247 1102.4C879.854 1102.4 885.211 1097.93 885.211 1092.42C885.211 1086.91 879.854 1082.45 873.247 1082.45C866.64 1082.45 861.284 1086.91 861.284 1092.42C861.284 1097.93 866.64 1102.4 873.247 1102.4Z" fill="black" stroke="black" stroke-width="20" stroke-miterlimit="10"/>
</svg>
