<svg width="1760" height="1760" viewBox="0 0 1760 1760" fill="none" xmlns="http://www.w3.org/2000/svg">
<rect width="1760" height="1760" fill="white"/>
<path d="M863.46 359.412C825.962 370.863 797.746 397.172 784.751 428.742C771.757 460.312 769.158 493.739 758.392 525.928C747.625 558.117 726.462 590.306 690.077 603.615C652.951 617.234 603.201 611.044 578.697 637.662C567.93 649.423 565.333 664.898 563.476 679.755C554.195 758.989 556.421 844.105 504.815 911.268C490.707 929.529 423.879 1170.95 639.957 1163.83C834.13 1157.33 742.426 995.764 768.044 941.6C811.482 849.366 903.928 849.056 961.103 893.316C994.889 919.315 997.488 961.718 990.434 999.788C975.212 1082.74 950.708 1165.07 944.396 1248.94C941.426 1289.49 944.396 1333.75 974.84 1365.01C1007.88 1398.44 1065.06 1408.34 1116.66 1403.08C1184.61 1395.96 1248.84 1364.7 1289.68 1318.89C1330.51 1273.08 1347.96 1213.04 1336.45 1156.4C1311.21 1031.67 1157.88 939.433 1156.02 813.153C1155.28 755.894 1186.83 700.492 1183.49 643.233C1181.64 608.568 1167.16 571.117 1186.83 540.475C1192.03 532.428 1199.46 524.381 1197.6 515.405C1196.12 508.905 1190.18 504.262 1183.49 500.548C1151.56 483.216 1108.13 490.335 1073.6 477.026C1015.31 454.432 947.366 333.413 863.46 359.721V359.412Z" fill="#99E6FF" stroke="black" stroke-width="20" stroke-miterlimit="10"/>
<path d="M1002.31 644.161C1008.99 653.756 1002.31 676.659 987.833 692.135C965.186 715.967 922.118 726.8 885.363 717.515C848.607 708.229 820.762 679.754 819.277 649.732C819.277 648.184 819.277 646.327 820.391 644.78C821.876 642.923 824.846 641.994 827.445 641.066C888.333 624.662 992.288 629.614 1002.31 643.851V644.161Z" fill="#FAFCFF" stroke="black" stroke-width="20" stroke-miterlimit="10"/>
<path d="M912.096 649.731C918.247 649.731 923.233 645.574 923.233 640.446C923.233 635.318 918.247 631.16 912.096 631.16C905.944 631.16 900.958 635.318 900.958 640.446C900.958 645.574 905.944 649.731 912.096 649.731Z" fill="black" stroke="black" stroke-width="20" stroke-miterlimit="10"/>
</svg>
