<svg width="1760" height="1760" viewBox="0 0 1760 1760" fill="none" xmlns="http://www.w3.org/2000/svg">
<g clip-path="url(#clip0_10_614)">
<path d="M1760 0H0V1760H1760V0Z" fill="white"/>
<path d="M480.28 522.757C435.219 553.305 435.22 688.706 457.998 772.093C494.641 906.255 630.814 1008.22 674.885 1140.32C690.73 1186.96 694.691 1236.91 721.925 1279.43C762.53 1343.42 861.565 1380.98 942.279 1353.74C1000.71 1333.92 1039.33 1286.86 1062.11 1237.74C1084.89 1188.62 1094.79 1136.19 1116.08 1086.65C1152.23 1001.2 1220.07 927.72 1279 851.351C1373.58 729.16 1407.74 633.39 1377.04 582.202C1329.01 502.117 1249.78 528.95 1188.38 520.694C1096.77 507.897 1042.8 418.318 951.687 404.695C897.713 396.439 843.243 417.492 797.191 443.086C751.14 468.68 709.051 499.641 657.553 515.74C606.055 531.84 537.72 483.54 480.28 522.344V522.757Z" fill="#FF6640" stroke="black" stroke-width="20" stroke-miterlimit="10"/>
<path d="M1050.22 728.337C964.064 619.356 796.695 684.992 763.518 773.332C708.554 919.879 921.975 935.152 998.232 908.733C1099.25 874.057 1085.87 773.333 1050.22 728.337Z" fill="white" stroke="black" stroke-width="20" stroke-miterlimit="10"/>
<path d="M902.663 831.125C920.166 831.125 934.355 820.775 934.355 808.008C934.355 795.241 920.166 784.891 902.663 784.891C885.161 784.891 870.973 795.241 870.973 808.008C870.973 820.775 885.161 831.125 902.663 831.125Z" fill="black"/>
</g>
<defs>
<clipPath id="clip0_10_614">
<rect width="1760" height="1760" fill="white"/>
</clipPath>
</defs>
</svg>
