<svg width="1760" height="1760" viewBox="0 0 1760 1760" fill="none" xmlns="http://www.w3.org/2000/svg">
<rect width="1760" height="1760" fill="white"/>
<path d="M826.17 526C754.519 526 740.576 587.67 702.62 611.563C683.642 623.509 665.439 630.613 642.201 635.779C591.077 647.402 568.613 690.668 549.248 731.997C526.397 781.397 498.124 828.86 464.816 874.063C430.733 920.558 390.454 965.761 374.187 1018.71C363.73 1051.65 367.216 1093.3 402.073 1111.38C429.959 1125.91 465.977 1119.13 498.124 1113.32C550.41 1103.95 603.47 1098.79 656.531 1097.5C711.915 1096.2 779.694 1093.3 802.932 1051.32C819.973 1020.97 802.158 984.811 808.355 951.554C816.488 906.028 871.485 872.449 926.87 870.512C947.009 869.866 968.311 872.772 984.577 883.104C1009.36 898.925 1016.34 927.984 1012.85 953.815C1009.37 979.645 997.359 1004.18 990.775 1029.69C988.451 1039.05 986.901 1049.06 990.775 1058.1C1000.46 1081.67 1037.25 1086.2 1067.07 1086.2C1141.05 1086.2 1215.02 1082.64 1288.61 1075.86C1323.86 1072.63 1362.59 1067.15 1385.44 1044.87C1419.52 1011.61 1402.48 961.564 1383.89 920.558C1346.32 838.547 1392.8 718.113 1355.23 636.102C1345.93 616.083 1307.98 554.737 1285.51 564.746C1184.04 610.272 1134.08 596.387 1081.02 591.221C990.388 582.181 894.723 526.645 825.783 526.645L826.17 526Z" fill="#3EC790" stroke="black" stroke-width="20" stroke-miterlimit="10"/>
<path d="M989.609 693.573C995.806 702.937 989.609 724.892 976.053 739.745C955.526 762.992 916.796 773.647 883.488 764.929C850.18 756.211 825.779 729.09 824.617 700.353C824.617 698.739 824.618 697.125 825.393 695.51C826.554 693.573 829.265 692.604 831.976 691.958C886.586 675.814 980.313 679.689 989.221 693.573H989.609Z" fill="#FAFCFF" stroke="black" stroke-width="20" stroke-miterlimit="10"/>
<path d="M908.278 731.674C914.695 731.674 919.898 727.338 919.898 721.988C919.898 716.639 914.695 712.301 908.278 712.301C901.861 712.301 896.659 716.639 896.659 721.988C896.659 727.338 901.861 731.674 908.278 731.674Z" fill="black" stroke="black" stroke-width="20" stroke-miterlimit="10"/>
</svg>
