<svg width="1760" height="1760" viewBox="0 0 1760 1760" fill="none" xmlns="http://www.w3.org/2000/svg">
<g clip-path="url(#clip0_10_93)">
<mask id="mask0_10_93" style="mask-type:luminance" maskUnits="userSpaceOnUse" x="0" y="0" width="1760" height="1760">
<path d="M1760 0H0V1760H1760V0Z" fill="white"/>
</mask>
<g mask="url(#mask0_10_93)">
<path d="M1760 0H0V1760H1760V0Z" fill="white"/>
<path d="M541.315 751.752C521.854 777.384 539.891 814.408 537.043 846.211C531.822 905.07 461.573 931.651 424.075 977.219C365.693 1049.37 396.071 1154.27 394.647 1247.3C394.647 1263.44 393.698 1281.01 403.665 1293.82C408.887 1300.47 416.956 1304.74 424.55 1308.54C465.371 1328 513.785 1334.64 556.029 1319.45C595.426 1305.69 626.278 1274.84 659.979 1250.63C693.679 1226.42 737.823 1207.91 776.745 1222.62C807.123 1234.01 826.583 1262.49 848.417 1286.23C875.947 1316.61 911.547 1342.24 951.893 1349.36C992.238 1356.48 1031.16 1334.17 1052.52 1299.04C1063.91 1280.53 1065.34 1251.1 1069.13 1229.74C1077.2 1185.12 1099.51 1150.47 1137.01 1124.84C1174.98 1099.21 1220.07 1078.8 1264.69 1067.88C1328.29 1052.69 1385.73 1025.16 1399.97 961.555C1414.21 897.95 1390 826.75 1339.21 785.453C1301.24 754.6 1251.4 739.885 1216.75 705.709C1205.83 695.267 1196.81 682.925 1184.47 674.381C1131.79 639.256 1057.27 690.52 998.883 665.363C962.809 649.699 944.298 609.352 938.127 570.429C931.957 531.506 934.804 491.634 925.786 453.661C916.767 415.688 893.035 361.575 851.74 356.829C773.896 347.81 756.809 414.264 746.841 465.528C736.874 516.792 747.791 569.954 741.146 622.168C734.501 674.381 687.51 736.088 635.772 744.632C592.104 751.752 559.827 727.544 541.315 751.752Z" fill="#FF82C1" stroke="black" stroke-width="20" stroke-miterlimit="10"/>
<path d="M1097.61 772.639C1152.19 767.417 1204.41 802.543 1230.99 850.485C1237.63 861.877 1242.85 874.693 1244.28 887.983C1247.12 913.141 1236.21 937.823 1220.54 957.759C1192.54 992.41 1147.92 1013.3 1103.3 1012.35C1098.56 1012.35 1093.34 1011.87 1090.49 1008.07C1088.59 1005.7 1088.12 1002.38 1087.64 999.53C1080.05 940.197 1076.25 879.914 1075.77 820.106C1075.77 801.119 1078.15 774.063 1097.61 772.639Z" fill="white" stroke="black" stroke-width="20" stroke-miterlimit="10"/>
<path d="M1174.89 899.477C1176.06 889.849 1168.57 881.016 1158.16 879.749C1147.75 878.482 1138.36 885.26 1137.19 894.889C1136.02 904.518 1143.51 913.351 1153.92 914.618C1164.33 915.885 1173.71 909.106 1174.89 899.477Z" fill="black"/>
</g>
</g>
<defs>
<clipPath id="clip0_10_93">
<rect width="1760" height="1760" fill="white"/>
</clipPath>
</defs>
</svg>
