<svg width="1760" height="1760" viewBox="0 0 1760 1760" fill="none" xmlns="http://www.w3.org/2000/svg">
<g clip-path="url(#clip0_10_608)">
<path d="M1760 0H0V1760H1760V0Z" fill="white"/>
<path d="M943.834 397.546C897.459 410.064 865.219 444.676 854.177 484.441C843.136 524.207 844.459 566.181 825.468 603.737C820.168 614.415 812.66 625.093 801.177 631.721C784.835 640.926 763.193 640.557 743.318 639.453C693.41 637.243 643.501 635.034 593.592 632.825C579.901 632.089 564.444 631.721 553.402 638.717C539.269 647.553 536.618 664.491 535.734 679.219C529.993 766.85 524.693 854.481 519.393 942.112C515.859 1004.71 512.769 1068.77 537.06 1128.05C555.169 1171.5 586.968 1210.16 624.068 1244.04C681.043 1296.32 751.711 1339.4 832.978 1358.55C914.245 1377.69 1006.11 1371.8 1076.78 1333.14C1118.73 1310.31 1151.86 1277.17 1178.36 1241.46C1223.85 1179.97 1252.12 1109.64 1259.19 1037.84C1270.67 927.384 1343.54 554.031 1245.49 533.78C1203.98 525.311 1153.18 551.453 1120.94 528.257C1107.69 518.684 1085.17 358.885 943.834 396.81V397.546Z" fill="#DAD4FF" stroke="black" stroke-width="20" stroke-miterlimit="10"/>
<path d="M1041 894.984C964.153 797.779 814.871 856.323 785.279 935.118C736.254 1065.83 926.612 1079.45 994.629 1055.89C1084.73 1024.96 1072.8 935.118 1041 894.984Z" fill="white" stroke="black" stroke-width="20" stroke-miterlimit="10"/>
<path d="M909.826 986.664C925.437 986.664 938.093 977.433 938.093 966.045C938.093 954.658 925.437 945.426 909.826 945.426C894.215 945.426 881.559 954.658 881.559 966.045C881.559 977.433 894.215 986.664 909.826 986.664Z" fill="black"/>
</g>
<defs>
<clipPath id="clip0_10_608">
<rect width="1760" height="1760" fill="white"/>
</clipPath>
</defs>
</svg>
