<svg width="1760" height="1760" viewBox="0 0 1760 1760" fill="none" xmlns="http://www.w3.org/2000/svg">
<g clip-path="url(#clip0_10_626)">
<path d="M1760 0H0V1760H1760V0Z" fill="white"/>
<path d="M709.787 706.994C668.157 647.5 691.836 562.457 647.728 503.788C603.124 444.293 488.145 435.205 430.656 486.436C382.088 529.818 381.592 595.923 383.575 655.418C387.539 764.491 391.504 873.152 395.469 982.225C396.956 1028.91 399.434 1077.66 425.205 1119.39C450.976 1161.12 506.978 1193.35 561.989 1182.61C596.185 1175.58 623.443 1153.69 657.144 1145.84C724.049 1130.14 788.973 1173.1 836.054 1215.25C883.136 1257.39 936.165 1306.55 1005.55 1306.97C1022.89 1306.97 1041.23 1303.66 1055.6 1295.4C1072.45 1285.07 1082.86 1268.96 1090.3 1252.84C1114.58 1203.26 1131.93 1140.46 1192.39 1123.11C1221.63 1114.85 1253.84 1119.81 1283.58 1113.2C1459.51 1073.95 1364.36 942.149 1278.62 790.52C1235.51 714.499 1211.72 626.496 1090.79 626.496C1076.91 626.496 1062.54 627.736 1050.65 633.52C1036.77 640.131 1028.84 652.525 1020.42 663.68C984.238 715.325 929.722 752.096 857.861 752.922C792.937 753.748 730.988 737.636 706.704 702.93L709.787 706.994Z" fill="#FF6640" stroke="black" stroke-width="20" stroke-miterlimit="10"/>
<path d="M987.711 988.838C988.702 1000.41 990.189 1013.21 997.127 1021.48C1005.06 1030.98 1016.95 1031.81 1027.36 1031.39C1071.96 1030.98 1116.07 1025.61 1158.69 1015.69C1168.11 1013.63 1178.02 1010.73 1184.96 1003.71C1200.82 988.424 1198.83 958.264 1195.86 932.648C1191.4 892.158 1180 841.753 1146.3 829.358C1134.41 824.814 1122.51 826.467 1111.11 828.533C1078.4 833.904 1046.19 842.167 1014.47 852.909C1005.06 856.214 995.64 859.933 989.693 868.609C983.746 877.285 984.737 957.438 987.215 988.424L987.711 988.838Z" fill="white" stroke="black" stroke-width="20" stroke-miterlimit="10"/>
<path d="M1098.04 951.674C1109.11 950.121 1116.05 938.829 1113.55 926.454C1111.05 914.078 1100.05 905.304 1088.99 906.858C1077.92 908.412 1070.98 919.705 1073.48 932.08C1075.98 944.456 1086.98 953.228 1098.04 951.674Z" fill="black"/>
</g>
<defs>
<clipPath id="clip0_10_626">
<rect width="1760" height="1760" fill="white"/>
</clipPath>
</defs>
</svg>
