<svg width="1760" height="1760" viewBox="0 0 1760 1760" fill="none" xmlns="http://www.w3.org/2000/svg">
<rect width="1760" height="1760" fill="white"/>
<path d="M884.28 392.095C810.823 418.679 769.255 485.138 753.88 550.173C738.506 615.208 743.631 683.092 733.95 749.077C731.103 766.166 727.117 784.68 711.173 796.548C699.215 805.567 682.701 808.415 666.757 810.789C618.356 817.434 568.815 819.808 519.844 816.96C495.928 815.536 471.443 813.162 447.527 816.96C423.61 820.758 399.694 829.778 387.736 847.342C369.514 873.926 383.181 907.155 397.986 935.638C454.36 1046.24 573.371 1174.89 546.608 1293.09C530.663 1364.78 684.41 1376.17 703.77 1369.52C718.006 1364.3 784.63 1282.65 815.379 1243.25C842.712 1208.12 876.877 1173.94 923.001 1156.85C969.125 1139.76 1028.92 1142.61 1063.65 1172.99C1095.54 1201.48 1097.82 1244.2 1105.79 1283.13C1113.76 1322.05 1135.4 1365.25 1180.95 1373.8C1215.69 1379.97 1252.13 1362.4 1272.06 1337.72C1291.99 1313.03 1299.4 1283.13 1306.23 1253.69C1321.03 1189.13 1332.42 1116.03 1288.01 1061.91C1265.8 1034.85 1231.63 1015.86 1201.45 994.976C1171.27 974.089 1142.23 947.98 1135.4 915.225C1128.57 880.097 1151.91 842.594 1190.06 825.504C1228.22 808.415 1277.19 812.213 1311.92 833.1C1330.71 844.018 1350.64 860.158 1372.28 853.512C1389.37 848.29 1395.63 831.676 1399.61 816.96C1416.13 749.551 1416.13 679.294 1399.61 611.885C1393.92 588.624 1381.39 561.566 1353.49 557.769C1343.81 556.345 1334.13 557.768 1324.45 560.142C1282.88 568.212 1241.88 578.18 1199.18 579.13C1156.47 580.079 1111.48 570.111 1082.44 544.477C1033.47 501.753 1037.46 424.376 977.097 393.519C945.209 376.905 907.627 385.449 884.849 393.519L884.28 392.095Z" fill="#FFD58C" stroke="black" stroke-width="20" stroke-miterlimit="10"/>
<path d="M1026.64 677.395C1036.89 657.458 1046.57 633.247 1027.21 616.157C1015.25 605.239 994.749 600.968 975.388 598.12C950.902 594.797 925.278 592.898 901.362 596.696C877.446 600.493 854.669 611.411 845.558 627.076C835.877 643.691 841.572 663.154 849.544 680.719C864.349 712.999 886.557 745.28 923.57 768.54C927.556 770.914 932.111 773.288 936.667 774.712C948.055 777.56 961.152 772.813 967.985 765.692C974.819 758.572 1014.68 700.656 1026.64 677.395Z" fill="white" stroke="black" stroke-width="20" stroke-miterlimit="10"/>
<path d="M962.98 661.261C963.519 653.146 953.009 646.062 939.506 645.439C926.004 644.815 914.622 650.888 914.083 659.003C913.543 667.118 924.052 674.202 937.554 674.826C951.056 675.449 962.44 669.376 962.98 661.261Z" fill="#030005"/>
</svg>
