<svg width="1760" height="1760" viewBox="0 0 1760 1760" fill="none" xmlns="http://www.w3.org/2000/svg">
<rect width="1760" height="1760" fill="white"/>
<path d="M830.122 544.503C849.707 519.469 874.949 496.973 884.959 468.31C894.969 439.647 887.571 406.993 864.504 384.498C841.437 362.003 802.703 350.755 768.321 358.375C711.742 370.711 699.121 412.798 697.815 461.417C696.509 510.035 717.835 553.212 713.483 601.467C708.696 654.802 655.164 659.881 605.984 663.51C586.399 664.961 576.824 676.934 572.907 693.262C568.99 709.589 571.601 726.278 572.907 742.605C575.954 779.25 572.472 816.259 562.462 852.179C560.721 858.709 558.545 865.602 553.322 870.682C541.136 883.018 518.069 881.93 500.225 876.125C482.381 870.32 465.843 860.524 446.693 859.072C419.275 856.895 392.291 873.222 383.151 894.991C374.012 916.761 380.54 941.795 397.078 960.299C413.182 978.803 437.554 991.14 455.833 1008.19C505.448 1054.63 501.096 1125.02 487.169 1186.34C481.946 1209.56 475.418 1233.14 477.594 1257.09C479.77 1281.04 491.521 1305.35 515.023 1318.41C553.757 1339.81 609.03 1322.4 636.884 1291.56C664.738 1260.72 672.137 1220.45 678.665 1182.35C685.194 1144.25 693.028 1103.98 721.752 1073.5C750.477 1043.02 806.62 1026.7 844.049 1049.19C865.81 1062.25 876.69 1085.11 879.302 1107.24C881.913 1129.38 877.126 1151.87 873.644 1174C867.116 1216.09 866.245 1259.99 886.7 1298.81C911.943 1346.71 968.957 1380.09 1030.32 1391.33C1091.69 1402.58 1156.54 1394.24 1214.86 1375.37C1233.57 1369.2 1252.72 1361.58 1264.04 1347.8C1274.05 1335.46 1276.66 1320.22 1278.83 1305.35C1297.98 1176.91 1355 1023.79 1349.77 894.628C1346.73 817.71 1385.9 782.153 1341.5 783.967C1219.21 789.047 1088.21 721.199 1056.44 720.836C1024.66 720.474 976.356 739.702 945.89 732.446C800.527 697.252 757.005 638.112 829.687 544.867L830.122 544.503Z" fill="#B7ABFF" stroke="black" stroke-width="20" stroke-miterlimit="10"/>
<path d="M1026.84 1095.63C1025.54 1112.32 1024.23 1130.83 1029.89 1144.61C1035.98 1159.49 1047.3 1163.12 1057.74 1164.93C1101.26 1173.28 1145.66 1174.73 1189.61 1168.92C1199.19 1167.83 1209.2 1166.02 1217.9 1157.31C1236.18 1138.45 1240.53 1095.27 1242.71 1057.9C1246.19 999.121 1244.89 924.743 1214.86 899.708C1204.41 891 1192.23 890.637 1180.47 891.363C1147.4 892.814 1113.89 897.893 1081.24 906.964C1071.67 909.504 1061.22 913.132 1053.83 924.38C1046.43 935.628 1031.63 1050.28 1027.71 1095.63H1026.84Z" fill="white" stroke="black" stroke-width="20" stroke-miterlimit="10"/>
<path d="M1142.17 1064.79C1153.23 1064.79 1162.19 1050.01 1162.19 1031.78C1162.19 1013.54 1153.23 998.759 1142.17 998.759C1131.12 998.759 1122.15 1013.54 1122.15 1031.78C1122.15 1050.01 1131.12 1064.79 1142.17 1064.79Z" fill="black"/>
</svg>
