<svg width="1760" height="1760" viewBox="0 0 1760 1760" fill="none" xmlns="http://www.w3.org/2000/svg">
<rect width="1760" height="1760" fill="white"/>
<path d="M831.57 636.989C808.725 586.447 858.809 532.607 856.173 478.768C854.415 445.073 831.131 412.842 795.545 396.361C759.959 379.88 714.708 379.88 679.561 396.361C631.674 418.702 608.389 465.217 594.33 509.9C580.272 554.583 571.485 601.463 539.414 638.82C520.083 661.162 493.284 679.108 480.543 704.38C471.317 722.693 470.439 742.837 469.56 762.981C463.849 877.618 446.715 991.522 417.719 1103.6C406.735 1146.81 395.752 1197.36 430.899 1230.69C453.744 1252.29 489.769 1259.62 523.598 1264.38C553.033 1268.78 583.786 1271.71 613.222 1266.58C680.879 1254.13 725.251 1200.29 752.929 1147.55C780.607 1094.81 800.377 1036.94 847.825 994.818C873.746 972.111 911.529 954.53 948.433 961.122C982.261 967.349 1006.86 993.353 1015.65 1021.19C1024.44 1049.02 1019.6 1078.69 1011.26 1106.89C995.881 1160.36 969.081 1212.01 960.734 1266.58C953.705 1313.09 965.127 1367.66 1012.58 1392.57C1061.78 1418.21 1130.76 1399.53 1166.78 1361.8C1202.81 1324.08 1212.03 1273.17 1210.27 1224.82C1208.52 1176.48 1198.41 1128.5 1200.61 1080.52C1206.32 960.757 1288.92 854.91 1338.12 742.47C1355.25 703.648 1400.95 625.635 1394.36 584.614C1387.77 547.257 1352.18 543.229 1296.38 524.916C1277.05 518.324 1255.09 505.138 1226.53 528.944C1176.45 571.796 1183.48 741.738 1024.44 706.577C961.173 692.66 856.612 693.025 831.57 637.355V636.989Z" fill="#99E6FF" stroke="black" stroke-width="20" stroke-miterlimit="10"/>
<path d="M689.226 490.122C661.109 512.829 651.443 578.755 654.519 620.874C654.958 627.467 655.837 634.059 658.033 639.187C660.669 645.413 664.623 649.075 668.577 651.639C683.954 660.429 704.163 653.104 721.297 628.198C738.431 603.293 750.293 559.71 747.218 528.212C745.021 508.801 737.992 495.982 728.766 489.389C719.54 482.797 707.239 475.838 689.226 490.122Z" fill="white" stroke="black" stroke-width="20" stroke-miterlimit="10"/>
<path d="M719.053 571.109C720.595 563.736 716.033 556.914 708.862 555.871C701.691 554.829 694.627 559.961 693.085 567.334C691.543 574.707 696.107 581.529 703.278 582.571C710.449 583.614 717.511 578.482 719.053 571.109Z" fill="black"/>
</svg>
