<svg width="1760" height="1760" viewBox="0 0 1760 1760" fill="none" xmlns="http://www.w3.org/2000/svg">
<rect width="1760" height="1760" fill="white"/>
<path d="M1042.05 548.397C1040.12 513.439 1026.62 478.078 996.258 453.969C965.892 429.86 917.211 420.618 881.061 437.896C844.429 455.175 829.487 491.338 815.509 524.288C801.531 557.237 781.77 593.401 742.246 604.652C715.254 612.286 682.96 607.464 660.306 621.93C646.328 630.77 640.062 645.235 633.796 658.495C594.273 746.092 554.749 833.69 515.707 921.286C482.449 994.82 449.673 1068.35 425.574 1143.89C413.524 1182.47 403.402 1224.66 423.163 1260.82C429.429 1272.07 438.587 1282.52 451.119 1288.95C459.313 1292.97 468.471 1294.98 477.629 1296.99C515.225 1305.43 552.821 1313.86 590.417 1322.3C623.674 1329.94 661.27 1336.77 690.19 1321.1C737.908 1294.58 725.858 1223.86 776.468 1200.95C809.725 1185.68 851.659 1201.35 879.615 1223.45C907.571 1245.56 928.297 1273.28 960.591 1289.76C993.366 1306.23 1032.89 1309.04 1070.97 1310.65C1100.37 1311.86 1129.29 1313.06 1158.69 1313.86C1182.31 1314.27 1207.37 1314.27 1227.14 1303.02C1260.39 1283.73 1258.95 1243.55 1260.39 1210.2C1264.73 1114.96 1318.71 1019.33 1286.9 927.716C1279.67 906.821 1268.1 886.73 1261.84 865.835C1255.57 844.94 1255.09 820.83 1269.07 802.347C1280.15 787.479 1298.47 778.238 1314.38 766.987C1367.88 729.216 1391.01 670.148 1411.74 614.295C1419.93 592.597 1428.13 570.095 1425.24 547.593C1422.34 525.091 1405.96 510.625 1380.41 503.392C1330.76 489.73 1306.18 523.886 1292.69 549.602C1254.61 621.126 1208.82 643.628 1122.06 618.716C1082.54 607.465 1043.98 580.542 1042.53 548.798L1042.05 548.397Z" fill="#FF82C1" stroke="black" stroke-width="20" stroke-miterlimit="10"/>
<path d="M808.276 991.202C816.47 977.138 825.146 961.869 826.592 948.609C828.038 934.143 820.326 927.714 813.096 923.294C781.284 904.007 746.098 890.345 708.02 883.112C699.826 881.505 690.669 880.299 680.547 885.121C657.411 895.97 635.721 932.134 617.887 963.878C589.931 1013.3 559.083 1077.59 573.061 1107.73C577.881 1118.18 587.521 1121.79 597.161 1124.61C624.635 1132.64 653.554 1137.46 684.402 1139.07C693.56 1139.47 703.2 1139.07 714.286 1131.84C725.372 1124.61 786.104 1029.78 808.758 992.005L808.276 991.202Z" fill="white" stroke="black" stroke-width="20" stroke-miterlimit="10"/>
<path d="M704.464 1018.51C712.322 1002.73 711.317 987.381 702.22 984.233C693.123 981.086 679.379 991.328 671.522 1007.11C663.664 1022.89 664.669 1038.24 673.766 1041.39C682.863 1044.53 696.607 1034.29 704.464 1018.51Z" fill="black"/>
</svg>
