<svg width="1760" height="1760" viewBox="0 0 1760 1760" fill="none" xmlns="http://www.w3.org/2000/svg">
<rect width="1760" height="1760" fill="white"/>
<path d="M683.211 531.251C658.154 533.947 631.884 515.415 609.252 525.186C602.381 528.218 597.532 533.947 593.49 539.674C562.371 585.159 566.816 645.468 525.593 684.887C500.536 708.809 460.121 723.296 448.401 753.282C440.318 773.498 448.401 795.734 454.463 816.286C473.862 881.649 476.287 950.718 462.546 1017.09C456.08 1047.08 446.784 1079.08 462.142 1106.71C493.261 1163.31 597.936 1158.93 646.029 1206.44C685.232 1245.19 673.107 1302.8 686.444 1352.33C701.398 1406.57 755.554 1434.54 821.834 1427.46C856.995 1423.75 893.368 1426.79 916.001 1403.88C949.949 1369.51 968.135 1324.7 965.711 1280.56C963.286 1234.07 939.845 1189.93 928.933 1144.45C916.405 1091.89 924.083 1031.58 969.752 993.843C999.659 969.248 1051.79 958.804 1083.32 982.388C1105.14 998.56 1109.59 1024.84 1115.65 1048.76C1121.71 1072.68 1132.62 1098.96 1159.7 1108.4C1180.31 1115.47 1204.56 1110.08 1222.34 1098.96C1240.13 1087.84 1252.66 1072.01 1263.97 1055.84C1297.11 1009.34 1324.59 953.413 1302.77 902.538C1289.84 871.541 1260.33 847.957 1234.47 823.361C1209.82 799.777 1187.18 774.171 1174.25 744.522C1161.32 714.873 1159.3 681.518 1175.06 652.879C1195.27 616.155 1240.13 594.255 1270.84 563.258C1287.01 546.749 1291.86 525.187 1284.18 504.972C1260.33 444.326 1206.18 492.842 1179.1 491.831C1103.93 488.462 1069.17 463.866 1016.23 419.73C983.897 392.776 958.84 369.192 925.7 361.106C843.658 341.227 809.709 379.973 764.041 467.236C743.833 505.981 723.222 526.534 683.211 530.914V531.251Z" fill="#FFF570" stroke="black" stroke-width="20" stroke-miterlimit="10"/>
<path d="M803.65 716.222C794.354 741.828 786.272 772.488 807.287 792.703C820.624 805.506 842.044 809.887 862.251 812.245C887.713 815.277 914.387 815.951 938.635 809.549C962.884 803.148 985.921 788.324 994.408 768.109C1003.7 746.546 996.024 722.624 986.325 701.398C968.542 661.641 943.485 622.895 903.879 596.279C899.433 593.246 894.987 590.55 889.733 589.54C877.609 586.844 864.676 593.583 858.21 602.343C851.744 611.103 814.562 686.236 803.65 715.885V716.222Z" fill="white" stroke="black" stroke-width="20" stroke-miterlimit="10"/>
<path d="M896.201 752.275C910.039 752.275 921.258 744.129 921.258 734.081C921.258 724.033 910.039 715.887 896.201 715.887C882.362 715.887 871.144 724.033 871.144 734.081C871.144 744.129 882.362 752.275 896.201 752.275Z" fill="#030005"/>
</svg>
