<svg width="1760" height="1760" viewBox="0 0 1760 1760" fill="none" xmlns="http://www.w3.org/2000/svg">
<g clip-path="url(#clip0_10_620)">
<path d="M1760 0H0V1760H1760V0Z" fill="white"/>
<path d="M929.654 337C880.314 338.613 834.844 361.599 811.142 397.489C787.439 433.379 780.184 475.318 766.639 514.837C762.77 526.532 757.449 539.032 747.29 547.904C724.555 567.26 686.341 562.422 654.416 557.583C622.49 552.744 558.154 549.921 565.41 576.132C580.889 630.976 512.685 669.688 485.112 695.497C420.777 755.179 414.005 852.365 469.633 917.693C501.075 954.39 548.964 981.408 570.247 1022.54C588.145 1056.82 585.243 1096.74 572.182 1132.63C559.122 1168.52 537.354 1201.59 518.005 1235.46C510.749 1247.56 503.978 1261.27 508.815 1274.17C511.717 1281.84 518.489 1287.88 525.261 1293.93C560.573 1324.18 599.271 1351.2 641.839 1374.18C679.085 1394.75 724.555 1412.49 766.639 1399.99C808.723 1387.49 830.491 1348.78 838.714 1312.08C848.388 1266.51 843.551 1220.14 846.453 1173.76C849.356 1127.39 861.449 1079.4 899.663 1045.53C937.877 1011.65 1006.57 999.554 1049.13 1029.4C1085.41 1055.2 1089.77 1099.97 1087.83 1139.49C1085.9 1179.01 1081.06 1221.75 1106.7 1255.22C1122.66 1275.79 1148.3 1290.3 1175.39 1299.98C1191.83 1305.63 1210.21 1310.06 1227.63 1308.05C1266.81 1303.61 1291.96 1271.75 1307.44 1241.11C1328.73 1198.76 1341.3 1154 1352.91 1109.24C1385.8 976.972 1333.56 806.797 1391.13 707.595C1417.73 662.027 1329.21 614.442 1276 608.393C1248.43 605.167 1212.63 615.248 1186.51 608.393C1110.08 588.23 1060.74 574.923 1055.42 513.224C1053.49 490.642 1059.78 448.703 1053.49 426.524C1031.72 351.921 977.543 335.789 930.621 337.402L929.654 337Z" fill="#FF6640" stroke="black" stroke-width="20" stroke-miterlimit="10"/>
<path d="M855.646 699.128C911.274 700.742 959.163 737.035 979.479 780.184C984.316 790.669 988.187 801.96 987.703 813.252C987.703 834.624 973.191 854.383 954.326 869.304C921.433 895.516 873.544 908.017 828.558 901.968C823.721 901.565 818.883 900.355 816.465 897.129C815.014 894.709 815.014 892.29 815.014 889.467C815.014 838.656 819.367 787.442 827.107 737.035C829.525 721.308 835.814 698.32 855.646 699.126V699.128Z" fill="white" stroke="black" stroke-width="20" stroke-miterlimit="10"/>
<path d="M915.512 815.39C917.982 807.411 911.595 799.137 901.248 796.911C890.9 794.685 880.51 799.349 878.04 807.328C875.571 815.307 881.956 823.58 892.303 825.806C902.65 828.032 913.042 823.369 915.512 815.39Z" fill="black"/>
</g>
<defs>
<clipPath id="clip0_10_620">
<rect width="1760" height="1760" fill="white"/>
</clipPath>
</defs>
</svg>
