<svg width="1760" height="1760" viewBox="0 0 1760 1760" fill="none" xmlns="http://www.w3.org/2000/svg">
<rect width="1760" height="1760" fill="white"/>
<path d="M748.106 562.095C729.272 536.404 708.299 511.069 672.773 506.43C637.246 501.791 601.292 509.285 566.622 516.778C533.236 524.272 497.281 532.836 476.736 555.673C454.478 580.294 447.63 627.752 448.914 658.44C453.194 758.352 451.91 844.347 428.369 942.118C419.808 977.444 409.535 1013.48 412.531 1049.52C415.528 1085.56 433.933 1123.03 470.743 1141.94C528.527 1171.56 606.856 1147.29 668.492 1170.49C752.814 1201.89 769.079 1305.73 852.545 1339.27C924.025 1367.82 1012.2 1327.85 1054.57 1271.83C1096.95 1215.81 1106.79 1147.65 1125.2 1083.42C1134.19 1052.38 1147.46 1019.19 1178.7 1000.99C1198.82 989.219 1223.65 985.651 1247.19 979.229C1294.27 966.74 1338.36 943.546 1367.04 910.004C1395.71 876.462 1407.27 831.858 1391.86 792.607C1372.17 741.58 1310.96 704.114 1303.26 650.589C1298.55 618.832 1313.96 584.219 1296.41 556.03C1272.87 518.206 1203.1 517.849 1162.87 544.254C1122.63 570.659 1104.65 613.121 1086.68 653.086C1068.7 693.051 1046.87 735.157 1003.21 757.281C956.128 781.188 889.355 773.338 852.117 739.439C796.473 688.77 787.056 615.619 748.106 561.738V562.095Z" fill="#9DC0EB" stroke="black" stroke-width="20" stroke-miterlimit="10"/>
<path d="M771.648 940.691C702.307 973.876 703.591 1068.08 746.394 1124.1C753.243 1133.02 761.375 1141.59 771.648 1148.01C784.917 1156.22 801.61 1160.14 817.875 1162.64C877.799 1171.56 944.143 1157.64 985.662 1120.53C1027.18 1083.42 1037.88 1022.4 1003.21 980.655C981.81 954.964 946.712 938.906 910.329 931.77C873.947 924.633 829.432 913.215 771.648 940.691Z" fill="white" stroke="black" stroke-width="20" stroke-miterlimit="10"/>
<path d="M873.944 1079.5C890.255 1079.5 903.478 1068.47 903.478 1054.88C903.478 1041.28 890.255 1030.25 873.944 1030.25C857.633 1030.25 844.41 1041.28 844.41 1054.88C844.41 1068.47 857.633 1079.5 873.944 1079.5Z" fill="black"/>
</svg>
