<svg width="1760" height="1760" viewBox="0 0 1760 1760" fill="none" xmlns="http://www.w3.org/2000/svg">
<rect width="1760" height="1760" fill="white"/>
<path d="M897.146 585.241C894.036 540.424 884.706 493.384 851.384 457.826C810.508 414.12 730.979 399.676 671.444 424.862C659.003 430.048 647.007 437.456 640.343 448.197C634.567 458.198 634.123 469.68 634.123 480.421C634.123 531.535 631.457 586.723 593.692 627.466C581.696 640.43 566.145 651.912 563.035 667.838C558.592 688.21 576.365 707.1 583.029 727.101C594.136 760.436 575.476 797.476 587.472 830.44C597.246 857.479 625.237 877.109 645.23 899.703C678.552 937.483 690.548 987.486 677.664 1033.04C664.779 1078.6 627.014 1118.6 576.808 1140.09C537.266 1156.75 490.171 1162.68 457.293 1187.5C416.862 1217.5 408.42 1267.13 406.199 1312.32C405.754 1326.02 405.31 1340.47 413.752 1352.32C429.746 1374.91 467.511 1377.14 499.056 1376.77C548.373 1376.03 597.691 1374.91 645.23 1364.17C692.77 1353.43 738.532 1332.32 766.079 1298.24C792.737 1265.65 800.289 1225.28 821.171 1190.09C834.056 1168.24 852.272 1148.23 874.487 1131.94C894.925 1116.75 922.471 1104.16 948.685 1110.46C975.787 1116.75 991.337 1141.57 994.003 1164.9C996.669 1188.24 989.115 1211.57 985.116 1234.54C981.118 1257.5 981.562 1283.06 997.557 1302.32C1022.44 1332.32 1075.75 1335.65 1117.52 1324.17C1215.26 1297.5 1276.57 1209.72 1276.57 1124.16C1276.57 1073.05 1257.03 1021.56 1218.82 981.189C1197.49 958.595 1170.83 939.334 1150.39 916.37C1129.96 893.406 1115.74 863.405 1124.63 835.625C1138.4 792.66 1197.05 773.77 1235.7 743.398C1267.24 718.582 1286.79 684.876 1299.23 650.059C1325.89 575.611 1321 491.533 1273.46 424.862C1258.8 404.12 1236.14 383.749 1207.26 383.008C1187.72 382.638 1172.16 395.231 1154.39 402.639C1069.98 438.196 1132.18 499.311 1057.98 608.946C1002.89 690.803 899.812 635.244 896.702 585.982L897.146 585.241Z" fill="#8CFFD9" stroke="black" stroke-width="20" stroke-miterlimit="10"/>
<path d="M875.377 906.742C898.48 915.261 926.916 923.409 947.798 911.927C961.126 904.519 967.347 890.815 971.79 877.851C977.121 861.554 980.231 844.145 976.676 827.478C973.122 810.81 961.126 794.513 942.91 787.105C923.361 778.957 900.258 781.549 878.931 785.994C839.833 793.772 800.736 806.365 771.857 829.7C768.747 832.293 765.636 834.886 763.859 838.219C760.305 845.997 765.192 854.887 772.745 860.072C780.298 865.258 847.831 896.741 874.933 906.742H875.377Z" fill="white" stroke="black" stroke-width="20" stroke-miterlimit="10"/>
<path d="M918.844 850.544C920.188 841.407 913.577 833.213 904.078 832.242C894.579 831.272 885.791 837.891 884.447 847.028C883.103 856.165 889.713 864.359 899.212 865.33C908.71 866.301 917.5 859.681 918.844 850.544Z" fill="#030005"/>
</svg>
