<svg width="1760" height="1760" viewBox="0 0 1760 1760" fill="none" xmlns="http://www.w3.org/2000/svg">
<rect width="1760" height="1760" fill="white"/>
<path d="M413.369 871.253C410.939 815.357 391.903 777.689 369.221 726.248C336.819 652.936 556.345 504.691 692.84 641.595C722.002 670.758 753.189 698.301 787.211 720.983C824.069 745.69 868.623 758.247 913.176 756.626C945.579 755.411 980.006 745.69 1001.47 721.388C1017.67 703.161 1025.37 679.264 1035.09 656.581C1048.86 624.988 1069.52 594.61 1099.89 579.219C1130.27 563.827 1172.4 567.067 1193.86 593.8C1225.45 633.899 1195.89 695.465 1214.52 743.26C1227.89 777.689 1263.93 797.941 1299.17 808.877C1341.29 821.838 1395.97 834.799 1403.26 878.139C1408.93 910.542 1380.99 940.92 1349.8 951.856C1318.61 962.792 1284.59 959.957 1251.78 961.172C1218.97 962.387 1183.33 969.678 1161.46 994.791C1138.37 1021.52 1137.97 1060.81 1129.46 1095.24C1122.17 1124.4 1107.59 1152.35 1083.69 1170.17C1059.8 1188 1045.62 1196.5 1019.7 1181.51C986.487 1162.88 959.35 1137.36 926.138 1119.14C885.23 1096.86 832.98 1106.58 789.237 1122.78C712.281 1150.33 632.49 1173.82 551.079 1166.53C510.171 1162.88 468.453 1153.16 434.43 1130.07C400.408 1106.99 374.89 1068.91 374.485 1027.6C374.485 967.248 414.584 907.707 412.964 871.658L413.369 871.253Z" fill="#FF6640" stroke="black" stroke-width="20" stroke-miterlimit="10"/>
<path d="M733.344 911.756C735.774 958.336 703.371 1001.67 661.653 1022.74C651.527 1028 640.592 1032.05 629.251 1032.86C607.784 1034.48 586.722 1024.36 570.521 1010.18C541.764 985.068 525.563 946.589 527.993 908.515C527.993 904.465 528.804 900.01 532.044 897.984C534.069 896.364 536.904 895.959 539.74 895.959C590.773 891.504 642.213 890.289 693.246 891.909C709.448 892.314 732.129 895.554 733.344 912.161V911.756Z" fill="white" stroke="black" stroke-width="20" stroke-miterlimit="10"/>
<path d="M639.603 959.174C641.022 950.34 635.549 942.114 627.377 940.8C619.205 939.487 611.43 945.584 610.01 954.418C608.59 963.253 614.064 971.479 622.236 972.793C630.407 974.106 638.183 968.009 639.603 959.174Z" fill="black"/>
</svg>
