<svg width="1760" height="1760" viewBox="0 0 1760 1760" fill="none" xmlns="http://www.w3.org/2000/svg">
<rect width="1760" height="1760" fill="white"/>
<path d="M917.47 447.585C907.084 399.445 862.633 358.579 804.058 356.155C745.482 353.731 690.645 380.052 647.025 412.607C637.055 420.226 627.084 428.191 621.268 438.581C608.389 462.478 622.515 489.49 632.069 514.426C668.212 606.549 642.455 713.911 565.6 786.986C531.12 819.887 484.592 851.056 482.099 894.693C479.191 947.334 541.09 984.045 575.986 1028.03C614.206 1076.17 621.268 1137.47 613.375 1194.96C607.559 1236.52 595.927 1282.23 622.099 1317.9C633.316 1333.14 649.933 1344.57 667.381 1355.31C693.968 1371.58 721.803 1386.48 750.883 1399.64C774.978 1410.72 804.058 1420.76 829.814 1411.41C848.509 1404.83 860.14 1389.25 867.203 1373.66C884.651 1335.22 881.743 1292.62 895.037 1253.14C908.33 1213.66 951.12 1174.53 999.31 1182.84C1033.79 1188.72 1056.22 1216.78 1068.27 1244.48C1077 1265.26 1082.4 1288.12 1099.01 1305.09C1128.51 1335.22 1191.24 1335.57 1221.15 1306.13C1235.69 1291.93 1242.34 1273.57 1247.74 1255.22C1262.28 1207.77 1272.66 1159.29 1278.48 1110.45C1280.14 1095.56 1281.39 1080.67 1276.82 1066.13C1267.26 1038.07 1237.35 1019.37 1216.16 996.166C1162.57 938.33 1171.71 846.9 1235.69 797.375C1248.15 787.678 1262.69 779.367 1273.91 768.63C1305.9 738.154 1308.81 693.477 1306.31 652.956C1304.65 623.172 1300.91 593.735 1295.93 564.297C1292.6 546.288 1288.45 527.24 1275.16 512.694C1253.97 489.491 1215.33 487.067 1180.85 482.911C969.399 455.897 1021.33 581.613 983.939 642.22C955.69 688.282 879.666 727.763 828.983 693.13C798.241 672.004 782.039 649.148 799.072 603.086C833.968 509.578 940.319 552.868 917.055 447.931L917.47 447.585Z" fill="#2667FF" stroke="black" stroke-width="20" stroke-miterlimit="10"/>
<path d="M743.403 1005.86C695.629 1002.75 656.163 970.192 640.792 932.442C637.053 923.438 634.56 913.74 634.976 904.043C636.222 885.688 649.516 869.064 666.133 856.943C695.629 835.471 737.172 826.12 775.392 832.7C779.546 833.392 783.7 834.432 785.777 837.549C787.024 839.627 787.024 842.051 787.024 844.129C784.531 887.766 778.715 931.403 769.991 974.694C767.083 988.201 760.851 1007.25 743.818 1006.21L743.403 1005.86Z" fill="white" stroke="black" stroke-width="20" stroke-miterlimit="10"/>
<path d="M729.264 913.152C731.735 906.382 726.62 899.088 717.84 896.861C709.06 894.635 699.939 898.318 697.469 905.089C694.998 911.86 700.113 919.154 708.893 921.38C717.673 923.607 726.793 919.923 729.264 913.152Z" fill="black"/>
</svg>
