<svg width="1760" height="1760" viewBox="0 0 1760 1760" fill="none" xmlns="http://www.w3.org/2000/svg">
<rect width="1760" height="1760" fill="white"/>
<path d="M814.6 589.837C833.93 558.659 838.552 544.647 832.67 521.176C826.787 495.604 797.372 477.037 767.117 471.081C736.862 465.126 704.926 468.629 673.83 472.132C653.24 474.584 633.07 477.037 612.48 479.489C596.932 481.241 580.544 483.343 567.097 490.7C541.464 504.362 534.321 533.087 535.581 558.309C536.842 583.532 543.565 609.104 537.262 633.977C521.294 696.332 429.689 728.209 409.939 789.864C395.232 835.405 424.226 882.347 455.322 921.932C486.417 961.517 521.714 1003.2 520.034 1050.5C518.353 1111.45 455.321 1167.85 474.651 1226.7C490.199 1273.64 551.55 1298.16 607.017 1313.23C683.495 1334.25 762.074 1349.66 841.914 1358.77C866.286 1361.57 891.919 1364.02 915.871 1358.07C1012.52 1334.95 1014.62 1207.43 1104.97 1170.3C1139 1156.29 1180.18 1158.04 1214.22 1143.68C1268.01 1121.26 1288.6 1067.31 1304.14 1018.97C1326 950.657 1347.85 879.544 1331.04 810.183C1321.37 770.598 1299.1 733.465 1287.34 694.23C1265.06 618.563 1282.71 537.991 1266.33 460.923C1262.96 444.809 1257.08 427.643 1242.37 416.433C1232.29 409.076 1219.68 404.873 1207.08 401.37C1171.78 391.211 1119.67 336.212 1052.44 363.537C1025.55 374.747 985.206 394.364 994.87 442.357C1007.9 505.412 1175.56 698.784 949.908 729.961C811.659 748.878 786.867 633.626 814.18 589.486L814.6 589.837Z" fill="#FF82C1" stroke="black" stroke-width="20" stroke-miterlimit="10"/>
<path d="M1099.5 834.355C1147.4 838.558 1186.91 872.188 1201.61 910.371C1205.39 919.83 1207.5 929.639 1206.65 939.097C1204.97 957.664 1191.11 974.128 1174.3 986.039C1144.04 1007.06 1101.6 1015.81 1063.36 1008.81C1059.16 1008.11 1054.96 1007.06 1052.86 1003.9C1051.6 1001.8 1051.6 999.351 1052.02 997.249C1055.8 953.11 1062.52 908.97 1072.61 865.532C1075.55 851.87 1082.69 832.603 1099.92 834.355H1099.5Z" fill="white" stroke="black" stroke-width="20" stroke-miterlimit="10"/>
<path d="M1143.83 937.48C1146.5 930.676 1141.51 923.211 1132.69 920.805C1123.87 918.399 1114.55 921.965 1111.88 928.769C1109.21 935.572 1114.2 943.038 1123.02 945.444C1131.85 947.85 1141.16 944.284 1143.83 937.48Z" fill="black"/>
</svg>
