<svg width="1760" height="1760" viewBox="0 0 1760 1760" fill="none" xmlns="http://www.w3.org/2000/svg">
<rect width="1760" height="1760" fill="white"/>
<path d="M1017.45 571.103C985.793 553.106 995.387 503.116 959.408 491.119C934.463 482.72 909.038 501.117 887.451 514.315C827.966 551.507 748.813 559.505 674.457 555.905C638.478 554.306 597.222 551.907 572.277 573.902C561.244 583.5 555.967 596.298 550.69 609.095C476.814 788.259 412.052 969.822 356.405 1153.79C350.168 1174.98 345.371 1201.37 365.519 1215.77C373.675 1221.77 384.708 1224.17 395.741 1226.17C434.118 1234.17 472.976 1242.17 511.353 1250.17C528.623 1253.77 546.852 1257.36 563.162 1252.16C586.669 1244.97 598.661 1222.97 604.898 1202.58C616.89 1165.38 619.289 1126.19 634.16 1089.8C649.031 1053.41 680.693 1018.21 725.786 1010.21C761.765 1003.82 802.061 1017.81 821.73 1043.81C854.83 1086.6 831.804 1148.19 866.823 1189.38C885.052 1210.97 915.274 1222.57 944.537 1232.57C972.84 1242.17 1005.46 1251.37 1033.76 1240.57C1067.34 1227.77 1078.86 1193.38 1086.53 1163.38C1097.57 1119.39 1108.12 1075.8 1119.15 1031.81C1123.95 1011.41 1130.19 989.818 1149.38 976.221C1178.16 955.825 1221.81 963.823 1258.75 955.825C1317.76 943.427 1351.34 891.838 1367.65 843.048C1389.23 779.061 1393.55 711.074 1380.12 645.887C1375.32 622.692 1364.29 596.298 1337.42 589.899C1321.59 586.3 1304.8 590.699 1288.97 595.098C1202.62 618.693 1110.52 623.893 1017.45 570.704V571.103Z" fill="#63B6FF" stroke="black" stroke-width="20" stroke-miterlimit="10"/>
<path d="M906.642 765.065C911.919 753.068 917.196 739.87 913.358 728.673C909.52 716.275 897.048 711.076 885.055 707.077C835.644 690.68 784.314 679.482 731.545 673.483C720.032 672.284 708.039 671.085 696.046 675.484C670.621 685.082 656.709 715.875 646.155 742.67C629.845 785.061 615.454 839.851 645.676 865.445C656.23 874.244 670.621 877.442 684.053 879.842C723.39 886.64 763.206 890.64 803.502 891.44C815.495 891.44 827.968 891.44 839.481 885.041C850.994 878.642 892.25 797.459 906.162 765.466L906.642 765.065Z" fill="white" stroke="black" stroke-width="20" stroke-miterlimit="10"/>
<path d="M781.922 788.867C785.807 775.335 778.303 762.239 765.162 759.617C752.021 756.995 738.219 765.839 734.334 779.372C730.448 792.905 737.952 806.001 751.093 808.623C764.234 811.245 778.036 802.4 781.922 788.867Z" fill="black"/>
</svg>
