<svg width="1760" height="1760" viewBox="0 0 1760 1760" fill="none" xmlns="http://www.w3.org/2000/svg">
<rect width="1760" height="1760" fill="white"/>
<path d="M448.872 978.856C365.069 990.994 371.975 1082.62 357.701 1143.7C350.334 1173.85 344.348 1208.31 366.45 1232.58C388.552 1257.25 429.533 1261.17 465.909 1263.13C514.257 1265.87 569.511 1266.26 604.046 1237.28C655.617 1193.43 628.45 1110.03 680.482 1066.56C713.635 1038.76 773.954 1040.33 804.805 1069.7C833.353 1096.71 834.735 1137.83 858.218 1167.98C894.133 1213.79 968.727 1222.4 1033.65 1219.27C1107.32 1216.14 1187.44 1200.09 1230.73 1149.57C1259.28 1115.9 1266.64 1072.83 1267.56 1031.32C1268.48 989.82 1263.88 947.922 1272.63 907.2C1276.77 888.797 1284.14 869.612 1300.26 856.69C1315.91 844.161 1337.09 839.07 1354.59 828.498C1397.41 802.655 1405.7 752.535 1410.3 707.898C1421.82 595.521 1335.25 552.841 1277.23 552.841C1055.29 552.841 1119.76 447.512 1023.06 521.125C939.718 584.558 810.33 567.72 699.36 577.118C675.877 579.076 648.71 584.166 637.659 602.178C633.054 610.009 632.594 619.015 632.134 627.629C629.831 697.718 640.882 768.59 622.925 837.113C604.967 905.635 546.489 964.76 449.332 978.464L448.872 978.856Z" fill="#FFF570" stroke="black" stroke-width="20" stroke-miterlimit="10"/>
<path d="M1173.63 972.982C1181 1017.62 1148.76 1062.26 1103.64 1085.75C1092.59 1091.62 1080.62 1096.32 1068.19 1098.28C1044.24 1101.8 1019.38 1093.58 999.577 1081.44C964.582 1059.91 942.48 1023.88 941.099 987.078C941.099 983.162 941.099 978.856 944.782 976.506C947.085 974.94 950.308 974.157 953.071 973.765C1010.63 965.151 1068.18 959.669 1126.66 956.928C1145.08 956.145 1171.33 956.929 1173.63 972.982Z" fill="white" stroke="black" stroke-width="20" stroke-miterlimit="10"/>
<path d="M1072.21 1027C1072.94 1018.37 1065.93 1010.91 1056.55 1010.33C1047.16 1009.75 1038.96 1016.28 1038.22 1024.91C1037.49 1033.53 1044.5 1041 1053.89 1041.57C1063.27 1042.15 1071.47 1035.63 1072.21 1027Z" fill="black"/>
</svg>
