<svg width="1760" height="1760" viewBox="0 0 1760 1760" fill="none" xmlns="http://www.w3.org/2000/svg">
<rect width="1760" height="1760" fill="white"/>
<path d="M584.315 553.684C540.508 590.205 574.523 646.06 574.523 669.262C575.554 721.25 551.846 772.808 510.616 811.477C486.393 834.249 443.1 836.397 423.516 862.176C384.862 913.305 388.469 980.761 399.292 1132.43C402.385 1177.11 455.985 1200.74 509.585 1201.17C556.485 1201.6 595.139 1186.14 606.992 1148.33C617.815 1114.38 608.538 1078.29 614.208 1043.49C619.877 1006.97 643.584 970.878 682.753 953.262C721.922 935.647 775.523 939.943 804.385 967.87C832.731 995.798 831.184 1037.48 818.3 1072.28C805.415 1107.08 782.738 1139.3 773.461 1174.96C764.185 1210.63 772.43 1253.59 808.507 1273.78C823.453 1282.38 842.007 1285.81 860.046 1287.53C905.915 1290.97 954.877 1278.94 984.77 1249.72C1001.78 1232.97 1011.05 1211.48 1017.24 1190C1046.1 1090.75 1011.57 986.776 1023.42 885.378C1026 861.317 1031.67 836.827 1046.62 815.774C1061.56 794.721 1085.78 772.378 1114.65 774.956C1189.38 781.831 1177.01 830.381 1181.13 868.62C1187.83 925.764 1245.04 962.286 1299.15 954.122C1408.93 938.225 1393.47 826.085 1383.68 769.8C1375.43 722.538 1356.88 676.566 1352.24 628.874C1349.66 600.517 1350.69 568.722 1327.5 548.099C1303.79 526.616 1263.59 525.756 1232.15 512.437C1196.59 497.399 1165.15 464.746 1126.5 472.05C1100.22 476.777 1084.24 498.259 1064.14 513.297C1037.85 532.631 1002.81 541.224 968.277 546.38C909.008 555.402 615.238 527.476 584.315 553.684Z" fill="#96BDF2" stroke="black" stroke-width="20" stroke-miterlimit="10"/>
<path d="M788.408 689.027C753.362 706.643 754.394 756.482 776.04 786.558C779.647 791.284 783.77 796.011 788.924 799.448C795.624 803.745 803.87 805.893 812.116 807.182C842.523 811.908 875.509 804.604 896.64 784.84C917.77 765.076 922.923 732.422 905.4 710.079C894.577 696.331 877.054 687.737 858.5 684.3C839.946 680.863 817.785 674.419 788.408 689.027Z" fill="white" stroke="black" stroke-width="20" stroke-miterlimit="10"/>
<path d="M840.462 762.497C848.717 762.497 855.407 756.727 855.407 749.608C855.407 742.489 848.717 736.718 840.462 736.718C832.208 736.718 825.516 742.489 825.516 749.608C825.516 756.727 832.208 762.497 840.462 762.497Z" fill="black"/>
</svg>
