<svg width="1760" height="1760" viewBox="0 0 1760 1760" fill="none" xmlns="http://www.w3.org/2000/svg">
<rect width="1760" height="1760" fill="white"/>
<path d="M794.215 497.707C752.566 508.558 733.368 547.891 720.353 582.612C707.337 617.333 689.767 656.937 649.093 669.687C622.737 677.824 586.944 675.383 573.929 696.271C568.072 705.493 569.048 716.615 570.349 726.923C574.905 765.442 579.135 803.69 583.69 842.209C586.944 871.234 589.873 902.157 573.603 927.927C557.334 953.697 513.732 969.701 486.074 951.798C456.464 932.81 465.25 893.477 449.957 865.266C444.425 855.229 434.338 846.006 421.322 844.921C405.378 843.836 392.363 855.229 385.205 867.165C368.61 894.562 370.236 926.843 372.189 957.495C374.792 998.727 377.72 1039.96 380.323 1081.19C380.974 1089.87 381.95 1099.36 388.458 1106.15C394.64 1112.38 405.053 1115.1 414.49 1117C475.988 1130.29 539.112 1138.43 602.237 1140.6C631.522 1141.68 662.759 1141.14 687.489 1128.39C752.891 1094.48 737.598 998.726 805.278 967.802C836.841 953.425 878.166 959.665 906.474 978.382C934.783 997.099 951.052 1025.85 958.211 1055.15C961.79 1069.53 963.417 1084.72 972.202 1097.47C983.591 1114.28 1006.04 1124.32 1028.49 1128.12C1050.95 1131.92 1074.7 1130.56 1097.8 1128.93C1114.72 1127.85 1132.29 1126.49 1146.93 1118.89C1174.92 1103.98 1179.47 1072.24 1181.1 1044.84C1183.05 1011.48 1185.33 978.111 1187.28 944.474C1188.58 924.401 1197.04 897.817 1221.12 897.546C1231.86 897.546 1241.3 902.971 1250.41 907.854C1273.84 920.874 1300.52 930.64 1328.5 932.267C1356.48 933.895 1386.09 926.029 1404.64 908.397C1429.37 884.797 1429.05 848.719 1415.7 819.694C1403.67 793.924 1381.21 770.596 1350.95 759.474C1314.18 745.911 1266.68 749.166 1240 724.21C1212.01 697.898 1256.27 647.986 1218.52 631.982C1206.16 626.828 1216.24 633.881 1168.41 620.86C1129.04 610.281 1093.9 593.191 1092.6 615.977C1091.29 636.864 1083.81 689.489 972.853 705.765C935.109 705.765 897.363 677.011 913.633 608.111C919.49 583.968 921.768 556.299 907.776 534.598C893.784 512.897 859.618 480.889 794.541 497.707H794.215Z" fill="#E6E1E1" stroke="black" stroke-width="20" stroke-miterlimit="10"/>
<path d="M795.189 857.942C787.38 827.56 807.229 795.551 837.49 777.106C844.974 772.765 852.783 768.697 861.894 767.069C878.814 763.814 896.71 768.154 911.352 775.75C937.383 789.313 954.954 813.184 958.208 838.411C958.208 841.123 958.534 844.107 956.256 846.006C954.629 847.362 952.677 847.634 950.399 848.177C910.377 856.586 870.029 862.824 829.355 867.164C816.665 868.521 798.118 869.063 795.189 857.942Z" fill="white" stroke="black" stroke-width="20" stroke-miterlimit="10"/>
<path d="M875.563 827.833C882.212 827.833 887.602 822.974 887.602 816.982C887.602 810.989 882.212 806.131 875.563 806.131C868.913 806.131 863.523 810.989 863.523 816.982C863.523 822.974 868.913 827.833 875.563 827.833Z" fill="black"/>
</svg>
