<svg width="1760" height="1760" viewBox="0 0 1760 1760" fill="none" xmlns="http://www.w3.org/2000/svg">
<rect width="1760" height="1760" fill="white"/>
<path d="M458.423 622.499C458.423 630.622 456.085 662.786 459.203 670.584C467.387 690.403 497.006 696.252 521.17 701.775C566.379 711.847 610.419 731.016 639.26 761.881C668.1 792.747 680.18 835.96 662.642 872.349C645.105 908.738 594.439 941.553 549.23 931.156C512.596 922.709 473.233 891.518 442.054 898.016C410.876 904.514 406.979 938.304 403.861 963.971C399.964 998.411 396.066 1033.18 392.559 1067.61C391 1081.26 389.441 1095.23 394.118 1108.55C405.42 1142.02 449.849 1159.24 490.771 1164.44C531.692 1169.63 574.954 1167.04 613.537 1179.71C645.105 1190.1 671.607 1210.57 686.027 1235.92C700.057 1259.96 703.175 1286.92 712.139 1312.59C721.103 1338.26 738.64 1364.25 768.65 1373.67C813.858 1387.97 862.185 1357.1 885.569 1322.01C907.394 1289.2 916.748 1251.51 935.066 1217.4C953.383 1183.28 984.561 1149.82 1028.6 1142.02C1064.85 1135.52 1102.26 1147.87 1139.67 1146.57C1189.56 1144.94 1236.33 1116.68 1254.26 1078.01C1272.18 1039.35 1259.32 992.238 1223.47 963.321C1207.88 950.65 1188.78 941.553 1170.85 931.156C1147.86 917.835 1127.2 901.915 1108.89 884.37C1094.86 870.724 1081.99 855.129 1077.32 837.584C1072.64 820.04 1077.32 799.895 1092.91 787.549C1114.73 770.979 1150.59 774.877 1175.53 788.198C1200.47 801.519 1217.62 822.639 1237.5 840.833C1257.37 859.028 1286.21 889.243 1315.83 890.868C1354.42 892.817 1385.2 852.205 1394.56 821.014C1403.91 789.823 1393.39 756.358 1375.85 727.442C1333.76 658.563 1256.59 609.827 1180.21 566.291C1153.31 551.02 1121.36 535.425 1090.57 543.872C1076.15 547.771 1064.46 556.219 1051.59 562.717C1017.69 579.937 970.92 582.536 938.962 562.717C905.835 542.248 895.702 505.209 885.569 471.744C875.436 438.279 859.067 401.565 821.263 387.919C783.46 374.273 738.641 390.843 709.411 415.211C680.181 439.579 661.864 471.419 636.531 498.711C611.199 526.003 575.343 550.371 534.032 549.396C520.781 549.396 458.423 543.223 458.423 622.499Z" fill="#FFD58C" stroke="black" stroke-width="20" stroke-miterlimit="10"/>
<path d="M721.494 553.944C679.403 586.759 682.131 673.184 700.059 727.118C702.787 735.89 706.684 744.012 711.36 750.185C717.596 758.308 725.391 762.207 733.185 764.806C762.025 774.229 795.153 762.207 817.367 728.092C839.582 693.978 847.766 636.145 832.957 595.857C823.993 571.164 807.235 555.244 789.697 548.096C772.159 540.948 747.996 533.15 721.494 553.944Z" fill="white" stroke="black" stroke-width="20" stroke-miterlimit="10"/>
<path d="M779.86 663.524C780.526 650.617 774.615 639.922 766.658 639.637C758.702 639.352 751.712 649.585 751.047 662.492C750.382 675.4 756.293 686.095 764.249 686.38C772.206 686.665 779.195 676.432 779.86 663.524Z" fill="black"/>
</svg>
