<svg width="1760" height="1760" viewBox="0 0 1760 1760" fill="none" xmlns="http://www.w3.org/2000/svg">
<rect width="1760" height="1760" fill="white"/>
<path d="M1043.48 536.243C1001.21 517.477 962.163 458.497 922.195 460.029C886.361 461.561 866.607 535.86 856.04 551.563C837.664 579.138 821.585 594.074 784.373 600.585C760.943 604.415 737.055 600.586 713.626 600.203C690.196 599.82 661.712 605.947 651.146 627.011C645.633 638.118 648.39 665.31 652.984 686.375C664.009 738.078 630.473 780.206 579.938 811.228C511.946 852.973 410.417 832.675 363.557 891.272C336.452 925.358 341.507 1003.1 344.263 1044.08C346.101 1069.36 348.397 1094.64 359.423 1118C370.448 1141.36 392.501 1162.43 421.903 1168.94C500.92 1186.55 572.588 1093.11 650.227 1114.94C684.683 1124.51 703.977 1153.62 722.353 1179.66C751.755 1221.79 791.264 1239.41 837.204 1269.66C920.357 1324.05 1110.09 1302.98 1140.87 1224.85C1161.09 1173.15 1119.74 1146.73 1094.01 1096.94C1068.29 1047.15 1045.32 988.935 1073.8 940.295C1086.2 918.465 1111.93 900.081 1140.41 901.23C1192.78 903.145 1217.13 962.508 1268.13 971.699C1314.07 980.125 1354.96 942.593 1368.74 905.06C1385.74 858.719 1378.84 806.632 1349.9 764.503C1320.96 722.375 1270.42 690.97 1213.92 679.863C1201.51 677.566 1188.19 675.65 1177.62 669.905C1144.55 651.522 1156.95 608.628 1141.79 577.989C1126.63 547.35 1074.26 550.796 1043.02 537.009L1043.48 536.243Z" fill="#E6E1E1" stroke="black" stroke-width="20" stroke-miterlimit="10"/>
<path d="M855.583 1048.68C810.102 1072.04 811.02 1137.53 839.504 1177.36C844.098 1183.87 849.61 1189.62 856.042 1194.22C864.77 1199.96 875.796 1202.64 886.362 1204.56C925.871 1210.68 969.515 1201.11 996.62 1175.07C1023.72 1149.02 1031.07 1106.13 1008.1 1076.64C994.323 1058.64 970.893 1047.15 947.004 1042.55C923.115 1037.96 893.713 1029.53 855.583 1048.68Z" fill="white" stroke="black" stroke-width="20" stroke-miterlimit="10"/>
<path d="M923.114 1145.58C933.77 1145.58 942.408 1137.86 942.408 1128.34C942.408 1118.83 933.77 1111.11 923.114 1111.11C912.458 1111.11 903.818 1118.83 903.818 1128.34C903.818 1137.86 912.458 1145.58 923.114 1145.58Z" fill="black"/>
</svg>
