<svg width="1760" height="1760" viewBox="0 0 1760 1760" fill="none" xmlns="http://www.w3.org/2000/svg">
<rect width="1760" height="1760" fill="white"/>
<path d="M433.824 699.819C460.499 605.727 517.728 536.371 605.997 528.611C706.876 519.881 793.205 607.182 892.629 629.008C962.953 644.528 1035.22 626.098 1105.54 612.518C1175.87 598.937 1252.01 591.177 1316.51 625.128C1381.02 659.078 1426.12 750.26 1393.63 820.586C1373.26 864.236 1328.15 893.337 1321.36 941.837C1317.97 965.603 1325.24 989.368 1327.67 1013.62C1333.97 1073.27 1309.72 1135.84 1266.07 1171.73C1222.42 1207.62 1161.8 1216.35 1111.85 1193.07C1029.4 1154.76 978.958 1041.26 889.719 1034.96C762.165 1026.23 691.841 1230.42 563.803 1231.39C483.294 1231.87 446.434 1147 409.089 1069.39C298.511 839.501 410.059 781.785 433.339 699.819H433.824Z" fill="#FF82C1" stroke="black" stroke-width="20" stroke-miterlimit="10"/>
<path d="M514.337 939.412C512.882 951.052 511.427 964.147 517.732 973.362C524.522 984.032 537.132 986.457 548.772 987.912C597.271 993.732 646.741 994.702 695.725 990.822C706.395 989.852 717.55 988.882 727.25 982.577C747.619 969.482 752.469 939.412 754.894 913.221C758.774 871.996 757.319 820.1 723.855 802.64C712.215 796.335 698.635 796.335 685.54 796.82C648.681 797.79 611.336 801.185 574.961 807.49C564.292 809.43 552.652 811.855 544.407 819.615C536.162 827.375 519.672 907.401 515.307 938.927L514.337 939.412Z" fill="white" stroke="black" stroke-width="20" stroke-miterlimit="10"/>
<path d="M642.859 918.07C655.181 918.07 665.169 907.647 665.169 894.79C665.169 881.933 655.181 871.51 642.859 871.51C630.538 871.51 620.55 881.933 620.55 894.79C620.55 907.647 630.538 918.07 642.859 918.07Z" fill="black"/>
</svg>
