<svg width="1760" height="1760" viewBox="0 0 1760 1760" fill="none" xmlns="http://www.w3.org/2000/svg">
<rect width="1760" height="1760" fill="white"/>
<path d="M448.335 1129C398.402 1143.72 375.8 1200.48 363.711 1250.94C352.673 1295.62 347.418 1349.76 380.531 1381.82C403.658 1404.43 440.451 1408.1 471.462 1400.22C502.473 1392.34 530.331 1373.41 557.137 1355.02C598.66 1326.63 640.183 1298.25 681.706 1269.87C725.332 1239.91 781.572 1209.42 827.826 1235.17C858.311 1252.52 871.451 1288.79 893.527 1316.12C930.32 1362.38 996.547 1382.87 1052.79 1365.53C1139.51 1338.72 1181.04 1243.58 1232.02 1168.42C1266.71 1116.91 1309.81 1071.71 1343.45 1019.67C1377.09 967.632 1400.74 905.608 1390.75 844.636C1378.66 772.1 1320.85 711.127 1320.85 637.54C1320.85 609.682 1329.26 582.875 1333.46 555.543C1342.4 494.57 1327.68 427.29 1281.95 386.817C1236.22 346.344 1156.33 343.716 1116.91 391.022C1092.21 420.983 1088 462.507 1079.59 500.352C1071.18 538.197 1052.79 579.721 1015.99 592.336C981.303 603.9 943.985 585.503 916.128 561.85C888.271 538.197 865.144 508.762 832.556 491.942C787.879 468.289 730.061 474.071 690.641 505.608C658.053 531.89 639.657 572.363 607.595 599.17C578.161 623.874 539.792 634.912 509.832 659.091C469.36 691.679 450.437 748.447 462.526 798.907C474.615 849.367 518.767 906.66 568.7 919.8C725.332 959.748 737.946 1010.21 690.641 1060.14C658.579 1094.31 606.544 1100.09 560.29 1106.4C514.037 1112.7 468.308 1123.74 448.335 1129.52V1129Z" fill="#DEB0FF" stroke="black" stroke-width="20" stroke-miterlimit="10"/>
<path d="M1158.44 751.073C1131.63 784.188 1132.16 878.274 1148.45 935.042C1151.08 943.977 1154.23 952.387 1158.44 958.695C1163.7 967.105 1170 970.784 1176.31 973.412C1199.44 982.348 1224.67 968.156 1240.96 931.363C1257.25 894.569 1260.93 833.071 1247.79 791.021C1239.38 765.265 1226.24 748.971 1212.05 742.138C1197.86 735.305 1181.04 723.741 1158.96 751.073H1158.44Z" fill="white" stroke="black" stroke-width="20" stroke-miterlimit="10"/>
<path d="M1197.86 889.839C1204.25 889.839 1209.42 878.778 1209.42 865.134C1209.42 851.491 1204.25 840.43 1197.86 840.43C1191.48 840.43 1186.3 851.491 1186.3 865.134C1186.3 878.778 1191.48 889.839 1197.86 889.839Z" fill="black"/>
<path d="M448.335 1129C398.402 1143.72 375.8 1200.48 363.711 1250.94C352.673 1295.62 347.418 1349.76 380.531 1381.82C403.658 1404.43 440.451 1408.1 471.462 1400.22C502.473 1392.34 530.331 1373.41 557.137 1355.02C598.66 1326.63 640.183 1298.25 681.706 1269.87C725.332 1239.91 781.572 1209.42 827.826 1235.17C858.311 1252.52 871.451 1288.79 893.527 1316.12C930.32 1362.38 996.547 1382.87 1052.79 1365.53C1139.51 1338.72 1181.04 1243.58 1232.02 1168.42C1266.71 1116.91 1309.81 1071.71 1343.45 1019.67C1377.09 967.632 1400.74 905.608 1390.75 844.636C1378.66 772.1 1320.85 711.127 1320.85 637.54C1320.85 609.682 1329.26 582.875 1333.46 555.543C1342.4 494.57 1327.68 427.29 1281.95 386.817C1236.22 346.344 1156.33 343.716 1116.91 391.022C1092.21 420.983 1088 462.507 1079.59 500.352C1071.18 538.197 1052.79 579.721 1015.99 592.336C981.303 603.9 943.985 585.503 916.128 561.85C888.271 538.197 842.018 478.802 809.955 461.982C696.423 402.06 677.501 530.313 620.735 586.555C593.929 613.361 550.303 641.219 510.357 658.565C462.526 679.064 450.963 747.921 463.052 798.381C475.141 848.841 519.292 906.134 569.225 919.275C725.857 959.222 738.472 1009.68 691.167 1059.62C659.105 1093.78 607.069 1099.56 560.815 1105.87C514.561 1112.18 468.835 1123.22 448.861 1129H448.335Z" fill="#DEB0FF" stroke="black" stroke-width="20" stroke-miterlimit="10"/>
<path d="M1158.44 751.073C1131.63 784.188 1132.16 878.274 1148.45 935.042C1151.08 943.977 1154.23 952.387 1158.44 958.695C1163.7 967.105 1170 970.784 1176.31 973.412C1199.44 982.348 1224.67 968.156 1240.96 931.363C1257.25 894.569 1260.93 833.071 1247.79 791.021C1239.38 765.265 1226.24 748.971 1212.05 742.138C1197.86 735.305 1181.04 723.741 1158.96 751.073H1158.44Z" fill="white" stroke="black" stroke-width="20" stroke-miterlimit="10"/>
<path d="M1197.86 889.839C1204.25 889.839 1209.42 878.778 1209.42 865.134C1209.42 851.491 1204.25 840.43 1197.86 840.43C1191.48 840.43 1186.3 851.491 1186.3 865.134C1186.3 878.778 1191.48 889.839 1197.86 889.839Z" fill="black"/>
</svg>
