<svg width="1760" height="1760" viewBox="0 0 1760 1760" fill="none" xmlns="http://www.w3.org/2000/svg">
<rect width="1760" height="1760" fill="white"/>
<path d="M849.149 376.924C815.008 370.419 779.404 380.178 750.14 396.442C720.876 412.706 697.953 434.662 674.542 456.212C646.253 482.235 616.501 507.443 583.823 529.4C557.485 546.884 528.71 562.741 506.762 584.291C484.814 605.841 471.157 635.522 480.424 662.358C489.691 688.381 517.979 706.679 547.243 719.283C576.507 731.888 608.21 740.019 634.548 756.69C670.152 779.053 691.125 814.02 706.732 848.988C723.315 887.615 734.532 930.309 719.412 968.936C704.293 1007.56 655.032 1039.68 607.235 1029.52C557.974 1018.95 528.709 969.75 478.473 963.244C435.552 957.958 395.071 989.267 384.341 1024.23C373.611 1059.2 384.341 1096.61 399.46 1130.76C412.141 1160.45 427.749 1189.31 445.307 1216.96C458.964 1238.11 475.547 1260.06 501.884 1269.82C517.98 1275.51 602.357 1288.52 638.449 1291.37C674.541 1294.22 721.852 1289.74 755.506 1276.73C810.132 1255.18 831.591 1200.29 842.809 1150.69C854.026 1101.08 862.806 1046.6 906.701 1011.63C950.11 977.067 1024.25 973.002 1072.53 1003.09C1137.4 1042.94 1143.25 1122.23 1127.64 1188.09C1121.79 1213.3 1115.94 1243.39 1138.86 1260.47C1148.62 1267.79 1161.79 1270.63 1174.47 1272.67C1222.75 1281.21 1272.5 1283.65 1321.27 1281.21C1339.81 1279.99 1358.83 1277.95 1373.46 1268.2C1396.87 1252.34 1398.34 1223.88 1396.38 1199.07C1392.97 1140.52 1383.7 1081.97 1369.56 1024.23C1361.76 992.113 1348.59 956.331 1312.98 942.1C1292.5 933.968 1268.6 935.188 1247.14 929.902C1213.49 921.77 1186.66 896.154 1180.81 867.286C1174.96 838.417 1190.56 807.109 1219.34 790.032C1239.33 778.24 1265.19 772.955 1284.21 759.943C1314.93 738.8 1321.76 702.612 1326.64 670.084C1328.1 659.512 1329.57 647.721 1322.25 639.183C1312.5 627.391 1292.01 626.984 1274.94 628.611C1228.12 632.677 1181.78 642.029 1134.96 640.403C1098.38 638.776 1062.29 630.237 1030.1 615.599C1011.08 606.654 993.03 595.27 981.324 579.412C967.18 560.302 964.254 537.125 958.889 515.169C948.647 474.915 951.573 431.815 908.165 400.914C898.41 394.408 882.315 384.243 849.149 377.737V376.924Z" fill="#DEB0FF" stroke="black" stroke-width="20" stroke-miterlimit="10"/>
<path d="M1222.26 1156.79C1223.73 1168.58 1225.68 1181.59 1229.58 1190.94C1233.97 1201.11 1239.82 1203.14 1244.21 1203.95C1264.7 1207.21 1284.21 1205.99 1303.23 1199.48C1307.13 1198.26 1311.52 1196.23 1314.45 1189.72C1320.3 1175.49 1316.88 1145 1312.98 1118.57C1307.13 1077.09 1297.38 1025.05 1280.79 1009.6C1274.94 1003.9 1269.58 1004.72 1264.7 1005.53C1250.07 1008.38 1235.92 1013.66 1222.75 1021.79C1218.85 1024.23 1214.46 1027.08 1213 1035.62C1211.53 1044.16 1218.85 1125.07 1223.24 1156.79H1222.26Z" fill="white" stroke="black" stroke-width="20" stroke-miterlimit="10"/>
<path d="M1243.18 1139.46C1254.1 1138.09 1261.59 1129.42 1259.91 1120.09C1258.23 1110.76 1248.01 1104.31 1237.09 1105.68C1226.17 1107.05 1218.68 1115.72 1220.36 1125.05C1222.04 1134.37 1232.26 1140.82 1243.18 1139.46Z" fill="black"/>
</svg>
