<svg width="1760" height="1760" viewBox="0 0 1760 1760" fill="none" xmlns="http://www.w3.org/2000/svg">
<rect width="1760" height="1760" fill="white"/>
<path d="M499.311 643.004C479.231 640.478 471.275 652.48 471.275 669.536C471.275 714.386 403.835 719.44 376.178 753.236C359.886 773.134 354.961 812.615 370.116 833.145C386.407 855.571 432.63 859.993 461.424 870.732C493.249 882.734 507.647 920.636 515.982 955.379C534.168 1032.45 518.254 1112.99 523.558 1146.47C527.347 1169.52 674.729 1171.42 701.629 1157.21C728.529 1142.99 739.516 1115.2 755.807 1092.14C768.31 1074.77 785.738 1058.66 808.092 1050.45C830.445 1042.24 858.482 1042.55 877.804 1054.87C906.599 1072.87 908.872 1106.99 923.269 1134.47C935.772 1158.15 960.02 1178.05 989.572 1186.26C1019.12 1194.48 1053.98 1189.42 1077.09 1172.05C1102.85 1152.79 1111.19 1121.52 1135.06 1100.99C1153.62 1084.88 1181.66 1076.35 1207.8 1080.14C1227.13 1082.98 1243.8 1091.83 1261.6 1098.77C1301.76 1114.25 1356.7 1115.51 1382.46 1085.83C1408.6 1055.19 1386.25 1009.71 1348.74 989.175C1314.27 970.224 1269.94 964.854 1239.25 942.113C1197.57 911.476 1200.22 709.332 1202.12 646.162C1202.12 636.055 1192.65 628.159 1180.52 628.791C1131.65 631.633 1016.85 636.055 989.951 619.947C948.654 595.627 973.281 541.301 893.717 513.506C858.482 501.188 809.229 515.401 785.739 540.668C762.248 565.936 753.914 618.052 722.088 635.739C656.165 672.062 571.297 652.479 498.932 643.32L499.311 643.004Z" fill="#FF3B83" stroke="black" stroke-width="20" stroke-miterlimit="10"/>
<path d="M983.759 787C917.835 703.616 786.498 748.814 761.113 816.405C719.058 928.532 882.352 940.218 940.698 920.004C1017.99 893.473 1007.38 816.406 980.101 781.978L983.759 787Z" fill="white" stroke="black" stroke-width="20" stroke-miterlimit="10"/>
<path d="M867.958 860.623C881.35 860.623 892.206 852.704 892.206 842.935C892.206 833.166 881.35 825.248 867.958 825.248C854.567 825.248 843.71 833.166 843.71 842.935C843.71 852.704 854.567 860.623 867.958 860.623Z" fill="black"/>
</svg>
