<svg width="1760" height="1760" viewBox="0 0 1760 1760" fill="none" xmlns="http://www.w3.org/2000/svg">
<g clip-path="url(#clip0_10_632)">
<path d="M1760 0H0V1760H1760V0Z" fill="white"/>
<path d="M799.027 478.157C801.09 442.36 783.553 400.269 739.194 388.468C717.014 382.568 692.255 385.321 669.044 388.468C613.337 395.549 557.632 404.202 502.441 414.429C489.546 416.79 476.65 419.15 466.334 425.838C450.344 436.065 446.734 453.374 444.155 469.109C417.849 629.604 394.121 792.459 427.133 952.168C432.806 980.097 441.576 1009.21 465.303 1031.24C517.399 1079.23 628.296 1080.41 661.307 1137.45C672.139 1156.33 672.14 1177.57 671.624 1198.02C671.108 1226.35 670.076 1254.67 669.56 1282.99C669.56 1302.27 669.044 1322.33 681.939 1338.46C701.539 1362.85 743.319 1369.93 780.457 1374.65C818.111 1379.37 856.28 1384.09 893.418 1379.37C930.556 1374.65 968.209 1358.91 983.683 1332.56C1012.05 1284.96 964.599 1220.45 1008.44 1180.72C1020.31 1169.7 1037.84 1163.01 1055.38 1157.9C1103.87 1144.53 1156.99 1144.53 1208.57 1144.92C1233.85 1144.92 1260.15 1145.71 1282.85 1136.66C1318.95 1122.5 1334.43 1089.45 1340.62 1058.77C1348.36 1021.01 1347.32 982.457 1346.29 944.3C1344.74 889.228 1343.2 834.549 1341.65 779.477C1341.65 768.463 1340.62 756.662 1332.88 747.615C1322.56 735.42 1301.93 731.093 1283.88 727.946C1240.04 720.079 1196.19 713.391 1152.35 707.097C1133.78 704.344 1114.7 701.984 1095.61 703.951C1068.28 706.705 1044.55 718.506 1019.27 727.16C954.283 749.975 862.985 727.16 817.079 685.462C741.772 617.409 796.963 521.19 799.027 485V478.157Z" fill="#84FAB0" stroke="black" stroke-width="20" stroke-miterlimit="10"/>
<path d="M663.373 818.423C677.816 812.129 713.406 817.636 737.649 830.618C775.302 850.68 793.871 890.016 780.976 923.846C768.081 957.676 725.786 983.639 679.879 985.606C677.3 985.606 674.72 985.605 672.141 984.818C669.046 983.638 667.499 980.886 666.468 978.525C638.614 923.454 641.709 827.864 663.373 818.423Z" fill="#FAFCFF" stroke="black" stroke-width="20" stroke-miterlimit="10"/>
<path d="M750.022 894.735C758.568 894.735 765.496 889.451 765.496 882.933C765.496 876.416 758.568 871.133 750.022 871.133C741.476 871.133 734.549 876.416 734.549 882.933C734.549 889.451 741.476 894.735 750.022 894.735Z" fill="black" stroke="black" stroke-width="20" stroke-miterlimit="10"/>
</g>
<defs>
<clipPath id="clip0_10_632">
<rect width="1760" height="1760" fill="white"/>
</clipPath>
</defs>
</svg>
