<svg width="1760" height="1760" viewBox="0 0 1760 1760" fill="none" xmlns="http://www.w3.org/2000/svg">
<rect width="1760" height="1760" fill="white"/>
<path d="M823.473 358.396C771.97 364.791 748.96 422.8 742.385 465.736C735.81 508.671 736.357 558.001 697.456 586.777C636.091 631.997 538.018 604.591 461.86 625.145C400.495 641.589 405.426 718.782 408.713 772.68C415.288 880.019 421.313 986.901 427.888 1094.24C430.08 1130.32 432.821 1167.78 451.449 1200.21C470.078 1232.64 510.622 1259.59 553.358 1255.93C643.762 1249.08 674.992 1127.58 765.396 1126.67C826.761 1125.76 864.019 1181.48 889.77 1228.07C915.522 1274.66 960.997 1328.56 1021.27 1318.51C1065.1 1311.66 1090.85 1273.29 1103.45 1237.66C1116.05 1202.04 1123.72 1162.75 1154.41 1135.81C1200.43 1095.15 1268.37 1101.55 1302.34 1149.97C1318.78 1173.72 1308.37 1208.43 1338.5 1220.31C1371.92 1233.55 1426.71 1214.83 1429.45 1184.22C1436.03 1109.77 1459.59 931.176 1346.72 634.281C1326.45 580.84 1230.56 629.256 1057.43 613.726C1030.58 611.442 999.898 604.135 983.461 585.864C938.533 537.448 976.338 452.49 951.135 408.641C935.246 381.235 918.808 346.521 824.021 358.396H823.473Z" fill="#3EC790" stroke="black" stroke-width="20" stroke-miterlimit="10"/>
<path d="M828.956 904.686C818.546 933.005 809.232 967.262 832.792 990.1C848.133 1004.26 872.24 1009.28 895.252 1012.02C924.291 1015.22 954.427 1016.13 982.37 1009.28C1010.31 1002.43 1036.06 985.99 1045.92 963.152C1056.33 938.943 1047.57 912.451 1036.61 888.699C1016.34 844.393 987.849 801.458 942.921 771.768C937.99 768.571 932.51 765.373 926.483 764.003C912.785 760.805 897.992 768.57 890.321 778.162C882.65 787.754 840.463 871.799 828.41 904.686H828.956Z" fill="white" stroke="black" stroke-width="20" stroke-miterlimit="10"/>
<path d="M921.001 812.875C937.038 812.875 950.039 803.877 950.039 792.778C950.039 781.678 937.038 772.68 921.001 772.68C904.963 772.68 891.962 781.678 891.962 792.778C891.962 803.877 904.963 812.875 921.001 812.875Z" fill="#030005"/>
</svg>
