<svg width="1760" height="1760" viewBox="0 0 1760 1760" fill="none" xmlns="http://www.w3.org/2000/svg">
<rect width="1760" height="1760" fill="white"/>
<path d="M410.291 465.839C379.362 521.634 405.728 649.286 422.967 708.885C451.36 809.484 452.374 913.888 470.12 1016.18C473.162 1033.09 477.218 1050.84 492.429 1062.25C506.119 1072.4 525.893 1074.93 544.146 1075.35C621.721 1077.47 696.762 1055.07 773.323 1047.03C827.575 1041.12 890.953 1046.19 922.896 1082.96C950.275 1114.66 943.684 1158.62 932.022 1196.24C920.36 1233.86 903.123 1273.59 914.277 1311.64C923.911 1345.03 954.839 1372.5 991.852 1387.72C1028.87 1402.94 1071.45 1406.32 1112.52 1403.36C1185.03 1398.29 1256.52 1372.08 1304.69 1326.85C1352.86 1281.63 1376.69 1216.96 1359.95 1157.78C1343.73 1101.56 1294.55 1054.22 1284.91 997.58C1270.21 910.506 1349.81 834.423 1383.28 751.154C1425.87 646.327 1374.66 451.045 1360.97 440.478C1346.77 429.488 1150.05 443.436 1132.81 448.931C1081.09 465.416 1155.12 666.615 1024.81 686.904C833.659 716.07 898.559 554.603 875.742 462.457C865.602 420.188 431.585 425.261 409.276 465.839H410.291Z" fill="#5CFF37" stroke="black" stroke-width="20" stroke-miterlimit="10"/>
<path d="M1208.35 1074.51C1155.12 956.156 1051.18 1027.59 1030.89 1123.12C996.924 1282.47 1129.26 1298.96 1176.41 1270.64C1239.28 1233.02 1230.16 1123.12 1208.35 1074.51Z" fill="white" stroke="black" stroke-width="20" stroke-miterlimit="10"/>
<path d="M1117.09 1186.1C1128.01 1186.1 1136.86 1174.93 1136.86 1161.16C1136.86 1147.38 1128.01 1136.22 1117.09 1136.22C1106.17 1136.22 1097.31 1147.38 1097.31 1161.16C1097.31 1174.93 1106.17 1186.1 1117.09 1186.1Z" fill="black"/>
</svg>
