<svg width="1760" height="1760" viewBox="0 0 1760 1760" fill="none" xmlns="http://www.w3.org/2000/svg">
<rect width="1760" height="1760" fill="white"/>
<path d="M1188.11 411.272C1188.11 367.925 1141.94 329.809 1091.29 319.719C1040.64 309.63 983.713 328.314 955.025 364.188C939.785 383.619 932.164 406.414 929.026 429.582C922.302 479.282 934.405 528.983 936.198 578.683C937.991 628.383 916.027 691.161 873.444 726.661C811.138 778.603 749.728 777.108 636.322 758.797C580.739 749.829 558.776 715.077 519.33 731.145C477.643 747.961 479.436 844.745 455.678 885.476C431.921 926.208 396.958 968.06 392.476 1014.4C384.855 1088.76 470.023 1160.13 559.672 1153.41C654.252 1146.31 729.109 1067.46 824.137 1072.69C886.443 1076.06 941.577 1121.64 946.06 1173.59C949.646 1216.93 922.303 1259.16 926.785 1302.51C933.957 1371.26 1031.23 1419.84 1110.12 1398.54C1177.8 1380.61 1222.63 1323.81 1235.18 1265.51C1247.73 1207.22 1233.83 1147.43 1216.35 1089.88C1198.87 1032.33 1177.8 975.16 1176.46 915.745C1175.11 860.44 1190.8 805.508 1214.11 753.566C1234.73 707.23 1279.11 653.793 1250.87 610.819C1211.42 550.656 1188.56 523.003 1188.56 410.898L1188.11 411.272Z" fill="#424242" stroke="black" stroke-width="20" stroke-miterlimit="10"/>
<path d="M969.815 873.52C921.853 808.499 828.618 848.11 810.24 900.426C779.759 987.867 898.544 996.836 941.127 981.141C997.606 960.589 989.538 900.426 969.815 873.52Z" fill="white" stroke="black" stroke-width="20" stroke-miterlimit="10"/>
<path d="M887.783 935.179C897.438 935.179 905.264 928.989 905.264 921.353C905.264 913.717 897.438 907.527 887.783 907.527C878.128 907.527 870.301 913.717 870.301 921.353C870.301 928.989 878.128 935.179 887.783 935.179Z" fill="black"/>
</svg>
