<svg width="1760" height="1760" viewBox="0 0 1760 1760" fill="none" xmlns="http://www.w3.org/2000/svg">
<rect width="1760" height="1760" fill="white"/>
<path d="M784.59 366.021C740.882 368.512 707.261 400.589 698.296 436.092C689.33 471.595 698.296 508.654 696.801 545.091C695.307 581.528 668.784 626.375 629.56 642.257C583.237 661.254 528.697 646.617 491.713 665.614C477.891 672.777 417 812.607 417 900.741C417 996.661 448.753 1090.09 480.133 1182.27C487.604 1204.07 495.449 1226.49 513.38 1243.31C527.949 1257.01 548.495 1266.04 569.415 1272.27C626.197 1289.09 703.152 1281.3 727.434 1235.21C737.52 1216.22 736.399 1193.79 749.1 1175.73C774.877 1138.36 845.482 1141.47 884.333 1169.5C923.184 1197.53 939.62 1241.44 957.551 1281.62C975.483 1321.79 1000.14 1364.46 1046.83 1383.45C1102.87 1406.19 1230.26 1391.86 1271.35 1352.62C1312.44 1313.38 1255.28 1129.33 1264.62 1061.75C1272.84 1000.4 1305.34 707.968 1283.67 734.751C1058.41 1012.54 889.562 855.585 877.608 834.096C830.165 747.208 885.453 685.234 908.24 515.818C925.051 391.247 866.027 361.039 785.336 365.399L784.59 366.021Z" fill="#84FAB0" stroke="black" stroke-width="20" stroke-miterlimit="10"/>
<path d="M777.493 905.723C783.844 918.18 775.999 949.012 760.682 969.877C736.774 1002.58 693.068 1018.15 656.458 1007.25C619.849 996.349 593.325 959.289 593.325 919.426C593.325 917.246 593.325 914.755 594.446 912.887C595.94 910.084 598.928 908.838 601.917 907.904C663.929 883.924 768.154 887.038 777.493 905.723Z" fill="#FAFCFF" stroke="black" stroke-width="20" stroke-miterlimit="10"/>
<path d="M686.342 960.225C692.532 960.225 697.55 956.042 697.55 950.882C697.55 945.723 692.532 941.539 686.342 941.539C680.153 941.539 675.136 945.723 675.136 950.882C675.136 956.042 680.153 960.225 686.342 960.225Z" fill="black" stroke="black" stroke-width="20" stroke-miterlimit="10"/>
</svg>
