<svg width="1760" height="1760" viewBox="0 0 1760 1760" fill="none" xmlns="http://www.w3.org/2000/svg">
<rect width="1760" height="1760" fill="white"/>
<path d="M629.544 586.68C546.73 599.321 470.915 527.851 435.923 541.464C410.263 551.187 366.522 908.532 376.437 1120.51C378.769 1164.26 382.269 1208.02 393.35 1250.81C403.264 1287.76 419.01 1325.19 449.336 1353.39C479.662 1381.59 527.484 1399.09 571.806 1390.34C627.793 1379.16 660.452 1332.48 691.944 1292.13C723.436 1251.78 770.092 1209.48 827.245 1215.8C853.489 1218.72 875.651 1231.36 898.979 1242.05C974.794 1277.06 1064.61 1291.64 1150.33 1281.92C1193.49 1277.06 1237.81 1265.39 1265.81 1237.19C1278.64 1224.06 1286.8 1208.51 1292.63 1191.98C1307.21 1152.11 1307.21 1108.84 1293.8 1068.49C1280.39 1030.08 1254.73 995.072 1224.4 963.957C1208.65 947.913 1191.16 932.842 1179.49 914.367C1167.83 895.892 1162.58 873.527 1171.91 854.566C1185.91 826.853 1223.82 815.672 1255.89 802.058C1353.29 760.733 1420.35 670.303 1412.19 579.873C1404.02 489.443 1279.8 362.549 1180.66 386.858C931.053 448.603 883.816 361.576 879.15 368.383C823.747 452.006 775.924 563.342 630.709 585.707L629.544 586.68Z" fill="#B0FCA4" stroke="black" stroke-width="20" stroke-miterlimit="10"/>
<path d="M975.954 804.973C985.868 824.42 973.622 872.552 949.711 905.126C912.387 956.175 844.153 980.485 787 963.469C729.847 946.452 688.44 888.596 688.44 826.365C688.44 822.962 688.44 819.072 690.19 816.155C692.523 811.78 697.189 809.835 701.855 808.376C798.664 770.94 961.374 775.802 975.954 804.973Z" fill="#FAFCFF" stroke="black" stroke-width="20" stroke-miterlimit="10"/>
<path d="M833.664 890.057C843.326 890.057 851.159 883.528 851.159 875.473C851.159 867.417 843.326 860.886 833.664 860.886C824.001 860.886 816.167 867.417 816.167 875.473C816.167 883.528 824.001 890.057 833.664 890.057Z" fill="black" stroke="black" stroke-width="20" stroke-miterlimit="10"/>
</svg>
