<svg width="1760" height="1760" viewBox="0 0 1760 1760" fill="none" xmlns="http://www.w3.org/2000/svg">
<rect width="1760" height="1760" fill="white"/>
<path d="M885.849 621.811C850.058 563.24 929.54 492.029 914.201 427.138C899.327 364.775 806.365 338.229 744.545 368.568C682.725 398.907 653.442 467.169 654.371 530.796C654.836 572.09 663.668 609.171 628.807 635.717C598.594 658.892 498.194 668.584 488.433 674.904C447.529 701.029 505.631 762.128 516.322 779.405C558.62 846.403 545.14 936.997 484.25 990.932C448.924 1022.54 395.47 1039.81 375.484 1080.68C356.426 1119.87 376.413 1165.8 405.696 1199.51C444.276 1243.76 502.378 1275.78 564.663 1277.47C626.948 1279.15 691.091 1246.71 713.867 1194.46C727.812 1162.01 725.953 1125.77 737.573 1092.48C754.306 1044.45 803.576 1005.68 858.889 1001.04C914.201 996.41 972.303 1029.28 988.107 1077.73C1004.37 1126.61 978.811 1178.02 956.965 1225.21C935.119 1272.41 916.526 1328.03 943.95 1372.69C969.98 1414.83 1032.73 1431.26 1083.86 1417.36C1134.99 1403.45 1174.03 1364.27 1196.81 1320.44C1219.58 1276.62 1227.49 1227.74 1233.53 1179.71C1249.33 1054.56 1300 898.231 1302.79 772.241C1303.72 733.475 1302.79 690.916 1275.36 661.42C1239.11 621.811 1126.62 655.943 1070.38 659.314C1005.77 663.106 908.624 660.578 885.849 622.655V621.811Z" fill="#2462F2" stroke="black" stroke-width="20" stroke-miterlimit="10"/>
<path d="M934.655 902.024C949.064 902.867 965.332 903.288 976.953 900.338C989.968 896.967 993.221 890.647 994.616 884.747C1002.05 859.887 1002.98 835.025 998.334 810.164C997.404 804.686 995.545 799.209 988.108 794.153C971.839 783.619 934.19 781.511 901.653 780.247C850.524 778.14 785.914 778.983 764.533 796.259C757.096 802.158 756.631 809.321 757.096 815.642C758.025 834.604 762.674 853.145 770.576 871.685C772.9 877.163 775.688 883.062 785.914 887.276C796.14 891.489 895.146 899.917 934.655 902.024Z" fill="white" stroke="black" stroke-width="20" stroke-miterlimit="10"/>
<path d="M794.281 853.564C801.982 853.564 808.225 847.905 808.225 840.924C808.225 833.942 801.982 828.283 794.281 828.283C786.58 828.283 780.336 833.942 780.336 840.924C780.336 847.905 786.58 853.564 794.281 853.564Z" fill="black" stroke="black" stroke-width="20" stroke-miterlimit="10"/>
</svg>
