<svg width="1760" height="1760" viewBox="0 0 1760 1760" fill="none" xmlns="http://www.w3.org/2000/svg">
<rect width="1760" height="1760" fill="white"/>
<path d="M1408.05 752.577C1416.22 745.765 1257.97 693.781 1215.4 654.345C1165.51 608.098 1131.97 551.096 1120.79 545.001C1081.22 523.132 1027.47 545.002 981.453 535.322C951.78 529.227 922.539 509.509 918.238 484.055C906.627 413.787 890.285 386.541 847.711 393.711C768.583 406.976 835.24 570.813 791.806 584.795C708.808 611.324 623.229 601.287 493.356 575.474C473.575 571.531 449.062 575.833 438.311 590.173C433.151 596.626 432.291 604.871 431.43 612.758C413.799 769.784 391.006 926.452 362.624 1082.4C355.313 1122.91 347.572 1165.58 362.624 1204.65C386.276 1265.96 464.113 1305.39 541.521 1307.9C577.214 1308.98 655.482 1298.22 650.321 1203.58C648.171 1165.93 633.98 1129.01 634.84 1091.36C636.13 1039.02 678.703 1019.66 701.066 1013.21C859.751 968.397 833.09 1150.52 960.812 1150.52C1002.1 1150.52 1043.38 1137.97 1066.17 1109.29C1088.96 1080.61 1282.48 857.619 1408.48 752.577H1408.05Z" fill="#B7ABFF" stroke="black" stroke-width="20" stroke-miterlimit="10"/>
<path d="M968.123 727.839C941.03 722.102 908.348 717.441 888.136 733.933C875.235 744.329 871.363 760.462 870.072 775.519C867.922 794.52 868.353 814.238 876.094 832.522C883.834 850.806 900.176 866.58 921.678 872.317C944.47 878.053 969.412 871.6 991.344 863.354C1032.2 848.655 1071.76 828.22 1097.57 797.389C1100.58 794.162 1103.15 790.577 1104.01 786.633C1106.16 777.312 1098.86 768.35 1089.39 763.689C1079.93 759.029 999.516 735.008 968.123 728.196V727.839Z" fill="white" stroke="black" stroke-width="20" stroke-miterlimit="10"/>
<path d="M954.152 817.951C964.589 817.513 972.537 808.662 971.905 798.181C971.273 787.701 962.299 779.559 951.862 779.997C941.425 780.435 933.477 789.286 934.109 799.766C934.742 810.247 943.715 818.388 954.152 817.951Z" fill="#030005"/>
</svg>
