<svg width="1760" height="1760" viewBox="0 0 1760 1760" fill="none" xmlns="http://www.w3.org/2000/svg">
<rect width="1760" height="1760" fill="white"/>
<path d="M779.308 443.786C759.208 486.173 727.309 526.812 680.991 527.249C656.958 527.249 629.429 520.257 611.076 535.551C602.337 542.98 597.53 554.341 594.472 565.265C584.858 599.35 584.422 636.493 593.598 670.577C604.959 712.526 630.303 750.543 634.235 793.804C639.479 852.359 604.958 906.107 572.186 955.048C539.851 1002.68 507.515 1050.31 475.18 1097.94C451.584 1132.9 426.677 1168.73 392.157 1193.64C379.485 1202.38 365.065 1210.68 358.947 1225.1C345.401 1256.56 381.233 1286.28 411.821 1301.57C459.013 1324.73 512.76 1345.7 563.447 1331.28C619.379 1315.12 654.336 1260.93 679.243 1208.49C704.15 1156.06 725.561 1098.81 770.568 1062.11C788.921 1047.25 811.643 1036.76 835.239 1038.07C883.305 1040.7 914.766 1091.38 923.068 1139.01C931.371 1186.65 925.69 1236.46 940.984 1282.34C968.513 1364.06 1080.81 1436.6 1216.27 1387.65C1359.16 1336.09 1415.97 1207.18 1324.2 1057.3C1299.3 1016.22 1250.79 990.006 1237.25 944.124C1229.38 917.468 1235.5 887.317 1252.54 865.905C1272.2 841.434 1302.79 830.073 1328.57 812.157C1375.76 779.821 1406.35 722.14 1400.67 665.333C1394.99 608.526 1350.86 555.652 1294.49 546.039C1250.79 538.61 1206.66 555.652 1162.09 556.526C1097.85 557.4 1034.06 521.131 1002.16 465.198C986.428 437.669 978.126 405.332 956.278 382.173C938.799 363.383 912.582 351.584 887.238 354.206C861.894 356.828 816.887 361.635 777.997 444.223L779.308 443.786Z" fill="#ABCDFF" stroke="black" stroke-width="20" stroke-miterlimit="10"/>
<path d="M1052.41 1093.13C1027.94 1121.1 1011.34 1156.49 1010.9 1193.2C1010.46 1229.91 1027.07 1267.92 1058.09 1288.46C1070.76 1296.76 1085.19 1302.01 1100.04 1305.94C1123.2 1312.06 1147.23 1314.68 1170.83 1311.18C1237.25 1300.7 1287.94 1232.09 1281.38 1165.23C1274.83 1098.38 1212.78 1042.44 1145.49 1039.39C1114.46 1038.07 1086.93 1054.68 1052.85 1093.13H1052.41Z" fill="white" stroke="black" stroke-width="20" stroke-miterlimit="10"/>
<path d="M1146.36 1118.91C1154.08 1118.91 1160.34 1112.65 1160.34 1104.93C1160.34 1097.21 1154.08 1090.95 1146.36 1090.95C1138.64 1090.95 1132.38 1097.21 1132.38 1104.93C1132.38 1112.65 1138.64 1118.91 1146.36 1118.91Z" fill="black" stroke="black" stroke-width="20" stroke-miterlimit="10"/>
</svg>
