<svg width="1760" height="1760" viewBox="0 0 1760 1760" fill="none" xmlns="http://www.w3.org/2000/svg">
<rect width="1760" height="1760" fill="white"/>
<path d="M476.531 840.683C353.671 851.604 405.363 1000.96 448.913 1058.52C469.803 1086.56 502.023 1107.81 537.429 1122.86C596.204 1147.66 667.725 1154.45 728.27 1132.9C769.341 1118.44 802.622 1092.17 842.632 1075.64C888.66 1056.75 942.831 1051.73 992.754 1062.06C1047.28 1073.27 1094.37 1101.32 1145.36 1120.5C1196.34 1139.69 1259.01 1149.43 1306.81 1124.63C1348.59 1102.79 1367.35 1060.88 1379.04 1021.03C1385.41 999.779 1390.72 977.641 1387.18 955.799C1377.98 895.88 1307.87 850.128 1306.1 789.914C1305.39 765.12 1316.37 741.212 1323.45 717.008C1330.53 692.805 1332.66 665.354 1316.01 644.692C1297.25 621.374 1259.36 613.699 1225.73 615.175C1192.09 616.651 1158.81 624.916 1125.17 625.211C1101.81 625.211 1078.08 621.964 1055.42 626.686C1028.52 632.59 1007.27 649.12 988.506 666.24C901.76 745.049 834.842 826.515 740.307 922.149C714.46 948.124 683.658 953.142 657.811 951.371C563.631 945.763 565.399 832.714 476.883 840.388L476.531 840.683Z" fill="#FCFFA6" stroke="black" stroke-width="20" stroke-miterlimit="10"/>
<path d="M993.819 808.805C986.384 808.805 980.364 813.232 980.364 819.43C980.364 837.14 981.072 871.381 988.507 890.271C999.129 916.541 1021.79 940.45 1053.66 948.419C1064.99 951.371 1076.67 951.961 1088.35 951.961C1109.95 951.666 1132.26 947.829 1149.25 936.907C1165.54 926.576 1176.16 910.933 1181.83 894.699C1186.43 881.416 1189.26 836.55 1190.32 820.611C1190.32 817.364 1187.49 814.708 1183.24 814.413L993.819 808.805Z" fill="white" stroke="black" stroke-width="20" stroke-miterlimit="10"/>
<path d="M1097.91 879.646C1103.78 879.646 1108.54 875.682 1108.54 870.792C1108.54 865.901 1103.78 861.936 1097.91 861.936C1092.05 861.936 1087.29 865.901 1087.29 870.792C1087.29 875.682 1092.05 879.646 1097.91 879.646Z" fill="black" stroke="black" stroke-width="20" stroke-miterlimit="10"/>
</svg>
