<svg width="1760" height="1760" viewBox="0 0 1760 1760" fill="none" xmlns="http://www.w3.org/2000/svg">
<rect width="1760" height="1760" fill="white"/>
<path d="M620.27 428.999C555.688 438.682 476.239 490.196 447.897 539.775C419.555 589.353 418.162 645.905 417.697 700.518C416.768 779.147 416.768 858.161 417.697 936.79C418.162 992.178 419.555 1049.12 447.432 1099.08C460.442 1122.32 487.39 1145.95 516.66 1137.81C544.073 1130.07 550.113 1100.63 551.507 1076.23C554.759 1011.93 558.011 947.248 561.728 882.951C564.051 840.732 566.374 797.738 583.565 758.23C600.756 718.723 635.138 681.926 682.993 668.369C702.972 662.947 726.203 661.784 745.252 669.531C770.806 680.376 783.815 704.391 792.178 726.857C848.862 882.951 780.098 1050.28 788.926 1213.34C791.249 1254.4 799.148 1296.62 822.843 1332.64C846.539 1368.66 888.819 1398.49 938.068 1403.14C1011.94 1410.11 1079.31 1358.59 1102.54 1299.33C1125.77 1240.07 1115.09 1176.16 1103.94 1114.96C1092.79 1053.76 1079.78 990.242 1099.75 930.206C1168.05 721.047 1690.28 300.017 1130.42 405.758C1030.53 424.738 1088.14 579.283 961.299 579.283C886.496 579.283 857.689 548.684 817.732 500.267C775.452 448.752 703.437 416.604 621.664 428.999H620.27Z" fill="#B0FCA4" stroke="black" stroke-width="20" stroke-miterlimit="10"/>
<path d="M906.942 1143.24C866.52 1164.54 866.985 1224.58 892.074 1260.99C896.256 1266.8 900.902 1272.22 906.942 1276.09C914.84 1281.52 924.597 1283.84 933.89 1285.39C969.2 1291.2 1007.76 1282.29 1031.92 1258.28C1056.08 1234.26 1062.59 1195.53 1042.15 1168.42C1029.6 1151.76 1009.16 1141.69 987.785 1137.04C966.413 1132.39 940.394 1125.04 906.477 1142.46L906.942 1143.24Z" fill="white" stroke="black" stroke-width="20" stroke-miterlimit="10"/>
<path d="M966.876 1232.32C976.371 1232.32 984.067 1225.21 984.067 1216.44C984.067 1207.67 976.371 1200.56 966.876 1200.56C957.382 1200.56 949.686 1207.67 949.686 1216.44C949.686 1225.21 957.382 1232.32 966.876 1232.32Z" fill="black"/>
</svg>
