<svg width="1760" height="1760" viewBox="0 0 1760 1760" fill="none" xmlns="http://www.w3.org/2000/svg">
<rect width="1760" height="1760" fill="white"/>
<path d="M1001.45 371.534C949.042 387.763 909.608 424.799 876.663 462.251C783.318 568.365 722.42 691.541 644.051 805.562C569.675 913.341 478.826 1016.13 439.392 1135.97C429.908 1164.69 416.43 1203.8 419.425 1233.35C423.419 1268.72 439.392 1311.58 474.833 1316.58C529.242 1324.48 609.608 1300.76 651.039 1257.07C683.984 1222.11 706.946 1163.02 731.904 1114.33C756.863 1065.65 795.798 1016.54 856.696 1001.98C874.167 997.816 893.135 996.568 910.107 1002.81C942.054 1014.88 974.001 1048.17 978.992 1076.88C1002.45 1208.38 984.483 1284.95 1053.87 1313.66C1257.53 1397.72 1385.81 1292.02 1333.4 1165.52C1310.44 1109.76 1323.42 1098.11 1287.98 1046.92C1266.01 1014.88 1238.06 1003.64 1210.11 974.929C1182.15 946.216 1169.67 898.776 1203.62 875.057C1249.04 843.431 1330.41 883.795 1373.83 850.088C1394.8 833.859 1396.8 806.811 1395.8 782.675C1394.3 741.478 1388.31 699.448 1367.84 661.996C1347.38 624.544 1309.44 592.085 1261.02 582.098C1233.57 576.272 1203.62 577.937 1178.66 566.701C1145.21 551.304 1132.74 517.18 1126.75 485.554C1120.76 453.928 1118.76 420.637 1096.8 394.837C1074.83 369.037 1026.91 363.627 1001.95 371.117L1001.45 371.534Z" fill="#8CFFD9" stroke="black" stroke-width="20" stroke-miterlimit="10"/>
<path d="M942.553 617.052C888.144 655.753 867.678 773.103 872.17 848.423C873.169 860.491 874.666 872.143 878.16 880.882C882.653 892.533 890.14 899.192 897.628 903.77C926.081 920.415 965.016 908.764 998.46 865.07C1031.9 821.375 1056.36 744.807 1051.37 688.212C1048.38 653.673 1034.9 629.953 1017.93 617.886C1000.96 605.818 976.996 592.085 942.553 616.637V617.052Z" fill="white" stroke="black" stroke-width="20" stroke-miterlimit="10"/>
<path d="M976.667 774.778C980.891 757.436 977.309 742.19 968.664 740.727C960.018 739.263 949.585 752.135 945.36 769.478C941.135 786.82 944.719 802.066 953.364 803.529C962.009 804.993 972.442 792.12 976.667 774.778Z" fill="black"/>
</svg>
