<svg width="1760" height="1760" viewBox="0 0 1760 1760" fill="none" xmlns="http://www.w3.org/2000/svg">
<rect width="1760" height="1760" fill="white"/>
<path d="M832.918 432.326C762.117 411.077 731.437 457.116 708.308 496.466C685.18 535.815 680.932 580.673 668.188 623.17C655.443 665.668 629.483 709.739 581.81 727.84C571.426 731.775 560.098 734.529 553.018 741.612C547.826 746.727 545.465 753.417 544.049 760.106C535.081 801.423 553.018 843.133 555.378 885.237C557.738 927.34 534.137 977.314 484.104 983.61C456.728 986.758 427.463 975.74 401.975 984.397C374.127 993.84 363.27 1023.75 369.878 1048.14C376.487 1072.54 396.783 1092.61 416.607 1111.5C436.432 1130.38 456.728 1150.06 463.808 1174.45C470.416 1195.31 466.64 1218.92 479.856 1237.81C499.681 1265.74 547.826 1269.68 584.17 1257.48C620.515 1245.28 648.363 1221.67 681.404 1204.36C714.444 1187.05 756.453 1175.24 791.382 1189.8C823.478 1203.57 837.638 1234.66 851.799 1262.2C865.959 1289.75 888.143 1319.65 924.016 1323.98C957.057 1327.92 988.209 1307.06 1003.79 1282.27C1019.36 1257.48 1024.08 1229.15 1033.52 1202.39C1042.96 1175.63 1059.95 1148.09 1090.16 1136.29C1154.83 1110.31 1235.07 1167.76 1299.73 1142.58C1337.49 1128.02 1353.54 1091.43 1362.51 1057.59C1388 958.82 1426.7 774.271 1359.68 764.04C1317.2 757.351 1269.53 797.094 1189.76 806.144C1109.99 815.195 1057.59 811.653 987.265 776.238C916.936 740.824 866.903 672.75 876.815 604.676C880.591 579.099 892.391 554.309 892.863 528.732C893.335 503.155 912.688 455.936 833.39 432.326H832.918Z" fill="#9DC0EB" stroke="black" stroke-width="20" stroke-miterlimit="10"/>
<path d="M958.475 963.148C934.875 1004.07 877.29 1025.71 823.009 1024.14C809.793 1023.75 796.576 1022.17 784.304 1017.45C761.648 1008.79 745.6 990.299 737.103 971.018C721.999 936.391 727.191 895.861 750.792 864.382C753.152 861.234 756.456 857.693 761.176 857.299C764.008 857.299 767.312 858.085 770.144 858.872C824.897 878.941 877.762 901.764 929.211 926.947C945.259 934.817 966.971 948.196 958.475 962.755V963.148Z" fill="white" stroke="black" stroke-width="20" stroke-miterlimit="10"/>
<path d="M836.259 958.907C842.67 952.051 841.701 942.486 834.094 937.542C826.488 932.598 815.124 934.148 808.713 941.004C802.302 947.859 803.271 957.425 810.878 962.368C818.484 967.312 829.848 965.762 836.259 958.907Z" fill="black"/>
</svg>
