<svg width="1760" height="1760" viewBox="0 0 1760 1760" fill="none" xmlns="http://www.w3.org/2000/svg">
<rect width="1760" height="1760" fill="white"/>
<path d="M578.832 734.912C549.303 731.736 519.298 740.868 506.915 763.5C494.532 786.131 502.628 812.336 497.39 836.953C484.53 901.672 481.673 936.612 465.48 995.771C459.288 1018.01 445 1038.65 445 1061.28C445 1083.92 459.764 1108.53 486.435 1114.09C521.679 1121.64 551.208 1093.44 575.498 1070.81C593.12 1054.14 613.123 1038.65 637.413 1029.92C661.702 1021.18 691.231 1020.39 713.616 1032.3C740.287 1046.2 750.765 1074.78 749.336 1100.99C747.907 1127.19 736.477 1152.21 728.38 1177.22C718.855 1207.4 713.139 1239.16 721.236 1269.73C729.333 1300.3 751.717 1329.29 785.532 1342.39C804.107 1349.54 825.063 1351.52 845.542 1352.71C911.744 1356.68 986.518 1350.73 1029.38 1308.64C1053.2 1285.22 1062.72 1254.25 1070.82 1224.47C1078.91 1194.69 1087.49 1163.72 1109.87 1139.5C1132.26 1115.28 1171.79 1099 1206.08 1110.12C1232.75 1118.86 1250.85 1142.28 1278.47 1148.24C1306.57 1154.59 1337.53 1139.9 1351.82 1118.46C1366.1 1097.02 1367.06 1071.21 1361.82 1047.39C1347.05 979.889 1284.66 921.524 1206.08 901.274C1170.36 892.142 1131.3 890.157 1098.44 875.069C1053.67 854.82 1027.48 812.733 1021.76 770.646C1016.05 728.559 1028.43 686.076 1045.1 645.975C1062.72 604.285 1076.06 562.198 1084.63 518.523C1097.49 453.011 1049.39 410.924 996.519 407.35C882.691 399.409 845.542 528.846 826.968 562.595C804.107 605.079 789.819 651.533 757.433 689.65C725.046 727.766 678.372 745.236 578.355 734.912H578.832Z" fill="#3EC790" stroke="black" stroke-width="20" stroke-miterlimit="10"/>
<path d="M903.172 1029.52C858.879 1052.55 837.923 1131.56 838.399 1183.97C838.399 1192.31 839.352 1200.65 841.733 1207C844.591 1215.34 850.306 1220.5 856.021 1224.07C877.93 1237.57 908.887 1232.41 936.511 1204.62C964.135 1176.83 986.996 1125.61 985.567 1086.3C984.614 1062.08 975.089 1045.01 962.229 1035.48C949.37 1025.95 931.272 1014.83 903.172 1029.52Z" fill="white" stroke="black" stroke-width="20" stroke-miterlimit="10"/>
<path d="M922.617 1141.05C926.658 1129.47 924.61 1118.79 918.043 1117.19C911.476 1115.6 902.877 1123.7 898.835 1135.28C894.794 1146.86 896.842 1157.54 903.409 1159.13C909.976 1160.72 918.576 1152.63 922.617 1141.05Z" fill="black"/>
</svg>
