<svg width="1760" height="1760" viewBox="0 0 1760 1760" fill="none" xmlns="http://www.w3.org/2000/svg">
<rect width="1760" height="1760" fill="white"/>
<path d="M461.505 693.477C437.972 709.998 442.101 759.217 439.211 784.687C436.321 810.157 429.715 838.035 406.595 854.901C391.731 865.915 369.024 877.617 376.455 892.761C378.933 897.58 383.887 901.022 388.841 904.12C422.696 925.46 459.441 945.422 479.671 976.399C501.966 1010.13 501.966 1053.5 532.931 1082.41C563.483 1111.32 622.523 1115.45 658.442 1091.01C694.774 1066.23 705.921 1020.46 747.208 1001.87C788.907 983.283 848.359 1009.1 854.139 1047.99C857.855 1074.84 840.515 1099.96 826.064 1124.4C802.944 1162.95 788.081 1212.51 820.284 1245.9C855.791 1282.04 928.455 1274.46 970.98 1244.18C1013.5 1213.89 1026.72 1164.33 1058.92 1126.12C1153.47 1013.92 1404.9 1017.7 1384.26 789.505C1376.83 707.244 1315.31 712.752 1278.15 698.296C1256.27 689.691 1219.11 664.91 1195.99 670.417C1184.02 673.17 1173.7 679.365 1162.96 683.84C1120.85 702.081 1070.89 702.082 1023 701.393C977.998 700.705 930.106 699.328 892.536 678.677C854.965 657.681 830.606 618.788 786.842 610.527C707.985 595.383 719.958 697.608 652.249 707.245C627.477 710.687 501.553 665.254 461.918 693.133L461.505 693.477Z" fill="#E6E1E1" stroke="black" stroke-width="20" stroke-miterlimit="10"/>
<path d="M1212.92 810.845C1169.57 775.05 1059.75 781.245 992.038 799.831C981.304 802.929 970.983 806.371 963.138 810.845C953.229 816.697 948.275 823.925 945.385 830.809C934.65 856.623 951.578 885.534 996.167 903.432C1040.76 921.33 1114.25 926.148 1164.62 911.004C1195.58 901.711 1214.99 886.567 1223.24 870.735C1231.5 854.902 1240.58 833.562 1212.92 810.845Z" fill="white" stroke="black" stroke-width="20" stroke-miterlimit="10"/>
<path d="M1075.85 867.636C1092.27 867.636 1105.58 861.934 1105.58 854.901C1105.58 847.867 1092.27 842.166 1075.85 842.166C1059.43 842.166 1046.13 847.867 1046.13 854.901C1046.13 861.934 1059.43 867.636 1075.85 867.636Z" fill="black"/>
</svg>
