<svg width="1760" height="1760" viewBox="0 0 1760 1760" fill="none" xmlns="http://www.w3.org/2000/svg">
<g clip-path="url(#clip0_10_644)">
<path d="M1760 0H0V1760H1760V0Z" fill="white"/>
<path d="M641.78 879.664C608.49 831.296 566.639 888.783 539.056 912.571C511.948 936.359 484.84 960.146 457.732 984.331C435.38 1004.15 412.077 1025.56 406.37 1052.13C400.188 1081.47 416.357 1110.01 426.344 1138.56C437.758 1171.86 441.087 1207.15 435.38 1241.64C429.673 1275.73 416.357 1314.19 440.612 1341.94C458.208 1362.56 489.596 1369.7 519.082 1376.04C560.457 1384.76 602.307 1393.48 644.633 1391.9C686.959 1390.31 730.712 1377.23 756.869 1349.08C780.648 1322.91 786.354 1288.82 797.293 1257.5C808.231 1226.18 830.107 1192.87 868.629 1184.94C901.443 1178.2 936.16 1192.87 957.561 1215.07C978.962 1237.28 988.474 1265.03 996.558 1291.99C999.887 1302.3 1002.74 1313 1011.78 1320.93C1020.81 1328.86 1034.13 1332.03 1046.97 1334.41C1090.72 1342.34 1136.38 1342.34 1180.61 1334.81C1195.35 1332.43 1210.57 1328.86 1221.98 1320.53C1242.91 1305.87 1247.66 1281.28 1250.04 1258.69C1260.5 1157.59 1252.42 1054.9 1224.83 955.785C1209.62 900.28 1188.69 841.207 1212.47 787.684C1224.36 760.724 1246.71 737.729 1267.16 714.734C1287.61 691.739 1298.07 664.383 1310.44 637.423C1326.61 602.137 1298.07 576.368 1265.73 566.059C1236.72 556.941 1202.48 566.852 1173.95 556.148C1121.63 536.325 1153.02 445.93 1119.26 407.473C1088.34 371.791 1027.95 376.945 984.669 402.319C941.392 427.693 895.261 489.542 893.834 533.153C892.407 576.765 907.15 619.979 920.942 662.4C934.734 704.822 949.001 748.038 945.672 792.046C942.343 836.053 919.515 881.25 874.811 904.245C839.619 922.483 796.341 924.861 754.966 926.447C732.139 927.24 708.836 928.43 687.435 922.087C666.034 915.743 655.096 898.695 642.255 879.664H641.78Z" fill="#B0FCA4" stroke="black" stroke-width="20" stroke-miterlimit="10"/>
<path d="M1055.06 627.511C1025.57 642.18 1026.05 684.206 1044.12 709.58C1046.97 713.545 1050.77 717.51 1055.06 720.285C1060.76 723.854 1067.9 725.835 1075.03 727.025C1100.71 730.989 1129.24 724.645 1146.84 707.994C1164.44 691.342 1169.19 663.987 1154.45 645.353C1145.41 633.855 1130.2 626.719 1114.5 623.548C1098.81 620.376 1079.78 615.221 1055.06 627.511Z" fill="white" stroke="black" stroke-width="20" stroke-miterlimit="10"/>
<path d="M1098.81 689.358C1105.9 689.358 1111.65 684.388 1111.65 678.257C1111.65 672.126 1105.9 667.156 1098.81 667.156C1091.72 667.156 1085.97 672.126 1085.97 678.257C1085.97 684.388 1091.72 689.358 1098.81 689.358Z" fill="black"/>
</g>
<defs>
<clipPath id="clip0_10_644">
<rect width="1760" height="1760" fill="white"/>
</clipPath>
</defs>
</svg>
