<svg width="1760" height="1760" viewBox="0 0 1760 1760" fill="none" xmlns="http://www.w3.org/2000/svg">
<g clip-path="url(#clip0_10_638)">
<path d="M1760 0H0V1760H1760V0Z" fill="white"/>
<path d="M644.568 734.21C621.587 719.633 593.61 704.223 566.633 712.136C534.66 721.299 527.166 755.034 515.176 781.689C495.193 827.502 449.731 864.569 435.743 912.047C424.752 949.947 435.243 989.512 443.236 1027.83C455.726 1086.55 463.22 1146.11 464.718 1205.66C465.718 1238.98 466.217 1275.22 489.697 1302.29C507.183 1322.28 535.159 1334.36 564.135 1337.27C599.605 1341.02 637.074 1331.44 664.051 1311.87C704.018 1282.71 718.506 1236.9 744.484 1198.17C767.964 1163.6 803.934 1132.78 849.896 1122.37C895.857 1111.96 951.811 1126.95 972.293 1162.77C1001.27 1213.16 954.308 1281.46 993.775 1326.86C1017.26 1353.93 1062.72 1360.59 1102.68 1361.01C1136.16 1361.43 1169.63 1359.76 1202.6 1355.18C1222.58 1352.68 1242.57 1348.93 1259.05 1338.94C1284.53 1323.53 1295.52 1296.87 1304.51 1271.88C1311.51 1252.73 1318.5 1233.15 1319 1213.16C1319 1174.43 1293.52 1139.03 1265.55 1108.21C1237.57 1077.39 1206.1 1047.4 1191.61 1010.33C1177.12 973.269 1185.12 927.041 1223.58 905.8C1252.56 889.558 1292.03 890.807 1319.5 872.898C1341.48 858.321 1350.48 834.166 1356.47 810.843C1366.46 771.694 1369.96 731.712 1366.96 692.146C1365.96 677.569 1363.47 661.743 1350.98 651.748C1335.49 639.253 1311.01 640.085 1290.53 645.916C1270.04 651.747 1251.56 660.91 1230.58 664.241C1187.11 670.489 1143.65 646.75 1121.17 615.097C1098.69 583.445 1093.69 545.546 1091.69 508.895C1089.69 470.996 1094.69 411.439 1062.22 385.201C1028.25 358.546 968.297 346.051 931.328 369.79C894.359 393.529 857.889 446.006 851.894 484.739C841.902 548.46 857.39 649.249 807.931 727.547C781.453 769.195 720.504 782.522 643.569 733.794L644.568 734.21Z" fill="#DEB0FF" stroke="black" stroke-width="20" stroke-miterlimit="10"/>
<path d="M779.453 965.774C767.463 919.128 797.937 869.983 844.398 841.663C855.888 834.999 867.878 828.752 881.867 826.253C907.845 821.256 935.322 827.918 957.803 839.58C997.77 860.404 1024.75 897.055 1029.74 935.788C1029.74 939.952 1030.24 944.534 1026.74 947.449C1024.25 949.531 1021.25 949.947 1017.75 950.78C956.304 963.691 894.356 973.271 831.908 979.934C812.425 982.017 783.949 982.85 779.453 965.774Z" fill="white" stroke="black" stroke-width="20" stroke-miterlimit="10"/>
<path d="M902.852 919.96C913.061 919.96 921.336 912.502 921.336 903.301C921.336 894.101 913.061 886.641 902.852 886.641C892.643 886.641 884.367 894.101 884.367 903.301C884.367 912.502 892.643 919.96 902.852 919.96Z" fill="black"/>
</g>
<defs>
<clipPath id="clip0_10_638">
<rect width="1760" height="1760" fill="white"/>
</clipPath>
</defs>
</svg>
