<svg width="1760" height="1760" viewBox="0 0 1760 1760" fill="none" xmlns="http://www.w3.org/2000/svg">
<rect width="1760" height="1760" fill="white"/>
<path d="M612.552 555.118C586.864 551.318 558.69 548.21 540.459 563.408C511.87 586.896 516.842 627.999 491.154 653.905C471.266 673.593 438.12 679.809 414.503 696.389C376.8 722.985 372.242 772.725 394.201 809.338C414.503 842.842 453.036 867.712 468.78 903.289C498.198 970.298 434.391 1046.63 460.494 1114.68C466.709 1130.91 478.724 1146.46 497.369 1153.36C511.456 1158.54 527.201 1158.2 542.116 1158.2C589.764 1157.85 637.826 1159.24 685.474 1162.34C695.003 1163.04 704.947 1163.73 712.405 1168.56C722.349 1174.78 725.249 1185.83 728.564 1196.19C740.994 1233.84 768.34 1269.07 809.358 1288.07C850.377 1307.07 905.482 1305.69 940.7 1279.78C972.603 1256.29 982.961 1218.99 994.977 1184.8C1006.99 1150.6 1026.47 1113.64 1066.66 1100.86C1118.45 1083.94 1175.62 1116.75 1230.73 1112.26C1271.75 1109.15 1309.04 1083.25 1320.64 1050.09C1332.24 1016.93 1317.32 978.588 1284.59 957.518C1243.99 931.267 1183.5 931.957 1148.28 900.871C1127.98 882.91 1119.69 855.622 1127.98 831.789C1136.26 807.956 1159.88 788.268 1188.47 782.05C1242.74 769.961 1303.24 803.121 1355.03 784.814C1389.83 772.38 1408.89 737.838 1404.33 706.406C1399.78 674.974 1374.09 647.688 1342.6 630.417C1311.11 613.147 1273.41 604.511 1235.7 599.675C1217.06 597.258 1196.75 595.876 1180.18 603.475C1164.85 610.729 1155.32 624.2 1145.79 636.634C1115.96 674.284 1071.21 705.371 1018.59 715.733C965.974 726.095 905.067 711.242 873.579 674.629C859.491 658.05 830.074 623.163 812.672 608.656C722.763 533.703 704.533 569.625 612.552 555.463V555.118Z" fill="#B0FCA4" stroke="black" stroke-width="20" stroke-miterlimit="10"/>
<path d="M694.999 907.087C647.352 910.541 601.775 884.291 578.987 849.405C573.601 841.115 569.043 831.789 567.386 822.117C564.9 803.811 574.43 785.849 588.103 771.342C612.548 746.128 651.495 731.276 690.442 731.966C694.585 731.966 699.143 732.657 701.629 735.075C703.286 736.802 703.7 739.22 704.114 741.292C710.744 784.468 714.059 828.335 714.059 871.856C714.059 885.672 711.987 905.361 694.999 906.397V907.087Z" fill="white" stroke="black" stroke-width="20" stroke-miterlimit="10"/>
<path d="M662.149 817.276C663.188 810.271 656.667 803.834 647.583 802.897C638.499 801.96 630.293 806.88 629.254 813.885C628.214 820.889 634.736 827.327 643.82 828.264C652.904 829.2 661.11 824.281 662.149 817.276Z" fill="black"/>
</svg>
