<svg width="1760" height="1760" viewBox="0 0 1760 1760" fill="none" xmlns="http://www.w3.org/2000/svg">
<rect width="1760" height="1760" fill="white"/>
<path d="M943.015 545.268C940.116 521.789 952.954 497.965 947.156 474.832C941.358 451.699 923.135 428.911 895.8 422.696C862.253 415.1 827.463 434.09 808.826 458.259C790.188 482.428 782.734 511.431 770.309 538.362C742.146 599.475 678.365 654.718 600.088 658.516C578.551 659.552 548.731 662.314 547.903 680.268C547.489 690.281 557.015 697.876 565.298 705.472C605.472 742.761 601.33 810.78 549.974 836.675C516.013 853.594 473.768 849.795 434.008 852.212C394.249 854.629 349.105 868.439 339.579 900.549C330.053 933.695 365.257 963.734 401.29 980.307C437.322 996.88 478.738 1009.31 499.861 1038.66C523.468 1071.8 511.457 1114.27 491.991 1149.49C472.526 1184.71 446.433 1218.2 443.12 1256.87C439.807 1295.54 470.869 1339.73 516.841 1338.7C545.418 1338.01 569.025 1320.74 586.834 1302.1C645.231 1240.64 662.626 1157.78 717.71 1093.9C742.974 1064.9 787.289 1038.66 825.807 1053.85C863.081 1068.35 868.879 1110.13 865.152 1144.31C861.424 1178.49 855.626 1217.16 883.375 1242.71C908.639 1265.85 953.783 1267.57 987.33 1253.76C1020.88 1239.95 1045.31 1214.06 1066.02 1188.16C1092.11 1155.36 1115.72 1116.69 1106.61 1077.67C1092.11 1016.22 1001.83 977.891 999.755 915.397C998.926 887.085 1018.81 859.118 1049.45 846.343C1080.1 833.568 1119.03 837.02 1145.54 854.629C1159.21 863.606 1169.56 876.035 1184.06 884.322C1224.65 907.8 1284.7 890.882 1315.35 858.427C1345.99 825.971 1355.93 783.504 1364.63 742.762C1366.7 732.749 1368.77 722.046 1364.63 712.378C1360.9 704.437 1352.62 698.567 1345.17 692.697C1299.61 659.206 1254.05 626.061 1208.49 592.569C1198.14 584.973 1187.37 577.378 1174.12 575.306C1148.03 571.163 1125.66 588.771 1102.88 599.82C1049.45 625.37 951.298 616.047 943.015 545.612V545.268Z" fill="#424242" stroke="black" stroke-width="20" stroke-miterlimit="10"/>
<path d="M942.187 747.941C952.127 786.612 926.863 827.353 888.345 850.831C878.82 856.355 868.88 861.535 857.283 863.607C835.747 867.75 812.968 862.226 794.331 852.558C761.198 835.295 738.833 804.911 734.691 772.801C734.691 769.348 734.277 765.55 737.176 763.133C739.247 761.407 741.732 761.061 744.631 760.371C795.573 749.667 846.929 741.727 898.699 736.202C914.852 734.476 938.459 733.785 942.187 747.941Z" fill="white" stroke="black" stroke-width="20" stroke-miterlimit="10"/>
<path d="M839.889 813.887C848.352 813.887 855.214 807.703 855.214 800.076C855.214 792.448 848.352 786.265 839.889 786.265C831.426 786.265 824.565 792.448 824.565 800.076C824.565 807.703 831.426 813.887 839.889 813.887Z" fill="black"/>
</svg>
