<svg width="1760" height="1760" viewBox="0 0 1760 1760" fill="none" xmlns="http://www.w3.org/2000/svg">
<rect width="1760" height="1760" fill="white"/>
<path d="M603.259 466.126C592.216 450.584 586.9 430.133 567.677 431.769C548.455 433.405 532.504 446.494 518.189 459.173C481.38 492.302 446.616 527.067 413.078 563.468C406.943 570.421 400.4 578.192 399.582 587.599C397.537 609.686 425.348 619.502 445.389 629.318C485.879 649.359 506.738 696.394 506.738 741.384C506.738 814.187 491.196 837.091 458.477 868.175C428.212 896.805 364 908.257 364 970.017C364 1031.78 424.53 1088.22 470.746 1098.44C525.142 1110.71 574.221 1062.04 600.805 1012.96C622.891 972.062 640.478 924.208 680.559 900.486C727.593 872.674 796.713 894.351 819.616 944.25C843.338 995.784 818.389 1056.32 788.942 1104.99C759.494 1153.66 724.321 1203.97 725.957 1260.82C728.411 1341.8 818.389 1404.38 897.734 1387.2C977.078 1370.02 1032.29 1285.77 1026.16 1204.78C1022.48 1154.07 998.345 1107.03 991.801 1056.73C985.258 1006.42 1004.48 945.068 1053.56 931.571C1127.59 911.12 1198.75 1014.6 1270.32 986.377C1294.86 976.561 1311.63 952.839 1321.45 927.89C1348.85 857.95 1321.86 765.106 1252.33 736.885C1212.25 720.525 1156.63 720.934 1139.86 680.852C1128.81 654.676 1142.72 624.819 1160.72 602.733C1178.71 580.646 1195.07 563.877 1206.52 538.11C1217.97 512.343 1221.65 432.996 1195.07 442.813C1087.1 482.077 1032.29 518.069 941.496 393.323C900.188 336.063 853.972 352.014 812.255 392.096C784.852 418.681 757.04 450.584 730.047 477.169C696.101 510.707 635.57 510.298 604.078 466.535L603.259 466.126Z" fill="#21DB91" stroke="black" stroke-width="20" stroke-miterlimit="10"/>
<path d="M795.076 610.096C772.173 636.272 756.632 669.401 756.223 703.757C755.814 738.114 771.355 773.697 800.393 792.92C812.254 800.691 825.75 805.599 839.656 809.28C861.333 815.006 883.828 817.46 905.914 814.188C968.081 804.372 1015.52 740.159 1009.39 677.581C1003.25 615.004 945.176 562.651 882.192 559.788C853.153 558.561 827.387 574.103 795.486 610.096H795.076Z" fill="white" stroke="black" stroke-width="20" stroke-miterlimit="10"/>
<path d="M928.001 671.038C935.229 671.038 941.089 665.178 941.089 657.949C941.089 650.721 935.229 644.861 928.001 644.861C920.773 644.861 914.914 650.721 914.914 657.949C914.914 665.178 920.773 671.038 928.001 671.038Z" fill="black" stroke="black" stroke-width="20" stroke-miterlimit="10"/>
</svg>
