<svg width="1760" height="1760" viewBox="0 0 1760 1760" fill="none" xmlns="http://www.w3.org/2000/svg">
<rect width="1760" height="1760" fill="white"/>
<path d="M1059.99 638.114C1053.14 607.785 1045.43 576.386 1021.89 552.48C998.354 528.573 954.698 515.727 923.881 532.854C905.049 543.202 895.633 561.756 887.929 579.596C875.945 608.141 866.528 637.757 860.108 667.372C853.688 696.631 846.841 730.17 816.452 745.87C798.476 755.147 775.364 756.575 759.527 768.349C744.975 779.41 740.695 797.25 737.699 813.664C731.279 847.561 724.431 882.172 703.886 912.144C683.342 942.116 646.106 966.379 605.017 964.952C573.345 963.882 545.524 948.539 517.704 936.05C489.883 923.562 456.927 912.857 427.394 922.134C383.31 935.693 371.754 985.646 388.018 1022.4C404.282 1059.15 439.379 1087.34 465.915 1119.45C484.747 1141.93 499.299 1166.91 509.571 1193.31C514.707 1206.16 518.56 1219.36 529.688 1229.35C543.812 1242.19 566.069 1246.12 587.041 1247.55C643.966 1251.47 700.89 1242.91 757.387 1236.84C844.7 1227.21 932.442 1222.57 1020.18 1222.93C1046.29 1222.93 1073.68 1223.28 1095.51 1211.51C1143.88 1185.82 1133.6 1121.95 1170.41 1084.84C1208.51 1046.66 1279.55 1051.3 1334.34 1031.32C1371.58 1018.12 1401.96 992.07 1417.37 960.67C1423.36 948.539 1426.79 934.98 1423.79 922.134C1417.37 898.228 1389.55 883.242 1362.59 873.965C1335.62 864.688 1305.66 857.909 1285.55 840.068C1241.89 801.176 1268.85 736.593 1245.31 686.997C1238.04 672.011 1223.49 657.025 1204.23 655.954C1193.95 655.597 1183.68 659.166 1173.84 661.663C1133.18 672.011 1068.12 674.152 1059.99 638.114Z" fill="#DAD4FF" stroke="black" stroke-width="20" stroke-miterlimit="10"/>
<path d="M769.37 1001.34C749.253 1002.77 726.569 1004.91 710.733 1010.62C693.185 1017.04 690.617 1025.61 689.333 1033.1C684.625 1064.86 688.476 1095.9 700.888 1125.52C703.457 1131.94 706.881 1138.72 718.437 1143.36C743.689 1153.35 796.334 1149.78 842.131 1145.5C914.036 1139.07 1003.49 1126.94 1030.03 1101.97C1039.44 1093.4 1038.16 1084.84 1036.02 1076.63C1030.45 1053.8 1019.75 1031.32 1004.77 1009.91C1000.49 1003.49 994.929 997.063 979.949 993.495C964.968 989.927 824.582 997.063 769.37 1001.34Z" fill="white" stroke="black" stroke-width="20" stroke-miterlimit="10"/>
<path d="M851.47 1094.93C865.731 1093.15 875.391 1081.12 873.047 1068.07C870.704 1055.01 857.244 1045.87 842.983 1047.64C828.723 1049.42 819.062 1061.45 821.406 1074.51C823.749 1087.57 837.21 1096.71 851.47 1094.93Z" fill="black"/>
</svg>
