<svg width="1760" height="1760" viewBox="0 0 1760 1760" fill="none" xmlns="http://www.w3.org/2000/svg">
<g clip-path="url(#clip0_10_656)">
<path d="M1760 0H0V1760H1760V0Z" fill="white"/>
<path d="M516.18 800.255C477.477 789.228 427.017 781.059 402.522 808.422C388.315 824.35 390.275 845.996 392.724 865.6C397.133 901.54 406.441 943.608 445.633 959.944C460.33 966.07 476.987 967.295 492.664 971.787C537.736 984.448 568.11 1025.7 561.741 1064.91C551.453 1127.39 462.291 1177.22 485.316 1237.26C503.443 1283.81 582.317 1294.43 634.247 1271.15C686.177 1247.87 718.511 1204.17 754.764 1165.38C769.461 1149.86 785.137 1134.34 805.713 1124.53C844.906 1105.34 894.387 1109.01 937.008 1122.49C979.63 1135.97 1016.86 1158.02 1056.54 1175.59C1088.88 1189.88 1126.6 1202.13 1162.36 1193.96C1218.21 1181.3 1243.69 1126.58 1248.59 1078.38C1253.49 1030.19 1246.63 978.731 1274.06 936.256C1300.03 895.414 1352.45 869.685 1377.43 828.027C1405.85 781.059 1390.66 721.023 1349.51 681.407C1308.36 641.791 1244.18 621.778 1181.47 620.145C1154.04 619.328 1125.62 621.778 1101.13 632.397C1050.67 654.451 1029.6 704.686 996.286 743.485C947.296 800.663 948.275 837.829 864.502 846.406C780.728 854.982 616.61 828.026 517.16 799.846L516.18 800.255Z" fill="#B0FCA4" stroke="black" stroke-width="20" stroke-miterlimit="10"/>
<path d="M1125.62 744.303C1089.37 761.048 1090.35 808.424 1112.39 837.012C1115.82 841.505 1120.23 845.997 1125.62 849.264C1132.48 853.348 1141.3 855.391 1149.63 856.617C1180.98 861.109 1215.27 854.165 1236.83 835.378C1258.39 816.591 1263.78 785.552 1246.14 764.315C1234.87 751.246 1216.74 743.077 1197.64 739.81C1178.53 736.543 1155.51 730.417 1125.62 744.303Z" fill="white" stroke="black" stroke-width="20" stroke-miterlimit="10"/>
<path d="M1178.53 813.732C1186.92 813.732 1193.72 808.246 1193.72 801.48C1193.72 794.713 1186.92 789.227 1178.53 789.227C1170.14 789.227 1163.34 794.713 1163.34 801.48C1163.34 808.246 1170.14 813.732 1178.53 813.732Z" fill="black"/>
</g>
<defs>
<clipPath id="clip0_10_656">
<rect width="1760" height="1760" fill="white"/>
</clipPath>
</defs>
</svg>
