<svg width="1760" height="1760" viewBox="0 0 1760 1760" fill="none" xmlns="http://www.w3.org/2000/svg">
<rect width="1760" height="1760" fill="white"/>
<path d="M638.058 639.387C606.883 632.19 570.911 622.195 544.052 637.389C510.958 656.181 516.714 697.364 504.723 729.352C489.855 769.336 445.729 796.126 418.87 831.312C379.541 882.891 380.021 947.665 381.46 1008.44C381.46 1020.84 382.419 1033.63 389.613 1044.03C408.798 1070.82 457.241 1065.22 491.294 1052.42C533.98 1036.03 573.309 1013.24 617.914 999.645C662.519 986.05 714.798 983.251 753.648 1005.64C795.854 1030.03 810.243 1077.61 807.844 1120.4C805.446 1163.18 789.619 1205.16 786.262 1247.95C785.302 1257.54 785.302 1267.94 790.099 1276.73C795.374 1287.13 806.885 1295.13 818.396 1301.13C888.421 1336.31 992.02 1309.12 1025.59 1247.15C1053.41 1195.97 1044.3 1134.39 1092.26 1094.41C1186.75 1015.64 1247.18 1084.81 1300.9 1055.62C1354.61 1026.43 1360.37 974.455 1375.24 882.091C1387.23 808.92 1415.05 740.547 1331.11 716.957C1267.8 699.364 1190.1 712.559 1139.26 676.574C1096.58 646.586 1085.55 596.206 1060.13 554.222C1005.93 464.658 924.393 481.451 867.318 521.035C839.5 540.627 823.672 569.415 803.049 594.605C741.657 668.576 668.274 646.585 637.099 639.387H638.058Z" fill="#E6E1E1" stroke="black" stroke-width="20" stroke-miterlimit="10"/>
<path d="M908.084 741.747C856.285 782.131 859.642 888.488 881.704 954.861C885.062 965.657 889.858 975.653 895.613 983.25C903.287 993.246 912.88 998.044 922.472 1001.24C957.964 1012.84 998.732 998.044 1026.07 956.061C1053.41 914.078 1063.48 842.906 1045.26 793.325C1034.22 762.937 1013.6 743.345 992.018 734.549C970.435 725.752 940.698 716.157 908.084 741.747Z" fill="white" stroke="black" stroke-width="20" stroke-miterlimit="10"/>
<path d="M979.972 876.119C980.791 860.234 973.517 847.073 963.725 846.722C953.933 846.371 945.332 858.964 944.513 874.849C943.695 890.734 950.969 903.896 960.761 904.246C970.553 904.597 979.154 892.004 979.972 876.119Z" fill="black"/>
</svg>
