<svg width="1760" height="1760" viewBox="0 0 1760 1760" fill="none" xmlns="http://www.w3.org/2000/svg">
<rect width="1760" height="1760" fill="white"/>
<path d="M737.912 412.449C682.05 418.84 647 471.345 633.308 516.545C622.903 550.787 622.356 585.944 615.784 620.642C592.234 743.001 525.418 653.058 471.2 698.257C435.602 727.934 453.675 967.629 395.075 1036.11C367.692 1068.53 393.98 1088.62 401.647 1093.18C508.442 1154.36 648.096 1071.73 713.267 1120.12C765.295 1158.93 724.768 1246.59 780.082 1281.29C811.847 1301.38 858.946 1296.81 891.258 1277.64C923.57 1258.46 943.833 1227.87 956.429 1196.37C973.954 1154.36 987.099 1103.23 1035.84 1085.42C1074.72 1071.73 1119.09 1085.88 1160.71 1093.18C1196.85 1099.12 1234.09 1099.58 1270.24 1093.18C1294.88 1089.07 1320.08 1082.23 1339.25 1068.99C1367.18 1049.81 1380.87 1019.68 1390.18 990.001C1404.97 943.889 1412.08 895.949 1410.99 848.01C1410.99 819.246 1407.16 789.569 1389.08 764.915C1362.25 728.39 1310.77 711.04 1261.48 699.17C1197.4 683.647 1131.13 673.603 1064.32 668.124C1002.98 663.558 930.142 658.079 898.925 613.793C882.495 590.508 882.495 561.746 879.756 534.808C875.375 489.152 867.16 397.382 737.912 412.449Z" fill="#FF3B83" stroke="black" stroke-width="20" stroke-miterlimit="10"/>
<path d="M851.829 905.082C898.928 959.87 1044.06 972.197 1137.71 960.783C1152.5 958.957 1167.28 956.218 1178.24 951.653C1192.47 945.717 1200.69 937.499 1206.71 928.824C1227.53 896.865 1213.29 856.231 1160.16 824.271C1107.04 792.312 1011.75 772.679 942.193 782.724C899.475 789.116 869.901 805.095 854.566 824.271C839.232 843.447 822.255 869.926 852.376 904.625L851.829 905.082Z" fill="white" stroke="black" stroke-width="20" stroke-miterlimit="10"/>
<path d="M1082.36 879.066C1084.25 869.87 1068.38 859.93 1046.92 856.865C1025.45 853.8 1006.52 858.77 1004.63 867.966C1002.74 877.161 1018.61 887.101 1040.07 890.166C1061.54 893.231 1080.47 888.261 1082.36 879.066Z" fill="black"/>
</svg>
