<svg width="1760" height="1760" viewBox="0 0 1760 1760" fill="none" xmlns="http://www.w3.org/2000/svg">
<rect width="1760" height="1760" fill="white"/>
<path d="M693.508 475.753C651.983 493.639 631.912 533.451 626.375 572.108C620.839 610.765 620.147 652.305 593.155 684.615C552.322 733.081 456.812 750.968 449.891 809.818C447.123 835.205 463.042 858.861 475.499 881.94C584.158 1085.03 354.383 1297.93 401.445 1295.05C644.37 1280.05 973.115 1286.97 1031.25 1273.12C1081.77 1260.43 1104.61 1208.5 1097.69 1164.65C1090.77 1120.8 1063.78 1081.57 1046.48 1039.45C1029.17 997.334 1024.33 947.138 1058.24 913.096C1089.39 881.363 1144.75 873.285 1193.89 879.631C1224.34 883.67 1254.1 891.747 1284.56 890.016C1371.76 885.4 1442.35 766.546 1368.3 727.312C1271.41 675.962 1099.77 737.121 986.264 662.115C928.82 624.612 902.521 562.299 881.758 515.564C860.995 468.83 785.557 436.519 693.508 475.176V475.753Z" fill="#DAD4FF" stroke="black" stroke-width="20" stroke-miterlimit="10"/>
<path d="M721.19 762.508C666.514 789.048 667.899 865.209 701.119 910.789C706.656 918.29 712.884 925.213 721.19 929.828C731.571 936.175 744.721 939.638 757.87 941.369C804.933 948.292 857.532 937.33 890.061 907.328C922.589 877.325 930.894 827.706 903.902 794.242C887.292 773.471 859.608 760.2 830.541 755.007C801.473 749.814 766.868 740.006 721.19 761.93V762.508Z" fill="white" stroke="black" stroke-width="20" stroke-miterlimit="10"/>
<path d="M802.166 874.439C815.162 874.439 825.697 865.656 825.697 854.822C825.697 843.988 815.162 835.206 802.166 835.206C789.17 835.206 778.634 843.988 778.634 854.822C778.634 865.656 789.17 874.439 802.166 874.439Z" fill="black"/>
</svg>
