<svg width="1760" height="1760" viewBox="0 0 1760 1760" fill="none" xmlns="http://www.w3.org/2000/svg">
<rect width="1760" height="1760" fill="white"/>
<path d="M754.034 648.653C709.099 625.193 645.555 674.761 644.193 718.654C644.193 731.519 647.37 744.006 646.917 756.493C646.463 789.791 616.96 821.576 578.38 830.279C545.246 837.847 486.24 821.576 453.106 829.144C412.71 838.225 405.901 880.227 406.809 914.66C408.171 957.039 449.929 992.229 454.014 1034.61C456.283 1058.07 446.298 1081.15 439.943 1103.85C433.589 1126.56 431.773 1152.67 447.659 1172.34C457.645 1184.45 473.984 1192.78 491.232 1196.18C515.288 1201.1 542.068 1197.31 562.947 1185.58C586.549 1172.72 601.073 1151.53 621.045 1134.88C646.916 1113.31 686.859 1099.69 720.901 1111.42C749.95 1121.26 767.651 1146.61 775.367 1171.96C783.083 1197.32 783.991 1224.18 791.253 1249.53C801.692 1286.24 827.564 1321.05 867.96 1338.45C908.356 1355.86 962.37 1352.08 992.78 1324.45C1017.29 1302.13 1022.28 1269.21 1020.47 1238.94C1018.65 1208.67 1010.48 1178.4 1013.2 1148.12C1017.29 1098.93 1051.79 1052.01 1103.08 1027.04C1154.36 1002.07 1221.09 1000.93 1272.83 1024.77C1293.25 1033.85 1312.77 1047.1 1335.92 1047.1C1364.97 1047.1 1387.21 1025.53 1400.37 1003.96C1425.79 962.336 1432.14 912.01 1413.53 867.739C1394.93 823.468 1321.4 767.845 1266.93 755.358C1226.99 746.276 1205.65 767.088 1164.35 764.817C1123.05 762.547 1087.64 753.466 1065.4 724.708C1042.25 694.437 1050.42 654.707 1066.31 621.409C1082.2 588.111 1105.34 556.327 1110.34 520.758C1115.33 485.19 1093.54 443.188 1051.79 435.998C1018.2 430.323 984.61 449.621 967.816 474.216C951.022 498.811 946.937 527.948 942.852 556.327C938.767 584.706 934.682 613.842 916.98 638.059C906.541 652.437 892.017 664.166 874.769 672.491C841.635 688.383 805.324 675.14 754.034 648.653Z" fill="#8CFFD9" stroke="black" stroke-width="20" stroke-miterlimit="10"/>
<path d="M776.729 880.984C758.119 896.12 738.148 915.417 743.595 936.607C747.226 949.851 759.935 960.067 773.098 968.392C789.891 978.608 808.047 987.69 828.472 991.095C848.897 994.501 871.591 991.096 887.023 979.744C903.363 967.257 909.264 947.959 912.441 929.796C918.342 895.742 918.796 860.173 902.91 828.766C901.094 825.361 899.279 821.955 896.102 819.307C888.84 813.631 876.584 814.009 867.96 818.172C859.336 822.334 798.061 863.579 776.274 881.363L776.729 880.984Z" fill="white" stroke="black" stroke-width="20" stroke-miterlimit="10"/>
<path d="M852.552 932.276C857.236 925.123 853.007 915.67 843.105 911.164C833.204 906.659 821.381 908.805 816.697 915.959C812.012 923.112 816.241 932.564 826.142 937.07C836.043 941.576 847.867 939.43 852.552 932.276Z" fill="#030005"/>
</svg>
