<svg width="1760" height="1760" viewBox="0 0 1760 1760" fill="none" xmlns="http://www.w3.org/2000/svg">
<rect width="1760" height="1760" fill="white"/>
<path d="M465.762 800.567C415.916 795.862 407.765 792.726 391.15 811.282C386.448 816.509 383 822.519 383 829.053C383 846.825 405.884 857.278 423.44 867.471C479.242 899.355 502.44 965.737 476.106 1017.74C470.15 1029.24 462.313 1041 464.821 1053.29C467.329 1064.52 478.614 1072.89 488.96 1080.47C530.341 1109.74 572.976 1137.7 616.238 1164.88C636.615 1177.43 659.5 1190.49 684.893 1188.66C723.766 1185.53 744.77 1150.51 765.774 1123.07C793.989 1085.96 842.579 1053.55 894.619 1060.6C932.238 1065.57 961.394 1089.61 991.176 1109.22C1020.96 1128.82 1039.77 1141.1 1095.88 1133.78C1156.39 1125.94 1232.56 1124.37 1255.45 1097.45C1282.41 1065.31 1238.52 1005.72 1273.95 979.849C1309.37 953.976 1443.23 964.43 1429.75 904.321C1420.97 865.642 1410.31 830.098 1358.28 824.087C1199.65 805.793 1206.54 791.419 1193.69 791.158C1153.56 789.59 1165.48 815.724 1058.26 811.804C914.056 811.804 1019.08 627.033 857.941 642.975C831.921 645.589 781.136 647.418 768.909 709.096C762.326 743.332 743.203 820.428 680.504 817.292C647.587 815.724 498.678 804.225 465.448 801.089L465.762 800.567Z" fill="#B0FCA4" stroke="black" stroke-width="20" stroke-miterlimit="10"/>
<path d="M838.191 812.067C804.334 838.463 806.528 907.981 820.948 951.364C823.143 958.42 826.278 964.954 830.04 969.919C835.056 976.453 841.325 979.589 847.595 981.68C870.794 989.259 897.441 979.589 915.31 952.148C933.179 924.707 939.762 878.187 927.849 845.78C920.639 825.918 907.159 813.112 893.052 807.362C878.945 801.613 859.508 795.341 838.191 812.067Z" fill="white" stroke="black" stroke-width="20" stroke-miterlimit="10"/>
<path d="M885.184 900.271C885.719 889.889 880.964 881.286 874.564 881.057C868.164 880.827 862.542 889.058 862.007 899.441C861.472 909.824 866.226 918.427 872.626 918.656C879.027 918.885 884.649 910.654 885.184 900.271Z" fill="black"/>
</svg>
