<svg width="1760" height="1760" viewBox="0 0 1760 1760" fill="none" xmlns="http://www.w3.org/2000/svg">
<g clip-path="url(#clip0_10_650)">
<path d="M1760 0H0V1760H1760V0Z" fill="white"/>
<path d="M759.052 711.075C720.607 709.858 674.376 711.886 655.883 739.879C649.557 749.616 647.61 760.976 646.637 771.93C643.23 816.557 652.476 860.777 654.423 905.404C656.37 950.03 650.043 997.092 618.897 1033.6C578.505 1081.07 503.563 1101.36 462.198 1148.42C434.945 1179.25 425.211 1218.6 423.265 1257.14C421.318 1297.71 429.592 1342.34 465.117 1370.33C511.349 1406.85 583.859 1401.57 647.124 1400.76C837.403 1397.52 1030.6 1451.07 1215.04 1411.72C1232.56 1408.06 1250.08 1403.2 1264.19 1393.86C1298.26 1371.55 1302.15 1330.58 1303.61 1294.47C1310.43 1112.72 1317.24 930.963 1324.54 748.805C1326 710.669 1342.06 653.06 1302.64 633.993C1264.68 615.33 1195.58 645.352 1152.75 637.238C1110.41 629.124 1066.61 597.074 1069.53 561.372C1073.43 502.546 1163.46 319.171 950.306 362.58C836.431 385.705 857.842 494.026 850.055 559.749C846.162 593.422 845.19 627.907 831.077 659.146C816.964 690.384 795.226 711.886 767 711.075H759.052Z" fill="#FF82C1" stroke="black" stroke-width="20" stroke-miterlimit="10"/>
<path d="M1098.73 1296.5C1119.17 1298.53 1141.56 1300.15 1158.59 1292.03C1177.08 1283.11 1181.46 1266.07 1183.9 1250.65C1194.12 1185.34 1195.58 1119.61 1188.76 1054.29C1187.3 1039.69 1184.87 1025.08 1174.65 1012.51C1151.78 984.921 1098.73 978.835 1052.99 975.589C980.964 970.315 889.96 972.344 859.301 1017.38C848.595 1033.2 848.595 1051.46 849.082 1068.9C850.542 1118.4 856.869 1167.89 868.062 1216.98C871.468 1231.59 875.362 1246.6 889.475 1257.95C903.587 1269.31 1043.74 1290.82 1099.22 1296.5H1098.73Z" fill="white" stroke="black" stroke-width="20" stroke-miterlimit="10"/>
<path d="M1020.87 1155.32C1043.18 1155.32 1061.26 1141.87 1061.26 1125.29C1061.26 1108.71 1043.18 1095.27 1020.87 1095.27C998.561 1095.27 980.479 1108.71 980.479 1125.29C980.479 1141.87 998.561 1155.32 1020.87 1155.32Z" fill="black"/>
</g>
<defs>
<clipPath id="clip0_10_650">
<rect width="1760" height="1760" fill="white"/>
</clipPath>
</defs>
</svg>
