<svg width="1760" height="1760" viewBox="0 0 1760 1760" fill="none" xmlns="http://www.w3.org/2000/svg">
<rect width="1760" height="1760" fill="white"/>
<path d="M641.604 451.378C540.958 541.333 428.215 456.219 391.441 526.408C383.699 541.737 391.441 572.798 391.441 589.336C394.344 784.172 397.247 979.008 400.15 1173.84C400.15 1199.26 401.602 1225.88 418.538 1246.86C435.957 1268.24 466.44 1279.13 495.957 1286.39C559.829 1302.52 634.829 1306.15 688.056 1272.27C740.314 1238.39 754.832 1179.09 775.154 1126.24C795.477 1073.4 837.575 1016.52 903.866 1013.3C974.995 1009.66 1025.8 1070.98 1045.16 1127.86C1064.51 1184.73 1069.83 1248.87 1116.29 1293.65C1180.16 1355.37 1320.97 1345.28 1361.13 1271.06C1374.19 1247.26 1376.61 1220.23 1378.55 1194.01C1391.13 1032.25 1385.32 863.236 1380 701.074C1374.19 527.214 1319.51 532.862 1311.77 533.265C1277.42 535.685 1248.39 571.184 1225.64 586.512C1131.77 648.231 984.188 644.197 895.639 576.832C827.413 525.198 740.799 362.229 641.604 450.974V451.378Z" fill="#B0FCA4" stroke="black" stroke-width="20" stroke-miterlimit="10"/>
<path d="M778.539 746.255C777.571 727.7 776.603 707.127 768.377 692.605C759.667 676.47 746.602 673.645 734.989 672.839C685.634 667.998 636.763 670.823 588.859 681.311C578.214 683.731 567.569 686.554 559.343 697.042C541.44 719.632 543.374 767.635 546.278 809.587C550.633 874.936 562.73 956.824 599.504 981.431C612.569 989.902 626.117 989.095 638.698 987.481C675.473 982.64 711.28 973.765 746.119 960.454C756.28 956.42 767.41 951.58 773.7 938.268C779.99 924.956 780.474 796.679 778.055 746.659L778.539 746.255Z" fill="white" stroke="black" stroke-width="20" stroke-miterlimit="10"/>
<path d="M665.805 864.037C678.028 862.948 685.842 845.724 683.258 825.565C680.674 805.407 668.67 789.947 656.447 791.036C644.223 792.125 636.408 809.35 638.993 829.509C641.577 849.667 653.582 865.126 665.805 864.037Z" fill="black"/>
</svg>
