<svg width="1760" height="1760" viewBox="0 0 1760 1760" fill="none" xmlns="http://www.w3.org/2000/svg">
<rect width="1760" height="1760" fill="white"/>
<path d="M841.861 358.556C812.888 365.243 794.316 394.588 787.63 423.562C780.944 452.536 782.057 482.996 775.371 511.97C768.685 540.944 750.113 570.661 721.14 576.975C689.938 584.033 649.078 565.089 629.019 589.977C621.219 599.635 619.733 613.007 616.39 624.894C606.732 659.068 579.245 684.328 558.815 713.673C550.644 725.188 536.157 749.333 535.786 763.449C535.043 795.023 565.13 812.853 595.589 821.397C644.992 835.141 689.195 846.285 708.139 920.206C714.453 944.722 716.31 976.296 707.767 1000.07C701.081 1017.9 691.795 1035.36 675.822 1045.76C610.818 1088.48 551.386 985.954 468.924 1008.24C430.293 1018.64 408.748 1062.85 409.491 1102.96C410.234 1143.08 428.064 1180.97 443.665 1218.12C457.038 1250.81 469.667 1284.98 491.583 1312.47C513.498 1339.96 548.414 1360.76 583.702 1355.19C623.447 1348.87 650.935 1313.21 676.565 1282.01C702.195 1250.81 738.226 1219.23 777.6 1227.03C806.202 1232.6 827.003 1257.49 840.375 1283.49C853.747 1309.5 861.548 1338.1 877.149 1362.62C892.75 1387.13 920.238 1407.56 948.84 1403.48C982.642 1399.02 1004.18 1362.99 1008.27 1329.18C1012.36 1295.38 1003.44 1261.21 1002.7 1226.66C1001.96 1192.12 1011.99 1154.23 1041.33 1136.77C1069.56 1120.05 1106.71 1128.22 1134.94 1145.31C1163.17 1162.4 1186.57 1186.54 1214.43 1204.37C1242.29 1222.2 1278.32 1232.6 1308.03 1218.12C1333.66 1205.86 1348.52 1176.89 1350.38 1148.28C1352.24 1119.68 1342.95 1091.82 1331.06 1065.82C1313.98 1029.04 1291.32 995.241 1264.2 965.524C1243.77 943.236 1220.37 923.177 1203.28 897.918C1182.11 867.087 1164.28 851.485 1164.28 755.277C1164.28 634.181 1161.68 667.24 1168.37 610.407C1170.6 592.948 1176.54 572.889 1165.02 559.888C1152.02 545.03 1103.36 548.744 1084.05 547.259C931.752 535.372 915.78 531.657 916.894 501.569C918.38 464.051 934.724 426.534 923.209 391.245C915.78 368.957 889.779 348.155 842.976 358.928L841.861 358.556Z" fill="#B7ABFF" stroke="black" stroke-width="20" stroke-miterlimit="10"/>
<path d="M934.718 647.183C923.203 661.298 933.231 744.505 942.146 752.678C950.318 760.107 1063.98 760.107 1071.04 755.649C1082.18 748.592 1072.9 658.326 1071.41 654.612C1067.33 643.097 951.433 626.381 934.718 646.811V647.183Z" fill="#F5F5F7" stroke="black" stroke-width="20" stroke-miterlimit="10"/>
<path d="M1033.9 717.758C1038.62 717.758 1042.44 713.933 1042.44 709.214C1042.44 704.496 1038.62 700.671 1033.9 700.671C1029.18 700.671 1025.36 704.496 1025.36 709.214C1025.36 713.933 1029.18 717.758 1033.9 717.758Z" fill="black" stroke="black" stroke-width="20" stroke-miterlimit="10"/>
</svg>
