<svg width="1760" height="1760" viewBox="0 0 1760 1760" fill="none" xmlns="http://www.w3.org/2000/svg">
<rect width="1760" height="1760" fill="white"/>
<path d="M625.992 686.533C604.092 683.037 581.728 674.491 564.488 686.145C544.452 699.74 544.917 724.988 547.247 746.352C557.963 852.785 558.897 959.606 550.044 1066.04C543.054 1151.88 530.008 1238.89 550.044 1323.57C558.431 1359.31 580.329 1399.71 623.662 1404.76C660.472 1409.03 692.156 1384.56 719.647 1363.58C762.514 1331.34 817.496 1301.82 874.342 1310.37C939.108 1320.47 979.179 1375.24 1036.96 1401.65C1079.82 1421.46 1134.34 1424.18 1177.21 1404.76C1220.07 1385.34 1247.1 1342.22 1237.31 1302.6C1232.19 1282.4 1218.68 1264.53 1205.16 1247.44C1155.31 1183.35 1101.72 1114.2 1105.45 1037.68C1105.92 1022.92 1109.18 1007.38 1118.96 994.953C1142.26 964.655 1192.12 960.383 1232.65 948.341C1275.06 935.523 1316.99 911.44 1332.37 875.703C1383.62 759.948 1310 703.624 1263.41 690.417C1223.8 679.152 1143.19 692.359 1104.98 678.764C1084.02 671.384 1063.52 660.507 1054.2 643.027C1049.07 633.705 1048.14 622.828 1047.67 612.729C1046.28 574.662 1053.26 536.595 1048.61 498.527C1043.95 460.46 1024.38 421.229 984.771 402.195C947.961 384.715 899.969 388.599 864.091 407.633C828.213 426.666 804.449 458.13 791.868 491.925C777.424 531.157 777.424 573.886 760.184 612.341C742.944 650.797 696.815 697.797 625.992 686.921V686.533Z" fill="#FFE0F6" stroke="black" stroke-width="20" stroke-miterlimit="10"/>
<path d="M654.415 1000.78C653.017 1018.65 651.619 1038.46 657.676 1053.22C664.2 1069.14 676.314 1073.03 687.496 1074.97C734.091 1083.91 781.617 1085.46 828.678 1079.24C838.929 1078.08 849.645 1076.14 858.964 1066.81C878.534 1046.61 883.194 1000.39 885.524 960.382C889.251 897.454 887.854 817.824 855.704 791.021C844.521 781.699 831.474 781.311 818.894 782.088C783.482 783.642 747.604 789.08 712.658 798.791C702.407 801.51 691.224 805.394 683.303 817.436C675.382 829.478 659.539 952.225 655.346 1000.78H654.415Z" fill="white" stroke="black" stroke-width="20" stroke-miterlimit="10"/>
<path d="M777.42 967.763C789.258 967.763 798.855 951.937 798.855 932.415C798.855 912.892 789.258 897.066 777.42 897.066C765.583 897.066 755.987 912.892 755.987 932.415C755.987 951.937 765.583 967.763 777.42 967.763Z" fill="black"/>
</svg>
