<svg width="1760" height="1760" viewBox="0 0 1760 1760" fill="none" xmlns="http://www.w3.org/2000/svg">
<rect width="1760" height="1760" fill="white"/>
<path d="M920.575 487.509C881.323 479.42 839.866 505.157 818.255 533.468C794.439 564.352 788.266 608.105 748.573 625.018C704.028 643.769 641.401 615.459 603.914 643.034C576.569 663.256 583.184 699.287 582.302 729.804C581.42 764.733 565.984 801.132 533.348 822.825C492.332 850.032 428.822 851.87 399.273 887.902C388.247 901.138 383.837 917.316 381.191 933.126C368.842 1013.65 409.417 1098.58 484.834 1150.05C514.824 1170.64 550.549 1186.08 588.919 1189.76C627.288 1193.44 668.303 1184.98 696.53 1162.55C730.489 1135.34 739.751 1094.17 760.038 1058.87C787.824 1010.34 842.512 970.629 906.462 963.275C970.412 955.922 1040.98 986.071 1061.27 1037.18C1077.58 1077.99 1061.71 1122.11 1045.83 1162.92C1037.89 1183.88 1029.51 1204.83 1021.57 1225.79C1015.4 1241.6 1009.22 1258.15 1012.75 1274.32C1014.96 1284.99 1021.57 1294.55 1029.07 1303.74C1067 1348.23 1135.36 1373.23 1200.19 1366.24C1265.02 1359.26 1323.68 1320.65 1346.61 1269.54C1364.26 1230.2 1361.61 1186.82 1353.23 1145.64C1343.97 1101.89 1328.53 1059.24 1306.92 1018.43C1289.72 986.071 1268.55 954.083 1262.82 919.154C1257.08 884.226 1268.11 847.459 1292.37 818.781C1317.51 789.367 1354.99 769.144 1381.45 740.834C1403.51 716.935 1416.74 687.89 1419.83 657.741C1424.24 608.105 1394.24 540.454 1334.71 533.836C1290.16 528.689 1266.35 545.601 1231.5 587.516C1172.41 658.844 1144.62 669.873 1061.71 638.621C1000.4 615.458 1035.24 510.672 921.017 487.509H920.575Z" fill="#2667FF" stroke="black" stroke-width="20" stroke-miterlimit="10"/>
<path d="M836.779 767.675C828.399 790.471 820.901 818.046 839.865 836.429C852.214 847.827 871.62 851.872 890.144 854.078C913.519 856.652 937.775 857.387 960.268 851.872C982.761 846.357 1003.49 833.12 1011.43 814.737C1019.81 795.25 1012.75 773.925 1003.93 754.806C987.612 719.142 964.678 684.581 928.513 660.683C924.544 658.109 920.134 655.536 915.283 654.433C904.257 651.859 892.349 658.11 886.175 665.831C880 673.552 846.04 741.203 836.338 767.675H836.779Z" fill="white" stroke="black" stroke-width="20" stroke-miterlimit="10"/>
<path d="M921.459 799.662C934.368 799.662 944.833 792.419 944.833 783.484C944.833 774.55 934.368 767.307 921.459 767.307C908.549 767.307 898.084 774.55 898.084 783.484C898.084 792.419 908.549 799.662 921.459 799.662Z" fill="#030005"/>
</svg>
