<svg width="1760" height="1760" viewBox="0 0 1760 1760" fill="none" xmlns="http://www.w3.org/2000/svg">
<g clip-path="url(#clip0_10_674)">
<path d="M1760 0H0V1760H1760V0Z" fill="white"/>
<path d="M734.699 642.231C710.018 613.586 735.668 571.225 701.792 549.842C692.113 543.791 679.046 542.58 666.948 541.773C640.331 540.563 611.295 543.387 592.905 559.525C566.288 582.521 575.484 619.637 570.644 651.509C559.514 727.356 443.851 777.383 409.491 847.985C383.358 902.853 405.62 962.159 438.044 1019.45C468.532 1072.7 488.374 1130.79 496.601 1189.29C502.409 1230.85 498.053 1275.63 522.25 1312.34C544.028 1345.42 586.13 1366.4 629.201 1379.31C675.175 1393.03 732.28 1401.5 770.027 1376.09C818.422 1343.81 827.133 1308.71 846.007 1269.98C864.88 1231.25 901.175 1190.1 951.505 1191.71C988.769 1192.92 1018.77 1217.53 1040.55 1242.95C1062.33 1268.37 1081.68 1296.61 1114.11 1312.34C1160.57 1334.53 1224.45 1321.62 1259.77 1288.54C1295.1 1255.46 1305.26 1206.24 1292.68 1162.67C1278.65 1111.83 1235.58 1067.05 1179.44 1044.05C1147.5 1031.14 1108.79 1022.67 1091.36 996.451C1072.01 966.597 1091.36 929.48 1116.04 902.853C1132.5 885.505 1151.86 869.367 1177.02 862.509C1198.31 856.457 1222.03 857.668 1244.29 852.826C1281.07 845.161 1310.1 820.954 1327.53 793.117C1344.95 765.279 1352.69 733.812 1358.5 702.747C1371.57 631.338 1375.92 558.315 1371.08 486.099C1370.11 473.593 1368.66 460.278 1358.5 450.999C1344.95 439.299 1322.69 440.107 1303.33 441.721C1181.86 452.21 1081.69 444.14 1048.78 473.592C1002.32 514.742 1061.84 611.569 1008.61 648.686C906.498 718.884 766.639 679.751 734.699 642.231Z" fill="white" stroke="black" stroke-width="20" stroke-miterlimit="10"/>
<path d="M916.657 872.998C832.452 766.49 668.879 830.637 636.455 916.973C582.738 1060.19 791.8 1075.12 866.327 1049.3C965.05 1015.41 951.501 916.975 916.657 873L916.657 872.998Z" fill="white" stroke="black" stroke-width="20" stroke-miterlimit="10"/>
<path d="M921.01 960.951C938.115 960.951 951.983 950.836 951.983 938.358C951.983 925.881 938.115 915.766 921.01 915.766C903.905 915.766 890.037 925.881 890.037 938.358C890.037 950.836 903.905 960.951 921.01 960.951Z" fill="black"/>
</g>
<defs>
<clipPath id="clip0_10_674">
<rect width="1760" height="1760" fill="white"/>
</clipPath>
</defs>
</svg>
