<svg width="1760" height="1760" viewBox="0 0 1760 1760" fill="none" xmlns="http://www.w3.org/2000/svg">
<rect width="1760" height="1760" fill="white"/>
<path d="M536.558 833.563C506.446 854.901 466.546 839.525 431.54 854.587C396.534 869.649 358.141 907.619 366.045 939.94C379.596 995.481 447.725 983.243 494.776 1029.68C562.906 1096.84 517.737 1140.45 580.221 1181.56C609.58 1201.02 655.503 1200.08 684.11 1179.68C711.211 1160.22 720.621 1127.59 747.723 1108.13C775.577 1088.05 817.735 1085.54 851.612 1097.15C885.488 1108.76 912.213 1132.3 931.787 1158.34C951.736 1185.01 966.416 1216.08 997.281 1233.65C1034.55 1254.99 1091.01 1248.71 1120.37 1219.84C1151.23 1189.41 1149.35 1145.16 1147.84 1105.31C1146.34 1065.46 1149.35 1019.96 1185.86 994.226C1208.82 977.908 1240.06 973.516 1268.29 965.357C1305.18 954.688 1340.57 936.173 1359.76 907.932C1378.96 879.69 1377.45 840.153 1349.22 817.56C1334.92 805.949 1315.35 799.673 1301.42 787.749C1255.87 748.838 1324.76 633.361 1272.06 601.354C1241.95 583.154 1232.54 608.571 1206.19 582.526C1191.51 568.092 1199.41 527.613 1161.77 517.257C1052.24 487.447 1054.87 623.32 1027.02 641.52C995.4 662.23 966.04 657.837 937.433 634.302C908.826 610.768 893.392 522.905 815.476 528.554C757.885 532.633 714.599 617.985 686.745 618.613C652.492 619.554 624.637 594.765 603.934 609.513C558.389 641.52 608.452 783.042 536.558 833.563Z" fill="#DAD4FF" stroke="black" stroke-width="20" stroke-miterlimit="10"/>
<path d="M973.19 810.029C933.667 722.167 856.504 775.198 841.447 846.116C816.228 964.417 914.471 976.655 949.477 955.631C996.152 927.703 989.376 846.116 973.19 810.029Z" fill="white" stroke="black" stroke-width="20" stroke-miterlimit="10"/>
<path d="M905.434 892.871C913.542 892.871 920.114 884.582 920.114 874.358C920.114 864.133 913.542 855.843 905.434 855.843C897.327 855.843 890.754 864.133 890.754 874.358C890.754 884.582 897.327 892.871 905.434 892.871Z" fill="black"/>
</svg>
