<svg width="1760" height="1760" viewBox="0 0 1760 1760" fill="none" xmlns="http://www.w3.org/2000/svg">
<rect width="1760" height="1760" fill="white"/>
<path d="M830.765 423.146C753.176 411.154 672.972 435.865 597.998 456.578C580.126 461.302 561.819 467.479 550.486 479.834C540.024 491.099 537.409 505.998 535.229 519.806C526.075 583.762 523.895 648.445 529.126 712.764C530.434 726.573 531.742 741.109 540.896 753.1C551.357 766.909 569.665 774.903 584.049 785.805C626.331 817.056 621.1 884.645 586.664 921.711C545.69 966.044 451.974 964.59 402.282 1002.02C320.334 1063.43 365.667 1230.59 385.282 1257.48C409.256 1290.55 621.971 1374.13 798.944 1325.43C876.533 1303.99 948.891 1263.29 1030.4 1261.48C1109.74 1259.66 1190.38 1295.27 1265.79 1274.56C1314.61 1261.11 1351.66 1224.77 1365.61 1183.71C1379.55 1142.65 1372.14 1097.59 1351.22 1058.71C1333.35 1025.64 1306.32 996.205 1287.58 963.5C1256.2 908.265 1249.66 843.219 1270.14 784.351C1275.81 767.635 1284.09 750.92 1284.09 733.477C1284.09 716.035 1273.63 697.139 1253.58 691.688C1230.04 685.147 1139.81 770.179 995.969 730.57C816.817 681.512 931.021 589.213 930.585 504.544C930.585 479.107 917.072 436.954 831.201 423.872L830.765 423.146Z" fill="#442FBD" stroke="black" stroke-width="20" stroke-miterlimit="10"/>
<path d="M793.712 906.085C784.558 906.085 777.147 911.535 777.147 919.166C777.147 940.969 778.02 983.123 787.173 1006.38C800.25 1038.72 828.147 1068.15 867.378 1077.97C881.326 1081.6 895.711 1082.33 910.096 1082.33C936.685 1081.96 964.147 1077.24 985.069 1063.79C1005.12 1051.08 1018.2 1031.82 1025.17 1011.83C1030.84 995.478 1034.33 940.243 1035.63 920.62C1035.63 916.623 1032.15 913.353 1026.91 912.989L793.712 906.085Z" fill="white" stroke="black" stroke-width="20" stroke-miterlimit="10"/>
<path d="M906.61 1005.29C913.833 1005.29 919.688 1000.41 919.688 994.389C919.688 988.369 913.833 983.488 906.61 983.488C899.388 983.488 893.534 988.369 893.534 994.389C893.534 1000.41 899.388 1005.29 906.61 1005.29Z" fill="black" stroke="black" stroke-width="20" stroke-miterlimit="10"/>
</svg>
