<svg width="1760" height="1760" viewBox="0 0 1760 1760" fill="none" xmlns="http://www.w3.org/2000/svg">
<g clip-path="url(#clip0_10_668)">
<path d="M1760 0H0V1760H1760V0Z" fill="white"/>
<path d="M566.319 514.473C532.375 532.01 479.784 525.633 441.538 516.068C429.107 512.879 414.765 509.292 404.247 516.068C398.032 520.054 394.685 526.43 393.25 532.807C381.776 573.061 409.506 615.708 400.423 656.361C394.686 682.666 373.65 705.782 373.171 732.486C372.693 749.624 380.821 765.965 383.689 783.103C388.948 811.799 380.342 840.495 374.127 868.793C358.35 942.128 355.96 1003.11 399.944 1068.07C425.283 1105.14 473.091 1152.57 484.565 1194.02C526.159 1345.47 355.004 1387.72 483.609 1394.1C596.438 1399.68 826.876 1395.69 939.705 1401.27C973.649 1402.86 1010.94 1404.06 1039.15 1387.32C1069.74 1369.39 1129.98 1266.16 1145.28 1240.65C1160.58 1215.14 1168.71 1186.45 1156.75 1160.54C1141.46 1126.66 1095.08 1107.13 1082.17 1072.46C1070.22 1041.37 1093.17 1004.3 1130.46 993.942C1168.23 983.579 1211.73 999.123 1249.5 987.963C1287.27 976.804 1398.67 789.48 1368.07 761.182C1321.22 718.536 1260.02 640.817 1249.03 639.223C1226.08 636.034 1196.91 772.342 1102.25 793.865C1038.67 808.213 939.704 786.691 904.804 740.458C823.051 631.651 1002.81 539.184 837.393 456.682C771.895 424 709.744 441.936 566.796 514.872L566.319 514.473Z" fill="#E6E1E1" stroke="black" stroke-width="20" stroke-miterlimit="10"/>
<path d="M677.239 869.189C594.052 942.125 644.729 1084.41 711.661 1112.71C823.534 1159.34 835.008 977.997 814.928 913.032C788.634 827.341 711.661 839.297 677.239 869.189Z" fill="white" stroke="black" stroke-width="20" stroke-miterlimit="10"/>
<path d="M790.065 1003.11C806.435 1003.11 819.706 992.758 819.706 979.991C819.706 967.224 806.435 956.875 790.065 956.875C773.695 956.875 760.424 967.224 760.424 979.991C760.424 992.758 773.695 1003.11 790.065 1003.11Z" fill="black"/>
</g>
<defs>
<clipPath id="clip0_10_668">
<rect width="1760" height="1760" fill="white"/>
</clipPath>
</defs>
</svg>
