<svg width="1760" height="1760" viewBox="0 0 1760 1760" fill="none" xmlns="http://www.w3.org/2000/svg">
<rect width="1760" height="1760" fill="white"/>
<path d="M991.006 391.387C891.919 398.551 908.236 495.943 854.648 533.873C808.643 566.325 728.767 546.096 685.795 581.498C673.662 591.613 666.079 604.677 659.001 617.742C637.768 656.516 617.041 695.712 597.324 735.328C579.63 769.887 558.396 808.661 515.93 821.305C481.047 831.42 441.109 820.883 405.721 830.998C371.344 840.691 347.583 871.879 351.627 902.223C356.683 938.89 395.611 965.442 411.283 1000C433.022 1046.78 409.261 1099.46 377.917 1142.03C362.75 1162.26 346.067 1182.49 337.978 1205.25C329.889 1228.01 333.428 1255.82 355.166 1271.84C369.827 1282.8 817.237 1290.38 918.852 1277.32C943.118 1274.37 994.684 1158.05 1054.84 1110.84C1079.62 1091.46 1111.47 1074.18 1144.83 1077.97C1240.38 1088.93 1216.11 1195.98 1214.09 1254.98C1214.09 1259.19 1214.09 1263.41 1217.12 1266.78C1221.67 1271.84 1230.27 1271.84 1237.85 1271.42C1275.26 1269.31 1369.8 1259.62 1380.92 1253.29C1398.11 1243.6 1475.97 712.57 1376.88 719.735C1307.62 724.792 1238.36 690.654 1201.96 641.344C1170.11 597.934 1163.54 545.252 1140.79 498.05C1118.04 450.847 1071.53 385.101 981.035 391.844L991.006 391.387Z" fill="#FF82C1" stroke="black" stroke-width="20" stroke-miterlimit="10"/>
<path d="M765.162 958.697C743.424 954.061 767.184 900.115 788.417 871.878C820.772 827.625 880.426 806.552 929.97 821.725C979.513 836.897 1015.41 886.629 1014.9 940.575C1014.9 943.525 1014.9 946.896 1013.38 949.425C1011.36 953.218 1007.32 956.168 1003.27 956.168C880.427 965.019 824.31 970.919 765.667 958.697H765.162Z" fill="#FAFCFF" stroke="black" stroke-width="20" stroke-miterlimit="10"/>
<path d="M885.483 903.911C893.859 903.911 900.651 898.25 900.651 891.267C900.651 884.285 893.859 878.623 885.483 878.623C877.107 878.623 870.317 884.285 870.317 891.267C870.317 898.25 877.107 903.911 885.483 903.911Z" fill="black" stroke="black" stroke-width="20" stroke-miterlimit="10"/>
</svg>
