<svg width="1760" height="1760" viewBox="0 0 1760 1760" fill="none" xmlns="http://www.w3.org/2000/svg">
<g clip-path="url(#clip0_10_662)">
<path d="M1760 0H0V1760H1760V0Z" fill="white"/>
<path d="M993.2 510.503C956.522 498.981 914.527 510.503 887.418 534.433C860.308 558.363 844.893 589.826 821.504 615.971C798.115 642.117 761.438 665.16 722.634 659.842C690.74 655.411 661.502 632.368 630.14 639.458C599.309 646.548 588.679 676.681 572.732 699.725C550.938 730.745 510.538 752.902 467.481 756.891C449.94 758.663 430.804 758.221 416.983 767.083C403.163 775.946 399.44 791.9 397.314 806.08C380.304 921.298 418.577 1040.5 387.214 1153.5C376.583 1192.94 360.105 1241.69 395.72 1269.16C415.919 1284.67 445.688 1286.89 473.329 1287.78C517.981 1289.55 562.1 1291.77 606.751 1293.54C655.124 1295.75 710.938 1295.31 742.832 1264.73C760.905 1247.45 767.284 1223.52 780.042 1203.58C803.431 1167.69 850.208 1142.87 899.112 1141.54C948.016 1140.21 997.452 1161.48 1024.03 1195.6C1033.07 1207.57 1039.98 1220.86 1050.08 1232.83C1086.75 1275.81 1160.11 1285.12 1221.24 1274.04C1317.45 1256.31 1406.23 1178.76 1383.37 1098.55C1363.17 1027.21 1269.61 986.883 1236.12 919.525C1200.51 848.179 1240.91 766.64 1290.35 701.498C1316.39 667.819 1344.56 622.619 1314.8 591.155C1304.7 580.52 1290.35 570.771 1273.87 569.442C1147.89 556.591 1140.97 557.476 992.668 510.503H993.2Z" fill="#ABCDFF" stroke="black" stroke-width="20" stroke-miterlimit="10"/>
<path d="M1002.98 824.001C910.486 707.011 726.354 770.63 690.739 865.463C631.736 1022.78 860.84 1039.17 942.701 1010.81C1051.14 973.59 1036.26 865.463 997.984 817.16L1002.98 824.001Z" fill="white" stroke="black" stroke-width="20" stroke-miterlimit="10"/>
<path d="M840.646 927.499C859.435 927.499 874.665 916.388 874.665 902.683C874.665 888.977 859.435 877.867 840.646 877.867C821.857 877.867 806.625 888.977 806.625 902.683C806.625 916.388 821.857 927.499 840.646 927.499Z" fill="black"/>
</g>
<defs>
<clipPath id="clip0_10_662">
<rect width="1760" height="1760" fill="white"/>
</clipPath>
</defs>
</svg>
