<svg width="1760" height="1760" viewBox="0 0 1760 1760" fill="none" xmlns="http://www.w3.org/2000/svg">
<rect width="1760" height="1760" fill="white"/>
<path d="M722.903 451.212C647.477 461.263 599.361 388.285 543.442 453.397C528.27 471.314 526.102 496.223 521.334 518.946C497.492 638.683 396.491 733.511 380.452 854.559C374.384 898.259 380.452 942.832 389.122 986.095C399.526 1037.22 422.934 1095.78 473.651 1107.58C506.162 1115.45 539.54 1100.59 572.485 1097.09C633.172 1090.97 695.594 1128.12 720.302 1184.05C740.676 1230.81 736.341 1285.87 761.049 1330.45C800.063 1401.24 914.068 1411.29 964.786 1348.8C1012.47 1290.24 1005.1 1191.48 1069.26 1151.72C1124.31 1117.63 1196.27 1149.97 1260.42 1139.92C1316.77 1131.18 1365.76 1085.73 1379.19 1029.79C1392.63 973.859 1369.66 910.932 1323.28 876.846C1296.4 857.181 1262.15 846.256 1240.91 820.037C1204.07 773.715 1226.18 702.922 1264.76 658.348C1282.53 637.372 1304.2 618.582 1315.47 593.236C1326.74 567.89 1324.58 533.367 1301.6 518.509C1276.46 502.341 1243.95 517.198 1217.07 529.871C1161.15 556.965 1097.43 566.579 1037.61 549.973C961.318 528.123 913.635 489.231 883.291 450.775C813.501 362.502 805.265 439.85 722.47 450.775L722.903 451.212Z" fill="#424242" stroke="black" stroke-width="20" stroke-miterlimit="10"/>
<path d="M1015.51 883.838C940.08 768.471 793.563 837.953 764.52 931.47C716.403 1086.6 903.234 1102.77 969.99 1074.81C1058.42 1038.1 1046.28 931.47 1015.07 883.838H1015.51Z" fill="white" stroke="black" stroke-width="20" stroke-miterlimit="10"/>
<path d="M886.763 992.651C902.085 992.651 914.506 981.695 914.506 968.179C914.506 954.664 902.085 943.708 886.763 943.708C871.441 943.708 859.021 954.664 859.021 968.179C859.021 981.695 871.441 992.651 886.763 992.651Z" fill="black"/>
</svg>
