<svg width="1760" height="1760" viewBox="0 0 1760 1760" fill="none" xmlns="http://www.w3.org/2000/svg">
<path d="M1760 0H0V1760H1760V0Z" fill="white"/>
<path d="M708.952 382.198C680.135 409.781 678.078 454.654 676.019 494.587C673.961 534.52 666.962 580.217 633.205 602.036C605.623 620.15 568.573 615.21 537.286 604.094C526.994 600.389 515.056 595.861 505.588 601.213C494.885 607.388 493.237 621.797 492.825 634.147C490.767 699.605 489.943 768.767 523.7 825.168C541.814 854.809 568.162 878.686 591.627 904.211C617.562 932.617 639.792 963.905 657.906 997.663C674.784 1028.54 688.37 1062.71 687.958 1098.11C687.546 1133.52 669.845 1170.16 638.146 1185.39C620.856 1193.62 600.683 1195.68 585.451 1206.8C559.104 1226.15 557.046 1264.43 557.87 1297.37C558.281 1320.42 559.929 1345.95 576.395 1362.41C585.864 1371.88 598.625 1378.06 611.799 1380.94C699.896 1399.05 856.331 1410.58 869.093 1383.82C885.148 1350.89 898.321 1305.19 909.848 1271.43C919.317 1243.85 939.489 1220.79 968.306 1214.62C997.123 1208.44 1030.06 1221.62 1042.82 1247.97C1052.29 1268.14 1049.82 1292.02 1058.46 1312.19C1067.93 1334.01 1088.93 1348.83 1111.16 1355.83C1133.39 1362.82 1157.67 1363.24 1181.14 1362.82C1212.01 1362.82 1245.36 1360.35 1268 1339.77C1289.82 1319.19 1295.17 1287.08 1298.88 1257.02C1303.41 1222.03 1307.11 1184.15 1289.41 1153.69C1263.89 1109.64 1199.67 1091.94 1188.14 1042.12C1179.49 1005.07 1209.96 965.551 1247.42 958.553C1263.89 955.671 1281.59 957.318 1296.41 949.496C1310.82 942.085 1319.46 926.853 1323.58 911.209C1331.81 879.921 1330.58 835.871 1302.17 820.228C1162.61 742.42 1128.03 726.364 1007.41 667.494C817.222 574.453 837.395 534.52 834.925 490.47C833.278 460.829 843.569 435.305 822.162 397.018C802.813 362.437 748.885 343.911 708.542 382.61L708.952 382.198Z" fill="#84FAB0" stroke="black" stroke-width="20" stroke-miterlimit="10"/>
<path d="M736.12 781.943C738.178 768.769 760.821 750.655 783.463 744.48C818.867 734.599 859.621 749.42 880.617 779.885C901.612 810.349 900.788 853.576 878.97 883.217C877.735 884.863 876.5 886.51 874.442 887.334C871.972 888.569 868.678 887.334 866.208 886.51C807.751 867.161 732.826 801.704 736.12 781.943Z" fill="#FAFCFF" stroke="black" stroke-width="20" stroke-miterlimit="10"/>
<path d="M834.925 786.059C841.064 786.059 846.04 781.082 846.04 774.944C846.04 768.805 841.064 763.828 834.925 763.828C828.787 763.828 823.81 768.805 823.81 774.944C823.81 781.082 828.787 786.059 834.925 786.059Z" fill="black" stroke="black" stroke-width="20" stroke-miterlimit="10"/>
</svg>
