<svg width="1760" height="1760" viewBox="0 0 1760 1760" fill="none" xmlns="http://www.w3.org/2000/svg">
<rect width="1760" height="1760" fill="white"/>
<path d="M594.524 415.121C553.589 431.648 505.743 457.239 503.085 501.489C501.49 530.278 520.096 556.401 519.565 585.19C519.033 615.046 497.237 639.57 478.63 663.028C449.39 698.747 408.456 738.199 397.823 782.982C387.191 827.765 407.924 879.479 437.695 914.666C470.124 953.051 523.286 969.579 553.057 1010.1C646.623 1135.92 540.83 1183.36 576.98 1261.2C595.587 1300.65 638.648 1326.78 681.71 1324.11C711.481 1322.51 739.125 1308.65 764.112 1292.12C778.465 1282.53 791.756 1271.86 801.325 1257.47C812.489 1240.41 815.679 1219.08 816.742 1198.83C818.869 1154.04 809.3 1109.26 816.742 1065.01C824.185 1020.76 855.551 975.443 900.207 973.31C933.168 971.711 963.47 995.702 978.887 1025.02C994.304 1054.35 996.963 1088.47 998.026 1122.05C999.089 1162.57 996.963 1203.09 991.646 1243.08C985.799 1291.06 976.761 1344.9 1004.94 1384.36C1018.76 1403.55 1040.02 1416.34 1062.35 1425.41C1155.92 1462.19 1272.88 1423.81 1326.57 1338.51C1368.04 1272.4 1372.29 1190.3 1368.57 1111.92C1366.44 1060.74 1361.12 1009.56 1353.68 958.383C1352.62 949.853 1351.02 941.323 1345.71 934.925C1339.86 927.461 1330.29 924.262 1321.25 921.597C1291.48 912.533 1260.65 905.07 1234.6 887.476C1208.55 869.883 1188.88 840.027 1192.6 809.106C1198.45 763.256 1249.48 740.332 1281.38 707.278C1305.3 682.22 1319.66 648.1 1320.19 613.446C1320.19 601.717 1319.13 588.922 1313.28 578.793C1295.74 546.272 1250.02 547.338 1212.8 549.471C1117.64 554.269 1021.42 532.41 937.421 486.561C891.701 461.504 849.171 430.049 800.794 410.856C752.416 391.663 673.204 383.743 576.98 422.662L594.524 415.121Z" fill="#FF6640" stroke="black" stroke-width="20" stroke-miterlimit="10"/>
<path d="M865.12 675.826C811.426 581.995 706.697 638.507 685.963 714.211C651.408 840.564 784.845 853.359 832.692 830.967C895.955 801.112 886.917 714.211 865.12 675.826Z" fill="white" stroke="black" stroke-width="20" stroke-miterlimit="10"/>
<path d="M773.151 764.325C784.014 764.325 792.821 755.494 792.821 744.599C792.821 733.705 784.014 724.874 773.151 724.874C762.287 724.874 753.48 733.705 753.48 744.599C753.48 755.494 762.287 764.325 773.151 764.325Z" fill="black"/>
</svg>
