<svg width="1760" height="1760" viewBox="0 0 1760 1760" fill="none" xmlns="http://www.w3.org/2000/svg">
<rect width="1760" height="1760" fill="white"/>
<path d="M826.524 380.677C754.968 389.199 745.098 465.896 737.344 525.843C729.589 585.79 738.754 646.913 725.711 705.978C722.891 718.027 717.604 731.544 703.857 735.658C696.102 738.008 687.642 736.539 679.182 736.833C642.876 738.596 622.431 772.096 612.209 801.188C600.224 834.982 592.117 869.951 587.534 904.92C585.419 921.67 584.362 939.007 592.117 954.288C606.921 982.792 646.4 994.253 680.592 1006.3C714.784 1018.35 752.148 1040.09 750.033 1071.24C748.271 1100.04 713.727 1117.97 687.642 1137.07C653.45 1162.05 628.776 1195.84 617.849 1232.57C611.856 1253.44 610.446 1276.36 622.078 1295.75C630.538 1309.86 645.695 1320.73 662.968 1327.78C713.374 1348.35 781.053 1331.9 810.31 1291.93C822.999 1274.89 828.639 1254.61 839.214 1236.69C849.789 1218.76 868.823 1201.72 892.793 1200.25C928.395 1197.9 953.774 1229.34 960.824 1258.43C967.874 1287.52 965.406 1319.26 983.031 1345.12C1010.53 1385.38 1087.02 1393.02 1125.09 1359.52C1153.64 1334.25 1157.51 1296.63 1159.98 1262.25C1164.21 1204.07 1168.09 1145.88 1172.32 1087.41C1174.08 1063.31 1175.84 1038.63 1169.85 1014.82C1163.86 991.02 1149.76 967.805 1125.44 954.288C1073.97 926.078 994.663 948.411 951.307 911.972C941.437 903.744 934.739 893.165 929.1 882.587C909.712 847.324 899.843 802.07 904.073 763.28C918.525 628.399 943.199 547.001 913.942 438.567C906.54 411.826 877.283 374.506 825.819 380.677H826.524Z" fill="#2667FF" stroke="black" stroke-width="20" stroke-miterlimit="10"/>
<path d="M753.913 959.872C713.729 954.877 682.357 925.491 671.782 892.873C669.315 884.939 667.552 876.711 668.962 868.483C671.43 852.908 683.414 839.685 698.219 829.988C724.656 813.238 760.258 807.361 792.335 814.413C795.507 815.295 799.385 816.176 800.795 818.821C801.852 820.584 801.499 822.641 801.147 824.404C796.212 861.43 788.457 897.868 778.235 934.013C775.063 945.473 768.365 961.636 753.913 959.872Z" fill="white" stroke="black" stroke-width="20" stroke-miterlimit="10"/>
<path d="M747.523 880.548C750.059 874.928 746.206 868.519 738.917 866.234C731.628 863.949 723.664 866.652 721.128 872.273C718.593 877.893 722.447 884.302 729.735 886.588C737.024 888.873 744.988 886.169 747.523 880.548Z" fill="black"/>
</svg>
