<svg width="1760" height="1760" viewBox="0 0 1760 1760" fill="none" xmlns="http://www.w3.org/2000/svg">
<rect width="1760" height="1760" fill="white"/>
<path d="M641.715 467.234C625.24 497.955 614.835 530.845 596.192 560.844C577.549 590.843 548.068 618.312 508.615 625.902C493.875 628.794 478.267 628.793 463.96 633.13C423.64 645.419 408.466 685.899 406.298 721.681C404.13 757.463 409.766 795.052 390.257 826.857C377.684 847.098 355.573 864.446 356.006 887.216C356.873 913.6 387.655 930.949 404.997 952.996C427.108 981.188 426.675 1016.97 425.374 1050.58C422.773 1129.74 419.738 1208.53 417.137 1287.68C415.836 1324.19 417.137 1366.11 451.387 1388.88C474.365 1404.42 506.881 1406.23 536.362 1402.25C583.186 1395.75 626.974 1374.79 657.756 1344.79C691.573 1311.9 708.481 1269.97 734.927 1232.74C761.374 1195.52 802.995 1160.46 854.587 1159.01C870.195 1158.65 886.669 1161.54 899.242 1169.85C915.717 1180.7 922.654 1198.77 929.157 1215.76C939.129 1240.7 950.835 1265.27 964.708 1289.13C982.484 1320.57 1005.46 1352.02 1042.31 1368.28C1080.9 1384.91 1171.94 1408.04 1210.53 1391.41C1283.8 1359.61 1386.98 1266.36 1369.21 1222.62C1358.8 1196.24 1323.25 1195.88 1285.97 1037.93C1272.09 979.02 1245.21 925.528 1230.91 864.807C1213.13 789.268 1228.31 644.696 1074.4 662.768C1011.96 669.996 940.429 652.648 899.676 612.529C841.147 554.339 907.913 412.658 823.371 369.648C719.753 317.24 661.658 430.007 641.281 467.957L641.715 467.234Z" fill="#FFF570" stroke="black" stroke-width="20" stroke-miterlimit="10"/>
<path d="M708.05 863.361C698.078 890.829 689.407 923.719 711.952 945.405C726.259 959.139 749.237 963.837 770.914 966.368C798.228 969.62 826.842 970.344 852.855 963.477C878.868 956.609 903.58 940.706 912.685 919.02C922.656 895.889 914.419 870.228 904.014 847.458C884.938 804.809 858.058 763.243 815.57 734.69C810.801 731.437 806.032 728.547 800.396 727.462C787.389 724.571 773.516 731.8 766.579 741.197C759.642 750.594 719.756 831.193 708.05 862.999V863.361Z" fill="white" stroke="black" stroke-width="20" stroke-miterlimit="10"/>
<path d="M807.333 901.673C822.178 901.673 834.213 892.935 834.213 882.156C834.213 871.377 822.178 862.638 807.333 862.638C792.488 862.638 780.453 871.377 780.453 882.156C780.453 892.935 792.488 901.673 807.333 901.673Z" fill="#030005"/>
</svg>
