<svg width="1760" height="1760" viewBox="0 0 1760 1760" fill="none" xmlns="http://www.w3.org/2000/svg">
<rect width="1760" height="1760" fill="white"/>
<path d="M641.121 565.307C629.956 548.759 604.316 542.553 581.985 545.656C559.655 548.758 539.805 559.101 521.196 569.443C481.91 590.473 442.211 612.192 409.541 640.461C374.391 670.799 347.925 713.202 358.263 754.572C363.639 776.981 389.278 787.669 400.857 808.353C421.534 845.931 418.639 895.918 427.737 936.598C447.587 1026.23 486.045 1093.11 510.03 1201.02C514.993 1222.74 527.812 1243.42 545.594 1259.63C563.376 1275.83 591.91 1286.17 616.722 1278.93C639.467 1272.38 653.527 1254.11 667.587 1237.91C689.091 1213.43 715.971 1191.37 749.054 1178.27C782.136 1165.17 822.249 1163.1 854.919 1176.89C904.543 1197.92 923.152 1247.9 939.28 1292.38C955.408 1336.85 980.633 1386.49 1033.57 1400.28C1077.4 1412 1124.96 1394.08 1159.69 1368.91C1230.41 1317.2 1262.66 1232.05 1240.33 1155.86C1221.72 1091.39 1168.38 1037.26 1143.98 974.176C1126.2 928.325 1124.54 877.991 1138.6 831.106C1144.81 811.11 1153.9 791.46 1168.38 774.568C1197.33 740.438 1244.06 720.788 1281.27 692.863C1332.14 654.596 1350.33 597.368 1370.18 542.553C1381.35 511.526 1407.4 451.885 1335.03 434.303C1269.28 418.445 1230.41 489.117 1190.3 504.631C1074.09 549.448 983.941 489.807 920.671 495.323C881.385 498.77 871.46 513.939 854.505 543.932C847.061 556.688 844.58 570.823 838.377 583.923C821.836 618.398 816.46 668.041 740.783 665.628C696.121 664.249 663.865 600.126 640.294 564.961L641.121 565.307Z" fill="#FCFFA6" stroke="black" stroke-width="20" stroke-miterlimit="10"/>
<path d="M885.522 934.874C870.634 997.273 932.665 1124.48 986.424 1198.6C995.108 1210.67 1003.79 1221.36 1012.48 1228.94C1023.64 1238.6 1033.57 1242.39 1042.25 1243.42C1074.51 1247.9 1096.01 1219.29 1091.88 1161.03C1087.74 1102.77 1055.07 1014.51 1014.13 960.041C988.905 926.255 963.266 908.328 942.176 903.502C921.086 898.675 894.619 894.883 885.108 934.529L885.522 934.874Z" fill="white" stroke="black" stroke-width="20" stroke-miterlimit="10"/>
<path d="M1017.23 1117.1C1024.54 1114.9 1023.75 1097.59 1015.47 1078.42C1007.19 1059.25 994.56 1045.49 987.253 1047.68C979.947 1049.88 980.735 1067.19 989.013 1086.36C997.291 1105.53 1009.92 1119.29 1017.23 1117.1Z" fill="black"/>
</svg>
