<svg width="1760" height="1760" viewBox="0 0 1760 1760" fill="none" xmlns="http://www.w3.org/2000/svg">
<rect width="1760" height="1760" fill="white"/>
<path d="M652.131 649.917C614.692 633.213 601.509 614.311 559.851 620.465C518.194 626.619 483.391 649.479 451.752 672.777C400.603 710.583 352.617 754.542 331.525 809.052C296.722 898.291 341.016 994.124 384.256 1080.73C397.966 1107.98 411.676 1135.24 425.386 1162.93C449.643 1211.29 474.427 1260.52 516.612 1299.64C558.797 1338.77 621.547 1366.46 683.243 1357.67C756.012 1347.56 806.634 1293.93 853.038 1246.45C899.442 1198.98 961.665 1150.18 1035.49 1155.9C1092.97 1160.29 1139.9 1198.1 1196.32 1208.21C1254.85 1218.76 1316.02 1198.54 1364.53 1169.08C1391.95 1152.38 1417.79 1132.16 1430.97 1106.22C1452.07 1063.58 1434.67 1013.91 1404.61 975.221C1374.55 936.536 1333.42 904.886 1300.73 867.52C1268.03 830.154 1242.72 784.435 1252.74 739.156C1262.76 695.636 1302.31 662.226 1333.42 626.619C1358.73 597.605 1379.82 565.514 1395.12 531.665C1407.25 505.289 1415.68 476.275 1406.72 449.02C1397.75 421.765 1366.11 398.027 1332.37 402.423C1298.62 406.819 1276.47 435.833 1243.25 441.548C1200.01 449.021 1185.25 431.876 1129.88 408.138C1086.11 389.235 1044.98 409.896 1022.31 446.383C999.631 482.87 979.594 544.413 960.61 582.219C935.299 632.773 896.278 659.589 848.292 668.381C788.178 679.371 710.136 675.854 652.131 649.917Z" fill="#FF82C1" stroke="black" stroke-width="20" stroke-miterlimit="10"/>
<path d="M592.548 813.449C507.123 854.332 508.705 970.386 561.436 1039.4C569.873 1050.39 579.892 1060.94 592.548 1068.86C608.894 1078.97 629.46 1083.8 649.498 1086.88C723.321 1097.87 805.055 1080.73 856.205 1035.01C907.354 989.289 920.537 914.117 877.825 862.684C851.459 831.033 808.219 811.251 763.397 802.459C718.576 793.667 663.735 779.6 592.548 813.449Z" fill="white" stroke="black" stroke-width="20" stroke-miterlimit="10"/>
<path d="M719.103 984.012C739.198 984.012 755.488 970.432 755.488 953.68C755.488 936.928 739.198 923.347 719.103 923.347C699.009 923.347 682.719 936.928 682.719 953.68C682.719 970.432 699.009 984.012 719.103 984.012Z" fill="black"/>
</svg>
