<svg width="1760" height="1760" viewBox="0 0 1760 1760" fill="none" xmlns="http://www.w3.org/2000/svg">
<g clip-path="url(#clip0_10_686)">
<path d="M1760 0H0V1760H1760V0Z" fill="white"/>
<path d="M797.461 367.415C765.087 364.176 734.537 380.374 712.65 399.451C690.763 418.529 674.348 441.565 650.637 458.843C631.03 473.241 607.319 483.68 590.904 499.878C574.945 516.076 567.193 536.233 558.53 555.67C542.57 592.025 521.139 627.301 495.605 660.416C469.614 694.252 437.24 727.727 434.96 767.322C432.68 804.397 457.303 838.952 485.573 868.108C513.844 897.264 547.586 923.901 569.473 957.016C591.36 990.132 598.199 1031.89 572.209 1062.84C555.338 1083 527.979 1094.88 503.812 1109.64C454.111 1139.87 415.809 1183.79 406.233 1232.74C396.658 1281.69 418.089 1335.33 466.422 1366.64C514.756 1397.96 589.992 1403.72 641.517 1374.92C680.275 1353.32 700.794 1316.97 714.93 1281.33C729.065 1245.7 738.64 1208.26 762.351 1175.87C786.062 1143.47 828.468 1116.11 875.89 1117.91C913.28 1119.35 947.022 1139.15 965.717 1164.71C984.412 1190.27 989.884 1220.5 988.06 1250.02C986.236 1277.37 979.396 1305.45 989.884 1331.37C1002.65 1361.96 1040.04 1384.28 1080.17 1390.04C1120.29 1395.8 1162.7 1386.44 1197.35 1369.52C1262.56 1337.85 1303.6 1277.73 1301.32 1217.26C1297.67 1109.28 1168.63 1017.13 1187.32 910.223C1192.79 878.547 1211.03 849.391 1226.08 819.875C1276.69 721.248 1302.23 656.097 1287.18 550.271C1283.99 527.954 1274.41 447.685 1239.76 434.367C1201.46 419.609 1155.86 448.765 1139.9 461.363C1014.51 560.35 1052.81 626.221 931.063 649.977C887.745 658.616 838.955 640.979 814.788 611.463C764.631 550.992 851.267 475.401 855.37 441.206C858.562 416.729 853.09 372.814 798.373 367.415H797.461Z" fill="#DEB0FF" stroke="black" stroke-width="20" stroke-miterlimit="10"/>
<path d="M802.023 845.432C766.001 863.79 766.912 915.982 788.799 947.658C792.447 952.697 796.551 957.376 802.023 960.976C808.862 965.655 817.526 967.814 826.189 969.254C857.196 974.293 891.85 966.375 913.281 945.857C934.712 925.34 940.184 891.145 922.401 867.748C911.457 853.35 893.218 844.351 874.067 840.392C854.916 836.432 832.117 829.954 802.023 845.432Z" fill="white" stroke="black" stroke-width="20" stroke-miterlimit="10"/>
<path d="M855.372 922.462C863.934 922.462 870.876 916.338 870.876 908.784C870.876 901.23 863.934 895.105 855.372 895.105C846.81 895.105 839.869 901.23 839.869 908.784C839.869 916.338 846.81 922.462 855.372 922.462Z" fill="black"/>
</g>
<defs>
<clipPath id="clip0_10_686">
<rect width="1760" height="1760" fill="white"/>
</clipPath>
</defs>
</svg>
