<svg width="1760" height="1760" viewBox="0 0 1760 1760" fill="none" xmlns="http://www.w3.org/2000/svg">
<rect width="1760" height="1760" fill="white"/>
<path d="M515.572 602.123C495.398 598.119 466.578 603.323 449.766 613.735C432.954 624.146 422.867 640.164 413.741 655.38C367.148 734.667 336.406 827.167 370.51 910.458C387.322 951.703 419.024 987.742 439.199 1028.19C460.333 1071.43 467.538 1119.49 459.853 1165.94C455.53 1191.96 446.404 1217.99 444.482 1244.42C442.561 1270.85 448.805 1299.28 470.42 1318.5C491.555 1336.92 532.384 1338.92 562.165 1344.93C600.111 1352.54 651.027 1346.93 687.532 1334.92C749.016 1314.9 749.496 1269.25 752.378 1214.39C755.26 1159.53 754.779 1099.86 796.569 1057.42C854.209 998.555 948.836 994.55 994.468 1043.8C1034.82 1087.45 1027.13 1168.74 1063.64 1214.79C1087.65 1244.82 1126.56 1268.45 1169.31 1274.05C1398.91 1304.09 1393.15 1331.72 1401.31 1076.24C1401.79 1055.82 1401.31 1034.99 1392.67 1015.77C1383.06 994.149 1365.29 976.13 1348 958.511C1315.33 924.474 1283.63 888.835 1265.86 847.591C1248.09 806.346 1245.2 759.094 1269.22 720.652C1284.59 695.825 1310.53 674.202 1311.49 646.171C1312.93 613.736 1277.87 586.506 1240.88 577.296C1203.89 568.086 1163.55 571.289 1124.64 570.889C1085.73 570.489 1038.18 564.081 1022.33 534.048C1004.07 498.81 1013.2 405.909 906.086 412.315C814.822 417.922 834.996 535.651 761.024 593.313C711.549 631.755 643.822 627.75 515.572 602.523V602.123Z" fill="#FFF570" stroke="black" stroke-width="20" stroke-miterlimit="10"/>
<path d="M825.393 763.498C815.786 784.721 806.179 810.748 822.991 829.168C833.558 840.781 851.331 845.587 868.143 848.791C889.758 852.795 912.334 854.796 933.469 850.392C954.603 845.987 975.258 834.775 983.904 817.956C993.51 799.937 988.707 779.114 981.982 760.293C969.974 725.455 951.241 691.019 919.539 666.192C916.176 663.389 912.334 660.986 908.01 659.785C897.923 656.982 886.396 661.786 880.151 668.994C873.907 676.202 836.921 738.671 825.393 763.498Z" fill="white" stroke="black" stroke-width="20" stroke-miterlimit="10"/>
<path d="M923.897 783.575C924.635 774.972 915.58 767.422 903.673 766.712C891.766 766.003 881.515 772.402 880.778 781.005C880.04 789.608 889.093 797.157 901.001 797.867C912.908 798.577 923.16 792.178 923.897 783.575Z" fill="#030005"/>
</svg>
