<svg width="1760" height="1760" viewBox="0 0 1760 1760" fill="none" xmlns="http://www.w3.org/2000/svg">
<rect width="1760" height="1760" fill="white"/>
<path d="M772.231 361.502C725.592 372.071 698.877 421.145 677.595 457.006C656.313 492.867 628.691 532.503 581.599 542.695C544.922 550.622 501.452 539.297 471.114 558.172C459.341 565.344 451.644 575.914 446.21 587.239C431.72 615.55 430.815 648.391 443.04 677.458C451.191 696.332 464.775 713.697 467.945 733.326C476.095 777.869 432.173 816.75 423.57 861.293C415.872 901.684 437.606 942.076 464.322 976.427C491.038 1010.78 523.187 1043.24 539.488 1081.74C558.959 1127.8 554.431 1178.38 550.356 1227.08C547.186 1265.2 534.507 1347.87 564.845 1376.56C597.9 1408.27 658.577 1410.16 704.763 1392.79C750.949 1375.43 797.136 1302.95 831.096 1272C846.945 1257.28 863.698 1242.55 884.075 1232.74C904.904 1222.92 928.903 1218.77 952.449 1216.13C975.995 1213.87 999.993 1213.11 1023.09 1217.64C1106.86 1234.63 1162.1 1319.94 1248.13 1314.65C1308.36 1310.88 1350.47 1262.18 1367.67 1213.87C1392.58 1142.9 1381.26 1063.25 1336.43 999.453C1302.92 951.89 1252.21 912.254 1229.57 860.539C1200.13 793.724 1221.87 718.226 1201.04 649.146C1192.89 621.212 1175.23 592.9 1143.53 581.576C1126.78 575.536 1108.21 575.159 1090.55 575.159C1032.6 575.159 866.415 611.775 899.47 456.628C904.451 433.601 894.489 333.191 771.326 360.747L772.231 361.502Z" fill="#FF3B83" stroke="black" stroke-width="20" stroke-miterlimit="10"/>
<path d="M708.84 899.42C699.332 934.149 692.539 975.294 721.519 1000.59C740.084 1016.82 768.158 1020.97 794.874 1022.48C828.382 1024.75 862.795 1023.61 894.039 1013.42C925.283 1003.23 952.904 982.089 961.96 954.532C971.469 925.466 959.243 894.135 944.301 866.579C917.132 815.241 880.455 765.79 826.118 733.326C820.231 729.929 813.892 726.532 806.647 725.399C790.799 722.757 774.498 732.571 767.253 744.65C760.008 756.73 719.708 859.029 708.84 899.42Z" fill="white" stroke="black" stroke-width="20" stroke-miterlimit="10"/>
<path d="M833.486 939.946C851.7 938.914 865.585 927.286 864.499 913.974C863.413 900.662 847.768 890.707 829.554 891.739C811.34 892.772 797.455 904.401 798.541 917.713C799.627 931.025 815.272 940.979 833.486 939.946Z" fill="#030005"/>
</svg>
