<svg width="1760" height="1760" viewBox="0 0 1760 1760" fill="none" xmlns="http://www.w3.org/2000/svg">
<g clip-path="url(#clip0_10_680)">
<path d="M1760 0H0V1760H1760V0Z" fill="white"/>
<path d="M659.478 506.96C622.167 470.896 435.61 484.419 413.439 488.927C391.269 493.435 370.18 504.254 361.528 521.835C355.039 534.007 355.579 547.532 356.661 560.605C358.824 599.824 364.231 639.493 372.342 678.261C377.209 701.703 383.157 724.693 393.972 746.782C408.572 774.731 430.743 799.075 451.291 823.869C515.64 903.209 561.603 998.777 543.758 1092.99C535.647 1134.02 515.64 1173.24 507.529 1214.26C499.417 1255.28 505.366 1302.16 541.596 1331.01C585.937 1366.63 659.478 1362.12 713.011 1336.87C766.545 1311.63 804.938 1270.16 846.575 1232.29C888.213 1194.42 937.961 1158.81 998.524 1151.15C1058.55 1143.48 1118.57 1165.12 1179.13 1162.87C1281.33 1158.81 1365.69 1084.88 1392.19 1002.38C1418.68 919.888 1397.05 831.983 1362.44 751.741C1344.06 708.916 1321.35 665.189 1321.89 619.659C1322.97 569.62 1351.63 522.286 1352.17 472.248C1352.17 462.33 1351.09 451.963 1344.6 443.398C1332.7 427.62 1221.31 406.431 1180.21 408.685C1141.82 410.489 1102.89 422.21 1076.93 445.651C1054.76 465.937 1044.49 492.984 1032.59 518.68C1014.21 559.251 989.872 598.921 953.642 630.026C917.413 661.131 865.501 673.754 814.13 665.639C670.833 643.55 706.522 552.49 659.478 506.96Z" fill="#FFC466" stroke="black" stroke-width="20" stroke-miterlimit="10"/>
<path d="M1108.84 742.274C1050.43 787.804 1054.22 907.714 1079.09 982.546C1082.88 994.718 1088.29 1005.99 1094.78 1014.55C1103.43 1025.82 1114.24 1031.23 1125.06 1034.84C1165.07 1047.91 1211.04 1031.23 1241.86 983.899C1272.68 936.566 1284.04 856.324 1263.49 800.425C1251.05 766.165 1227.8 744.075 1203.47 734.158C1179.13 724.24 1145.61 713.423 1108.84 742.274Z" fill="white" stroke="black" stroke-width="20" stroke-miterlimit="10"/>
<path d="M1190.06 894.203C1190.98 876.294 1182.78 861.455 1171.74 861.059C1160.7 860.664 1151 874.862 1150.08 892.771C1149.16 910.68 1157.36 925.519 1168.4 925.914C1179.44 926.31 1189.14 912.112 1190.06 894.203Z" fill="black"/>
</g>
<defs>
<clipPath id="clip0_10_680">
<rect width="1760" height="1760" fill="white"/>
</clipPath>
</defs>
</svg>
