<svg width="1760" height="1760" viewBox="0 0 1760 1760" fill="none" xmlns="http://www.w3.org/2000/svg">
<rect width="1760" height="1760" fill="white"/>
<path d="M481.305 733.557C432.49 766.853 361.486 744.656 360.598 750.945C353.941 792.38 380.124 853.054 394.769 892.639C412.52 940.734 414.295 992.897 399.206 1041.36C388.112 1076.88 369.029 1110.17 360.154 1146.06C351.278 1181.94 355.273 1223.01 385.449 1249.28C403.2 1264.82 428.052 1273.7 453.347 1276.65C483.968 1279.98 516.807 1274.44 540.327 1258.16C567.842 1239.29 579.823 1209.32 587.368 1180.47C598.906 1137.18 603.344 1092.42 624.201 1051.72C645.059 1011.02 687.661 974.03 740.914 971.44C790.173 968.85 835.882 997.707 861.178 1033.22C886.473 1068.74 895.348 1110.54 903.78 1151.24C912.211 1191.93 921.531 1233.74 947.27 1268.89C959.696 1285.9 976.559 1301.44 998.748 1308.84C1047.12 1324.75 1099.49 1296.26 1137.65 1266.67C1153.18 1254.83 1168.27 1241.88 1178.48 1226.34C1199.33 1193.41 1192.23 1153.46 1202.44 1117.2C1212.65 1081.69 1240.16 1049.5 1277.44 1030.26C1299.19 1019.16 1324.04 1012.13 1345.34 1000.67C1393.27 974.769 1421.22 922.975 1404.36 877.471C1387.5 831.596 1333.36 803.849 1292.53 770.183C1251.7 736.517 1190.02 620.35 1172.71 597.413C1078.63 472.737 1055.11 556.348 1006.74 615.171C981.441 645.878 943.72 677.324 891.354 669.185C782.629 651.797 798.605 571.885 805.262 542.659C811.919 513.432 803.93 462.749 770.647 449.8C609.112 386.907 559.853 679.914 481.749 733.188L481.305 733.557Z" fill="#99E6FF" stroke="black" stroke-width="20" stroke-miterlimit="10"/>
<path d="M1208 846C1161.4 807.524 1048.01 818.277 975.227 838.255C963.689 841.585 952.595 845.284 944.163 850.093C933.512 856.382 928.187 864.152 925.081 871.551C913.543 899.298 931.737 930.374 979.665 949.612C1027.59 968.849 1106.59 974.029 1160.73 957.751C1194.01 947.762 1214.87 931.484 1223.74 914.466C1232.62 897.448 1241.94 874.51 1212.2 850.093L1208 846Z" fill="white" stroke="black" stroke-width="20" stroke-miterlimit="10"/>
<path d="M1065.31 911.137C1082.96 911.137 1097.27 905.009 1097.27 897.449C1097.27 889.889 1082.96 883.759 1065.31 883.759C1047.67 883.759 1033.36 889.889 1033.36 897.449C1033.36 905.009 1047.67 911.137 1065.31 911.137Z" fill="black"/>
</svg>
