<svg width="1760" height="1760" viewBox="0 0 1760 1760" fill="none" xmlns="http://www.w3.org/2000/svg">
<rect width="1760" height="1760" fill="white"/>
<path d="M481.447 607.518C454.643 616.456 431.739 637.582 434.175 661.958C435.15 674.959 443.435 686.74 451.72 698.116C483.884 743.213 516.536 789.122 561.371 825.687C590.124 848.844 623.75 868.752 646.655 895.973C679.794 934.975 686.13 990.228 656.89 1031.67C637.396 1059.29 604.744 1078.8 573.554 1097.89C527.744 1126.33 482.422 1157.61 457.567 1200.27C432.713 1242.93 432.713 1299 472.188 1333.12C503.865 1360.34 552.112 1367.25 597.434 1371.72C761.668 1387.16 928.338 1382.28 1090.62 1357.5C1121.81 1352.62 1153.98 1346.94 1179.81 1331.5C1229.51 1302.25 1243.65 1246.99 1249.49 1196.62C1265.09 1057.67 1243.16 915.473 1277.27 778.559C1292.38 717.618 1318.7 658.708 1324.06 596.954C1329.42 539.67 1331.86 463.29 1290.92 416.975C1261.68 383.661 1181.75 349.533 1108.65 421.443C1057.97 471.415 1090.62 567.702 999.49 576.641C932.237 583.141 852.313 574.609 777.75 578.266C631.548 585.579 499.478 601.83 481.447 607.518Z" fill="#3EC790" stroke="black" stroke-width="20" stroke-miterlimit="10"/>
<path d="M894.223 1115.77C892.761 1134.46 891.299 1155.17 897.634 1170.61C904.457 1187.27 917.128 1191.33 928.824 1193.36C977.558 1202.71 1027.27 1204.33 1076.49 1197.83C1087.21 1196.62 1098.42 1194.58 1108.17 1184.83C1128.63 1163.71 1133.51 1115.36 1135.94 1073.51C1139.84 1007.7 1138.38 924.411 1104.75 896.378C1093.06 886.628 1079.41 886.222 1066.25 887.035C1029.22 888.66 991.691 894.347 955.141 904.504C944.419 907.348 932.723 911.411 924.438 924.006C916.153 936.6 899.584 1064.98 895.198 1115.77H894.223Z" fill="white" stroke="black" stroke-width="20" stroke-miterlimit="10"/>
<path d="M1022.88 1081.23C1035.26 1081.23 1045.3 1064.68 1045.3 1044.26C1045.3 1023.84 1035.26 1007.29 1022.88 1007.29C1010.5 1007.29 1000.46 1023.84 1000.46 1044.26C1000.46 1064.68 1010.5 1081.23 1022.88 1081.23Z" fill="black"/>
</svg>
