<svg width="1760" height="1760" viewBox="0 0 1760 1760" fill="none" xmlns="http://www.w3.org/2000/svg">
<g clip-path="url(#clip0_10_692)">
<path d="M1760 0H0V1760H1760V0Z" fill="white"/>
<path d="M785.895 355.1C713.341 345.569 671.128 468.371 604.292 493.298C580.987 502.096 553.285 503.195 531.739 514.559C500.519 531.054 489.526 563.68 481.171 593.373C443.796 730.471 422.689 870.867 418.292 1011.63C416.093 1083.11 424.888 1165.59 494.803 1206.28C534.817 1229.74 590.66 1233.41 634.632 1215.45C683.88 1194.92 713.781 1152.4 737.526 1110.97C761.27 1069.55 783.257 1025.2 824.59 995.136C865.923 965.077 934.959 954.813 974.533 986.339C1020.7 1023.36 999.157 1091.55 953.427 1128.94C907.696 1166.33 845.256 1186.85 796.008 1220.95C746.76 1255.04 711.143 1315.89 744.122 1361.71C774.462 1404.23 846.576 1410.1 903.739 1398.37C1056.76 1366.84 1169.33 1233.41 1153.06 1102.54C1142.07 1013.83 1079.62 924.388 1116.12 840.442C1138.55 788.756 1193.95 752.464 1231.33 707.009C1268.7 661.921 1288.05 604.736 1274.86 550.85C1261.67 496.964 1223.85 424.382 1159.65 412.286C1134.59 407.52 1096.77 432.446 1070.83 430.98C972.334 426.581 924.475 371.963 793 355.101L785.895 355.1Z" fill="#FF6640" stroke="black" stroke-width="20" stroke-miterlimit="10"/>
<path d="M749.397 634.062C697.51 660.089 698.39 734.501 730.489 778.856C735.766 785.821 741.921 792.785 749.397 797.55C759.51 804.149 771.823 807.081 784.135 808.914C828.986 815.879 878.674 804.883 909.894 775.557C941.113 746.231 949.028 698.21 923.085 665.218C907.255 645.057 880.872 632.226 853.17 626.727C825.907 621.229 792.489 612.434 749.397 634.062Z" fill="white" stroke="black" stroke-width="20" stroke-miterlimit="10"/>
<path d="M826.351 743.67C838.493 743.67 848.337 734.971 848.337 724.241C848.337 713.511 838.493 704.812 826.351 704.812C814.209 704.812 804.365 713.511 804.365 724.241C804.365 734.971 814.209 743.67 826.351 743.67Z" fill="black"/>
</g>
<defs>
<clipPath id="clip0_10_692">
<rect width="1760" height="1760" fill="white"/>
</clipPath>
</defs>
</svg>
