<svg width="1760" height="1760" viewBox="0 0 1760 1760" fill="none" xmlns="http://www.w3.org/2000/svg">
<rect width="1760" height="1760" fill="white"/>
<path d="M784.55 522.57C791.193 480.687 795.346 419.766 752.994 396.921C710.643 374.076 654.59 377.19 606.01 389.651C581.928 395.882 557.846 404.536 540.823 420.458C512.589 446.765 510.928 486.571 518.817 521.531C526.706 556.492 541.238 590.76 539.577 626.412C534.595 731.985 389.687 805.022 385.119 910.595C382.213 974.978 433.283 1033.82 434.114 1097.86C434.944 1160.51 387.611 1220.74 400.482 1282.7C410.032 1329.08 456.95 1368.89 512.588 1374.77C568.226 1380.66 627.601 1349.85 642.134 1304.5C650.853 1277.85 645.04 1249.81 637.151 1222.81C625.11 1181.62 608.086 1141.47 603.519 1099.24C598.952 1057.01 608.502 1011.67 642.549 980.516C676.596 949.363 740.123 938.633 779.568 965.632C814.861 989.516 819.843 1033.82 808.217 1070.51C796.591 1107.2 771.263 1139.74 754.655 1175.05C740.538 1205.16 733.064 1237.35 731.818 1269.54C730.988 1296.2 735.555 1324.58 754.655 1346.04C790.778 1385.85 864.27 1386.89 918.662 1365.77C999.628 1334.27 1054.85 1260.89 1053.19 1186.47C1051.53 1102.36 985.096 1027.24 977.207 943.478C975.131 919.941 977.623 895.365 992.57 875.635C1007.52 855.905 1037 842.059 1063.99 847.944C1100.11 855.559 1115.89 890.518 1123.36 920.633C1130.83 950.747 1139.55 985.708 1171.94 1001.28C1195.19 1012.36 1225.09 1009.59 1250.41 1001.98C1297.75 987.438 1337.61 955.594 1357.12 916.826C1379.54 872.173 1376.22 821.983 1369.16 773.869C1361.28 719.178 1350.06 665.18 1334.7 611.528C1327.23 584.875 1318.51 557.53 1300.65 534.338C1286.95 515.993 1268.27 500.763 1248.75 486.225C1208.06 455.419 1156.99 425.997 1102.6 433.612C1052.36 440.881 1015.82 479.302 999.629 519.455C970.979 590.414 976.792 649.951 848.077 649.951C733.895 649.951 775.031 582.536 785.826 514L784.55 522.57Z" fill="url(#paint0_linear_80_145)" stroke="black" stroke-width="20" stroke-miterlimit="10"/>
<path d="M1101.33 602C1068.94 645.614 1096.79 738.907 1133.32 790.136C1139.14 798.443 1145.78 806.058 1152.42 811.25C1161.56 818.173 1170.69 820.596 1179.83 821.288C1212.63 824.058 1242.94 804.327 1254.15 763.829C1265.36 723.33 1254.56 662.063 1225.92 624.334C1208.06 601.142 1186.06 588.681 1165.71 585.22C1145.36 581.758 1117.96 579.335 1097.2 607.027L1101.33 602Z" fill="white" stroke="black" stroke-width="20" stroke-miterlimit="10"/>
<path d="M1187.18 733.073C1195.46 731.524 1199.24 719.381 1195.62 705.951C1192.01 692.521 1182.36 682.889 1174.08 684.438C1165.81 685.987 1162.03 698.13 1165.64 711.56C1169.26 724.99 1178.9 734.622 1187.18 733.073Z" fill="black"/>
<defs>
<linearGradient id="paint0_linear_80_145" x1="469.822" y1="880.135" x2="1374.98" y2="880.135" gradientUnits="userSpaceOnUse">
<stop stop-color="#FF8370"/>
<stop offset="0.18" stop-color="#F9D976"/>
<stop offset="0.36" stop-color="#F3F77B"/>
<stop offset="0.5" stop-color="#B8FFAD"/>
<stop offset="1" stop-color="#70F8FF"/>
</linearGradient>
</defs>
</svg>
