<svg width="1760" height="1760" viewBox="0 0 1760 1760" fill="none" xmlns="http://www.w3.org/2000/svg">
<rect width="1760" height="1760" fill="white"/>
<path d="M757.737 506.43C726.279 497.688 698.666 513.714 660.217 516.337C643.44 517.502 623.866 520.125 617.225 532.946C612.331 542.271 616.875 553.052 621.069 562.668C653.226 633.767 672.101 709.238 677.344 785C679.791 821.715 678.743 859.304 663.014 893.688C647.285 928.072 614.778 958.669 572.135 967.702C555.357 971.198 536.832 971.199 522.152 964.205C471.469 940.311 496.286 862.51 445.254 839.49C418.34 827.543 383.037 839.49 366.259 860.762C349.482 882.033 347.734 909.132 351.928 934.192C360.317 986.934 390.028 1035.3 420.787 1081.93C432.321 1099.7 444.904 1117.77 463.43 1130.59C485.8 1146.32 515.161 1152.74 543.823 1157.4C708.803 1183.04 885.667 1147.2 1018.49 1061.82C1038.76 1048.71 1058.34 1034.43 1082.45 1027.15C1106.57 1019.86 1136.63 1021.61 1153.41 1037.64C1174.03 1057.16 1167.04 1086.88 1158.3 1111.94C1149.56 1137 1141.53 1166.14 1160.75 1186.54C1215.28 1243.94 1346.35 1208.39 1400.53 1095.91C1426.05 1042.59 1392.49 978.484 1340.76 940.894C1287.28 901.848 1214.58 877.079 1183.47 823.754C1154.46 774.218 1178.93 716.814 1194.65 663.489C1225.76 557.131 1197.45 511.383 1116.71 514.005C1085.25 514.879 1070.92 508.76 1041.56 499.436C922.368 461.263 946.136 636.972 858.054 627.939C769.971 618.906 837.431 529.449 758.087 507.012L757.737 506.43Z" fill="#FCFFA6" stroke="black" stroke-width="20" stroke-miterlimit="10"/>
<path d="M873.43 761.687C829.04 800.15 831.486 900.972 850.012 963.913C853.157 974.111 856.653 983.436 861.546 990.721C867.838 1000.05 876.227 1004.71 884.266 1007.62C914.326 1018.4 949.279 1004.42 972.349 964.204C995.418 923.992 1004.51 856.68 989.476 810.058C980.038 781.21 962.911 762.852 944.736 754.402C926.56 745.952 901.393 737.21 873.43 761.396V761.687Z" fill="white" stroke="black" stroke-width="20" stroke-miterlimit="10"/>
<path d="M933.774 889.282C934.544 874.329 928.446 861.967 920.153 861.67C911.86 861.373 904.513 873.254 903.742 888.207C902.971 903.159 909.069 915.522 917.363 915.819C925.656 916.116 933.003 904.235 933.774 889.282Z" fill="black"/>
</svg>
