<svg width="1760" height="1760" viewBox="0 0 1760 1760" fill="none" xmlns="http://www.w3.org/2000/svg">
<rect width="1760" height="1760" fill="white"/>
<path d="M860.948 635.884C852.605 606.427 836.9 574.106 802.547 564.287C789.297 560.605 775.556 561.013 761.323 561.013C677.404 562.65 593.484 564.286 509.564 565.923C475.701 566.741 437.422 568.787 416.319 590.471C387.855 619.109 405.522 661.25 409.448 698.48C417.791 781.532 347.122 860.084 356.938 943.136C363.808 1000 408.468 1049.51 459.997 1087.56C524.778 1135.42 608.206 1199.25 687.218 1169.38C739.73 1149.33 814.816 1116.61 875.67 1124.79C914.44 1130.11 946.831 1150.97 975.295 1173.07C1010.63 1200.07 1043.02 1229.93 1081.79 1253.66C1120.56 1277.39 1167.18 1294.57 1215.28 1292.53C1278.58 1289.26 1314.41 1247.12 1343.36 1200.07C1372.32 1153.02 1388.51 1112.92 1397.35 1049.92C1404.71 997.55 1391.46 923.908 1355.63 880.132C1337.97 858.039 1309.01 858.447 1289.87 837.173C1264.35 808.943 1246.68 775.804 1238.83 741.028C1232.94 714.026 1232.94 685.796 1224.11 659.203C1215.28 632.61 1194.17 598.245 1162.76 590.062C1090.62 570.833 1072.96 602.744 1031.73 640.384C964.007 702.571 872.235 675.978 860.948 635.884Z" fill="#FFF570" stroke="black" stroke-width="20" stroke-miterlimit="10"/>
<path d="M1082.77 956.228C1026.82 985.276 1027.8 1068.74 1062.16 1118.24C1067.56 1126.42 1074.43 1133.79 1082.77 1139.52C1093.57 1146.88 1106.82 1150.15 1120.07 1152.61C1168.65 1160.38 1222.15 1148.11 1256.01 1115.38C1289.87 1082.65 1298.21 1028.64 1270.24 991.822C1253.06 969.32 1224.6 955.001 1195.15 948.864C1165.71 942.727 1129.39 932.499 1082.77 956.638V956.228Z" fill="white" stroke="black" stroke-width="20" stroke-miterlimit="10"/>
<path d="M1165.7 1078.56C1178.99 1078.56 1189.75 1068.85 1189.75 1056.87C1189.75 1044.9 1178.99 1035.19 1165.7 1035.19C1152.42 1035.19 1141.66 1044.9 1141.66 1056.87C1141.66 1068.85 1152.42 1078.56 1165.7 1078.56Z" fill="black"/>
</svg>
