<svg width="1760" height="1760" viewBox="0 0 1760 1760" fill="none" xmlns="http://www.w3.org/2000/svg">
<rect width="1760" height="1760" fill="white"/>
<path d="M1029.76 431.17C969.447 401.658 906.514 372.147 837.025 365.953C767.537 359.759 689.307 383.806 659.589 436.635C637.3 476.347 646.042 522.982 646.916 567.067C647.79 611.152 634.241 661.794 587.041 681.833C569.123 689.484 546.835 692.035 534.598 705.151C517.116 723.732 528.916 750.693 537.657 773.282C573.493 868.01 531.538 970.024 483.901 1061.11C461.613 1103.37 437.575 1146 426.213 1191.18C414.85 1236.35 421.842 1267.69 449.375 1308.13C476.909 1348.57 528.479 1394.84 583.108 1385.73C649.537 1374.8 688.434 1317.97 715.093 1265.87C741.752 1213.77 771.471 1155.47 833.967 1133.98C850.137 1128.51 867.618 1125.6 885.099 1127.42C933.61 1132.15 969.447 1168.59 987.365 1206.48C1005.28 1244.37 1011.4 1285.9 1030.63 1323.07C1049.86 1360.23 1089.63 1395.21 1138.58 1395.57C1171.79 1395.57 1202.39 1379.9 1228.17 1362.05C1264.45 1336.55 1296.79 1303.39 1304.22 1264.04C1316.45 1199.92 1261.39 1141.99 1229.05 1082.97C1219.87 1066.21 1212.44 1046.9 1219.43 1029.41C1223.36 1019.94 1231.67 1011.56 1239.97 1004.27C1274.5 974.76 1319.07 954.358 1354.47 925.211C1389.87 896.064 1415.66 852.708 1398.62 813.724C1378.95 768.91 1227.3 763.809 1184.03 732.476C1134.65 696.771 1205.45 690.942 1200.64 594.757C1197.58 540.471 1116.73 473.068 1029.76 430.44V431.17Z" fill="#424242" stroke="black" stroke-width="20" stroke-miterlimit="10"/>
<path d="M810.801 548.484C740.001 582.368 741.311 678.553 785.014 735.754C792.007 744.862 800.312 753.607 810.801 760.165C824.349 768.545 841.392 772.552 858 775.102C919.185 784.21 986.926 770.001 1029.32 732.11C1071.71 694.219 1082.64 631.918 1047.24 589.291C1025.38 563.059 989.547 546.662 952.399 539.376C915.251 532.089 869.8 520.43 810.801 548.484Z" fill="white" stroke="black" stroke-width="20" stroke-miterlimit="10"/>
<path d="M915.689 689.846C932.343 689.846 945.844 678.591 945.844 664.707C945.844 650.823 932.343 639.567 915.689 639.567C899.034 639.567 885.533 650.823 885.533 664.707C885.533 678.591 899.034 689.846 915.689 689.846Z" fill="black"/>
</svg>
