<svg width="1760" height="1760" viewBox="0 0 1760 1760" fill="none" xmlns="http://www.w3.org/2000/svg">
<rect width="1760" height="1760" fill="white"/>
<path d="M691.843 480.798C666.178 482.611 637.902 480.435 620.502 496.029C604.841 510.172 602.232 531.206 604.407 550.426C606.582 569.646 612.236 588.503 610.496 607.723C606.581 651.603 596.141 686.779 510.446 698.021C283.809 728.483 402.999 870.278 424.315 927.938C443.455 980.159 453.026 1034.19 453.896 1088.59C454.331 1120.5 452.156 1153.5 467.381 1182.88C482.606 1212.25 522.626 1235.46 558.296 1224.58C587.877 1215.51 602.666 1187.59 607.886 1161.48C614.411 1128.48 611.802 1094.39 615.717 1061.03C619.632 1027.66 632.247 992.85 662.697 971.092C694.452 948.245 744.042 944.619 780.583 962.026C817.123 979.433 837.568 1017.51 829.303 1051.6C824.083 1074.45 807.988 1094.39 799.288 1116.15C774.057 1180.34 824.519 1257.22 902.385 1276.08C980.25 1294.93 1070.73 1254.68 1097.7 1190.86C1107.27 1167.65 1109.45 1142.62 1119.89 1119.78C1130.33 1096.93 1151.64 1074.45 1180.79 1072.27C1207.32 1070.09 1231.25 1084.24 1256.91 1088.95C1297.8 1096.57 1342.61 1078.8 1365.66 1049.42C1388.72 1020.05 1390.89 981.247 1377.41 948.246C1363.92 915.246 1335.21 886.959 1301.28 865.925C1274.75 849.244 1243.43 835.463 1229.07 810.441C1214.28 784.33 1232.55 749.879 1250.39 725.219C1279.97 684.603 1296.06 639.999 1212.11 622.955C1145.55 609.174 1181.66 680.977 1074.21 711.802C959.804 744.44 914.129 721.594 861.059 667.197C837.568 642.9 829.739 610.624 819.299 580.525C808.859 550.425 798.419 473.544 691.843 480.435V480.798Z" fill="#FFF570" stroke="black" stroke-width="20" stroke-miterlimit="10"/>
<path d="M890.208 1070.09C853.233 1088.23 853.668 1139.72 876.723 1170.91C880.203 1175.99 884.988 1180.7 890.208 1183.96C897.603 1188.32 906.302 1190.49 915.002 1191.94C947.192 1196.66 982.428 1189.04 1005.05 1168.73C1027.67 1148.42 1032.89 1114.7 1014.62 1091.85C1003.31 1077.71 984.168 1069.01 964.593 1065.02C945.018 1061.03 921.093 1054.86 890.208 1069.73V1070.09Z" fill="white" stroke="black" stroke-width="20" stroke-miterlimit="10"/>
<path d="M945.456 1146.25C954.105 1146.25 961.115 1140.24 961.115 1132.83C961.115 1125.42 954.105 1119.41 945.456 1119.41C936.807 1119.41 929.795 1125.42 929.795 1132.83C929.795 1140.24 936.807 1146.25 945.456 1146.25Z" fill="black"/>
</svg>
