<svg width="1760" height="1760" viewBox="0 0 1760 1760" fill="none" xmlns="http://www.w3.org/2000/svg">
<rect width="1760" height="1760" fill="white"/>
<path d="M555.241 594.523C523.894 620.655 542.066 639.213 499.817 692.992C466.653 735.409 487.095 783.129 557.057 821.002C627.018 858.874 641.102 888.794 644.737 940.679C648.371 992.565 601.124 1059.98 538.885 1061.87C510.265 1062.63 473.014 1039.91 444.847 1043.31C413.955 1047.1 399.418 1069.07 384.88 1092.55C370.343 1116.03 365.346 1142.16 360.803 1168.29C358.077 1183.44 355.805 1199.35 361.711 1213.74C370.797 1234.95 396.237 1248.2 420.768 1257.67C478.464 1280.4 541.157 1294.41 604.759 1298.57C618.842 1299.71 633.833 1300.09 647.008 1295.55C667.451 1288.73 680.171 1272.44 691.074 1256.54C713.789 1223.21 732.87 1187.99 747.861 1152.01C760.127 1122.47 769.668 1091.79 787.839 1064.52C806.011 1037.25 834.178 1012.64 870.521 1005.06C915.497 995.594 967.286 1016.8 985.458 1052.4C1003.18 1086.49 991.363 1125.12 993.18 1162.23C993.18 1170.57 994.544 1178.9 999.541 1186.09C1007.26 1196.7 1022.71 1202 1036.79 1205.79C1064.05 1212.98 1092.22 1218.29 1120.38 1221.32C1134.92 1222.83 1150.37 1223.59 1163.09 1217.15C1173.99 1211.85 1180.35 1202 1185.8 1192.53C1213.06 1145.57 1233.05 1095.2 1244.86 1044.07C1247.59 1032.33 1249.86 1020.21 1248.04 1008.09C1240.77 964.16 1181.71 939.165 1161.27 898.262C1149 874.402 1151.73 845.997 1167.63 824.031C1183.53 802.065 1213.06 786.916 1243.5 785.022C1265.76 783.507 1288.93 788.431 1310.28 782.75C1344.35 773.282 1360.25 741.469 1371.15 712.685C1392.05 657.391 1460.2 585.434 1307.55 538.472C1218.97 511.204 1253.04 594.144 1094.49 605.127C935.94 616.11 822.82 600.583 665.634 584.298C658.365 583.54 581.59 572.936 555.241 594.523Z" fill="white" stroke="black" stroke-width="20" stroke-miterlimit="10"/>
<path d="M880.517 742.226C869.159 740.332 856.892 738.439 846.898 739.954C836.449 741.847 832.816 746.771 830.999 751.694C821.913 771.767 817.823 792.597 818.277 813.806C818.277 818.351 818.732 823.274 824.183 828.198C835.541 838.423 864.616 843.346 890.057 847.512C930.034 853.572 980.461 858.496 999.542 845.998C1006.36 841.453 1007.26 835.772 1007.72 830.091C1009.08 814.184 1008.17 797.899 1004.54 781.614C1003.63 776.691 1001.81 771.767 994.544 767.222C987.275 762.677 910.5 747.528 880.062 742.226H880.517Z" fill="white" stroke="black" stroke-width="20" stroke-miterlimit="10"/>
<path d="M922.813 799.946C924.207 791.027 918.882 783.095 910.92 782.231C902.959 781.367 895.376 787.897 893.983 796.816C892.589 805.735 897.913 813.665 905.875 814.529C913.836 815.394 921.42 808.865 922.813 799.946Z" fill="black"/>
</svg>
