<svg width="1760" height="1760" viewBox="0 0 1760 1760" fill="none" xmlns="http://www.w3.org/2000/svg">
<rect width="1760" height="1760" fill="white"/>
<path d="M857 436.066C770.178 464.234 790.707 581.895 732.113 642.152C723.987 650.352 715.006 657.84 703.458 662.118C688.061 667.823 670.526 666.754 654.274 670.319C605.945 681.016 584.987 727.724 573.439 768.37C561.892 809.017 546.067 855.724 500.304 872.482C474.215 881.752 443.848 878.544 416.904 886.031C366.436 900.293 340.347 955.915 366.008 995.135C380.977 1017.95 409.633 1033.29 424.602 1056.1C466.088 1119.93 384.399 1200.15 413.055 1268.96C424.602 1297.13 454.54 1318.88 488.756 1328.51C513.99 1336 543.074 1337.07 567.452 1327.08C605.945 1311.75 623.051 1272.89 622.624 1237.23C622.196 1201.58 607.655 1167.35 599.101 1132.76C590.547 1098.18 588.408 1059.31 610.648 1029.01C632.033 999.771 672.236 983.369 712.011 974.099C746.227 965.898 785.576 962.689 815.942 978.377C850.157 996.205 861.704 1032.57 871.541 1065.02C888.649 1121.35 911.317 1179.47 961.785 1219.4C1012.25 1259.34 1097.79 1274.67 1151.68 1237.94C1194.02 1209.06 1203.43 1152.37 1172.64 1114.94C1160.23 1099.96 1143.13 1088.55 1129.01 1074.65C1107.63 1053.61 1093.94 1026.16 1097.79 998.701C1101.64 971.247 1125.59 945.574 1158.1 940.226C1202.58 933.095 1243.21 964.115 1288.54 968.037C1339.01 972.316 1387.77 938.8 1400.17 897.797C1412.57 856.794 1393.75 811.868 1359.54 780.849C1325.32 749.829 1277.42 730.575 1228.67 719.522C1201.29 713.104 1173.07 709.182 1147.4 699.556C1110.62 685.65 1080.68 660.335 1064 629.315C1037.06 578.685 1046.47 515.22 1004.98 471.721C985.735 451.754 950.237 406.116 858.711 435.709L857 436.066Z" fill="#99E6FF" stroke="black" stroke-width="20" stroke-miterlimit="10"/>
<path d="M868.549 533.047C834.762 548.736 835.618 594.017 856.147 621.115C859.569 625.394 863.417 629.671 868.549 632.524C874.965 636.446 883.091 638.229 891.217 639.655C920.3 643.934 952.805 637.159 972.907 619.332C993.008 601.504 998.141 572.267 981.461 552.3C971.196 539.821 954.089 532.334 936.126 528.769C918.162 525.203 896.777 519.855 868.549 533.047Z" fill="white" stroke="black" stroke-width="20" stroke-miterlimit="10"/>
<path d="M918.59 599.721C926.621 599.721 933.132 594.452 933.132 587.954C933.132 581.456 926.621 576.188 918.59 576.188C910.559 576.188 904.049 581.456 904.049 587.954C904.049 594.452 910.559 599.721 918.59 599.721Z" fill="black"/>
</svg>
