<svg width="1760" height="1760" viewBox="0 0 1760 1760" fill="none" xmlns="http://www.w3.org/2000/svg">
<rect width="1760" height="1760" fill="white"/>
<path d="M748.548 382.879C662.469 398.905 701.846 518.411 683.074 561.909C659.265 616.396 596.995 640.205 537.93 634.253C516.869 631.964 494.434 627.385 474.746 636.084C449.564 647.073 438.574 675.92 430.79 702.019C412.476 762 397.824 823.356 386.378 885.169C378.594 926.378 372.642 968.502 378.136 1009.71C384.089 1056.87 415.682 1109.07 463.3 1108.61C503.592 1108.61 532.436 1071.98 555.329 1038.56C571.355 1015.21 587.838 991.854 603.863 968.044C630.419 929.583 666.133 887 712.378 892.037C757.706 897.074 784.261 950.187 778.767 995.059C773.273 1039.93 744.886 1078.85 717.872 1115.48C690.858 1152.11 663.385 1191.49 659.722 1236.82C654.228 1310.99 723.366 1378.76 797.54 1379.22C871.713 1379.67 939.02 1319.69 955.503 1246.89C967.865 1191.03 955.044 1127.38 986.179 1079.31C1010.45 1041.76 1054.86 1023.91 1096.52 1008.34C1106.6 1004.67 1116.67 1001.01 1127.2 1002.38C1148.72 1006.05 1159.25 1029.4 1167.49 1049.55C1189.01 1104.49 1224.27 1163.1 1282.42 1173.17C1326.83 1180.96 1373.53 1153.48 1392.76 1113.19C1411.99 1072.9 1405.58 1022.07 1380.86 984.528C1341.48 925.92 1262.73 897.989 1235.72 832.971C1227.93 814.198 1225.18 792.678 1231.59 773.447C1235.72 760.169 1243.96 748.264 1251.74 736.359C1270.51 707.971 1287.45 675.004 1280.13 642.037C1274.18 615.48 1253.57 593.96 1229.3 581.139C1198.17 564.656 1123.54 533.52 1081.87 579.308C1040.21 625.095 1003.58 627.385 966.033 603.575C859.351 535.352 871.714 359.528 749.006 381.964L748.548 382.879Z" fill="white" stroke="black" stroke-width="20" stroke-miterlimit="10"/>
<path d="M1033.8 826.562C1033.8 840.458 1013.65 865.939 990.76 878.302C954.589 897.533 906.514 891.123 876.753 863.192C846.992 835.262 837.377 787.643 853.86 750.555C854.775 748.265 855.691 746.434 857.98 745.06C860.727 743.229 863.932 743.687 867.137 743.687C935.358 751.013 1032.43 804.126 1033.8 826.562Z" fill="#FAFCFF" stroke="black" stroke-width="20" stroke-miterlimit="10"/>
<path d="M939.482 848.997C948.332 848.997 955.507 841.617 955.507 832.513C955.507 823.41 948.332 816.03 939.482 816.03C930.631 816.03 923.456 823.41 923.456 832.513C923.456 841.617 930.631 848.997 939.482 848.997Z" fill="black" stroke="black" stroke-width="20" stroke-miterlimit="10"/>
</svg>
