<svg width="1760" height="1760" viewBox="0 0 1760 1760" fill="none" xmlns="http://www.w3.org/2000/svg">
<rect width="1760" height="1760" fill="white"/>
<path d="M795.671 474.594C779.258 488.277 762.846 501.545 742.454 510.252C722.062 518.959 696.696 521.862 676.304 513.57C666.854 509.838 658.897 503.619 649.447 499.473C612.145 483.302 571.859 510.667 557.435 543.837C536.049 593.593 595.732 605.617 624.081 632.982C652.431 659.933 671.331 693.933 678.294 729.177C684.76 761.932 680.78 796.762 658.896 824.542C637.012 852.322 597.223 868.078 557.931 864.346C526.1 861.029 465.422 830.761 435.581 825.371C386.839 816.664 347.547 848.176 335.61 888.809C323.674 929.443 342.077 983.76 379.876 1010.71C429.115 1045.95 533.064 1054.25 591.753 1030.61C626.569 1016.93 653.923 993.711 683.268 972.979C724.549 943.54 771.301 917.418 825.016 910.37C878.732 903.321 938.912 918.663 967.261 956.809C992.627 991.638 987.654 1036.42 971.241 1074.56C954.828 1112.71 929.461 1148.37 915.535 1187.34C901.609 1226.32 901.113 1271.93 931.949 1303.85C955.822 1328.32 994.616 1339.93 1032.42 1341.59C1108.01 1344.49 1182.12 1310.07 1224.4 1257.83C1266.67 1205.59 1277.12 1138 1259.21 1076.64C1249.27 1043.05 1231.36 1011.54 1218.93 978.37C1206.49 945.199 1200.03 909.127 1213.95 876.371C1227.88 843.615 1265.68 816.249 1306.96 819.566C1355.21 823.297 1434.78 800.908 1428.32 710.104C1426.82 689.372 1416.38 669.885 1402.95 652.885C1330.34 562.495 1179.14 546.325 1078.17 477.082C1059.77 464.643 1007.55 436.863 986.659 428.156C971.241 421.522 893.154 393.327 796.169 474.179L795.671 474.594Z" fill="#FCFFA6" stroke="black" stroke-width="20" stroke-miterlimit="10"/>
<path d="M887.686 668.639C848.394 688.541 849.39 744.931 873.263 778.931C877.242 784.321 881.718 789.297 887.686 793.443C895.146 798.418 904.596 800.906 914.046 802.15C947.867 807.54 985.666 799.247 1009.04 776.857C1032.42 754.467 1038.39 717.979 1018.99 692.687C1007.05 677.346 987.159 667.395 966.27 663.249C945.381 659.102 920.512 652.054 887.686 668.639Z" fill="white" stroke="black" stroke-width="20" stroke-miterlimit="10"/>
<path d="M945.878 751.979C955.217 751.979 962.788 745.296 962.788 737.052C962.788 728.808 955.217 722.126 945.878 722.126C936.539 722.126 928.968 728.808 928.968 737.052C928.968 745.296 936.539 751.979 945.878 751.979Z" fill="black"/>
</svg>
