<svg width="1760" height="1760" viewBox="0 0 1760 1760" fill="none" xmlns="http://www.w3.org/2000/svg">
<g clip-path="url(#clip0_10_698)">
<path d="M1760 0H0V1760H1760V0Z" fill="white"/>
<path d="M621.628 579.825C594.688 580.538 564.327 569.487 541.663 581.964C533.966 586.242 528.834 593.015 524.131 599.432C510.019 619.039 495.908 638.646 481.368 658.253C476.237 665.382 471.106 672.869 469.823 681.068C465.547 705.666 483.08 724.917 504.888 741.672C539.526 768.765 575.446 806.196 576.728 845.41C578.011 887.475 542.518 924.55 456.994 924.55C400.12 924.55 336.833 961.269 420.219 1118.84C438.607 1153.77 454.428 1195.48 448.869 1233.27C447.158 1245.75 444.594 1259.65 452.719 1270.35C465.975 1287.1 495.481 1284.61 519.427 1287.81C552.782 1292.45 579.722 1311.34 607.517 1326.67C635.313 1342 669.95 1355.19 702.021 1345.92C739.652 1335.23 756.33 1297.44 754.619 1264.29C752.909 1231.13 737.942 1199.4 732.81 1166.61C727.679 1133.81 736.658 1095.67 770.013 1077.48C800.802 1060.73 844.42 1067.86 872.215 1087.82C900.01 1107.79 914.549 1138.09 921.391 1168.03C928.233 1197.98 928.661 1228.99 933.365 1259.29C936.358 1278.19 941.49 1297.8 955.174 1313.13C968.858 1328.45 992.377 1333.44 1015.04 1332.73C1062.08 1331.31 1095.43 1305.64 1146.32 1326.32C1208.75 1352.34 1264.34 1346.99 1290 1302.79C1304.54 1277.48 1299.84 1247.17 1288.72 1220.44C1277.6 1193.7 1260.92 1168.75 1251.94 1141.65C1236.55 1095.31 1249.38 1037.91 1298.55 1012.25C1321.22 1000.48 1350.3 995.136 1364.83 976.599C1375.53 962.696 1361.41 777.32 1275.03 748.801C1207.04 726.342 1149.74 780.886 1050.11 697.823C1008.2 662.888 1018.03 610.84 1042.41 566.279C1077.9 501.754 1086.45 451.133 1056.95 408.354C1016.32 349.533 935.93 347.394 877.346 367.358C747.349 411.563 773.862 521.005 710.574 560.932C689.621 574.122 673.19 578.756 630 579.825H621.628Z" fill="#9DC0EB" stroke="black" stroke-width="20" stroke-miterlimit="10"/>
<path d="M753.429 885C752.146 899.259 751.199 920.628 755.903 932.392C761.034 945.226 770.441 948.434 778.993 950.217C815.341 957.347 852.545 958.773 888.893 953.782C897.017 952.713 905.143 951.287 912.412 943.8C927.807 927.402 931.227 890.327 932.937 857.886C935.931 806.908 934.648 742.74 909.419 721.351C900.439 713.865 890.603 713.508 880.768 713.864C852.972 714.933 825.177 719.568 797.809 727.411C789.684 729.906 781.133 732.759 774.718 742.741C768.304 752.722 756.33 851.826 752.909 890.684L753.429 885Z" fill="white" stroke="black" stroke-width="20" stroke-miterlimit="10"/>
<path d="M849.555 863.944C858.765 863.944 866.231 851.175 866.231 835.424C866.231 819.674 858.765 806.906 849.555 806.906C840.344 806.906 832.877 819.674 832.877 835.424C832.877 851.175 840.344 863.944 849.555 863.944Z" fill="black"/>
</g>
<defs>
<clipPath id="clip0_10_698">
<rect width="1760" height="1760" fill="white"/>
</clipPath>
</defs>
</svg>
