<svg width="1760" height="1760" viewBox="0 0 1760 1760" fill="none" xmlns="http://www.w3.org/2000/svg">
<rect width="1760" height="1760" fill="white"/>
<path d="M532.683 565.04C487.355 539.312 420.327 581.924 416.469 627.752C414.058 656.696 430.936 684.032 445.402 710.563C467.584 752.371 483.497 796.591 491.694 842.017C495.552 862.117 496.999 885.032 480.122 899.504C471.442 907.142 459.386 911.161 448.296 915.583C405.379 933.673 371.142 967.039 360.052 1006.03C352.818 1032.57 356.194 1060.7 362.945 1087.24C378.858 1149.14 414.54 1209.04 471.924 1250.85C529.307 1292.66 609.355 1314.37 683.615 1300.7C749.678 1288.64 806.096 1250.85 872.641 1241.2C1001.39 1223.11 1131.11 1315.17 1255.04 1281.8C1328.33 1262.11 1378.97 1196.18 1369.8 1132.26C1364.02 1092.06 1337.98 1056.28 1315.79 1020.5C1293.61 984.727 1274.81 944.125 1284.93 904.327C1292.17 875.383 1314.35 850.459 1333.64 825.535C1391.5 749.959 1426.22 654.686 1390.54 570.266C1375.59 534.086 1341.35 498.71 1295.54 497.504C1253.11 496.298 1217.91 524.437 1176.44 530.467C1066.49 546.145 1030.32 438.008 955.582 415.496C817.669 374.09 797.899 542.93 754.5 574.688C722.674 598.003 651.789 632.173 532.2 564.638L532.683 565.04Z" fill="#FF6640" stroke="black" stroke-width="20" stroke-miterlimit="10"/>
<path d="M1010.08 846.843C1018.76 859.305 1010.08 889.053 991.27 909.153C961.855 940.107 905.918 954.177 858.179 942.117C810.44 930.057 774.275 893.073 772.346 854.079C772.346 852.069 772.346 849.657 773.792 847.647C775.721 845.235 779.579 844.03 782.954 842.824C862.037 821.518 997.056 827.949 1010.08 846.441V846.843Z" fill="#FAFCFF" stroke="black" stroke-width="20" stroke-miterlimit="10"/>
<path d="M892.898 901.918C900.888 901.918 907.364 896.517 907.364 889.857C907.364 883.196 900.888 877.797 892.898 877.797C884.909 877.797 878.433 883.196 878.433 889.857C878.433 896.517 884.909 901.918 892.898 901.918Z" fill="black" stroke="black" stroke-width="20" stroke-miterlimit="10"/>
</svg>
