<svg width="1760" height="1760" viewBox="0 0 1760 1760" fill="none" xmlns="http://www.w3.org/2000/svg">
<rect width="1760" height="1760" fill="white"/>
<path d="M682.879 404.26C603.249 419.146 591.668 506.854 568.02 520.936C553.059 529.787 534.238 533.407 521.208 544.27C498.525 562.777 502.868 593.354 505.281 619.505C512.52 694.74 493.699 771.987 451.712 838.773C429.995 872.971 402.004 905.962 397.661 944.183C389.939 1009.76 452.195 1067.29 463.294 1132.47C470.051 1171.5 457.985 1212.94 474.876 1249.55C489.837 1281.73 527.48 1305.47 568.502 1308.69C615.797 1312.71 662.611 1291.39 709.906 1297.43C745.136 1301.85 775.057 1321.16 805.461 1336.85C835.865 1352.54 872.06 1365.82 906.325 1357.37C941.555 1348.52 965.685 1318.35 1001.88 1311.91C1048.21 1303.46 1089.72 1337.26 1135.08 1348.12C1189.61 1361.4 1251.87 1339.27 1283.24 1299.44C1314.61 1259.61 1314.61 1206.1 1289.03 1163.85C1279.86 1148.97 1267.8 1134.88 1263.93 1118.39C1255.25 1081.78 1288.55 1049.19 1314.13 1018.61C1338.74 989.243 1358.53 955.85 1362.87 920.043C1367.21 884.236 1354.66 846.015 1322.81 821.474C1310.75 812.22 1296.75 804.978 1284.69 796.127C1243.66 765.952 1229.67 717.271 1229.67 671.808C1229.67 653.703 1231.6 635.598 1227.26 618.298C1222.91 600.998 1211.81 583.296 1192.99 574.847C1157.76 559.961 1117.22 582.491 1079.1 590.537C1049.18 596.975 1016.84 594.158 989.333 582.893C953.62 568.409 927.56 541.454 904.395 514.498C859.996 462.598 804.978 381.328 683.845 403.859L682.879 404.26Z" fill="#FFE0F6" stroke="black" stroke-width="20" stroke-miterlimit="10"/>
<path d="M761.066 924.873C751.897 949.817 743.691 979.991 764.443 1000.11C777.956 1012.58 799.191 1017.01 819.461 1019.42C845.039 1022.24 871.582 1023.04 896.195 1017.01C920.808 1010.97 943.49 996.487 952.177 976.37C961.346 955.047 953.624 931.712 943.972 910.791C926.116 871.765 901.021 833.947 861.447 807.795C857.104 804.979 852.278 802.164 846.97 800.957C834.905 798.14 821.874 804.98 815.118 813.429C808.361 821.877 771.2 895.905 760.583 924.873H761.066Z" fill="white" stroke="black" stroke-width="20" stroke-miterlimit="10"/>
<path d="M864.824 1019.82C878.95 1019.82 890.402 1011.9 890.402 1002.12C890.402 992.342 878.95 984.417 864.824 984.417C850.698 984.417 839.246 992.342 839.246 1002.12C839.246 1011.9 850.698 1019.82 864.824 1019.82Z" fill="#030005"/>
</svg>
