<svg width="1760" height="1760" viewBox="0 0 1760 1760" fill="none" xmlns="http://www.w3.org/2000/svg">
<rect width="1760" height="1760" fill="white"/>
<path d="M373.177 597.592C347.799 612.978 356.835 706.06 391.441 744.526C418.202 774.529 450.04 794.146 462.498 829.919C504.486 950.317 376.215 976.858 385.904 1056.1C393.287 1114.95 460.19 1168.42 427.431 1220.73C394.671 1273.04 438.043 1282.66 449.117 1282.66C543.244 1282.66 591.692 1149.95 712.12 1184.96C749.955 1196.11 766.104 1234.19 792.404 1259.58C818.705 1284.97 855.156 1307.66 895.299 1304.58C966.817 1298.81 994.04 1222.27 1054.95 1190.73C1135.69 1148.8 1256.12 1195.34 1329.02 1144.57C1379.32 1109.56 1380.24 1046.1 1376.55 991.474C1369.16 879.539 1361.78 767.605 1354.4 655.67C1352.55 629.898 1349.79 601.819 1329.02 582.586C1309.18 564.507 1277.81 558.736 1248.28 558.736C1218.75 558.736 1189.68 564.122 1160.15 563.737C1114.01 562.583 1069.71 547.582 1023.11 545.274C932.211 541.043 850.542 586.817 764.259 610.281C690.434 630.283 589.385 626.437 504.486 613.743C447.733 605.281 398.362 581.816 368.832 599.895L373.177 597.592Z" fill="#FFD58C" stroke="black" stroke-width="20" stroke-miterlimit="10"/>
<path d="M1096.02 827.996C1049.87 768.758 916.527 767.605 831.166 789.146C817.324 792.608 804.405 796.839 794.254 802.993C781.335 811.071 773.952 821.457 769.338 831.842C751.804 870.693 766.57 916.082 817.325 948.393C868.08 980.319 956.209 994.937 1019.42 976.858C1058.64 965.703 1084.48 944.547 1097.86 921.083C1111.24 897.619 1125.08 865.692 1096.02 827.996Z" fill="white" stroke="black" stroke-width="20" stroke-miterlimit="10"/>
<path d="M984.364 827.04C985.643 816.259 970.645 806.197 950.865 804.565C931.085 802.934 914.013 810.351 912.734 821.133C911.454 831.915 926.452 841.978 946.232 843.609C966.012 845.24 983.084 837.822 984.364 827.04Z" fill="black"/>
</svg>
