<svg width="1760" height="1760" viewBox="0 0 1760 1760" fill="none" xmlns="http://www.w3.org/2000/svg">
<rect width="1760" height="1760" fill="white"/>
<path d="M426.935 429.823C390.663 442.468 368.241 464.46 360.327 496.348C352.413 528.237 357.028 561.224 360.985 593.662C384.068 777.295 395.281 962.578 393.302 1147.31C393.302 1197.89 396.599 1257.82 446.722 1286.41C490.908 1311.15 551.583 1299.61 599.067 1279.26C646.551 1258.92 691.396 1230.88 744.156 1223.73C781.089 1218.79 820.66 1225.93 852.316 1242.43C878.037 1255.62 898.482 1274.86 920.905 1291.36C952.561 1315 990.81 1334.24 1032.36 1339.74C1073.91 1345.24 1120.73 1334.79 1148.43 1307.85C1174.15 1282.01 1179.43 1246.27 1177.45 1212.19C1175.47 1178.1 1168.22 1145.11 1173.49 1111.57C1178.77 1078.04 1199.87 1043.95 1237.47 1031.85C1269.12 1021.96 1304.07 1029.65 1337.71 1028C1373.98 1026.35 1409.6 1013.16 1432.02 989.519C1454.44 965.877 1461.7 932.339 1447.19 904.849C1418.17 850.969 1327.82 843.822 1279.67 800.938C1251.97 776.197 1241.42 741.558 1235.49 708.57C1224.94 646.443 1229.55 582.667 1217.68 520.54C1213.72 497.998 1205.81 474.356 1185.36 459.511C1165.58 445.216 1137.88 442.469 1111.5 440.269C918.266 423.775 496.843 405.081 426.935 430.372V429.823Z" fill="#FFF570" stroke="black" stroke-width="20" stroke-miterlimit="10"/>
<path d="M884.634 862.517C905.079 863.617 928.162 864.166 944.65 860.318C963.116 855.919 967.733 847.673 969.711 839.975C980.263 807.537 981.581 775.1 974.986 742.661C973.667 735.514 971.029 728.366 960.477 721.769C937.394 708.024 883.976 705.274 837.81 703.624C765.265 700.875 673.593 701.975 643.256 724.517C632.704 732.214 632.044 741.56 632.704 749.807C634.023 774.548 640.618 798.741 651.83 822.932C655.127 830.079 659.085 837.776 673.595 843.274C688.104 848.772 828.577 859.768 884.634 862.517Z" fill="white" stroke="black" stroke-width="20" stroke-miterlimit="10"/>
<path d="M806.149 799.838C817.076 799.838 825.935 792.454 825.935 783.345C825.935 774.235 817.076 766.85 806.149 766.85C795.222 766.85 786.364 774.235 786.364 783.345C786.364 792.454 795.222 799.838 806.149 799.838Z" fill="black" stroke="black" stroke-width="20" stroke-miterlimit="10"/>
</svg>
