<svg width="1760" height="1760" viewBox="0 0 1760 1760" fill="none" xmlns="http://www.w3.org/2000/svg">
<rect width="1760" height="1760" fill="white"/>
<path d="M420.939 613.075C364.513 615.583 382.946 715.622 383.698 751.372C385.579 826.009 458.18 834.162 484.888 851.41C507.835 866.149 516.11 887.474 505.201 908.798C468.336 980.299 383.321 902.84 359.622 991.275C354.356 1011.35 355.861 1032.04 357.742 1052.43C359.623 1072.5 361.88 1094.14 377.679 1109.19C396.488 1127.06 428.086 1130.83 456.675 1132.39C522.506 1136.47 588.711 1137.41 654.542 1135.53C694.792 1134.28 736.171 1132.08 773.789 1119.85C827.205 1102.92 877.988 1066.54 933.286 1077.2C966.389 1083.47 991.216 1105.43 1018.3 1122.67C1045.39 1139.92 1082.25 1153.41 1112.34 1140.23C1146.58 1125.5 1151.47 1087.24 1151.47 1055.25C1151.47 1023.26 1153.72 985.317 1186.07 968.069C1211.65 954.271 1245.13 960.229 1275.6 959.915C1316.23 959.915 1358.74 946.43 1383.56 919.774C1408.39 893.119 1412.15 851.41 1386.2 825.381C1355.35 794.648 1299.68 794.021 1256.04 777.714C1214.29 762.034 1181.94 729.42 1171.4 692.415C1163.88 666.7 1165.38 637.535 1144.69 617.778C1116.86 591.123 1063.44 619.347 1025.07 604.294C999.116 593.945 1017.55 557.254 1019.81 533.42C1022.06 509.587 1018.68 481.99 995.73 467.564C970.903 451.884 934.415 459.725 909.211 475.091C876.86 495.162 856.171 525.266 838.867 555.686C829.463 572.306 819.305 590.809 799.368 598.335C786.578 603.353 483.76 610.879 421.315 613.702L420.939 613.075Z" fill="#2462F2" stroke="black" stroke-width="20" stroke-miterlimit="10"/>
<path d="M967.515 934.514C951.716 938.905 915.604 929.497 891.529 915.071C854.288 892.178 839.241 854.233 855.416 824.755C871.592 794.963 918.613 776.147 966.387 779.596C969.02 779.596 972.029 780.223 974.286 781.164C977.295 782.732 978.801 785.241 979.929 787.75C1003.63 841.375 990.838 928.556 967.515 934.828V934.514Z" fill="#FAFCFF" stroke="black" stroke-width="20" stroke-miterlimit="10"/>
<path d="M954.728 893.12C960.961 893.12 966.013 888.909 966.013 883.713C966.013 878.517 960.961 874.304 954.728 874.304C948.495 874.304 943.443 878.517 943.443 883.713C943.443 888.909 948.495 893.12 954.728 893.12Z" fill="black" stroke="black" stroke-width="20" stroke-miterlimit="10"/>
</svg>
