<svg width="1760" height="1760" viewBox="0 0 1760 1760" fill="none" xmlns="http://www.w3.org/2000/svg">
<rect width="1760" height="1760" fill="white"/>
<path d="M380.262 589.721C372.534 600.593 373.017 613.88 373.983 626.362C376.881 663.808 380.262 701.255 392.337 737.09C404.411 772.926 427.111 807.553 462.369 830.906C498.11 854.663 543.029 864.728 585.049 879.626C627.069 894.524 668.605 917.878 682.612 954.116C692.755 981.899 684.061 1013.31 662.809 1036.26C619.823 1083.37 606.783 1088.2 483.621 1091.42C452.71 1092.22 409.724 1084.98 374.948 1129.27C328.582 1188.46 380.262 1300.8 393.302 1315.29C413.105 1337.84 451.261 1341.06 485.07 1342.27C699.034 1349.92 962.263 1345.89 1175.26 1328.98C1187.34 1328.18 1405.16 1181.21 1338.99 1168.32C1105.71 1122.42 1045.34 1028.61 1033.26 944.855C1026.02 892.913 1060.79 821.242 1107.16 786.212C1125.03 772.925 1145.8 761.651 1161.74 746.35C1199.41 709.307 1198.44 613.88 1197.96 565.562C1197.96 555.496 1074.8 607.84 1006.21 551.066C975.786 525.7 970.956 489.865 927.004 468.524C873.875 442.352 786.455 455.237 752.646 497.918C730.428 525.701 722.7 574.421 675.367 584.487C624.654 594.956 388.473 578.849 380.262 589.318V589.721Z" fill="white" stroke="black" stroke-width="20" stroke-miterlimit="10"/>
<path d="M755 693.679C747.272 699.316 732.357 710.915 729.459 718.566C726.561 727.021 731.391 733.464 736.704 738.698C758.438 761.246 783.071 781.379 811.085 799.095C817.363 803.122 823.642 806.746 832.336 807.149C851.173 807.954 871.941 793.459 889.328 779.769C916.376 758.429 947.77 729.438 940.525 706.487C938.11 698.434 931.349 692.797 924.104 687.965C904.301 673.47 883.05 660.988 859.867 649.713C853.105 646.492 845.86 643.271 836.683 644.076C827.506 644.881 770.031 682.73 748.297 698.433L755 693.679Z" fill="white" stroke="black" stroke-width="20" stroke-miterlimit="10"/>
<path d="M853.739 732.409C861.526 725.389 862.6 715.657 856.137 710.675C849.674 705.693 838.122 707.346 830.334 714.367C822.547 721.388 821.473 731.117 827.936 736.099C834.399 741.082 845.952 739.43 853.739 732.409Z" fill="black"/>
</svg>
