<svg width="1760" height="1760" viewBox="0 0 1760 1760" fill="none" xmlns="http://www.w3.org/2000/svg">
<rect width="1760" height="1760" fill="white"/>
<path d="M580.805 471.42C534.493 465.151 575.264 530.488 551.514 569.427C541.618 585.596 517.077 609.356 503.223 623.215C465.619 661.494 484.618 713.631 463.243 759.83C445.431 798.768 410.598 796.459 367.453 855.197C267.703 990.822 461.265 1122.82 604.161 1134.04C626.723 1135.69 615.639 1258.44 758.139 1285.17C883.222 1308.6 920.825 1217.85 979.409 1208.61C1021.37 1202.01 1076.39 1254.48 1149.62 1220.16C1202.66 1195.41 1191.18 1127.44 1227.99 1087.18C1242.24 1071.67 1262.82 1061.11 1278.26 1046.59C1323.78 1002.7 1310.72 936.044 1332.89 880.936C1344.37 852.227 1364.95 827.148 1383.55 801.409C1402.16 775.669 1418.78 747.62 1420.76 717.591C1424.32 659.183 1387.91 627.174 1322.2 619.585C1275.89 614.305 1229.18 630.475 1182.47 628.165C1171.78 627.505 1161.1 627.175 1151.2 630.475C1131.41 636.745 1091.03 886.546 855.909 886.546C728.055 886.546 680.951 787.879 701.139 715.942C721.326 644.004 775.951 621.896 772.784 564.808C769.222 503.1 683.326 485.609 581.202 472.08L580.805 471.42Z" fill="#442FBD" stroke="black" stroke-width="20" stroke-miterlimit="10"/>
<path d="M916.472 1023.82C920.826 1038.01 906.972 1069.03 886.785 1088.83C855.514 1119.85 806.826 1130.74 770.41 1114.57C733.993 1098.4 713.014 1056.16 720.535 1014.58C720.93 1012.27 721.327 1009.63 722.911 1007.65C724.89 1005.01 728.451 1004.02 731.618 1003.36C800.888 986.202 909.742 1003.03 916.076 1023.82H916.472Z" fill="#FAFCFF" stroke="black" stroke-width="20" stroke-miterlimit="10"/>
<path d="M818.307 1069.36C824.865 1069.36 830.183 1064.93 830.183 1059.46C830.183 1053.99 824.865 1049.56 818.307 1049.56C811.749 1049.56 806.433 1053.99 806.433 1059.46C806.433 1064.93 811.749 1069.36 818.307 1069.36Z" fill="black" stroke="black" stroke-width="20" stroke-miterlimit="10"/>
</svg>
