<svg width="1760" height="1760" viewBox="0 0 1760 1760" fill="none" xmlns="http://www.w3.org/2000/svg">
<rect width="1760" height="1760" fill="white"/>
<path d="M705.184 550.717C640.937 490.977 597.938 556.485 583.112 578.321C554.942 620.757 535.173 667.315 529.243 715.519C525.783 741.475 526.277 768.255 517.875 793.387C504.532 831.704 471.42 862.192 441.273 892.68C411.126 923.169 380.486 956.953 375.543 996.505C370.601 1036.06 399.759 1081.38 447.203 1085.5C499.096 1090.03 543.082 1045.95 594.974 1049.65C609.801 1050.48 623.638 1055.42 635.993 1062.01C728.411 1109.4 730.388 1223.93 806.003 1288.62C855.918 1331.47 937.464 1346.3 1004.18 1324.87C1070.9 1303.45 1119.33 1246.59 1121.81 1186.85C1122.79 1165.43 1118.35 1143.59 1119.34 1122.17C1120.32 1100.74 1128.23 1077.67 1148 1064.07C1204.83 1025.76 1301.2 1089.21 1359.52 1052.13C1397.58 1027.41 1388.68 975.905 1360.02 942.945C1331.35 909.985 1289.84 886.912 1264.63 852.303C1216.69 786.383 1242.39 700.686 1282.92 631.47C1323.44 562.253 1377.81 495.096 1384.73 418.463C1386.7 394.567 1379.78 365.726 1353.1 357.898C1336.79 353.366 1319.49 357.899 1302.69 361.607C1254.25 371.084 1200.88 364.491 1150.96 361.607C1094.62 358.311 1061.51 360.371 1028.4 391.683C968.105 447.716 975.022 549.892 885.076 591.093C834.172 614.577 769.431 612.105 704.69 551.128L705.184 550.717Z" fill="#FF3B83" stroke="black" stroke-width="20" stroke-miterlimit="10"/>
<path d="M837.636 824.289C839.613 806.16 842.082 787.209 853.943 771.964C865.804 756.72 890.02 746.009 912.754 751.777C948.338 761.253 951.799 799.569 973.05 823.877C996.772 851.07 1042.24 859.722 1075.35 880.322C1082.77 884.854 1089.68 890.21 1091.66 897.214C1096.11 910.81 1081.28 922.346 1065.47 928.114C1049.65 933.882 1031.86 937.178 1020.5 947.066C1003.69 961.898 1008.63 984.558 1008.14 1004.75C1007.65 1024.93 995.289 1049.24 969.095 1048.42C936.477 1047.18 925.112 1008.04 893.482 1001.45C869.76 996.507 849.495 1011.75 832.197 1024.52C814.9 1037.3 788.213 1048.42 768.445 1036.47C748.182 1024.11 756.583 999.803 770.915 984.146C785.247 968.49 804.029 952.834 800.075 933.469C794.639 909.573 754.113 893.505 756.089 869.609C757.078 854.777 774.869 844.889 792.166 839.945C809.464 835.001 828.74 841.652 837.636 833V824.289Z" fill="white" stroke="black" stroke-width="20" stroke-miterlimit="10"/>
<path d="M943.94 923.531C949.452 909.473 940.67 894.465 924.326 890.011C907.981 885.558 890.262 893.345 884.75 907.403C879.238 921.462 888.021 936.467 904.365 940.921C920.71 945.375 938.428 937.59 943.94 923.531Z" fill="black"/>
</svg>
