<svg width="1760" height="1760" viewBox="0 0 1760 1760" fill="none" xmlns="http://www.w3.org/2000/svg">
<g clip-path="url(#clip0_10_123)">
<path d="M1760 0H0V1760H1760V0Z" fill="white"/>
<path d="M625.865 400.685C602.896 411.691 552.172 438.011 532.074 453.802C511.976 469.594 499.056 496.871 507.669 520.798C513.411 536.111 526.332 547.117 533.51 561.952C556 610.762 500.491 659.573 491.399 712.212C480.393 775.379 536.382 828.497 586.627 867.737C636.872 906.977 693.337 959.616 682.809 1022.78C677.067 1058.19 651.706 1086.43 632.565 1116.1C588.54 1185.49 578.97 1283.59 631.129 1347.23C689.988 1419.01 807.225 1419.49 882.832 1365.89C958.439 1312.3 995.765 1218.5 1006.77 1126.63C1012.51 1079.73 1012.03 1032.35 1024.48 986.893C1036.92 941.432 1065.63 897.406 1110.13 882.093C1187.65 854.817 1280.01 923.247 1351.31 882.093C1390.55 859.602 1407.3 809.834 1403.47 764.373C1399.64 718.912 1378.58 677.758 1358.01 637.082C1332.65 586.836 1292.93 528.454 1236.94 535.154C1209.67 538.503 1187.17 557.166 1160.38 563.387C1122.1 572.001 1082.38 552.381 1052.71 526.061C1023.04 499.742 1000.55 466.723 971.36 440.403C897.188 372.93 803.232 315.974 619 404.025L625.865 400.685Z" fill="#DAD4FF" stroke="black" stroke-width="20" stroke-miterlimit="10"/>
<path d="M794.024 527.104C674.871 563.473 638.787 739.968 686.639 803.135C766.553 907.935 878.048 721.305 894.797 642.825C917.287 538.504 837.852 513.62 789.043 528.455L794.024 527.104Z" fill="white" stroke="black" stroke-width="20" stroke-miterlimit="10"/>
<path d="M795.63 699.801C803.825 684.104 803.062 667.513 793.925 662.742C784.789 657.972 770.739 666.828 762.543 682.525C754.348 698.222 755.111 714.814 764.247 719.585C773.384 724.355 787.435 715.497 795.63 699.801Z" fill="black"/>
</g>
<defs>
<clipPath id="clip0_10_123">
<rect width="1760" height="1760" fill="white"/>
</clipPath>
</defs>
</svg>
