<svg width="1760" height="1760" viewBox="0 0 1760 1760" fill="none" xmlns="http://www.w3.org/2000/svg">
<rect width="1760" height="1760" fill="white"/>
<path d="M767.944 607.573C741.508 611.908 695.135 613.715 690.368 617.328C679.1 625.276 674.335 668.269 621.896 732.578C550.389 820.009 521.786 896.602 521.786 949.35C521.786 1017.27 625.362 1070.38 652.664 1119.52C673.9 1157.81 659.601 1183.1 633.165 1194.3C600.661 1208.39 560.789 1197.92 525.685 1189.61C394.372 1158.18 420.376 1273.79 432.511 1299.8C454.613 1346.04 520.919 1364.83 580.291 1369.53C718.972 1380.01 861.552 1343.15 996.766 1371.34C1048.34 1382.17 1097.31 1402.41 1150.62 1403.85C1203.92 1405.3 1263.73 1379.28 1268.93 1335.21C1271.09 1315.7 1262.43 1296.55 1255.06 1277.76C1240.76 1240.91 1231.66 1201.53 1237.29 1162.87C1243.36 1119.16 1267.19 1079.05 1286.26 1037.87C1328.73 946.461 1348.24 847.106 1334.8 749.92C1333.5 740.888 1331.77 731.133 1325.27 723.546C1318.77 715.959 1308.36 711.263 1297.53 707.65C1251.59 692.837 1200.45 696.811 1151.48 694.643C1102.51 692.475 1048.34 681.275 1021.47 646.953C982.031 597.095 1059.17 461.974 991.132 397.665C954.728 363.342 910.525 366.594 884.523 396.581C858.52 426.568 863.285 480.761 866.319 511.47C869.786 548.321 858.52 593.121 768.378 607.573H767.944Z" fill="#FF82C1" stroke="black" stroke-width="20" stroke-miterlimit="10"/>
<path d="M806.949 837.711C797.848 837.711 790.48 843.131 790.48 850.718C790.48 872.396 791.349 914.305 800.45 937.427C813.451 969.582 841.186 998.846 880.19 1008.6C894.058 1012.21 908.361 1012.94 922.662 1012.94C949.098 1012.57 976.4 1007.88 997.202 994.51C1017.14 981.865 1030.14 962.717 1037.07 942.846C1042.71 926.588 1046.18 871.673 1047.48 852.164C1047.48 848.19 1044.01 844.937 1038.81 844.576L806.949 837.711Z" fill="white" stroke="black" stroke-width="20" stroke-miterlimit="10"/>
<path d="M902.29 890.462C914.257 890.462 923.959 882.375 923.959 872.398C923.959 862.421 914.257 854.333 902.29 854.333C890.323 854.333 880.621 862.421 880.621 872.398C880.621 882.375 890.323 890.462 902.29 890.462Z" fill="black" stroke="black" stroke-width="20" stroke-miterlimit="10"/>
</svg>
