<svg width="1760" height="1760" viewBox="0 0 1760 1760" fill="none" xmlns="http://www.w3.org/2000/svg">
<rect width="1760" height="1760" fill="white"/>
<path d="M888.271 396.579C833.869 413.987 753.089 539.511 724.514 581.657C682.201 643.503 311.273 635.715 348.64 774.981C360.73 818.96 557.459 866.604 574.494 909.208C591.529 951.813 571.747 970.596 525.037 1122.69C503.056 1194.61 488.769 1276.16 510.749 1320.14C526.136 1351.29 566.251 1372.82 606.916 1371.44C653.625 1370.07 694.29 1341.21 717.37 1306.85C740.45 1272.49 749.792 1233.55 761.332 1195.53C772.872 1157.51 787.709 1119.02 819.581 1090.16C827.824 1082.83 837.166 1075.96 848.706 1073.21C872.335 1067.26 897.613 1079.63 914.099 1095.2C977.844 1156.13 999.825 1436.04 1183.37 1329.76C1307.56 1257.83 1226.23 1135.97 1187.76 1074.13C1166.88 1040.23 1154.24 996.249 1180.07 964.639C1224.03 911.498 1335.03 936.694 1388.89 889.967C1429.55 854.692 1415.26 793.306 1375.15 757.573C1335.03 721.84 1277.88 704.431 1223.48 685.649C1169.08 666.866 1113.03 643.044 1083.9 600.897C1064.67 572.952 1059.17 540.427 1053.13 508.817C1047.08 477.208 1039.39 444.223 1016.86 418.569C994.329 392.915 940.476 379.629 888.271 396.579Z" fill="url(#paint0_linear_82_171)" stroke="black" stroke-width="20" stroke-miterlimit="10"/>
<path d="M978.944 787.349C992.133 838.658 958.612 892.715 907.506 923.867C894.867 931.197 881.679 938.068 866.292 940.817C837.717 946.314 807.493 938.984 782.765 926.157C738.803 903.251 709.129 862.938 703.634 820.333C703.634 815.752 703.084 810.713 706.931 807.506C709.678 805.215 712.975 804.758 716.822 803.842C784.413 789.64 852.554 779.103 921.245 771.773C942.676 769.483 973.999 768.566 978.944 787.349Z" fill="white" stroke="black" stroke-width="20" stroke-miterlimit="10"/>
<path d="M843.213 874.85C854.442 874.85 863.546 866.646 863.546 856.526C863.546 846.406 854.442 838.202 843.213 838.202C831.984 838.202 822.881 846.406 822.881 856.526C822.881 866.646 831.984 874.85 843.213 874.85Z" fill="black"/>
<defs>
<linearGradient id="paint0_linear_82_171" x1="345.893" y1="879.431" x2="1413.62" y2="879.431" gradientUnits="userSpaceOnUse">
<stop stop-color="#40FF00"/>
<stop offset="1" stop-color="#7AFF70"/>
</linearGradient>
</defs>
</svg>
