<svg width="1760" height="1760" viewBox="0 0 1760 1760" fill="none" xmlns="http://www.w3.org/2000/svg">
<rect width="1760" height="1760" fill="white"/>
<path d="M588.446 680.987C556.652 679.038 513.17 664.228 481.376 666.176C461.739 667.346 441.167 670.463 425.27 679.818C409.373 689.172 397.685 706.323 402.828 722.303C407.036 735.166 419.66 744.521 431.816 753.096C459.401 772.975 486.052 794.802 500.546 822.477C515.04 850.151 515.04 884.842 492.598 908.618C451.453 951.494 355.137 942.529 327.552 992.42C315.396 1013.86 321.941 1039.58 332.695 1061.41C343.449 1083.24 359.813 1103.51 367.761 1126.11C380.853 1163.14 372.437 1202.9 379.45 1241.1C386.463 1279.3 421.062 1320.22 466.882 1316.33C499.143 1313.6 522.521 1290.21 540.288 1267.99C572.549 1228.24 599.667 1185.36 621.174 1140.93C637.071 1107.79 650.163 1073.1 675.878 1044.26C701.593 1015.42 742.27 993.199 784.818 997.877C818.481 1001.77 846.534 1021.65 864.301 1045.82C882.068 1069.99 890.017 1098.05 897.03 1125.33C910.122 1176.4 919.94 1229.01 951.734 1274.23C983.527 1319.44 1041.97 1355.69 1104.16 1349.46C1156.52 1344 1200 1308.53 1218.71 1267.21C1237.41 1225.9 1233.67 1179.51 1221.51 1136.64C1212.16 1103.12 1198.13 1064.53 1221.51 1036.08C1254.24 995.928 1341.67 1001.39 1362.71 955.781C1379.08 921.091 1342.61 886.01 1314.09 857.556C1308.01 851.71 1302.4 845.473 1300.06 838.068C1294.45 820.138 1311.28 803.377 1326.24 789.345C1353.83 763.62 1379.54 725.422 1357.57 696.189C1336.06 667.735 1286.97 669.295 1246.76 665.007C1178.03 657.601 1105.56 635.384 1069.09 573.409C1048.98 539.498 1036.83 412.431 952.201 410.092C807.728 406.194 798.844 527.025 758.635 589.779C733.854 628.757 703.464 688.003 588.913 681.377L588.446 680.987Z" fill="url(#paint0_linear_82_172)" stroke="black" stroke-width="20" stroke-miterlimit="10"/>
<path d="M822.219 782.328C811.465 811.952 802.114 847.422 826.427 870.809C841.856 885.62 866.636 890.687 890.014 893.415C919.469 896.923 950.328 897.704 978.381 890.298C1006.43 882.892 1033.08 865.741 1042.9 842.355C1053.66 817.409 1044.77 789.734 1033.55 765.178C1012.98 719.184 983.992 674.36 938.171 643.568C933.028 640.06 927.885 636.942 921.807 635.773C907.781 632.655 892.819 640.449 885.338 650.583C877.857 660.718 834.843 747.639 822.219 781.94V782.328Z" fill="white" stroke="black" stroke-width="20" stroke-miterlimit="10"/>
<path d="M929.289 823.646C945.299 823.646 958.277 814.223 958.277 802.599C958.277 790.974 945.299 781.55 929.289 781.55C913.279 781.55 900.301 790.974 900.301 802.599C900.301 814.223 913.279 823.646 929.289 823.646Z" fill="#030005"/>
<defs>
<linearGradient id="paint0_linear_82_172" x1="488.39" y1="879.775" x2="1366.45" y2="879.775" gradientUnits="userSpaceOnUse">
<stop stop-color="#E3F8FF"/>
<stop offset="0.43" stop-color="#9FD4FF"/>
<stop offset="1" stop-color="#B399FF"/>
</linearGradient>
</defs>
</svg>
