<svg width="1760" height="1760" viewBox="0 0 1760 1760" fill="none" xmlns="http://www.w3.org/2000/svg">
<rect width="1760" height="1760" fill="white"/>
<path d="M828.19 443.633C810.744 460.67 800.775 482.277 782.333 498.483C753.423 523.83 709.061 536.296 684.138 564.553C666.692 584.498 661.21 610.262 647.751 632.285C629.807 661.373 598.903 682.981 567.003 702.096C551.052 711.653 533.607 722.041 528.124 737.832C520.647 759.024 538.591 780.632 539.588 802.655C541.083 845.455 480.771 878.698 488.248 920.667C491.737 941.444 511.176 957.234 523.638 975.518C541.083 1000.87 545.569 1034.52 527.127 1059.46C499.712 1097.27 433.418 1105.58 405.505 1143.39C390.053 1164.17 389.555 1189.93 392.546 1214.45C397.032 1257.25 411.985 1300.88 447.873 1331.63C483.762 1362.38 544.572 1375.68 587.937 1352.82C619.838 1335.79 635.789 1304.62 660.711 1280.94C715.042 1229.41 817.723 1220.27 884.016 1260.57C905.45 1273.87 922.895 1290.91 943.332 1305.04C975.731 1327.06 1018.6 1341.19 1059.47 1333.29C1100.34 1325.4 1134.24 1291.32 1125.76 1257.25C1123.27 1247.28 1117.79 1238.14 1113.3 1228.58C1100.34 1201.57 1096.85 1171.23 1107.82 1143.81C1118.79 1116.38 1146.2 1092.7 1180.1 1086.47C1224.96 1078.16 1271.31 1099.35 1316.67 1092.7C1369.51 1084.39 1405.39 1033.28 1389.94 990.062C1379.97 962.221 1353.56 940.613 1332.62 917.343C1306.2 888.256 1286.76 854.182 1276.79 818.861C1266.33 782.294 1264.83 744.064 1249.88 708.744C1229.94 662.619 1187.57 626.052 1162.65 581.59C1132.24 527.57 1126.76 461.085 1075.92 418.7C1036.54 385.873 920.901 353.462 829.187 443.633H828.19Z" fill="#FF3B83" stroke="black" stroke-width="20" stroke-miterlimit="10"/>
<path d="M832.674 798.916C816.724 829.25 801.272 865.817 823.204 893.242C837.16 910.695 862.581 918.591 887.005 923.993C917.909 930.641 949.81 935.212 981.212 930.225C1012.61 925.239 1042.52 910.279 1056.98 886.593C1071.93 861.246 1066.95 831.327 1058.97 803.902C1044.52 753.207 1020.59 702.512 976.726 665.113C971.742 660.958 966.757 657.218 960.277 654.725C945.822 649.739 928.875 656.387 919.404 666.36C909.934 676.333 851.117 764.011 832.674 798.916Z" fill="white" stroke="black" stroke-width="20" stroke-miterlimit="10"/>
<path d="M973.94 834.323C975.723 822.02 963.211 810.64 945.993 808.906C928.775 807.171 913.372 815.739 911.588 828.042C909.805 840.345 922.317 851.725 939.535 853.459C956.753 855.194 972.157 846.626 973.94 834.323Z" fill="#030005"/>
</svg>
