<svg width="1760" height="1760" viewBox="0 0 1760 1760" fill="none" xmlns="http://www.w3.org/2000/svg">
<rect width="1760" height="1760" fill="white"/>
<path d="M693.958 575.275C670.776 585.398 665.993 610.245 657.53 630.798C645.019 660.246 619.998 685.4 587.617 701.045C561.86 713.315 529.847 720.984 515.128 742.764C502.985 760.249 506.297 782.028 511.817 801.967C522.12 840.312 539.414 877.736 562.963 912.092C576.946 932.338 593.136 952.277 599.392 975.283C605.647 998.29 599.392 1025.28 576.21 1038.47C537.574 1060.25 484.219 1030.5 438.96 1040.32C399.956 1048.9 377.878 1087.86 387.077 1120.68C396.276 1153.51 430.129 1178.66 467.661 1190.62C505.193 1202.59 546.773 1203.2 587.249 1201.36C646.123 1198.91 706.469 1191.55 762.767 1205.35C819.801 1218.85 866.9 1251.98 920.623 1272.84C974.345 1293.7 1045.73 1299.22 1086.57 1263.33C1121.16 1232.96 1120.43 1184.49 1147.66 1149.52C1189.6 1096.14 1258.04 1109.03 1297.78 1054.43C1315.45 1030.5 1391.98 827.121 1371.75 788.163C1339.73 727.426 1223.46 741.229 1209.84 675.891C1202.11 637.853 1215.73 599.509 1226.77 562.085C1229.71 551.962 1232.66 541.225 1229.71 531.102C1223.82 510.857 1197.7 500.12 1174.52 491.838C1131.1 476.807 1082.16 461.469 1038.37 475.58C1004.15 486.623 980.969 513.004 955.212 535.09C911.792 572.208 854.022 629.571 795.516 611.779C790.732 610.245 718.98 564.539 693.958 575.275Z" fill="#DAD4FF" stroke="black" stroke-width="20" stroke-miterlimit="10"/>
<path d="M1187.03 822.827C1229.34 825.281 1265.04 853.809 1279.02 886.939C1282.33 894.914 1284.91 903.504 1284.54 912.093C1283.8 928.351 1272.39 943.075 1257.68 954.118C1231.92 973.444 1195.12 982.032 1161.27 976.818C1157.59 976.204 1153.91 975.285 1152.07 972.831C1150.97 970.99 1150.97 968.843 1150.97 967.002C1152.44 928.351 1156.85 889.699 1164.21 851.355C1166.42 839.392 1174.09 822.391 1189.54 823.004L1187.03 822.827Z" fill="white" stroke="black" stroke-width="20" stroke-miterlimit="10"/>
<path d="M1229.44 912.982C1231.53 906.961 1226.89 900.552 1219.08 898.668C1211.27 896.785 1203.25 900.139 1201.16 906.16C1199.07 912.181 1203.7 918.59 1211.51 920.473C1219.32 922.357 1227.35 919.003 1229.44 912.982Z" fill="black"/>
</svg>
