<svg width="1760" height="1760" viewBox="0 0 1760 1760" fill="none" xmlns="http://www.w3.org/2000/svg">
<rect width="1760" height="1760" fill="white"/>
<path d="M1024.67 561.97C1035.52 526.19 1024.67 486.268 1003.44 453.878C982.208 421.488 938.385 397.384 894.563 401.903C833.573 407.929 797.882 461.786 780.715 510.748C763.547 559.709 752.253 614.698 705.72 647.841C679.517 666.296 642.923 677.595 631.628 704.712C623.045 725.426 633.436 748.023 638.405 769.868C648.344 812.803 637.502 856.869 625.756 899.428C614.461 940.857 602.263 982.286 589.161 1023.72C577.867 1060.25 563.862 1099.04 528.171 1122.77C504.679 1138.21 474.41 1144.99 448.207 1157.04C409.354 1174.74 378.633 1204.87 363.724 1239.9C355.592 1259.48 352.43 1281.33 361.465 1300.54C374.115 1326.9 407.547 1342.72 440.526 1348.37C473.506 1354.02 508.293 1350.63 542.176 1349.87C733.278 1345.73 927.542 1419.93 1110.06 1373.6C1130.39 1368.33 1151.17 1361.17 1164.27 1347.61C1176.92 1334.43 1180.99 1317.48 1183.7 1300.91C1193.19 1248.56 1195.45 1194.33 1222.1 1146.5C1245.59 1104.31 1286.25 1070.42 1314.72 1030.49C1410.49 894.909 1457.48 693.036 1308.39 652.36C1230.69 631.269 1226.17 686.634 1129.94 689.27C1097.86 690.023 994.858 659.517 1023.77 562.347L1024.67 561.97Z" fill="#FF6640" stroke="black" stroke-width="20" stroke-miterlimit="10"/>
<path d="M814.598 890.767C800.593 912.235 786.588 938.598 805.111 959.689C816.857 972.871 838.542 980.028 859.776 984.924C886.431 991.326 913.989 995.468 941.096 993.208C968.203 990.949 994.406 981.157 1007.06 964.208C1020.61 946.13 1016.54 923.909 1010.22 903.195C998.472 865.156 978.593 827.117 941.096 797.74C937.03 794.727 932.512 791.337 927.091 789.454C914.893 785.311 899.984 789.454 891.4 796.61C882.817 803.766 830.862 865.532 814.147 890.39L814.598 890.767Z" fill="white" stroke="black" stroke-width="20" stroke-miterlimit="10"/>
<path d="M935.694 922.43C937.428 913.393 926.851 904.468 912.068 902.496C897.285 900.525 883.895 906.252 882.161 915.29C880.427 924.327 891.004 933.252 905.787 935.223C920.57 937.195 933.96 931.467 935.694 922.43Z" fill="black"/>
</svg>
