<svg width="1760" height="1760" viewBox="0 0 1760 1760" fill="none" xmlns="http://www.w3.org/2000/svg">
<rect width="1760" height="1760" fill="white"/>
<path d="M972.335 482.791C969.856 448.703 943.01 416.681 905.424 403.253C867.839 389.824 821.58 395.333 790.189 417.37C762.517 436.997 747.648 466.608 741.452 496.564C735.257 526.52 737.322 556.821 736.496 587.121C736.083 617.766 730.714 652.887 700.15 670.103C660.912 692.828 598.132 673.891 564.677 702.469C545.264 718.653 544.026 744.132 541.96 766.858C535.352 847.429 508.092 926.968 463.072 998.243C431.269 1048.51 389.553 1096.03 372.619 1151.12C355.685 1206.21 370.141 1274.05 428.791 1303.31C449.855 1313.99 474.637 1318.46 499.006 1320.18C515.94 1321.56 533.287 1321.91 550.221 1318.81C607.219 1308.48 644.391 1262.68 665.869 1217.58C687.346 1172.47 700.15 1123.23 735.67 1084.67C782.755 1033.36 869.078 1009.26 943.836 1026.82C969.443 1032.68 993.399 1043 1016.94 1052.99C1054.53 1068.83 1092.53 1083.98 1132.59 1093.96C1178.85 1105.67 1231.3 1110.15 1274.67 1091.9C1335.8 1066.42 1350.67 977.239 1363.88 921.458C1401.88 757.905 1499.77 684.564 1118.96 624.652C1064.03 616.044 1047.92 601.927 1028.92 590.22C992.16 567.839 976.052 527.898 972.748 482.791H972.335Z" fill="#2667FF" stroke="black" stroke-width="20" stroke-miterlimit="10"/>
<path d="M1092.52 986.88C1107.81 992.733 1125.57 998.93 1140.85 996.865C1157.78 994.799 1166.04 983.781 1171.83 973.795C1197.85 931.099 1217.26 885.649 1230.06 839.165C1232.95 828.835 1235.43 818.162 1230.06 807.143C1219.32 783.041 1179.67 767.201 1144.15 754.806C1088.81 735.523 1016.53 716.931 979.769 741.377C966.965 749.986 961.596 762.381 957.465 774.777C945.074 809.553 936.401 845.019 931.857 881.517C930.618 892.191 929.792 903.898 937.64 914.572C945.487 925.246 1050.4 971.04 1092.11 987.224L1092.52 986.88Z" fill="white" stroke="black" stroke-width="20" stroke-miterlimit="10"/>
<path d="M1110.37 858.938C1114.98 847.387 1104.32 834.04 1086.56 829.126C1068.81 824.212 1050.69 829.591 1046.09 841.141C1041.49 852.692 1052.15 866.039 1069.9 870.953C1087.65 875.868 1105.77 870.488 1110.37 858.938Z" fill="black"/>
</svg>
