<svg width="1760" height="1760" viewBox="0 0 1760 1760" fill="none" xmlns="http://www.w3.org/2000/svg">
<rect width="1760" height="1760" fill="white"/>
<path d="M887.485 439.711C846.373 443.809 803.025 480.69 781.129 509.749C759.232 538.807 741.803 572.335 709.182 593.57C686.838 608.099 658.238 616.296 642.15 635.668C629.638 650.942 626.51 669.942 623.828 688.196C607.294 798.096 578.694 906.877 538.475 1012.31C532.665 1027.58 525.963 1043.6 512.556 1054.78C493.788 1070.05 466.081 1073.4 443.29 1083.83C393.687 1106.19 372.684 1156.48 367.322 1203.42C364.193 1230.24 365.534 1259.3 383.409 1282.03C413.35 1320.4 477.253 1326.73 531.772 1322.26C553.669 1320.4 575.566 1317.42 595.228 1309.59C639.916 1292.46 667.622 1254.46 686.391 1216.09C726.163 1133.38 733.76 1042.48 760.126 956.425C771.298 919.916 786.938 882.663 820.454 857.33C853.97 831.997 908.935 823.057 943.791 846.899C975.073 868.134 979.542 905.76 979.542 939.289C979.542 972.817 978.648 1009.33 1003.23 1035.78C1032.27 1067.07 1095.28 1070.8 1129.25 1042.86C1157.85 1019.39 1163.21 982.504 1161.42 948.975C1160.08 921.78 1155.16 894.957 1147.57 868.879C1139.52 842.801 1128.8 815.233 1138.63 789.527C1154.72 748.92 1223.98 734.763 1266.88 758.606C1280.29 766.057 1291.46 776.488 1306.65 781.332C1340.17 792.135 1379.05 770.155 1389.33 741.469C1399.61 712.784 1388.43 681.863 1370.56 655.785C1352.68 629.707 1328.55 607.355 1311.12 581.277C1299.95 564.885 1289.67 545.885 1269.12 537.689C1249.01 529.866 1225.32 535.454 1202.98 535.454C1151.14 535.827 1106.45 507.886 1063.11 484.043C1019.76 460.2 979.541 429.652 887.932 438.593L887.485 439.711Z" fill="#3EC790" stroke="black" stroke-width="20" stroke-miterlimit="10"/>
<path d="M475.915 1123.7C437.037 1144.19 437.931 1201.93 461.615 1236.95C465.637 1242.54 470.106 1247.75 475.915 1251.48C483.512 1256.69 492.449 1258.93 501.834 1260.42C535.349 1266.01 572.44 1257.44 596.125 1234.34C619.809 1211.24 625.618 1173.99 605.956 1147.91C593.89 1131.89 574.228 1122.21 553.672 1117.74C533.115 1113.27 508.09 1106.19 475.915 1122.95V1123.7Z" fill="white" stroke="black" stroke-width="20" stroke-miterlimit="10"/>
<path d="M533.56 1209.01C542.691 1209.01 550.094 1202.17 550.094 1193.74C550.094 1185.3 542.691 1178.46 533.56 1178.46C524.428 1178.46 517.025 1185.3 517.025 1193.74C517.025 1202.17 524.428 1209.01 533.56 1209.01Z" fill="black"/>
</svg>
