<svg width="1760" height="1760" viewBox="0 0 1760 1760" fill="none" xmlns="http://www.w3.org/2000/svg">
<g clip-path="url(#clip0_10_710)">
<path d="M1760 0H0V1760H1760V0Z" fill="white"/>
<path d="M771.472 641.226C699.205 661.092 716.286 692.516 725.921 721.05C733.367 743.804 735.119 771.615 714.096 788.23C688.255 808.456 646.647 799.427 613.798 788.23C580.95 777.033 540.656 766.198 512.625 783.896C496.858 794.009 489.85 810.624 487.222 826.877C480.652 866.969 496.857 907.422 502.989 947.514C509.121 987.605 502.551 1034.56 463.133 1058.76C449.994 1067.07 433.788 1072.12 420.211 1079.71C379.479 1103.19 366.777 1148.33 368.091 1189.51C368.967 1216.96 376.413 1246.22 400.064 1265C412.765 1275.11 429.408 1281.25 446.49 1284.86C506.931 1297.5 576.132 1275.47 610.294 1232.13C651.465 1180.48 646.209 1104.99 705.336 1067.07C730.301 1051.17 764.026 1045.03 794.685 1050.81C821.401 1055.87 844.614 1069.6 871.769 1074.29C903.742 1080.07 938.342 1071.76 961.993 1052.98C984.33 1035.28 995.28 1010 1006.67 986.161C1031.19 935.595 1068.42 881.777 1132.37 867.33C1197.63 852.521 1272.96 883.583 1332.53 857.217C1374.13 838.435 1392.53 797.259 1399.97 758.612C1405.23 732.607 1406.54 705.157 1396.47 680.235C1379.83 638.699 1334.28 607.998 1319.82 566.1C1308.87 534.677 1313.25 494.946 1280.84 475.442C1259.82 462.8 1240.55 480.498 1215.58 487C1165.22 500.003 1092.07 487.723 1055.72 488.806C997.469 490.612 943.16 515.173 901.99 549.486C860.82 583.798 865.637 615.582 770.596 641.588L771.472 641.226Z" fill="#FFF570" stroke="black" stroke-width="20" stroke-miterlimit="10"/>
<path d="M472.769 1123.05C445.614 1136.41 446.052 1174.7 462.696 1197.82C465.324 1201.43 468.827 1205.04 472.769 1207.57C478.025 1210.82 484.595 1212.62 491.164 1213.71C514.815 1217.32 541.094 1211.54 557.299 1196.37C573.505 1181.2 577.885 1156.28 564.307 1139.3C555.986 1128.83 541.97 1122.33 527.517 1119.44C513.063 1116.55 495.544 1111.85 472.769 1123.05Z" fill="white" stroke="black" stroke-width="20" stroke-miterlimit="10"/>
<path d="M513.066 1179.4C519.597 1179.4 524.891 1174.87 524.891 1169.28C524.891 1163.7 519.597 1159.17 513.066 1159.17C506.535 1159.17 501.24 1163.7 501.24 1169.28C501.24 1174.87 506.535 1179.4 513.066 1179.4Z" fill="black"/>
</g>
<defs>
<clipPath id="clip0_10_710">
<rect width="1760" height="1760" fill="white"/>
</clipPath>
</defs>
</svg>
