<svg width="1760" height="1760" viewBox="0 0 1760 1760" fill="none" xmlns="http://www.w3.org/2000/svg">
<g clip-path="url(#clip0_10_704)">
<path d="M1760 0H0V1760H1760V0Z" fill="white"/>
<path d="M932.356 417.705C893.031 419.965 865.572 452.183 852.351 482.988C839.13 513.792 836.418 547.141 824.214 578.229C812.01 609.316 786.585 640.12 748.278 647.468C731.667 650.577 710.648 650.859 703.529 663.577C699.122 671.49 702.512 681.099 705.563 689.295C717.767 722.36 725.226 757.403 717.09 791.316C708.954 825.23 685.901 868.752 644.543 870.165C574.031 872.143 547.927 859.143 503.518 873.556C465.55 885.708 357.747 976.428 402.835 1072.23C425.887 1120.56 499.111 1152.21 555.047 1128.76C582.506 1117.17 601.49 1095.69 622.169 1076.76C664.205 1038.04 729.294 1006.39 786.924 1026.45C818.112 1037.19 840.825 1061.21 872.013 1071.67C919.813 1087.5 980.494 1062.63 994.393 1021.36C1003.55 994.515 994.393 965.971 990.664 938.275C989.308 927.819 988.63 916.796 994.393 907.47C1002.87 893.622 1023.21 887.404 1041.51 888.817C1059.82 890.231 1076.77 897.297 1093.04 904.928C1145.93 929.797 1197.46 960.884 1226.95 1005.26C1256.44 1049.63 1257.46 1110.39 1215.76 1147.13C1192.03 1168.04 1156.78 1180.47 1142.2 1206.47C1129.32 1229.65 1137.79 1258.76 1159.15 1276.85C1180.51 1294.93 1212.37 1303.13 1242.88 1301.71C1292.38 1299.45 1337.8 1273.45 1365.94 1239.26C1394.08 1205.06 1406.62 1163.52 1410.35 1121.97C1413.4 1087.78 1411.03 1066.87 1396.11 1034.93C1363.91 966.254 1086.6 684.208 1078.47 623.729C1063.21 508.988 1038.12 475.64 1010.33 447.096C993.037 429.292 964.222 416.009 932.356 417.705Z" fill="white" stroke="black" stroke-width="20" stroke-miterlimit="10"/>
<path d="M822.178 764.752C788.617 784.535 789.295 840.492 809.974 873.84C813.364 879.21 817.093 884.297 822.178 887.971C828.619 892.775 836.416 895.319 844.552 896.732C873.367 901.819 905.234 893.623 925.235 871.579C945.236 849.535 950.321 813.079 933.71 788.209C923.54 772.948 906.589 763.339 888.961 759.1C871.333 754.861 849.976 748.078 822.178 764.187V764.752Z" fill="white" stroke="black" stroke-width="20" stroke-miterlimit="10"/>
<path d="M871.336 847.275C879.2 847.275 885.574 840.695 885.574 832.579C885.574 824.463 879.2 817.883 871.336 817.883C863.473 817.883 857.098 824.463 857.098 832.579C857.098 840.695 863.473 847.275 871.336 847.275Z" fill="black"/>
</g>
<defs>
<clipPath id="clip0_10_704">
<rect width="1760" height="1760" fill="white"/>
</clipPath>
</defs>
</svg>
