<svg width="1760" height="1760" viewBox="0 0 1760 1760" fill="none" xmlns="http://www.w3.org/2000/svg">
<rect width="1760" height="1760" fill="white"/>
<path d="M374.979 462.403C355.763 490.354 368.574 550.914 374.979 584.106C402.347 727.936 338.876 751.228 334.218 827.511C331.888 868.854 348.194 914.857 386.043 931.744C447.766 959.694 523.463 895.058 585.186 923.591C617.212 938.731 634.1 975.417 635.847 1010.94C637.594 1046.46 626.529 1080.81 616.63 1114.59C606.731 1148.36 597.415 1183.88 602.656 1218.82C612.555 1286.95 678.936 1337.61 747.646 1342.85C787.824 1345.77 830.331 1334.7 858.281 1306.17C889.725 1274.14 899.626 1226.39 899.626 1181.55C899.626 1136.72 892.638 1091.88 897.879 1047.04C908.36 950.96 1014.34 855.461 1110.42 952.125C1156.42 998.127 1165.73 1088.38 1177.38 1097.7C1191.35 1108.77 1295.58 1112.84 1334.6 1097.7C1347.99 1092.46 1361.38 1086.06 1370.7 1074.99C1380.6 1062.76 1451.06 695.909 1065 416.401C936.892 323.231 918.259 419.895 799.471 456.58C556.655 531.116 411.082 409.995 375.562 461.821L374.979 462.403Z" fill="#9DC0EB" stroke="black" stroke-width="20" stroke-miterlimit="10"/>
<path d="M733.09 754.724C743.571 655.149 623.618 573.044 561.895 587.602C459.412 611.476 562.478 755.307 615.467 794.321C685.342 845.564 729.014 796.068 733.09 754.724Z" fill="white" stroke="black" stroke-width="20" stroke-miterlimit="10"/>
<path d="M633.31 712.6C639.582 707.571 637.329 694.341 628.277 683.049C619.225 671.758 606.801 666.682 600.529 671.711C594.256 676.74 596.509 689.97 605.561 701.262C614.614 712.553 627.037 717.629 633.31 712.6Z" fill="black"/>
</svg>
