<svg width="1760" height="1760" viewBox="0 0 1760 1760" fill="none" xmlns="http://www.w3.org/2000/svg">
<rect width="1760" height="1760" fill="white"/>
<path d="M621.108 686.784C588.286 686.064 565.397 652.581 533.006 654.741C507.958 656.181 491.979 677.063 473.84 691.824C448.36 712.346 413.378 722.427 380.556 733.588C368.032 737.908 354.644 742.949 348.597 753.03C338.664 769.231 351.189 788.313 363.282 803.074C397.831 845.558 432.381 887.681 466.499 930.165C530.416 1008.65 594.764 1087.5 676.82 1153.03C693.231 1165.99 712.233 1179.31 734.69 1179.67C758.011 1179.67 778.309 1166.35 791.265 1150.15C804.221 1133.94 811.132 1115.22 821.928 1098.3C842.226 1064.46 877.64 1035.66 921.69 1026.29C965.741 1016.93 1017.57 1030.25 1040.89 1062.66C1078.89 1115.58 1030.52 1184.35 1046.07 1244.47C1056 1282.28 1093.57 1313.96 1138.92 1322.96C1184.27 1331.96 1234.8 1317.2 1263.73 1286.96C1288.35 1261.4 1296.99 1227.91 1298.71 1195.15C1301.3 1149.07 1290.94 1102.62 1272.37 1059.42C1253.8 1016.93 1226.59 973.369 1237.39 929.085C1242.14 908.563 1255.09 889.842 1266.76 871.12C1299.58 818.556 1426.12 641.78 1400.64 628.818C1367.38 611.897 1303.9 567.253 1274.53 569.053C1238.68 571.213 1217.95 629.179 1193.34 650.781C1165.27 674.903 1125.53 689.664 1083.21 694.345C957.968 690.024 832.725 688.584 707.482 687.504C689.344 687.504 670.773 688.224 621.972 687.504L621.108 686.784Z" fill="#FFF570" stroke="black" stroke-width="20" stroke-miterlimit="10"/>
<path d="M651.342 939.525C669.049 964.007 692.802 991.37 726.92 991.73C748.513 991.73 767.947 980.928 784.79 969.407C805.952 954.646 825.386 937.724 836.614 916.483C847.843 895.241 850.002 870.039 836.614 850.237C822.363 828.635 794.291 816.754 767.083 807.753C716.554 791.192 661.707 780.391 608.155 787.592C602.109 788.312 596.495 789.392 591.312 792.272C580.083 798.393 577.06 811.714 580.947 822.515C584.834 833.316 630.18 911.443 650.91 939.525H651.342Z" fill="white" stroke="black" stroke-width="20" stroke-miterlimit="10"/>
<path d="M750.979 903.725C760.832 894.532 761.033 881.279 751.429 874.125C741.824 866.971 726.051 868.625 716.198 877.818C706.346 887.011 706.144 900.263 715.748 907.417C725.353 914.571 741.126 912.918 750.979 903.725Z" fill="#030005"/>
</svg>
