<svg width="1760" height="1760" viewBox="0 0 1760 1760" fill="none" xmlns="http://www.w3.org/2000/svg">
<rect width="1760" height="1760" fill="white"/>
<path d="M651.164 654.683C662.109 629.69 706.842 628.102 732.063 611.44C769.658 586.843 793.452 549.949 813.914 513.847C834.377 477.746 853.888 440.058 886.248 410.304C918.608 380.55 967.623 360.317 1014.73 369.045C1071.84 379.756 1108.01 438.47 1085.16 483.696C1070.41 512.26 1038.53 531.7 1008.07 550.346C966.671 575.736 909.566 603.505 870.544 631.276C836.757 655.079 818.673 680.073 802.969 714.984C787.265 749.895 796.783 795.121 835.329 813.767C848.653 820.114 863.882 822.891 879.11 824.875C923.843 831.222 971.43 834 1013.78 820.512C1069.46 802.659 1136.56 782.427 1181.77 749.896C1226.98 717.365 1256.01 770.525 1300.74 828.842C1333.1 871.291 1316.92 924.849 1277.42 962.934C1256.96 982.77 1231.26 998.241 1209.37 1017.28C1187.48 1036.33 1169.87 1060.53 1170.82 1086.71C1172.25 1120.83 1204.61 1147.8 1226.03 1176.76C1253.15 1213.66 1263.14 1260.87 1244.11 1300.94C1226.5 1337.83 1187 1364.81 1143.22 1379.89C1099.44 1394.96 1051.85 1400.12 1004.27 1403.29C996.652 1403.69 989.038 1404.48 981.424 1403.29C878.158 1388.22 992.845 1294.59 880.538 1256.11C691.138 1191.44 724.925 1360.45 714.456 1374.73C688.283 1410.04 577.403 1394.17 527.912 1394.56C497.931 1394.56 534.574 1317.2 533.146 1279.52C527.436 1160.9 434.164 1076 443.681 991.497C456.054 880.813 630.226 704.669 652.116 654.286L651.164 654.683Z" fill="#FFE0F6" stroke="black" stroke-width="20" stroke-miterlimit="10"/>
<path d="M772.035 970.868C730.158 991.101 731.109 1048.23 756.807 1082.74C761.09 1088.3 765.849 1093.45 772.035 1097.42C780.125 1102.58 790.118 1104.96 799.635 1106.15C835.802 1111.31 875.301 1102.98 900.522 1080.36C925.268 1057.75 931.93 1020.46 910.992 995.068C898.143 979.2 877.204 969.678 855.314 965.314C833.423 960.951 806.774 953.81 772.035 970.472V970.868Z" fill="white" stroke="black" stroke-width="20" stroke-miterlimit="10"/>
<path d="M833.424 1055.37C843.148 1055.37 851.031 1048.62 851.031 1040.29C851.031 1031.97 843.148 1025.22 833.424 1025.22C823.699 1025.22 815.816 1031.97 815.816 1040.29C815.816 1048.62 823.699 1055.37 833.424 1055.37Z" fill="black"/>
</svg>
