<svg width="1760" height="1760" viewBox="0 0 1760 1760" fill="none" xmlns="http://www.w3.org/2000/svg">
<g clip-path="url(#clip0_10_739)">
<path d="M1760 0H0V1760H1760V0Z" fill="white"/>
<path d="M760.378 784.984C748.125 751.521 755.221 708.547 770.01 675.788C784.798 643.029 805.925 612.384 819.446 579.626C832.966 546.867 839.304 509.529 823.248 477.122C807.192 444.715 765.362 419.706 724.376 427.455C685.926 434.5 661.419 466.554 649.588 497.904C638.602 526.788 635.222 557.433 639.025 587.726C644.94 632.814 667.334 675.436 672.404 720.524C677.475 765.611 663.109 801.54 618.321 830.777C580.293 855.434 556.209 843.104 535.927 856.137C502.547 877.624 523.674 927.996 494.942 953.71C427.337 1013.94 380.858 1033.67 380.013 1090.38C379.168 1128.07 418.464 1156.6 435.788 1191.48C457.759 1235.51 448.464 1295.39 495.787 1322.16C534.237 1343.65 665.644 1333.78 685.926 1299.26C699.447 1276.37 699.024 1250.3 702.827 1224.94C706.629 1199.58 715.08 1172.81 740.01 1158.01C773.389 1137.93 884.515 1138.99 924.655 1146.39C1015.92 1163.3 953.388 1275.31 1002.82 1302.08C1027.75 1315.47 1056.91 1322.86 1086.06 1324.62C1136.34 1327.44 1192.96 1313 1215.36 1275.66C1232.26 1247.83 1226.34 1215.08 1222.12 1184.43C1216.2 1142.16 1214.51 1096.72 1240.29 1060.09C1257.61 1035.43 1285.5 1017.82 1308.31 996.684C1358.59 950.892 1386.48 883.613 1361.97 824.788C1332.4 753.635 1240.29 716.648 1155.36 690.23C1138.46 684.946 1119.44 680.015 1103.39 686.003C1092.82 689.878 1085.22 697.979 1079.3 706.433C1061.56 731.09 1053.53 760.327 1035.78 784.984C1007.89 824.083 954.233 849.798 899.304 850.15C844.375 850.502 776.77 830.776 757.756 778.644L760.378 784.984Z" fill="#B7ABFF" stroke="black" stroke-width="20" stroke-miterlimit="10"/>
<path d="M1130.85 814.925C1090.71 835.003 1091.98 892.771 1116.48 926.939C1120.29 932.575 1125.36 937.506 1131.27 941.381C1138.88 946.312 1148.6 948.778 1157.89 950.187C1192.54 955.471 1230.99 947.017 1255.07 924.473C1279.16 901.929 1285.5 864.592 1265.22 839.23C1252.96 823.731 1232.68 813.868 1211.13 809.642C1189.58 805.415 1164.23 798.369 1130.85 814.925H1130.85Z" fill="white" stroke="black" stroke-width="20" stroke-miterlimit="10"/>
<path d="M1190.85 899.464C1200.19 899.464 1207.75 892.841 1207.75 884.67C1207.75 876.5 1200.19 869.875 1190.85 869.875C1181.52 869.875 1173.95 876.5 1173.95 884.67C1173.95 892.841 1181.52 899.464 1190.85 899.464Z" fill="black"/>
</g>
<defs>
<clipPath id="clip0_10_739">
<rect width="1760" height="1760" fill="white"/>
</clipPath>
</defs>
</svg>
