<svg width="1760" height="1760" viewBox="0 0 1760 1760" fill="none" xmlns="http://www.w3.org/2000/svg">
<rect width="1760" height="1760" fill="white"/>
<path d="M674.446 596.816C631.77 600.641 428.483 615.178 447.297 640.426C460.605 658.407 485.385 688.628 493.186 703.931C519.343 753.28 517.507 812.193 488.138 860.395C474.372 883.348 460.605 907.449 437.66 925.047C330.74 1006.53 357.814 1073.86 362.403 1154.2C363.321 1174.09 366.533 1194.37 378.923 1211.2C407.833 1249.84 471.159 1254.43 524.849 1260.93C551.464 1263.99 579.457 1268.58 605.613 1261.7C644.16 1251.37 667.104 1218.85 679.035 1186.71C690.966 1154.58 694.637 1120.15 712.075 1089.93C729.512 1059.71 766.223 1032.93 806.147 1037.9C849.282 1043.26 874.521 1081.51 887.37 1116.32C900.219 1151.14 909.396 1190.54 943.354 1213.49C976.853 1236.06 1024.12 1235.68 1066.34 1242.95C1085.15 1246.01 1104.42 1250.98 1123.7 1248.69C1166.83 1243.71 1192.53 1204.31 1196.66 1168.35C1200.79 1132.39 1191.15 1095.67 1196.66 1059.71C1202.17 1023.75 1230.62 985.108 1274.21 982.813C1291.19 982.048 1308.17 986.638 1325.61 986.256C1371.5 985.108 1404.99 946.088 1407.75 907.833C1410.5 869.577 1390.31 833.234 1369.66 799.186C1343.96 757.105 1336.16 713.112 1285.22 693.219C1260.44 683.655 1209.51 679.447 1187.94 665.292C1159.95 646.547 1151.69 613.648 1154.44 583.809C1157.19 552.057 1195.74 490.849 1166.83 456.036C1136.09 418.928 1099.38 421.605 1022.28 463.304C991.078 480.519 802.017 585.721 674.446 596.433V596.816Z" fill="#FF82C1" stroke="black" stroke-width="20" stroke-miterlimit="10"/>
<path d="M729.056 894.827C718.043 851.981 746.034 806.841 788.71 780.827C799.265 774.706 810.278 768.968 823.127 766.673C846.989 762.082 872.228 768.202 892.878 778.913C929.589 798.041 954.369 831.707 958.958 867.285C958.958 871.11 959.417 875.318 956.204 877.996C953.91 879.909 951.156 880.291 947.944 881.056C891.501 892.915 834.599 901.714 777.238 907.835C759.341 909.748 733.186 910.512 729.056 894.827Z" fill="white" stroke="black" stroke-width="20" stroke-miterlimit="10"/>
<path d="M842.404 852.366C851.781 852.366 859.383 845.515 859.383 837.064C859.383 828.613 851.781 821.762 842.404 821.762C833.027 821.762 825.425 828.613 825.425 837.064C825.425 845.515 833.027 852.366 842.404 852.366Z" fill="black"/>
</svg>
