<svg width="1760" height="1760" viewBox="0 0 1760 1760" fill="none" xmlns="http://www.w3.org/2000/svg">
<rect width="1760" height="1760" fill="white"/>
<path d="M698.445 410.157C659.818 425.798 620.64 440.059 631.125 489.74C638.298 525.162 650.438 559.203 658.163 594.624C672.51 661.786 643.265 734.007 583.118 780.469C554.976 802.089 521.316 818.19 493.174 839.811C465.032 861.432 432.476 880.752 446.271 923.073C451.237 938.254 456.203 952.975 463.928 966.775C489.863 1012.32 515.798 1058.32 541.181 1103.86C550.009 1119.5 559.942 1136.06 577.6 1145.26C608.501 1161.36 651.541 1147.1 675.821 1124.1C700.1 1101.1 712.24 1071.2 731.553 1044.98C749.763 1019.68 776.249 997.135 809.357 987.475C868.4 970.455 940.686 1004.96 953.377 1056.02C964.965 1102.48 932.409 1148.02 905.371 1189.88C878.332 1231.74 854.605 1283.27 882.195 1325.13C897.094 1347.67 924.684 1362.39 953.377 1371.13C1035.04 1395.51 1131.61 1372.97 1191.76 1320.99C1251.9 1269 1275.08 1191.26 1260.18 1120.42C1253.01 1087.76 1238.66 1056.48 1230.38 1023.82C1205 919.853 1248.04 813.59 1290.53 713.767C1303.77 682.946 1330.81 607.963 1310.95 579.442C1286.12 543.101 1212.72 579.443 1168.03 560.123C1094.09 528.842 1020.7 463.979 950.067 428.558C886.058 396.357 860.674 345.296 698.996 410.618L698.445 410.157Z" fill="#9DC0EB" stroke="black" stroke-width="20" stroke-miterlimit="10"/>
<path d="M1062.08 1127.32C1021.8 1142.96 1008.56 1202.3 1012.97 1242.32C1013.53 1248.76 1015.18 1254.75 1017.94 1259.81C1021.25 1266.25 1026.77 1270.39 1032.84 1273.15C1054.36 1284.19 1083.05 1281.43 1107.33 1261.65C1131.61 1241.87 1148.72 1203.68 1144.3 1173.78C1141.54 1155.38 1131.06 1142.04 1118.37 1134.22C1105.68 1126.4 1087.47 1117.2 1062.08 1127.32Z" fill="white" stroke="black" stroke-width="20" stroke-miterlimit="10"/>
<path d="M1088.77 1211.31C1091.63 1202.74 1088.71 1194.58 1082.25 1193.08C1075.79 1191.58 1068.24 1197.31 1065.38 1205.88C1062.52 1214.45 1065.44 1222.61 1071.9 1224.11C1078.36 1225.6 1085.91 1219.87 1088.77 1211.31Z" fill="black"/>
</svg>
