<svg width="1760" height="1760" viewBox="0 0 1760 1760" fill="none" xmlns="http://www.w3.org/2000/svg">
<g clip-path="url(#clip0_10_733)">
<path d="M1760 0H0V1760H1760V0Z" fill="white"/>
<path d="M589.679 636.341C569.556 624.979 561.104 616.624 540.578 592.563C508.783 555.803 472.561 558.81 461.292 613.95C456.865 635.672 462.097 656.726 465.719 678.448C471.756 713.537 485.037 747.624 491.074 782.713C497.111 817.803 495.501 855.566 474.171 886.311C454.852 914.382 421.045 933.765 398.105 959.832C374.359 986.901 362.687 1019.98 357.858 1053.4C351.821 1098.18 359.468 1147.31 396.092 1180.39C425.875 1207.46 472.963 1220.16 516.832 1215.15C560.701 1210.14 600.947 1189.08 627.51 1159.34C651.256 1132.61 663.733 1100.19 677.819 1068.78C691.905 1037.36 709.211 1005.95 739.396 983.893C769.581 961.837 816.67 952.479 850.879 969.857C883.479 986.232 895.15 1020.32 902.395 1051.4C913.664 1099.85 920.104 1149.65 943.044 1195.43C965.985 1241.22 1008.65 1282.99 1066.6 1294.68C1135.83 1308.39 1214.31 1268.62 1230.81 1211.14C1244.09 1164.69 1221.55 1116.9 1214.71 1069.44C1211.49 1047.39 1211.89 1025 1215.92 1002.94C1217.93 991.58 1221.55 979.548 1231.61 971.862C1251.74 956.489 1284.34 966.181 1311.3 963.507C1341.08 960.5 1365.63 941.118 1380.53 919.396C1405.08 883.972 1410.71 840.194 1395.82 801.428C1380.93 762.663 1345.11 729.578 1300.03 713.203C1258.18 697.831 1210.28 696.16 1168.43 679.785C1102.02 653.718 1063.38 594.233 1042.86 535.751C1028.37 494.646 1015.09 445.856 968.4 427.475C928.958 411.769 879.857 426.472 848.464 451.87C817.072 477.268 799.766 512.024 782.058 545.443C764.349 578.861 744.628 612.947 710.419 635.672C676.209 658.397 630.731 659.733 589.679 636.341Z" fill="#8CFFD9" stroke="black" stroke-width="20" stroke-miterlimit="10"/>
<path d="M850.474 664.747C851.279 649.04 852.488 633 861.342 618.964C870.196 604.928 888.709 594.234 906.418 597.91C934.59 603.591 938.213 636.342 955.922 655.724C975.24 677.446 1011.06 682.125 1037.22 697.497C1042.85 700.839 1048.49 705.184 1050.5 710.865C1054.52 721.893 1043.26 733.255 1031.18 738.936C1019.11 744.617 1005.42 748.628 996.57 757.985C984.093 771.686 988.52 791.069 988.923 808.113C989.325 825.156 980.471 847.212 959.945 847.881C934.59 848.883 924.528 816.133 899.575 812.457C881.062 809.784 865.768 824.153 852.889 836.184C840.01 848.215 819.083 859.577 803.789 850.554C787.691 841.531 793.325 819.809 803.789 805.773C814.254 791.737 828.742 776.7 824.717 760.659C819.485 740.274 787.691 729.579 788.495 708.86C788.898 696.161 802.179 686.47 815.46 681.123C828.741 675.776 846.449 678.686 852.889 671L850.474 664.747Z" fill="white" stroke="black" stroke-width="20" stroke-miterlimit="10"/>
<path d="M935.419 741.869C939.244 729.537 932.049 717.338 919.349 714.622C906.649 711.907 893.253 719.703 889.429 732.036C885.604 744.369 892.799 756.567 905.499 759.283C918.199 761.998 931.595 754.202 935.419 741.869Z" fill="black"/>
</g>
<defs>
<clipPath id="clip0_10_733">
<rect width="1760" height="1760" fill="white"/>
</clipPath>
</defs>
</svg>
