<svg width="1760" height="1760" viewBox="0 0 1760 1760" fill="none" xmlns="http://www.w3.org/2000/svg">
<rect width="1760" height="1760" fill="white"/>
<path d="M749.672 599.14C685.511 691.701 594.503 615.831 550.819 590.035C537.168 582.069 505.314 631.385 494.848 647.697C447.524 720.153 381.998 750.121 381.088 758.846C378.357 778.193 440.243 781.986 462.085 789.573C523.516 811.196 569.475 840.785 594.503 892.376C614.069 932.967 624.99 964.453 589.952 1037.29C530.796 1160.2 445.703 1061.57 420.221 1142.37C407.934 1180.68 415.67 1248.97 431.597 1300.56C441.152 1330.9 454.349 1362.39 483.017 1382.5C555.823 1433.33 591.773 1371.5 603.604 1344.56C633.182 1278.93 721.004 1241 804.732 1245.55C964.907 1253.9 886.185 1401.08 999.49 1431.05C1054.1 1445.47 1154.66 1378.32 1197.89 1347.22C1241.12 1316.11 1267.51 1262.62 1243.85 1219C1222.46 1178.79 1155.11 1180.3 1117.35 1149.58C1064.11 1105.57 1044.08 1051.7 1071.84 993.663C1108.7 916.655 1154.2 930.312 1202.89 974.696C1229.74 999.354 1257.96 1033.5 1297.54 1028.18C1332.13 1023.63 1349.42 990.628 1356.7 962.177C1378.54 877.582 1398.56 690.562 1340.32 642.006C1293.9 603.312 1254.31 634.42 1196.07 664.388C1120.08 703.461 1062.74 695.115 1031.8 630.626C986.749 535.409 1154.21 368.874 960.357 329.422C912.578 319.938 848.871 336.63 813.378 409.465C773.789 490.646 791.535 538.823 750.126 598.76L749.672 599.14Z" fill="#FF3B83" stroke="black" stroke-width="20" stroke-miterlimit="10"/>
<path d="M992.211 752.017C1003.13 794.505 974.92 839.647 932.601 865.443C922.135 871.512 911.214 877.202 898.473 879.478C874.81 884.03 849.783 877.961 829.307 867.339C792.903 848.371 768.331 814.989 763.78 779.709C763.78 775.916 763.325 771.743 766.51 769.087C768.786 767.191 771.516 766.812 774.701 766.053C830.671 754.293 887.096 745.568 943.977 739.498C961.723 737.601 988.116 736.464 992.211 752.017Z" fill="white" stroke="black" stroke-width="20" stroke-miterlimit="10"/>
<path d="M879.364 824.472C888.663 824.472 896.2 817.679 896.2 809.299C896.2 800.918 888.663 794.125 879.364 794.125C870.066 794.125 862.526 800.918 862.526 809.299C862.526 817.679 870.066 824.472 879.364 824.472Z" fill="black"/>
</svg>
