<svg width="1760" height="1760" viewBox="0 0 1760 1760" fill="none" xmlns="http://www.w3.org/2000/svg">
<rect width="1760" height="1760" fill="white"/>
<path d="M954.917 517.245C963.808 496.12 979.812 476.478 982.48 454.241C985.592 427.927 971.366 400.871 946.026 384.934C920.686 368.997 885.119 365.662 856.222 375.668C805.541 393.458 776.2 419.772 776.2 488.337C776.2 533.923 773.978 601.005 737.523 635.472C721.963 649.926 677.061 618.424 672.171 711.079C668.17 781.496 664.613 851.914 660.612 921.961C659.278 942.715 658.389 963.84 648.164 982.742C637.939 1001.64 617.044 1017.95 592.148 1018.69C532.576 1020.17 507.235 939.75 447.663 939.75C423.656 939.75 402.317 954.205 391.203 971.995C379.644 990.896 355.193 1043.52 389.869 1105.42C419.655 1158.41 490.342 1162.49 522.795 1186.58C552.581 1208.82 561.918 1243.29 576.589 1274.05C591.26 1304.81 619.267 1337.05 658.833 1337.79C680.173 1338.17 699.734 1329.64 718.85 1321.86C778.423 1297.77 846.443 1280.35 910.016 1294.43C962.475 1305.92 1004.71 1337.05 1050.94 1360.77C1097.18 1384.49 1155.86 1401.54 1204.76 1382.27C1245.22 1366.33 1268.34 1328.9 1275.45 1291.84C1280.34 1267.75 1278.56 1240.32 1258.56 1222.53C1229.66 1196.22 1174.09 1199.55 1146.53 1172.13C1135.41 1161.01 1130.52 1146.55 1127.85 1132.1C1116.3 1076.88 1126.08 1018.69 1155.42 968.288C1167.42 947.533 1183.87 927.15 1208.32 916.402C1232.77 905.654 1266.56 907.136 1284.34 924.925C1295.46 936.414 1299.46 953.463 1314.57 961.246C1336.36 972.365 1364.36 956.428 1378.59 938.638C1407.04 901.576 1410.16 853.767 1394.6 811.887C1379.04 770.007 1346.58 733.686 1309.24 702.554C1293.68 689.953 1276.34 677.353 1255 673.276C1222.99 667.346 1191.43 681.059 1159.86 687.73C1110.96 697.736 1057.17 688.841 1016.71 664.381C976.257 639.92 917.574 607.676 955.807 517.245H954.917Z" fill="#FF6640" stroke="black" stroke-width="20" stroke-miterlimit="10"/>
<path d="M1015.38 888.604C1026.05 930.114 998.928 973.846 957.583 999.048C947.358 1004.98 936.688 1010.54 924.24 1012.76C901.123 1017.21 876.672 1011.28 856.666 1000.9C821.1 982.371 797.094 949.756 792.648 915.289C792.648 911.583 792.203 907.506 795.315 904.912C797.538 903.059 800.205 902.687 803.317 901.946C857.999 890.457 913.126 881.932 968.697 876.002C986.035 874.149 1011.38 873.409 1015.38 888.604Z" fill="white" stroke="black" stroke-width="20" stroke-miterlimit="10"/>
<path d="M914.46 967.917C928.455 967.917 939.8 959.289 939.8 948.645C939.8 938.001 928.455 929.372 914.46 929.372C900.464 929.372 889.12 938.001 889.12 948.645C889.12 959.289 900.464 967.917 914.46 967.917Z" fill="black"/>
</svg>
