<svg width="1760" height="1760" viewBox="0 0 1760 1760" fill="none" xmlns="http://www.w3.org/2000/svg">
<g clip-path="url(#clip0_10_727)">
<path d="M1760 0H0V1760H1760V0Z" fill="white"/>
<path d="M666.153 706.551C648.65 706.551 630.271 711.658 621.519 724.79C613.205 737.193 615.831 752.515 618.894 766.742C629.833 815.624 640.336 872.531 600.516 909.739C587.827 921.777 565.947 930.533 549.319 922.507C538.38 917.4 533.128 906.821 524.377 899.525C474.93 858.304 412.357 867.059 373.85 976.861C327.904 1108.19 383.477 1132.99 397.917 1143.94C410.607 1153.42 476.681 1158.53 506.436 1209.96C520.001 1233.31 523.502 1261.76 546.694 1278.91C560.696 1289.49 579.512 1293.86 597.453 1297.51C640.773 1306.63 684.968 1313.93 729.163 1319.4C752.792 1322.32 779.048 1324.14 798.301 1312.1C811.866 1303.71 818.867 1290.22 825.431 1277.08C856.499 1215.8 858.687 1142.11 908.571 1105.27C937.013 1084.48 1014.46 1084.84 1045.53 1103.08C1125.61 1150.5 985.147 1259.57 1082.29 1323.05C1100.67 1335.09 1177.24 1344.21 1200.44 1344.21C1245.07 1344.21 1280.51 1312.83 1302.83 1280.37C1351.84 1210.33 1368.9 1128.25 1378.97 1047.63C1384.22 1005.32 1387.28 961.175 1368.9 921.413C1355.78 892.959 1331.71 868.518 1317.71 840.429C1303.7 812.34 1283.58 775.861 1309.39 754.703C1324.71 742.3 1366.72 730.992 1375.03 714.941C1383.34 698.89 1373.72 685.758 1364.09 670.437C1354.9 655.845 1343.96 639.794 1324.71 636.146C1313.77 633.958 1302.39 636.147 1291.45 637.971C1256.45 643.443 1219.69 642.714 1185.12 635.783C1165.87 631.771 1139.61 623.015 1126.92 610.612C1106.36 590.183 1138.74 553.704 1137.86 526.709C1136.55 490.595 1105.04 450.468 1044.66 432.594C998.713 419.096 943.14 454.116 918.636 489.501C883.629 539.842 839.871 699.256 772.921 715.306C755.418 719.684 683.656 706.551 666.153 706.551Z" fill="#3EC790" stroke="black" stroke-width="20" stroke-miterlimit="10"/>
<path d="M908.573 888.217C904.635 898.067 900.259 909.375 901.572 918.86C903.322 929.074 911.199 933.086 918.2 935.64C948.83 947.313 981.212 954.975 1014.47 958.258C1021.91 958.987 1029.34 959.351 1037.22 955.339C1054.29 946.584 1065.23 920.684 1073.54 897.702C1086.67 861.953 1099.36 815.989 1081.85 795.925C1075.73 788.994 1066.54 786.805 1058.22 785.346C1033.28 780.969 1007.9 779.145 982.087 779.875C974.211 779.875 966.333 780.604 958.894 786.441C951.455 792.277 919.513 860.858 908.573 887.852V888.217Z" fill="white" stroke="black" stroke-width="20" stroke-miterlimit="10"/>
<path d="M1022.25 864.297C1024.4 857.061 1020.24 849.979 1012.97 848.48C1005.7 846.981 998.059 851.631 995.913 858.868C993.766 866.104 997.922 873.186 1005.19 874.685C1012.47 876.184 1020.1 871.533 1022.25 864.297Z" fill="black"/>
</g>
<defs>
<clipPath id="clip0_10_727">
<rect width="1760" height="1760" fill="white"/>
</clipPath>
</defs>
</svg>
