<svg width="1760" height="1760" viewBox="0 0 1760 1760" fill="none" xmlns="http://www.w3.org/2000/svg">
<rect width="1760" height="1760" fill="white"/>
<path d="M706.129 448.016C683.37 495.256 704.271 558.371 713.096 608.708C721.921 659.045 713.097 720.999 658.754 744.619C635.995 754.686 597.443 765.527 573.755 774.046C528.701 789.921 370.781 818.575 499.439 953.711C542.635 999.015 552.854 1062.52 547.745 1120.21C542.636 1177.91 526.379 1234.44 512.445 1291.36C505.013 1321.17 499.904 1355.25 523.128 1378.87C541.242 1397.84 572.827 1404.04 602.088 1403.65C631.35 1403.26 660.147 1398.23 688.944 1399C722.386 1400.16 758.15 1409.07 787.412 1395.9C816.673 1383.13 828.285 1352.92 831.072 1325.43C838.504 1246.83 796.701 1162.42 838.039 1091.56C858.94 1055.93 900.278 1028.83 946.725 1020.7C988.063 1013.34 1034.51 1021.86 1062.38 1048.19C1093.03 1077.23 1094.43 1119.82 1097.68 1158.55C1100.93 1197.27 1113.01 1241.02 1153.41 1259.99C1181.75 1273.55 1217.98 1270.45 1247.7 1259.22C1277.43 1247.99 1301.58 1229.02 1325.27 1210.04C1345.24 1194.17 1365.68 1177.52 1374.04 1155.83C1387.04 1122.15 1368.46 1086.14 1346.63 1055.94C1324.8 1025.73 1297.87 996.305 1292.76 961.068C1282.54 889.435 1366.14 818.188 1332.7 751.588C1320.16 726.032 1291.36 707.833 1260.71 696.992C1230.05 686.15 1196.61 682.665 1164.1 678.019C1149.23 676.083 1134.37 673.76 1120.9 668.726C1099.07 660.207 1082.35 644.718 1069.35 628.068C1011.75 556.047 997.352 439.111 944.867 391.484C902.135 352.763 768.368 317.527 706.129 447.629V448.016Z" fill="#FFF570" stroke="black" stroke-width="20" stroke-miterlimit="10"/>
<path d="M794.844 796.506C787.413 826.708 781.84 862.332 808.314 884.015C825.035 897.568 850.116 901.052 873.34 901.827C903.066 902.988 933.257 901.827 960.661 892.147C988.064 882.466 1011.75 863.88 1019.18 840.261C1027.08 814.705 1015.47 787.987 1002 764.367C976.916 720.225 943.475 678.019 894.705 650.915C889.596 647.817 884.023 645.107 877.52 644.333C863.121 642.397 849.188 650.915 843.15 661.757C837.112 672.598 803.669 761.657 794.844 796.506Z" fill="white" stroke="black" stroke-width="20" stroke-miterlimit="10"/>
<path d="M903.814 830.874C919.91 829.674 931.958 819.378 930.724 807.876C929.49 796.374 915.442 788.022 899.346 789.222C883.249 790.422 871.2 800.719 872.434 812.221C873.668 823.723 887.717 832.074 903.814 830.874Z" fill="#030005"/>
</svg>
