<svg width="1760" height="1760" viewBox="0 0 1760 1760" fill="none" xmlns="http://www.w3.org/2000/svg">
<g clip-path="url(#clip0_10_117)">
<path d="M1760 0H0V1760H1760V0Z" fill="white"/>
<path d="M606 466C537 513 566.832 614.593 518.238 677.724C494.149 708.875 458.015 729.227 419.805 738.779C400.7 743.763 379.104 747.086 366.229 762.454C351.692 779.483 354.183 805.649 364.151 826.001C374.119 846.353 390.732 861.72 404.022 879.995C464.245 960.987 456.354 1071.47 457.185 1172.81C457.185 1182.36 457.6 1192.75 463 1200.64C466.738 1206.45 472.968 1210.19 478.783 1213.51C514.501 1233.87 555.618 1244.25 596.736 1243.42C620.825 1243 646.575 1237.6 664.019 1220.57C686.032 1198.98 688.939 1165.33 692.261 1134.6C696.415 1095.56 704.307 1054.85 727.566 1022.87C750.824 990.891 793.602 970.124 830.567 983.415C860.471 993.798 880.406 1023.7 889.543 1054.02C898.68 1084.34 899.096 1116.74 903.249 1148.31C906.987 1178.21 914.464 1207.28 924.432 1235.53C929 1248.4 934.814 1261.28 944.367 1270.83C957.657 1284.12 977.177 1288.69 995.451 1292.43C1026.6 1298.66 1057.75 1303.23 1089.32 1306.55C1122.96 1309.87 1160.34 1310.29 1185.67 1287.86C1222.22 1255.05 1213.09 1191.92 1246.31 1155.78C1270.82 1129.61 1310.27 1125.46 1341.84 1107.6C1392.09 1079.36 1415.35 1010.83 1392.92 957.664C1375.06 915.715 1334.36 885.81 1320.24 842.199C1307.78 803.573 1317.75 759.131 1299.89 722.581C1292 705.967 1278.71 692.677 1266.25 679.801C1220.98 633.283 1175.29 587.18 1130.02 540.662C1125.04 535.678 1120.05 530.694 1113.82 527.786C1090.98 517.818 1072.7 543.569 1054.84 561.429C988.391 627.883 928.169 723.412 859.225 730.057C819.353 733.795 800.247 725.488 780.311 690.6C751.653 639.928 795.264 551.876 762.868 503.697C744.593 476.699 686.529 426.188 618 459L606 466Z" fill="#FFF570" stroke="black" stroke-width="20" stroke-miterlimit="10"/>
<path d="M1013.73 1042.39C974.686 1066.07 974.687 1135.01 999.192 1176.13C1003.34 1182.78 1007.91 1189.01 1013.73 1193.58C1021.62 1199.39 1030.76 1202.3 1040.31 1204.38C1074.78 1210.61 1112.99 1200.64 1136.67 1173.64C1160.34 1146.64 1166.57 1102.2 1146.63 1071.47C1134.59 1052.78 1114.24 1041.15 1093.06 1035.75C1071.87 1030.35 1047.37 1022.04 1013.73 1042.39Z" fill="white" stroke="black" stroke-width="20" stroke-miterlimit="10"/>
<path d="M1070.63 1191.92C1077.05 1191.92 1082.26 1186.34 1082.26 1179.46C1082.26 1172.57 1077.05 1167 1070.63 1167C1064.21 1167 1059 1172.57 1059 1179.46C1059 1186.34 1064.21 1191.92 1070.63 1191.92Z" fill="black" stroke="black" stroke-width="20" stroke-miterlimit="10"/>
</g>
<defs>
<clipPath id="clip0_10_117">
<rect width="1760" height="1760" fill="white"/>
</clipPath>
</defs>
</svg>
