<svg width="1760" height="1760" viewBox="0 0 1760 1760" fill="none" xmlns="http://www.w3.org/2000/svg">
<path d="M1760 0H0V1760H1760V0Z" fill="white"/>
<path d="M593.39 490.129C579.149 502.236 534.13 524.614 513.917 528.283C499.676 530.851 484.976 529.384 470.735 531.952C440.416 536.721 416.068 559.101 414.23 583.682C413.311 597.99 418.364 614.132 408.258 625.872C398.611 637.245 378.398 639.813 366.454 649.719C351.294 662.559 354.51 683.839 364.158 699.614C373.805 715.39 389.883 728.965 398.152 745.474C418.824 786.931 390.343 832.791 377.48 876.449C340.27 1002.29 473.951 1027.97 463.845 1137.66C433.525 1470.05 758.768 1232.68 917.715 1212.51C1093.2 1190.13 1264.55 1381.64 1318.76 1267.17C1408.8 1077.13 1402.37 564.605 1134.54 733.368C1050.94 786.198 866.264 846.731 840.539 704.75C823.541 610.463 1017.86 492.329 850.645 420.789C787.25 393.64 711.346 388.677 596.5 487L593.39 490.129Z" fill="#B7ABFF" stroke="black" stroke-width="20" stroke-miterlimit="10"/>
<path d="M621.871 840.492C573.636 862.504 574.554 924.873 604.414 961.928C609.008 967.798 614.98 973.667 621.871 977.703C631.059 983.206 642.542 985.775 654.027 987.242C695.831 993.112 741.77 983.94 770.711 959.359C799.652 934.779 807.002 894.422 783.114 866.54C768.414 849.663 744.066 838.658 718.34 834.256C692.615 829.853 661.837 821.781 621.871 840.125V840.492Z" fill="white" stroke="black" stroke-width="20" stroke-miterlimit="10"/>
<path d="M690.321 914.968C701.738 914.968 710.993 907.577 710.993 898.459C710.993 889.341 701.738 881.949 690.321 881.949C678.904 881.949 669.648 889.341 669.648 898.459C669.648 907.577 678.904 914.968 690.321 914.968Z" fill="black"/>
</svg>
