<svg width="1760" height="1760" viewBox="0 0 1760 1760" fill="none" xmlns="http://www.w3.org/2000/svg">
<rect width="1760" height="1760" fill="white"/>
<path d="M626.372 360.241C577.871 370.754 565.261 430.19 570.596 471.837C575.931 513.483 594.361 554.322 589.996 595.968C585.631 637.615 543.92 682.092 494.448 674.005C483.293 672.388 472.137 667.94 460.982 669.153C445.461 670.771 434.306 683.306 430.911 696.244C427.516 709.183 430.911 722.121 433.336 735.06C460.982 870.513 453.221 1010.82 410.54 1143.44C399.87 1176.19 387.259 1209.35 389.199 1243.31C391.139 1277.28 412.481 1312.86 450.797 1324.58C496.389 1338.73 548.285 1312.86 572.051 1277.68C595.817 1242.5 598.242 1200.45 600.667 1160.02C603.092 1119.58 606.002 1077.53 630.737 1042.36C647.713 1018.5 673.904 999.496 704.945 988.983C733.561 979.279 767.027 977.662 794.673 988.983C817.468 998.688 833.958 1016.48 844.144 1035.89C864.514 1075.92 859.665 1121.61 848.994 1164.06C838.324 1206.52 822.318 1248.57 821.833 1291.83C821.348 1335.1 840.264 1382 884.401 1405.05C902.831 1414.75 924.171 1419.6 945.512 1423.65C992.073 1432.54 1044.94 1436.58 1083.26 1413.54C1113.81 1394.94 1128.36 1362.59 1132.73 1331.05C1140.49 1275.25 1121.09 1219.45 1097.81 1166.49C1085.2 1138.59 1071.62 1109.88 1071.62 1079.96C1071.62 1050.04 1089.56 1018.1 1123.03 1007.58C1172.5 992.218 1224.88 1029.01 1276.78 1023.76C1314.61 1020.12 1345.65 993.836 1359.23 963.915C1372.81 933.994 1373.3 901.243 1370.87 869.3C1367.48 818.354 1359.23 767.811 1346.13 718.078C1339.83 694.222 1332.07 669.557 1314.61 649.745C1297.15 629.932 1268.53 615.376 1239.43 618.611C1212.27 621.846 1188.51 642.468 1166.19 655.811C1106.54 691.392 1039.6 641.254 983.343 639.636C907.681 637.615 889.735 675.622 841.234 649.745C773.817 613.759 799.037 532.083 772.846 450.002C763.631 422.103 716.585 339.214 626.372 359.027V360.241Z" fill="#8CFFD9" stroke="black" stroke-width="20" stroke-miterlimit="10"/>
<path d="M1007.59 813.503C1016.32 826.037 1007.59 855.958 988.678 876.175C959.092 907.308 902.83 921.46 854.813 909.33C806.797 897.2 770.421 860.001 768.48 820.781C768.48 818.759 768.48 816.333 769.935 814.311C771.876 811.885 775.756 810.672 779.151 809.459C858.693 788.029 994.497 794.499 1007.59 813.098V813.503Z" fill="#FAFCFF" stroke="black" stroke-width="20" stroke-miterlimit="10"/>
<path d="M889.734 855.147C897.77 855.147 904.286 849.716 904.286 843.016C904.286 836.317 897.77 830.887 889.734 830.887C881.698 830.887 875.185 836.317 875.185 843.016C875.185 849.716 881.698 855.147 889.734 855.147Z" fill="black" stroke="black" stroke-width="20" stroke-miterlimit="10"/>
</svg>
