<svg width="1760" height="1760" viewBox="0 0 1760 1760" fill="none" xmlns="http://www.w3.org/2000/svg">
<rect width="1760" height="1760" fill="white"/>
<path d="M650.278 562.801C558.617 582.653 648.032 731.362 618.377 823.133C611.187 845.234 598.606 868.457 573.893 878.945C521.772 901.42 455.273 855.347 401.354 875.199C367.655 887.56 353.277 922.771 356.422 953.486C359.567 984.202 375.743 1012.67 386.976 1042.26C398.209 1072.23 404.499 1103.32 405.398 1134.41C406.297 1161.38 403.6 1190.22 422.022 1212.7C444.938 1240.79 494.813 1246.78 532.107 1232.55C569.4 1218.31 595.011 1189.1 611.636 1158.01C625.565 1132.16 635.001 1104.82 648.93 1079.35C662.859 1053.87 683.079 1028.78 712.284 1014.92C741.49 1001.06 781.929 999.56 807.54 1018.29C837.195 1039.64 838.094 1078.22 825.513 1108.94C812.932 1139.65 789.567 1167 777.435 1197.71C770.695 1214.57 767.55 1234.42 779.233 1249.03C792.712 1266.64 1314.37 1320.2 1344.93 1236.67C1407.38 1066.23 1410.08 635.468 1398.85 544.82C1397.95 536.205 1392.55 528.339 1385.82 521.972C1372.34 509.61 1349.42 508.486 1330.1 512.981C1310.78 517.476 1293.7 526.466 1275.28 532.46C1218.22 550.44 1153.97 536.205 1096 520.473C1038.04 504.741 958.512 477.771 892.013 498.748C743.737 545.57 699.254 552.687 650.728 563.175L650.278 562.801Z" fill="#3EC790" stroke="black" stroke-width="20" stroke-miterlimit="10"/>
<path d="M1097.8 859.465C1118.47 860.589 1141.39 861.338 1158.46 857.592C1176.88 853.472 1181.38 845.232 1184.07 838.115C1194.41 807.025 1196.2 775.934 1189.01 744.844C1187.67 738.101 1185.42 730.984 1174.64 724.991C1151.27 711.881 1097.8 708.884 1051.07 707.386C977.834 705.138 885.723 705.887 854.72 727.238C843.936 734.73 843.488 743.346 844.387 751.587C846.184 775.186 852.474 798.408 863.707 822.007C866.852 828.749 871.346 836.242 885.275 841.486C899.204 846.73 1041.64 857.218 1097.8 859.84V859.465Z" fill="white" stroke="black" stroke-width="20" stroke-miterlimit="10"/>
<path d="M1018.27 794.666C1025.71 794.666 1031.75 789.634 1031.75 783.428C1031.75 777.222 1025.71 772.191 1018.27 772.191C1010.82 772.191 1004.79 777.222 1004.79 783.428C1004.79 789.634 1010.82 794.666 1018.27 794.666Z" fill="black" stroke="black" stroke-width="20" stroke-miterlimit="10"/>
</svg>
