<svg width="1760" height="1760" viewBox="0 0 1760 1760" fill="none" xmlns="http://www.w3.org/2000/svg">
<rect width="1760" height="1760" fill="white"/>
<path d="M523.787 369.516C471.282 380.458 449.595 362.38 431.333 385.217C410.787 410.909 438.752 823.883 386.817 1067.48C374.832 1124.1 356.571 1180.72 356 1238.29C356 1273.49 367.413 1314.89 406.221 1327.73C468.999 1348.19 526.07 1276.35 593.414 1280.63C642.495 1283.48 674.455 1325.83 720.112 1341.53C815.421 1374.36 913.014 1284.43 1015.74 1291.1C1097.92 1296.33 1169.26 1363.89 1249.16 1347.71C1288.54 1340.1 1318.79 1312.51 1333.63 1281.1C1348.46 1249.7 1349.61 1215.45 1346.75 1182.14C1343.33 1144.56 1335.34 1107.45 1327.35 1070.81C1320.5 1040.36 1313.08 1008.48 1289.68 985.171C1245.17 939.973 1153.28 934.74 1123.61 881.929C1114.47 865.276 1112.76 846.246 1116.76 828.642C1124.18 793.91 1152.14 762.983 1189.81 747.283C1220.63 734.437 1256.58 731.582 1284.55 714.454C1325.07 689.238 1334.2 642.136 1337.62 600.268C1342.76 541.747 1344.47 482.751 1342.19 423.755C1342.19 416.618 1341.05 409.006 1335.34 404.248C1327.35 398.063 1314.22 399.966 1303.95 402.821C1265.71 412.812 1226.33 427.561 1186.96 421.851C1125.89 412.336 1095.07 366.661 1018.02 363.33C963.235 360.951 906.165 451.349 844.528 431.842C638.502 367.612 689.294 335.261 524.359 370.468L523.787 369.516Z" fill="#FF3B83" stroke="black" stroke-width="20" stroke-miterlimit="10"/>
<path d="M945.548 764.889C955.82 779.638 945.547 814.847 923.289 838.635C888.476 875.27 822.274 891.923 765.774 877.649C709.274 863.376 666.47 819.605 664.188 773.454C664.188 771.075 664.187 768.22 665.9 765.841C668.182 762.987 672.748 761.56 676.743 760.132C770.34 734.916 930.138 742.528 945.548 764.414V764.889Z" fill="#FAFCFF" stroke="black" stroke-width="20" stroke-miterlimit="10"/>
<path d="M806.858 773.453C816.314 773.453 823.978 767.062 823.978 759.179C823.978 751.296 816.314 744.906 806.858 744.906C797.402 744.906 789.735 751.296 789.735 759.179C789.735 767.062 797.402 773.453 806.858 773.453Z" fill="black" stroke="black" stroke-width="20" stroke-miterlimit="10"/>
</svg>
