<svg width="1760" height="1760" viewBox="0 0 1760 1760" fill="none" xmlns="http://www.w3.org/2000/svg">
<rect width="1760" height="1760" fill="white"/>
<path d="M783.155 431.893C719.108 438.316 681.066 493.717 624.243 519.009C604.98 527.841 581.866 532.658 566.938 546.307C550.565 560.759 546.712 582.036 543.822 601.707C538.044 639.845 532.266 677.983 526.487 715.719C523.598 733.383 520.708 752.252 507.706 766.303C492.778 782.361 468.7 789.185 446.549 797.214C409.951 810.462 374.315 829.33 355.534 858.636C336.754 887.942 340.126 928.89 371.427 948.963C387.799 959.4 408.987 963.013 427.768 970.239C483.146 991.516 513.485 1042.5 526.005 1092.28C538.526 1142.06 536.118 1193.85 547.676 1243.63C549.602 1251.26 552.009 1259.69 557.788 1265.71C575.124 1282.97 608.833 1274.94 634.837 1282.17C660.841 1289.8 675.286 1312.28 695.512 1327.93C734.999 1357.64 801.936 1357.24 840.46 1326.73C873.206 1300.63 882.838 1260.89 901.619 1226.37C920.399 1191.84 961.331 1158.12 1005.15 1167.75C1048.97 1177.39 1063.9 1221.55 1093.28 1250.05C1137.1 1292.6 1212.22 1299.43 1279.16 1295.82C1313.35 1293.81 1351.87 1287.79 1369.69 1263.3C1378.84 1250.85 1380.76 1235.6 1381.73 1220.75C1385.1 1178.99 1386.54 1137.64 1385.58 1095.89C1385.1 1067.79 1382.69 1038.09 1363.43 1014.8C1323.94 967.028 1232.45 968.233 1189.59 922.066C1166.95 897.577 1163.1 862.249 1178.03 833.746C1192.96 805.243 1225.22 783.967 1260.86 776.339C1296.01 768.711 1337.42 771.12 1362.95 749.843C1378.84 736.595 1383.65 716.924 1387.99 698.457C1403.4 627.802 1433.25 439.12 1402.92 425.069C1340.79 396.968 1234.85 409.814 1183.33 449.959C1131.8 490.104 1111.57 536.673 1077.87 548.315C1025.38 566.38 963.257 553.132 928.103 511.381C912.212 492.513 871.761 421.857 783.155 430.689V431.893Z" fill="#FCFFA6" stroke="black" stroke-width="20" stroke-miterlimit="10"/>
<path d="M1009.48 797.613C961.329 735.79 822.16 734.585 733.073 757.066C718.626 760.679 705.141 765.096 694.547 771.519C681.064 779.95 673.358 790.789 668.543 801.628C650.244 842.175 665.654 889.546 718.625 923.268C771.596 956.588 863.573 971.843 929.546 952.975C970.478 941.333 997.446 919.254 1011.41 894.765C1025.38 870.276 1039.82 836.955 1009.48 797.613Z" fill="white" stroke="black" stroke-width="20" stroke-miterlimit="10"/>
<path d="M866.553 858.238C867.889 846.985 852.236 836.483 831.592 834.78C810.949 833.077 793.131 840.82 791.796 852.072C790.46 863.325 806.113 873.826 826.757 875.529C847.4 877.231 865.218 869.49 866.553 858.238Z" fill="black"/>
</svg>
