<svg width="1760" height="1760" viewBox="0 0 1760 1760" fill="none" xmlns="http://www.w3.org/2000/svg">
<rect width="1760" height="1760" fill="white"/>
<path d="M661.498 524.575C625.002 515.928 586.201 537.065 567.761 564.608C549.322 592.15 546.633 624.818 543.56 656.203C540.487 690.151 536.26 724.099 531.65 758.047C530.113 768.615 528.577 779.504 521.662 788.792C508.985 806.086 482.478 811.21 459.428 816.975C429.078 824.341 398.729 835.55 377.215 854.766C355.702 873.981 344.177 903.125 355.318 927.786C379.904 981.269 483.629 979.989 513.978 1031.23C522.814 1046.28 523.583 1063.58 524.352 1080.55C525.888 1115.78 527.424 1150.69 528.577 1185.92C528.577 1194.56 529.73 1203.85 536.261 1210.58C545.481 1219.55 561.615 1219.55 575.445 1219.22C623.85 1217.3 672.255 1215.38 721.045 1213.46C759.845 1211.86 802.871 1208.66 829.378 1184.96C854.349 1162.54 856.27 1127.95 850.124 1097.85C843.977 1067.74 831.684 1037.64 833.22 1007.21C835.141 973.904 855.118 940.597 888.925 922.342C922.732 904.087 968.831 901.845 1003.02 920.1C1035.29 937.073 1052.58 969.42 1055.65 1001.13C1058.73 1032.83 1049.51 1064.54 1037.98 1094.64C1030.3 1115.46 1021.85 1139.48 1035.29 1158.05C1044.13 1170.22 1060.26 1177.27 1075.63 1183.36C1114.81 1199.37 1153.62 1215.38 1192.8 1231.4C1220.08 1242.6 1251.96 1253.81 1279.24 1242.92C1295.37 1236.2 1306.13 1223.07 1315.73 1210.26C1339.55 1177.91 1360.68 1144.28 1379.5 1109.7C1397.56 1076.39 1412.93 1038.6 1397.94 1004.33C1376.82 955.969 1303.06 933.23 1286.15 883.91C1275.01 851.563 1291.53 817.936 1303.82 785.909C1315.73 755.484 1324.57 724.098 1329.56 692.392C1332.64 672.856 1334.17 651.72 1321.88 635.066C1295.76 599.837 1231.98 608.483 1185.88 593.431C1158.99 584.464 1135.94 566.209 1107.13 563.647C1081.01 561.405 1055.65 572.294 1029.53 571.654C966.527 570.372 920.426 505.679 858.191 513.686C837.062 516.248 819.007 527.457 800.183 535.464C764.071 551.157 730.649 541.549 661.115 524.895L661.498 524.575Z" fill="url(#paint0_linear_83_200)" stroke="black" stroke-width="20" stroke-miterlimit="10"/>
<path d="M843.596 768.294C838.217 755.163 848.589 724.098 865.877 703.281C892.769 670.934 939.253 657.162 975.749 670.613C1012.24 683.744 1036.83 723.137 1033.76 764.13C1033.76 766.372 1033.37 768.934 1031.84 770.856C1029.92 773.418 1026.84 774.699 1023.77 775.659C958.462 797.117 851.663 788.15 843.211 768.613L843.596 768.294Z" fill="#FAFCFF" stroke="black" stroke-width="20" stroke-miterlimit="10"/>
<path d="M938.097 773.1C944.462 773.1 949.621 768.798 949.621 763.492C949.621 758.185 944.462 753.884 938.097 753.884C931.732 753.884 926.571 758.185 926.571 763.492C926.571 768.798 931.732 773.1 938.097 773.1Z" fill="black" stroke="black" stroke-width="20" stroke-miterlimit="10"/>
<defs>
<linearGradient id="paint0_linear_83_200" x1="351.476" y1="879.746" x2="1404.86" y2="879.746" gradientUnits="userSpaceOnUse">
<stop stop-color="#FF9340"/>
<stop offset="0.67" stop-color="#F4F046"/>
<stop offset="0.71" stop-color="#D4F35D"/>
<stop offset="0.77" stop-color="#ABF77C"/>
<stop offset="0.84" stop-color="#8CFA94"/>
<stop offset="0.89" stop-color="#75FDA6"/>
<stop offset="0.95" stop-color="#67FEB0"/>
<stop offset="1" stop-color="#63FFB4"/>
</linearGradient>
</defs>
</svg>
