<svg width="1760" height="1760" viewBox="0 0 1760 1760" fill="none" xmlns="http://www.w3.org/2000/svg">
<rect width="1760" height="1760" fill="white"/>
<path d="M512.564 464.113C486.893 464.113 447.261 460.734 436.452 480.258C424.742 501.283 492.749 536.576 417.987 670.239C397.269 707.41 379.705 749.461 390.064 790.01C400.422 829.809 445.008 871.86 483.29 897.016C607.593 979.241 467.527 1121.54 431.046 1203.39C426.993 1212.4 423.39 1222.16 425.642 1231.92C427.894 1240.94 435.1 1248.44 442.306 1255.2C494.099 1302.13 567.961 1331.05 644.525 1334.8C658.036 1335.55 671.997 1335.17 684.607 1331.04C705.325 1323.91 718.836 1306.64 728.744 1289.74C774.232 1210.9 833.682 1071.23 906.192 1035.18C959.786 1008.15 1142.64 1116.28 1223.26 1134.68C1243.07 1139.19 1265.14 1143.69 1284.06 1137.31C1299.37 1132.05 1310.18 1120.79 1319.64 1109.9C1344.41 1081.37 1366.92 1050.95 1385.84 1019.42C1399.35 997.263 1411.06 971.357 1398.45 948.829C1387.19 929.305 1361.52 919.919 1337.2 911.659C1303.42 900.396 1269.64 889.132 1235.42 877.493C1207.04 868.106 1053.01 812.162 1035.9 764.104C1013.83 701.402 1114.71 594.773 1151.65 520.808C1156.6 510.671 1162 499.406 1158.85 488.518C1154.8 473.875 1137.23 464.113 1119.22 461.485C1101.2 458.857 1083.19 461.485 1065.17 461.485C1031.4 462.236 997.167 455.478 967.442 442.337C943.122 431.825 904.84 397.282 878.718 390.524C826.475 376.632 786.392 395.404 736.4 414.553C686.409 433.701 644.525 464.489 512.115 464.489L512.564 464.113Z" fill="#99E6FF" stroke="black" stroke-width="20" stroke-miterlimit="10"/>
<path d="M856.654 677.748C809.365 572.62 717.038 636.072 699.024 720.926C668.848 862.473 786.396 877.116 828.281 851.96C884.127 818.544 876.021 720.926 856.654 677.748Z" fill="white" stroke="black" stroke-width="20" stroke-miterlimit="10"/>
<path d="M775.585 776.868C785.285 776.868 793.149 766.95 793.149 754.716C793.149 742.482 785.285 732.564 775.585 732.564C765.884 732.564 758.02 742.482 758.02 754.716C758.02 766.95 765.884 776.868 775.585 776.868Z" fill="black"/>
</svg>
