<svg width="1760" height="1760" viewBox="0 0 1760 1760" fill="none" xmlns="http://www.w3.org/2000/svg">
<rect width="1760" height="1760" fill="white"/>
<path d="M1280.75 533.002C1180.96 537.573 867.319 544.887 721.467 544.887C684.182 586.941 650.552 631.128 621.308 677.448C601.935 707.922 584.388 744.186 600.472 775.879C615.094 803.915 679.429 838.35 713.059 850.539C768.622 870.957 868.781 893.813 884.5 926.115C896.563 951.103 847.945 1051.67 789.824 1075.13C749.248 1091.59 679.43 1052.28 627.888 1030.03C518.59 982.796 507.259 988.586 495.561 991.024C479.843 994.376 469.241 1006.57 460.468 1017.84C421.72 1068.43 389.188 1122.67 363.965 1179.05C356.654 1194.89 350.805 1214.4 363.233 1227.81C370.91 1236.34 434.149 1248.83 479.842 1251.27C651.648 1260.41 823.82 1261.02 995.625 1252.79C1004.03 1252.49 1012.81 1251.88 1019.39 1247.92C1030.35 1241.52 1023.04 1158.63 1024.5 1120.23C1025.97 1085.8 1050.09 1046.79 1091.4 1044.05C1121.74 1042.22 1149.15 1061.72 1161.58 1084.88C1174.01 1108.04 1174.38 1134.25 1174.38 1159.54C1174.38 1172.34 1174.38 1208.61 1177.67 1214.09C1184.61 1226.59 1204.72 1229.02 1221.17 1229.94C1264.67 1232.07 1308.53 1234.21 1352.03 1236.03C1360.44 1236.34 1369.58 1236.64 1375.79 1231.77C1380.18 1228.42 1382.01 1222.93 1383.1 1218.05C1401.75 1142.17 1376.52 984.929 1372.5 979.444C1360.8 963.598 1196.67 987.976 1172.55 920.02C1146.23 846.273 1199.6 824.027 1237.25 812.447C1258.82 805.743 1286.23 799.953 1301.95 794.468C1311.09 791.115 1296.47 532.088 1281.12 533.002H1280.75Z" fill="#FF6640" stroke="black" stroke-width="20" stroke-miterlimit="10"/>
<path d="M1059.96 759.424C1071.29 760.033 1084.09 760.338 1093.23 758.204C1103.46 755.766 1106.02 751.196 1107.12 746.929C1112.97 728.95 1113.7 710.97 1110.04 692.991C1109.31 689.029 1107.85 685.067 1102 681.411C1089.21 673.792 1059.6 672.269 1034.01 671.355C993.798 669.831 942.988 670.44 926.173 682.934C920.325 687.2 919.959 692.381 920.324 696.953C921.056 710.666 924.71 724.074 930.924 737.482C932.752 741.444 934.946 745.71 942.988 748.758C951.03 751.805 1028.89 757.9 1059.96 759.424Z" fill="white" stroke="black" stroke-width="20" stroke-miterlimit="10"/>
<path d="M1005.5 736.263C1011.55 736.263 1016.46 732.17 1016.46 727.121C1016.46 722.072 1011.55 717.979 1005.5 717.979C999.44 717.979 994.53 722.072 994.53 727.121C994.53 732.17 999.44 736.263 1005.5 736.263Z" fill="black" stroke="black" stroke-width="20" stroke-miterlimit="10"/>
</svg>
