<svg width="1760" height="1760" viewBox="0 0 1760 1760" fill="none" xmlns="http://www.w3.org/2000/svg">
<rect width="1760" height="1760" fill="white"/>
<path d="M660.671 437.578C654.601 421.673 589.993 480.957 567.445 497.223C494.164 551.085 516.278 576.389 516.711 638.926C517.145 701.463 532.322 765.085 518.88 826.899C518.013 831.959 516.278 837.02 512.809 840.996C508.039 846.418 499.8 848.949 491.995 851.479C456.872 862.324 421.317 874.976 393.999 896.665C366.682 918.354 349.337 950.888 358.443 981.252C368.416 1014.87 407.008 1037.64 446.9 1047.04C486.793 1056.44 528.853 1055.36 570.046 1059.33C579.586 1060.06 590.425 1061.86 596.496 1068.01C601.699 1073.07 602.567 1079.58 603.434 1086.08C615.575 1168.86 620.778 1252 619.478 1335.15C619.478 1343.1 619.912 1352.5 628.15 1356.47C632.053 1358.28 636.822 1358.64 641.158 1358.64C686.254 1360.45 730.917 1361.9 776.013 1363.7C801.162 1364.79 828.045 1365.15 849.726 1354.31C892.22 1332.25 901.327 1271.16 950.759 1267.19C990.218 1263.93 1014.93 1300.44 1043.12 1323.94C1066.97 1343.82 1099.92 1356.11 1133.31 1356.11C1166.7 1356.11 1200.52 1342.38 1220.03 1319.6C1232.61 1304.78 1239.11 1286.71 1252.99 1272.97C1279 1247.31 1324.53 1242.25 1357.05 1222.36C1414.73 1187.3 1417.76 1110.3 1374.4 1062.59C1344.48 1030.05 1295.05 1002.94 1295.91 961.732C1296.78 934.982 1319.33 912.932 1337.98 890.881C1367.03 856.179 1387.41 812.077 1370.93 771.952C1354.45 731.827 1303.72 703.994 1297.22 661.7C1290.28 619.045 1331.91 580.727 1334.51 537.711C1334.94 527.589 1331.47 509.153 1306.76 500.116C1285.94 492.525 1286.81 492.886 1205.72 504.815C1153.26 512.407 1144.58 487.464 1078.67 480.235C993.686 470.475 967.236 576.389 814.604 563.376C754.331 558.315 690.157 513.852 660.671 437.578Z" fill="#FFE0F6" stroke="black" stroke-width="20" stroke-miterlimit="10"/>
<path d="M1068.7 859.795C993.254 764.363 847.126 821.84 818.074 899.197C769.943 1027.52 956.83 1040.9 1023.61 1017.76C1112.06 987.4 1099.92 899.197 1068.7 859.795Z" fill="white" stroke="black" stroke-width="20" stroke-miterlimit="10"/>
<path d="M940.355 949.803C955.682 949.803 968.107 940.74 968.107 929.56C968.107 918.38 955.682 909.317 940.355 909.317C925.028 909.317 912.604 918.38 912.604 929.56C912.604 940.74 925.028 949.803 940.355 949.803Z" fill="black"/>
</svg>
