<svg width="1760" height="1760" viewBox="0 0 1760 1760" fill="none" xmlns="http://www.w3.org/2000/svg">
<g clip-path="url(#clip0_10_745)">
<path d="M1760 0H0V1760H1760V0Z" fill="white"/>
<path d="M573.97 400.235C519.533 393.462 459.003 415.136 424.472 450.697C409.441 466.276 400.909 485.58 394.815 504.884C384.659 538.413 381.41 574.99 396.847 607.164C412.691 640.353 446.815 667.785 450.878 703.346C454.534 735.858 431.378 765.661 411.878 793.77C392.378 821.88 374.503 855.747 388.722 886.228C398.878 908.58 424.065 923.481 441.94 942.108C483.784 986.135 478.909 1055.9 431.784 1095.86C400.909 1121.94 354.598 1136.51 333.473 1168.68C309.911 1204.58 326.16 1249.62 350.535 1284.84C380.597 1328.53 434.628 1369.85 493.94 1359.69C541.064 1351.56 571.127 1314.65 599.564 1282.13C628.001 1249.62 667.002 1216.09 714.939 1219.82C766.939 1223.88 797 1268.59 835.187 1298.39C868.905 1324.47 913.999 1340.38 959.905 1339.03C1005.81 1337.68 1050.9 1319.05 1076.9 1287.55C1114.28 1241.83 1107.78 1177.15 1149.22 1133.46C1200 1079.61 1301.56 1079.27 1360.87 1031.52C1394.18 1004.76 1410.03 963.445 1401.9 925.514C1393.78 887.583 1361.68 853.715 1319.43 838.136C1282.87 824.928 1240.62 824.59 1205.68 809.011C1157.34 787.675 1132.56 742.293 1117.12 698.266C1101.68 654.239 1091.94 608.179 1060.25 570.926C1048.87 557.379 1030.59 544.509 1011.91 548.573C1001.75 550.944 994.031 557.379 986.719 563.475C952.594 591.246 911.563 614.952 864.844 623.419C818.126 631.886 765.719 624.097 731.188 596.326C666.594 544.171 688.939 414.121 575.596 399.558L573.97 400.235Z" fill="#5CFF37" stroke="black" stroke-width="20" stroke-miterlimit="10"/>
<path d="M972.908 881.484C902.221 792.075 764.911 845.925 737.692 918.4C692.599 1038.63 867.691 1051.16 930.253 1029.48C1013.13 1001.04 1002.16 918.399 972.908 881.484Z" fill="white" stroke="black" stroke-width="20" stroke-miterlimit="10"/>
<path d="M852.25 965.818C866.61 965.818 878.248 957.327 878.248 946.853C878.248 936.378 866.61 927.887 852.25 927.887C837.891 927.887 826.25 936.378 826.25 946.853C826.25 957.327 837.891 965.818 852.25 965.818Z" fill="black"/>
</g>
<defs>
<clipPath id="clip0_10_745">
<rect width="1760" height="1760" fill="white"/>
</clipPath>
</defs>
</svg>
