<svg width="1760" height="1760" viewBox="0 0 1760 1760" fill="none" xmlns="http://www.w3.org/2000/svg">
<rect width="1760" height="1760" fill="white"/>
<path d="M368.296 1131.74C409.227 1050.43 378.389 962.961 402.499 914.739C426.609 866.517 472.026 832.313 521.368 811.567C566.224 793.063 615.006 784.652 658.18 763.345C720.978 732.506 769.199 673.069 787.141 605.223C796.673 569.337 797.795 531.208 811.812 497.004C834.801 440.372 894.235 400 955.352 400C1016.47 400 1076.46 438.69 1100.01 495.322C1122.44 548.029 1116.27 614.194 1155.52 655.687C1179.63 681.48 1216.08 691.573 1248.6 706.713C1308.03 734.188 1358.5 784.092 1377.56 846.331C1396.63 908.571 1378.68 983.707 1327.66 1024.08C1291.21 1052.68 1240.19 1064.45 1213.84 1102.58C1188.04 1140.15 1194.77 1190.05 1185.8 1234.35C1174.03 1293.78 1130.85 1345.37 1075.34 1368.36C1031.05 1386.86 973.295 1384.62 941.334 1348.73C887.507 1288.74 927.317 1169.87 857.229 1130.62C819.101 1109.31 769.759 1128.37 739.482 1159.21C709.204 1190.05 690.14 1230.42 664.348 1265.75C638.555 1301.07 604.913 1320.7 561.178 1317.33C493.333 1312.29 304.376 1261.82 369.418 1132.3L368.296 1131.74Z" fill="#424242" stroke="black" stroke-width="20" stroke-miterlimit="10"/>
<path d="M884.707 711.197C810.133 756.054 796.115 882.216 840.971 957.913C848.261 970.249 856.671 981.463 867.885 989.874C881.903 1001.09 899.285 1006.13 917.227 1009.5C981.147 1021.27 1051.24 1002.77 1095.53 952.866C1139.83 902.962 1151.04 820.537 1114.03 764.465C1091.61 729.701 1054.04 708.393 1015.35 698.861C976.662 689.329 945.263 674.19 884.707 710.636V711.197Z" fill="white" stroke="black" stroke-width="20" stroke-miterlimit="10"/>
<path d="M976.659 897.356C994.001 897.356 1008.06 882.545 1008.06 864.274C1008.06 846.003 994.001 831.191 976.659 831.191C959.318 831.191 945.26 846.003 945.26 864.274C945.26 882.545 959.318 897.356 976.659 897.356Z" fill="black"/>
</svg>
