<svg width="1760" height="1760" viewBox="0 0 1760 1760" fill="none" xmlns="http://www.w3.org/2000/svg">
<rect width="1760" height="1760" fill="white"/>
<path d="M908.407 433.208C890.496 384.591 818.424 351.328 770.236 370.518C722.047 389.709 691.344 440.031 685.373 491.632C681.109 527.881 687.079 564.13 685.373 600.806C683.667 637.481 671.729 675.863 641.877 696.333C631.216 703.582 618.423 708.273 609.894 718.082C597.527 732.582 597.953 753.904 599.233 773.095C602.218 821.711 605.628 872.46 629.936 915.106C655.096 959.031 701.579 992.295 709.681 1042.19C716.078 1081 694.757 1119.38 666.185 1146.25C634.202 1176.1 581.32 1182.92 554.454 1217.46C525.882 1254.14 522.045 1348.39 539.529 1371.84C548.484 1383.78 563.411 1389.75 577.91 1394.02C618.423 1405.53 661.494 1407.24 702.859 1398.71C722.902 1394.45 743.37 1388.05 759.575 1375.25C789.426 1352.65 802.646 1313.84 808.19 1276.74C813.734 1239.64 812.882 1201.69 822.691 1165.01C832.499 1128.34 855.1 1092.94 890.921 1081.42C903.288 1077.59 916.936 1076.73 929.302 1081.42C954.889 1091.23 965.977 1120.23 972.374 1146.67C979.624 1177.8 984.315 1209.79 985.594 1242.2C986.873 1267.79 986.872 1295.93 1003.5 1315.12C1016.3 1329.62 1035.91 1336.02 1054.68 1340.71C1081.12 1347.53 1108.41 1352.65 1135.28 1356.06C1145.94 1357.34 1156.6 1358.62 1167.26 1355.64C1194.98 1347.53 1206.07 1314.7 1211.61 1286.12C1223.55 1223.01 1226.96 1158.19 1230.8 1094.22C1244.02 863.078 1143.81 757.316 1131.86 747.081C1112.25 730.449 898.171 705.288 904.568 616.585C907.553 575.645 939.11 514.235 909.685 434.061L908.407 433.208Z" fill="#FFE0F6" stroke="black" stroke-width="20" stroke-miterlimit="10"/>
<path d="M1110.97 1002.1C1124.19 985.473 1107.98 936.004 1099.45 904.872C1096.47 893.358 1093.06 881.417 1087.09 872.461C1077.28 857.535 1064.06 855.83 1052.54 856.682C1030.37 857.962 1009.04 862.653 989.001 871.608C985.589 873.314 981.752 875.02 979.193 878.858C973.223 887.814 974.929 905.299 977.062 921.078C980.9 947.945 985.591 974.812 991.135 1001.68C992.414 1008.5 994.119 1015.75 997.53 1021.3C1003.07 1030.25 1010.75 1031.1 1017.15 1031.1C1052.97 1031.1 1093.48 1025.13 1110.97 1002.96V1002.1Z" fill="white" stroke="black" stroke-width="20" stroke-miterlimit="10"/>
<path d="M1086.66 1007.65C1093.26 1007.65 1098.6 1001.92 1098.6 994.853C1098.6 987.787 1093.26 982.059 1086.66 982.059C1080.07 982.059 1074.72 987.787 1074.72 994.853C1074.72 1001.92 1080.07 1007.65 1086.66 1007.65Z" fill="black" stroke="black" stroke-width="20" stroke-miterlimit="10"/>
</svg>
