<svg width="1760" height="1760" viewBox="0 0 1760 1760" fill="none" xmlns="http://www.w3.org/2000/svg">
<rect width="1760" height="1760" fill="white"/>
<path d="M547.075 377.04C516.14 377.04 484.206 377.04 471.732 400.749C459.259 424.459 464.247 451.496 470.234 476.454C487.697 550.494 518.634 632.022 599.465 666.13C624.911 676.945 653.352 681.936 680.794 689.007C744.661 705.646 808.526 740.169 826.988 793.828C839.461 829.184 829.484 868.7 806.532 900.313C783.58 931.925 748.651 956.883 710.73 976.017C656.344 1003.47 593.477 1021.77 549.07 1060.04C492.189 1109.54 477.221 1182.33 471.732 1250.55C468.24 1295.47 470.234 1346.63 510.649 1376.58C541.584 1399.46 586.992 1402.79 628.405 1403.62C725.202 1404.87 822.497 1397.38 917.298 1381.16C993.638 1368.27 1070.48 1349.13 1134.34 1311.28C1234.63 1252.63 1293.01 1153.63 1315.96 1053.39C1338.91 953.14 1330.93 849.567 1322.45 747.657C1316.96 681.104 1310.47 612.471 1275.05 552.573C1222.66 463.559 1111.89 405.325 996.134 382.864C880.376 360.402 816.51 376.623 546.576 376.623L547.075 377.04Z" fill="#3EC790" stroke="black" stroke-width="20" stroke-miterlimit="10"/>
<path d="M887.86 1152.38C895.843 1164.45 887.861 1192.73 870.397 1211.87C843.953 1241.81 794.057 1255.54 751.147 1244.31C708.237 1233.08 676.804 1198.14 675.308 1161.12C675.308 1159.04 675.306 1156.96 676.303 1154.88C677.8 1152.38 681.295 1151.14 684.788 1150.3C755.14 1129.51 875.887 1134.5 887.363 1152.38H887.86Z" fill="#FAFCFF" stroke="black" stroke-width="20" stroke-miterlimit="10"/>
<path d="M783.081 1171.52C789.97 1171.52 795.555 1166.86 795.555 1161.12C795.555 1155.37 789.97 1150.72 783.081 1150.72C776.192 1150.72 770.607 1155.37 770.607 1161.12C770.607 1166.86 776.192 1171.52 783.081 1171.52Z" fill="black" stroke="black" stroke-width="20" stroke-miterlimit="10"/>
</svg>
