<svg width="1760" height="1760" viewBox="0 0 1760 1760" fill="none" xmlns="http://www.w3.org/2000/svg">
<rect width="1760" height="1760" fill="white"/>
<path d="M730.835 360.184C672.604 363.242 663.434 438.16 647.844 485.176C632.255 532.191 609.788 584.176 556.601 604.434C527.715 615.519 492.868 615.519 468.567 632.72C442.432 651.067 438.305 682.412 436.013 711.08C423.633 877.354 427.76 1044.39 447.475 1210.29C448.393 1219.84 450.227 1229.78 456.646 1237.81C467.191 1249.66 486.907 1252.71 504.331 1254.24C555.684 1258.45 607.495 1259.21 658.849 1256.54C673.521 1255.77 688.652 1254.62 701.031 1248.13C736.795 1230.16 731.293 1186.59 724.874 1152.18C718.455 1117.02 716.162 1079.56 733.127 1046.69C750.092 1013.81 790.441 987.057 833.082 990.88C864.719 993.938 892.23 1013.05 907.361 1036.75C922.492 1060.45 927.077 1087.59 928.452 1113.96C932.579 1193.85 909.653 1272.59 886.728 1349.8C884.435 1358.21 881.684 1367 883.977 1375.41C890.855 1400.26 930.745 1404.85 961.465 1404.08C1005.48 1402.93 1049.96 1401.41 1093.97 1400.26C1108.65 1399.88 1124.24 1399.11 1137.07 1393.38C1163.67 1381.53 1171 1352.86 1174.67 1328.01C1186.13 1246.98 1189.34 1165.18 1183.84 1083.76C1182.01 1058.54 1182.01 1028.72 1206.77 1014.2C1219.15 1006.93 1234.28 1005.4 1248.95 1002.35C1304.43 991.261 1353.95 954.184 1364.95 907.551C1375.96 860.917 1341.57 807.404 1286.09 795.554C1249.87 787.527 1208.6 795.554 1176.96 779.5C1145.79 763.446 1136.16 729.809 1134.78 699.612C1133.41 669.415 1137.53 637.69 1123.78 609.404C1115.98 593.732 1102.23 579.589 1083.43 573.091C1039.41 558.565 992.185 591.438 944.959 588.38C889.02 584.94 856.008 534.867 842.252 489.762C828.497 444.658 830.331 354.45 731.293 360.184H730.835Z" fill="#3EC790" stroke="black" stroke-width="20" stroke-miterlimit="10"/>
<path d="M704.701 807.403C694.155 836.453 684.985 871.236 708.828 894.171C723.958 908.696 748.259 913.666 771.185 916.341C800.071 919.782 830.333 920.545 857.843 913.283C885.354 906.02 911.489 889.202 921.118 866.268C931.663 841.805 922.952 814.665 911.947 790.584C891.773 745.48 863.345 701.522 818.411 671.325C813.368 667.885 808.324 664.827 802.364 663.68C788.608 660.622 773.936 668.267 766.6 678.205C759.264 688.144 717.081 773.383 704.701 807.02V807.403Z" fill="white" stroke="black" stroke-width="20" stroke-miterlimit="10"/>
<path d="M809.701 848.305C825.401 848.305 838.129 839.063 838.129 827.663C838.129 816.264 825.401 807.022 809.701 807.022C794.001 807.022 781.273 816.264 781.273 827.663C781.273 839.063 794.001 848.305 809.701 848.305Z" fill="#030005"/>
</svg>
