<svg width="1760" height="1760" viewBox="0 0 1760 1760" fill="none" xmlns="http://www.w3.org/2000/svg">
<rect width="1760" height="1760" fill="white"/>
<path d="M712.424 356C627.103 358.797 593.071 453.901 564.311 520.634C535.551 587.366 500.56 662.091 421.95 690.062C415.24 692.46 407.57 694.858 403.736 700.452C400.38 705.247 400.86 710.841 401.339 716.036C404.694 749.202 408.05 782.369 411.405 815.136C421.471 913.437 518.775 868.282 583.484 910.639C625.186 937.812 640.045 988.562 622.31 1030.12C604.575 1071.68 557.601 1102.45 505.833 1110.84C490.974 1113.24 473.718 1114.83 465.09 1125.22C459.817 1131.22 458.859 1139.21 457.9 1146.4C450.231 1218.73 448.313 1291.86 452.148 1364.18C452.627 1374.97 454.065 1386.56 463.652 1393.75C470.842 1398.95 480.908 1400.15 490.494 1400.55C573.898 1406.94 657.781 1404.14 740.225 1392.55C758.44 1390.16 778.572 1385.76 788.638 1372.57C793.91 1365.38 795.348 1356.19 795.828 1347.8C798.224 1302.24 788.638 1253.09 817.397 1214.33C838.967 1184.76 882.107 1167.18 923.329 1171.18C964.552 1175.17 1001.94 1199.95 1014.88 1233.11C1032.14 1275.47 1014.88 1331.82 1058.5 1358.59C1077.19 1370.18 1101.64 1371.37 1125.13 1372.57C1180.25 1374.97 1235.37 1377.37 1290.5 1380.17C1295.77 1380.17 1301.52 1380.57 1306.31 1378.17C1312.55 1375.37 1314.94 1369.38 1316.86 1363.78C1338.91 1298.65 1343.22 1229.92 1330.28 1163.18C1328.36 1153.99 1325.97 1144.4 1318.78 1137.21C1305.83 1123.63 1281.87 1122.83 1261.26 1120.83C1225.79 1117.23 1189.84 1104.84 1168.75 1080.87C1148.61 1057.29 1146.22 1024.53 1160.6 998.551C1174.98 972.577 1204.7 952.598 1238.25 945.405C1251.67 942.209 1267.49 940.609 1276.6 931.818C1281.87 926.623 1284.26 919.83 1286.66 913.037C1307.27 847.903 1318.3 781.17 1320.21 713.638C1320.69 690.462 1320.21 666.486 1308.23 645.308C1296.25 624.129 1271.32 606.947 1243.52 608.146C1204.7 610.144 1181.69 643.709 1155.8 667.685C1124.65 696.456 1078.63 714.437 1032.14 714.437C985.642 714.437 939.147 695.257 912.784 663.289C895.528 642.11 887.38 616.137 879.71 591.362C869.165 557.796 859.099 524.23 848.554 490.664C840.405 463.891 831.777 436.318 814.521 412.742C797.266 389.166 771.382 354.401 712.424 356.399V356Z" fill="#FFFAFC" stroke="black" stroke-width="20" stroke-miterlimit="10"/>
<path d="M689.896 727.223C672.641 799.55 744.54 947.001 806.853 1032.91C816.919 1046.9 826.985 1059.29 837.051 1068.08C849.993 1079.27 861.497 1083.66 871.563 1084.86C908.95 1090.06 933.875 1056.89 929.082 989.358C924.289 921.826 886.422 819.53 838.968 756.394C809.729 717.233 780.01 696.454 755.565 690.859C731.119 685.265 700.442 680.87 689.417 726.824L689.896 727.223Z" fill="white" stroke="black" stroke-width="20" stroke-miterlimit="10"/>
<path d="M842.148 938.519C850.617 935.977 849.703 915.905 840.108 893.687C830.513 871.469 815.87 855.518 807.401 858.06C798.933 860.602 799.846 880.674 809.441 902.891C819.036 925.109 833.679 941.06 842.148 938.519Z" fill="black"/>
</svg>
