<svg width="1760" height="1760" viewBox="0 0 1760 1760" fill="none" xmlns="http://www.w3.org/2000/svg">
<path d="M1760 0H0V1760H1760V0Z" fill="white"/>
<path d="M742.819 397.403C610.308 406.052 626.341 484.679 554.662 513.377C547.117 516.522 539.1 518.88 532.97 523.991C522.124 532.64 520.238 546.793 519.294 559.374C512.692 632.889 502.789 706.404 488.642 779.133C486.284 792.106 473.552 818.838 464.592 829.846C449.973 847.536 376.408 834.564 356.13 895.892C348.585 919.087 346.699 942.281 358.017 963.903C393.856 1030.73 504.676 1021.3 509.863 1025.62C516.937 1031.52 518.823 1040.17 520.237 1048.43C528.254 1096.78 529.197 1146.31 524.01 1194.67C519.766 1232.02 511.749 1272.12 531.084 1305.93C551.361 1341.7 601.348 1363.32 648.977 1359C696.606 1354.67 738.575 1326.37 756.967 1289.81C769.227 1265.04 771.114 1237.91 777.244 1211.97C784.318 1182.48 797.05 1153 821.572 1131.38C846.094 1109.75 884.291 1096.78 919.187 1104.64C967.759 1116.04 991.809 1161.25 1002.18 1202.53C1012.56 1243.81 1017.75 1288.63 1051.7 1320.08C1073.39 1340.13 1104.99 1351.53 1136.58 1358.6C1155.45 1362.93 1175.72 1365.68 1194.59 1361.36C1231.84 1352.32 1250.7 1318.9 1264.85 1288.63C1287.01 1239.88 1308.23 1184.05 1281.83 1136.88C1265.79 1108.18 1235.14 1087.35 1205.43 1067.3C1175.72 1047.25 1146.01 1025.23 1132.81 995.354C1119.61 965.476 1129.98 926.163 1164.88 913.19C1195.53 901.789 1232.78 914.369 1265.32 906.9C1307.29 897.072 1327.1 857.758 1338.89 822.77C1378.5 706.403 1412.45 484.285 1409.15 477.209C1395.48 445.758 1324.27 488.61 1168.18 451.263C1146.01 446.152 1124.32 431.607 1103.57 440.255C1092.25 444.973 1085.18 454.407 1076.22 461.484C1048.87 483.499 1004.54 483.5 969.646 472.099C934.749 460.698 905.04 439.468 873.445 422.171C841.85 404.873 805.067 393.866 743.291 397.797L742.819 397.403Z" fill="#E6E1E1" stroke="black" stroke-width="20" stroke-miterlimit="10"/>
<path d="M799 655.687C853.231 658.832 895.137 695.003 913.056 737.461C917.3 747.682 920.601 758.689 920.13 769.696C919.187 790.532 904.568 809.403 885.705 823.556C852.695 848.323 805.538 859.33 762.153 852.647C757.437 851.861 752.722 850.681 750.364 847.536C748.949 845.177 748.949 842.425 748.949 840.067C750.836 790.532 756.494 740.999 765.926 691.857C768.755 676.525 775.357 654.903 795.163 655.689L799 655.687Z" fill="white" stroke="black" stroke-width="20" stroke-miterlimit="10"/>
<path d="M849.124 771.102C851.803 763.385 845.862 755.172 835.855 752.758C825.848 750.343 815.563 754.642 812.885 762.359C810.206 770.075 816.148 778.288 826.155 780.703C836.162 783.117 846.445 778.818 849.124 771.102Z" fill="black"/>
</svg>
