<svg width="1760" height="1760" viewBox="0 0 1760 1760" fill="none" xmlns="http://www.w3.org/2000/svg">
<rect width="1760" height="1760" fill="white"/>
<path d="M637.137 443.817C625.245 538.511 605.152 631.839 575.217 723.457C565.375 753.882 550.203 787.726 515.347 799.349C489.512 807.896 435.383 804.819 412.009 817.468C279.967 887.89 492.383 976.089 510.836 1001.05C534.62 1033.18 528.059 1066.34 515.347 1102.58C502.635 1138.81 483.771 1174.37 480.901 1212.31C480.081 1223.59 481.721 1236.58 491.973 1243.76C498.124 1248.21 506.735 1249.92 514.527 1251.28C710.54 1286.84 906.553 1322.39 1102.57 1357.94C1112.82 1360 1123.89 1361.7 1134.14 1358.63C1146.44 1354.87 1153.42 1344.27 1159.16 1334.7C1199.75 1270.09 1236.66 1204.45 1270.69 1137.45C1275.62 1128.22 1280.13 1117.62 1276.03 1108.05C1272.34 1099.5 1262.49 1094.03 1253.06 1089.59C1200.16 1062.92 1138.24 1037.28 1117.74 988.738C1097.24 940.878 1131.27 882.079 1188.68 865.328C1218.21 856.781 1252.24 858.148 1276.85 842.765C1297.76 830.116 1307.6 808.579 1315.8 788.067C1346.15 714.91 1370.34 639.701 1388.38 563.809C1390.85 552.87 1393.31 540.562 1385.92 531.332C1376.49 519.709 1356.81 518.343 1339.59 517.317C1285.05 514.24 1219.03 519.368 1186.22 483.131C1178.02 474.243 1159.98 462.62 1147.67 467.064C1141.11 469.457 1137.01 474.584 1132.09 479.028C1065.25 534.751 1027.93 547.742 903.273 503.301C831.51 477.661 773.281 428.775 637.137 443.817Z" fill="#B0FCA4" stroke="black" stroke-width="20" stroke-miterlimit="10"/>
<path d="M837.656 1014.04C852.828 1019.85 870.462 1026 885.634 1023.95C902.447 1021.9 910.648 1010.96 916.389 1001.05C942.224 958.655 961.497 913.53 974.209 867.379C977.08 857.123 979.54 846.526 974.209 835.586C963.547 811.656 924.181 795.93 888.915 783.623C833.965 764.479 762.203 746.02 725.707 770.291C712.995 778.838 707.664 791.145 703.563 803.452C691.261 837.979 682.65 873.19 678.139 909.427C676.909 920.024 676.089 931.648 683.88 942.246C691.671 952.843 795.829 998.31 837.246 1014.38L837.656 1014.04Z" fill="white" stroke="black" stroke-width="20" stroke-miterlimit="10"/>
<path d="M855.424 887.323C859.992 875.856 849.408 862.604 831.784 857.725C814.159 852.846 796.168 858.187 791.6 869.655C787.032 881.122 797.617 894.374 815.242 899.253C832.866 904.132 850.856 898.791 855.424 887.323Z" fill="black"/>
</svg>
