<svg width="1760" height="1760" viewBox="0 0 1760 1760" fill="none" xmlns="http://www.w3.org/2000/svg">
<rect width="1760" height="1760" fill="white"/>
<path d="M615.947 528.203C593.386 596.94 570.824 665.335 548.262 734.073C540.058 759.037 529.803 786.396 503.139 800.075C490.832 806.231 476.475 808.966 462.938 812.386C417.815 823.329 373.101 847.952 359.974 885.569C341.925 936.524 388.279 988.162 439.966 1018.94C551.954 1085.97 695.119 1101.7 827.618 1134.19C846.077 1138.63 865.767 1144.45 877.663 1157.1C892.021 1172.49 891.2 1194.03 888.329 1213.53C882.176 1254.9 871.1 1299.36 894.072 1336.29C921.146 1380.07 996.625 1396.48 1045.85 1369.47C1104.1 1337.32 1067.18 1270.98 1094.67 1217.29C1100 1207.03 1106.56 1196.77 1116.41 1189.24C1129.12 1179.33 1146.76 1174.88 1161.12 1166.67C1192.3 1148.55 1205.01 1115.38 1215.27 1084.6C1268.19 927.29 1340.79 773.4 1374.02 612.671C1384.69 562.058 1383.05 521.022 1357.61 517.944C1241.11 505.291 1196.4 465.963 1182.45 462.885C1139.79 453.994 1106.56 478.958 1064.31 487.85C957.245 510.762 816.952 484.088 734.909 475.197C620.05 462.543 624.562 503.238 616.358 528.203H615.947Z" fill="#424242" stroke="black" stroke-width="20" stroke-miterlimit="10"/>
<path d="M923.197 952.254C938.375 958.067 956.015 964.223 971.193 962.171C988.011 960.119 996.216 949.176 1001.96 939.258C1027.8 896.853 1047.08 851.712 1059.8 805.545C1062.67 795.286 1065.13 784.685 1059.8 773.741C1049.13 749.803 1009.75 734.072 974.474 721.761C919.506 702.611 847.718 684.143 811.209 708.424C798.493 716.973 793.16 729.284 789.058 741.595C776.751 776.135 768.137 811.359 763.625 847.609C762.394 858.21 761.573 869.837 769.367 880.438C777.162 891.039 881.356 936.523 922.787 952.596L923.197 952.254Z" fill="white" stroke="black" stroke-width="20" stroke-miterlimit="10"/>
<path d="M940.624 825.144C945.193 813.672 934.606 800.416 916.975 795.535C899.345 790.655 881.347 795.997 876.778 807.469C872.208 818.941 882.797 832.197 900.428 837.078C918.058 841.959 936.054 836.616 940.624 825.144Z" fill="black"/>
</svg>
