<svg width="1760" height="1760" viewBox="0 0 1760 1760" fill="none" xmlns="http://www.w3.org/2000/svg">
<rect width="1760" height="1760" fill="white"/>
<path d="M1137.62 579.536L1165 478.701C1167.28 470.774 1169.19 461.579 1163.86 454.92C1159.68 449.529 1152.07 446.676 1144.46 444.456C1091.59 427.334 1038.34 409.894 985.473 392.771C952.002 381.99 804.803 306.523 705.149 504.069C691.456 531.022 684.61 560.194 668.255 586.195C659.126 600.464 646.574 613.465 638.206 628.051C624.513 651.832 621.471 678.784 617.667 704.786C601.312 818.937 562.134 930.236 517.633 1039C490.247 1106.22 460.959 1173.44 449.929 1243.84C448.788 1250.18 448.027 1257.15 451.831 1263.18C456.395 1270.47 466.665 1273.64 476.174 1276.18C583.435 1305.98 690.696 1335.79 797.957 1365.6C865.66 1384.31 934.505 1403.33 1006.01 1403.65C1020.85 1403.65 1036.44 1402.7 1048.99 1396.36C1062.31 1389.7 1070.29 1377.96 1077.52 1366.55C1141.04 1267.93 1187.06 1161.71 1214.45 1052.31C1218.25 1037.09 1221.68 1021.24 1215.97 1006.34C1201.9 970.189 1144.46 962.896 1110.61 936.894C1070.67 906.454 1069.53 854.769 1074.86 809.425C1083.61 734.91 1114.8 664.515 1138 579.853L1137.62 579.536Z" fill="#7968D9" stroke="black" stroke-width="20" stroke-miterlimit="10"/>
<path d="M811.269 1169.95C825.343 1175.34 841.698 1181.05 855.772 1179.15C871.366 1177.25 878.973 1167.1 884.298 1157.9C908.261 1118.58 926.138 1076.73 937.929 1033.92C940.591 1024.41 942.873 1014.58 937.929 1004.43C928.039 982.237 891.525 967.65 858.814 956.235C807.846 938.478 741.284 921.356 707.432 943.869C695.641 951.796 690.696 963.212 686.892 974.627C675.482 1006.65 667.494 1039.31 663.31 1072.92C662.169 1082.75 661.408 1093.53 668.635 1103.36C675.862 1113.19 772.473 1155.37 810.889 1170.27L811.269 1169.95Z" fill="white" stroke="black" stroke-width="20" stroke-miterlimit="10"/>
<path d="M827.63 1052.27C831.867 1041.63 822.049 1029.34 805.702 1024.82C789.354 1020.29 772.667 1025.24 768.43 1035.88C764.193 1046.52 774.01 1058.81 790.358 1063.34C806.706 1067.86 823.393 1062.91 827.63 1052.27Z" fill="black"/>
</svg>
