<svg width="1760" height="1760" viewBox="0 0 1760 1760" fill="none" xmlns="http://www.w3.org/2000/svg">
<g clip-path="url(#clip0_10_757)">
<path d="M1760 0H0V1760H1760V0Z" fill="white"/>
<path d="M863.546 509.019C821.668 476.928 837.742 460.707 817.015 445.896C800.095 433.906 791.635 434.611 741.72 432.495C676.155 429.322 650.775 376.779 577.595 409.927C490.033 449.775 506.107 537.934 475.651 574.609C451.117 604.231 450.694 608.815 451.963 619.042C455.347 645.843 516.683 653.248 542.909 669.469C601.283 705.791 614.396 774.203 615.242 834.857C616.934 929.365 597.477 1030.22 520.49 1099.69C495.956 1121.55 465.922 1140.24 448.579 1166.34C428.698 1196.31 427.429 1232.28 429.967 1266.49C431.236 1284.12 433.774 1303.16 447.31 1316.92C462.538 1332.08 487.072 1337.02 510.338 1340.54C581.402 1351.47 653.736 1357.82 725.646 1359.59C750.18 1359.94 775.138 1359.94 797.98 1352.53C841.126 1338.78 867.775 1301.4 878.773 1264.02C889.771 1226.64 889.348 1187.5 896.116 1149.06C899.077 1131.78 904.154 1113.8 917.69 1100.39C931.649 1086.29 953.222 1079.24 974.372 1073.95C1022.59 1061.6 1082.24 1059.14 1115.66 1090.17C1138.92 1112.03 1141.88 1143.77 1140.61 1172.69C1138.92 1212.89 1132.15 1252.74 1121.58 1291.53C1118.62 1302.11 1115.23 1313.04 1117.77 1323.97C1123.69 1351.12 1163.45 1364.17 1196.03 1359.59C1233.25 1354.3 1264.55 1332.43 1284.43 1305.98C1304.31 1279.54 1314.04 1248.5 1320.81 1217.47C1330.54 1170.92 1333.92 1123.67 1330.96 1076.77C1328.85 1044.33 1320.39 1008 1287.39 990.724C1269.21 981.203 1246.79 979.44 1225.64 977.324C1185.45 973.092 1144.84 965.334 1111 946.291C1077.16 927.249 1051.78 895.864 1053.05 862.363C1053.47 847.2 1061.09 830.625 1077.16 823.573C1107.62 810.172 1143.15 836.621 1176.99 832.741C1217.18 828.157 1232.83 787.604 1239.6 754.455C1252.29 693.801 1264.55 632.794 1264.13 571.082C1264.13 547.456 1261.59 522.771 1248.48 501.612C1235.36 480.454 1209.98 462.822 1181.64 463.175C1143.57 463.175 1116.08 491.386 1090.27 514.308C1059.4 541.814 997.215 611.637 863.546 509.019Z" fill="#FF82C1" stroke="black" stroke-width="20" stroke-miterlimit="10"/>
<path d="M890.616 942.061C841.971 945.587 795.44 919.492 772.175 883.875C766.676 875.412 762.023 865.891 760.331 856.017C757.793 837.327 767.522 818.989 781.481 804.179C806.438 778.436 846.201 763.272 885.963 763.977C890.193 763.977 894.846 764.683 897.384 767.152C899.076 768.915 899.498 771.383 899.921 773.499C906.69 817.579 910.074 862.364 910.074 906.797C910.074 920.902 907.959 941.003 890.616 942.061Z" fill="white" stroke="black" stroke-width="20" stroke-miterlimit="10"/>
<path d="M900.313 855.273C901.747 845.609 894.076 836.864 883.178 835.741C872.281 834.618 862.285 841.541 860.852 851.205C859.418 860.87 867.09 869.614 877.987 870.737C888.884 871.861 898.88 864.937 900.313 855.273Z" fill="black"/>
</g>
<defs>
<clipPath id="clip0_10_757">
<rect width="1760" height="1760" fill="white"/>
</clipPath>
</defs>
</svg>
