<svg width="1760" height="1760" viewBox="0 0 1760 1760" fill="none" xmlns="http://www.w3.org/2000/svg">
<g clip-path="url(#clip0_10_751)">
<path d="M1760 0H0V1760H1760V0Z" fill="white"/>
<path d="M710.18 552.107C654.248 516.108 616.412 521.592 600.784 524.335C585.156 527.078 569.528 537.364 569.117 550.735C569.117 557.592 572.407 564.107 575.697 570.278C617.646 654.962 601.607 750.617 585.156 841.129C579.81 870.957 569.117 906.613 534.982 916.556C500.437 926.841 452.319 890.5 414.894 911.071C391.041 924.099 377.47 988.554 451.908 1030.04C577.753 1100.32 642.733 1014.95 677.279 1163.07C691.673 1223.75 678.924 1287.52 662.473 1347.86C660.417 1355.75 657.949 1364.32 660.828 1372.2C667.408 1389 692.907 1393.12 713.881 1394.15C825.333 1399.98 936.784 1403.06 1048.24 1404.09C1060.16 1404.09 1072.5 1404.09 1082.78 1399.63C1101.29 1391.4 1108.28 1371.18 1104.17 1354.03C1100.05 1336.89 1088.13 1321.81 1077.44 1307.06C1058.11 1281.01 1040.83 1251.52 1047.41 1221.35C1053.99 1191.18 1095.12 1165.81 1127.2 1180.21C1136.66 1184.32 1144.06 1191.52 1151.05 1198.04C1182.31 1228.21 1210.27 1281.69 1257.16 1288.21C1269.9 1289.92 1263.74 1090.04 1263.74 952.898C1263.74 935.07 1262.91 915.527 1249.75 901.813C1231.66 882.957 1199.17 881.585 1171.61 873.699C1132.95 862.728 1101.7 835.643 1089.36 803.072C1085.25 792.101 1083.19 780.102 1087.31 769.131C1094.71 747.531 1120.62 735.531 1141.59 721.474C1211.51 674.503 1238.65 593.591 1203.28 524.678C1139.54 401.595 984.901 332.682 929.381 363.196C895.658 382.053 904.295 429.709 907.996 463.308C911.697 496.907 916.221 518.508 886.199 553.135C859.467 583.992 803.125 611.763 710.18 552.107Z" fill="#DEB0FF" stroke="black" stroke-width="20" stroke-miterlimit="10"/>
<path d="M918.689 1029.7C871.394 1033.13 826.155 1007.75 803.536 973.128C798.19 964.899 793.666 955.642 792.021 946.042C789.553 927.871 799.012 910.043 812.584 895.643C836.848 870.615 875.507 855.872 914.165 856.558C918.278 856.558 922.802 857.244 925.27 859.644C926.915 861.358 927.326 863.758 927.737 865.815C934.317 908.672 937.607 952.213 937.607 995.413C937.607 1009.13 935.551 1028.67 918.689 1029.7Z" fill="white" stroke="black" stroke-width="20" stroke-miterlimit="10"/>
<path d="M885.308 940.984C886.34 934.031 879.867 927.641 870.85 926.711C861.833 925.782 853.688 930.665 852.657 937.618C851.625 944.571 858.098 950.961 867.115 951.89C876.131 952.82 884.277 947.937 885.308 940.984Z" fill="black"/>
</g>
<defs>
<clipPath id="clip0_10_751">
<rect width="1760" height="1760" fill="white"/>
</clipPath>
</defs>
</svg>
