<svg width="1760" height="1760" viewBox="0 0 1760 1760" fill="none" xmlns="http://www.w3.org/2000/svg">
<rect width="1760" height="1760" fill="white"/>
<path d="M578.61 777.465C537.307 777.883 496.838 797.075 483.07 835.875C469.303 874.676 477.647 917.649 490.997 956.867C504.348 996.085 522.704 1033.22 529.38 1074.1C536.472 1117.91 529.38 1162.97 525.208 1207.19C521.036 1251.42 521.453 1298.15 541.061 1338.2C560.67 1378.25 605.728 1408.71 649.117 1398.28C666.639 1394.11 682.076 1384.09 696.678 1373.25C735.06 1344.46 769.271 1309.41 796.806 1270.19C805.15 1258.51 813.077 1246 824.759 1237.23C851.46 1216.79 890.259 1222.21 921.132 1235.57C952.005 1248.92 980.375 1268.94 1013.33 1276.45C1081.34 1291.89 1153.1 1245.16 1182.72 1181.74C1212.34 1118.33 1207.75 1044.06 1188.98 976.476C1172.29 917.232 1145.59 859.656 1145.59 798.326C1145.59 735.744 1174.79 677.334 1191.06 617.256C1210.67 546.33 1213.17 471.231 1198.99 399.053C1194.82 379.027 1183.55 354.412 1163.11 356.08C1152.26 356.915 1144.34 365.259 1135.99 372.352C1104.7 398.636 1060.9 409.484 1021.26 400.305C991.64 393.63 964.104 376.524 933.648 374.021C879.412 369.014 830.182 411.153 808.488 460.801C786.793 510.449 786.793 566.773 786.376 621.011C785.959 675.248 784.29 731.572 760.51 780.386C747.159 807.088 726.299 831.703 698.347 841.716C670.394 851.729 634.932 844.637 618.244 819.604C605.31 800.412 602.39 777.465 579.027 777.465H578.61Z" fill="#FCFFA6" stroke="black" stroke-width="20" stroke-miterlimit="10"/>
<path d="M891 637C880.987 590.272 909.031 545.496 947.831 517.126C957.426 510.45 967.439 504.192 979.121 501.689C1000.82 496.682 1023.76 503.358 1042.54 515.04C1075.91 535.9 1098.44 572.615 1102.61 611.416C1102.61 615.588 1103.03 620.177 1100.11 623.098C1098.02 625.184 1095.52 625.601 1092.6 626.435C1041.28 639.369 989.551 648.965 937.401 655.64C921.13 657.726 897.5 655.64 892.5 641L891 637Z" fill="white" stroke="black" stroke-width="20" stroke-miterlimit="10"/>
<path d="M1048.79 567.608C1057.32 567.608 1064.23 560.137 1064.23 550.92C1064.23 541.703 1057.32 534.231 1048.79 534.231C1040.27 534.231 1033.36 541.703 1033.36 550.92C1033.36 560.137 1040.27 567.608 1048.79 567.608Z" fill="black"/>
</svg>
