<svg width="1760" height="1760" viewBox="0 0 1760 1760" fill="none" xmlns="http://www.w3.org/2000/svg">
<rect width="1760" height="1760" fill="white"/>
<path d="M912.084 327.387C863.513 323.771 835.758 346.186 816.676 366.07C797.595 385.954 788.054 410.901 774.61 433.316C761.166 455.731 739.049 478.145 709.126 482.484C689.611 485.376 666.193 481.761 653.616 494.415C645.377 502.368 645.81 513.937 646.244 524.421C651.014 622.035 634.535 732.303 543.03 793.402C521.78 807.502 496.193 819.432 487.086 840.763C482.75 851.247 482.75 862.454 483.183 873.3C486.219 1018.27 491.857 1163.25 499.23 1307.86C500.097 1328.11 501.831 1349.44 514.408 1366.43C538.693 1398.61 591.601 1403.67 637.137 1404.39C679.203 1404.75 724.305 1403.67 758.565 1383.42C814.508 1350.52 817.978 1284 818.411 1226.88C818.845 1169.76 829.686 1102.15 890.4 1076.12C936.369 1056.24 1000.55 1073.95 1023.1 1112.64C1044.79 1149.51 1030.48 1193.62 1018.33 1233.39C1006.19 1273.16 998.818 1320.16 1030.04 1351.97C1057.36 1379.81 1105.07 1386.32 1148.43 1385.95C1176.62 1385.95 1206.11 1383.42 1229.53 1370.41C1275.07 1345.1 1280.7 1292.32 1281.57 1246.76C1285.47 1086.61 1068.64 1184.94 1293.28 765.926C1331.44 694.704 1330.58 607.936 1267.26 598.536C1220.86 592.029 1178.79 624.928 1152.34 628.543C1098.13 635.774 1035.68 611.551 1010.53 571.059C990.578 539.245 1003.15 500.922 1011.39 465.491C1019.63 430.061 1040.02 337.148 911.217 328.109L912.084 327.387Z" fill="#FF3B83" stroke="black" stroke-width="20" stroke-miterlimit="10"/>
<path d="M764.204 900.778C762.903 917.408 761.602 935.847 767.239 949.585C773.311 964.408 784.586 968.023 794.994 969.831C838.361 978.146 882.596 979.593 926.396 973.808C935.937 972.723 945.912 970.916 954.585 962.239C972.8 943.439 977.136 900.416 979.304 863.178C982.774 804.61 981.473 730.496 951.549 705.55C941.141 696.873 928.999 696.512 917.29 697.235C884.331 698.681 850.938 703.743 818.413 712.781C808.872 715.312 798.464 718.927 791.091 730.134C783.719 741.342 768.974 855.586 765.071 900.778H764.204Z" fill="white" stroke="black" stroke-width="20" stroke-miterlimit="10"/>
<path d="M878.69 870.047C889.708 870.047 898.639 855.317 898.639 837.147C898.639 818.977 889.708 804.249 878.69 804.249C867.673 804.249 858.741 818.977 858.741 837.147C858.741 855.317 867.673 870.047 878.69 870.047Z" fill="black"/>
</svg>
