<svg width="1760" height="1760" viewBox="0 0 1760 1760" fill="none" xmlns="http://www.w3.org/2000/svg">
<rect width="1760" height="1760" fill="white"/>
<path d="M692.833 419.159C646.769 424.151 623.737 456.408 620.973 482.521C618.21 508.634 641.702 537.819 590.111 561.628C561.551 574.684 510.881 564.316 494.758 587.741C490.613 593.501 489.691 600.413 488.77 606.941C480.478 669.152 463.895 730.979 439.021 790.117C418.753 838.887 392.957 885.736 375.453 934.89C357.949 984.044 348.736 1037.04 363.016 1087.34C377.296 1137.65 416.911 1184.5 474.951 1202.55C532.992 1220.6 606.693 1203.32 635.714 1157.62C663.352 1113.84 644.926 1060.08 656.442 1011.69C663.812 981.356 683.159 952.939 711.258 932.586C731.526 917.993 757.322 909.162 784.039 909.162C989.023 909.162 886.761 1092.72 954.475 1237.11C999.157 1332.73 1199.54 1325.05 1316.08 1300.86C1367.67 1290.1 1379.64 1162.23 1388.86 1123.44C1398.07 1084.66 1406.82 1046.25 1403.14 1007.47C1399.45 968.684 1380.11 929.129 1342.79 905.705C1318.84 890.728 1288.9 883.048 1264.02 868.839C1212.43 838.886 1190.78 783.972 1185.72 731.746C1180.65 679.52 1189.4 626.911 1183.41 575.069C1180.19 547.804 1164.99 515.163 1132.28 513.243C1115.7 512.091 1100.04 520.154 1085.76 527.834C1045.68 548.571 1001.46 567.004 954.475 567.772C907.49 568.54 839.776 547.035 825.036 509.786C819.048 493.657 842.54 403.031 692.833 419.543V419.159Z" fill="#FCFFA6" stroke="black" stroke-width="20" stroke-miterlimit="10"/>
<path d="M710.333 655.328C669.796 674.913 670.718 730.211 695.593 763.621C699.738 768.997 704.344 773.989 710.333 777.829C718.163 782.821 727.837 785.125 737.05 786.277C772.058 791.27 810.292 783.205 834.705 761.317C858.659 739.428 865.108 703.331 844.84 678.754C832.402 663.393 812.134 654.177 790.944 649.953C769.755 645.729 743.959 638.815 710.333 654.944V655.328Z" fill="white" stroke="black" stroke-width="20" stroke-miterlimit="10"/>
<path d="M770.219 737.122C779.632 737.122 787.263 730.589 787.263 722.53C787.263 714.471 779.632 707.937 770.219 707.937C760.806 707.937 753.176 714.471 753.176 722.53C753.176 730.589 760.806 737.122 770.219 737.122Z" fill="black"/>
</svg>
