<svg width="1760" height="1760" viewBox="0 0 1760 1760" fill="none" xmlns="http://www.w3.org/2000/svg">
<rect width="1760" height="1760" fill="white"/>
<path d="M735.325 361.636C685.006 364.08 651.298 402.77 643.481 444.312C635.665 485.853 632.733 535.539 589.742 557.939C537.958 584.819 451.976 556.311 419.245 599.481C409.962 611.292 408.496 625.954 406.542 640.208C396.283 730.622 391.886 834.883 471.517 896.788C512.065 928.147 570.201 944.846 598.047 985.166C614.657 1009.6 617.1 1039.33 617.1 1067.43C618.077 1144.81 607.818 1221.79 587.299 1297.13C581.437 1317.91 575.575 1341.93 591.208 1359.45C607.818 1378.18 640.55 1379 668.396 1378.18C749.004 1375.74 830.101 1373.29 910.709 1370.85C925.365 1370.44 940.509 1370.04 953.211 1364.33C969.821 1357.41 980.081 1343.16 987.409 1328.9C1015.74 1273.11 1006.46 1209.57 1012.32 1148.89C1018.19 1088.2 1047.5 1020.6 1115.89 999.827C1175.01 981.907 1251.22 1003.09 1295.67 966.024C1315.21 949.733 1322.54 926.112 1327.92 903.712C1353.81 800.673 1364.07 694.782 1357.23 589.706C1355.76 569.343 1350.39 544.907 1327.43 537.576C1316.68 534.318 1304.96 534.725 1294.21 537.576C1098.79 580.746 1008.42 554.681 989.851 537.576C933.181 483.409 978.615 416.617 943.929 381.592C907.289 344.123 828.635 357.563 735.325 362.043V361.636Z" fill="#FFD58C" stroke="black" stroke-width="20" stroke-miterlimit="10"/>
<path d="M716.27 740.804C706.011 740.804 697.706 746.912 697.706 755.465C697.706 779.901 698.683 827.144 708.942 853.209C723.598 889.456 754.864 922.445 798.832 933.441C814.465 937.514 830.587 938.328 846.709 938.328C876.509 937.921 907.286 932.627 930.736 917.558C953.209 903.304 967.865 881.719 975.682 859.319C982.033 840.992 985.94 779.087 987.406 757.094C987.406 752.614 983.498 748.949 977.636 748.542L716.27 740.804Z" fill="white" stroke="black" stroke-width="20" stroke-miterlimit="10"/>
<path d="M864.919 861.569C866.575 850.408 857.714 840.308 845.129 839.01C832.544 837.713 820.999 845.709 819.344 856.871C817.688 868.032 826.548 878.132 839.133 879.429C851.718 880.727 863.263 872.731 864.919 861.569Z" fill="black"/>
</svg>
