<svg width="1760" height="1760" viewBox="0 0 1760 1760" fill="none" xmlns="http://www.w3.org/2000/svg">
<rect width="1760" height="1760" fill="white"/>
<path d="M955.49 441.499C899.876 444.124 873.069 503.184 861.066 547.807C855.065 570.119 851.864 594.4 833.859 611.79C807.852 636.399 762.641 637.055 722.63 639.68C709.827 640.336 695.424 642.305 687.822 650.836C683.02 656.085 681.82 662.975 681.02 669.866C668.617 754.847 656.214 839.829 644.211 925.138C642.61 936.294 640.609 947.778 632.607 956.309C622.605 966.809 605.801 970.747 589.797 973.043C531.382 982.231 463.764 983.215 426.555 1021.28C410.551 1037.35 403.349 1058.02 397.747 1078.37C383.343 1129.23 376.942 1181.07 378.142 1233.24C378.142 1243.08 379.743 1254.24 388.545 1260.47C395.347 1265.39 405.349 1266.38 414.152 1267.03C514.977 1273.92 617.804 1260.8 711.828 1229.63C729.032 1224.05 746.637 1217.16 757.44 1204.69C772.644 1187.3 770.243 1164.01 770.243 1143.01C770.243 1108.55 778.645 1074.1 794.249 1041.95C810.653 1009.14 841.461 975.34 884.672 974.355C910.679 973.699 935.485 985.511 952.29 1001.92C969.094 1018.32 979.497 1038.34 987.499 1058.68C994.301 1075.74 1001.1 1094.45 1018.31 1105.93C1030.31 1113.8 1045.51 1117.41 1060.32 1120.04C1124.33 1131.85 1191.15 1134.15 1255.97 1126.93C1282.37 1123.98 1309.98 1119.05 1331.59 1105.93C1377.6 1078.04 1382 1023.57 1382 976.652C1382 951.387 1378.8 921.529 1351.99 909.061C1329.19 898.561 1297.58 906.436 1277.17 892.655C1257.97 879.859 1259.57 855.906 1263.17 835.891C1273.17 777.487 1292.78 720.068 1292.78 661.007C1292.78 609.165 1222.76 625.571 1137.54 612.118C1065.52 600.634 1065.52 576.025 1050.31 530.417C1041.11 502.528 1040.31 437.562 955.49 441.499Z" fill="#7968D9" stroke="black" stroke-width="20" stroke-miterlimit="10"/>
<path d="M885.874 697.098C821.057 727.612 822.258 814.234 862.268 865.748C868.67 873.951 876.271 881.826 885.874 887.732C898.277 895.278 913.881 898.888 929.085 901.185C985.099 909.387 1047.12 896.59 1085.93 862.466C1124.74 828.343 1134.74 772.236 1102.33 733.846C1082.32 710.222 1049.52 695.457 1015.51 688.895C981.499 682.333 939.888 671.833 885.874 697.098Z" fill="white" stroke="black" stroke-width="20" stroke-miterlimit="10"/>
<path d="M981.497 824.734C996.744 824.734 1009.1 814.598 1009.1 802.095C1009.1 789.591 996.744 779.455 981.497 779.455C966.25 779.455 953.89 789.591 953.89 802.095C953.89 814.598 966.25 824.734 981.497 824.734Z" fill="black"/>
</svg>
