<svg width="1760" height="1760" viewBox="0 0 1760 1760" fill="none" xmlns="http://www.w3.org/2000/svg">
<rect width="1760" height="1760" fill="white"/>
<path d="M975.023 357.101C922.636 350.128 898.864 386.093 879.934 410.315C861.004 434.537 846.477 462.429 820.063 481.88C805.096 492.89 780.884 483.715 746.986 500.23C693.279 527.021 680.952 560.784 650.577 559.316C601.712 556.747 584.983 551.977 559.449 567.024C505.742 598.952 520.71 695.472 519.389 762.266C517.188 862.823 502.66 948.333 483.731 1047.79C480.649 1063.94 478.008 1081.92 488.573 1095.5C503.541 1114.22 532.596 1124.13 559.449 1124.86C621.081 1127.06 609.195 1179.54 608.315 1213.67C607.434 1247.8 595.988 1281.93 598.19 1316.43C598.63 1325.61 600.391 1335.15 607.435 1342.12C614.038 1349.1 624.163 1352.77 634.288 1356.07C713.969 1382.13 800.693 1392.77 886.097 1387.26C901.945 1386.16 918.674 1384.33 931.881 1376.62C954.773 1363.04 959.615 1336.62 962.257 1313.13C964.898 1289.27 967.539 1265.79 970.181 1241.93C972.822 1218.08 976.344 1192.39 994.833 1173.67C1022.13 1146.15 1072.31 1144.68 1114.13 1152.75C1155.96 1160.83 1196.02 1176.61 1239.16 1175.51C1251.93 1175.51 1265.13 1173.3 1276.14 1167.06C1296.83 1155.32 1302.11 1132.57 1306.07 1112.01C1311.36 1082.65 1316.64 1053.66 1322.36 1024.3C1324.56 1012.19 1326.76 999.714 1324.56 987.603C1314.44 936.957 1243.56 964.482 1188.97 888.147C1153.75 838.602 1154.64 780.983 1178.41 711.253C1180.17 705.749 1179.29 699.51 1177.53 694.005C1165.64 658.039 1126.02 682.994 1066.59 670.516C1026.09 662.075 998.796 627.211 997.915 592.347C997.035 557.482 1015.52 524.085 1034.89 493.257C1056.91 458.392 1097.85 372.515 976.784 356L975.023 357.101Z" fill="#2667FF" stroke="black" stroke-width="20" stroke-miterlimit="10"/>
<path d="M849.998 978.797C799.372 975.127 757.55 940.262 741.702 900.259C737.74 890.717 735.099 880.441 735.979 870.165C737.3 850.714 751.387 833.098 768.996 820.62C800.252 798.233 844.274 788.325 884.775 795.298C889.177 796.032 893.58 797.133 895.781 800.436C897.102 802.638 897.102 805.207 897.102 807.409C894.02 853.65 887.857 899.892 878.172 945.766C875.091 960.079 868.487 980.265 850.438 978.797H849.998Z" fill="white" stroke="black" stroke-width="20" stroke-miterlimit="10"/>
<path d="M879.324 890.087C882.927 880.408 877 870.273 866.087 867.449C855.173 864.626 843.405 870.184 839.802 879.863C836.199 889.542 842.126 899.677 853.039 902.5C863.953 905.324 875.721 899.766 879.324 890.087Z" fill="black"/>
</svg>
