<svg width="1760" height="1760" viewBox="0 0 1760 1760" fill="none" xmlns="http://www.w3.org/2000/svg">
<rect width="1760" height="1760" fill="white"/>
<path d="M982.597 407.469C942.978 395.605 890.665 413.242 855.278 474.81C836.045 507.838 845.661 606.283 752.191 639.953C739.882 644.443 726.035 646.687 716.034 653.742C706.418 660.476 701.032 670.737 697.186 680.678C677.184 731.664 679.107 788.102 652.951 837.485C649.105 844.86 644.104 852.556 636.026 857.366C629.487 861.214 621.409 862.817 613.331 863.779C580.251 866.986 547.556 856.403 515.246 849.028C482.935 841.653 446.008 838.125 417.929 853.838C386.387 871.475 377.925 906.748 373.694 938.174C362.539 1015.78 356.769 1093.7 356 1171.62C356 1183.48 356 1196.31 364.077 1206.57C375.232 1221.32 398.696 1225.81 419.467 1227.42C540.633 1236.4 733.343 1236.39 768.346 1227.74C806.427 1218.76 827.582 1184.45 834.506 1152.06C852.585 1068.37 839.507 965.11 956.441 965.11C1024.14 965.11 1032.6 1011.29 1038.37 1032.13C1047.22 1062.59 1042.99 1094.66 1047.6 1125.76C1052.22 1156.87 1068.37 1190.22 1102.61 1202.72C1119.92 1209.14 1334.17 1227.1 1358.79 1188.29C1367.25 1174.83 1366.86 1159.11 1368.4 1144.04C1371.1 1108.13 1424.95 711.141 1258.39 736.794C1198.77 746.094 1132.23 713.386 1088.76 565.879C1054.53 449.477 1040.29 424.464 982.597 407.148V407.469Z" fill="#E6E1E1" stroke="black" stroke-width="20" stroke-miterlimit="10"/>
<path d="M908.359 608.526C859.508 650.854 862.2 761.805 882.587 831.07C886.049 842.293 889.896 852.555 895.281 860.571C902.205 870.833 911.436 875.963 920.283 879.17C953.363 891.034 991.828 875.643 1017.21 831.391C1042.6 787.138 1052.6 713.064 1036.06 661.757C1025.68 630.011 1006.83 609.809 986.828 600.51C966.826 591.21 939.131 581.591 908.359 608.206V608.526Z" fill="white" stroke="black" stroke-width="20" stroke-miterlimit="10"/>
<path d="M974.88 749.058C975.728 732.603 969.018 718.999 959.891 718.672C950.765 718.345 942.679 731.419 941.831 747.875C940.983 764.33 947.694 777.934 956.82 778.261C965.947 778.588 974.032 765.513 974.88 749.058Z" fill="black"/>
</svg>
