<svg width="1760" height="1760" viewBox="0 0 1760 1760" fill="none" xmlns="http://www.w3.org/2000/svg">
<rect width="1760" height="1760" fill="white"/>
<path d="M778.716 412.792C707.65 421.492 662.426 450.493 621.178 499.795C606.269 517.61 595.337 537.081 578.44 553.653C561.543 570.225 537.689 583.069 511.847 581.411C440.284 576.44 432.829 550.339 391.581 590.111C369.715 610.826 339.898 636.513 336.419 663.856C334.431 679.185 339.897 694.515 344.866 709.844C393.569 853.191 405.496 1003.99 388.599 1152.31C385.618 1180.07 382.636 1211.56 404.503 1233.1C420.902 1249.26 447.241 1255.06 472.586 1257.54C508.368 1260.86 548.622 1257.54 574.961 1236.83C608.257 1210.31 608.257 1167.23 624.16 1131.18C641.056 1092.65 680.815 1059.92 729.517 1053.3C778.22 1046.67 832.388 1071.94 843.818 1112.13C859.721 1167.23 796.11 1224.81 819.467 1277.84C829.407 1300.22 852.764 1316.37 878.109 1327.15C942.714 1354.9 1021.23 1353.25 1090.81 1335.02C1142.49 1321.35 1194.67 1295.66 1213.56 1253.4C1220.52 1237.66 1222.5 1220.26 1223.5 1203.69C1225.98 1166.4 1224 1128.7 1218.53 1091.82C1217.04 1083.54 1216.04 1074.84 1218.53 1066.55C1223.5 1051.64 1241.89 1042.11 1259.78 1037.97C1277.67 1033.82 1296.55 1033.82 1314.94 1029.68C1351.22 1021.81 1381.53 996.951 1391.97 966.707C1402.4 936.464 1392.47 902.078 1366.62 879.291C1356.19 870.177 1343.76 862.719 1335.81 851.947C1326.87 839.933 1325.38 825.017 1325.87 810.931C1328.36 756.658 1363.14 707.358 1380.54 655.156C1402.9 589.697 1390.97 493.166 1304.5 493.166C1276.67 493.166 1039.62 713.986 971.041 582.24C940.229 523.409 921.841 396.22 778.716 413.62V412.792Z" fill="white" stroke="black" stroke-width="20" stroke-miterlimit="10"/>
<path d="M666.404 816.318C658.453 848.633 652.49 886.749 680.816 909.95C698.707 924.45 725.543 928.178 750.391 929.007C782.197 930.25 814.5 929.007 843.82 918.65C873.141 908.292 898.487 888.406 906.438 863.134C914.887 835.79 902.461 807.204 888.049 781.932C861.213 734.702 825.432 689.544 773.251 660.543C767.784 657.229 761.821 654.328 754.864 653.5C739.458 651.428 724.549 660.543 718.089 672.143C711.628 683.744 675.846 779.031 666.404 816.318Z" fill="white" stroke="black" stroke-width="20" stroke-miterlimit="10"/>
<path d="M783.187 852.42C800.409 851.136 813.299 840.119 811.979 827.812C810.659 815.505 795.629 806.571 778.406 807.854C761.184 809.138 748.292 820.155 749.612 832.461C750.932 844.768 765.964 853.704 783.187 852.42Z" fill="black"/>
</svg>
