<svg width="1760" height="1760" viewBox="0 0 1760 1760" fill="none" xmlns="http://www.w3.org/2000/svg">
<rect width="1760" height="1760" fill="white"/>
<path d="M830.209 406.424C775.889 405.577 723.091 422.506 672.831 439.859C642.371 450.016 612.418 463.558 593.127 485.566C578.912 502.072 571.805 522.386 565.206 542.278C545.914 600.259 526.115 658.664 506.824 716.645C501.24 733.574 495.655 751.349 500.732 768.278C508.855 796.211 542.868 813.564 559.114 839.38C574.852 863.927 571.298 895.245 554.545 919.369C537.792 943.492 509.362 960.844 477.886 970.578C461.133 975.657 424.581 967.194 402.751 987.508C351.476 1035.33 409.858 1142.83 422.042 1240.17C426.611 1276.99 486.517 1290.96 527.13 1306.62C734.26 1387.45 994.695 1361.64 1173.39 1242.71C1214.01 1215.62 1251.07 1184.31 1283.05 1149.6C1320.11 1109.4 1351.59 1064.53 1366.82 1015.44C1406.41 891.437 1341.94 759.814 1249.04 657.394C1174.41 575.289 1081 504.611 975.403 451.285C935.298 430.97 889.606 406.423 830.209 406V406.424Z" fill="#DEB0FF" stroke="black" stroke-width="20" stroke-miterlimit="10"/>
<path d="M832.238 838.534C765.734 872.815 766.749 971.004 807.87 1029.83C814.469 1039.14 822.085 1048.03 832.238 1054.8C844.93 1063.27 861.176 1067.5 876.914 1070.04C934.788 1079.35 998.246 1064.96 1038.35 1026.02C1078.46 987.086 1088.61 923.603 1055.1 880.011C1034.8 853.348 1000.78 836.418 965.756 829.223C930.727 822.029 887.574 809.755 832.238 838.534Z" fill="white" stroke="black" stroke-width="20" stroke-miterlimit="10"/>
<path d="M930.729 982.852C946.43 982.852 959.159 971.483 959.159 957.459C959.159 943.434 946.43 932.066 930.729 932.066C915.028 932.066 902.3 943.434 902.3 957.459C902.3 971.483 915.028 982.852 930.729 982.852Z" fill="black"/>
</svg>
