<svg width="1760" height="1760" viewBox="0 0 1760 1760" fill="none" xmlns="http://www.w3.org/2000/svg">
<rect width="1760" height="1760" fill="white"/>
<path d="M1023.07 361.128C982.699 351.843 938.149 353.778 908.449 378.538C878.749 403.297 864.828 438.116 853.69 471.773C842.553 505.431 832.808 540.636 808.676 569.264C799.859 580.096 788.722 590.154 773.872 594.41C759.95 598.279 744.637 596.732 729.787 594.797C690.341 589.768 651.36 583.577 612.379 575.84C581.287 570.037 549.731 563.074 518.175 566.943C467.592 573.133 427.217 604.469 391.021 634.257C384.524 639.674 377.563 645.477 375.707 652.828C371.995 665.981 383.596 677.973 394.269 688.419C483.833 773.917 555.762 879.532 557.619 993.271C559.011 1066 530.704 1138.73 478.729 1196.76C442.996 1237 392.877 1278.39 402.622 1327.91C410.511 1368.15 455.99 1394.84 499.148 1414.96C533.488 1430.82 569.221 1445.52 607.738 1450.55C646.255 1455.58 688.484 1450.55 718.648 1429.27C746.956 1409.54 760.879 1378.98 770.624 1348.8C781.298 1315.53 788.258 1281.49 803.108 1249.77C817.958 1218.04 842.553 1187.48 878.75 1171.23C936.294 1145.31 1022.14 1171.23 1036.07 1224.62C1041.64 1245.9 1036.07 1267.95 1035.14 1289.61C1034.21 1311.28 1039.32 1335.65 1060.2 1348.8C1073.66 1357.7 1091.76 1360.02 1108.46 1361.96C1146.05 1365.83 1183.64 1368.15 1221.69 1367.76C1239.79 1367.76 1257.89 1366.99 1274.6 1361.18C1302.9 1351.13 1321 1327.91 1334.92 1304.7C1362.3 1258.66 1379.01 1208.76 1385.04 1157.69C1386.43 1146.08 1386.9 1133.7 1382.26 1122.49C1370.19 1093.86 1330.28 1082.25 1300.12 1065.23C1270.42 1048.21 1224.48 1031.96 1218.91 1002.17C1213.34 972.381 1229.12 929.052 1278.31 912.803C1399.43 872.956 1403.6 717.047 1296.41 655.922C1209.16 606.403 1149.3 646.638 1071.34 587.447C1047.67 569.651 1037.92 554.176 1065.3 463.262C1075.05 430.765 1081.55 373.895 1024 360.741L1023.07 361.128Z" fill="#DAD4FF" stroke="black" stroke-width="20" stroke-miterlimit="10"/>
<path d="M861.577 810.285C874.571 804.096 906.591 809.512 928.402 822.278C962.279 842.009 978.985 880.695 967.383 913.966C955.782 947.237 917.729 972.77 876.428 974.705C874.107 974.705 871.786 974.704 869.465 973.93C866.681 972.769 865.29 970.061 864.361 967.74C839.302 913.578 844.871 818.504 864.362 809.219L861.577 810.285Z" fill="#FAFCFF" stroke="black" stroke-width="20" stroke-miterlimit="10"/>
<path d="M930.722 899.651C938.411 899.651 944.645 894.454 944.645 888.044C944.645 881.634 938.411 876.438 930.722 876.438C923.033 876.438 916.801 881.634 916.801 888.044C916.801 894.454 923.033 899.651 930.722 899.651Z" fill="black" stroke="black" stroke-width="20" stroke-miterlimit="10"/>
</svg>
