<svg width="1760" height="1760" viewBox="0 0 1760 1760" fill="none" xmlns="http://www.w3.org/2000/svg">
<rect width="1760" height="1760" fill="white"/>
<path d="M587.5 523.5C539.169 502.355 530.729 472.516 491.891 470.79C428.888 468.2 393.934 667.14 421.552 729.282C452.191 798.328 445.286 893.267 515.194 920.022C580.786 945.052 649.831 901.466 717.581 884.636C763.323 873.416 813.38 874.711 854.807 897.151C896.234 919.591 926.441 965.334 922.557 1012.8C918.242 1063.73 878.109 1103.86 836.251 1131.91C794.393 1159.96 746.493 1181.1 711.971 1218.65C677.449 1256.19 660.187 1316.61 689.963 1357.6C708.95 1383.5 741.746 1395.15 773.248 1399.03C831.504 1405.94 892.35 1389.97 939.818 1355.45C984.265 1323.08 1017.06 1275.61 1063.67 1247.13C1123.65 1210.88 1201.32 1208.29 1254.4 1162.12C1322.58 1103.43 1323.45 998.131 1307.05 909.234C1290.65 820.337 1263.03 727.556 1292.81 642.111C1307.91 598.957 1336.82 560.55 1345.02 515.67C1353.22 470.79 1346.32 356 1301.01 356C1279.86 356 1225.06 532.5 800.866 546.741C737 548.898 686.857 555.973 594.5 527L587.5 523.5Z" fill="url(#paint0_linear_14_9383)" stroke="black" stroke-width="20" stroke-miterlimit="10"/>
<path d="M535.476 768C535.476 725.5 551.443 672.749 591.575 643.404C601.5 636.5 611.856 630.027 623.939 627.437C646.379 622.259 670.113 629.163 689.532 641.247C724.054 662.824 747.356 700.799 751.672 740.932C751.672 745.248 752.103 749.995 749.082 753.015C746.925 755.173 744.336 755.605 741.315 756.468C688.237 769.846 634.727 779.771 580.786 786.676C563.957 788.833 539.36 789.696 535.476 772.003L535.476 768Z" fill="white" stroke="black" stroke-width="20" stroke-miterlimit="10"/>
<path d="M555.759 773.729C564.577 773.729 571.725 766.001 571.725 756.467C571.725 746.934 564.577 739.206 555.759 739.206C546.94 739.206 539.792 746.934 539.792 756.467C539.792 766.001 546.94 773.729 555.759 773.729Z" fill="black"/>
<defs>
<linearGradient id="paint0_linear_14_9383" x1="561.799" y1="1015.39" x2="1341.15" y2="510.078" gradientUnits="userSpaceOnUse">
<stop stop-color="#B0BDFF"/>
<stop offset="0.03" stop-color="#B9BBFF"/>
<stop offset="0.19" stop-color="#E1B5FF"/>
<stop offset="0.27" stop-color="#F1B3FF"/>
<stop offset="0.59" stop-color="#FFFFA8"/>
<stop offset="0.62" stop-color="#F9FFA5"/>
<stop offset="0.65" stop-color="#E9FF9D"/>
<stop offset="0.69" stop-color="#CEFF91"/>
<stop offset="0.73" stop-color="#A9FF80"/>
<stop offset="0.75" stop-color="#91FF75"/>
<stop offset="1" stop-color="#6BB3FF"/>
</linearGradient>
</defs>
</svg>
