<svg width="1760" height="1760" viewBox="0 0 1760 1760" fill="none" xmlns="http://www.w3.org/2000/svg">
<rect width="1760" height="1760" fill="white"/>
<path d="M978.029 453.031C903.419 451.835 835.027 485.327 769.027 515.23C703.026 545.133 629.851 573.841 556.677 561.879C533.242 558.291 508.85 550.316 486.372 557.094C461.502 564.669 448.111 586.997 438.545 607.331C409.371 669.131 388.327 742.095 428.979 798.712C444.284 820.242 468.198 838.184 477.285 862.505C494.024 907.559 452.415 952.614 408.893 983.314C389.284 997.269 367.762 1011.62 359.632 1031.96C351.979 1050.7 357.718 1071.43 364.892 1090.17C380.675 1132.83 402.675 1173.9 430.893 1211.78C442.849 1228.12 456.241 1243.67 473.936 1255.63C527.502 1291.92 605.938 1285.14 672.895 1269.99C739.852 1254.84 808.722 1233.3 876.158 1247.26C930.68 1258.42 976.116 1291.52 1030.64 1303.48C1083.73 1314.64 1142.55 1303.48 1184.64 1274.37C1208.07 1258.03 1225.29 1237.29 1242.51 1216.56C1256.86 1199.02 1271.68 1181.07 1276.94 1160.34C1286.99 1121.27 1262.12 1082.19 1240.6 1046.31C1219.07 1010.43 1199.94 967.765 1220.03 931.482C1229.6 914.737 1245.86 901.978 1262.12 889.219C1332.42 832.603 1397.95 761.633 1396.99 680.296C1396.99 651.589 1387.9 623.678 1375.47 596.965C1371.64 588.99 1367.34 581.016 1359.69 575.833C1352.03 570.65 1341.99 569.055 1332.42 567.461C1289.38 560.284 1245.38 554.702 1206.64 537.557C1176.51 524.4 1150.68 504.863 1121.51 490.51C1092.33 476.156 1057.42 454.626 977.55 453.43L978.029 453.031Z" fill="#84FAB0" stroke="black" stroke-width="20" stroke-miterlimit="10"/>
<path d="M769.983 964.179C768.548 979.33 767.113 996.475 773.331 1009.23C780.027 1023.19 792.461 1026.38 803.939 1027.97C851.766 1035.55 900.549 1036.74 948.853 1031.56C959.375 1030.36 970.377 1028.77 979.942 1020.8C1000.03 1003.25 1004.81 963.78 1007.2 929.092C1011.03 874.868 1009.59 806.29 976.594 783.564C965.115 775.59 951.723 775.19 938.81 775.589C902.462 776.785 865.636 781.57 829.766 789.943C819.244 792.335 807.765 795.524 799.635 806.289C791.504 817.054 775.243 922.315 770.939 964.179H769.983Z" fill="white" stroke="black" stroke-width="20" stroke-miterlimit="10"/>
<path d="M896.242 935.473C908.393 935.473 918.242 921.906 918.242 905.17C918.242 888.435 908.393 874.868 896.242 874.868C884.092 874.868 874.241 888.435 874.241 905.17C874.241 921.906 884.092 935.473 896.242 935.473Z" fill="black"/>
</svg>
