<svg width="1760" height="1760" viewBox="0 0 1760 1760" fill="none" xmlns="http://www.w3.org/2000/svg">
<rect width="1760" height="1760" fill="white"/>
<path d="M954.973 360.112C908.709 343.481 853.956 380.281 829.339 417.08C803.024 456.356 807.693 504.124 803.024 549.062C798.355 593.999 775.011 644.243 723.229 656.981C698.187 663.351 665.081 661.581 652.772 681.042C648.103 688.827 648.104 698.026 648.104 706.518C647.255 762.071 623.061 817.27 581.042 860.438C538.173 904.667 472.81 945.359 478.328 1002.33C483.421 1054.69 550.483 1096.45 540.721 1148.46C535.203 1177.48 506.34 1200.48 499.973 1229.14C494.031 1255.67 508.887 1283.98 533.505 1301.67C558.122 1319.36 591.228 1327.5 623.486 1328.92C647.679 1329.63 673.57 1326.09 690.123 1311.58C702.856 1300.61 707.949 1284.69 714.74 1270.53C729.171 1240.81 754.637 1213.92 789.442 1200.12C824.246 1186.32 868.812 1188.09 898.523 1208.61C918.471 1222.41 929.931 1242.58 942.24 1261.33C968.555 1301.32 1002.51 1340.24 1052.17 1360.06C1101.83 1379.87 1168.47 1374.92 1201.57 1338.47C1237.65 1299.2 1222.37 1242.58 1197.33 1197.64C1179.08 1165.45 1156.16 1130.42 1167.62 1095.74C1177.38 1066.02 1209.64 1046.56 1233.41 1023.2C1274.58 982.512 1291.55 925.544 1277.55 873.884C1263.54 822.224 1218.97 776.579 1160.83 754.641C1128.14 742.257 1092.07 737.302 1060.66 722.795C1008.45 699.088 986.806 678.919 988.504 629.382C990.202 591.875 998.266 527.477 1009.3 491.032C1020.34 454.587 1037.31 389.835 954.973 359.759V360.112Z" fill="#424242" stroke="black" stroke-width="20" stroke-miterlimit="10"/>
<path d="M821.698 956.683C813.634 978.621 806.419 1005.16 824.669 1022.85C836.554 1033.82 855.228 1037.71 873.055 1039.84C895.55 1042.31 918.894 1043.02 940.541 1037.71C962.187 1032.4 982.136 1019.67 989.776 1001.97C997.84 983.221 991.05 962.698 982.561 944.299C966.857 909.976 944.785 876.716 909.981 853.716C906.161 851.24 901.917 848.762 897.248 847.701C886.637 845.224 875.177 851.24 869.235 858.671C863.293 866.101 830.611 931.207 821.273 956.683H821.698Z" fill="white" stroke="black" stroke-width="20" stroke-miterlimit="10"/>
<path d="M903.612 987.465C916.036 987.465 926.108 980.495 926.108 971.897C926.108 963.298 916.036 956.328 903.612 956.328C891.189 956.328 881.117 963.298 881.117 971.897C881.117 980.495 891.189 987.465 903.612 987.465Z" fill="#030005"/>
</svg>
