<svg width="1760" height="1760" viewBox="0 0 1760 1760" fill="none" xmlns="http://www.w3.org/2000/svg">
<g clip-path="url(#clip0_10_775)">
<path d="M1760 0H0V1760H1760V0Z" fill="white"/>
<path d="M818.244 403.44C772.482 397.659 727.981 431.297 704.407 464.438C680.832 497.578 668.814 535.342 647.089 569.253C625.363 603.165 588.845 634.379 543.083 638.232C514.886 640.545 487.151 632.067 458.954 629.37C430.756 626.673 397.474 631.296 383.144 651.334C372.513 666.363 375.287 686.017 383.607 702.202C391.927 718.387 405.795 732.26 416.889 747.289C463.576 811.258 457.105 899.504 401.173 958.078C386.843 973.107 370.202 985.823 357.721 1002.01C331.373 1035.15 327.676 1079.85 348.015 1116.07C368.353 1152.3 411.803 1178.5 459.415 1183.13C554.176 1192.37 648.936 1121.85 738.15 1149.98C839.382 1181.97 846.778 1314.92 946.624 1350.37C986.839 1364.63 1033.99 1358.85 1075.59 1347.29C1102.4 1339.96 1129.67 1329.17 1145.85 1309.52C1180.06 1267.9 1149.55 1202.78 1190.23 1165.4C1209.18 1148.06 1238.76 1141.89 1262.34 1129.18C1314.11 1102.2 1335.84 1049.41 1351.09 1000.08C1378.36 910.68 1395.93 819.35 1403.32 727.25C1404.71 711.065 1405.17 692.954 1392.23 681.008C1376.51 665.979 1348.78 666.749 1324.74 668.29C1204.56 676.383 1083.45 676.769 963.266 669.062C937.38 667.52 911.03 665.208 886.994 657.116C862.957 649.023 841.232 633.223 833.374 612.799C814.884 563.473 880.523 517.616 880.986 465.978C880.986 440.545 867.117 409.332 813.496 402.781L818.244 403.44Z" fill="#E6E1E1" stroke="black" stroke-width="20" stroke-miterlimit="10"/>
<path d="M1060.8 994.684C1082.06 995.84 1105.64 996.612 1123.2 992.758C1142.15 988.519 1146.78 980.041 1149.55 972.719C1160.18 940.734 1162.03 908.75 1154.63 876.766C1153.25 869.829 1150.94 862.507 1139.84 856.342C1115.81 842.854 1060.8 839.771 1012.72 838.23C937.378 835.918 842.618 836.688 810.723 858.654C799.629 866.361 799.167 875.224 800.092 883.702C801.941 907.979 808.412 931.871 819.968 956.149C823.204 963.085 827.825 970.793 842.155 976.188C856.485 981.583 1003.02 992.373 1060.8 995.07V994.684Z" fill="white" stroke="black" stroke-width="20" stroke-miterlimit="10"/>
<path d="M1081.14 964.629C1088.8 964.629 1095.01 959.454 1095.01 953.069C1095.01 946.684 1088.8 941.508 1081.14 941.508C1073.48 941.508 1067.27 946.684 1067.27 953.069C1067.27 959.454 1073.48 964.629 1081.14 964.629Z" fill="black" stroke="black" stroke-width="20" stroke-miterlimit="10"/>
</g>
<defs>
<clipPath id="clip0_10_775">
<rect width="1760" height="1760" fill="white"/>
</clipPath>
</defs>
</svg>
