<svg width="1760" height="1760" viewBox="0 0 1760 1760" fill="none" xmlns="http://www.w3.org/2000/svg">
<rect width="1760" height="1760" fill="white"/>
<path d="M818.353 515.928C800.973 498.613 767.487 502.5 743.325 512.748C719.164 522.996 696.697 538.192 669.568 539.958C657.275 540.665 644.983 538.544 633.114 540.311C614.463 543.492 599.626 556.567 592.42 571.408C585.214 586.25 583.52 602.506 581.4 618.408C573.346 690.143 558.51 761.525 537.74 831.494C527.99 863.651 515.697 897.574 485.601 919.13C465.255 933.972 438.126 941.394 418.203 956.236C379.206 984.859 373.272 1032.92 372 1076.38C372 1086.28 372 1097.23 380.054 1104.65C386.412 1110.66 396.585 1112.78 405.91 1114.19C497.47 1130.1 591.997 1130.45 685.676 1130.8C719.587 1130.8 757.313 1130.1 782.322 1110.66C825.558 1077.44 803.093 1014.19 835.732 973.551C857.774 945.987 903.977 935.386 941.279 946.694C978.581 958.002 1005.29 988.745 1009.53 1021.61C1012.92 1045.64 1008.25 1074.97 1031.57 1089.1C1040.89 1094.76 1052.76 1096.53 1064.21 1097.94C1123.97 1105.71 1183.74 1113.49 1243.09 1121.26C1269.79 1124.8 1298.19 1127.98 1323.62 1120.2C1354.99 1110.66 1375.76 1085.57 1388.9 1060.13C1398.65 1040.69 1405.44 1019.84 1403.74 998.64C1402.04 977.437 1390.18 956.589 1369.83 944.221C1343.55 928.672 1305.82 928.319 1285.48 907.469C1272.33 893.688 1270.64 874.606 1271.91 856.937C1277.42 769.3 1303.7 701.097 1326.17 615.58C1329.56 602.505 1332.95 587.664 1323.62 577.063C1301.16 551.619 1268.1 568.228 1232.07 563.988C1166.79 556.567 1139.66 509.568 1073.96 514.162C1019.7 518.049 974.767 555.86 920.509 558.334C873.458 560.454 835.308 532.89 818.777 516.282L818.353 515.928Z" fill="#99E6FF" stroke="black" stroke-width="20" stroke-miterlimit="10"/>
<path d="M826.827 809.23C820.893 794.742 832.338 760.465 851.413 737.495C881.085 701.804 932.375 686.608 972.644 701.45C1012.91 715.938 1040.04 759.404 1036.65 804.636C1036.65 807.11 1036.23 809.937 1034.53 812.057C1032.41 814.884 1029.02 816.297 1025.63 817.357C953.569 841.034 835.729 831.139 826.404 809.583L826.827 809.23Z" fill="#FAFCFF" stroke="black" stroke-width="20" stroke-miterlimit="10"/>
<path d="M1001.47 816.652C1008.49 816.652 1014.19 811.906 1014.19 806.051C1014.19 800.196 1008.49 795.449 1001.47 795.449C994.447 795.449 988.753 800.196 988.753 806.051C988.753 811.906 994.447 816.652 1001.47 816.652Z" fill="black" stroke="black" stroke-width="20" stroke-miterlimit="10"/>
</svg>
