<svg width="1760" height="1760" viewBox="0 0 1760 1760" fill="none" xmlns="http://www.w3.org/2000/svg">
<rect width="1760" height="1760" fill="white"/>
<path d="M555.325 574.192C531.683 562.031 503.514 554.064 475.848 557.838C448.181 561.612 423.029 579.644 420.011 602.709C417.496 621.999 430.072 640.03 434.599 658.482C440.133 681.127 435.102 704.191 429.569 726.836C407.939 808.19 375.745 889.543 379.266 972.575C380.272 991.026 383.291 1010.74 398.381 1024.57C412.466 1036.74 433.09 1041.35 451.702 1047.64C486.411 1058.96 519.61 1079.09 529.67 1108.86C547.779 1161.7 486.913 1213.28 491.943 1267.8C492.446 1273.25 493.956 1278.7 497.477 1283.31C502.005 1288.35 509.047 1291.28 516.089 1293.38C546.27 1303.02 578.464 1305.12 610.658 1307.22C660.457 1310.15 709.753 1311.83 759.553 1313.09C800.298 1313.93 847.08 1312.25 873.237 1285.83C883.8 1275.35 889.333 1262.35 893.358 1249.35C902.915 1220.83 904.927 1185.61 877.764 1166.32C867.2 1158.77 854.121 1154.99 842.552 1149.12C813.879 1134.03 798.286 1104.25 803.819 1076.57C805.831 1067.77 809.855 1058.96 817.4 1053.09C825.952 1046.38 838.529 1044.28 850.098 1042.19C909.455 1032.96 970.824 1031.28 1030.68 1036.74C1051.81 1038.83 1073.94 1041.77 1091.55 1051.83C1122.74 1069.03 1133.8 1103.41 1133.8 1134.44C1133.8 1165.48 1124.75 1196.51 1125.75 1227.96C1126.26 1242.22 1129.28 1257.31 1140.34 1268.64C1150.91 1279.54 1167.51 1285.83 1183.1 1290.44C1213.28 1299.67 1243.97 1306.38 1275.66 1310.57C1309.86 1315.18 1349.1 1315.6 1373.24 1295.05C1390.35 1280.38 1395.38 1258.99 1398.39 1238.44C1402.92 1207.83 1404.43 1176.8 1403.43 1145.77C1401.92 1103.83 1393.36 1058.12 1355.13 1030.86C1318.92 1004.87 1263.08 1001.51 1232.9 970.898C1201.21 939.027 1210.26 890.801 1233.4 854.737C1256.54 818.673 1291.75 787.642 1311.87 750.319C1324.45 727.255 1330.99 702.094 1333 676.933C1334.51 662.256 1334.01 646.74 1326.96 633.32C1316.9 614.03 1293.77 601.03 1269.12 595.159C1244.47 589.288 1219.32 588.869 1193.66 587.611C1144.87 585.515 1092.56 580.064 1055.84 552.806C1016.1 523.871 1000.5 473.967 953.218 453.839C922.533 440.419 882.292 444.613 856.134 463.484C823.941 486.548 816.395 524.71 798.789 557C778.165 594.322 739.936 628.708 691.142 634.998C602.61 646.321 612.167 603.966 555.325 574.192Z" fill="#DEB0FF" stroke="black" stroke-width="20" stroke-miterlimit="10"/>
<path d="M815.385 803.159C805.827 829.159 797.275 860.61 818.905 881.577C832.989 894.577 855.123 899.189 876.25 901.705C902.911 904.641 930.577 905.48 956.231 899.189C981.885 892.899 1005.53 877.803 1014.58 856.836C1024.14 834.61 1016.09 810.288 1006.03 788.482C987.418 747.805 961.261 708.386 920.013 681.128C915.486 678.193 910.456 675.257 904.923 673.998C892.347 671.063 878.766 678.192 871.723 686.998C864.681 695.805 825.948 772.966 814.881 803.159H815.385Z" fill="white" stroke="black" stroke-width="20" stroke-miterlimit="10"/>
<path d="M923.532 902.124C938.256 902.124 950.193 893.863 950.193 883.673C950.193 873.482 938.256 865.221 923.532 865.221C908.808 865.221 896.872 873.482 896.872 883.673C896.872 893.863 908.808 902.124 923.532 902.124Z" fill="#030005"/>
</svg>
