<svg width="1760" height="1760" viewBox="0 0 1760 1760" fill="none" xmlns="http://www.w3.org/2000/svg">
<rect width="1760" height="1760" fill="white"/>
<path d="M1015 385.424C975.236 373.035 920.3 388.947 896.602 418.078C839.968 486.387 925.12 592.533 865.675 659.502C844.387 683.277 809.443 695.331 774.499 701.693C703.405 714.418 629.097 706.381 556.798 712.074C537.519 713.413 514.625 718.77 509.805 734.173C506.19 746.227 515.829 757.947 523.059 769.332C538.724 793.776 542.741 823.577 533.503 850.03C522.256 883.18 493.336 909.633 471.647 938.764C449.957 967.896 435.498 1006.07 455.581 1035.87C478.877 1070.69 537.117 1078.4 567.242 1109.54C618.253 1162.11 564.43 1250.17 611.826 1305.09C628.294 1324.17 654.402 1335.56 681.715 1341.92C717.865 1350.29 763.252 1347.61 784.54 1321.83C806.631 1295.38 793.376 1259.55 780.523 1229.41C767.67 1198.27 756.022 1166.12 755.218 1133.31C754.415 1100.49 765.662 1066.01 792.975 1042.23C820.287 1018.46 865.273 1007.74 901.021 1021.81C936.367 1035.54 954.844 1069.69 956.45 1101.83C958.057 1133.98 946.006 1165.79 934.358 1196.93C922.71 1228.07 911.866 1260.22 915.882 1292.36C922.309 1343.93 971.312 1390.14 1031.96 1401.52C1092.61 1412.91 1160.89 1389.13 1193.43 1344.93C1221.55 1306.76 1223.15 1258.88 1212.31 1215.01C1204.27 1183.2 1190.22 1152.4 1184.19 1120.25C1178.17 1088.11 1180.98 1052.95 1204.27 1026.49C1222.35 1005.73 1252.07 991.67 1261.31 967.226C1270.95 942.448 1255.69 915.325 1258.9 889.542C1262.92 854.718 1297.86 827.93 1311.12 794.446C1313.53 788.083 1315.13 781.387 1313.93 774.69C1311.12 762.97 1299.47 753.929 1287.42 747.232C1248.46 724.463 1203.07 710.064 1162.9 688.969C1122.74 667.874 1063.29 661.512 1069.72 614.633C1073.74 584.162 1083.37 536.948 1089.4 506.477C1095.42 476.006 1092.21 409.037 1007.46 382.919L1015 385.424Z" fill="white" stroke="black" stroke-width="20" stroke-miterlimit="10"/>
<path d="M813.46 881.172C796.188 877.489 815.066 834.628 831.936 812.194C857.642 777.035 905.037 760.292 944.4 772.347C983.762 784.401 1012.28 823.914 1011.88 866.774C1011.88 869.118 1011.88 871.796 1010.67 873.805C1009.07 876.819 1005.85 879.163 1002.64 879.163C905.038 886.195 860.453 890.883 813.86 881.172H813.46Z" fill="#FAFCFF" stroke="black" stroke-width="20" stroke-miterlimit="10"/>
<path d="M982.153 862.755C988.808 862.755 994.203 858.257 994.203 852.709C994.203 847.161 988.808 842.664 982.153 842.664C975.498 842.664 970.104 847.161 970.104 852.709C970.104 858.257 975.498 862.755 982.153 862.755Z" fill="black" stroke="black" stroke-width="20" stroke-miterlimit="10"/>
</svg>
