<svg width="1760" height="1760" viewBox="0 0 1760 1760" fill="none" xmlns="http://www.w3.org/2000/svg">
<rect width="1760" height="1760" fill="white"/>
<path d="M646.445 518.334C629.553 505.816 619.699 486.649 599.522 478.043C579.345 469.437 550.722 471.392 538.991 487.43C528.668 501.122 533.83 519.117 531.015 534.764C524.445 567.623 484.092 588.354 470.953 619.648C455.469 656.028 479.868 697.493 464.853 733.873C452.184 764.776 414.176 783.161 393.999 810.934C358.338 860.223 384.146 922.42 399.161 978.75C410.892 1022.56 415.115 1067.55 411.83 1112.14C410.891 1125.44 409.484 1139.13 415.115 1151.65C427.784 1177.86 468.607 1186.07 501.453 1179.42C534.299 1172.77 561.515 1154.78 591.546 1141.87C639.407 1121.14 694.306 1112.53 747.799 1117.62C771.729 1119.96 797.068 1125.83 810.675 1142.26C823.814 1158.3 821.937 1179.42 821.468 1198.98C820.06 1247.88 835.076 1302.64 884.814 1328.46C915.314 1344.11 955.198 1346.06 987.106 1332.76C1019.01 1319.46 1042.01 1292.08 1045.29 1262.35C1047.64 1243.19 1042.01 1224.02 1040.6 1204.85C1039.19 1185.68 1043.41 1164.56 1060.31 1151.65C1083.77 1133.26 1120.84 1137.96 1152.27 1142.26C1186.06 1146.96 1219.84 1149.69 1253.63 1151.26C1274.27 1152.04 1296.33 1152.04 1314.63 1143.43C1346.54 1128.18 1354.51 1092.97 1358.27 1062.46C1373.75 944.717 1386.42 826.581 1382.2 708.055C1380.79 674.022 1375.63 635.687 1342.78 615.346C1320.73 601.655 1291.64 600.09 1264.42 598.526C1212.81 596.179 1160.72 593.44 1109.11 591.093C1064.06 588.746 1018.08 586.79 975.375 573.881C955.668 568.014 935.96 559.799 914.844 559.408C898.891 559.408 883.406 563.71 867.921 567.231C799.883 581.704 722.929 575.837 646.445 517.552V518.334Z" fill="#DAD4FF" stroke="black" stroke-width="20" stroke-miterlimit="10"/>
<path d="M1027.93 774.161C978.661 664.631 882.469 730.74 863.7 819.146C832.262 966.62 954.73 981.875 998.369 955.666C1056.55 920.852 1048.11 819.146 1027.93 774.161Z" fill="white" stroke="black" stroke-width="20" stroke-miterlimit="10"/>
<path d="M1013.85 864.52C1023.96 864.52 1032.15 854.188 1032.15 841.441C1032.15 828.695 1023.96 818.362 1013.85 818.362C1003.75 818.362 995.553 828.695 995.553 841.441C995.553 854.188 1003.75 864.52 1013.85 864.52Z" fill="black"/>
</svg>
