<svg width="1760" height="1760" viewBox="0 0 1760 1760" fill="none" xmlns="http://www.w3.org/2000/svg">
<rect width="1760" height="1760" fill="white"/>
<path d="M920.718 444.996C893.7 439.767 866.682 455.855 854.138 476.367C841.594 496.88 840.63 520.609 839.665 543.535C838.218 583.755 836.771 623.574 835.323 663.794C835.323 673.85 834.359 684.306 828.087 693.155C815.06 711.656 784.183 713.667 758.613 713.265C655.367 713.265 552.121 718.091 449.358 728.549C441.156 729.353 432.954 730.56 426.682 734.984C418.48 741.017 417.515 751.474 417.032 760.725C411.725 922.813 406.419 1085.3 401.112 1247.39C400.629 1264.28 401.111 1282.79 415.102 1294.45C426.199 1303.3 442.603 1305.71 458.041 1307.32C537.647 1315.77 618.218 1317.78 698.306 1314.16C734.49 1312.55 773.086 1308.53 800.586 1288.82C830.016 1267.5 840.147 1232.11 867.647 1209.18C896.594 1185.05 943.875 1178.61 980.542 1193.5C1014.31 1207.17 1036.51 1235.73 1069.8 1249.4C1119.97 1269.92 1188.96 1246.99 1207.78 1203.15C1218.39 1178.61 1215.02 1151.67 1215.98 1125.93C1216.95 1100.19 1226.11 1071.23 1252.65 1057.55C1270.02 1048.7 1291.25 1047.9 1310.54 1043.88C1344.32 1037.04 1375.67 1020.15 1392.56 994.807C1409.45 969.469 1408 935.684 1385.81 913.563C1369.89 897.877 1345.76 889.028 1328.88 874.549C1290.76 842.373 1294.14 790.489 1299.93 745.442C1301.86 729.756 1302.34 710.851 1286.9 701.601C1277.74 695.97 1265.67 695.569 1254.58 695.166C1205.85 693.96 1156.64 693.155 1107.91 691.948C1087.17 691.546 1064.97 690.742 1047.12 682.296C1015.28 667.414 1004.67 633.227 1005.15 603.061C1005.63 572.896 1013.83 541.926 1007.56 512.163C1001.29 482.4 972.341 455.452 919.753 445.8L920.718 444.996Z" fill="#8CFFD9" stroke="black" stroke-width="20" stroke-miterlimit="10"/>
<path d="M708.433 860.876C698.302 860.876 690.1 866.909 690.1 875.355C690.1 899.487 691.065 946.143 701.197 971.884C715.67 1007.68 746.547 1040.26 789.969 1051.12C805.407 1055.14 821.327 1055.95 837.248 1055.95C866.678 1055.54 897.073 1050.31 920.231 1035.43C942.424 1021.36 956.898 1000.04 964.618 977.918C970.89 959.819 974.749 898.683 976.196 876.964C976.196 872.54 972.338 868.921 966.548 868.518L708.433 860.876Z" fill="white" stroke="black" stroke-width="20" stroke-miterlimit="10"/>
<path d="M733.045 970.273C741.039 970.273 747.518 964.87 747.518 958.206C747.518 951.542 741.039 946.14 733.045 946.14C725.051 946.14 718.57 951.542 718.57 958.206C718.57 964.87 725.051 970.273 733.045 970.273Z" fill="black" stroke="black" stroke-width="20" stroke-miterlimit="10"/>
</svg>
