<svg width="1760" height="1760" viewBox="0 0 1760 1760" fill="none" xmlns="http://www.w3.org/2000/svg">
<rect width="1760" height="1760" fill="white"/>
<path d="M852.348 415.562C801.137 420.354 778.667 476.116 759.855 496.591C734.249 524.472 706.554 534.492 664.226 535.363C621.899 536.234 580.093 529.264 538.288 527.957C515.295 527.085 488.644 529.699 474.535 544.511C464.084 555.402 462.517 570.214 461.994 584.155C458.336 636.431 456.245 693.065 492.302 735.758C515.295 762.767 560.236 786.292 565.984 818.965C572.255 853.38 550.307 886.489 515.295 906.093C480.283 925.697 421.233 936.152 399.286 965.775C375.77 997.577 379.951 1038.09 384.654 1075.12C386.222 1086.45 387.79 1098.21 394.583 1107.79C406.602 1124.78 431.685 1130.88 454.677 1134.8C524.701 1147 597.337 1147.44 667.883 1136.55C697.669 1131.75 726.934 1125.22 757.243 1125.65C787.551 1126.09 819.428 1134.37 837.195 1154.41C858.097 1177.93 856.006 1209.73 865.412 1238.05C881.612 1285.97 933.869 1321.26 990.829 1335.63C1047.79 1350.01 1109.45 1346.09 1167.98 1336.94C1208.21 1330.4 1250.02 1321.26 1289.74 1329.97C1310.64 1334.33 1330.5 1343.47 1351.92 1342.17C1393.73 1339.99 1417.24 1300.35 1424.56 1265.93C1430.3 1240.23 1430.83 1212.35 1416.2 1189.26C1390.07 1149.18 1325.79 1137.85 1291.82 1102.13C1252.63 1060.74 1265.7 1001.5 1263.61 948.785C1263.61 937.022 1261.52 924.825 1253.16 915.241C1242.18 902.172 1221.28 897.38 1205.08 889.538C1170.59 872.548 1151.26 836.39 1159.62 803.717C1165.89 778.886 1185.74 758.41 1200.38 736.192C1241.14 674.767 1241.14 595.918 1200.9 534.492C1194.11 524.473 1184.7 513.581 1171.11 513.145C1163.27 513.145 1155.96 517.066 1148.12 518.809C960.519 563.244 931.255 408.156 852.348 415.562Z" fill="#63B6FF" stroke="black" stroke-width="20" stroke-miterlimit="10"/>
<path d="M769.264 794.134C769.264 803.718 769.265 814.174 775.013 821.58C781.283 829.421 791.211 830.728 800.095 831.164C837.719 832.471 875.345 830.292 911.924 823.757C920.285 822.45 928.124 820.707 934.917 815.044C949.026 802.846 949.548 778.451 949.026 757.105C947.981 723.56 941.711 681.739 914.015 669.977C904.609 665.62 894.157 666.492 884.228 667.799C856.01 670.848 828.314 676.512 801.141 683.917C793.302 686.096 784.941 688.709 779.193 695.679C773.444 702.649 769.264 768.431 769.264 794.134Z" fill="white" stroke="black" stroke-width="20" stroke-miterlimit="10"/>
<path d="M906.162 712.438C915.634 711.612 922.267 702.601 920.976 692.312C919.686 682.022 910.96 674.349 901.487 675.175C892.015 676.001 885.383 685.013 886.674 695.302C887.965 705.592 896.689 713.264 906.162 712.438Z" fill="black"/>
</svg>
