<svg width="1760" height="1760" viewBox="0 0 1760 1760" fill="none" xmlns="http://www.w3.org/2000/svg">
<rect width="1760" height="1760" fill="white"/>
<path d="M873.273 554.45C823.725 545.508 792.567 579.575 758.854 611.087C725.141 642.598 697.557 678.368 660.269 706.899C641.369 721.377 618.895 733.725 593.865 735.429C550.958 737.984 521.332 730.319 473.827 698.382C466.165 693.272 453.395 694.976 444.711 699.234C438.071 702.641 434.496 708.601 430.92 714.137C417.129 736.28 402.826 757.999 389.034 780.142C366.559 815.06 329.783 858.495 351.747 893.413C385.971 947.068 420.704 933.441 438.071 959.843C452.884 982.838 448.798 1010.09 451.352 1035.64C453.906 1068.86 451.352 1106.33 473.316 1134.43C493.237 1159.56 538.699 1177.02 574.455 1183.83C626.046 1193.62 677.126 1170.63 725.141 1152.32C773.156 1134.01 832.919 1120.38 875.826 1146.36C891.15 1155.3 901.877 1168.5 914.136 1180.42C942.741 1208.1 981.052 1230.24 1024.47 1233.23C1067.89 1236.21 1114.88 1215.34 1127.14 1180.42C1134.29 1159.56 1129.18 1137.41 1129.69 1115.7C1130.21 1093.98 1140.93 1069.28 1165.96 1062.47C1193.03 1055.23 1219.08 1072.26 1243.09 1084.61C1283.95 1105.9 1342.7 1113.14 1377.43 1085.46C1401.95 1065.87 1407.06 1035.64 1410.12 1007.54C1421.87 904.484 1412.68 822.725 1379.47 723.081C1374.37 707.325 1374.88 666.444 1355.98 661.335C1334.01 655.799 1313.58 671.555 1294.17 681.349C1214.49 720.525 1152.68 708.176 1109.26 694.976C986.67 657.928 974.411 572.335 873.784 554.45H873.273Z" fill="#FCFFA6" stroke="black" stroke-width="20" stroke-miterlimit="10"/>
<path d="M995.86 852.533C1004.03 864.882 995.858 893.839 977.98 913.427C950.908 944.087 899.827 958.14 855.899 946.642C811.97 935.145 779.79 899.375 778.258 861.476C778.258 859.347 778.259 857.218 779.28 855.089C780.813 852.534 784.388 851.256 787.963 850.404C859.986 829.112 983.601 834.222 995.349 852.533H995.86Z" fill="#FAFCFF" stroke="black" stroke-width="20" stroke-miterlimit="10"/>
<path d="M888.598 869.991C895.651 869.991 901.368 865.225 901.368 859.345C901.368 853.465 895.651 848.699 888.598 848.699C881.545 848.699 875.828 853.465 875.828 859.345C875.828 865.225 881.545 869.991 888.598 869.991Z" fill="black" stroke="black" stroke-width="20" stroke-miterlimit="10"/>
</svg>
