<svg width="1760" height="1760" viewBox="0 0 1760 1760" fill="none" xmlns="http://www.w3.org/2000/svg">
<rect width="1760" height="1760" fill="white"/>
<path d="M667.333 671.216C637.272 678.395 605.415 639.359 579.841 656.409C572.213 661.345 568.175 669.87 564.586 677.946C522.858 768.133 480.234 863.704 489.208 962.865C495.489 1036 530.037 1105.55 531.383 1179.13C532.729 1241.05 511.642 1309.25 545.741 1360.85C569.521 1396.3 617.978 1412.9 658.36 1399.44C732.84 1374.31 756.172 1271.56 829.306 1243.3C920.388 1208.3 1008.78 1311.05 1106.14 1313.74C1189.15 1316.43 1260.04 1240.16 1270.36 1157.6C1280.68 1075.04 1241.19 993.376 1184.66 932.803C1158.64 904.984 1125.88 870.435 1138.45 834.091C1146.52 811.207 1170.3 798.195 1191.84 786.081C1221 769.03 1249.72 746.147 1259.14 713.842C1268.56 681.536 1246.58 639.359 1212.93 639.808C1196.77 639.808 1181.97 649.23 1166.26 652.82C1113.32 664.486 1093.13 608.399 1080.12 555.902C1067.11 503.406 1043.77 444.178 1011.47 400.207C998.458 382.708 980.062 368.349 958.526 364.76C909.171 357.132 870.136 408.283 857.573 457.19C845.01 506.098 846.356 559.492 819.435 601.669C789.374 648.781 730.148 656.409 667.782 671.216H667.333Z" fill="#B7ABFF" stroke="black" stroke-width="20" stroke-miterlimit="10"/>
<path d="M792.063 875.818C774.565 871.779 756.169 867.741 742.709 855.627C729.248 843.512 722.07 821.077 731.492 802.232C745.85 772.619 783.987 774.414 811.357 758.709C841.418 741.659 856.673 703.52 881.799 677.496C887.183 671.663 893.914 666.279 900.644 665.382C914.553 663.138 923.975 677.496 927.565 691.854C931.154 706.213 931.603 721.917 939.679 733.134C951.793 749.287 975.125 748.39 994.866 750.633C1014.61 752.876 1037.04 767.235 1032.11 789.669C1026.27 817.488 985.893 822.872 975.125 849.345C967.048 869.087 979.163 888.381 989.034 904.983C998.905 921.584 1006.08 945.813 991.726 961.518C976.919 977.222 953.588 967.351 940.576 952.993C927.565 938.634 914.553 920.238 894.811 922.033C870.134 923.828 849.046 957.031 825.266 952.095C810.908 949.403 803.729 933.25 801.037 917.546C799.08 906.128 805.093 893.761 805.934 884.585C806.465 878.794 800.607 875.818 794.792 875.818H792.063Z" fill="white" stroke="black" stroke-width="20" stroke-miterlimit="10"/>
<path d="M953.078 809.541C959.787 795.995 954.605 779.754 941.504 773.265C928.403 766.775 912.344 772.495 905.634 786.041C898.925 799.587 904.107 815.828 917.208 822.317C930.309 828.807 946.368 823.087 953.078 809.541Z" fill="black"/>
</svg>
