<svg width="1760" height="1760" viewBox="0 0 1760 1760" fill="none" xmlns="http://www.w3.org/2000/svg">
<g clip-path="url(#clip0_10_769)">
<path d="M1760 0H0V1760H1760V0Z" fill="white"/>
<path d="M655.725 561.091L458.432 574.163C442.1 575.252 425.113 576.886 412.047 584.511C391.141 597.037 387.877 621.544 385.917 643.329C376.118 767.504 366.318 891.134 357.172 1015.31C355.866 1036 353.903 1056.7 362.396 1076.31C380.035 1116.61 434.913 1137.3 486.523 1140.57C538.134 1143.84 589.743 1135.13 640.7 1138.94C691.657 1142.75 747.19 1162.36 765.482 1203.2C773.975 1222.26 772.668 1243.51 777.895 1263.11C792.267 1315.94 857.594 1355.15 922.27 1351.34C986.947 1347.53 1044.44 1302.87 1055.55 1249.5C1060.12 1227.71 1058.16 1204.29 1071.22 1184.69C1087.56 1161.27 1122.18 1150.92 1154.84 1148.2C1225.4 1142.75 1305.1 1162.9 1361.29 1127.5C1406.36 1098.64 1414.86 1045.81 1417.47 998.424C1419.43 959.211 1420.08 920.543 1418.78 881.33C1418.78 867.714 1417.47 853.555 1408.98 842.662C1398.52 829.046 1379.58 821.966 1362.59 813.797C1303.79 785.477 1265.25 730.47 1263.95 673.285C1263.95 640.063 1274.4 607.384 1275.05 573.618C1275.7 539.851 1261.99 503.361 1226.05 488.111C1194.7 475.04 1157.46 482.665 1124.14 489.745C982.375 520.788 839.301 548.565 655.725 561.091Z" fill="#B0FCA4" stroke="black" stroke-width="20" stroke-miterlimit="10"/>
<path d="M1049.01 784.933C935.332 641.152 715.18 727.748 671.409 844.297C598.893 1037.64 880.463 1057.79 981.071 1022.93C1114.34 977.185 1096.05 844.297 1049.01 784.933Z" fill="white" stroke="black" stroke-width="20" stroke-miterlimit="10"/>
<path d="M898.757 1036C921.849 1036 940.569 1022.35 940.569 1005.5C940.569 988.659 921.849 975.004 898.757 975.004C875.666 975.004 856.945 988.659 856.945 1005.5C856.945 1022.35 875.666 1036 898.757 1036Z" fill="black"/>
</g>
<defs>
<clipPath id="clip0_10_769">
<rect width="1760" height="1760" fill="white"/>
</clipPath>
</defs>
</svg>
