<svg width="1760" height="1760" viewBox="0 0 1760 1760" fill="none" xmlns="http://www.w3.org/2000/svg">
<rect width="1760" height="1760" fill="white"/>
<path d="M869.959 371.937C645.568 355.076 847.062 571.091 733.34 593.361C687.164 602.269 658.161 598.77 610.841 595.907C601.682 595.27 592.142 594.952 584.509 599.087C573.824 605.132 572.679 617.858 573.061 628.675C574.587 712.664 575.732 796.652 577.258 880.959C577.258 891.139 578.022 901.956 585.272 909.909C592.905 918.181 606.261 921.362 618.855 923.907C655.872 932.497 692.889 944.268 722.273 965.265C751.658 986.262 771.502 1018.08 767.304 1050.21C758.527 1118.29 657.78 1145.65 605.88 1198.78C590.233 1214.69 578.403 1236 586.417 1255.41C600.156 1290.08 658.925 1291.04 701.284 1281.49C743.644 1271.95 795.926 1260.5 826.073 1287.22C848.207 1306.95 845.917 1338.12 861.945 1361.67C889.422 1401.75 974.523 1397.3 995.893 1354.35C1016.88 1312.35 979.102 1263.04 994.748 1219.46C1005.43 1189.55 1043.6 1168.24 1080.99 1171.1C1093.59 1172.06 1107.71 1175.24 1118.39 1169.83C1130.6 1163.47 1132.51 1149.15 1132.51 1137.06C1134.8 1012.03 1136.71 887.004 1139 761.975C1139 749.568 1139 735.569 1127.93 726.98C1119.54 720.299 1106.94 718.707 1095.11 718.389C1050.85 716.799 956.587 729.525 931.4 712.981C896.673 690.394 946.283 605.132 953.152 547.868C959.258 500.465 989.787 380.845 870.723 371.937H869.959Z" fill="#FFD58C" stroke="black" stroke-width="20" stroke-miterlimit="10"/>
<path d="M869.578 891.457C912.319 883.822 957.732 903.546 983.682 933.133C989.788 940.45 995.512 948.086 997.802 956.994C1002.38 973.537 996.275 991.035 985.59 1005.35C966.509 1030.8 932.926 1047.98 897.436 1051.16C893.62 1051.16 889.422 1051.48 886.751 1049.25C884.843 1047.66 884.461 1045.75 883.698 1043.53C871.868 1004.4 863.09 964.947 856.985 925.18C855.076 912.772 853.932 894.32 869.578 891.457Z" fill="white" stroke="black" stroke-width="20" stroke-miterlimit="10"/>
<path d="M927.582 982.128C936.013 982.128 942.847 976.858 942.847 970.357C942.847 963.856 936.013 958.586 927.582 958.586C919.152 958.586 912.317 963.856 912.317 970.357C912.317 976.858 919.152 982.128 927.582 982.128Z" fill="black"/>
</svg>
