<svg width="1760" height="1760" viewBox="0 0 1760 1760" fill="none" xmlns="http://www.w3.org/2000/svg">
<rect width="1760" height="1760" fill="white"/>
<path d="M798.123 584.117C759.952 615.939 659.18 603.21 588.945 606.604C542.122 608.726 489.191 611.696 458.654 641.396C446.948 653.276 439.823 667.702 434.225 682.128C401.652 766.137 400.125 855.662 398.598 943.489C396.563 1065.68 395.036 1187.46 393 1309.65C393 1316.86 393 1324.92 399.107 1330.44C404.706 1335.53 413.358 1336.81 420.992 1337.65C476.468 1344.02 532.961 1344.02 588.436 1338.5C604.723 1336.8 621.518 1334.26 633.733 1324.92C644.929 1316.44 649.51 1303.71 652.564 1291.41C662.743 1244.31 649.001 1191.7 679.538 1151.39C713.129 1107.26 799.141 1100.48 842.401 1138.66C893.296 1184.06 876.501 1262.98 927.905 1307.95C964.549 1339.77 1023.59 1343.59 1076.52 1344.02C1124.87 1344.44 1173.22 1344.02 1221.57 1342.75C1239.38 1342.32 1258.21 1341.47 1272.97 1332.56C1290.78 1321.53 1296.38 1301.59 1300.46 1283.34C1309.62 1243.89 1318.27 1204.85 1327.43 1165.39C1335.57 1129.75 1342.19 1089.87 1316.23 1060.59C1294.86 1036.83 1256.69 1027.92 1229.2 1008.41C1199.68 987.615 1183.4 953.673 1188.49 921.427C1193.58 889.181 1219.02 859.905 1254.14 845.904C1271.45 839.115 1290.28 835.72 1306.05 826.385C1336.59 808.141 1343.72 773.35 1348.3 742.377C1354.4 701.645 1360 660.489 1366.11 619.757C1367.13 613.393 1367.64 607.028 1365.6 601.088C1358.98 584.117 1331.5 581.571 1310.13 581.571C1244.47 581.571 1178.82 574.782 1115.71 561.205C1107.56 559.508 1099.42 557.387 1093.82 552.295C1088.73 547.628 1087.21 541.264 1085.68 535.324C1079.06 509.443 1051.58 292.206 877.519 374.518C836.803 393.611 825.097 430.949 814.409 468.711C803.721 506.472 818.481 566.297 799.65 581.996L798.123 584.117Z" fill="#7968D9" stroke="black" stroke-width="20" stroke-miterlimit="10"/>
<path d="M872.433 744.498C887.192 728.799 902.46 712.676 923.327 703.342C944.194 694.008 973.204 694.007 988.473 708.433C1012.9 731.345 988.473 767.409 989.491 798.382C991.017 832.75 1024.1 859.056 1037.84 890.878C1040.89 898.091 1042.93 905.728 1039.88 912.941C1034.28 926.942 1012.9 931.61 995.089 930.761C977.276 929.913 959.463 925.669 942.667 929.912C917.729 936.701 905.514 959.188 891.264 977.857C877.013 996.525 848.512 1013.5 826.627 1002.04C799.653 987.616 816.957 947.732 794.054 929.064C777.259 915.062 748.758 921.002 724.837 925.669C700.917 930.336 669.871 929.912 661.219 911.243C652.567 892.15 676.996 873.058 700.408 864.572C723.82 856.087 751.303 849.298 761.482 829.78C773.697 805.596 749.776 775.047 768.607 753.832C779.804 741.104 802.198 738.559 821.029 741.104C839.86 743.65 858.182 749.166 871.415 744.923L872.433 744.498Z" fill="white" stroke="black" stroke-width="20" stroke-miterlimit="10"/>
<path d="M894.193 875.994C908.854 865.41 911.94 848.358 901.084 837.906C890.228 827.455 869.541 827.562 854.88 838.146C840.218 848.73 837.132 865.783 847.988 876.235C858.844 886.686 879.531 886.579 894.193 875.994Z" fill="black"/>
</svg>
