<svg width="1760" height="1760" viewBox="0 0 1760 1760" fill="none" xmlns="http://www.w3.org/2000/svg">
<rect width="1760" height="1760" fill="white"/>
<path d="M882.122 398.074C831.788 408.666 809.308 465.293 794.648 509.699C779.988 554.104 767.771 602.177 727.21 633.138C691.537 660.434 636.316 668.582 591.357 653.101C578.652 648.62 566.435 642.509 552.752 642.917C524.408 642.917 506.816 669.804 504.372 693.025C501.929 716.246 507.793 741.097 498.019 763.096C478.961 807.909 408.591 821.353 374.872 859.648C344.085 894.683 351.904 948.867 391.487 976.977C412.012 991.235 438.889 998.976 455.504 1016.49C477.495 1040.12 473.586 1073.53 468.699 1103.27C463.323 1135.86 457.459 1168.86 452.084 1201.45C448.174 1225.49 443.776 1250.34 450.617 1274.37C462.346 1317.15 510.725 1350.96 563.014 1353C615.303 1355.04 667.591 1325.3 683.718 1283.34C705.708 1226.71 666.125 1167.64 655.374 1108.97C647.067 1064.16 658.306 1014.86 696.423 982.681C734.54 950.497 802.467 941.941 843.516 971.68C877.724 996.531 884.565 1038.9 879.678 1076.38C874.792 1113.86 859.154 1150.53 858.176 1188.41C856.71 1244.63 888.963 1300.45 941.741 1334.67C994.029 1368.48 1076.62 1378.26 1124.02 1339.15C1182.66 1290.67 1154.32 1202.67 1201.72 1146.45C1235.44 1106.12 1298.97 1092.68 1343.92 1060.9C1389.86 1028.72 1414.78 973.718 1396.7 926.053C1378.13 875.536 1319 841.316 1298.48 791.614C1283.82 756.579 1287.73 713.395 1255.47 688.136C1215.89 657.582 1148.94 674.285 1101.05 652.694C1054.14 631.509 1040.45 581.401 1030.68 537.402C1020.91 493.404 994.029 374.445 882.122 398.074Z" fill="#FF6640" stroke="black" stroke-width="20" stroke-miterlimit="10"/>
<path d="M861.598 671.843C821.527 701.175 816.64 783.876 827.88 836.43C829.834 844.985 832.278 852.725 835.698 859.243C840.585 866.984 846.938 871.465 853.78 874.317C878.702 884.909 908.512 875.131 930.991 843.355C953.47 811.578 965.687 756.988 955.914 717.471C950.049 693.435 936.855 677.547 922.195 669.399C907.534 661.251 887.01 653.103 861.598 671.435V671.843Z" fill="white" stroke="black" stroke-width="20" stroke-miterlimit="10"/>
<path d="M904.367 780.74C906.063 768.446 901.786 757.938 894.814 757.27C887.843 756.602 880.818 766.026 879.122 778.32C877.426 790.614 881.702 801.121 888.673 801.79C895.644 802.458 902.671 793.034 904.367 780.74Z" fill="black"/>
</svg>
