<svg width="1760" height="1760" viewBox="0 0 1760 1760" fill="none" xmlns="http://www.w3.org/2000/svg">
<rect width="1760" height="1760" fill="white"/>
<path d="M491.5 504C471.152 540.877 493.846 585.392 519.503 620.057C545.159 654.721 575.24 691.968 569.047 732.533C563.738 768.304 531.004 797.068 496.943 819.195C462.882 841.321 424.397 860.866 399.625 890.368C366.89 929.457 362.467 979.61 359.37 1027.18C358.486 1037.88 358.043 1048.94 362.909 1058.9C370.429 1073.65 388.566 1082.5 405.818 1089.5C461.997 1112.37 522.599 1127.49 582.76 1141.87C704.85 1171.37 827.382 1198.66 950.357 1225.58C976.898 1231.48 1004.77 1237.38 1031.75 1231.48C1070.23 1223 1095.01 1193.13 1114.91 1164.37C1134.82 1135.6 1154.72 1104.26 1189.67 1089.5C1238.33 1068.85 1301.59 1085.45 1348.03 1061.85C1378.56 1046.36 1394.48 1016.12 1399.35 986.617C1409.52 925.4 1375.46 860.497 1314.41 825.095C1286.55 808.869 1253.81 798.543 1229.48 778.63C1203.83 757.61 1190.56 728.107 1185.25 698.606C1181.27 675.004 1179.94 647.715 1156.94 634.07C1145.44 627.432 496.943 505.369 496.943 505.369L491.5 504Z" fill="#3EC790" stroke="black" stroke-width="20" stroke-miterlimit="10"/>
<path d="M886.661 1030.5C903.028 1036.77 922.049 1043.41 938.416 1041.19C956.553 1038.98 965.4 1027.18 971.593 1016.48C999.461 970.757 1020.25 922.08 1033.97 872.296C1037.06 861.233 1039.72 849.8 1033.97 837.999C1022.46 812.185 979.998 795.222 941.955 781.946C882.68 761.295 805.268 741.381 765.898 767.564C752.185 776.783 746.435 790.059 742.011 803.335C728.74 840.581 719.451 878.564 714.585 917.654C713.258 929.086 712.373 941.625 720.778 953.057C729.183 964.489 841.541 1013.54 886.219 1030.87L886.661 1030.5Z" fill="white" stroke="black" stroke-width="20" stroke-miterlimit="10"/>
<path d="M906.094 893.725C911.022 881.355 899.604 867.059 880.591 861.796C861.579 856.533 842.173 862.295 837.245 874.665C832.318 887.036 843.735 901.33 862.747 906.594C881.759 911.857 901.167 906.096 906.094 893.725Z" fill="black"/>
</svg>
