<svg width="1760" height="1760" viewBox="0 0 1760 1760" fill="none" xmlns="http://www.w3.org/2000/svg">
<rect width="1760" height="1760" fill="white"/>
<path d="M578 421C543.211 494.338 509.036 559.008 468.249 630.013C459.052 646.014 447.456 662.348 446.256 680.349C436.66 794.69 506.637 815.024 559.419 852.36C612.202 889.696 638.194 896.363 642.192 953.7C645.391 997.036 628.597 1047.37 579.013 1061.71C551.822 1069.37 523.031 1072.71 494.641 1076.71C420.265 1087.37 403.87 1141.38 375.08 1186.05C370.681 1193.05 366.283 1201.38 370.281 1208.38C372.681 1212.72 378.279 1215.72 383.077 1218.05C442.658 1247.05 505.837 1271.39 571.415 1289.72C593.408 1296.05 617.8 1301.39 639.393 1294.39C656.988 1288.72 669.783 1275.72 681.379 1263.38C710.57 1232.38 739.76 1201.71 768.951 1170.71C791.343 1146.71 821.733 1120.38 857.722 1126.04C882.913 1130.04 900.907 1149.71 905.706 1170.71C910.504 1191.71 904.906 1213.05 897.309 1233.38C887.712 1257.72 875.316 1284.05 886.912 1307.72C891.71 1317.39 900.108 1325.39 908.905 1333.06C942.494 1361.72 983.281 1384.39 1028.07 1399.39C1036.46 1402.39 1046.06 1405.06 1054.86 1403.06C1065.25 1401.06 1072.45 1393.73 1078.85 1386.73C1132.83 1327.39 1174.42 1260.05 1202.01 1189.05C1204.41 1182.38 1207.21 1175.38 1205.61 1168.71C1202.01 1150.04 1174.82 1143.38 1154.02 1135.71C1112.04 1120.38 1038.86 1094.71 1076.05 1022.7C1095.24 985.368 1119.24 927.698 1178.02 947.032C1206.81 956.366 1241.2 971.034 1265.59 955.366C1281.18 945.366 1272.79 961.033 1279.58 945.699C1316.77 864.694 1353.56 783.689 1390.75 703.017C1403.94 674.015 1417.54 644.347 1418.34 613.345C1418.34 600.344 1416.34 586.677 1407.14 576.343C1399.14 567.343 1386.35 562.009 1374.35 557.009C1325.97 537.675 1289.58 532.674 1238 519.34C1218 514.34 1179.22 513.672 1162.82 531.007C1122.43 573.676 1130.43 624.013 1123.63 656.348C1112.44 711.685 1074.45 717.019 1030.07 717.019C1000.87 717.019 959.288 688.35 941.694 660.015C915.303 617.013 1000.08 507.339 884.913 480.337C812.536 463.336 758.154 455.002 581.412 413.667L578 421Z" fill="#FFF570" stroke="black" stroke-width="20" stroke-miterlimit="10"/>
<path d="M870.52 1027.37C885.315 1033.04 902.509 1039.04 917.304 1037.04C933.699 1035.04 941.696 1024.37 947.295 1014.7C972.486 973.368 991.28 929.365 1003.68 884.362C1006.48 874.362 1008.87 864.028 1003.68 853.361C993.28 830.026 954.892 814.692 920.503 802.691C866.921 784.023 796.944 766.022 761.355 789.69C748.96 798.024 743.761 810.024 739.762 822.025C727.766 855.694 719.369 890.03 714.971 925.365C713.771 935.699 712.971 947.033 720.569 957.367C728.166 967.701 829.733 1012.04 870.12 1027.7L870.52 1027.37Z" fill="white" stroke="black" stroke-width="20" stroke-miterlimit="10"/>
<path d="M887.757 903.569C892.211 892.387 881.889 879.465 864.703 874.707C847.517 869.949 829.974 875.157 825.519 886.339C821.065 897.522 831.387 910.444 848.573 915.202C865.759 919.959 883.302 914.751 887.757 903.569Z" fill="black"/>
</svg>
