<svg width="1760" height="1760" viewBox="0 0 1760 1760" fill="none" xmlns="http://www.w3.org/2000/svg">
<rect width="1760" height="1760" fill="white"/>
<path d="M636.889 562.065C618.169 557.847 597.931 566.705 585.283 578.936C572.634 591.168 566.057 607.196 559.985 622.38C503.825 759.882 447.666 896.963 391 1034.47C388.47 1040.37 385.94 1047.12 387.458 1053.44C389.988 1063.99 402.131 1070.74 413.262 1075.8C475.493 1104.48 542.784 1124.3 610.074 1142.86C637.901 1150.46 666.234 1158.05 695.579 1158.05C724.924 1158.05 755.281 1150.03 774 1131.48C788.673 1116.71 794.238 1097.31 804.357 1080.44C818.018 1058.08 842.303 1039.1 871.648 1032.36C900.993 1025.61 935.397 1033.2 954.117 1053.02C982.45 1083.39 969.802 1131.48 1000.66 1159.74C1014.83 1172.81 1036.08 1179.14 1056.82 1183.78C1106.41 1195.16 1158.01 1199.8 1209.62 1197.7C1222.77 1197.27 1235.93 1196.01 1247.57 1190.52C1263.76 1182.93 1272.36 1168.17 1279.44 1153.83C1338.13 1045.43 1389.74 934.924 1434.77 822.307C1441.34 805.858 1447.41 788.143 1440.33 772.115C1429.71 748.073 1395.3 739.215 1365.45 732.467C1336.11 725.718 1307.27 717.283 1278.93 707.582C1264.77 702.942 1250.6 697.458 1239.47 688.601C1231.88 682.274 1225.81 674.26 1217.71 668.355C1204.05 659.075 1185.84 656.967 1168.13 656.124C1119.56 653.593 1070.48 657.389 1022.42 652.749C983.968 648.953 946.022 640.095 908.582 631.66C828.643 612.679 751.739 585.685 637.395 561.643L636.889 562.065Z" fill="#99E6FF" stroke="black" stroke-width="20" stroke-miterlimit="10"/>
<path d="M788.163 977.102C729.979 981.319 674.326 949.264 646.499 906.664C639.921 896.541 634.356 885.153 632.332 873.343C629.296 850.988 640.933 829.055 657.629 811.34C687.48 780.55 735.039 762.413 782.598 763.256C787.657 763.256 793.223 764.101 796.258 767.053C798.282 769.162 798.788 772.115 799.294 774.645C807.389 827.368 811.437 880.935 811.437 934.08C811.437 950.951 808.907 974.993 788.163 976.258V977.102Z" fill="white" stroke="black" stroke-width="20" stroke-miterlimit="10"/>
<path d="M800.166 872.393C801.88 860.834 792.705 850.374 779.671 849.03C766.637 847.686 754.681 855.968 752.966 867.527C751.251 879.086 760.427 889.546 773.461 890.89C786.495 892.233 798.451 883.952 800.166 872.393Z" fill="black"/>
</svg>
