<svg width="1760" height="1760" viewBox="0 0 1760 1760" fill="none" xmlns="http://www.w3.org/2000/svg">
<rect width="1760" height="1760" fill="white"/>
<path d="M583.812 833.798C528.365 836.157 502.339 869.174 481.405 912.096C436.143 1006.43 395.972 1103.12 361.459 1200.76C356.932 1213.49 352.406 1228.12 360.327 1240.38C367.117 1250.29 380.13 1255.47 393.143 1259.72C445.195 1276.23 501.773 1280.94 557.22 1286.13C758.074 1304.05 959.494 1321.51 1161.48 1322.45C1210.7 1322.45 1267.28 1319.15 1297.83 1287.07C1313.68 1270.09 1319.9 1248.4 1324.99 1227.17C1348.75 1127.18 1366.29 1025.77 1377.04 924.36C1379.31 902.191 1379.31 875.306 1356.68 862.571C1343.66 855.496 1327.25 855.496 1311.98 855.496C1226.54 855.496 1143.94 847.478 1055.68 833.328C960.059 818.234 944.784 786.632 960.626 762.577C981.56 731.447 1005.32 657.394 1016.07 610.699C1026.26 566.362 1030.22 520.137 1013.81 477.215C997.401 434.293 957.231 395.617 904.047 386.183C848.034 375.806 788.061 401.277 754.114 439.954C720.167 478.631 709.982 529.1 712.811 576.739C715.64 629.094 717.338 680.034 712.811 732.389C708.285 784.745 682.825 830.498 584.378 834.743L583.812 833.798Z" fill="#FFD58C" stroke="black" stroke-width="20" stroke-miterlimit="10"/>
<path d="M750.72 1018.69C741.667 1048.41 734.878 1084.26 762.036 1105.95C779.575 1119.63 806.167 1123.4 831.062 1124.82C862.746 1126.71 894.995 1125.76 924.416 1116.33C953.837 1106.9 979.863 1088.97 988.916 1065.39C997.969 1039.92 986.653 1013.51 973.074 989.45C947.613 945.113 913.666 902.663 862.746 874.835C857.088 872.005 851.43 868.702 844.641 867.758C829.364 865.4 814.654 873.891 807.299 884.739C799.943 895.588 761.47 983.79 751.286 1018.69H750.72Z" fill="white" stroke="black" stroke-width="20" stroke-miterlimit="10"/>
<path d="M867.624 1053.01C884.77 1052.04 897.914 1041.98 896.981 1030.54C896.048 1019.11 881.392 1010.62 864.246 1011.6C847.099 1012.57 833.955 1022.63 834.888 1034.06C835.821 1045.5 850.477 1053.98 867.624 1053.01Z" fill="#030005"/>
</svg>
