<svg width="1760" height="1760" viewBox="0 0 1760 1760" fill="none" xmlns="http://www.w3.org/2000/svg">
<rect width="1760" height="1760" fill="white"/>
<path d="M526.597 707.86C494.073 704.606 453.31 704.244 436.831 727.743C431.627 734.973 429.892 743.65 428.158 752.327C401.271 896.211 421.22 1044.07 393.466 1187.96C386.094 1225.55 375.686 1263.15 380.022 1300.75C380.89 1308.34 382.625 1315.93 387.395 1322.44C398.67 1336.18 422.521 1337.26 442.902 1336.9C567.794 1333.29 693.12 1318.83 817.145 1332.2C873.086 1338.35 928.16 1349.92 984.535 1353.89C1040.91 1357.87 1099.89 1353.89 1149.32 1330.76C1158.86 1326.42 1167.97 1320.99 1174.04 1313.76C1194.42 1289.9 1177.51 1257.73 1169.27 1229.53C1152.79 1172.77 1174.91 1112.76 1208.73 1061.79C1311.08 907.418 1454.62 826.799 1398.67 709.667C1385.23 681.469 1346.2 678.938 1317.15 684.722C1288.09 690.506 1237.35 740.035 1184.02 727.382C1099.89 707.499 1133.28 690.506 1156.26 539.03C1169.7 451.181 1116.8 432.022 1071.27 426.961C1040.91 423.345 983.234 430.213 956.348 442.866C918.186 460.942 900.407 484.803 894.335 520.954C881.76 592.174 873.087 683.638 821.915 703.522C716.971 744.373 625.904 718.344 525.73 708.222L526.597 707.86Z" fill="#FFE0F6" stroke="black" stroke-width="20" stroke-miterlimit="10"/>
<path d="M735.616 1099.38C735.616 1106.98 742.121 1113.12 751.228 1113.12C777.247 1113.12 827.55 1112.4 855.304 1104.81C893.899 1093.96 929.025 1070.82 940.734 1038.29C945.071 1026.72 945.938 1014.79 945.938 1002.86C945.505 980.806 939.867 958.031 923.822 940.678C908.644 924.048 885.66 913.202 861.809 907.418C842.295 902.718 776.379 899.826 752.962 898.742C748.192 898.742 744.289 901.634 743.856 905.973L735.616 1099.38Z" fill="white" stroke="black" stroke-width="20" stroke-miterlimit="10"/>
<path d="M851.47 1014.06C852.94 1004.16 845.075 995.192 833.904 994.04C822.732 992.888 812.485 999.986 811.015 1009.89C809.545 1019.8 817.41 1028.77 828.581 1029.92C839.753 1031.07 850 1023.97 851.47 1014.06Z" fill="black"/>
</svg>
