<svg width="1760" height="1760" viewBox="0 0 1760 1760" fill="none" xmlns="http://www.w3.org/2000/svg">
<rect width="1760" height="1760" fill="white"/>
<path d="M710.944 655.576C677.884 655.576 639.313 654.324 634.805 681.467C631.799 697.336 640.816 712.786 643.32 729.072C649.331 762.062 629.295 794.633 607.756 822.612C555.661 890.679 490.542 951.647 438.948 1019.71C387.354 1087.78 348.282 1167.13 357.299 1247.72C360.304 1273.19 367.818 1298.25 383.847 1319.96C430.432 1383.44 535.124 1401.81 621.281 1382.6C667.365 1372.58 710.444 1353.79 757.529 1348.78C825.654 1341.68 892.776 1363.81 957.895 1382.18C1023.01 1400.56 1095.65 1415.17 1159.26 1393.46C1238.91 1366.32 1278.98 1289.9 1285.49 1218.49C1292 1147.08 1272.47 1075.67 1270.97 1003.85C1268.46 871.889 1327.57 741.182 1308.03 610.476C1304.03 582.498 1295.51 554.519 1277.98 530.298C1262.95 510.254 1167.78 378.296 1101.66 371.197C997.968 359.922 974.425 455.968 1045.56 521.529C1142.23 610.059 1096.15 646.806 1089.63 651.817C1085.63 655.158 852.202 655.994 711.445 655.994L710.944 655.576Z" fill="#B0FCA4" stroke="black" stroke-width="20" stroke-miterlimit="10"/>
<path d="M779.572 1086.11C778.069 1105.32 776.567 1126.62 783.079 1142.49C790.091 1159.61 803.115 1163.78 815.137 1165.87C865.228 1175.48 916.322 1177.15 966.914 1170.47C977.934 1169.21 989.455 1167.12 999.473 1157.1C1020.51 1135.39 1025.52 1085.69 1028.03 1042.68C1032.03 975.033 1030.53 889.426 995.967 860.612C983.945 850.59 969.919 850.173 956.394 851.009C918.325 852.679 879.755 858.525 842.186 868.965C831.166 871.888 819.145 876.064 810.629 889.01C802.113 901.955 785.082 1033.91 780.574 1086.11H779.572Z" fill="white" stroke="black" stroke-width="20" stroke-miterlimit="10"/>
<path d="M911.809 1050.62C924.535 1050.62 934.852 1033.6 934.852 1012.62C934.852 991.63 924.535 974.616 911.809 974.616C899.083 974.616 888.768 991.63 888.768 1012.62C888.768 1033.6 899.083 1050.62 911.809 1050.62Z" fill="black"/>
</svg>
