<svg width="1760" height="1760" viewBox="0 0 1760 1760" fill="none" xmlns="http://www.w3.org/2000/svg">
<rect width="1760" height="1760" fill="white"/>
<path d="M822.891 385.105C775.515 382.911 734.718 415.459 717.61 452.395C700.502 489.33 701.38 529.922 698.748 569.052C696.116 608.182 688.219 649.872 657.513 680.225C616.716 720.452 545.213 729.594 482.922 720.452C457.48 716.795 427.65 711.309 408.348 725.571C395.627 735.079 391.679 750.074 389.047 763.97C356.147 923.781 347.812 1086.88 364.043 1248.52C366.675 1275.58 370.623 1304.11 389.486 1326.78C413.174 1354.94 455.286 1368.11 496.521 1372.49C562.321 1379.81 641.281 1362.62 666.724 1311.06C679.884 1284.36 675.937 1254.37 675.498 1225.85C675.059 1197.32 680.762 1165.51 706.643 1146.49C733.841 1126.38 778.146 1127.84 807.976 1145.39C837.805 1162.95 854.036 1192.94 857.984 1223.29C861.932 1252.18 856.229 1284.36 877.286 1307.77C896.587 1329.34 931.68 1335.19 964.142 1338.48C1046.17 1346.16 1129.52 1345.8 1211.55 1336.66C1236.99 1333.73 1263.75 1329.71 1283.49 1316.18C1306.3 1300.45 1315.95 1274.12 1311.13 1249.99C1306.3 1225.85 1288.32 1204.27 1264.19 1190.01C1242.26 1176.85 1215.5 1169.17 1192.69 1156.73C1169.88 1144.3 1149.26 1124.55 1150.14 1101.88C1151.02 1083.23 1166.37 1067.14 1184.79 1056.53C1203.22 1045.92 1224.27 1039.71 1244.89 1032.03C1312.01 1006.43 1371.67 957.425 1381.75 896.353C1383.51 885.017 1383.51 873.68 1378.68 863.075C1367.72 840.036 1336.13 828.699 1306.74 826.871C1277.35 825.042 1247.52 829.796 1218.13 827.602C1188.74 825.408 1157.16 814.071 1146.63 791.032C1140.05 776.404 1146.63 759.581 1142.68 743.856C1123.38 668.888 1002.75 729.229 920.714 679.494C857.107 641.095 899.658 562.105 903.606 498.107C905.799 463.366 913.695 389.859 822.452 385.471L822.891 385.105Z" fill="#E6E1E1" stroke="black" stroke-width="20" stroke-miterlimit="10"/>
<path d="M916.327 1018.5C925.539 1018.5 932.996 1013.01 932.996 1005.33C932.996 983.39 932.119 940.968 922.907 917.563C909.747 885.016 881.672 855.396 842.192 845.522C828.154 841.865 813.678 841.132 799.202 841.132C772.443 841.498 744.807 846.252 723.751 859.783C703.572 872.583 690.412 891.965 683.394 912.078C677.691 928.535 674.181 984.121 672.865 1003.87C672.865 1007.89 676.375 1011.18 681.639 1011.55L916.327 1018.5Z" fill="white" stroke="black" stroke-width="20" stroke-miterlimit="10"/>
<path d="M823.395 996.132C824.881 986.11 816.926 977.041 805.625 975.876C794.324 974.711 783.958 981.891 782.471 991.913C780.985 1001.94 788.94 1011 800.241 1012.17C811.542 1013.33 821.908 1006.15 823.395 996.132Z" fill="black"/>
</svg>
