<svg width="1760" height="1760" viewBox="0 0 1760 1760" fill="none" xmlns="http://www.w3.org/2000/svg">
<rect width="1760" height="1760" fill="white"/>
<path d="M837.723 362.153C788.296 359.557 740.816 390.38 724.081 429.313C710.849 459.486 715.908 492.904 713.573 525.024C711.238 557.144 698.396 592.833 664.148 607.433C626.397 623.655 571.133 611.327 547.003 640.202C538.052 650.909 536.495 664.86 534.939 677.838C531.436 711.905 528.323 746.295 524.82 780.362C522.096 808.913 505.75 863.096 554.398 882.563C593.316 898.136 647.412 885.157 689.833 892.944C744.708 903.002 728.752 939.341 719.8 971.785C695.671 1061.01 512.366 1069.12 522.096 1140.17C530.268 1199.87 683.607 1195.65 661.034 1292.66C655.585 1315.7 635.737 1341 647.023 1362.74C659.088 1385.78 694.503 1391.94 724.47 1394.21C828.771 1401.35 933.851 1396.48 1038.54 1391.62C1075.12 1389.99 1112.87 1388.05 1145.96 1375.39C1179.04 1362.74 1207.84 1336.46 1208.61 1305.96C1209.39 1270.92 1175.92 1243.02 1145.57 1218.36C1108.98 1188.51 1073.18 1156.39 1052.55 1117.14C1031.93 1077.88 1028.42 1030.18 1054.89 993.522C1078.24 961.078 1120.66 941.936 1154.52 916.629C1192.66 888.078 1220.68 850.443 1234.69 809.563C1238.58 797.558 1241.69 785.228 1238.97 773.224C1231.58 739.157 1186.04 721.313 1145.18 716.446C1104.31 711.579 1060.34 714.176 1023.75 697.953C979.774 678.162 957.98 634.687 951.364 593.482C944.748 552.278 949.808 509.775 943.191 468.246C936.575 426.717 926.457 367.343 837.334 362.801L837.723 362.153Z" fill="#63B6FF" stroke="black" stroke-width="20" stroke-miterlimit="10"/>
<path d="M931.516 931.877C886.76 935.122 843.949 910.463 822.544 877.695C817.485 869.908 813.204 861.149 811.647 852.064C809.312 834.869 818.263 817.997 831.106 804.371C854.068 780.686 890.651 766.735 927.235 767.383C931.126 767.383 935.408 768.032 937.743 770.303C939.299 771.926 939.689 774.197 940.078 776.144C946.305 816.7 949.418 857.904 949.418 898.784C949.418 911.762 947.472 930.255 931.516 931.229V931.877Z" fill="white" stroke="black" stroke-width="20" stroke-miterlimit="10"/>
<path d="M900.182 847.192C901.158 840.613 895.032 834.566 886.5 833.686C877.967 832.806 870.259 837.427 869.283 844.007C868.307 850.587 874.432 856.634 882.965 857.514C891.498 858.393 899.206 853.772 900.182 847.192Z" fill="black"/>
</svg>
