<svg width="1760" height="1760" viewBox="0 0 1760 1760" fill="none" xmlns="http://www.w3.org/2000/svg">
<rect width="1760" height="1760" fill="white"/>
<path d="M1279.63 521.474C972.182 572.171 547.757 579.212 539.733 589.774C528.753 603.505 558.315 609.842 579.43 636.598C604.769 668.636 582.809 713.701 557.893 745.739C532.976 777.776 497.502 803.125 464.139 829.178C430.776 855.231 383.055 881.987 365.318 917.194C342.091 964.018 365.318 1022.46 401.637 1063.3C436.266 1102.38 494.123 1143.22 527.064 1183C546.49 1206.24 554.936 1216.45 555.359 1244.61C555.359 1255.18 554.514 1266.44 562.116 1274.89C567.606 1280.88 576.474 1283.69 585.343 1286.16C662.204 1305.87 1067.2 1286.86 1212.06 1260.1C1315.1 1241.09 1355.64 1066.12 1233.17 1017.18C1201.08 1004.51 1166.02 993.24 1145.75 968.947C1115.35 932.685 1131.39 880.931 1163.49 845.372C1195.59 809.814 1240.77 784.818 1277.09 752.076C1321.01 712.644 1350.15 661.947 1360.29 608.785C1363.67 591.534 1364.51 572.875 1355.22 557.384C1345.93 541.893 1323.12 514.08 1279.63 521.121V521.474Z" fill="#3EC790" stroke="black" stroke-width="20" stroke-miterlimit="10"/>
<path d="M695.146 970.356C693.457 929.868 728.509 892.901 772.43 875.298C782.988 871.073 794.39 867.905 806.215 867.201C828.598 866.145 850.135 875.298 866.606 887.973C895.745 910.153 911.793 944.303 908.837 977.045C908.837 980.566 907.57 984.438 904.191 986.198C902.08 987.606 899.124 987.607 896.167 987.959C842.956 990.775 789.322 991.127 736.111 988.663C719.218 987.959 695.569 984.79 695.146 970.356Z" fill="white" stroke="black" stroke-width="20" stroke-miterlimit="10"/>
<path d="M824.537 934.591C826.224 926.942 820.711 919.686 812.223 918.385C803.736 917.084 795.488 922.23 793.8 929.879C792.113 937.529 797.625 944.784 806.113 946.085C814.6 947.387 822.85 942.241 824.537 934.591Z" fill="black"/>
</svg>
