<svg width="1760" height="1760" viewBox="0 0 1760 1760" fill="none" xmlns="http://www.w3.org/2000/svg">
<rect width="1760" height="1760" fill="white"/>
<path d="M798.912 356.441C713.406 363.873 690.712 433.804 680.986 483.127C671.261 531.437 688.686 578.734 644.515 607.787C623.443 621.639 585.755 618.598 577.245 639.544C572.382 651.706 579.271 664.542 584.134 676.704C614.932 753.392 553.741 834.134 484.85 890.889C452.026 917.916 415.96 943.592 393.266 977.037C370.573 1010.48 364.899 1055.41 392.861 1086.16C428.117 1124.67 504.302 1129.4 529.021 1173.32C545.231 1202.03 532.264 1235.82 524.564 1266.9C516.865 1297.98 519.701 1337.5 553.336 1352.71C567.114 1358.79 583.324 1359.46 598.723 1359.8C708.138 1362.16 817.552 1352.71 924.131 1331.76C972.354 1322.3 1026.66 1305.75 1042.87 1266.56C1058.67 1228.72 1031.11 1188.18 999.505 1158.11C967.897 1128.05 929.399 1099.67 918.457 1060.82C903.463 1008.79 951.687 950.686 1014.9 943.929C1078.12 937.173 1142.56 983.118 1144.18 1036.5C1144.99 1059.81 1137.69 1087.85 1159.58 1102.03C1168.9 1108.12 1181.46 1109.47 1193.62 1110.48C1233.73 1114.2 1281.55 1115.21 1305.46 1088.18C1316.4 1075.68 1319.24 1059.47 1322.08 1043.93C1347.2 891.227 1367.87 738.19 1384.48 584.814C1386.92 561.504 1388.54 546.301 1371.92 527.72C1345.99 498.329 1292.9 492.249 1249.54 496.979C1157.96 506.438 1064.34 504.073 973.57 490.222C956.145 487.519 938.315 484.14 924.536 475.019C902.653 460.154 897.385 435.155 887.659 413.196C877.934 391.237 857.266 351.373 798.912 356.441Z" fill="#DAD4FF" stroke="black" stroke-width="20" stroke-miterlimit="10"/>
<path d="M759.197 1072.98C712.595 1076.36 668.018 1050.68 645.73 1016.56C640.462 1008.45 636.004 999.333 634.383 989.873C631.952 971.968 641.272 954.401 654.645 940.212C678.555 915.55 716.647 901.023 754.74 901.699C758.792 901.699 763.25 902.374 765.681 904.739C767.302 906.428 767.708 908.794 768.113 910.821C774.597 953.05 777.839 995.954 777.839 1038.52C777.839 1052.03 775.812 1071.29 759.197 1072.3V1072.98Z" fill="white" stroke="black" stroke-width="20" stroke-miterlimit="10"/>
<path d="M726.571 985.036C727.587 978.185 721.209 971.889 712.324 970.973C703.439 970.057 695.413 974.868 694.397 981.719C693.381 988.571 699.759 994.868 708.643 995.784C717.528 996.7 725.554 991.888 726.571 985.036Z" fill="black"/>
</svg>
