<svg width="1760" height="1760" viewBox="0 0 1760 1760" fill="none" xmlns="http://www.w3.org/2000/svg">
<rect width="1760" height="1760" fill="white"/>
<path d="M612 578.994C538.4 572.475 488.919 587.7 392.319 596.52C379.899 597.67 367.019 602.272 358.739 609.942C350.919 617.228 348.619 627.966 346.319 637.553C334.359 699.677 327.92 762.568 327 825.459C327 836.197 327 846.934 332.52 856.521C343.1 874.545 369.32 881.447 392.78 885.282C440.16 892.952 488.919 896.404 537.219 895.253C548.719 895.253 560.68 894.486 570.8 899.088C590.58 907.908 592.879 930.533 591.959 948.941C587.819 1072.04 570.34 1194.75 539.06 1315.55C535.84 1328.2 534 1343.93 546.88 1351.21C551.94 1353.9 557.92 1354.28 563.9 1355.05C630.14 1360.8 696.84 1363.87 763.54 1363.87C789.76 1363.87 818.28 1363.1 839.9 1350.06C871.64 1331.27 876.7 1294.46 881.3 1262.25C885.9 1230.03 898.32 1192.84 934.66 1180.95C957.66 1173.66 982.96 1179.03 1006.42 1184.78C1080.94 1202.42 1155.92 1220.06 1230.44 1237.32C1243.32 1240.39 1257.58 1243.46 1270 1239.24C1283.34 1235.02 1291.16 1223.51 1297.6 1213.16C1323.82 1170.59 1344.52 1125.73 1359.24 1079.71C1364.3 1063.99 1367.98 1045.58 1356.48 1032.54C1345.44 1020.27 1324.28 1017.2 1310.94 1006.08C1287.02 986.138 1298.98 952.775 1313.24 927.082C1339 881.447 1367.52 836.58 1398.8 793.247C1411.68 775.223 1425.48 756.816 1431 736.108C1436.52 715.4 1433.3 692.007 1415.36 677.051C1402.48 666.314 1354.18 644.455 1340.84 633.718C1306.34 605.723 1282.88 606.107 1244.24 632.567C1181.22 675.134 1102.1 679.352 1023.9 660.178C965.481 645.606 907.52 606.49 910.28 555.871C911.66 530.944 927.76 508.319 937.42 484.543C947.08 460.768 948.92 431.238 927.3 413.982C915.34 404.395 897.86 400.561 881.3 398.26C849.1 394.042 813.68 394.425 787.92 410.914C733.64 446.578 758.48 529.411 703.28 563.541C678.44 578.88 639.34 581.564 605.76 578.496L612 578.994Z" fill="#B0FCA4" stroke="black" stroke-width="20" stroke-miterlimit="10"/>
<path d="M847.26 820.089C787 851.151 787.919 940.119 825.179 993.423C831.159 1001.86 838.06 1009.91 847.26 1016.05C858.76 1023.72 873.479 1027.55 887.739 1029.85C940.179 1038.29 997.68 1025.25 1034.02 989.972C1070.36 954.691 1079.56 897.168 1049.2 857.67C1030.8 833.51 999.979 818.172 968.239 811.653C936.499 805.133 897.4 794.012 847.26 820.089Z" fill="white" stroke="black" stroke-width="20" stroke-miterlimit="10"/>
<path d="M895.562 865.341C909.789 865.341 921.322 855.039 921.322 842.332C921.322 829.624 909.789 819.323 895.562 819.323C881.335 819.323 869.802 829.624 869.802 842.332C869.802 855.039 881.335 865.341 895.562 865.341Z" fill="black"/>
</svg>
