<svg width="1760" height="1760" viewBox="0 0 1760 1760" fill="none" xmlns="http://www.w3.org/2000/svg">
<rect width="1760" height="1760" fill="white"/>
<path d="M729.966 541.204C675.028 537.278 635.263 528.119 587.65 525.065C573 524.193 557.826 523.321 545.269 529.864C535.851 534.662 529.572 542.512 523.817 550.364C465.216 629.313 412.893 711.317 367.896 795.937C361.094 809.023 354.292 822.981 356.385 836.939C361.094 864.855 397.197 880.122 414.464 904.549C432.776 929.848 428.067 962.561 415.51 990.041C402.952 1017.52 383.593 1042.82 373.129 1071.17C362.664 1099.52 362.141 1132.67 384.64 1155.36C397.197 1168.01 415.509 1175.42 433.299 1182.4C459.983 1192.87 487.714 1202.46 517.015 1205.95C546.315 1209.44 577.708 1205.08 601.253 1189.81C647.296 1159.72 647.819 1098.65 692.816 1067.68C723.163 1046.75 768.684 1045 804.263 1059.39C839.842 1073.79 866.003 1100.83 881.176 1130.93C890.071 1148.81 895.827 1168.44 908.907 1184.58C941.347 1225.15 1007.27 1235.18 1065.87 1233.87C1080 1233.87 1094.65 1232.56 1106.68 1227.33C1135.46 1215.11 1143.83 1184.58 1148.54 1157.97C1153.25 1131.37 1155.87 1090.36 1186.22 1086.44C1280.92 1073.79 1281.44 1092.98 1325.91 1079.02C1363.59 1066.81 1378.76 1029.73 1388.7 997.02C1405.45 943.369 1420.62 880.995 1380.33 836.504C1368.82 823.854 1353.65 813.822 1342.13 800.736C1309.17 763.224 1316.5 710.881 1330.62 665.518C1338.47 640.219 1347.89 624.08 1334.81 600.526C1317.54 568.685 1295.05 567.812 1238.01 529.864C1210.28 511.544 1194.06 489.299 1151.16 453.531C1140.17 444.371 960.184 556.908 729.966 540.769V541.204Z" fill="#FFE0F6" stroke="black" stroke-width="20" stroke-miterlimit="10"/>
<path d="M1010.41 783.286C1022.97 832.139 990.529 884.045 941.869 913.706C929.835 920.685 917.278 927.227 902.628 929.844C875.42 935.079 846.643 928.099 823.098 915.886C781.241 894.077 752.987 855.692 747.754 815.127C747.754 810.765 747.231 805.967 750.894 802.914C753.51 800.733 756.649 800.297 760.311 799.425C824.667 785.903 889.547 775.87 954.95 768.891C975.355 766.71 1005.7 765.402 1010.41 783.286Z" fill="white" stroke="black" stroke-width="20" stroke-miterlimit="10"/>
<path d="M962.271 811.203C978.742 811.203 992.094 801.048 992.094 788.521C992.094 775.995 978.742 765.839 962.271 765.839C945.8 765.839 932.447 775.995 932.447 788.521C932.447 801.048 945.8 811.203 962.271 811.203Z" fill="black"/>
</svg>
