<svg width="1760" height="1760" viewBox="0 0 1760 1760" fill="none" xmlns="http://www.w3.org/2000/svg">
<rect width="1760" height="1760" fill="white"/>
<path d="M858.15 349.159C799.863 342.283 745.427 379.413 718.483 422.962C691.539 466.511 683.839 516.478 667.343 563.694C650.846 610.91 619.505 659.043 565.617 678.297C534.823 689.298 499.63 689.757 466.638 687.465C447.942 686.09 428.147 683.798 411.101 690.674C386.906 700.301 377.009 724.596 369.86 746.142C358.863 780.981 348.965 818.112 362.711 852.034C374.809 881.831 399.003 906.585 420.448 932.256C482.584 1005.6 386.355 1172 397.903 1181.17C403.951 1185.76 412.199 1186.67 419.898 1187.59C492.481 1195.38 563.967 1207.3 634.351 1223.8C649.198 1227.01 664.594 1231.14 675.042 1240.77C691.538 1255.44 689.339 1278.36 692.638 1298.07C701.986 1354.91 764.672 1402.13 833.407 1403.5C902.142 1404.88 968.127 1360.87 981.324 1304.94C985.173 1288.9 985.724 1270.1 1000.57 1259.1C1009.37 1252.23 1022.01 1249.47 1034.11 1248.1C1064.36 1243.97 1095.7 1243.97 1126.49 1248.56C1169.93 1254.98 1222.17 1267.81 1252.96 1241.68C1265.61 1231.14 1271.66 1216.01 1276.06 1201.34C1284.31 1173.84 1290.36 1145.42 1293.65 1117.45C1294.75 1107.37 1295.3 1097.28 1292 1087.66C1284.86 1067.49 1261.21 1054.19 1238.12 1045.94C1215.02 1037.69 1189.18 1032.65 1168.83 1019.81C1135.29 999.184 1121.54 959.301 1136.94 927.213C1152.34 895.124 1195.23 873.579 1236.47 877.705C1254.61 879.539 1272.76 885.499 1290.36 882.748C1321.15 877.247 1335.44 848.825 1344.79 824.07C1368.44 759.893 1387.68 694.341 1403.08 627.871C1406.38 613.66 1404.18 566.444 1337.64 560.485C1311.25 558.193 1272.21 584.323 1245.82 587.073C1152.34 597.158 1130.34 599.451 985.172 571.488C974.174 569.196 966.478 560.027 962.629 550.859C958.779 542.607 959.878 533.439 961.528 524.729C966.477 493.557 972.526 461.469 965.377 430.756C958.229 400.042 936.784 358.786 859.251 349.618L858.15 349.159Z" fill="#2667FF" stroke="black" stroke-width="20" stroke-miterlimit="10"/>
<path d="M796.012 979.472C820.756 988.182 850.449 996.433 871.345 979.472C884.542 968.928 890.04 951.051 893.339 934.09C897.738 913.003 899.387 890.54 894.439 869.911C889.49 849.283 876.292 829.571 856.497 821.32C835.601 812.61 811.958 818.112 790.513 825.447C750.921 838.741 711.329 857.993 683.286 890.081C679.986 893.749 677.238 897.416 675.588 902C672.289 912.085 678.337 923.087 686.585 929.046C694.833 935.006 766.868 968.928 795.461 979.472H796.012Z" fill="white" stroke="black" stroke-width="20" stroke-miterlimit="10"/>
<path d="M836.44 904.174C837.132 892.542 829.825 882.788 820.118 882.386C810.412 881.985 801.983 891.089 801.29 902.72C800.598 914.352 807.906 924.106 817.612 924.508C827.318 924.909 835.748 915.806 836.44 904.174Z" fill="#030005"/>
</svg>
