<svg width="1760" height="1760" viewBox="0 0 1760 1760" fill="none" xmlns="http://www.w3.org/2000/svg">
<rect width="1760" height="1760" fill="white"/>
<path d="M1026.39 498C974.013 504.496 925.529 529.757 896.526 566.567C871.851 597.603 859.298 636.939 824.667 660.397C797.828 678.802 761.465 684.575 727.267 684.575C693.069 684.575 658.437 679.523 623.806 679.162C609.087 679.162 592.638 679.884 581.815 688.184C574.889 693.236 570.994 700.454 567.531 707.672C549.782 743.76 535.496 780.57 524.674 818.463C516.449 846.973 505.627 880.895 472.294 890.278C457.576 894.248 437.23 888.113 422.079 888.113C390.045 888.113 372.729 893.887 355.414 916.262C342.427 933.223 341.128 966.425 354.115 983.386C379.223 1016.23 437.231 1016.23 463.204 1042.93C490.476 1071.08 472.727 1102.12 464.935 1137.84C462.77 1148.67 461.039 1159.5 464.935 1169.96C472.727 1194.14 503.895 1207.13 532.899 1213.63C561.902 1220.12 593.936 1222.29 619.91 1210.02C639.39 1200.64 651.944 1184.4 664.931 1169.24C686.142 1144.7 709.951 1120.88 741.552 1105.72C773.153 1090.57 813.411 1086.24 845.445 1100.67C907.348 1128.46 906.482 1207.49 961.459 1243.94C993.493 1265.23 1040.25 1267.4 1077.04 1252.6C1113.84 1237.81 1140.24 1208.21 1151.93 1175.37C1165.35 1137.12 1163.19 1089.85 1201.28 1066.03C1225.09 1051.59 1256.69 1051.23 1285.26 1045.46C1329.85 1036.07 1368.81 1010.09 1390.02 976.529C1400.41 959.929 1406.47 941.162 1402.57 923.118C1394.78 885.226 1347.6 861.768 1327.68 827.124C1290.89 761.804 1359.72 680.245 1325.52 613.843C1314.7 592.912 1293.92 575.59 1268.38 566.928C1241.54 557.546 1208.64 562.598 1183.1 551.05C1125.53 525.066 1078.77 492.587 1027.26 499.083L1026.39 498Z" fill="#FFD58C" stroke="black" stroke-width="20" stroke-miterlimit="10"/>
<path d="M898.694 918.426C897.396 928.892 896.53 940.801 901.292 949.462C906.486 958.845 916.876 961.371 925.967 962.454C964.927 967.867 1004.75 968.589 1043.71 964.98C1052.37 964.258 1061.46 963.176 1068.82 957.402C1085.27 945.493 1089.17 917.705 1090.9 893.886C1093.93 856.355 1093.06 808.718 1065.79 792.839C1056.27 787.426 1045.44 787.065 1035.05 787.426C1005.18 788.148 975.749 791.756 946.313 797.531C937.655 799.335 928.564 801.5 921.637 808.718C914.711 815.935 901.724 889.194 898.261 918.065L898.694 918.426Z" fill="white" stroke="black" stroke-width="20" stroke-miterlimit="10"/>
<path d="M1061.46 909.406C1071.5 909.406 1079.64 899.873 1079.64 888.114C1079.64 876.354 1071.5 866.822 1061.46 866.822C1051.42 866.822 1043.28 876.354 1043.28 888.114C1043.28 899.873 1051.42 909.406 1061.46 909.406Z" fill="black"/>
</svg>
