<svg width="1760" height="1760" viewBox="0 0 1760 1760" fill="none" xmlns="http://www.w3.org/2000/svg">
<rect width="1760" height="1760" fill="white"/>
<path d="M492.187 1247.52C505.349 1315.69 530.359 1385.14 599.464 1400.25C668.569 1415.36 740.964 1386.43 797.235 1344.3C821.586 1326.3 844.621 1305.08 873.58 1296.4C932.154 1279.03 992.045 1316.01 1052.92 1323.08C1100.97 1328.55 1150.99 1314.4 1188.17 1284.18C1262.21 1224.37 1275.05 1119.23 1274.06 1025.67C1272.74 896.088 1255.96 766.51 1224.04 640.469C1221.74 632.109 1219.43 622.785 1212.52 617.319C1194.09 602.207 1168.76 623.428 1150.99 639.826C1103.6 683.233 1028.24 694.808 969.339 667.478C952.886 659.761 936.432 647.543 934.458 629.858C932.154 609.602 949.266 592.882 964.074 578.413C993.69 550.118 1020.02 518.608 1042.39 484.526C1056.21 463.304 1069.05 439.511 1069.38 414.431C1069.71 389.352 1053.91 362.022 1028.57 356.877C999.614 351.09 972.63 374.883 959.467 400.606C946.304 426.328 940.71 456.231 923.598 479.703C906.487 503.175 870.618 518.608 847.254 500.924C835.407 491.921 830.142 477.13 820.27 466.198C799.21 441.762 760.379 438.225 729.776 449.8C699.172 461.375 674.821 484.204 651.128 506.39C630.067 526.325 608.02 548.832 604.071 577.127C600.451 603.493 613.943 629.216 625.46 653.33C650.47 705.74 669.227 763.616 659.355 820.527C641.256 923.74 536.611 992.548 501.73 1091.58C482.644 1145.6 480.34 1184.5 492.516 1247.2L492.187 1247.52Z" fill="#FF82C1" stroke="black" stroke-width="20" stroke-miterlimit="10"/>
<path d="M759.064 614.424C723.854 652.365 733.068 740.786 749.192 796.733C751.825 805.736 755.116 814.096 759.064 820.527C764.33 828.565 770.582 832.745 776.834 834.996C799.869 843.677 825.208 830.173 841.332 793.196C857.457 756.22 861.405 695.772 848.243 653.972C840.016 628.571 826.524 612.495 812.374 605.421C798.224 598.347 778.151 593.524 759.064 614.102V614.424Z" fill="white" stroke="black" stroke-width="20" stroke-miterlimit="10"/>
<path d="M798.554 752.039C804.734 752.039 809.743 741.098 809.743 727.602C809.743 714.106 804.734 703.166 798.554 703.166C792.375 703.166 787.366 714.106 787.366 727.602C787.366 741.098 792.375 752.039 798.554 752.039Z" fill="black"/>
</svg>
