<svg width="1760" height="1760" viewBox="0 0 1760 1760" fill="none" xmlns="http://www.w3.org/2000/svg">
<rect width="1760" height="1760" fill="white"/>
<path d="M845.872 427.918C783.164 453.089 711.631 462.382 642.42 453.862C620.588 451.152 598.756 446.892 576.46 448.054C554.164 449.216 531.404 456.96 520.256 472.837C508.643 489.875 513.288 511.561 523.043 529.374C532.797 547.186 546.268 563.838 552.307 582.812C570.887 640.51 515.611 702.468 537.442 759.391C552.771 798.889 601.544 824.446 616.408 863.944C628.949 897.246 614.085 934.421 586.679 960.366C559.274 986.311 520.721 1002.57 481.238 1014.19C453.368 1022.32 423.64 1028.91 403.202 1046.72C381.371 1065.69 374.867 1093.57 369.758 1119.52C366.042 1138.11 362.326 1156.69 358.145 1175.28C356.287 1184.19 354.429 1193.48 358.145 1202C361.861 1210.52 371.151 1216.72 380.441 1221.75C425.497 1244.98 481.239 1244.98 534.192 1244.21C609.905 1243.05 692.121 1239.95 749.72 1198.52C779.448 1177.22 798.957 1147.79 815.679 1118.36C835.653 1083.51 856.555 1044.01 899.754 1030.46C944.346 1016.13 993.582 1035.1 1033.99 1056.01C1092.06 1085.44 1147.8 1119.91 1210.97 1141.2C1245.34 1152.82 1283.43 1160.57 1319.2 1152.82C1381.91 1139.65 1420.92 1075.76 1396.77 1025.81C1382.37 995.991 1350.78 973.918 1337.78 943.714C1324.77 914.284 1331.74 882.144 1337.31 851.166C1354.5 756.68 1361 660.646 1355.89 565.386C1354.5 535.182 1333.13 499.556 1328.95 494.135C1308.98 470.901 1288.08 470.127 1274.14 473.612C1238.84 482.518 1202.61 488.327 1165.91 490.65C1146.87 491.812 1126.89 492.199 1108.31 487.939C1082.3 481.744 1061.4 466.641 1039.1 453.475C1008.91 435.662 975.003 420.947 938.772 415.913C902.541 410.879 864.917 420.56 846.337 428.305L845.872 427.918Z" fill="#63B6FF" stroke="#050000" stroke-width="20" stroke-miterlimit="10"/>
<path d="M1039.1 728.024C1050.25 771.394 1021.45 817.474 978.251 843.806C967.568 850.002 956.42 855.81 943.414 858.134C919.26 862.781 893.711 856.585 872.809 845.742C835.649 826.38 810.565 792.304 805.92 756.291C805.92 752.419 805.456 748.159 808.707 745.448C811.03 743.512 813.818 743.126 817.069 742.351C874.203 730.347 931.801 721.44 989.864 715.244C1007.98 713.308 1034.92 712.147 1039.1 728.024Z" fill="white" stroke="black" stroke-width="20" stroke-miterlimit="10"/>
<path d="M971.284 849.227C985.907 849.227 997.761 840.212 997.761 829.091C997.761 817.97 985.907 808.956 971.284 808.956C956.661 808.956 944.809 817.97 944.809 829.091C944.809 840.212 956.661 849.227 971.284 849.227Z" fill="black"/>
</svg>
