<svg width="1760" height="1760" viewBox="0 0 1760 1760" fill="none" xmlns="http://www.w3.org/2000/svg">
<rect width="1760" height="1760" fill="white"/>
<path d="M731.34 422.429C694.257 425.042 662.395 445.071 640.458 470.326C618.521 495.581 604.419 535.204 581.96 560.024C559.501 584.843 526.073 594.858 488.989 593.552C471.753 592.681 455.04 587.456 437.281 585.279C419.523 583.102 399.675 586.149 389.751 598.341C383.483 605.743 382.439 615.759 381.917 624.903C374.082 725.486 366.247 825.633 358.412 926.216C356.323 952.777 354.234 979.774 358.412 1005.9C366.247 1058.15 397.586 1107.35 445.638 1141.32C479.066 1165.26 524.506 1182.25 567.335 1173.1C599.718 1166.14 624.789 1145.23 651.949 1128.69C693.211 1103 745.965 1085.15 796.629 1093.86C831.623 1099.95 861.916 1118.24 890.121 1136.96C936.084 1167.44 979.958 1199.66 1021.22 1234.06C1052.56 1260.19 1085.46 1288.49 1128.82 1296.33C1160.68 1301.99 1193.58 1295.46 1223.88 1285.88C1239.54 1281.09 1255.21 1274.99 1266.71 1264.98C1326.77 1214.9 1249.47 1113.88 1308.49 1063.37C1318.94 1054.67 1332.52 1048.57 1345.05 1042.04C1371.17 1028.54 1395.72 1011.12 1410.34 988.482C1424.96 965.84 1428.1 937.102 1413.47 914.46C1385.27 871.353 1307.97 865.693 1277.67 823.457C1244.77 776.866 1286.03 709.81 1247.38 666.703C1223.88 640.578 1180 634.482 1140.83 635.788C1101.66 637.095 1061.96 644.497 1023.83 637.095C958.543 623.596 917.282 571.345 881.765 523.884C846.248 476.423 822.221 416.333 730.295 422.429H731.34Z" fill="#FF82C1" stroke="#030000" stroke-width="20" stroke-miterlimit="10"/>
<path d="M716.716 741.596C661.874 767.721 662.918 841.744 696.868 885.722C702.091 892.688 708.881 899.655 716.716 904.445C727.162 910.976 740.219 914.024 753.277 915.766C800.806 922.733 853.038 911.847 885.943 882.673C918.848 853.5 927.205 805.603 900.045 772.511C883.331 752.481 855.648 739.418 826.399 734.193C797.15 728.968 762.157 719.389 716.716 741.16V741.596Z" fill="white" stroke="black" stroke-width="20" stroke-miterlimit="10"/>
<path d="M882.283 842.615C895.264 842.615 905.788 833.842 905.788 823.02C905.788 812.199 895.264 803.426 882.283 803.426C869.302 803.426 858.78 812.199 858.78 823.02C858.78 833.842 869.302 842.615 882.283 842.615Z" fill="black"/>
</svg>
