<svg width="1760" height="1760" viewBox="0 0 1760 1760" fill="none" xmlns="http://www.w3.org/2000/svg">
<rect width="1760" height="1760" fill="white"/>
<path d="M744.457 372.64C671.818 363.699 605.516 411.657 532.39 416.533C498.264 418.566 455.851 414.095 436.838 438.074C421.238 457.988 433.426 485.217 426.113 508.383C420.263 525.859 403.687 541.709 407.588 559.185C410.513 571.784 423.676 580.318 433.914 589.666C458.777 611.612 472.426 642.094 471.451 672.575C470.964 692.49 464.139 712.404 469.989 731.506C478.764 762.8 515.814 781.902 548.477 798.971C581.14 816.041 616.241 840.019 615.754 872.533C615.754 896.918 595.279 917.645 573.341 933.495C551.403 949.345 526.052 963.163 510.451 983.483C489.489 1010.71 488.514 1045.26 489.977 1077.37C491.439 1109.88 495.827 1146.05 524.59 1168C539.215 1179.38 558.716 1185.07 578.216 1189.13C613.317 1196.85 649.88 1199.29 686.443 1197.26C747.87 1193.6 819.045 1178.56 863.896 1213.52C901.434 1242.78 899.973 1293.58 927.273 1329.75C953.111 1363.48 1001.37 1381.37 1049.15 1386.65C1149.09 1398.43 1255.37 1361.86 1316.79 1295.21C1378.22 1228.55 1392.36 1133.45 1352.38 1055.83C1329.96 1011.93 1290.96 972.104 1288.03 924.554C1284.62 872.939 1323.13 827.014 1355.79 783.527C1388.46 740.041 1418.68 686.394 1396.26 638.436C1369.93 581.132 1282.18 561.218 1209.54 570.159C1131.54 579.506 1048.66 612.02 978.461 581.538C928.735 559.998 904.36 513.666 880.959 471.399C857.559 429.131 826.846 381.988 744.457 371.827V372.64Z" fill="#5CFF37" stroke="black" stroke-width="20" stroke-miterlimit="10"/>
<path d="M1017.46 1045.26C966.27 1069.64 967.247 1138.74 998.935 1179.78C1003.81 1186.29 1010.15 1192.79 1017.46 1197.26C1027.21 1203.36 1039.4 1206.2 1051.59 1207.83C1095.95 1214.33 1144.7 1204.17 1175.41 1176.94C1206.13 1149.71 1213.93 1105 1188.58 1074.12C1172.98 1055.42 1147.14 1043.23 1119.84 1038.35C1092.54 1033.47 1059.87 1024.53 1017.46 1044.85V1045.26Z" fill="white" stroke="black" stroke-width="20" stroke-miterlimit="10"/>
<path d="M1040.38 1073.3C1052.49 1073.3 1062.31 1065.11 1062.31 1055.01C1062.31 1044.91 1052.49 1036.72 1040.38 1036.72C1028.26 1036.72 1018.44 1044.91 1018.44 1055.01C1018.44 1065.11 1028.26 1073.3 1040.38 1073.3Z" fill="black"/>
</svg>
