<svg width="1760" height="1760" viewBox="0 0 1760 1760" fill="none" xmlns="http://www.w3.org/2000/svg">
<rect width="1760" height="1760" fill="white"/>
<path d="M898.419 398C866.704 398 834.515 402.735 816.528 424.834C798.54 446.932 793.334 473.766 787.654 499.811C781.973 525.856 774.4 552.69 753.572 572.815C723.751 600.833 674.522 607.936 629.553 606.358C584.584 604.78 539.615 596.492 495.12 602.017C476.185 604.384 456.304 610.303 447.31 624.115C436.423 640.689 445.416 660.42 448.256 678.967C463.404 768.94 340.332 842.733 348.379 933.495C353.586 993.082 414.175 1039.25 432.162 1096.87C439.736 1120.54 440.209 1147.77 460.09 1166.32C478.078 1183.68 507.427 1188.81 534.881 1192.36C577.01 1197.89 619.612 1202.23 662.214 1204.99C717.597 1208.94 781.501 1214.07 813.215 1252.35C841.143 1285.49 833.569 1332.45 859.603 1366.79C883.745 1398.35 935.815 1411.77 978.89 1399.93C1021.97 1388.09 1053.68 1354.16 1060.78 1317.06C1067.41 1283.13 1058.41 1240.9 1091.08 1219.59C1101.96 1212.49 1116.16 1209.33 1130.36 1206.97C1158.77 1202.63 1187.64 1201.84 1216.04 1204.6C1258.17 1208.94 1309.77 1218.01 1335.8 1190.39C1347.16 1178.16 1350 1161.98 1352.37 1146.59C1357.58 1110.68 1362.78 1074.77 1368.46 1038.86C1369.88 1030.18 1370.83 1021.1 1368.46 1012.42C1363.26 997.028 1346.21 987.164 1330.12 978.482C1311.19 968.222 1292.25 957.173 1279.47 941.783C1266.69 926.393 1260.06 905.872 1269.06 888.509C1275.68 875.487 1288.94 864.832 1302.19 856.15C1438.99 765.388 1399.7 607.541 1395.92 603.2C1389.76 596.097 1353.32 603.595 1342.43 602.412C1231.66 588.995 1149.77 587.021 1038.53 563.739C1032.85 562.555 1027.65 560.187 1023.86 556.636C1017.7 551.111 1016.76 543.614 1015.81 536.116C1012.97 508.888 1010.6 481.658 998.771 456.403C986.937 431.147 965.162 398.789 899.839 398.789L898.419 398Z" fill="#FFF570" stroke="black" stroke-width="20" stroke-miterlimit="10"/>
<path d="M807.532 910.211C798.538 934.678 790.491 964.274 810.846 984.005C824.1 996.238 844.928 1000.58 864.809 1002.95C889.897 1005.71 915.931 1006.5 940.073 1000.58C964.214 994.66 986.462 980.453 994.982 960.722C1003.98 939.808 996.402 916.92 986.934 896.4C969.42 858.122 944.806 821.028 905.991 795.378C901.731 792.615 896.996 789.854 891.789 788.67C879.955 785.908 867.176 792.616 860.549 800.903C853.922 809.19 817.473 881.799 807.059 910.211H807.532Z" fill="white" stroke="black" stroke-width="20" stroke-miterlimit="10"/>
<path d="M861.021 882.59C874.877 882.59 886.109 874.816 886.109 865.227C886.109 855.637 874.877 847.863 861.021 847.863C847.166 847.863 835.934 855.637 835.934 865.227C835.934 874.816 847.166 882.59 861.021 882.59Z" fill="#030005"/>
</svg>
