<svg width="1760" height="1760" viewBox="0 0 1760 1760" fill="none" xmlns="http://www.w3.org/2000/svg">
<rect width="1760" height="1760" fill="white"/>
<path d="M959.233 379.962C929.611 381.231 901.665 396.883 891.046 418.035C880.427 439.188 888.251 464.994 909.489 480.647C926.815 493.338 950.849 499.684 964.822 514.068C979.354 529.297 979.912 549.603 978.235 568.217C976.559 592.754 971.528 618.982 948.054 635.903C923.462 653.248 886.575 654.095 853.041 653.672C772.558 653.672 692.075 653.249 611.592 652.826C588.118 652.826 561.85 652.826 543.965 664.672C523.286 677.363 519.372 699.784 516.577 719.667C507.635 778.047 491.427 839.812 438.331 882.116C419.887 896.923 397.53 908.768 380.204 924.421C362.878 940.073 350.583 961.226 358.408 980.686C370.703 1012.41 423.8 1022.14 452.863 1046.68C480.249 1069.95 483.602 1104.64 478.572 1135.52C473.542 1166.4 461.806 1197.28 465.159 1228.59C467.954 1258.2 485.279 1287.39 514.901 1306.85C544.523 1326.31 596.501 1328.43 624.446 1326.74C811.121 1316.58 722.815 1237.05 880.427 1224.78C1038.04 1212.51 1002.83 1373.69 1129.7 1382.16C1166.03 1384.69 1245.39 1360.58 1261.6 1336.04C1283.4 1301.78 1257.13 1260.74 1261.6 1223.09C1269.43 1163.86 1351.03 1122.83 1365 1064.03C1372.26 1033.99 1359.41 1001.84 1332.02 979.417C1299.05 952.765 1247.63 940.919 1219.12 911.306C1186.15 876.194 1196.21 828.813 1205.15 786.509C1227.51 683.286 1238.13 578.793 1236.45 473.878C1236.45 445.534 1232.54 413.805 1204.59 394.768C1180 378.27 1144.23 377 1111.26 377C1065.98 377 1020.71 377.847 959.233 380.385V379.962Z" fill="#B0FCA4" stroke="black" stroke-width="20" stroke-miterlimit="10"/>
<path d="M769.763 1002.26C768.086 1014.53 766.969 1028.07 768.646 1038.22C770.882 1049.22 776.47 1052.18 782.059 1053.87C803.857 1061.06 826.772 1062.76 849.129 1059.37C854.159 1058.53 859.188 1057.68 864.219 1051.33C874.838 1037.8 878.751 1006.07 882.104 978.57C886.575 935.42 889.929 880.848 875.397 861.811C870.367 855.042 864.219 854.619 858.071 855.042C840.745 855.042 823.418 858.425 806.092 864.771C801.062 866.463 795.473 869.002 791.002 877.04C786.531 885.078 773.677 969.263 769.205 1002.26H769.763Z" fill="white" stroke="black" stroke-width="20" stroke-miterlimit="10"/>
<path d="M821.131 969.831C821.786 960.031 812.072 951.693 799.432 951.208C786.793 950.724 776.014 958.276 775.358 968.076C774.703 977.877 784.417 986.214 797.057 986.698C809.696 987.183 820.475 979.632 821.131 969.831Z" fill="black"/>
</svg>
