<svg width="1760" height="1760" viewBox="0 0 1760 1760" fill="none" xmlns="http://www.w3.org/2000/svg">
<rect width="1760" height="1760" fill="white"/>
<path d="M777.133 722.65C724.532 704.627 725.524 697.059 694.26 699.582C662.997 702.105 632.726 710.395 601.463 709.313C574.666 708.592 548.861 701.023 522.064 697.779C495.267 694.535 464.997 696.698 446.636 711.116C433.237 721.93 429.763 737.068 427.281 751.486C420.334 788.972 414.876 826.818 411.403 864.665C409.914 882.687 408.424 901.43 418.349 918.011C443.161 961.985 531.492 975.682 548.365 1021.82C558.29 1048.85 538.937 1076.61 518.095 1100.03C497.252 1123.46 472.44 1147.25 469.959 1175.37C468.967 1190.15 473.929 1204.56 479.388 1218.98C482.365 1227.63 485.839 1236.64 493.779 1243.49C507.178 1255.39 530.004 1258.99 551.342 1260.43C607.914 1264.4 665.975 1259.71 720.066 1247.46C779.615 1233.76 839.659 1210.33 900.201 1219.7C995.479 1234.48 1040.14 1320.99 1132.44 1344.06C1173.63 1354.51 1221.27 1350.18 1257.5 1332.16C1293.72 1314.14 1317.05 1283.86 1318.53 1252.14C1320.02 1219.7 1299.68 1189.06 1284.29 1158.79C1268.91 1128.51 1258.99 1093.19 1279.83 1064.35C1290.75 1048.85 1309.6 1036.96 1323.5 1022.9C1353.77 991.542 1357.24 949.009 1341.36 912.244C1325.48 875.478 1290.74 844.48 1251.54 818.889C1203.41 787.891 1144.85 762.659 1116.56 720.487C1091.75 683.361 1095.72 639.026 1107.63 598.657C1119.54 558.287 1139.89 518.639 1145.34 477.548C1154.77 405.099 1079.35 380.589 1025.25 385.635C992.999 388.519 900.698 415.191 907.646 514.313C910.623 552.16 932.458 599.378 943.375 636.504C953.796 674.351 960.247 700.663 917.074 723.01C879.856 742.114 820.306 737.068 778.125 722.29L777.133 722.65Z" fill="#442FBD" stroke="black" stroke-width="20" stroke-miterlimit="10"/>
<path d="M1024.26 902.151C972.159 801.227 870.429 862.142 850.579 943.602C817.331 1079.49 946.852 1093.55 993.002 1069.4C1054.54 1037.32 1045.6 943.603 1024.26 902.151Z" fill="white" stroke="black" stroke-width="20" stroke-miterlimit="10"/>
<path d="M1009.37 985.774C1020.06 985.774 1028.73 976.253 1028.73 964.508C1028.73 952.763 1020.06 943.242 1009.37 943.242C998.686 943.242 990.021 952.763 990.021 964.508C990.021 976.253 998.686 985.774 1009.37 985.774Z" fill="black"/>
</svg>
