<svg width="1760" height="1760" viewBox="0 0 1760 1760" fill="none" xmlns="http://www.w3.org/2000/svg">
<rect width="1760" height="1760" fill="white"/>
<path d="M686.256 558.265C605.501 590.222 586.078 545.057 541.612 562.526C526.279 568.492 514.524 579.57 502.258 589.37C481.302 605.988 457.281 620.048 430.703 630.274C408.726 638.796 382.147 647.744 378.569 667.77C376.014 681.405 385.725 694.614 394.414 706.544C429.68 754.266 454.213 813.917 429.68 865.9C419.458 887.204 401.569 905.526 388.281 925.552C368.348 954.952 358.126 989.891 365.282 1023.13C372.437 1056.36 400.037 1087.46 438.37 1098.54C483.858 1111.75 533.436 1096.41 576.369 1078.52C619.301 1060.62 663.256 1039.74 711.3 1041.02C746.055 1041.87 780.299 1055.93 802.788 1078.52C836.01 1111.33 841.632 1157.34 868.209 1194.41C892.742 1228.5 937.72 1253.64 985.253 1254.49C1032.79 1255.34 1081.34 1227.65 1092.07 1188.45C1102.3 1151.8 1080.32 1111.75 1095.65 1075.96C1114.56 1032.5 1181.52 1017.59 1235.69 1027.39C1269.94 1033.35 1304.18 1046.99 1337.92 1038.89C1367.56 1031.65 1388 1008.64 1396.69 984.352C1405.38 960.065 1404.36 933.648 1403.34 908.509C1401.8 879.109 1400.78 849.709 1399.25 819.883C1398.74 804.118 1397.71 787.926 1390.05 773.865C1372.67 741.056 1324.63 726.995 1281.69 728.274C1238.76 729.552 1196.85 741.056 1154.43 744.465C1112.01 747.874 1063.96 738.926 1038.41 710.379C964.296 628.57 1038.41 570.197 981.675 527.162C952.031 504.153 906.542 503.3 866.164 508.839C816.076 515.657 765.988 528.44 687.278 559.118L686.256 558.265Z" fill="#FF82C1" stroke="black" stroke-width="20" stroke-miterlimit="10"/>
<path d="M662.237 763.213C645.37 764.491 626.97 766.195 613.681 770.882C599.37 775.995 596.814 782.813 595.792 788.352C591.703 813.065 594.771 836.927 604.993 859.935C607.038 865.048 610.104 870.16 619.304 873.569C639.748 881.239 683.703 877.83 721.525 873.996C780.813 868.456 854.923 858.231 876.9 838.631C884.567 831.814 883.545 825.421 882.012 819.03C877.412 801.134 868.723 784.091 856.456 767.474C852.879 762.787 848.279 757.674 836.012 755.117C823.746 752.561 707.725 759.378 662.237 763.213Z" fill="white" stroke="black" stroke-width="20" stroke-miterlimit="10"/>
<path d="M723.36 807.13C738.705 805.164 749.129 792.634 746.641 779.144C744.153 765.654 729.696 756.311 714.351 758.278C699.006 760.245 688.584 772.776 691.072 786.266C693.56 799.756 708.015 809.097 723.36 807.13Z" fill="black"/>
</svg>
