<svg width="1760" height="1760" viewBox="0 0 1760 1760" fill="none" xmlns="http://www.w3.org/2000/svg">
<rect width="1760" height="1760" fill="white"/>
<path d="M456.771 656.601C434.215 655.891 411.233 655.891 398.465 671.147C385.698 686.403 383.145 706.272 381.442 724.721C379.314 743.525 377.187 761.974 375.485 780.778C375.059 786.455 374.208 792.487 376.761 797.809C385.273 815.194 414.639 812.001 436.769 815.548C464.432 820.516 485.286 841.093 493.798 863.445C502.31 885.797 501.883 909.923 501.032 933.694C500.181 958.885 499.33 984.075 498.479 1009.27C498.053 1023.81 497.628 1039.07 506.565 1051.49C514.651 1062.84 529.121 1070.29 544.017 1074.9C619.771 1098.67 704.889 1066.74 784.899 1076.32C807.03 1078.8 830.011 1085.55 843.204 1100.8C851.29 1110.03 854.269 1121.74 857.674 1132.73C863.632 1154.02 869.591 1175.31 875.123 1196.6C879.805 1213.98 885.337 1232.43 899.807 1245.2C914.702 1258.69 936.834 1264.01 958.113 1268.97C984.074 1274.65 1011.31 1279.62 1038.12 1277.13C1064.93 1274.65 1091.75 1263.3 1104.51 1243.43C1116 1224.98 1113.88 1202.63 1115.15 1182.05C1116.43 1161.47 1125.37 1137.7 1148.78 1129.54C1159.84 1125.64 1171.76 1126.35 1183.67 1127.06C1213.89 1128.83 1244.11 1132.38 1273.9 1137.35C1295.18 1140.89 1320.71 1144.44 1336.03 1131.67C1342.42 1126.35 1345.82 1119.25 1349.23 1112.16C1361.99 1083.06 1370.51 1052.55 1373.91 1022.04C1375.61 1008.2 1376.04 993.3 1366.25 981.947C1353.06 967.045 1327.95 965.271 1307.09 959.239C1273.05 949.66 1244.96 923.76 1241.98 893.958C1239 864.155 1264.96 832.932 1300.71 829.03C1321.56 826.901 1347.1 832.223 1361.14 819.096C1366.25 814.128 1368.8 807.742 1370.93 801.711C1382.42 765.877 1387.1 728.623 1384.12 691.725C1382.85 673.985 1377.32 653.407 1358.59 645.247C1346.67 639.925 1332.2 641.345 1318.58 640.28C1254.75 634.958 1201.12 564 1136.86 564C1027.48 564 1085.36 672.921 931.301 677.178C812.988 680.371 670.416 662.632 458.049 656.245L456.771 656.601Z" fill="#96BDF2" stroke="black" stroke-width="20" stroke-miterlimit="10"/>
<path d="M704.039 801.003C689.995 800.293 674.248 799.938 662.757 802.421C649.989 805.26 647.01 810.227 645.308 814.839C638.073 834.708 637.221 854.577 641.902 874.445C642.753 878.703 644.456 883.315 651.691 887.218C667.438 895.733 704.039 897.507 735.532 898.571C785.326 899.99 847.887 899.635 868.741 885.798C875.976 880.831 876.401 875.509 875.975 870.187C874.698 855.286 870.443 840.03 862.782 825.129C860.654 820.871 857.675 815.904 847.886 812.711C838.098 809.518 741.49 802.777 703.613 801.003H704.039Z" fill="white" stroke="black" stroke-width="20" stroke-miterlimit="10"/>
<path d="M721.912 842.868C734.839 842.868 745.32 833.655 745.32 822.291C745.32 810.926 734.839 801.712 721.912 801.712C708.984 801.712 698.505 810.926 698.505 822.291C698.505 833.655 708.984 842.868 721.912 842.868Z" fill="black"/>
</svg>
