<svg width="1760" height="1760" viewBox="0 0 1760 1760" fill="none" xmlns="http://www.w3.org/2000/svg">
<g clip-path="url(#clip0_10_781)">
<path d="M1760 0H0V1760H1760V0Z" fill="white"/>
<path d="M515.703 532.781C489.624 544.573 490.948 575.527 492.716 600.216C495.811 641.488 493.159 683.128 485.203 724.031C482.993 735.454 479.014 748.352 467.079 754.617C459.565 758.67 449.841 759.038 441 759.775C407.848 762.723 372.485 775.253 360.109 800.679C348.174 826.105 363.646 855.953 388.399 873.641C413.152 891.329 445.42 900.173 476.362 908.649C482.55 910.491 489.181 912.334 493.159 916.756C498.463 922.652 497.579 930.759 495.811 937.76C490.065 966.503 481.667 995.245 471.5 1023.25C464.87 1041.31 456.913 1061.21 463.985 1079.26C471.499 1098.79 494.928 1111.69 518.797 1117.59C555.927 1127.17 601.897 1122.01 625.766 1096.58C647.868 1073 646.542 1039.83 658.918 1011.83C674.831 976.452 719.918 948.814 764.563 955.447C810.092 962.08 840.59 998.93 853.409 1035.78C866.228 1072.63 867.554 1112.06 882.583 1148.54C889.213 1164.76 898.939 1180.23 913.525 1192.39C931.206 1207.13 955.517 1215.24 979.387 1221.13C1041.71 1236.24 1109.34 1238.09 1172.55 1225.56C1199.96 1220.03 1227.36 1211.92 1249.02 1196.81C1272.89 1180.23 1287.92 1156.65 1299.86 1132.7C1351.57 1029.15 1375 913.807 1375 801.416C1375 727.348 1312.23 695.289 1241.95 695.657C1203.05 695.657 1143.82 708.554 1105.36 711.133C1066.91 713.713 1013.86 711.133 984.691 689.392C955.959 668.388 945.351 635.592 933.858 605.007C922.366 574.422 905.126 541.994 870.206 528.728C828.214 512.514 778.266 523.2 734.063 535.36C646.1 560.05 543.55 520.252 515.703 532.781Z" fill="#424242" stroke="black" stroke-width="20" stroke-miterlimit="10"/>
<path d="M1141.61 899.066C1100.5 840.106 1020.05 875.482 1004.14 923.387C977.62 1002.61 1080.17 1011.09 1116.86 996.718C1165.48 977.924 1158.41 923.387 1141.61 899.066Z" fill="white" stroke="black" stroke-width="20" stroke-miterlimit="10"/>
<path d="M1077.08 999.297C1090.5 999.297 1101.39 989.729 1101.39 977.925C1101.39 966.121 1090.5 956.551 1077.08 956.551C1063.65 956.551 1052.76 966.121 1052.76 977.925C1052.76 989.729 1063.65 999.297 1077.08 999.297Z" fill="black"/>
</g>
<defs>
<clipPath id="clip0_10_781">
<rect width="1760" height="1760" fill="white"/>
</clipPath>
</defs>
</svg>
