<svg width="1760" height="1760" viewBox="0 0 1760 1760" fill="none" xmlns="http://www.w3.org/2000/svg">
<rect width="1760" height="1760" fill="white"/>
<path d="M820.134 532.266C760.293 461.366 735.31 473.104 677.793 479.208C653.392 482.025 630.733 490.478 608.656 498.929C581.35 509.259 554.625 519.588 527.319 530.387C516.862 534.613 506.404 538.37 497.689 544.474C479.097 557.152 470.383 577.342 466.897 597.062C463.411 616.783 465.154 636.503 457.601 655.755C462.83 694.257 412.285 724.307 409.38 762.809C408.219 777.834 414.609 791.92 419.838 806.476C459.344 921.512 400.085 1042.18 383.817 1160.98C379.75 1189.62 378.588 1219.2 390.789 1245.96C402.989 1272.73 430.877 1297.14 465.736 1300.9C498.271 1304.65 529.642 1291.04 558.691 1278.36C588.902 1264.74 619.113 1251.13 649.324 1237.51C684.764 1221.55 720.784 1205.11 759.71 1197.13C798.635 1189.15 842.792 1189.15 878.232 1204.64C936.911 1230.47 959.57 1290.1 1013.02 1322.03C1057.76 1348.79 1117.6 1352.55 1172.21 1346.44C1250.64 1337.99 1331.39 1306.06 1362.77 1247.84C1394.72 1188.21 1366.83 1119.19 1333.14 1060.03C1299.44 1000.87 1258.77 939.825 1265.74 875.029C1270.97 824.789 1304.09 780.182 1333.14 735.576C1362.19 690.97 1387.75 641.199 1376.13 591.428C1370.9 567.951 1356.96 545.883 1356.96 521.936C1356.96 502.685 1364.51 480.147 1348.24 466.061C1340.11 459.018 1327.91 455.731 1316.29 452.914C1262.26 440.237 1236.12 462.305 1154.78 415.352C1121.66 396.57 1067.63 382.954 1074.6 463.714C1087.97 630.4 880.555 605.045 818.971 531.797L820.134 532.266Z" fill="#84FAB0" stroke="black" stroke-width="20" stroke-miterlimit="10"/>
<path d="M976.994 862.819C986.289 876.436 976.995 908.364 956.661 929.963C925.869 963.769 867.77 979.264 817.806 966.587C767.841 953.909 731.242 914.468 729.499 872.679C729.499 870.332 729.497 867.984 730.659 865.636C732.402 862.819 736.471 861.411 740.538 860.472C822.456 836.995 963.053 842.629 976.416 862.819H976.994Z" fill="#FAFCFF" stroke="black" stroke-width="20" stroke-miterlimit="10"/>
<path d="M911.348 949.687C919.369 949.687 925.872 944.431 925.872 937.948C925.872 931.465 919.369 926.21 911.348 926.21C903.326 926.21 896.823 931.465 896.823 937.948C896.823 944.431 903.326 949.687 911.348 949.687Z" fill="black" stroke="black" stroke-width="20" stroke-miterlimit="10"/>
</svg>
