<svg width="1760" height="1760" viewBox="0 0 1760 1760" fill="none" xmlns="http://www.w3.org/2000/svg">
<rect width="1760" height="1760" fill="white"/>
<path d="M678.967 507.776C628.7 487.11 576.198 470.354 523.696 457.507C514.201 455.273 504.148 453.039 494.653 455.273C462.259 462.534 460.024 507.218 465.051 539.613C498.004 758.562 528.165 984.213 473.988 1198.69C468.961 1218.24 463.376 1237.79 466.168 1257.34C473.988 1310.4 534.308 1335.54 585.693 1348.38C711.92 1379.66 840.94 1396.98 971.077 1399.77C1104.01 1402.56 1257.6 1378.54 1324.63 1264.04C1366.51 1191.99 1362.05 1103.18 1356.46 1019.96C1346.97 885.909 1337.47 751.859 1328.53 617.25C1325.18 568.657 1320.72 517.271 1290.55 479.29C1268.21 451.363 1235.26 434.048 1203.42 418.409C1170.47 401.653 1137.52 385.455 1104.57 368.699C1090.04 361.438 1074.96 354.177 1058.77 356.411C1039.78 359.204 1025.81 375.402 1012.97 389.365C934.773 473.147 802.96 558.045 678.967 507.776Z" fill="#8CFFD9" stroke="black" stroke-width="20" stroke-miterlimit="10"/>
<path d="M762.747 1016.05C759.954 1033.37 757.72 1052.91 768.332 1067.44C779.502 1083.08 800.726 1086.99 820.275 1089.22C901.82 1098.16 984.482 1099.27 1066.03 1093.69C1083.9 1092.57 1102.89 1090.34 1118.53 1081.4C1153.16 1061.29 1160.98 1016.05 1164.89 976.394C1171.03 914.396 1169.35 836.2 1112.38 809.39C1092.84 800.453 1069.94 799.894 1048.15 800.453C986.158 801.57 924.161 807.155 862.723 816.651C844.292 819.443 825.302 823.353 811.339 835.083C797.376 846.812 770.008 968.016 762.747 1015.49V1016.05Z" fill="white" stroke="black" stroke-width="20" stroke-miterlimit="10"/>
<path d="M977.224 983.656C997.892 983.656 1014.65 968.151 1014.65 949.026C1014.65 929.901 997.892 914.396 977.224 914.396C956.557 914.396 939.803 929.901 939.803 949.026C939.803 968.151 956.557 983.656 977.224 983.656Z" fill="black"/>
</svg>
