<svg width="1760" height="1760" viewBox="0 0 1760 1760" fill="none" xmlns="http://www.w3.org/2000/svg">
<rect width="1760" height="1760" fill="white"/>
<path d="M768.217 488.451C714.746 467.877 651.287 473.266 592.527 474.735C557.859 475.715 520.84 479.634 495.573 499.228C467.957 520.291 461.494 553.6 448.567 582.501C428.001 629.037 387.458 668.226 368.655 715.252C333.987 801.465 376.293 895.025 426.238 975.851C447.391 1009.16 470.308 1043.45 474.421 1081.17C479.122 1124.77 457.968 1168.85 470.895 1211.47C482.06 1247.72 520.251 1277.11 564.321 1283.97C608.39 1290.82 656.573 1274.66 682.427 1244.29C698.292 1225.67 705.931 1203.14 722.971 1185.51C757.051 1149.75 821.099 1141.42 873.394 1155.63C925.69 1169.83 967.408 1202.16 1004.43 1235.47C1047.32 1274.17 1091.39 1318.75 1153.68 1329.03C1184.82 1333.93 1216.55 1329.03 1247.69 1323.64C1295.28 1314.83 1345.82 1300.13 1372.85 1265.84C1399.88 1232.04 1395.76 1186.98 1381.07 1148.77C1366.38 1110.56 1342.29 1074.31 1330.54 1035.12C1287.65 895.026 1405.17 754.929 1403.99 610.423C1403.99 588.38 1402.23 527.148 1321.14 501.676C1263.55 483.062 1094.92 477.184 1085.51 528.129C1072 599.647 1049.67 626.098 1045.56 630.017C1007.95 669.695 894.548 692.717 840.489 619.24C812.285 581.032 833.437 513.923 769.978 488.941L768.217 488.451Z" fill="#FFF570" stroke="black" stroke-width="20" stroke-miterlimit="10"/>
<path d="M807.586 952.829C807.586 963.606 807.585 975.361 814.049 983.688C821.1 992.505 832.266 993.975 842.255 994.465C884.562 995.934 926.866 993.486 967.997 986.138C977.399 984.669 986.213 982.709 993.851 976.341C1009.72 962.625 1010.31 935.194 1009.72 911.191C1008.54 873.473 1001.49 826.447 970.35 813.221C959.773 808.323 948.021 809.302 936.857 810.771C905.127 814.2 873.983 820.568 843.428 828.895C834.614 831.345 825.214 834.285 818.75 842.122C812.287 849.96 807.586 923.928 807.586 952.829Z" fill="white" stroke="black" stroke-width="20" stroke-miterlimit="10"/>
<path d="M968.131 980.263C981.687 979.082 991.225 966.563 989.436 952.302C987.648 938.042 975.209 927.439 961.653 928.621C948.098 929.803 938.56 942.321 940.348 956.582C942.137 970.843 954.576 981.445 968.131 980.263Z" fill="black"/>
</svg>
