<svg width="1760" height="1760" viewBox="0 0 1760 1760" fill="none" xmlns="http://www.w3.org/2000/svg">
<g clip-path="url(#clip0_10_787)">
<path d="M1760 0H0V1760H1760V0Z" fill="white"/>
<path d="M757 499.944C685.331 499.944 565.672 521.432 496.225 535.79C474.558 540.422 451.779 545.517 437.335 559.411C420.667 575.159 418.445 597.853 416.778 618.696C405.667 784.506 400.111 950.316 399 1116.13C399 1148.55 401.222 1185.6 431.223 1206.44C461.78 1227.75 506.781 1222.65 545.116 1231.92C596.229 1243.96 632.896 1280.55 662.897 1317.14C692.898 1353.73 719.01 1394.02 761.789 1419.96C804.569 1445.9 870.126 1453.31 907.905 1422.27C947.906 1389.39 940.128 1331.03 976.241 1295.37C1027.35 1244.89 1124.02 1268.51 1202.91 1261.1C1265.14 1255.07 1325.14 1223.12 1350.14 1175.41C1375.14 1127.71 1360.14 1065.18 1309.58 1034.61C1286.81 1021.18 1259.03 1013.77 1238.47 998.485C1205.14 973.475 1197.36 932.254 1205.69 895.664C1214.03 859.075 1235.14 825.727 1252.36 791.916C1310.14 678.442 1326.81 550.148 1298.47 428.801C1295.14 413.98 1290.7 398.696 1277.92 387.58C1257.92 369.517 1075.69 308.38 1039.02 428.801C1025.13 473.727 1061.24 540.422 1051.24 585.812C1041.24 631.201 999.575 665.475 944.017 669.643C794.013 680.759 861.793 499.664 749.567 499.664L757 499.944Z" fill="#FCFFA6" stroke="black" stroke-width="20" stroke-miterlimit="10"/>
<path d="M880.507 1085.1C816.616 1089.73 761.615 1055.46 731.058 1008.68C723.836 997.562 717.724 985.056 715.502 972.088C712.169 947.54 724.947 923.456 743.281 904.004C776.059 870.193 828.283 850.277 880.507 851.203C886.063 851.203 892.174 852.13 895.508 855.373C897.73 857.688 898.286 860.93 898.841 863.709C907.73 921.604 912.175 980.425 912.175 1038.78C912.175 1057.31 909.397 1083.71 886.619 1085.1H880.507Z" fill="white" stroke="black" stroke-width="20" stroke-miterlimit="10"/>
<path d="M904.783 971.092C906.666 958.399 896.59 946.913 882.277 945.438C867.965 943.962 854.836 953.056 852.953 965.749C851.07 978.442 861.146 989.928 875.459 991.403C889.771 992.879 902.9 983.785 904.783 971.092Z" fill="black"/>
</g>
<defs>
<clipPath id="clip0_10_787">
<rect width="1760" height="1760" fill="white"/>
</clipPath>
</defs>
</svg>
