<svg width="1760" height="1760" viewBox="0 0 1760 1760" fill="none" xmlns="http://www.w3.org/2000/svg">
<rect width="1760" height="1760" fill="white"/>
<path d="M768.049 385.495C701.995 392.05 676.307 437.502 673.686 482.079C671.065 526.657 685.219 584.783 641.183 605.761C621.786 614.939 598.195 616.249 575.653 617.123C545.247 618.434 514.841 619.309 484.435 620.62C476.572 620.62 468.184 621.494 461.893 625.427C450.36 632.857 451.933 647.716 454.554 659.953C484.96 807.671 460.32 962.819 383.781 1098.3C372.248 1118.4 322.445 1190.08 393.218 1225.92C519.559 1290.16 519.559 1300.21 515.89 1363.14C515.366 1374.51 512.744 1387.18 522.181 1395.05C529.52 1401.6 542.102 1402.48 553.111 1402.91C633.844 1404.66 714.576 1402.91 795.309 1396.8C828.336 1394.61 862.936 1390.68 888.624 1373.2C950.484 1330.8 914.836 1246.45 938.427 1182.65C956.775 1133.7 1012.34 1098.74 1072.11 1085.63C1131.87 1072.51 1194.78 1077.76 1255.07 1088.25C1294.39 1095.24 1341.04 1102.23 1369.35 1078.63C1389.8 1061.59 1391.37 1034.93 1391.37 1010.89C1391.89 896.389 1385.08 781.886 1371.45 667.819C1369.88 655.582 1368.3 642.471 1359.92 632.42C1342.62 611.442 1306.44 610.568 1276.04 611.879C1186.39 615.375 1125.58 614.502 1035.94 617.998C946.29 621.494 914.836 576.043 909.069 507.428C904.875 455.858 877.615 375.443 768.573 385.932L768.049 385.495Z" fill="#8CFFD9" stroke="black" stroke-width="20" stroke-miterlimit="10"/>
<path d="M717.196 885.9C705.139 919.114 694.654 958.884 721.914 985.106C739.214 1001.71 766.999 1007.39 793.211 1010.45C826.238 1014.39 860.838 1015.26 892.292 1006.96C923.746 998.655 953.628 979.424 964.637 953.202C976.695 925.232 966.734 894.203 954.152 866.67C931.086 815.1 898.583 764.841 847.207 730.315C841.441 726.382 835.674 722.885 828.859 721.574C813.132 718.078 796.356 726.818 787.968 738.181C779.581 749.544 731.351 847.003 717.196 885.462V885.9Z" fill="white" stroke="black" stroke-width="20" stroke-miterlimit="10"/>
<path d="M837.248 932.226C855.199 932.226 869.751 921.66 869.751 908.626C869.751 895.592 855.199 885.026 837.248 885.026C819.297 885.026 804.745 895.592 804.745 908.626C804.745 921.66 819.297 932.226 837.248 932.226Z" fill="#030005"/>
</svg>
