<svg width="1760" height="1760" viewBox="0 0 1760 1760" fill="none" xmlns="http://www.w3.org/2000/svg">
<rect width="1760" height="1760" fill="white"/>
<path d="M457.495 561.445C427.599 554.522 396.042 573.445 383.862 597.445C371.682 621.445 373.343 648.214 375.558 674.06C386.077 824.06 386.077 974.059 375.558 1124.06C373.897 1147.6 374.45 1175.29 397.149 1189.14C410.99 1197.44 429.26 1197.9 445.869 1197.9C484.623 1197.9 523.377 1195.6 561.577 1191.9C571.542 1190.98 582.061 1189.6 591.473 1185.44C608.082 1177.6 615.833 1160.52 617.493 1144.37C619.154 1128.21 615.833 1112.06 616.386 1095.9C618.601 1053.44 653.479 1012.37 702.752 1000.83C752.025 989.289 810.156 1010.98 828.426 1050.67C843.374 1082.98 832.855 1123.14 859.429 1149.9C880.467 1171.14 916.453 1175.29 949.671 1178.06C1050.99 1186.37 1152.85 1192.83 1254.17 1198.37C1281.85 1199.75 1312.3 1200.21 1332.78 1184.98C1344.96 1175.75 1351.61 1162.83 1356.59 1149.9C1395.34 1054.83 1387.04 950.982 1377.63 850.828C1375.96 831.905 1373.75 811.597 1358.25 797.29C1349.39 788.982 1336.66 783.905 1324.48 778.829C1251.4 749.29 1178.87 720.213 1105.79 690.675C1084.76 682.367 1063.72 673.598 1041.02 670.367C1023.86 667.598 659.569 608.983 456.941 562.368L457.495 561.445Z" fill="#63B6FF" stroke="black" stroke-width="20" stroke-miterlimit="10"/>
<path d="M1158.39 1051.6C1177.21 1052.52 1198.25 1052.98 1213.75 1047.44C1230.36 1041.44 1234.24 1030.83 1235.9 1021.6C1243.65 981.445 1243.65 941.291 1235.9 901.137C1234.24 892.368 1232.02 883.138 1221.5 875.753C1199.36 859.599 1150.64 856.83 1108.01 856.368C1041.57 854.983 957.421 858.676 930.294 886.83C920.882 896.983 920.882 908.06 921.99 918.676C924.758 949.137 931.955 979.138 943.027 1008.68C946.349 1017.45 950.778 1026.68 964.065 1033.14C977.352 1039.6 1107.45 1049.29 1158.39 1051.6Z" fill="white" stroke="black" stroke-width="20" stroke-miterlimit="10"/>
<path d="M1083.2 966.964C1103.98 966.389 1120.5 957.661 1120.09 947.471C1119.69 937.28 1102.51 929.485 1081.73 930.06C1060.95 930.635 1044.44 939.361 1044.84 949.552C1045.25 959.742 1062.42 967.538 1083.2 966.964Z" fill="black"/>
</svg>
