<svg width="1760" height="1760" viewBox="0 0 1760 1760" fill="none" xmlns="http://www.w3.org/2000/svg">
<rect width="1760" height="1760" fill="white"/>
<path d="M740.33 692.521C694.461 643.129 832.545 537.972 726.951 481.012C680.127 455.519 637.603 472.647 620.88 488.58C552.554 554.702 489.007 618.433 420.204 685.351C397.747 706.861 400.136 722.395 399.658 735.938C393.447 896.461 370.034 1015.16 399.658 1138.24C413.037 1193.21 699.239 1112.35 766.609 1175.29C803.877 1210.34 773.298 1333.42 819.167 1358.12C832.545 1365.29 990.219 1385.2 1025.1 1337.8C1053.29 1299.56 1021.28 1226.27 1061.41 1176.88C1103.46 1125.1 1147.89 1132.67 1199.5 1129.88C1210.49 1129.48 1222.43 1128.68 1230.55 1122.71C1237.24 1117.93 1240.59 1110.36 1242.98 1103.19C1258.27 1060.17 1251.1 992.457 1251.1 938.683C1251.1 894.469 1332.8 886.902 1372.46 834.722C1388.7 813.611 1338.54 600.508 1311.3 583.778C1277.38 562.667 1198.54 534.785 1136.43 526.42C1109.67 522.835 1026.05 754.659 940.05 804.449C909.949 821.975 807.222 764.219 740.807 692.919L740.33 692.521Z" fill="#FF3B83" stroke="black" stroke-width="20" stroke-miterlimit="10"/>
<path d="M732.205 1050.21C748.45 1051.01 766.607 1051.41 779.985 1046.63C794.319 1041.45 797.664 1032.29 799.097 1024.32C805.786 989.666 805.786 955.012 799.097 920.358C797.664 912.79 795.753 904.823 786.674 898.45C767.562 884.508 725.516 882.119 688.725 881.721C631.389 880.526 558.764 883.713 535.352 908.01C527.229 916.773 527.229 926.333 528.185 935.495C530.574 961.784 536.785 987.674 546.341 1013.17C549.208 1020.73 553.03 1028.7 564.497 1034.28C575.965 1039.85 688.248 1048.22 732.205 1050.21Z" fill="white" stroke="black" stroke-width="20" stroke-miterlimit="10"/>
<path d="M667.057 977.217C684.991 976.721 699.246 969.19 698.896 960.395C698.546 951.6 683.724 944.873 665.79 945.369C647.856 945.865 633.601 953.396 633.951 962.191C634.301 970.986 649.123 977.713 667.057 977.217Z" fill="black"/>
</svg>
