<svg width="1760" height="1760" viewBox="0 0 1760 1760" fill="none" xmlns="http://www.w3.org/2000/svg">
<rect width="1760" height="1760" fill="white"/>
<path d="M485.228 538.97C457.148 530.149 426.626 552.54 412.79 574.592C398.953 596.644 392.442 621.75 386.744 646.516C384.302 656.694 381.861 667.89 387.151 677.389C392.035 686.21 402.209 691.638 412.383 696.727C481.973 732.011 555.225 761.866 631.733 785.614C648.826 791.043 666.325 796.132 679.755 806.31C700.916 822.595 707.428 847.7 712.311 871.448C720.45 907.41 728.183 943.372 736.322 979.673C739.171 991.548 741.612 1004.1 737.543 1015.97C725.334 1050.58 665.511 1057.03 645.57 1088.92C639.466 1099.09 637.838 1110.63 636.617 1121.83C632.547 1157.79 630.513 1194.09 630.106 1230.39C630.106 1240.57 630.106 1251.08 636.21 1259.91C646.384 1275.17 669.987 1279.92 690.742 1282.3C755.449 1289.76 821.376 1289.08 886.083 1280.6C894.629 1279.58 904.396 1277.89 909.686 1272.12C914.163 1267.37 915.384 1261.26 916.197 1255.16C921.081 1222.59 925.557 1190.36 930.441 1157.79C933.29 1137.43 936.545 1116.4 948.347 1098.42C960.149 1080.43 982.125 1065.51 1006.54 1066.19C1029.74 1066.86 1050.09 1081.45 1060.67 1098.42C1071.25 1115.38 1074.91 1135.4 1077.76 1154.39C1081.83 1179.5 1085.9 1204.61 1089.97 1229.37C1091.19 1237.18 1092.82 1246 1099.33 1251.76C1106.25 1257.87 1116.83 1259.57 1126.59 1260.92C1166.88 1266.69 1207.58 1270.76 1248.68 1273.48C1269.44 1274.83 1291.41 1275.85 1309.73 1267.37C1335.77 1255.5 1341.06 1227.68 1351.64 1204.61C1364.26 1176.11 1392.34 1109.61 1366.29 1103.84C1300.37 1088.92 1278.39 1082.13 1255.6 1078.74C1248.68 1077.72 1208.8 1001.39 1235.25 989.512C1273.91 972.21 1310.54 973.227 1310.54 932.855C1310.54 906.731 1300.77 873.145 1289.38 839.219C1280.43 813.435 1247.87 815.13 1198.22 818.523C1141.65 822.255 1119.27 697.066 1101.77 654.998C1089.97 625.821 1083.46 596.644 1065.55 570.182C1051.31 549.147 1018.34 539.309 990.264 545.416C962.184 551.523 940.208 571.879 932.476 595.288C926.371 613.947 925.557 637.695 904.396 645.498C893.815 649.569 881.606 647.534 870.211 645.498C752.193 623.107 653.302 591.216 485.635 538.63L485.228 538.97Z" fill="#B7ABFF" stroke="black" stroke-width="20" stroke-miterlimit="10"/>
<path d="M889.337 884.002C882.825 905.375 877.942 931.16 897.476 946.766C910.092 956.604 929.219 959.318 947.125 960.336C969.915 961.693 993.112 961.015 1014.27 954.23C1035.44 947.444 1054.16 934.553 1060.67 917.589C1067.18 899.269 1059.04 880.27 1049.27 862.967C1030.96 831.077 1006.54 800.543 969.915 780.527C965.845 778.491 961.776 776.116 956.892 775.438C945.904 773.741 935.323 779.848 930.033 787.651C924.742 795.454 897.069 858.896 889.744 884.002H889.337Z" fill="white" stroke="black" stroke-width="20" stroke-miterlimit="10"/>
<path d="M1045.34 912.313C1057.67 911.614 1067.13 904.38 1066.46 896.155C1065.78 887.93 1055.24 881.828 1042.91 882.528C1030.58 883.227 1021.12 890.461 1021.79 898.687C1022.46 906.912 1033.01 913.012 1045.34 912.313Z" fill="#030005"/>
</svg>
