<svg width="1760" height="1760" viewBox="0 0 1760 1760" fill="none" xmlns="http://www.w3.org/2000/svg">
<rect width="1760" height="1760" fill="white"/>
<path d="M651.313 571.707C640.765 565.957 626.566 570.016 617.641 577.794C608.716 585.573 603.848 595.719 594.517 602.483C585.187 609.247 572.611 612.291 560.44 614.32C518.655 622.099 440.764 613.982 398.167 610.262C390.46 609.586 422.103 739.454 458.208 758.055C478.087 768.201 541.779 752.982 560.034 764.819C570.988 771.922 573.827 784.434 575.856 795.933C581.941 828.4 594.923 898.408 591.272 902.804C588.432 906.186 519.872 925.802 508.919 940.683C501.211 950.829 512.164 1003.93 545.836 1019.82C555.572 1024.56 566.931 1026.25 577.884 1027.94C738.129 1052.63 901.212 1063.79 1063.89 1060.74C1089.45 1060.41 1119.06 1061.08 1134.07 1078.33C1141.38 1086.45 1143.4 1097.27 1145.43 1107.41C1149.9 1131.09 1154.36 1154.76 1158.82 1178.44C1160.85 1188.24 1162.47 1198.39 1169.37 1206.51C1177.48 1216.65 1191.28 1222.74 1205.47 1226.46C1259.43 1241.68 1319.06 1232.89 1373.43 1219.36C1380.32 1217.67 1388.03 1215.64 1392.49 1210.57C1396.55 1206.17 1397.36 1200.76 1398.17 1195.35C1405.47 1146.31 1403.85 1096.93 1402.23 1047.55C1398.98 954.211 1396.14 860.868 1392.9 767.525C1391.68 727.279 1390.06 687.033 1384.38 646.787C1383.16 637.656 1381.13 627.848 1373.02 621.761C1366.53 617.026 1357.2 613.306 1348.68 614.659C1252.13 628.863 732.043 613.644 651.718 571.369L651.313 571.707Z" fill="white" stroke="black" stroke-width="20" stroke-miterlimit="10"/>
<path d="M1024.54 927.155C1038.33 927.831 1053.75 928.169 1065.11 924.111C1077.28 919.714 1080.12 911.936 1081.33 905.172C1087.01 875.749 1087.01 846.325 1081.33 816.901C1080.12 810.476 1078.49 803.712 1070.79 798.301C1054.56 786.464 1018.86 784.434 987.621 784.096C938.939 783.081 877.275 785.787 857.397 806.417C850.5 813.858 850.5 821.975 851.312 829.753C853.34 852.074 858.614 874.058 866.728 895.702C869.162 902.128 872.407 908.892 882.144 913.627C891.88 918.362 987.215 925.464 1024.54 927.155Z" fill="white" stroke="black" stroke-width="20" stroke-miterlimit="10"/>
<path d="M969.094 865.038C984.321 864.617 996.424 858.223 996.127 850.756C995.83 843.288 983.245 837.577 968.017 837.998C952.79 838.419 940.687 844.813 940.984 852.281C941.281 859.748 953.866 865.46 969.094 865.038Z" fill="black"/>
</svg>
