<svg width="1760" height="1760" viewBox="0 0 1760 1760" fill="none" xmlns="http://www.w3.org/2000/svg">
<rect width="1760" height="1760" fill="white"/>
<path d="M369.531 436.811C369.531 436.811 396.657 1184.4 415.273 1191.05C431.23 1246.47 468.994 1299.24 526.969 1329.39C584.944 1359.54 664.194 1363.53 720.574 1331.61C745.572 1317.42 765.252 1297.46 791.846 1285.49C897.158 1238.49 1024.81 1346.68 1138.63 1316.53C1189.16 1303.23 1226.39 1261.1 1226.92 1216.76C1227.46 1151.14 1156.18 1087.29 1186.5 1026.99C1212.03 975.994 1292.35 964.909 1344.47 930.323C1400.32 893.077 1420 823.018 1389.68 768.922C1363.09 721.478 1303.52 686.006 1297.67 633.684C1293.94 599.985 1314.15 567.616 1331.17 536.577C1348.19 505.539 1362.56 470.066 1347.13 438.141C1331.71 406.216 1272.67 397.791 1239.69 417.745C1199.27 442.132 1072.15 453.66 946.623 436.367C592.39 388.035 369.531 436.811 369.531 436.811Z" fill="url(#paint0_linear_85_276)" stroke="black" stroke-width="20" stroke-miterlimit="10"/>
<path d="M718.978 692.213C632.814 733.45 634.409 850.509 687.597 920.124C696.107 931.209 706.213 941.851 718.978 949.833C735.467 960.031 756.21 964.909 776.421 968.013C850.884 979.098 933.327 961.805 984.919 915.691C1036.51 869.576 1049.81 793.753 1006.73 741.875C980.132 709.949 936.518 689.996 891.308 681.128C846.098 672.26 790.783 658.071 718.978 692.213Z" fill="white" stroke="black" stroke-width="20" stroke-miterlimit="10"/>
<path d="M846.095 864.254C866.364 864.254 882.795 850.556 882.795 833.659C882.795 816.761 866.364 803.063 846.095 803.063C825.827 803.063 809.396 816.761 809.396 833.659C809.396 850.556 825.827 864.254 846.095 864.254Z" fill="black"/>
<defs>
<linearGradient id="paint0_linear_85_276" x1="369.532" y1="880.661" x2="1403.51" y2="880.661" gradientUnits="userSpaceOnUse">
<stop stop-color="#FD9571"/>
<stop offset="0.29" stop-color="#EBC972"/>
<stop offset="0.64" stop-color="#FFFF70"/>
<stop offset="1" stop-color="#72FCC5"/>
</linearGradient>
</defs>
</svg>
