<svg width="1760" height="1760" viewBox="0 0 1760 1760" fill="none" xmlns="http://www.w3.org/2000/svg">
<rect width="1760" height="1760" fill="white"/>
<path d="M514.058 586.463C389.052 591.405 396.958 647.013 372.253 698.913C347.549 750.813 351.007 812.187 382.629 862.028C395.969 883.035 413.757 902.394 422.65 925.049C444.391 981.48 406.84 1048.21 442.415 1099.7C455.261 1118.23 480.459 1132.65 505.164 1128.12C531.351 1123.18 545.186 1100.52 562.974 1084.05C593.608 1055.21 649.44 1042.03 686.991 1064.27C723.554 1086.1 728.001 1128.12 739.859 1164.37C756.658 1215.86 798.657 1264.05 858.936 1282.17C919.216 1300.3 996.789 1279.7 1021.99 1230.68C1042.25 1191.14 1026.43 1145.83 1012.6 1104.64C998.765 1063.45 988.883 1015.67 1017.54 979.833C1050.15 940.29 1320.42 835.666 1360.44 801.477C1395.52 771.82 1404.91 725.275 1392.06 684.496C1380.7 648.249 1315.48 595.113 1285.34 563.808C1220.61 497.08 1189.98 555.983 1141.56 579.873C967.637 666.785 877.218 558.866 726.519 552.687C629.182 548.568 614.854 581.932 514.058 585.639V586.463Z" fill="white" stroke="black" stroke-width="20" stroke-miterlimit="10"/>
<path d="M670.688 750.404C621.772 779.238 622.761 860.796 652.9 909.4C657.841 917.227 663.276 924.641 670.688 929.996C680.076 936.998 691.44 940.705 703.298 942.765C745.296 950.179 791.741 938.233 820.892 906.104C850.044 873.976 857.455 820.841 833.245 784.593C818.422 762.35 793.717 748.345 768.025 742.167C742.332 735.988 711.204 726.102 670.688 749.581V750.404Z" fill="white" stroke="black" stroke-width="20" stroke-miterlimit="10"/>
<path d="M742.333 870.679C753.794 870.679 763.085 861.088 763.085 849.259C763.085 837.43 753.794 827.84 742.333 827.84C730.872 827.84 721.581 837.43 721.581 849.259C721.581 861.088 730.872 870.679 742.333 870.679Z" fill="black"/>
</svg>
