<svg width="1760" height="1760" viewBox="0 0 1760 1760" fill="none" xmlns="http://www.w3.org/2000/svg">
<rect width="1760" height="1760" fill="white"/>
<path d="M970.983 514.799C998.845 477.394 988.54 413.653 1030.52 393.042C1051.13 382.737 1075.56 388.844 1098.84 388.844C1158.77 388.081 1218.69 343.805 1274.41 366.325C1308.76 380.447 1328.61 416.325 1340.44 451.44C1360.29 511.364 1363.72 579.304 1335.48 635.411C1304.95 696.099 1241.59 738.084 1222.89 803.351C1201.89 876.634 1243.88 960.223 1211.82 1029.31C1192.74 1070.15 1151.51 1096.1 1127.47 1134.27C1109.53 1162.51 1101.9 1196.1 1084.34 1224.73C1056.1 1270.91 1005.72 1299.16 955.335 1318.62C850.756 1359.08 737.4 1371.3 625.951 1382.75C563.739 1389.23 501.144 1395.72 438.932 1402.59C429.771 1403.74 420.611 1404.5 411.833 1402.21C390.459 1396.49 378.627 1372.44 379.009 1350.3C379.391 1328.16 393.894 1308.7 395.803 1286.94C412.596 1060.61 401.528 1029.31 388.933 822.436C387.406 797.244 377.482 769.382 393.131 749.534C401.528 738.847 414.504 733.122 427.481 729.687C472.9 718.618 519.846 736.175 566.41 738.465C635.111 742.282 701.141 712.892 763.735 684.266C851.901 643.808 919.839 583.502 970.983 514.799Z" fill="#E6E1E1" stroke="black" stroke-width="20" stroke-miterlimit="10"/>
<path d="M539.695 891.519C527.481 890.373 514.123 889.228 504.581 896.48C494.276 904.496 491.986 919.381 491.223 932.359C487.406 988.466 488.551 1044.57 494.657 1100.3C496.184 1112.51 497.711 1125.49 504.199 1135.8C518.703 1158.7 550 1162.89 577.099 1164.8C619.465 1167.48 673.28 1164.04 689.692 1124.73C695.417 1110.99 695.036 1095.34 694.272 1080.45C691.601 1038.08 686.639 995.718 678.242 954.114C675.952 941.901 672.898 928.923 664.502 919.763C656.105 910.603 572.519 894.954 540.077 891.137L539.695 891.519Z" fill="white" stroke="black" stroke-width="20" stroke-miterlimit="10"/>
<path d="M592.124 1062.21C605.184 1061.73 615.35 1049.89 614.83 1035.78C614.311 1021.67 603.301 1010.62 590.241 1011.1C577.181 1011.58 567.015 1023.41 567.535 1037.52C568.055 1051.64 579.064 1062.69 592.124 1062.21Z" fill="black"/>
</svg>
