<svg width="1760" height="1760" viewBox="0 0 1760 1760" fill="none" xmlns="http://www.w3.org/2000/svg">
<rect width="1760" height="1760" fill="white"/>
<path d="M992.093 434.042C928.749 413.96 883.695 456.726 879.68 511.765C877.896 537.425 881.018 563.456 873.881 588.372C862.729 625.933 826.15 657.171 781.542 667.584C752.992 674.277 716.413 675.765 703.477 698.078C693.663 715.185 703.477 734.894 707.492 753.488C718.198 805.552 678.05 856.5 627.642 888.482C577.234 920.463 517.013 939.43 463.483 967.693C409.953 995.956 361.329 1038.72 356.422 1091.16C354.638 1110.5 358.653 1129.83 365.79 1148.06C374.266 1170.37 388.094 1192.68 411.737 1204.95C446.532 1223.18 493.37 1214.25 528.165 1195.28C562.96 1176.32 588.833 1149.17 619.613 1126.49C650.393 1103.8 690.54 1085.58 731.134 1090.79C756.561 1094.13 778.865 1106.03 802.507 1114.59C833.733 1126.11 869.42 1132.06 902.876 1125.37C936.333 1118.68 967.113 1098.6 976.481 1071.45C984.51 1049.14 977.819 1025.33 978.711 1001.91C979.604 981.081 986.74 959.511 1003.25 943.521C1019.75 927.53 1045.62 917.86 1070.6 921.951C1108.52 928.273 1129.49 962.486 1140.64 993.353C1151.79 1024.22 1161.61 1059.18 1193.28 1077.77C1217.37 1091.9 1249.04 1093.39 1278.03 1088.55C1338.7 1078.14 1395.8 1052.85 1399.37 984.799C1401.6 942.032 1375.73 901.869 1341.38 869.887C1287.85 819.312 1185.25 832.699 1149.12 802.577C1100.49 762.042 1142.87 693.615 1108.08 644.155C1093.35 623.701 1078.63 602.877 1072.39 579.82C1062.57 544.119 1065.25 456.727 992.986 433.671L992.093 434.042Z" fill="#2667FF" stroke="black" stroke-width="20" stroke-miterlimit="10"/>
<path d="M862.732 789.933C860.502 764.645 881.914 740.844 909.571 729.316C916.262 726.341 923.399 724.11 930.983 723.738C945.258 722.622 959.532 728.201 970.684 735.639C990.312 749.026 1001.46 770.223 1000.57 791.049C1000.57 793.28 1000.13 795.511 997.896 796.999C996.557 797.743 994.773 798.115 992.989 798.115C958.64 800.718 924.292 801.461 889.943 801.089C879.237 801.089 863.624 799.23 862.732 790.305V789.933Z" fill="white" stroke="black" stroke-width="20" stroke-miterlimit="10"/>
<path d="M946.107 767.756C946.984 762.882 943.151 758.362 937.548 757.661C931.944 756.961 926.69 760.344 925.813 765.219C924.936 770.093 928.768 774.613 934.372 775.314C939.975 776.015 945.23 772.631 946.107 767.756Z" fill="black"/>
</svg>
