<svg width="1760" height="1760" viewBox="0 0 1760 1760" fill="none" xmlns="http://www.w3.org/2000/svg">
<rect width="1760" height="1760" fill="white"/>
<path d="M781.752 566.379C782.663 584.991 784.03 605.502 799.521 618.796C813.646 630.951 835.06 633.99 855.107 636.269C963.545 648.044 1073.35 649.943 1181.79 641.966C1220.52 639.308 1265.17 636.649 1292.5 659.818C1317.11 679.95 1318.02 712.614 1312.09 741.102C1306.17 769.589 1296.15 798.077 1302.98 826.185C1314.37 871.385 1367.23 901.011 1390.92 942.792C1415.98 986.473 1404.13 1042.69 1363.12 1076.49C1328.04 1105.74 1274.73 1119.41 1246.94 1153.98C1227.35 1178.67 1223.7 1210.95 1200.47 1232.98C1186.8 1245.9 1167.21 1253.87 1147.62 1259.95C1111.17 1270.97 1068.34 1275.52 1034.62 1259.57C1011.39 1248.56 995.439 1228.43 987.238 1207.16C979.036 1185.13 977.669 1160.06 960.811 1141.44C933.93 1112.58 882.444 1112.96 838.705 1111.44C810.912 1110.3 782.663 1107.64 755.326 1102.7C739.835 1100.04 723.433 1096.24 712.042 1086.37C701.107 1076.87 696.551 1063.2 694.273 1050.29C688.35 1020.28 689.261 989.513 685.616 959.126C671.492 839.099 633.219 799.977 545.285 779.845C508.379 771.489 464.64 769.59 435.024 749.079C414.522 734.646 405.409 728.188 397.664 706.917C388.096 679.949 400.397 632.47 399.486 604.362C398.575 578.154 394.019 572.837 454.617 578.155C561.232 587.651 674.226 581.193 781.297 566L781.752 566.379Z" fill="#FF6640" stroke="black" stroke-width="20" stroke-miterlimit="10"/>
<path d="M1052.39 895.693C1088.84 893.414 1123.92 913.926 1141.24 940.134C1145.34 946.591 1148.98 953.427 1149.89 960.644C1151.72 974.318 1143.97 987.992 1133.49 998.627C1114.36 1017.24 1084.28 1028.25 1054.21 1027.11C1051.02 1027.11 1047.83 1026.74 1045.56 1024.46C1044.19 1022.94 1044.19 1021.42 1043.73 1019.52C1039.18 986.853 1036.9 953.808 1037.36 921.142C1037.36 910.887 1039.18 896.073 1052.39 895.313V895.693Z" fill="white" stroke="black" stroke-width="20" stroke-miterlimit="10"/>
<path d="M1101.94 965.317C1102.83 959.914 1097.9 954.883 1090.92 954.079C1083.94 953.276 1077.56 957.005 1076.66 962.408C1075.77 967.811 1080.7 972.842 1087.68 973.645C1094.66 974.449 1101.05 970.719 1101.94 965.317Z" fill="black"/>
</svg>
