<svg width="1760" height="1760" viewBox="0 0 1760 1760" fill="none" xmlns="http://www.w3.org/2000/svg">
<rect width="1760" height="1760" fill="white"/>
<path d="M602.117 563.694C565.655 562.174 531.017 562.175 499.113 576.993C481.337 585.352 462.651 594.471 451.256 608.909C436.672 627.147 435.304 650.325 434.848 672.363C434.393 700.86 433.481 729.736 433.026 758.233C432.57 778.371 432.114 798.888 440.774 817.506C453.08 845.243 483.16 865.001 501.847 890.459C535.119 936.054 525.547 999.886 480.426 1037.5C449.433 1063.34 404.312 1077.02 379.244 1107.04C361.013 1129.07 356 1157.57 356 1184.55C356 1197.08 356.912 1210.38 362.381 1222.16C372.408 1243.06 396.564 1257.88 422.543 1265.1C448.522 1272.32 475.868 1273.08 503.214 1273.46C546.513 1274.22 591.178 1274.22 632.654 1263.2C683.7 1249.14 725.176 1219.12 772.576 1198.6C819.977 1178.09 881.05 1167.45 924.804 1193.29C962.633 1215.7 976.307 1258.64 1014.59 1280.68C1036.01 1293.21 1062.9 1297.39 1088.88 1295.87C1144.49 1292.46 1196.45 1260.54 1216.5 1216.84C1236.55 1173.15 1224.25 1120.71 1185.51 1086.9C1140.38 1047.38 1062.45 1030.28 1042.85 978.229C1029.63 943.653 1051.96 902.617 1092.07 888.179C1128.53 874.88 1171.38 883.619 1208.29 896.158C1245.21 908.696 1281.67 925.035 1321.78 926.934C1331.81 927.314 1342.29 926.934 1351.86 923.515C1361.44 919.715 1369.18 912.876 1375.11 905.657C1396.99 879.06 1400.63 845.243 1402.45 812.947C1406.56 737.335 1402.45 661.724 1390.6 586.872C1387.41 567.874 1383.31 547.737 1366.45 534.818C1348.22 520.76 1320.87 519.619 1296.71 521.899C1256.61 525.318 1218.32 539.757 1178.21 543.176C975.851 560.654 884.696 574.713 603.029 564.075L602.117 563.694Z" fill="#8CFFD9" stroke="black" stroke-width="20" stroke-miterlimit="10"/>
<path d="M711.504 884.759C709.225 841.443 743.408 800.788 787.162 780.65C797.645 775.711 809.495 772.29 821.346 771.15C843.678 769.251 866.011 778.371 882.874 791.289C912.955 814.087 929.819 849.802 927.085 885.138C927.085 888.937 926.173 892.737 922.526 895.017C920.248 896.537 917.513 896.918 914.778 896.918C860.997 901.857 807.216 903.756 753.435 902.996C736.572 902.996 712.415 900.337 711.504 884.759Z" fill="white" stroke="black" stroke-width="20" stroke-miterlimit="10"/>
<path d="M843.055 844.851C844.603 836.557 838.801 828.919 830.096 827.79C821.39 826.662 813.079 832.47 811.531 840.764C809.984 849.058 815.787 856.697 824.492 857.826C833.198 858.955 841.508 853.145 843.055 844.851Z" fill="black"/>
</svg>
