<svg width="1760" height="1760" viewBox="0 0 1760 1760" fill="none" xmlns="http://www.w3.org/2000/svg">
<rect width="1760" height="1760" fill="white"/>
<path d="M752.663 678.986C726.806 680.804 723.379 712.228 723.691 733.784C724.625 769.104 725.248 804.165 726.183 839.485C726.494 859.483 727.117 879.74 719.952 898.699C712.787 917.657 696.899 935.577 674.158 941.55C644.562 949.342 613.721 936.097 584.749 926.228C555.776 916.359 518.082 911.684 497.832 931.422C484.437 944.408 484.437 964.145 492.536 979.728C500.636 995.31 515.278 1007.78 530.231 1019.46C569.484 1049.85 611.852 1077.38 656.712 1101.53C669.796 1108.54 685.061 1115.56 700.326 1112.96C711.541 1110.88 720.575 1104.39 729.298 1098.15C768.551 1068.81 816.837 1061.02 848.925 1085.95C858.894 1093.48 865.125 1103.87 871.044 1113.74C886.62 1139.45 902.197 1165.68 907.804 1193.99C913.412 1222.29 907.181 1253.98 883.193 1274.76C864.501 1291.38 836.153 1300.21 822.134 1319.69C800.327 1349.81 827.741 1392.92 868.551 1401.75C909.362 1410.58 953.287 1390.85 976.029 1361.24C998.77 1331.63 1003.44 1295.01 1000.33 1259.95C997.213 1224.89 991.605 1198.66 986.621 1163.86C983.506 1141.79 979.144 1109.06 997.524 1093.22C1018.71 1075.3 1062.32 1076.08 1092.23 1078.94C1252.35 1094.26 1220.89 998.427 1220.89 975.053C1219.96 823.383 1260.45 673.532 1273.54 522.382C1274.47 511.214 1274.78 498.748 1266.37 489.918C1246.12 468.622 1199.71 488.879 1173.85 471.998C1153.91 458.753 1159.52 433.302 1155.16 412.525C1146.43 372.79 1089.11 346.819 1043.32 360.843C997.524 374.868 972.914 422.394 989.425 460.571C1002.51 490.957 1046.12 519.785 1068.86 546.015C1093.48 574.324 1100.64 628.343 1031.48 643.146C962.321 657.949 863.255 671.714 752.663 679.245V678.986Z" fill="#FFD58C" stroke="black" stroke-width="20" stroke-miterlimit="10"/>
<path d="M929.924 823.644C899.083 841.824 889.425 894.544 918.709 923.891C924.628 929.865 977.588 973.755 1024.63 922.073C1043.01 901.816 1047.68 868.314 1032.42 845.46C1023.07 831.435 1007.49 822.605 991.295 818.71C975.096 814.814 955.469 808.581 929.924 823.384V823.644Z" fill="white" stroke="black" stroke-width="20" stroke-miterlimit="10"/>
<path d="M975.406 899.479C982.633 899.479 988.491 893.433 988.491 885.974C988.491 878.516 982.633 872.469 975.406 872.469C968.18 872.469 962.322 878.516 962.322 885.974C962.322 893.433 968.18 899.479 975.406 899.479Z" fill="black"/>
</svg>
