<svg width="1760" height="1760" viewBox="0 0 1760 1760" fill="none" xmlns="http://www.w3.org/2000/svg">
<rect width="1760" height="1760" fill="white"/>
<path d="M411.586 541.154C365.437 720.435 347.9 904.718 359.437 1087.85C360.36 1099 360.822 1110.54 366.821 1120.93C378.358 1142.09 406.971 1153.25 434.66 1154.79C462.349 1156.33 489.577 1150.17 516.805 1145.94C634.484 1127.86 760.932 1145.17 861.536 1199.41C928.913 1235.96 984.753 1288.29 1059.98 1311.75C1120.43 1330.6 1191.04 1328.3 1246.88 1301.37C1302.72 1274.44 1341.48 1222.5 1340.1 1168.64C1338.71 1107.85 1291.18 1055.14 1241.34 1010.13C1218.73 989.741 1193.81 967.812 1189.19 940.112C1182.27 899.332 1221.5 863.552 1262.57 841.238C1303.64 818.925 1351.64 801.612 1379.79 767.756C1408.4 733.901 1411.17 689.273 1406.55 647.723C1404.25 627.718 1400.55 607.712 1387.63 590.784C1354.87 548.464 1282.41 546.926 1221.96 549.234C981.984 559.622 748.887 563.083 418 541.154L411.586 541.154Z" fill="#B0FCA4" stroke="black" stroke-width="20" stroke-miterlimit="10"/>
<path d="M706.476 791.225C660.788 818.155 661.711 894.331 689.862 939.728C694.477 947.038 699.553 953.963 706.476 958.964C715.244 965.504 725.858 968.967 736.934 970.89C776.16 977.815 819.54 966.658 846.768 936.65C873.995 906.641 877.226 858.552 858.305 823.157C828.308 767.757 744.318 768.527 706.476 790.841V791.225Z" fill="white" stroke="black" stroke-width="20" stroke-miterlimit="10"/>
<path d="M773.85 903.565C784.555 903.565 793.232 894.608 793.232 883.56C793.232 872.511 784.555 863.553 773.85 863.553C763.145 863.553 754.467 872.511 754.467 883.56C754.467 894.608 763.145 903.565 773.85 903.565Z" fill="black"/>
</svg>
