<svg width="1760" height="1760" viewBox="0 0 1760 1760" fill="none" xmlns="http://www.w3.org/2000/svg">
<rect width="1760" height="1760" fill="white"/>
<path d="M493.213 425.661C470.058 536.173 423.169 705.079 455.007 722.935C478.741 735.965 582.939 718.591 616.514 828.138C637.354 895.218 629.25 952.164 580.624 1008.14C533.156 1063.16 439.957 1077.15 393.067 1132.65C289.448 1256.19 427.8 1336.79 506.527 1344.02C548.207 1347.89 590.466 1354.16 632.145 1348.85C650.09 1346.44 668.614 1344.02 683.664 1334.86C716.661 1315.07 716.082 1275.02 727.66 1242.2C751.973 1174.15 851.54 1132.65 932.005 1157.26C986.419 1173.67 1026.94 1214.21 1081.93 1228.69C1110.3 1235.93 1140.98 1235.93 1170.5 1233.03C1246.34 1225.79 1326.22 1196.84 1359.22 1138.92C1375.43 1110.93 1378.9 1078.6 1382.37 1047.72C1388.16 992.219 1393.95 936.238 1399.74 880.74C1403.79 842.616 1415.37 766.367 1368.48 742.238C1311.75 712.8 1217.39 755.751 1172.82 701.701C1154.29 678.537 1166.45 636.552 1166.45 608.562C1166.45 529.9 1192.5 483.089 1090.62 478.746C933.741 471.989 789.6 458.477 506.527 425.661H493.213Z" fill="#FFF570" stroke="black" stroke-width="20" stroke-miterlimit="10"/>
<path d="M796.548 927.55C795.39 937.684 793.653 949.266 799.442 957.953C805.809 967.122 817.388 969.535 827.808 970.501C872.382 975.809 918.112 976.774 962.686 972.913C972.527 971.948 982.947 970.983 991.63 965.674C1010.73 954.092 1014.79 927.067 1017.1 903.903C1020.57 867.227 1019.42 820.898 988.157 805.455C977.158 800.147 965.003 799.665 952.846 800.147C918.692 801.112 884.538 804.007 850.963 809.798C841.122 811.246 830.703 813.659 822.598 820.898C814.494 828.137 800.021 899.56 795.968 927.55H796.548Z" fill="white" stroke="black" stroke-width="20" stroke-miterlimit="10"/>
<path d="M914.639 908.727C926.149 908.727 935.478 899.437 935.478 887.977C935.478 876.516 926.149 867.224 914.639 867.224C903.13 867.224 893.799 876.516 893.799 887.977C893.799 899.437 903.13 908.727 914.639 908.727Z" fill="black"/>
</svg>
