<svg width="1760" height="1760" viewBox="0 0 1760 1760" fill="none" xmlns="http://www.w3.org/2000/svg">
<rect width="1760" height="1760" fill="white"/>
<path d="M872.201 442.137C820.514 450.345 810.176 488.51 800.823 519.288C791.47 550.067 786.548 582.896 762.919 607.519C727.969 644.042 686.126 644.043 608.349 644.043C530.572 644.043 491.192 621.061 458.21 662.098C448.857 673.999 445.903 688.363 443.442 702.316C437.042 739.66 433.105 777.415 432.121 815.58C430.644 862.773 433.105 911.607 413.907 955.928C402.093 983.833 381.909 1015.84 400.615 1041.29C406.03 1048.67 414.399 1054.42 420.798 1060.98C443.934 1084.38 445.412 1116.8 446.397 1147.16C447.381 1179.99 447.873 1213.23 448.857 1246.06C448.857 1260.02 450.827 1275.61 464.61 1283.41C472.486 1287.92 482.331 1288.33 492.176 1287.51C541.402 1283 574.383 1244.83 603.919 1212C633.455 1179.17 676.281 1145.11 725.014 1152.91C754.058 1157.42 776.703 1176.71 792.455 1197.23C808.208 1217.75 819.528 1241.14 837.25 1260.84C880.569 1310.49 964.745 1333.47 1032.68 1310.08C1100.61 1286.69 1067.63 1207.9 1110.45 1158.24C1143.44 1120.49 1227.12 1138.13 1247.8 1094.64C1276.84 1033.9 1223.18 960.442 1257.15 901.348C1271.92 875.495 1301.45 857.848 1325.57 836.919C1367.41 800.806 1394.98 753.202 1401.87 703.547C1407.78 663.74 1399.9 620.651 1369.88 589.462C1318.68 536.113 1244.84 526.264 1167.06 505.745C1089.29 485.226 919.457 434.34 872.693 441.727L872.201 442.137Z" fill="#FF82C1" stroke="black" stroke-width="20" stroke-miterlimit="10"/>
<path d="M1038.09 800.803C1049.9 846.765 1019.38 895.601 973.603 923.507C962.281 930.073 950.466 936.228 936.683 938.69C911.086 943.615 884.01 937.048 861.859 925.558C822.478 905.039 795.897 868.926 790.975 830.761C790.975 826.657 790.482 822.143 793.928 819.271C796.389 817.219 799.342 816.808 802.788 815.987C863.336 803.265 924.377 793.827 985.909 787.261C1005.11 785.209 1033.66 783.978 1038.09 800.803Z" fill="white" stroke="black" stroke-width="20" stroke-miterlimit="10"/>
<path d="M992.796 827.069C1008.29 827.069 1020.86 817.514 1020.86 805.729C1020.86 793.943 1008.29 784.39 992.796 784.39C977.3 784.39 964.738 793.943 964.738 805.729C964.738 817.514 977.3 827.069 992.796 827.069Z" fill="black"/>
</svg>
