<svg width="1760" height="1760" viewBox="0 0 1760 1760" fill="none" xmlns="http://www.w3.org/2000/svg">
<rect width="1760" height="1760" fill="white"/>
<path d="M763.535 472.208C734.664 465.332 703.215 469.2 682.077 486.821C660.94 504.442 650.115 528.511 638.257 551.29C626.399 574.068 611.964 597.707 587.733 611.89C569.173 622.205 545.973 626.933 530.506 640.687C507.307 661.317 511.431 693.121 509.885 721.488C506.791 783.807 471.219 842.688 426.366 892.973C404.713 917.471 380.482 940.681 366.046 968.617C347.486 1003.86 346.972 1044.26 354.706 1082.51C358.83 1102.28 366.047 1122.91 380.998 1138.81C404.713 1163.74 445.442 1174.49 483.077 1169.76C520.712 1165.03 554.737 1146.98 580.514 1123.77C615.056 1092.83 637.741 1051.57 681.563 1030.51C737.758 1003.43 818.698 1024.06 848.084 1072.2C873.346 1114.31 859.943 1164.17 850.663 1210.59C841.383 1257.01 838.805 1310.73 877.987 1344.25C902.217 1364.88 938.822 1373.48 973.363 1372.19C1007.91 1370.9 1041.42 1360.59 1072.86 1348.55C1102.77 1336.95 1133.7 1321.47 1148.65 1296.98C1167.72 1266.03 1158.44 1229.5 1152.77 1195.12C1147.1 1160.73 1148.65 1120.76 1180.61 1098.84C1223.92 1069.62 1296.61 1091.11 1337.34 1059.73C1355.9 1045.55 1362.6 1024.49 1367.76 1003.86C1395.6 895.981 1398.69 785.096 1401.78 675.069C1402.81 641.976 1403.33 608.452 1404.36 575.358C1404.88 552.149 1402.3 524.643 1378.07 513.898C1369.3 510.03 1358.99 509.17 1349.2 508.311C1312.08 505.302 1275.47 502.294 1238.35 499.716C1217.73 497.996 1171.33 491.549 1141.43 516.477C1104.83 546.992 1133.7 606.733 1097.09 635.099C1047.09 673.351 925.933 651.862 887.782 602.006C854.272 558.597 864.582 496.707 763.535 472.639V472.208Z" fill="white" stroke="black" stroke-width="20" stroke-miterlimit="10"/>
<path d="M890.361 903.718C884.69 927.356 880.567 955.722 900.673 972.913C913.562 983.658 933.152 986.238 951.196 987.097C973.88 987.957 997.595 987.097 1018.73 979.79C1039.87 972.484 1058.43 957.442 1064.1 938.531C1070.29 918.331 1061.01 897.271 1050.7 878.36C1031.11 843.547 1005.33 810.024 967.694 788.534C963.569 786.385 959.444 783.807 954.289 783.377C943.462 781.658 932.636 788.534 927.481 797.129C922.325 805.725 897.064 876.211 890.361 903.718Z" fill="white" stroke="black" stroke-width="20" stroke-miterlimit="10"/>
<path d="M1007.95 865.824C1020.15 864.915 1029.25 856.895 1028.29 847.911C1027.33 838.927 1016.66 832.38 1004.46 833.29C992.269 834.199 983.165 842.219 984.129 851.203C985.092 860.187 995.759 866.733 1007.95 865.824Z" fill="#030005"/>
</svg>
