<svg width="1760" height="1760" viewBox="0 0 1760 1760" fill="none" xmlns="http://www.w3.org/2000/svg">
<rect width="1760" height="1760" fill="white"/>
<path d="M780.849 451.773C747.765 440.317 712.645 431.83 677.016 430.133C667.855 429.708 657.675 430.132 650.04 433.951C640.369 438.619 635.787 448.378 633.243 457.288C623.063 487.415 623.063 519.665 622.554 551.065C620.009 673.693 604.23 795.897 575.727 916.405C572.164 931.68 567.584 947.805 556.386 960.11C519.739 999.572 434.228 982.174 396.563 1020.79C378.749 1039.03 377.222 1064.49 378.24 1087.83C379.258 1116.26 381.803 1144.27 386.892 1172.27C389.946 1190.09 395.037 1209.19 411.324 1220.64C430.666 1234.65 459.678 1232.95 484.619 1228.28C525.338 1220.64 564.021 1206.22 605.249 1201.97C646.477 1197.73 693.303 1205.79 717.735 1234.22C739.621 1259.26 737.586 1293.63 753.365 1321.63C773.724 1357.28 819.024 1378.49 863.306 1392.07C896.899 1402.68 935.073 1410.32 967.648 1397.59C995.643 1386.55 1013.46 1361.94 1020.07 1336.48C1026.69 1311.02 1024.15 1284.72 1021.6 1258.83C1020.07 1243.13 1019.06 1227.01 1025.67 1212.16C1040.43 1179.06 1087.77 1165.06 1130.02 1161.66C1172.26 1158.27 1217.56 1159.97 1253.7 1142.14C1288.82 1124.75 1308.16 1092.07 1320.38 1059.83C1327.5 1040.31 1332.59 1018.24 1320.89 1000.42C1305.11 976.659 1267.95 970.718 1244.03 952.048C1210.44 926.164 1211.45 882.459 1214.51 844.694C1217.05 817.113 1219.09 788.684 1230.8 762.801C1242.5 736.917 1263.88 712.307 1294.93 702.123C1307.65 697.88 1321.4 696.182 1332.08 689.392C1344.81 681.755 1351.43 669.449 1357.02 657.568C1376.37 614.712 1385.02 568.036 1382.47 522.21C1382.47 514.148 1380.95 505.661 1374.84 499.721C1367.71 492.507 1356.51 490.386 1345.83 488.689C1250.14 473.414 1134.6 458.138 1113.22 467.473C1040.94 498.873 1111.69 607.074 953.397 607.074C759.981 605.801 866.359 481.052 781.358 451.773H780.849Z" fill="#FFD58C" stroke="black" stroke-width="20" stroke-miterlimit="10"/>
<path d="M778.812 1060.68C777.285 1071.28 776.266 1083.17 781.356 1092.08C786.955 1101.84 797.644 1103.96 807.315 1105.23C848.034 1110.75 889.261 1111.59 930.489 1107.78C939.651 1106.93 948.814 1105.65 956.958 1100.14C974.263 1088.26 978.335 1060.25 980.371 1036.49C983.424 998.725 982.407 951.201 953.904 935.076C944.233 929.56 932.526 929.56 921.837 929.56C890.789 930.409 859.74 933.804 829.201 939.745C820.039 941.442 810.368 943.563 803.752 951.201C797.135 958.839 782.883 1032.25 779.32 1061.1L778.812 1060.68Z" fill="white" stroke="black" stroke-width="20" stroke-miterlimit="10"/>
<path d="M886.719 1040.73C897.12 1040.73 905.551 1031.23 905.551 1019.51C905.551 1007.8 897.12 998.299 886.719 998.299C876.318 998.299 867.887 1007.8 867.887 1019.51C867.887 1031.23 876.318 1040.73 886.719 1040.73Z" fill="black"/>
</svg>
