<svg width="1760" height="1760" viewBox="0 0 1760 1760" fill="none" xmlns="http://www.w3.org/2000/svg">
<rect width="1760" height="1760" fill="white"/>
<path d="M822.881 515.828C775.752 515.828 741.476 535.473 714.484 563.333C687.492 591.193 660.071 624.41 618.084 631.911C592.805 636.554 565.385 630.84 541.82 640.126C513.971 651.199 502.404 678.344 496.834 703.704C491.264 729.063 486.979 755.851 466.413 774.782C449.704 789.783 424.855 796.927 406.003 810.143C370.014 835.145 360.587 877.649 357.16 916.581C355.446 935.154 354.589 954.442 362.301 972.301C371.727 993.731 392.293 1010.52 415 1022.66C493.406 1065.17 608.23 1059.45 672.497 1003.02C694.776 983.374 710.628 959.442 733.336 940.155C755.615 921.582 784.749 908.366 816.454 906.938C848.159 905.509 880.721 917.653 896.574 940.155C915.425 966.229 908.998 1000.52 893.574 1028.02C878.15 1055.52 855.015 1080.17 839.591 1108.03C824.167 1135.89 818.168 1169.82 837.448 1195.89C858.442 1224.11 901.286 1233.75 940.704 1238.4C977.55 1242.68 1015.25 1244.83 1052.53 1244.11C1089.38 1243.4 1129.22 1239.47 1154.93 1216.97C1198.63 1178.75 1175.06 1108.39 1218.77 1069.81C1246.19 1045.52 1290.74 1043.02 1330.59 1045.17C1340.44 1045.52 1350.73 1046.24 1359.3 1042.66C1370.86 1037.66 1376.01 1026.23 1379.43 1015.88C1397.86 961.942 1400.43 905.509 1402.57 849.789C1404.28 802.642 1406.42 755.852 1408.14 708.705C1408.57 697.275 1408.14 684.059 1397.86 676.201C1389.29 669.772 1279.61 669.414 1221.34 663.342C1193.06 660.485 1174.64 634.054 1151.07 637.626C1139.5 639.412 1129.65 653.699 1119.79 659.414C916.282 776.568 952.272 508.685 822.881 515.114V515.828Z" fill="#FF6640" stroke="black" stroke-width="20" stroke-miterlimit="10"/>
<path d="M833.591 741.925C841.303 752.997 833.592 779.428 816.882 797.287C790.747 824.789 741.047 837.291 698.631 826.576C656.214 815.86 624.081 783 622.367 748.354C622.367 746.568 622.367 744.425 623.652 742.639C625.366 740.496 628.794 739.424 631.793 738.353C702.058 719.422 822.023 725.137 833.591 741.567V741.925Z" fill="#FAFCFF" stroke="black" stroke-width="20" stroke-miterlimit="10"/>
<path d="M729.48 757.281C736.579 757.281 742.333 752.484 742.333 746.567C742.333 740.649 736.579 735.851 729.48 735.851C722.381 735.851 716.627 740.649 716.627 746.567C716.627 752.484 722.381 757.281 729.48 757.281Z" fill="black" stroke="black" stroke-width="20" stroke-miterlimit="10"/>
</svg>
