<svg width="1760" height="1760" viewBox="0 0 1760 1760" fill="none" xmlns="http://www.w3.org/2000/svg">
<g clip-path="url(#clip0_10_135)">
<path d="M1760 0H0V1760H1760V0Z" fill="white"/>
<path d="M851.344 381.611C820.63 355.55 804.807 351.361 779.212 360.203C753.618 369.045 715.923 401.622 700.101 423.494C658.684 479.804 634.485 548.214 630.762 618.021C627.504 675.727 656.357 723.66 638.208 778.575C608.89 867.461 509.768 927.494 503.253 1020.57C501.857 1042.44 506.045 1065.24 520.471 1082C561.423 1129.93 658.684 1103.41 685.209 1160.65C701.962 1196.48 674.971 1236.5 670.783 1276.06C662.407 1357.03 759.667 1416.6 839.71 1401.71C919.752 1386.82 981.645 1324.92 1036.09 1264.42C1061.22 1236.5 1086.82 1206.72 1098.92 1170.88C1124.05 1095.49 1084.49 1011.26 1104.5 934.475C1127.3 847.45 1225.49 766.009 1253.88 670.142C1265.98 629.189 1243.18 616.624 1201.76 554.264C1160.34 491.904 1154.29 494.231 1109.62 444.901C1099.85 434.198 1077.04 401.622 1064.01 395.106C1026.32 376.957 982.576 394.176 941.624 403.949C900.672 413.721 877.337 404.615 855 386L851.344 381.611Z" fill="#63B6FF" stroke="black" stroke-width="20" stroke-miterlimit="10"/>
<path d="M825.996 745.033C776.667 772.024 771.303 853.498 802.017 900.035C807.136 907.481 812.72 914.462 820.166 919.581C829.938 926.562 841.572 929.819 853.206 931.681C896.019 939.127 943.486 927.492 973.269 896.778C1003.05 866.063 1010.5 815.803 985.834 781.365C970.478 759.958 945.348 746.927 919.287 740.877C893.227 734.828 861.583 725.055 819.7 748.323L825.996 745.033Z" fill="white" stroke="black" stroke-width="20" stroke-miterlimit="10"/>
<path d="M893.692 862.805C905.257 862.805 914.633 853.638 914.633 842.329C914.633 831.02 905.257 821.854 893.692 821.854C882.126 821.854 872.75 831.02 872.75 842.329C872.75 853.638 882.126 862.805 893.692 862.805Z" fill="black"/>
</g>
<defs>
<clipPath id="clip0_10_135">
<rect width="1760" height="1760" fill="white"/>
</clipPath>
</defs>
</svg>
