<svg width="1760" height="1760" viewBox="0 0 1760 1760" fill="none" xmlns="http://www.w3.org/2000/svg">
<rect width="1760" height="1760" fill="white"/>
<path d="M838.708 350.604C802.616 346.366 767.54 365.013 745.173 388.744C722.806 412.476 709.59 441.716 693.323 468.838C670.957 505.706 639.44 540.88 595.215 560.373C565.732 573.087 531.164 579.019 507.273 598.089C473.723 625.211 472.197 668.861 472.197 707.848C471.689 806.588 452.373 921.855 436.106 1019.75C429.498 1058.31 733.99 1067.63 611.989 1256.22C572.848 1316.82 606.906 1382.92 683.665 1404.96C777.707 1432.08 855.481 1339.7 858.023 1250.28C859.04 1215.96 852.94 1178.66 875.306 1149.42C905.298 1109.59 972.908 1104.5 1029.33 1112.13C1085.76 1119.76 1143.2 1135.01 1197.08 1120.61C1240.8 1108.74 1275.87 1076.53 1285.53 1038.82C1289.6 1021.87 1288.58 1002.8 1274.86 990.082C1260.62 976.521 1236.73 973.132 1219.45 962.114C1189.46 942.197 1188.44 905.328 1189.97 873.121C1190.98 853.627 1193.52 831.59 1211.32 819.3C1239.78 799.807 1285.53 816.758 1318.07 802.774C1342.98 792.179 1353.14 766.753 1358.73 743.445C1368.9 702.339 1374.49 660.385 1375 618.431C1375 596.394 1373.98 573.935 1364.33 554.017C1324.68 473.923 1214.87 534.946 1113.21 485.788C1046.62 453.581 990.19 423.07 929.698 386.625C906.315 372.216 870.224 355.689 838.199 351.875L838.708 350.604Z" fill="#FF3B83" stroke="black" stroke-width="20" stroke-miterlimit="10"/>
<path d="M766.012 654.027C699.42 688.353 700.438 786.67 741.613 845.575C748.221 854.898 755.845 863.797 766.012 870.577C778.72 879.053 794.987 883.29 810.746 885.833C868.696 895.156 932.237 880.747 972.396 841.76C1012.55 802.772 1022.72 739.206 989.172 695.558C968.838 668.86 934.779 651.908 899.704 644.704C864.629 637.5 821.421 625.21 766.012 654.027Z" fill="white" stroke="black" stroke-width="20" stroke-miterlimit="10"/>
<path d="M864.633 798.534C880.354 798.534 893.099 787.15 893.099 773.107C893.099 759.064 880.354 747.682 864.633 747.682C848.911 747.682 836.166 759.064 836.166 773.107C836.166 787.15 848.911 798.534 864.633 798.534Z" fill="black"/>
</svg>
