<svg width="1760" height="1760" viewBox="0 0 1760 1760" fill="none" xmlns="http://www.w3.org/2000/svg">
<rect width="1760" height="1760" fill="white"/>
<path d="M776.552 371.39C715.187 377.929 675.046 433.702 613.681 440.241C596.609 442.164 579.078 439.472 561.545 440.241C518.635 441.78 478.493 466.396 463.729 499.86C459.115 510.245 456.808 521.785 460.96 532.17C466.959 547.556 484.953 557.172 497.411 569.865C516.789 589.097 522.326 615.638 524.633 640.639C528.324 683.719 524.633 727.569 512.176 769.495C507.1 787.958 498.333 807.958 478.494 816.805C460.499 824.883 437.891 821.805 417.589 825.267C364.068 834.499 340.076 895.657 367.298 935.276C394.52 974.894 456.809 990.664 510.792 982.202C553.701 975.663 599.84 956.431 637.674 974.125C671.817 990.28 680.121 1028.36 708.728 1050.28C721.647 1060.28 738.718 1066.44 755.329 1071.82C795.47 1084.9 841.609 1094.9 880.827 1079.52C915.893 1065.67 937.117 1033.36 973.567 1022.21C1015.09 1009.13 1064.46 1029.51 1086.61 1061.82C1108.75 1094.13 1106.45 1134.52 1091.68 1169.91C1078.76 1201.83 1056.16 1230.68 1043.24 1262.22C1030.32 1293.76 1027.55 1332.23 1052 1358.77C1073.23 1381.85 1111.52 1391.46 1146.13 1387.62C1180.73 1383.77 1212.11 1367.61 1237.94 1347.61C1333.91 1273.38 1351.91 1141.06 1285.47 1046.82C1272.55 1028.36 1256.4 1011.05 1248.56 990.664C1237.48 962.97 1243.48 931.044 1263.78 907.196C1284.08 883.348 1317.3 868.348 1334.84 842.962C1365.29 798.728 1338.07 744.108 1332.07 693.72C1328.84 665.641 1332.07 637.563 1326.53 609.868C1320.99 582.174 1303.92 553.711 1273.01 542.556C1246.71 533.325 1215.34 532.94 1188.11 539.863C1001.71 586.79 921.891 356.004 777.014 371.775L776.552 371.39Z" fill="white" stroke="black" stroke-width="20" stroke-miterlimit="10"/>
<path d="M788.089 666.409C727.646 697.566 728.57 786.802 765.943 840.267C771.941 848.73 778.861 856.807 788.089 862.961C799.624 870.654 814.388 874.501 828.691 876.809C881.29 885.271 938.965 872.193 975.415 836.806C1011.86 801.419 1021.09 743.722 990.64 704.104C972.185 679.871 941.271 664.486 909.435 657.947C877.599 651.408 838.38 640.254 788.089 666.409Z" fill="white" stroke="black" stroke-width="20" stroke-miterlimit="10"/>
<path d="M765.943 787.572C780.213 787.572 791.781 777.239 791.781 764.493C791.781 751.747 780.213 741.414 765.943 741.414C751.673 741.414 740.105 751.747 740.105 764.493C740.105 777.239 751.673 787.572 765.943 787.572Z" fill="black"/>
</svg>
