<svg width="1760" height="1760" viewBox="0 0 1760 1760" fill="none" xmlns="http://www.w3.org/2000/svg">
<rect width="1760" height="1760" fill="white"/>
<path d="M701.821 437.263C641.239 431.881 580.16 437.262 519.578 442.23C501.701 443.886 482.831 445.541 467.934 454.649C439.133 472.45 441.616 508.466 446.581 538.272C452.54 571.39 458.003 604.921 463.962 638.039C470.417 675.71 476.376 716.693 454.527 750.225C434.167 780.859 393.945 799.487 372.593 829.707C303.569 926.99 474.887 974.598 433.175 1168.34C417.284 1242.44 355.709 1273.07 385.007 1297.08C415.794 1321.51 551.359 1307.84 593.071 1301.22C605.485 1299.15 617.899 1297.08 629.32 1292.94C658.121 1281.76 675.502 1258.17 692.386 1235.81C713.738 1207.25 740.553 1176.2 780.776 1170.41C815.039 1165.44 847.812 1181.17 878.103 1195.24C891.511 1201.45 905.911 1208.08 921.305 1207.66C931.733 1207.66 942.161 1204.35 952.092 1201.04C986.852 1189.45 1022.11 1178.27 1056.87 1166.68C1085.17 1157.57 1114.47 1148.05 1144.27 1150.95C1184.98 1155.09 1218.75 1181.17 1259.47 1184.07C1308.13 1187.79 1352.83 1155.5 1371.2 1117.83C1389.57 1080.16 1386.59 1037.52 1381.63 996.952C1379.64 980.807 1377.16 965.076 1371.2 949.759C1351.34 901.739 1293.24 867.379 1284.8 817.288C1277.84 778.789 1302.18 741.946 1322.54 706.758C1356.3 649.216 1382.12 588.776 1399.5 526.266C1403.97 510.535 1407.45 493.562 1398.02 479.487C1392.06 471.208 1382.12 465.413 1372.69 459.617C1351.34 447.198 1327.5 434.364 1301.68 436.434C1277.35 438.09 1256.99 452.58 1243.08 469.552C1229.18 486.525 1220.74 505.567 1209.32 523.368C1167.11 587.12 1080.21 628.103 992.812 625.619C905.415 623.135 822.487 576.357 786.237 510.122C771.34 483.214 755.847 442.23 691.292 436.434L701.821 437.263Z" fill="#B7ABFF" stroke="black" stroke-width="20" stroke-miterlimit="10"/>
<path d="M798.649 948.518C797.159 965.077 796.166 983.705 801.628 997.366C807.587 1012.27 818.512 1015.99 828.443 1018.06C870.652 1026.34 913.854 1028 956.063 1022.2C965.498 1020.96 974.932 1019.31 983.374 1010.61C1001.25 991.571 1005.22 948.518 1007.21 910.846C1010.69 851.648 1009.2 777.133 979.897 752.294C969.469 743.601 958.049 743.187 946.628 743.601C914.351 744.843 882.073 750.225 850.293 759.332C840.858 762.23 830.926 765.542 823.477 777.133C816.029 788.724 802.126 903.808 798.153 948.931L798.649 948.518Z" fill="white" stroke="black" stroke-width="20" stroke-miterlimit="10"/>
<path d="M910.379 917.471C921.075 917.471 929.746 902.642 929.746 884.352C929.746 866.062 921.075 851.235 910.379 851.235C899.683 851.235 891.014 866.062 891.014 884.352C891.014 902.642 899.683 917.471 910.379 917.471Z" fill="black"/>
</svg>
