<svg width="1760" height="1760" viewBox="0 0 1760 1760" fill="none" xmlns="http://www.w3.org/2000/svg">
<rect width="1760" height="1760" fill="white"/>
<path d="M683.711 462.141C646.813 446.177 597.773 445.397 556.204 443.451C537.055 442.672 516.971 443.061 500.624 450.849C470.732 465.645 465.595 498.741 459.99 527.165C451.116 574.278 433.834 620.224 408.146 663.055C381.523 707.832 345.093 755.335 359.105 804.006C369.38 840.607 406.277 867.473 426.828 900.959C455.786 948.072 450.181 1004.14 441.307 1056.71C435.235 1094.09 429.631 1137.31 459.99 1165.34C483.81 1187.53 523.977 1192.98 559.007 1185.59C594.036 1178.19 623.461 1161.06 651.951 1142.76C672.502 1129.52 693.053 1115.11 717.807 1108.1C742.561 1101.09 772.453 1102.65 790.668 1118.23C814.956 1139.25 807.949 1173.13 809.351 1202.33C811.219 1231.14 823.363 1259.57 844.848 1282.54C860.728 1299.67 881.745 1314.08 906.966 1319.53C953.205 1329.65 1003.18 1306.29 1028.4 1272.42C1053.62 1238.54 1057.83 1196.49 1053.62 1156.77C1052.22 1142.76 1049.89 1127.96 1053.62 1114.33C1064.37 1076.95 1116.68 1058.65 1162.45 1058.26C1264.27 1057.1 1233.44 1115.5 1242.32 1137.31C1249.32 1154.83 1275.01 1162.22 1296.96 1161.45C1351.61 1158.72 1394.11 1117.06 1406.25 1072.67C1420.73 1019.33 1395.04 957.807 1339 929.383C1297.9 908.357 1239.05 901.737 1221.3 864.358C1207.75 835.155 1227.37 802.838 1250.72 777.918C1274.08 752.998 1301.63 728.858 1306.3 697.708C1310.97 665.78 1289.96 635.799 1282.02 604.65C1272.21 566.881 1281.55 527.943 1277.81 489.396C1276.41 474.6 1271.27 457.468 1254.93 450.849C1246.99 447.734 1238.11 447.344 1229.24 447.344C1168.05 446.566 1118.54 438.779 1057.36 438C1029.34 438 984.499 446.176 969.086 465.645C959.745 477.326 960.678 492.122 959.744 506.139C950.403 650.206 778.525 686.806 738.358 561.819C728.083 529.112 743.962 488.228 683.711 462.141Z" fill="#2667FF" stroke="black" stroke-width="20" stroke-miterlimit="10"/>
<path d="M804.218 795.827C790.673 795.438 775.727 795.048 764.517 796.995C752.374 798.942 749.572 803.225 747.704 806.729C740.698 822.304 739.763 838.268 744.434 853.843C745.368 857.347 746.768 860.852 753.774 863.967C769.187 870.586 804.217 872.143 834.576 872.921C882.216 874.09 942.934 873.701 963.018 862.799C970.024 858.905 970.491 854.622 970.024 850.339C969.089 838.268 964.886 826.587 957.413 814.906C955.078 811.402 952.276 807.897 942.935 805.172C933.593 802.446 840.648 797.385 803.75 795.827H804.218Z" fill="white" stroke="black" stroke-width="20" stroke-miterlimit="10"/>
<path d="M841.116 831.261C851.95 831.261 860.732 824.114 860.732 815.298C860.732 806.481 851.95 799.333 841.116 799.333C830.282 799.333 821.499 806.481 821.499 815.298C821.499 824.114 830.282 831.261 841.116 831.261Z" fill="black"/>
</svg>
