<svg width="1760" height="1760" viewBox="0 0 1760 1760" fill="none" xmlns="http://www.w3.org/2000/svg">
<g clip-path="url(#clip0_10_793)">
<path d="M1760 0H0V1760H1760V0Z" fill="white"/>
<path d="M864 413.212C818.138 399.052 731.888 419.926 699.049 450.134C649.224 495.447 632.239 505.831 585.245 516.215C535.421 527.072 496.919 510.55 457.852 538.871C427.278 560.583 425.013 598.344 427.844 631.857C430.109 662.066 434.638 692.275 441.432 722.011C446.528 745.612 453.322 769.212 448.226 792.813C441.432 824.909 414.821 851.343 392.174 877.775C369.526 904.208 349.143 936.304 358.202 968.401C366.695 998.137 398.402 1019.38 431.241 1034.01C464.08 1048.64 499.75 1059.5 526.361 1080.27C577.318 1119.44 585.245 1184.11 576.186 1240.75C571.657 1269.54 565.427 1303.53 590.906 1323.35C606.193 1334.68 627.709 1337.51 648.092 1338.93C706.41 1343.65 765.294 1345.06 823.612 1346.95C888.158 1348.84 953.269 1350.73 1017.82 1353.09C1086.89 1354.98 1156.53 1357.34 1224.48 1346.95C1254.48 1342.23 1285.62 1334.68 1307.71 1317.22C1321.86 1305.89 1332.05 1291.25 1339.98 1276.62C1373.38 1218.09 1387.54 1146.35 1349.6 1089.71C1332.62 1064.22 1306.57 1043.45 1284.49 1020.32C1262.41 997.193 1244.86 968.873 1248.82 939.609C1255.05 894.296 1309.97 865.974 1340.55 828.213C1363.76 799.421 1372.82 764.493 1378.48 730.036C1387.54 678.587 1391.5 626.665 1389.8 574.744C1389.8 559.64 1387.54 543.12 1375.08 532.264C1364.89 523.295 1349.6 519.991 1334.88 517.631C1298.08 511.023 1242.03 500.166 1217.68 524.239C1209.19 532.735 1046.13 658.762 966.858 524.239C946.475 489.782 941.946 436.917 857.017 410.957L864 413.212Z" fill="#63B6FF" stroke="black" stroke-width="20" stroke-miterlimit="10"/>
<path d="M778.319 978.312C624.315 918.839 728.493 828.213 858.151 817.357C1073.87 798.948 1085.19 923.085 1042.73 965.094C987.243 1020.32 841.733 1002.86 778.319 978.312Z" fill="white" stroke="black" stroke-width="20" stroke-miterlimit="10"/>
<path d="M909.315 971.857C910.223 961.718 896.045 952.572 877.647 951.427C859.248 950.282 843.598 957.571 842.69 967.71C841.782 977.848 855.96 986.996 874.358 988.141C892.756 989.287 908.407 981.995 909.315 971.857Z" fill="black"/>
</g>
<defs>
<clipPath id="clip0_10_793">
<rect width="1760" height="1760" fill="white"/>
</clipPath>
</defs>
</svg>
