<svg width="1760" height="1760" viewBox="0 0 1760 1760" fill="none" xmlns="http://www.w3.org/2000/svg">
<rect width="1760" height="1760" fill="white"/>
<path d="M678.885 632.861C609.275 634.934 526.405 649.096 488.285 697.801C446.022 752.377 479.998 828.715 447.679 888.128C423.647 932.687 363.981 965.848 366.053 1014.55C366.881 1039.42 385.113 1061.53 405.001 1080.18C438.978 1111.27 487.871 1136.83 537.593 1128.89C592.286 1119.91 637.449 1071.2 692.143 1082.26C750.98 1094.34 758.024 1160.67 791.172 1202.81C835.093 1258.77 930.392 1270.51 1008.7 1254.62C1066.71 1243.22 1124.31 1217.32 1152.48 1173.45C1179.41 1131.31 1175.27 1080.18 1165.33 1033.21C1161.6 1015.59 1157.04 997.281 1162.43 980.01C1168.64 960.667 1185.63 945.469 1202.2 930.961C1256.9 881.565 1306.62 828.37 1350.12 771.721C1377.47 736.142 1403.16 697.109 1403.99 654.968C1404.82 612.826 1352.2 566.194 1308.69 557.558C1271.81 549.959 1216.29 571.03 1159.11 601.772C1101.93 632.515 1067.96 619.735 1064.64 637.352C1053.87 694.692 1040.61 713.345 1006.22 734.415C830.121 841.842 805.675 629.406 678.885 633.206V632.861Z" fill="#3EC790" stroke="black" stroke-width="20" stroke-miterlimit="10"/>
<path d="M857.882 993.136C857.882 1000.74 857.882 1009.03 862.44 1014.9C867.412 1021.12 875.284 1022.15 882.328 1022.5C912.161 1023.53 941.995 1021.81 970.999 1016.62C977.628 1015.59 983.844 1014.21 989.23 1009.72C1000.42 1000.04 1000.83 980.7 1000.42 963.775C999.588 937.177 994.617 904.016 972.657 894.69C965.198 891.236 956.911 891.927 949.038 892.963C926.664 895.381 904.704 899.872 883.158 905.744C876.942 907.471 870.312 909.543 865.755 915.07C861.197 920.597 857.882 972.756 857.882 993.136Z" fill="white" stroke="black" stroke-width="20" stroke-miterlimit="10"/>
<path d="M965.967 927.958C973.478 927.303 978.737 920.159 977.714 912C976.69 903.841 969.771 897.758 962.261 898.413C954.75 899.068 949.492 906.212 950.515 914.371C951.539 922.53 958.456 928.613 965.967 927.958Z" fill="black"/>
</svg>
