<svg width="1760" height="1760" viewBox="0 0 1760 1760" fill="none" xmlns="http://www.w3.org/2000/svg">
<rect width="1760" height="1760" fill="white"/>
<path d="M670.442 564.883C621.042 545.142 619.818 556.714 592.872 582.24C565.927 607.767 543.472 641.802 521.017 670.391C487.131 713.957 408.336 752.417 385.065 800.407C370.368 831.379 392.006 872.221 395.272 963.436C395.68 978.412 396.904 994.068 405.07 1007.68C421.4 1034.91 461.819 1045.46 498.563 1046.82C535.307 1048.18 572.866 1044.44 607.569 1053.97C673.708 1072.69 706.369 1135.31 714.534 1193.17C720.25 1235.38 717.802 1279.28 738.623 1318.08C759.445 1356.88 816.193 1386.84 861.51 1367.09C892.947 1353.48 905.603 1322.51 915.81 1294.26C927.241 1262.95 938.672 1231.63 949.696 1200.32C959.902 1172.07 970.926 1142.8 994.605 1121.36C1018.28 1099.92 1059.52 1088.01 1090.14 1102.64C1121.98 1117.96 1130.56 1153.69 1157.5 1174.45C1193.02 1201.68 1251.4 1195.22 1292.64 1173.77C1375.92 1130.89 1409.81 1027.08 1352.25 961.053C1314.28 917.488 1250.18 897.748 1195.88 868.818C1141.58 839.888 1091.36 789.175 1109.33 737.782C1114.23 724.168 1123.21 711.915 1130.97 699.322C1172.2 631.932 1172.2 552.97 1171.38 477.412C1171.38 459.373 1170.57 439.973 1157.5 425.338C1139.54 405.257 1105.25 402.194 1075.44 401.173C1034.21 399.471 1002.77 411.723 951.329 396.067C892.947 378.368 837.831 384.155 814.968 435.208C796.188 477.072 843.547 500.896 797.005 546.844C768.018 575.434 712.901 580.879 671.258 564.201L670.442 564.883Z" fill="#FCFFA6" stroke="black" stroke-width="20" stroke-miterlimit="10"/>
<path d="M690.854 753.098C682.281 753.098 675.34 758.203 675.34 765.35C675.34 785.772 676.157 825.252 684.73 847.035C696.978 877.326 723.107 904.895 759.851 914.085C772.916 917.488 786.389 918.169 799.862 918.169C824.766 917.828 850.486 913.404 870.083 900.811C888.863 888.899 901.111 870.861 907.643 852.141C912.95 836.825 916.216 785.091 917.441 766.712C917.441 762.968 914.176 759.905 909.276 759.565L690.854 753.098Z" fill="white" stroke="black" stroke-width="20" stroke-miterlimit="10"/>
<path d="M796.186 785.09C802.95 785.09 808.435 780.518 808.435 774.879C808.435 769.24 802.95 764.669 796.186 764.669C789.422 764.669 783.938 769.24 783.938 774.879C783.938 780.518 789.422 785.09 796.186 785.09Z" fill="black" stroke="black" stroke-width="20" stroke-miterlimit="10"/>
</svg>
