<svg width="1760" height="1760" viewBox="0 0 1760 1760" fill="none" xmlns="http://www.w3.org/2000/svg">
<rect width="1760" height="1760" fill="white"/>
<path d="M714.622 363.287C674.254 335.436 587.948 342.398 535.98 348.587C522.988 350.135 509.996 352.069 499.324 358.258C480.3 369.476 474.732 390.752 473.34 410.093C468.7 473.919 490.044 538.905 472.876 601.184C463.131 635.611 442.251 667.329 427.402 700.596C412.554 733.863 404.666 771.772 421.37 804.265C440.858 842.947 489.58 864.608 532.733 886.657C578.205 909.867 620.894 936.945 659.87 966.73C696.063 994.194 715.087 1029.39 720.655 1070.4C726.687 1114.11 676.574 1183.35 643.63 1225.51C618.573 1257.62 525.773 1467.28 889.554 1404.61C1233.85 1345.43 1124.8 1128.04 1114.6 1106.37C1096.96 1068.85 1056.6 1032.49 1071.44 994.194C1082.58 964.795 1122.02 949.71 1158.21 943.134C1194.41 936.558 1233.85 935.01 1264.47 917.99C1307.16 894.007 1321.54 847.975 1329.9 805.812C1350.31 702.143 1352.63 595.767 1337.78 491.712C1334.53 467.729 1328.97 460.38 1287.21 441.426C1229.21 415.122 1151.72 407.772 1090 402.744C994.882 395.007 1051.95 518.016 1010.19 545.094C952.658 582.616 839.905 574.878 789.328 532.328C738.752 489.778 766.128 398.488 715.087 363.674L714.622 363.287Z" fill="#B0FCA4" stroke="black" stroke-width="20" stroke-miterlimit="10"/>
<path d="M967.51 789.565C974.934 800.783 967.51 827.087 951.269 844.88C926.677 872.732 880.276 885.497 840.371 875.052C800.467 864.608 771.235 832.115 769.843 797.688C769.843 795.754 769.842 793.82 770.77 791.886C772.162 789.565 775.411 788.404 778.659 787.63C844.084 768.289 956.373 772.932 967.046 789.565H967.51Z" fill="#FAFCFF" stroke="black" stroke-width="20" stroke-miterlimit="10"/>
<path d="M952.196 804.65C958.602 804.65 963.796 800.321 963.796 794.98C963.796 789.639 958.602 785.309 952.196 785.309C945.789 785.309 940.596 789.639 940.596 794.98C940.596 800.321 945.789 804.65 952.196 804.65Z" fill="black" stroke="black" stroke-width="20" stroke-miterlimit="10"/>
</svg>
