<svg width="1760" height="1760" viewBox="0 0 1760 1760" fill="none" xmlns="http://www.w3.org/2000/svg">
<rect width="1760" height="1760" fill="white"/>
<path d="M875.869 331.587C719.341 320.24 772.425 476.828 701.647 493.849C684.406 498.01 665.35 499.144 650.378 507.087C622.702 521.838 622.249 554.745 624.064 581.978C629.508 668.972 622.702 756.722 603.192 842.203C595.479 875.866 584.137 911.798 552.832 934.492C524.248 955.295 484.322 960.59 447.572 969.289C410.822 977.988 371.804 994.252 360.462 1024.51C347.758 1057.42 372.712 1091.46 391.767 1122.47C408.101 1148.57 420.351 1176.56 428.517 1205.31C431.239 1214.76 433.508 1224.6 439.406 1232.92C453.471 1252.59 483.869 1259.02 511.544 1262.42C662.628 1280.95 815.981 1256.37 968.879 1257.5C1060.98 1258.26 1153.54 1268.47 1245.18 1258.64C1282.39 1254.86 1321.86 1246.53 1346.81 1223.08C1369.95 1201.9 1377.21 1172.02 1381.75 1143.66C1388.1 1103.56 1390.82 1063.09 1389.92 1022.62C1389.92 1003.33 1387.65 982.905 1373.13 967.776C1348.63 942.056 1299.63 943.569 1271.5 920.875C1242.46 897.046 1252.44 849.767 1289.19 835.394C1319.59 823.669 1361.79 830.856 1382.2 808.918C1389.01 801.354 1391.73 791.519 1394 782.063C1404.43 734.027 1406.7 685.235 1400.81 636.821C1399.9 628.122 1397.63 618.288 1389.92 612.615C1383.11 607.698 1373.58 606.563 1364.06 606.184C1315.06 604.293 1266.51 617.154 1217.51 616.397C1128.58 615.263 1049.18 598.241 1022.87 572.9C992.017 543.019 980.675 490.445 971.601 451.866C962.527 413.286 962.526 337.261 875.869 331.209V331.587Z" fill="white" stroke="black" stroke-width="20" stroke-miterlimit="10"/>
<path d="M833.671 822.535C710.263 870.192 794.197 942.813 898.096 951.512C1070.96 965.885 1079.58 866.41 1046 833.125C1001.09 789.25 884.485 803.245 833.671 822.913V822.535Z" fill="white" stroke="black" stroke-width="20" stroke-miterlimit="10"/>
<path d="M934.171 899.593C948.911 898.643 960.249 891.289 959.496 883.166C958.743 875.044 946.184 869.228 931.444 870.178C916.704 871.128 905.365 878.483 906.119 886.606C906.872 894.728 919.431 900.542 934.171 899.593Z" fill="black"/>
</svg>
