<svg width="1760" height="1760" viewBox="0 0 1760 1760" fill="none" xmlns="http://www.w3.org/2000/svg">
<rect width="1760" height="1760" fill="white"/>
<path d="M869.89 449.415C779.952 470.552 708.671 548.322 615.863 538.751C597.684 536.756 564.196 516.017 546.017 516.815C509.659 518.809 494.829 556.697 485.739 586.21C476.65 615.722 481.434 646.83 484.304 677.14C487.653 713.034 487.175 748.927 483.827 784.82C482.391 797.981 480.477 811.94 471.388 822.708C444.119 854.614 375.231 840.655 347.484 872.161C334.089 887.317 328.827 923.21 340.308 939.163C369.012 980.64 437.9 973.063 453.688 992.206C462.777 1002.97 465.169 1016.93 467.083 1030.09C473.302 1073.17 473.78 1116.64 468.039 1159.71C463.733 1195.6 455.601 1234.69 477.607 1265.79C501.049 1299.29 551.28 1312.46 597.206 1314.85C631.651 1316.84 667.052 1314.05 698.626 1302.49C730.2 1290.92 757.468 1269.38 768.471 1242.26C777.56 1219.13 774.69 1193.61 778.996 1169.28C786.172 1127.01 820.616 1086.33 870.369 1075.56C920.122 1064.79 979.921 1094.7 982.791 1136.98C984.226 1158.91 971.789 1179.65 965.57 1200.79C959.35 1221.92 960.787 1248.25 982.315 1261.01C998.581 1270.58 1021.06 1268.59 1040.68 1264.6C1064.6 1259.41 1088.52 1250.64 1106.22 1235.88C1148.8 1201.19 1148.8 1143.36 1184.68 1103.87C1216.25 1069.58 1268.87 1055.22 1312.88 1032.88C1356.9 1010.55 1398.04 968.675 1381.3 927.996C1374.12 910.049 1356.9 896.489 1346.37 879.739C1317.19 831.881 1350.68 775.648 1374.6 725.796C1389.43 694.688 1393.74 672.354 1400.91 639.252C1407.13 610.936 1403.78 578.632 1376.99 560.685C1347.33 540.345 1303.79 551.113 1267.44 561.482C1199.5 580.625 1121.53 595.383 1067.47 556.299C1013.41 517.215 975.138 424.689 870.848 449.017L869.89 449.415Z" fill="#2667FF" stroke="black" stroke-width="20" stroke-miterlimit="10"/>
<path d="M979.446 782.827C987.1 794.393 979.444 821.512 962.7 839.858C937.345 868.573 889.505 881.734 848.363 870.966C807.221 860.198 777.083 826.697 775.647 791.202C775.647 789.208 775.648 787.214 776.605 785.22C778.04 782.827 781.388 781.63 784.737 780.833C852.191 760.892 967.964 765.678 978.967 782.827H979.446Z" fill="white" stroke="black" stroke-width="20" stroke-miterlimit="10"/>
</svg>
