<svg width="1760" height="1760" viewBox="0 0 1760 1760" fill="none" xmlns="http://www.w3.org/2000/svg">
<rect width="1760" height="1760" fill="white"/>
<path d="M636.172 865.169C595.687 821.628 556.349 776.942 518.538 731.109C506.698 716.978 494.859 701.7 491.803 683.367C487.984 661.597 497.914 640.208 507.462 620.348C541.453 548.543 575.827 477.121 609.818 405.317C620.512 382.783 639.991 356.047 664.052 363.304C677.038 367.505 684.676 380.491 692.315 392.331C733.181 455.733 807.657 496.218 883.278 496.6C919.943 496.6 956.608 487.815 993.273 492.017C1029.94 496.218 1068.51 518.752 1074.24 555.036C1078.44 581.772 1063.93 608.89 1068.13 635.243C1073.1 666.562 1102.5 687.951 1131.53 700.554C1160.56 713.158 1192.64 721.179 1216.7 741.804C1259.09 778.47 1263.3 841.871 1263.68 897.634C1264.82 1040.1 1262.91 1182.56 1257.95 1325.02C1257.95 1334.19 1257.18 1343.74 1251.84 1350.99C1244.58 1361.69 1230.07 1364.36 1217.46 1366.27C1058.2 1388.81 897.792 1401.41 737 1403.7C674.364 1404.85 610.2 1403.7 551.765 1381.93C541.453 1378.11 530.76 1373.15 523.503 1364.36C507.08 1344.12 516.628 1314.33 519.684 1288.36C526.558 1232.59 499.823 1175.68 510.517 1120.69C520.829 1068.36 561.695 1028.64 592.25 985.098C622.804 941.557 647.629 875.864 636.935 864.787L636.172 865.169Z" fill="#DEB0FF" stroke="black" stroke-width="20" stroke-miterlimit="10"/>
<path d="M958.518 1179.12C957.372 1196.69 956.226 1216.17 961.191 1230.68C966.538 1246.34 976.468 1250.16 985.634 1252.07C1023.83 1260.86 1062.78 1262.38 1101.36 1256.27C1109.76 1255.13 1118.55 1253.22 1126.18 1244.05C1142.22 1224.19 1146.04 1178.74 1147.95 1139.4C1151.01 1077.53 1149.86 999.229 1123.51 972.876C1114.34 963.709 1103.65 963.327 1093.34 964.091C1064.31 965.619 1034.9 970.966 1006.26 980.515C997.856 983.188 988.69 987.007 982.197 998.848C975.704 1010.69 962.719 1131.38 959.281 1179.12H958.518Z" fill="white" stroke="black" stroke-width="20" stroke-miterlimit="10"/>
<path d="M1059.35 1146.66C1069.05 1146.66 1076.91 1131.09 1076.91 1111.9C1076.91 1092.7 1069.05 1077.14 1059.35 1077.14C1049.64 1077.14 1041.78 1092.7 1041.78 1111.9C1041.78 1131.09 1049.64 1146.66 1059.35 1146.66Z" fill="black"/>
</svg>
