<svg width="1760" height="1760" viewBox="0 0 1760 1760" fill="none" xmlns="http://www.w3.org/2000/svg">
<rect width="1760" height="1760" fill="white"/>
<path d="M911.193 402.718C882.074 396.748 839.112 402.32 819.063 416.647C780.397 444.503 778.486 498.625 704.495 514.543C685.878 518.523 652.462 508.972 625.729 567.869C611.409 598.91 597.565 629.95 584.199 660.99C566.537 701.98 549.352 746.153 563.195 788.337C574.175 822.959 605.683 855.591 595.181 890.213C588.498 912.498 566.539 928.814 544.103 942.345C503.527 967.018 459.133 987.314 421.898 1015.57C384.664 1043.82 355.068 1082.43 356.022 1124.21C356.977 1160.42 382.276 1195.44 420.465 1212.56C458.654 1229.67 544.101 1273.44 581.335 1255.54C771.325 1162.41 585.632 1107.1 725.499 1016.37C768.462 988.508 829.564 968.61 875.391 993.283C920.263 1017.16 925.514 1070.49 914.535 1113.86C903.556 1157.24 881.596 1200.62 889.234 1244.39C894.962 1278.62 919.307 1309.66 951.29 1331.54C1012.39 1372.93 1104.05 1380.89 1173.26 1349.45C1242.48 1318.01 1284.01 1248.37 1270.64 1183.51C1260.62 1134.16 1223.39 1092.37 1198.09 1047.01C1172.79 1001.64 1160.85 943.937 1198.09 904.937C1227.21 874.693 1277.33 865.142 1315.52 843.255C1386.17 802.265 1408.6 719.092 1384.26 650.246C1377.57 630.746 1355.14 591.349 1336.52 578.216C1266.83 530.064 1204.77 563.492 1145.58 547.176C1048.67 520.513 1003.8 422.616 911.193 402.718Z" fill="#FF82C1" stroke="black" stroke-width="20" stroke-miterlimit="10"/>
<path d="M967.524 689.641C916.447 627.56 817.156 664.968 797.584 715.11C765.124 798.681 891.623 807.038 936.495 792.314C996.165 772.416 988.528 715.11 967.524 689.641Z" fill="white" stroke="black" stroke-width="20" stroke-miterlimit="10"/>
<path d="M887.805 701.978C898.087 701.978 906.42 696.099 906.42 688.846C906.42 681.593 898.087 675.714 887.805 675.714C877.523 675.714 869.188 681.593 869.188 688.846C869.188 696.099 877.523 701.978 887.805 701.978Z" fill="black"/>
</svg>
