<svg width="1760" height="1760" viewBox="0 0 1760 1760" fill="none" xmlns="http://www.w3.org/2000/svg">
<rect width="1760" height="1760" fill="white"/>
<path d="M512.592 534.714C479.988 516.464 401.737 506.756 378.914 533.549C356.091 560.341 355.626 595.676 356.091 628.293C356.091 664.793 357.023 701.294 357.489 737.794C357.489 759.927 357.954 782.448 365.873 803.416C376.586 831.762 400.34 855.059 418.04 880.298C459.028 938.155 470.207 1009.99 449.247 1074.45C435.273 1116.77 408.258 1156.38 400.34 1199.48C392.422 1242.58 411.053 1295.39 460.425 1310.14C510.263 1325.29 563.362 1296.17 601.09 1264.71C638.818 1233.26 675.614 1195.6 727.781 1188.22C835.375 1173.08 901.515 1289.95 1005.85 1316.75C1069.66 1333.05 1145.12 1308.98 1179.58 1261.22C1207.53 1222.78 1213.59 1169.19 1260.63 1147.45C1289.51 1134.25 1325.37 1137.74 1355.65 1126.87C1414.34 1105.51 1426.91 1036.78 1399.9 988.634C1372.88 940.485 1318.85 907.479 1269.94 873.309C1221.04 839.139 1172.13 797.98 1162.82 745.171C1153.03 690.421 1186.1 627.906 1147.91 582.863C1116.24 545.587 1052.43 544.809 997 544.421C937.38 544.421 868.911 545.586 833.978 585.58C800.908 624.022 809.758 674.501 756.193 690.421C622.981 730.416 588.514 577.038 511.195 533.549L512.592 534.714Z" fill="#FFF570" stroke="black" stroke-width="20" stroke-miterlimit="10"/>
<path d="M949.487 869.427C917.814 853.507 878.689 837.587 845.619 851.566C824.659 860.497 813.014 879.135 804.165 897.385C792.986 920.294 784.602 944.758 786.465 969.609C788.328 994.46 801.836 1019.31 826.522 1032.9C853.071 1047.27 887.073 1046.88 918.28 1044.16C976.502 1038.72 1035.66 1025.91 1082.23 996.401C1087.36 993.295 1092.48 989.8 1095.27 985.14C1102.26 974.656 1097.14 960.677 1086.89 952.135C1076.64 943.592 986.283 888.066 949.487 869.816V869.427Z" fill="white" stroke="black" stroke-width="20" stroke-miterlimit="10"/>
<path d="M924.489 957.012C928.382 943.897 920.606 931.011 907.122 928.229C893.638 925.447 879.552 933.823 875.659 946.938C871.765 960.053 879.54 972.94 893.024 975.721C906.508 978.503 920.596 970.127 924.489 957.012Z" fill="#030005"/>
</svg>
