<svg width="1760" height="1760" viewBox="0 0 1760 1760" fill="none" xmlns="http://www.w3.org/2000/svg">
<rect width="1760" height="1760" fill="white"/>
<path d="M461.232 430.915C433.56 433.133 404.823 436.683 391.519 457.534C378.215 478.385 379.279 502.784 385.133 525.853C390.987 548.922 400.566 570.66 404.291 593.73C413.87 653.621 382.472 719.279 417.063 772.516C429.835 792.036 449.524 807.12 469.214 821.76C503.273 847.492 537.331 872.778 571.389 898.509C629.927 942.429 693.786 995.223 692.189 1061.33C692.189 1082.18 684.207 1103.91 667.178 1119.44C637.909 1146.06 590.015 1149.17 550.635 1164.25C493.162 1186.43 453.25 1237.45 452.717 1290.24C452.717 1323.52 470.811 1360.78 509.126 1371.43C524.027 1375.86 539.992 1375.42 555.424 1375.42C660.26 1374.53 766.159 1373.2 867.27 1351.02C918.357 1339.93 969.977 1321.74 1003.5 1287.14C1060.98 1227.69 1045.01 1142.07 1059.38 1066.65C1067.36 1024.95 1091.84 979.696 1139.74 966.387C1192.95 951.747 1281.29 986.35 1332.91 968.605C1396.77 946.866 1381.34 701.091 1368.56 524.966C1366.44 493.024 1361.11 457.977 1331.31 438.013C1310.56 423.817 1281.82 421.155 1255.21 418.493C1080.67 402.966 968.912 421.154 862.48 388.769C822.036 376.347 776.803 398.085 734.23 404.296C654.938 415.387 601.722 420.711 461.232 430.915Z" fill="white" stroke="black" stroke-width="20" stroke-miterlimit="10"/>
<path d="M1012.01 697.541C1016.8 748.559 975.296 796.916 921.016 820.872C907.712 826.639 893.875 831.52 878.975 832.407C850.771 834.625 823.098 824.422 801.28 809.338C762.964 782.72 740.614 740.573 742.21 698.871C742.21 694.435 743.274 689.556 746.999 686.894C749.66 685.119 753.385 684.676 756.578 684.232C823.63 678.021 890.682 675.359 958.267 675.803C979.553 675.803 1009.35 678.909 1011.48 697.098L1012.01 697.541Z" fill="white" stroke="black" stroke-width="20" stroke-miterlimit="10"/>
<path d="M897.089 757.968C898.705 748.261 891.284 739.381 880.512 738.135C869.741 736.889 859.7 743.749 858.084 753.456C856.468 763.164 863.89 772.043 874.661 773.289C885.432 774.535 895.474 767.676 897.089 757.968Z" fill="black"/>
</svg>
