<svg width="1760" height="1760" viewBox="0 0 1760 1760" fill="none" xmlns="http://www.w3.org/2000/svg">
<g clip-path="url(#clip0_10_805)">
<path d="M1760 0H0V1760H1760V0Z" fill="white"/>
<path d="M774.268 381.067C737.387 379.279 713.371 413.601 703.936 443.633C694.501 473.665 692.785 506.198 669.627 530.152C643.038 557.681 596.293 564.475 553.836 565.547C511.379 566.62 434.613 567.335 396.874 583.423C383.15 589.144 408.453 807.588 382.721 1023.17C372.429 1110.41 372 1159.03 372 1263.78C372 1277.73 378.004 1292.39 390.87 1301.32C401.162 1308.47 415.315 1309.9 428.609 1310.98C476.212 1314.91 524.244 1317.77 572.277 1318.84C592.004 1319.2 612.589 1319.2 629.314 1310.98C666.196 1292.74 664.481 1249.13 665.338 1213.37C666.196 1180.84 673.487 1146.87 699.218 1122.56C724.95 1098.25 772.553 1087.88 803.431 1107.19C857.467 1140.8 818.87 1221.95 864.757 1263.07C890.918 1287.02 934.661 1288.09 973.687 1287.74C993.414 1287.74 1012.71 1287.38 1032.44 1287.02C1050.88 1287.02 1070.61 1286.31 1086.48 1278.44C1131.51 1255.92 1117.78 1192.64 1158.95 1165.11C1188.54 1145.09 1231.86 1153.67 1270.03 1154.03C1301.76 1154.38 1333.93 1147.95 1359.66 1132.93C1385.39 1117.92 1403.83 1092.89 1404.26 1066.43C1404.69 1036.4 1381.96 1008.16 1351.51 992.069C1321.06 975.98 1283.75 970.975 1247.73 971.333C1210.85 972.048 1167.96 976.338 1143.51 953.457C1127.22 938.441 1125.5 916.632 1124.64 896.253C1123.79 883.74 1123.36 871.226 1122.5 858.713C1122.07 850.49 1121.64 841.91 1125.5 834.402C1130.22 824.392 1141.8 817.241 1153.81 812.951C1179.11 803.655 1207.84 804.371 1234.86 800.438C1261.88 796.506 1291.04 785.423 1300.05 763.614C1308.62 742.163 1293.61 717.85 1271.74 704.622C1249.87 691.394 1222.42 685.674 1196.26 680.311C1188.12 678.523 1179.11 676.735 1172.68 672.088C1164.96 666.725 1161.1 658.86 1157.67 650.994C1146.09 625.253 1136.22 598.439 1128.08 571.625C1120.36 545.883 1124.22 514.422 1095.91 502.624C1077.04 494.758 1041.45 505.126 932.088 491.541C873.763 484.39 869.046 446.136 851.463 422.539C836.881 402.161 810.292 383.212 775.126 381.425L774.268 381.067Z" fill="#FF82C1" stroke="black" stroke-width="20" stroke-miterlimit="10"/>
<path d="M766.3 671.015C717.41 708.555 706.076 817.599 719.371 884.813C721.515 895.538 724.517 905.906 728.806 913.772C734.381 923.782 742.529 929.503 750.677 933.078C780.697 946.306 817.579 933.793 845.026 893.036C872.473 852.279 887.912 782.205 876.761 732.152C869.9 701.405 854.032 681.026 836.02 671.015C818.008 661.005 793.134 650.28 761.828 674.234L766.3 671.015Z" fill="white" stroke="black" stroke-width="20" stroke-miterlimit="10"/>
<path d="M812.465 812.173C814.63 796.481 809.518 783.101 801.048 782.289C792.577 781.477 783.954 793.54 781.79 809.233C779.625 824.925 784.738 838.305 793.209 839.117C801.679 839.93 810.301 827.866 812.465 812.173Z" fill="black"/>
</g>
<defs>
<clipPath id="clip0_10_805">
<rect width="1760" height="1760" fill="white"/>
</clipPath>
</defs>
</svg>
