<svg width="1760" height="1760" viewBox="0 0 1760 1760" fill="none" xmlns="http://www.w3.org/2000/svg">
<rect width="1760" height="1760" fill="white"/>
<path d="M749.198 356.296C711.74 362.702 680.045 389.124 672.361 420.351C664.677 452.378 676.203 492.413 644.988 512.03C630.581 520.838 611.372 522.039 593.603 522.44C569.112 523.24 544.14 524.041 519.648 524.842C511.004 524.842 501.399 525.643 495.637 531.247C489.874 536.452 489.874 544.458 490.834 551.664C493.716 576.886 499.479 601.708 509.083 625.729C512.445 633.736 515.806 642.143 523.01 648.148C531.174 655.354 543.179 658.558 554.225 661.36C587.36 669.767 622.417 678.174 646.909 698.592C671.401 719.01 679.084 756.642 653.152 775.859C642.587 783.866 628.18 787.069 614.253 790.272C580.637 797.878 547.021 805.885 513.405 813.491C505.241 815.493 496.597 817.495 489.874 821.898C479.309 829.505 475.947 841.916 474.026 853.526C470.665 873.143 468.744 893.161 468.264 913.179C468.264 931.194 468.744 950.411 480.75 965.624C504.761 996.851 557.586 997.251 601.767 996.45C636.344 995.65 671.881 996.45 704.537 1006.06C737.192 1015.67 767.447 1035.68 778.492 1063.31C792.899 1099.34 770.808 1140.18 735.271 1163.4C699.734 1186.62 653.152 1195.42 608.01 1198.62C576.315 1200.63 542.219 1200.63 514.846 1214.64C478.348 1233.86 465.382 1272.69 457.218 1307.92C455.297 1315.53 453.857 1323.93 456.258 1331.54C463.461 1352.76 496.117 1357.56 522.53 1358.36C683.406 1362.77 843.803 1367.57 1004.68 1371.98C1050.78 1373.18 1096.88 1374.38 1142.03 1367.17C1166.52 1363.17 1191.49 1356.36 1208.78 1341.15C1228.47 1323.53 1234.23 1298.71 1238.55 1274.69C1279.85 1032.48 1317.31 534.049 1310.11 528.044C1179.48 520.838 1043.58 518.837 929.284 507.627C918.239 506.426 906.713 505.225 898.069 500.02C888.945 494.816 883.182 486.008 879.82 477.2C869.736 453.18 862.052 433.162 852.927 409.141C843.803 385.12 802.023 346.687 748.718 355.895L749.198 356.296Z" fill="#9DC0EB" stroke="black" stroke-width="20" stroke-miterlimit="10"/>
<path d="M1037.82 859.13C1054.14 859.931 1072.39 860.331 1085.84 855.527C1100.25 850.323 1103.61 841.115 1105.05 833.108C1111.77 798.278 1111.77 763.447 1105.05 728.617C1103.61 721.01 1101.69 713.004 1092.56 706.598C1073.35 692.586 1031.09 690.183 994.114 689.783C936.487 688.582 863.492 691.785 839.961 716.206C831.797 725.014 831.797 734.622 832.757 743.83C835.158 770.253 841.401 796.275 851.006 821.897C853.887 829.504 857.729 837.512 869.255 843.117C880.78 848.721 993.634 857.128 1037.82 859.13Z" fill="white" stroke="black" stroke-width="20" stroke-miterlimit="10"/>
<path d="M972.29 785.737C990.316 785.239 1004.64 777.669 1004.29 768.83C1003.94 759.991 989.042 753.229 971.017 753.728C952.991 754.226 938.664 761.796 939.016 770.635C939.368 779.475 954.265 786.236 972.29 785.737Z" fill="black"/>
</svg>
