<svg width="1760" height="1760" viewBox="0 0 1760 1760" fill="none" xmlns="http://www.w3.org/2000/svg">
<rect width="1760" height="1760" fill="white"/>
<path d="M804.172 474.676C692.147 454.905 610.904 468.365 496.861 475.096C486.769 475.517 475.163 476.779 468.603 483.51C464.061 488.138 462.547 494.027 461.034 499.916C411.077 719.088 376.258 940.785 357.083 1163.32C355.065 1186.04 354.055 1210.86 371.212 1228.53C387.36 1244.51 413.6 1250.4 438.326 1253.35C684.074 1280.27 944.455 1282.37 1180.11 1282.37C1198.78 1282.37 1303.74 1303.41 1330.49 1182.67C1343.1 1125.88 1339.06 1048.48 1345.12 990.845C1358.24 868.008 1370.85 745.17 1383.97 622.333C1389.02 575.638 1394.07 528.943 1392.05 482.248C1392.05 470.469 1390.03 458.27 1381.45 449.436C1368.84 437.236 1347.14 436.394 1327.96 437.236C1245.21 441.863 1188.18 453.222 1162.45 500.758C1141.25 539.46 1160.93 594.569 1150.84 636.216C1140.75 677.863 1101.89 694.268 1050.93 693.427C924.27 691.324 894.498 697.634 884.406 601.299C878.855 547.873 886.929 489.4 804.677 474.676H804.172Z" fill="#DEB0FF" stroke="black" stroke-width="20" stroke-miterlimit="10"/>
<path d="M966.156 1126.72C983.313 1127.57 1002.49 1127.99 1016.62 1122.94C1031.76 1117.47 1035.29 1107.79 1036.8 1099.38C1043.87 1062.78 1043.87 1026.18 1036.8 989.583C1035.29 981.591 1033.27 973.176 1023.68 966.445C1003.5 951.722 959.092 949.198 920.236 948.778C859.683 947.516 782.981 950.881 758.255 976.543C749.677 985.797 749.677 995.894 750.686 1005.57C753.209 1033.33 759.769 1060.68 769.861 1087.6C772.889 1095.59 776.926 1104.01 789.037 1109.9C801.147 1115.79 919.732 1124.62 966.156 1126.72Z" fill="white" stroke="black" stroke-width="20" stroke-miterlimit="10"/>
<path d="M897.561 1049.42C916.502 1048.89 931.556 1040.94 931.187 1031.65C930.817 1022.36 915.163 1015.26 896.223 1015.78C877.282 1016.3 862.227 1024.26 862.597 1033.55C862.967 1042.83 878.621 1049.94 897.561 1049.42Z" fill="black"/>
</svg>
