<svg width="1760" height="1760" viewBox="0 0 1760 1760" fill="none" xmlns="http://www.w3.org/2000/svg">
<rect width="1760" height="1760" fill="white"/>
<path d="M811.386 416.254C732.992 416.254 724.33 514.827 727.795 597.873C728.228 612.316 725.629 626.759 711.769 635.425C699.209 643.368 682.317 644.089 666.292 644.812C611.719 646.617 557.58 648.784 503.007 650.589C486.549 651.311 467.491 652.755 457.53 663.948C451.466 670.809 450.6 679.836 449.301 688.141C428.078 890.34 406.855 1092.18 385.633 1294.38C384.766 1304.49 383.9 1314.96 389.531 1323.62C398.626 1337.71 420.715 1340.96 439.772 1342.4C485.249 1345.65 531.16 1344.57 576.637 1339.87C633.375 1333.73 700.075 1313.15 710.903 1266.21C718.266 1233.36 694.445 1201.94 681.451 1170.17C666.725 1134.42 665.859 1093.26 688.381 1060.4C710.903 1027.55 759.412 1006.24 802.724 1016.35C846.035 1026.46 873.755 1064.38 878.952 1101.57C884.15 1138.76 870.29 1176.31 855.997 1211.69C850.367 1225.05 845.169 1240.58 853.831 1252.49C861.194 1262.97 876.787 1266.94 890.646 1270.19C942.62 1282.1 996.327 1294.02 1049.17 1285.71C1102.01 1277.41 1152.68 1241.66 1152.68 1196.89C1152.68 1167.28 1133.62 1132.98 1157.45 1111.32C1173.9 1096.51 1202.06 1097.23 1225.45 1102.65C1248.83 1108.07 1271.79 1117.45 1296.04 1115.65C1346.28 1112.04 1374.44 1064.01 1374.44 1022.13C1374.44 972.303 1343.69 918.864 1286.95 903.338C1259.66 895.756 1226.74 896.839 1205.95 879.507C1188.2 864.704 1186.46 841.595 1186.03 820.653C1185.17 788.879 1184.3 757.105 1183.43 725.331C1182.57 697.528 1183.43 629.647 1091.61 629.647C1050.9 629.647 928.761 617.37 920.098 612.315C902.774 602.205 904.506 582.708 906.239 565.377C911.436 516.632 921.398 410.116 811.386 416.254Z" fill="#FCFFA6" stroke="black" stroke-width="20" stroke-miterlimit="10"/>
<path d="M736.458 819.569C729.528 842.316 724.33 869.758 745.12 886.367C758.546 896.838 778.903 899.727 797.96 900.81C822.215 902.254 846.902 901.532 869.424 894.311C891.946 887.089 911.87 873.369 918.8 855.316C925.729 835.818 917.067 815.597 906.672 797.183C887.182 763.242 861.195 730.746 822.215 709.443C817.884 707.276 813.552 704.749 808.355 704.027C796.661 702.222 785.4 708.72 779.769 717.025C774.139 725.33 744.687 792.85 736.891 819.569H736.458Z" fill="white" stroke="black" stroke-width="20" stroke-miterlimit="10"/>
<path d="M826.288 846.079C839.413 845.335 849.475 837.635 848.761 828.881C848.047 820.127 836.828 813.634 823.702 814.378C810.576 815.122 800.514 822.822 801.228 831.576C801.942 840.33 813.162 846.823 826.288 846.079Z" fill="#030005"/>
</svg>
