<svg width="1760" height="1760" viewBox="0 0 1760 1760" fill="none" xmlns="http://www.w3.org/2000/svg">
<rect width="1760" height="1760" fill="white"/>
<path d="M437 431L391.889 563.269C385.006 582.941 377.632 602.614 374.682 623.107C371.24 645.238 372.716 667.37 374.19 689.502C378.124 748.111 384.515 806.72 393.364 864.919C395.822 880.083 398.772 896.477 412.046 907.133C426.795 919.019 449.901 919.839 470.058 923.118C521.188 931.315 566.91 960.005 590.508 998.531C614.106 1037.06 615.581 1084.6 593.949 1123.95C581.659 1146.08 561.01 1166.57 532.987 1171.9C503.981 1177.64 474.483 1166.57 444.985 1160.42C415.487 1154.27 379.107 1155.5 363.866 1177.23C356 1187.88 356 1201 356 1213.7C356 1247.72 359.441 1286.66 392.381 1306.74C411.554 1318.21 436.136 1320.26 459.734 1321.9C552.161 1327.64 645.57 1328.05 738.489 1324.36C753.238 1323.54 768.478 1322.72 781.752 1317.81C820.1 1303.46 830.424 1262.06 826.982 1227.23C823.541 1192.39 811.25 1156.73 823.049 1123.13C858.938 1023.53 953.823 1051.81 983.813 1094.44C1013.8 1137.06 1024.62 1191.16 1029.04 1241.98C1031.01 1262.89 1031.5 1285.02 1045.76 1301.82C1061 1319.44 1088.04 1326.82 1113.6 1331.33C1147.03 1337.48 1181.45 1340.76 1215.37 1341.99C1226.68 1341.99 1237.99 1341.99 1248.8 1338.71C1276.33 1329.28 1285.18 1301 1290.59 1276.41C1297.96 1239.11 1305.34 1201 1301.41 1162.88C1297.47 1124.77 1280.27 1086.65 1246.34 1061.24C1222.75 1043.61 1191.77 1032.14 1177.52 1008.78C1159.82 979.678 1181.45 939.102 1219.3 930.905C1271.91 919.43 1345.65 934.184 1350.57 910.003C1363.35 848.525 1373.18 640.73 1304.85 633.353C1282.72 630.894 1227.66 642.779 1206.03 646.058C1150.97 653.845 1085.58 655.075 1049.69 619.418C1028.06 598.106 1023.63 568.596 1019.7 541.136C1016.75 519.824 1013.8 498.512 1010.85 477.61C1009.87 471.462 1008.89 465.314 1004.95 460.395C999.053 453.018 988.237 448.509 977.421 448.509C727.673 448.509 442.527 419 442.527 419L437 431Z" fill="#FF6640" stroke="black" stroke-width="20" stroke-miterlimit="10"/>
<path d="M801.912 844.835C818.628 845.655 837.31 846.065 851.075 841.147C865.824 835.819 869.266 826.392 870.741 818.195C877.623 782.538 877.623 746.881 870.741 711.223C869.266 703.436 867.299 695.24 857.958 688.682C838.293 674.337 795.029 671.878 757.174 671.468C698.178 670.238 623.45 673.517 599.36 698.518C591.003 707.535 591.003 717.371 591.986 726.798C594.444 753.848 600.835 780.489 610.668 806.72C613.618 814.507 617.55 822.704 629.35 828.442C641.149 834.18 756.682 842.786 801.912 844.835Z" fill="white" stroke="black" stroke-width="20" stroke-miterlimit="10"/>
<path d="M734.996 769.841C753.449 769.331 768.116 761.582 767.756 752.532C767.396 743.483 752.145 736.561 733.692 737.072C715.239 737.582 700.571 745.331 700.931 754.38C701.291 763.43 716.543 770.351 734.996 769.841Z" fill="black"/>
</svg>
