<svg width="1760" height="1760" viewBox="0 0 1760 1760" fill="none" xmlns="http://www.w3.org/2000/svg">
<g clip-path="url(#clip0_10_799)">
<path d="M1760 0H0V1760H1760V0Z" fill="white"/>
<path d="M604.843 588.134C592.08 580.359 572.443 586.498 563.607 597.548C554.77 608.598 554.279 622.922 553.788 636.018C552.316 675.306 550.842 714.595 549.37 753.884C549.37 760.432 548.879 766.979 544.952 772.709C541.024 778.439 533.661 781.713 526.788 784.168C496.842 794.809 462.969 791.944 430.568 796.037C398.168 800.129 363.313 814.452 356.931 841.054C352.022 861.926 367.24 882.798 385.895 897.531C404.55 912.265 427.132 923.315 444.314 939.276C474.26 967.924 483.097 1008.03 483.097 1046.09C483.097 1084.15 476.714 1122.21 482.114 1159.86C483.096 1167.23 485.06 1175.42 490.46 1181.15C498.806 1190.56 514.024 1193.42 527.77 1195.06C717.754 1220.03 1182.65 1179.1 1228.8 1175.83C1274.94 1172.55 1319.13 1160.68 1350.54 1134.08C1458.05 1042.82 1287.71 997.39 1277.89 914.311C1273.96 879.934 1305.38 834.097 1317.16 805.859C1335.82 761.25 1272.98 594.273 1265.62 593.455C1204.25 586.907 1203.76 606.961 1142.89 598.775C1096.25 592.227 1055.01 570.127 1008.87 561.123C965.666 552.938 919.52 557.031 879.265 572.582C859.137 580.768 840.483 591.408 820.355 599.594C768.318 621.284 700.874 647.886 613 593.455L604.843 588.134Z" fill="#3EC790" stroke="black" stroke-width="20" stroke-miterlimit="10"/>
<path d="M953.395 983.474C896.94 987.567 848.339 957.282 821.339 915.947C814.957 906.125 809.557 895.075 807.593 883.616C804.647 861.925 815.939 840.644 832.139 823.455C861.103 793.58 907.249 775.982 953.395 776.801C958.304 776.801 963.704 777.619 966.649 780.484C968.613 782.53 969.104 785.395 969.595 787.85C977.45 839.007 981.377 890.983 981.377 942.549C981.377 958.919 978.923 982.246 958.795 983.474H953.395Z" fill="white" stroke="black" stroke-width="20" stroke-miterlimit="10"/>
<path d="M970.15 882.468C971.814 871.252 962.91 861.103 950.264 859.799C937.617 858.496 926.016 866.531 924.352 877.747C922.689 888.962 931.592 899.112 944.238 900.416C956.885 901.719 968.486 893.684 970.15 882.468Z" fill="black"/>
</g>
<defs>
<clipPath id="clip0_10_799">
<rect width="1760" height="1760" fill="white"/>
</clipPath>
</defs>
</svg>
