<svg width="1760" height="1760" viewBox="0 0 1760 1760" fill="none" xmlns="http://www.w3.org/2000/svg">
<rect width="1760" height="1760" fill="white"/>
<path d="M535.527 428.335C521.106 429.266 507.753 435.321 495.468 441.376C471.967 452.555 449 465.13 427.101 478.637C396.657 497.268 366.212 519.624 358.2 551.296C349.654 583.9 367.814 616.97 381.701 648.176C397.725 684.04 408.941 723.63 397.725 760.891C395.054 770.206 390.781 779.522 390.247 789.304C390.247 799.085 393.452 808.865 397.191 818.181C422.828 884.785 428.703 997.035 473.569 1055.26C483.717 1068.3 665.317 921.581 738.491 1113.48C763.061 1178.22 875.759 1476.31 1179.14 1281.15C1482.52 1086 1324.95 729.685 1186.08 691.026C1083.53 662.149 994.333 719.439 927.034 581.106C904.601 534.995 905.136 479.102 866.145 441.841C843.712 420.416 808.46 409.704 775.879 413.896C743.298 418.088 724.604 442.774 703.239 464.665C681.875 486.556 669.59 494.008 642.884 494.008C585.199 494.008 568.108 426.006 536.595 428.335H535.527Z" fill="#FFF570" stroke="black" stroke-width="20" stroke-miterlimit="10"/>
<path d="M902.996 854.979C816.47 898.296 818.072 1021.26 871.484 1094.38C880.03 1106.03 890.178 1117.21 902.996 1125.59C919.554 1136.3 940.385 1141.43 960.681 1144.69C1035.46 1156.33 1118.25 1138.16 1170.05 1089.72C1221.86 1041.28 1235.22 961.64 1191.95 907.145C1165.25 873.61 1121.45 852.651 1076.05 843.335C1030.65 834.02 975.102 819.115 902.996 854.979Z" fill="white" stroke="black" stroke-width="20" stroke-miterlimit="10"/>
<path d="M1030.65 1035.69C1051 1035.69 1067.5 1021.31 1067.5 1003.56C1067.5 985.807 1051 971.419 1030.65 971.419C1010.29 971.419 993.794 985.807 993.794 1003.56C993.794 1021.31 1010.29 1035.69 1030.65 1035.69Z" fill="black"/>
</svg>
