<svg width="1760" height="1760" viewBox="0 0 1760 1760" fill="none" xmlns="http://www.w3.org/2000/svg">
<rect width="1760" height="1760" fill="white"/>
<path d="M383.411 993.867C349.506 1032.55 348.636 1079.5 372.109 1125.58C395.582 1171.66 458.61 1191.65 504.251 1168.18C535.983 1151.66 555.978 1119.49 582.928 1095.15C609.878 1070.81 652.477 1056.03 680.297 1079.07C698.118 1093.85 702.465 1118.62 711.593 1139.92C736.37 1196.87 815.047 1228.17 866.339 1192.96C912.415 1161.22 924.586 1090.8 976.313 1068.63C1038.47 1041.68 1100.2 1102.97 1163.22 1127.32C1228.86 1152.53 1308.84 1133.84 1356.22 1082.11C1403.6 1030.38 1415.77 949.094 1385.35 886.064C1356.22 826.077 1294.5 784.347 1275.37 720.447C1265.37 686.541 1268.42 650.462 1263.2 615.252C1254.51 560.481 1222.78 508.753 1174.09 482.237C1125.41 455.721 1061.08 457.46 1018.04 491.8C983.268 519.62 964.142 564.393 927.194 589.605C866.339 630.901 783.315 603.95 711.159 619.164C645.957 633.074 590.318 685.237 572.931 749.571C564.237 781.738 563.368 816.079 550.762 847.377C491.646 994.737 417.75 956.049 384.28 994.302L383.411 993.867Z" fill="#FFF570" stroke="black" stroke-width="20" stroke-miterlimit="10"/>
<path d="M1143.23 772.611C1125.41 743.052 1101.93 710.016 1067.59 709.146C1045.86 708.712 1025.86 721.752 1009.35 735.662C988.048 753.485 968.053 773.915 956.751 799.127C945.449 824.339 942.841 854.768 955.881 879.11C969.791 905.192 998.045 919.536 1025.43 930.838C1076.29 951.269 1131.49 964.744 1185.39 956.05C1191.48 955.181 1197.13 953.877 1202.34 950.834C1213.65 943.444 1216.69 927.361 1212.78 914.755C1208.86 902.149 1164.09 807.386 1143.23 773.046V772.611Z" fill="white" stroke="black" stroke-width="20" stroke-miterlimit="10"/>
<path d="M1077.19 846.752C1087.18 835.719 1087.49 819.72 1077.88 811.019C1068.27 802.317 1052.38 804.208 1042.39 815.241C1032.4 826.275 1032.09 842.273 1041.7 850.975C1051.31 859.676 1067.2 857.786 1077.19 846.752Z" fill="#030005"/>
</svg>
