<svg width="1760" height="1760" viewBox="0 0 1760 1760" fill="none" xmlns="http://www.w3.org/2000/svg">
<g clip-path="url(#clip0_10_129)">
<path d="M1760 0H0V1760H1760V0Z" fill="white"/>
<path d="M400.512 463.158C334.429 490.657 361.483 606.86 361.483 656.092C361.483 729.274 352.613 942.61 386.32 1150.62C391.198 1181.23 405.834 1216.71 436.88 1221.59C459.5 1225.14 480.788 1210.5 498.529 1196.31C561.951 1145.74 621.826 1090.75 677.265 1031.76C700.328 1007.36 722.947 982.084 753.55 967.891C784.152 953.698 824.512 954.585 847.131 979.423C880.395 1015.79 855.558 1072.12 836.931 1117.8C818.303 1163.49 821.407 1233.12 870.638 1240.66C919.424 1248.2 945.148 1184.78 989.056 1162.6C1062.68 1125.79 1137.19 1215.82 1219.24 1227.35C1288.87 1237.11 1354.96 1184.33 1382.01 1120.91C1409.06 1057.48 1405.96 986.076 1399.75 917.329C1393.99 852.131 1382.01 779.836 1329.68 739.031C1298.63 714.637 1257.83 705.767 1218.8 696.896C1171.78 686.695 1123.88 675.164 1083.97 648.552C1044.05 621.94 1014.34 576.257 1020.55 529.687C1025.42 494.648 1071.55 428.563 1036.07 426.345C848.462 414.37 421.801 454.287 400.512 463.158Z" fill="#84FAB0" stroke="black" stroke-width="20" stroke-miterlimit="10"/>
<path d="M447.527 817.091C446.197 837.494 444.866 860.114 450.632 876.968C456.841 895.152 468.372 899.587 479.017 901.805C523.368 912.006 568.607 913.78 613.401 906.684C623.159 905.353 633.36 903.136 642.23 892.491C660.858 869.428 665.293 816.648 667.51 770.965C671.058 699.113 669.728 608.191 639.125 577.587C628.481 566.943 616.063 566.499 604.088 567.386C570.381 569.16 536.23 575.37 502.967 586.458C493.209 589.562 482.565 593.998 475.025 607.747C467.485 621.496 452.406 761.651 448.414 817.091H447.527Z" fill="white" stroke="black" stroke-width="20" stroke-miterlimit="10"/>
<path d="M564.612 779.391C575.879 779.391 585.013 761.321 585.013 739.03C585.013 716.74 575.879 698.669 564.612 698.669C553.344 698.669 544.21 716.74 544.21 739.03C544.21 761.321 553.344 779.391 564.612 779.391Z" fill="black"/>
</g>
<defs>
<clipPath id="clip0_10_129">
<rect width="1760" height="1760" fill="white"/>
</clipPath>
</defs>
</svg>
