<svg width="1760" height="1760" viewBox="0 0 1760 1760" fill="none" xmlns="http://www.w3.org/2000/svg">
<rect width="1760" height="1760" fill="white"/>
<path d="M571.426 606.628C536.522 639.109 499.183 672.944 448.857 685.124C421.665 691.891 389.602 692.568 370.121 710.162C353.075 726.065 353.076 750.425 361.598 770.388C370.121 790.35 386.761 807.267 400.155 825.199C433.435 869.523 451.698 921.627 451.292 974.071C451.292 1048.51 414.765 1122.6 428.564 1196.03C433.435 1221.4 445.205 1247.45 470.368 1262.34C493.907 1276.55 526.376 1278.58 553.975 1270.46C581.573 1262.34 604.3 1245.42 621.346 1225.8C653.815 1187.9 671.673 1135.8 723.216 1118.21C765.425 1104 814.534 1120.24 850.655 1143.58C886.776 1166.93 915.998 1197.38 954.96 1218.02C985.805 1234.6 1028.42 1243.39 1058.45 1225.12C1073.47 1215.99 1082.4 1201.78 1088.49 1186.89C1115.68 1119.22 1086.05 1041.4 1118.93 975.762C1139.22 935.161 1183.46 903.695 1234.59 892.868C1268.28 885.763 1306.03 887.116 1334.44 870.199C1351.08 860.387 1362.44 845.5 1371.37 830.613C1400.59 782.568 1421.29 687.155 1383.54 643.508C1366.9 624.561 1313.33 630.651 1306.03 607.982C1288.57 554.523 1265.44 544.711 1214.3 560.613C1167.63 575.162 1105.53 578.207 1074.69 545.388C1057.64 527.455 1055.61 503.095 1051.15 480.426C1046.68 457.757 1036.54 433.057 1011.78 422.907C976.471 408.696 939.537 418.171 920.056 464.862C907.069 495.652 915.186 532.869 890.835 567.718C836.45 646.214 728.492 578.545 678.978 571.778C644.48 567.042 597.401 582.944 571.832 606.628H571.426Z" fill="#99E6FF" stroke="black" stroke-width="20" stroke-miterlimit="10"/>
<path d="M736.609 757.19C670.86 788.656 672.077 877.98 712.663 931.1C719.157 939.558 726.868 947.678 736.609 953.768C749.19 961.55 765.018 965.272 780.441 967.641C837.261 976.099 900.169 962.904 939.537 927.716C978.905 892.528 989.051 834.671 956.177 795.085C935.884 770.724 902.604 755.498 868.106 748.731C833.608 741.965 791.399 731.138 736.609 757.19Z" fill="white" stroke="black" stroke-width="20" stroke-miterlimit="10"/>
<path d="M833.607 888.467C849.073 888.467 861.61 878.014 861.61 865.121C861.61 852.227 849.073 841.775 833.607 841.775C818.14 841.775 805.603 852.227 805.603 865.121C805.603 878.014 818.14 888.467 833.607 888.467Z" fill="black"/>
</svg>
