<svg width="1760" height="1760" viewBox="0 0 1760 1760" fill="none" xmlns="http://www.w3.org/2000/svg">
<rect width="1760" height="1760" fill="white"/>
<path d="M747.962 496.323C699.133 496.323 679.757 509.892 678.207 565.782C677.044 609.72 678.207 650.103 644.879 684.348C599.926 730.224 510.019 723.762 456.54 762.53C411.199 795.483 403.836 851.05 399.573 901.126C396.86 932.786 394.148 964.77 391.823 996.431C390.272 1015.17 389.497 1035.84 403.061 1050.71C413.136 1061.37 429.413 1067.18 444.914 1070.74C468.553 1076.23 493.743 1077.84 518.157 1075.9C536.371 1074.61 555.36 1071.06 572.799 1075.9C609.226 1085.27 622.79 1122.1 626.278 1154.09C629.766 1186.07 630.928 1221.61 659.217 1243.25C677.819 1257.14 704.171 1261.67 728.973 1263.61C769.663 1266.84 816.942 1262.31 840.969 1234.53C861.895 1209.65 856.47 1176.38 852.595 1146.01C848.719 1115.64 849.882 1080.43 878.946 1061.69C897.935 1049.41 924.288 1048.44 948.315 1048.12C960.715 1048.12 973.504 1048.12 983.58 1054.26C993.656 1060.4 997.918 1071.38 1001.41 1081.4C1009.16 1103.37 1016.91 1125.33 1024.66 1147.63C1031.25 1166.36 1038.61 1186.39 1056.82 1198.67C1092.09 1223.22 1150.6 1204.16 1172.69 1170.56C1194.78 1136.96 1190.52 1095.94 1182.77 1058.14C1180.06 1043.92 1176.96 1028.41 1185.09 1015.81C1197.88 995.785 1231.21 993.2 1257.95 996.107C1284.69 999.015 1311.04 1002.57 1333.91 989.969C1359.1 976.077 1359.48 952.171 1361.03 926.972C1376.53 685.641 1373.82 636.211 1312.59 647.842C1198.66 670.133 1097.13 664.318 1057.6 623.612C1052.17 618.12 1047.52 611.658 1040.55 607.458C1017.29 593.566 987.455 621.35 959.553 625.55C849.107 641.703 846.782 603.582 830.118 562.553C824.305 548.661 814.23 496 748.737 496L747.962 496.323Z" fill="#7968D9" stroke="black" stroke-width="20" stroke-miterlimit="10"/>
<path d="M773.154 975.106C728.588 978.337 685.96 953.783 664.646 921.154C659.608 913.4 655.345 904.678 653.795 895.632C651.47 878.509 660.383 861.71 673.172 848.141C696.036 824.557 732.464 810.665 768.891 811.311C772.767 811.311 777.03 811.957 779.355 814.219C780.905 815.834 781.292 818.095 781.68 820.034C787.88 860.417 790.981 901.447 790.981 942.154C790.981 955.076 789.043 973.491 773.154 974.46V975.106Z" fill="white" stroke="black" stroke-width="20" stroke-miterlimit="10"/>
<path d="M782.198 894.747C783.512 885.893 776.485 877.881 766.502 876.852C756.518 875.823 747.361 882.166 746.047 891.02C744.734 899.873 751.762 907.885 761.745 908.914C771.728 909.944 780.885 903.601 782.198 894.747Z" fill="black"/>
</svg>
