<svg width="1760" height="1760" viewBox="0 0 1760 1760" fill="none" xmlns="http://www.w3.org/2000/svg">
<rect width="1760" height="1760" fill="white"/>
<path d="M526.438 527.029C481.495 518.477 396.006 549.021 372.558 582.008C358.879 601.149 370.115 650.426 369.627 672.825C363.765 852.014 362.787 1001.07 356.437 1179.85C355.46 1215.69 354.483 1252.75 373.047 1284.92C385.748 1306.91 406.753 1324.83 430.69 1339.49C490.288 1376.14 577.242 1391.21 637.329 1355.37C675.432 1332.16 695.462 1293.47 705.72 1255.19C715.979 1216.91 718.91 1177 732.588 1139.12C740.404 1117.13 752.617 1095.55 773.623 1080.89C798.537 1063.78 833.22 1059.3 864.973 1064.19C942.646 1076.41 938.738 1147.68 1046.21 1147.68C1298.28 1147.68 1137.56 942.016 1247.47 847.127C1287.04 812.918 1334.43 794.185 1363.25 753.46C1406.24 692.78 1368.14 625.584 1336.38 560.424C1323.19 533.546 1308.54 495.672 1260.18 478.16C1192.27 453.726 1149.77 476.939 1103.37 509.926C1023.74 566.126 984.169 497.708 938.249 511.147C880.117 527.845 925.06 608.887 775.088 652.462C616.323 698.481 623.651 545.763 525.461 527.029H526.438Z" fill="#424242" stroke="black" stroke-width="20" stroke-miterlimit="10"/>
<path d="M542.071 799.478C489.312 840.61 492.731 948.939 515.203 1016.54C518.622 1027.54 523.508 1037.72 529.37 1045.46C537.186 1055.64 546.956 1060.52 556.726 1063.78C592.876 1075.59 634.399 1060.52 662.244 1017.76C690.089 975.003 700.347 902.512 681.784 852.014C670.548 821.063 649.543 801.107 627.56 792.148C605.577 783.189 575.289 773.414 542.071 799.478Z" fill="white" stroke="black" stroke-width="20" stroke-miterlimit="10"/>
<path d="M615.315 936.812C616.149 920.633 608.74 907.227 598.767 906.87C588.793 906.513 580.033 919.339 579.199 935.518C578.365 951.697 585.774 965.103 595.747 965.46C605.721 965.817 614.481 952.991 615.315 936.812Z" fill="black"/>
</svg>
