<svg width="1760" height="1760" viewBox="0 0 1760 1760" fill="none" xmlns="http://www.w3.org/2000/svg">
<rect width="1760" height="1760" fill="white"/>
<path d="M935.206 364.66C849.153 364.66 810.847 430.844 835.275 526.649C849.709 584.502 860.812 627.082 864.143 686.323C867.474 745.565 859.146 807.122 822.505 857.57C785.863 908.018 715.356 943.193 644.294 943.193C603.766 943.193 561.573 905.704 520.489 926.531C484.958 944.581 501.058 974.202 489.955 1028.82C479.961 1077.87 428.33 1114.44 405.568 1160.26C362.264 1246.81 419.447 1359.27 524.93 1392.13C554.355 1401.39 588.22 1404.63 617.09 1393.52C637.631 1385.65 653.177 1371.31 667.056 1356.5C700.367 1319.47 724.794 1275.04 771.984 1250.05C829.723 1219.04 906.337 1227.83 970.182 1247.73C1034.03 1267.63 1093.99 1299.11 1160.61 1312.07C1227.23 1325.03 1307.73 1314.84 1346.59 1267.63C1390.45 1214.87 1376.57 347.998 1244.99 359.106C1103.98 370.677 1146.17 364.66 934.651 364.66H935.206Z" fill="#FF82C1" stroke="black" stroke-width="20" stroke-miterlimit="10"/>
<path d="M951.861 1011.23C950.196 1023.72 948.531 1037.15 955.748 1047.33C963.52 1058.44 977.955 1061.21 991.279 1062.6C1046.8 1068.62 1103.42 1070.01 1159.5 1065.38C1171.71 1064.45 1184.48 1063.06 1195.58 1056.58C1218.9 1042.7 1224.45 1010.76 1227.23 982.994C1231.67 939.489 1230.01 884.412 1191.7 865.899C1178.37 859.42 1162.83 859.42 1147.84 859.42C1105.65 860.346 1062.9 864.049 1021.26 870.991C1009.04 872.842 995.721 875.619 986.283 883.95C976.845 892.281 957.968 977.441 952.972 1010.76L951.861 1011.23Z" fill="white" stroke="black" stroke-width="20" stroke-miterlimit="10"/>
<path d="M1098.42 988.546C1112.53 988.546 1123.96 977.564 1123.96 964.017C1123.96 950.469 1112.53 939.487 1098.42 939.487C1084.32 939.487 1072.89 950.469 1072.89 964.017C1072.89 977.564 1084.32 988.546 1098.42 988.546Z" fill="black"/>
</svg>
