<svg width="1760" height="1760" viewBox="0 0 1760 1760" fill="none" xmlns="http://www.w3.org/2000/svg">
<rect width="1760" height="1760" fill="white"/>
<path d="M513.032 390.818C494.557 394.199 478.334 403.967 471.575 418.993C464.816 434.02 465.717 450.173 466.618 465.951C478.334 650.777 516.187 835.978 492.304 1020.05C487.798 1055.36 483.742 1096.31 515.285 1119.98C533.31 1133.5 558.094 1137.26 581.526 1141.39C622.983 1148.9 663.539 1159.42 701.391 1175.2C764.929 1202.25 817.2 1244.32 870.824 1283.39C924.448 1322.46 983.028 1360.03 1051.97 1375.43C1120.92 1390.83 1202.93 1378.81 1247.54 1332.6C1283.59 1295.04 1289 1243.95 1291.25 1195.86C1299.36 1029.44 1289.45 563.998 1262.41 563.998C1145.25 563.998 1110.1 558.739 1041.61 523.051C1004.21 503.517 945.627 461.067 909.577 440.03C808.188 380.676 656.78 363.395 513.032 390.442V390.818Z" fill="#FCFFA6" stroke="black" stroke-width="20" stroke-miterlimit="10"/>
<path d="M842.884 741.309C794.217 779.251 797.371 879.178 818.1 941.537C821.254 951.68 825.76 961.072 831.167 968.209C838.377 977.601 847.39 982.108 856.403 985.113C889.749 996.007 928.051 982.109 953.736 942.664C979.421 903.22 988.885 836.352 971.761 789.77C961.397 761.219 942.02 742.812 921.742 734.547C901.465 726.283 873.526 717.266 842.884 741.309Z" fill="white" stroke="black" stroke-width="20" stroke-miterlimit="10"/>
<path d="M910.375 867.757C911.144 852.833 904.31 840.467 895.11 840.138C885.911 839.808 877.83 851.64 877.061 866.564C876.291 881.488 883.126 893.854 892.325 894.183C901.525 894.513 909.606 882.682 910.375 867.757Z" fill="black"/>
</svg>
