<svg width="1760" height="1760" viewBox="0 0 1760 1760" fill="none" xmlns="http://www.w3.org/2000/svg">
<rect width="1760" height="1760" fill="white"/>
<path d="M709.157 367.38C605.973 413.282 629.385 478.339 601.639 497.494C573.892 516.65 534.439 511.59 499.322 511.951C482.847 511.951 464.204 514.843 456.4 526.77C451.632 534.36 452.932 543.757 455.1 552.07C465.505 593.273 493.686 634.837 478.512 674.955C466.806 704.954 432.556 726.277 420.85 756.637C415.214 772.178 415.647 788.805 416.515 805.069C424.318 970.603 432.556 1135.77 440.36 1301.31C440.793 1312.51 441.661 1323.72 446.863 1333.84C458.569 1355.52 489.35 1365.28 517.097 1371.42C566.521 1382.63 623.315 1389.13 665.368 1364.92C695.716 1347.57 711.758 1317.21 719.561 1286.85C727.365 1256.49 727.366 1225.77 734.303 1195.41C742.107 1159.63 759.881 1123.85 794.131 1101.44C828.381 1079.03 880.407 1073.25 915.09 1095.29C945.005 1114.81 954.109 1149.15 957.144 1180.95C960.179 1212.76 958.878 1246.01 976.22 1274.2C994.429 1304.56 1033.45 1325.52 1073.77 1326.61C1114.09 1327.69 1155.27 1309.62 1176.08 1280.71C1193.43 1256.85 1197.33 1227.94 1205.56 1200.83C1213.8 1173.72 1229.41 1145.53 1259.76 1133.24C1286.64 1122.4 1318.72 1127.1 1346.9 1119.87C1399.79 1106.5 1426.67 1051.56 1412.36 1007.11C1398.06 962.651 1350.8 929.399 1299.21 912.412C1270.16 903.015 1238.08 897.232 1214.67 879.884C1202.1 870.848 1192.99 858.921 1185.62 846.271C1119.29 736.036 1165.24 415.089 1096.31 410.39C1035.18 406.415 939.368 434.967 882.14 416.896C851.359 407.137 798.467 327.262 709.157 367.019V367.38Z" fill="#FF3B83" stroke="black" stroke-width="20" stroke-miterlimit="10"/>
<path d="M773.321 649.294C726.498 685.798 729.532 781.939 749.475 841.936C752.51 851.694 756.846 860.729 762.049 867.597C768.985 876.632 777.656 880.97 786.327 883.861C818.409 894.343 855.261 880.97 879.973 843.02C904.685 805.07 913.789 740.736 897.314 695.919C887.343 668.45 868.701 650.74 849.191 642.789C829.682 634.838 802.802 626.163 773.321 649.294Z" fill="white" stroke="black" stroke-width="20" stroke-miterlimit="10"/>
<path d="M838.139 770.581C838.878 756.223 832.303 744.326 823.452 744.009C814.601 743.692 806.825 755.075 806.085 769.433C805.345 783.792 811.921 795.689 820.773 796.006C829.624 796.323 837.399 784.94 838.139 770.581Z" fill="black"/>
</svg>
