<svg width="1760" height="1760" viewBox="0 0 1760 1760" fill="none" xmlns="http://www.w3.org/2000/svg">
<rect width="1760" height="1760" fill="white"/>
<path d="M687.079 401.687C646.478 404.649 608.922 419.034 582.532 445.265C556.141 471.497 534.826 502.383 499.3 519.306C476.462 530.307 449.057 534.961 431.294 551.038C409.471 570.924 410.485 601.387 413.023 628.465C419.113 694.467 428.248 765.969 484.074 812.932C540.408 859.895 631.253 869.627 684.034 919.129C712.455 945.783 727.681 983.015 720.069 1018.13C690.125 1161.14 541.932 1085.4 491.688 1159.44C480.523 1175.52 466.312 1283.41 386.632 1337.14C312.028 1387.49 541.931 1436.57 642.926 1356.61C661.704 1341.37 677.945 1323.18 700.783 1312.6C754.072 1287.64 821.063 1312.6 871.306 1341.8C921.55 1370.99 974.332 1406.95 1035.23 1403.57C1072.79 1401.45 1106.79 1384.53 1136.23 1365.07C1162.62 1347.3 1188 1326.14 1199.16 1299.49C1234.69 1216.14 1124.56 1125.6 1158.56 1041.82C1175.31 1000.78 1221.49 974.553 1260.57 945.36C1306.25 911.09 1344.31 870.049 1371.71 824.355C1400.64 776.123 1417.9 717.313 1389.48 668.658C1379.84 652.58 1366.13 638.618 1358.52 622.117C1341.26 583.616 1362.07 541.307 1380.34 503.229C1398.61 465.151 1414.85 420.303 1389.98 384.764C1368.67 354.301 1322.49 340.762 1280.36 343.3C1238.24 345.839 1201.19 365.725 1160.59 375.879C1014.43 411.842 1119.99 576.423 940.835 570.5C743.413 563.731 784.522 395.341 687.079 402.534V401.687Z" fill="#5CFF37" stroke="black" stroke-width="20" stroke-miterlimit="10"/>
<path d="M855.07 856.087C853.547 866.664 852.532 878.511 857.607 887.396C863.189 897.127 873.848 899.243 883.49 900.512C924.091 906.012 965.199 906.858 1006.31 903.051C1015.44 902.204 1024.58 900.935 1032.7 895.435C1049.95 883.589 1054.01 855.665 1056.04 831.971C1059.09 794.316 1058.07 746.929 1029.65 730.852C1020.01 725.352 1008.34 725.352 997.681 725.352C966.722 726.198 935.764 729.583 905.313 735.507C896.178 737.199 886.535 739.314 879.937 746.93C873.34 754.545 859.129 827.74 855.576 856.51L855.07 856.087Z" fill="white" stroke="black" stroke-width="20" stroke-miterlimit="10"/>
<path d="M962.154 836.625C972.524 836.625 980.931 827.154 980.931 815.47C980.931 803.787 972.524 794.316 962.154 794.316C951.783 794.316 943.376 803.787 943.376 815.47C943.376 827.154 951.783 836.625 962.154 836.625Z" fill="black"/>
</svg>
