<svg width="1760" height="1760" viewBox="0 0 1760 1760" fill="none" xmlns="http://www.w3.org/2000/svg">
<rect width="1760" height="1760" fill="white"/>
<path d="M773.715 404.51C727.086 384.198 673.315 407.662 643.489 444.084C630.046 460.543 622.065 480.855 604.001 493.812C587.197 506.069 562.413 511.323 552.331 527.782C538.889 548.795 557.372 574.01 559.472 597.824C563.253 638.448 519.144 673.118 518.724 713.742C518.304 747.011 546.03 775.728 556.112 807.947C574.176 867.132 528.806 925.967 481.337 972.545C433.867 1019.12 378.416 1066.75 371.694 1127.69C366.233 1175.66 393.539 1223.64 434.288 1257.96C475.036 1292.28 528.386 1314.7 582.157 1332.21C672.475 1361.62 775.816 1378.43 864.454 1345.51C919.485 1325.2 964.014 1285.98 985.438 1239.4C1002.24 1202.98 1005.18 1163.41 1013.58 1125.23C1021.98 1087.06 1036.69 1047.49 1070.72 1020.87C1127.43 976.748 1218.17 982.351 1284.96 949.782C1330.75 927.368 1362.25 888.145 1377.38 845.42C1392.5 802.695 1391.24 757.518 1382.84 713.742C1376.54 682.223 1370.24 652.106 1338.31 634.596C1292.52 609.731 1228.25 619.537 1184.98 637.748C1085.42 679.772 1095.92 606.929 1077.86 621.988C1019.47 670.667 867.815 748.062 818.665 617.435C794.3 552.647 885.039 452.488 774.556 404.51H773.715Z" fill="#442FBD" stroke="black" stroke-width="20" stroke-miterlimit="10"/>
<path d="M706.92 1026.12C691.377 1041.18 674.574 1059.74 680.875 1078.66C684.656 1090.56 697.258 1098.97 709.441 1105.62C724.984 1114.03 742.207 1121.38 760.691 1123.13C779.175 1124.88 799.339 1120.68 812.362 1109.47C826.225 1097.22 830.005 1079.36 832.106 1062.55C835.466 1031.38 832.945 999.158 816.982 971.142C815.302 967.99 813.201 965.188 810.261 963.087C803.119 958.184 792.198 959.585 784.636 963.788C777.074 967.99 724.984 1009.31 706.92 1026.47V1026.12Z" fill="white" stroke="black" stroke-width="20" stroke-miterlimit="10"/>
<path d="M755.037 1100.2C758.713 1093.51 754.342 1085.29 745.274 1081.82C736.206 1078.35 725.876 1080.96 722.2 1087.64C718.525 1094.32 722.896 1102.55 731.963 1106.01C741.031 1109.48 751.362 1106.88 755.037 1100.2Z" fill="#030005"/>
</svg>
