<svg width="1760" height="1760" viewBox="0 0 1760 1760" fill="none" xmlns="http://www.w3.org/2000/svg">
<rect width="1760" height="1760" fill="white"/>
<path d="M1181.11 543.962C1124.9 573.628 1088.65 547.843 1053.73 571.965C1039.1 582.224 1033.78 598.582 1024.8 612.445C1009.83 635.18 983.555 652.647 953.29 659.024C921.695 665.956 889.434 654.865 863.826 672.056C804.958 711.704 872.14 771.869 812.94 809.3C760.392 842.293 723.808 810.686 684.563 809.022C674.918 808.467 659.953 913.272 576.142 946.82C542.218 960.406 504.636 966.506 470.713 979.814C415.504 1002 375.926 1049.41 370.605 1100.42C367.612 1128.98 375.594 1159.48 397.544 1181.66C427.144 1211.6 477.364 1222.42 523.926 1222.97C558.182 1223.53 593.768 1219.37 622.037 1203.56C652.968 1186.37 671.925 1157.82 699.197 1137.02C724.14 1117.89 756.734 1105.14 790.657 1105.41C824.58 1105.69 858.504 1121.22 873.47 1146.45C899.411 1189.7 867.483 1251.53 909.056 1285.63C923.69 1297.55 944.31 1302.82 964.265 1305.32C997.856 1309.75 1033.77 1308.09 1064.7 1295.89C1095.63 1283.69 1120.91 1260.12 1127.23 1232.12C1135.21 1195.8 1111.27 1160.86 1094.31 1127.04C1077.34 1093.21 1069.36 1048.85 1100.96 1023.34C1124.24 1004.77 1159.49 1003.38 1188.76 992.291C1230.66 976.487 1258.27 937.671 1255.28 899.687C1253.28 871.961 1236.65 846.175 1234.32 818.449C1232.33 794.327 1240.97 770.761 1250.62 748.025C1276.56 687.305 1311.15 629.358 1353.39 575.57C1365.36 560.32 1378.33 544.793 1384.98 527.326C1391.63 509.858 1390.97 489.341 1377.67 474.647C1355.71 450.802 1317.47 441.93 1278.89 467.161C1259.27 479.915 1222.35 522.335 1181.44 543.962H1181.11Z" fill="#B0FCA4" stroke="black" stroke-width="20" stroke-miterlimit="10"/>
<path d="M1053.73 848.949C1061.71 880.002 1041.09 912.997 1010.16 931.85C1002.51 936.286 994.53 940.445 985.217 942.109C967.923 945.436 949.631 941 934.665 933.236C908.059 919.373 890.099 894.974 886.773 869.189C886.773 866.417 886.441 863.367 888.769 861.426C890.432 860.04 892.427 859.762 894.755 859.207C935.663 850.612 976.903 844.236 1018.48 839.8C1031.45 838.413 1050.74 837.581 1053.73 848.949Z" fill="white" stroke="black" stroke-width="20" stroke-miterlimit="10"/>
<path d="M1005.17 935.453C1015.64 935.453 1024.13 928.998 1024.13 921.036C1024.13 913.073 1015.64 906.619 1005.17 906.619C994.704 906.619 986.217 913.073 986.217 921.036C986.217 928.998 994.704 935.453 1005.17 935.453Z" fill="black"/>
</svg>
