<svg width="1760" height="1760" viewBox="0 0 1760 1760" fill="none" xmlns="http://www.w3.org/2000/svg">
<rect width="1760" height="1760" fill="white"/>
<path d="M755.398 592.783C694.8 583.334 678.671 541.54 634.64 553.533C616.33 558.621 602.379 590.24 593.66 604.413C557.912 660.382 544.397 725.437 555.296 788.311C563.579 834.831 583.198 886.438 552.245 925.689C512.138 976.57 410.996 971.845 371.325 1023.09C346.039 1055.8 356.503 1099.05 370.89 1136.12C384.404 1171.01 400.534 1205.17 419.716 1237.88C430.179 1255.69 441.949 1274.22 462.003 1284.76C477.261 1292.76 496.007 1295.3 513.881 1297.48C585.813 1305.48 669.08 1300.39 741.448 1296.03C792.454 1293.12 873.541 1285.85 887.927 1245.15C914.956 1166.65 914.085 1130.67 979.477 1100.5C1052.72 1066.7 1140.78 1133.21 1223.17 1122.31C1265.03 1116.86 1301.21 1090.69 1318.65 1058.34C1336.09 1026 1336.52 988.563 1325.62 954.037C1314.29 918.784 1292.05 886.438 1282.46 850.822C1258.05 759.6 1320.83 669.832 1374.45 587.696C1392.32 560.075 1410.2 529.183 1401.91 498.654C1390.58 454.679 1333.03 431.782 1281.59 417.972C1236.69 405.978 1189.17 395.439 1142.52 401.254C1095.88 407.069 1049.67 432.873 1038.33 471.397C1028.3 505.196 1030.92 570.977 985.145 589.149C911.905 618.223 831.254 603.687 755.834 592.057L755.398 592.783Z" fill="#E6E1E1" stroke="black" stroke-width="20" stroke-miterlimit="10"/>
<path d="M836.051 806.484C790.276 828.29 791.148 890.074 819.484 926.781C823.844 932.596 829.511 938.41 836.051 942.408C844.77 947.86 855.669 950.404 866.568 951.858C906.239 957.673 949.835 948.586 977.3 924.236C1004.76 899.886 1011.74 859.909 989.07 832.288C975.12 815.57 952.014 804.668 927.601 800.306C903.187 795.945 873.978 787.949 836.051 806.12V806.484Z" fill="white" stroke="black" stroke-width="20" stroke-miterlimit="10"/>
<path d="M974.245 890.801C985.08 890.801 993.862 883.478 993.862 874.446C993.862 865.413 985.08 858.092 974.245 858.092C963.411 858.092 954.627 865.413 954.627 874.446C954.627 883.478 963.411 890.801 974.245 890.801Z" fill="black"/>
</svg>
