<svg width="1760" height="1760" viewBox="0 0 1760 1760" fill="none" xmlns="http://www.w3.org/2000/svg">
<g clip-path="url(#clip0_10_152)">
<path d="M1760 0H0V1760H1760V0Z" fill="white"/>
<path d="M1000.03 594.341C978.158 563.151 972.421 521.204 985.328 485.353C991.064 469.22 1000.03 450.577 990.705 436.595C979.95 419.745 954.855 424.405 934.778 423.33C893.192 421.537 859.85 387.837 819.698 377.44C756.601 360.948 691.712 406.121 659.088 462.408C626.464 518.695 617.501 585.02 600.293 647.76C583.085 710.5 553.687 775.391 496.685 807.299C481.986 815.545 464.419 822.357 457.249 837.773C447.211 858.925 462.627 882.587 473.741 903.381C542.215 1028.5 472.306 1182.66 481.986 1324.99C483.062 1342.56 486.289 1361.56 499.195 1373.75C514.969 1388.81 541.14 1388.09 560.858 1378.41C580.575 1368.73 595.632 1351.88 611.048 1336.11C646.899 1300.26 688.844 1268.35 737.242 1254.01C785.64 1239.67 842.284 1244.33 882.436 1275.52C898.569 1288.07 912.192 1304.92 931.193 1312.45C963.458 1325.35 1000.74 1307.07 1024.76 1281.61C1048.78 1256.16 1065.27 1224.61 1089.65 1199.87C1126.94 1161.87 1178.92 1143.59 1224.09 1115.62C1269.26 1087.66 1311.21 1041.41 1305.47 988.707C1298.66 927.76 1233.41 892.267 1174.62 875.417C1115.82 858.566 1049.14 845.301 1013.29 795.468C974.931 742.408 987.12 669.988 1000.03 595.058V594.341Z" fill="#99E6FF" stroke="black" stroke-width="20" stroke-miterlimit="10"/>
<path d="M720.094 627C706.112 651.738 684.539 694.007 698.162 719.103C706.766 734.878 723.975 743.841 740.825 750.294C762.335 758.54 784.921 764.276 807.865 762.484C830.81 760.691 853.395 749.936 865.585 730.576C878.491 710.141 877.415 683.611 874.188 659.59C868.094 614.776 855.546 569.603 827.583 534.468C824.356 530.525 821.13 526.94 816.828 524.43C806.79 519.411 794.242 523.713 786.355 531.6C778.468 539.488 728.994 610.474 712.861 639.155L720.094 627Z" fill="white" stroke="black" stroke-width="20" stroke-miterlimit="10"/>
<path d="M810.863 680.057C813.208 669.626 805.4 658.986 793.424 656.293C781.447 653.601 769.836 659.875 767.491 670.307C765.146 680.738 772.954 691.378 784.931 694.07C796.908 696.763 808.518 690.489 810.863 680.057Z" fill="#030005"/>
</g>
<defs>
<clipPath id="clip0_10_152">
<rect width="1760" height="1760" fill="white"/>
</clipPath>
</defs>
</svg>
