<svg width="1760" height="1760" viewBox="0 0 1760 1760" fill="none" xmlns="http://www.w3.org/2000/svg">
<rect width="1760" height="1760" fill="white"/>
<path d="M1085.02 417C1060.99 417.626 1035.09 421.069 1018.95 436.091C1002.8 450.801 1001.3 472.709 999.426 493.052C995.672 532.172 986.662 573.17 955.878 602.902C925.094 632.634 866.529 645.153 830.114 620.428C818.101 612.291 807.214 599.773 791.822 599.147C774.553 598.521 762.165 612.292 754.281 625.123C733.258 660.489 725.374 701.173 731.756 740.607C741.141 798.506 780.56 856.718 758.786 912.426C741.141 957.807 680.324 988.477 624.012 980.027C590.976 975.02 560.943 958.745 527.156 956.867C484.734 954.363 444.189 976.897 422.039 1006.63C399.89 1036.36 386 1080.8 386 1116.17C386 1141.52 396.137 1160.3 413.406 1181.26C428.798 1199.73 452.823 1211.62 477.225 1221.01C535.79 1243.86 601.112 1256.38 665.308 1251.06C729.504 1245.74 792.948 1221.32 833.868 1179.7C850.387 1162.8 863.151 1143.4 879.669 1126.5C913.081 1091.76 962.636 1067.34 1015.94 1064.22C1069.25 1061.09 1124.44 1081.43 1154.1 1118.36C1170.24 1138.7 1178.5 1163.11 1195.77 1182.52C1223.92 1213.81 1276.11 1228.21 1321.16 1217.26C1366.21 1206.3 1400.74 1170.62 1404.12 1131.5C1407.5 1093.32 1383.47 1057.02 1354.19 1027.28C1324.91 997.553 1290 972.203 1264.09 940.28C1238.19 908.357 1222.8 867.672 1238.56 831.681C1249.83 806.017 1274.98 786.927 1300.13 769.401C1325.29 751.874 1351.94 734.661 1367.71 710.876C1383.47 687.09 1385.35 654.542 1362.83 634.825C1354.94 627.94 1344.81 623.245 1335.42 617.612C1299.01 595.078 1277.98 556.271 1282.11 518.402C1283.99 499.937 1291.87 480.845 1285.12 463.319C1273.85 432.962 1111.68 416.688 1085.4 417.627L1085.02 417Z" fill="#3EC790" stroke="black" stroke-width="20" stroke-miterlimit="10"/>
<path d="M1049.73 882.067C1092.16 868.923 1101.54 816.032 1083.52 781.605C1080.52 775.972 1077.14 770.651 1071.88 766.269C1065.13 760.636 1056.49 757.193 1047.48 754.69C1014.82 745.301 976.154 748.118 949.124 765.644C922.095 783.17 909.33 816.657 924.347 842.32C933.357 858.281 951.377 869.862 971.274 876.434C991.171 883.006 1014.82 892.708 1049.73 881.754V882.067Z" fill="white" stroke="black" stroke-width="20" stroke-miterlimit="10"/>
<path d="M958.782 809.728C960.217 802.217 954.077 795.159 945.068 793.963C936.059 792.767 927.592 797.885 926.157 805.396C924.722 812.907 930.862 819.965 939.871 821.161C948.88 822.357 957.347 817.239 958.782 809.728Z" fill="black"/>
</svg>
