<svg width="1760" height="1760" viewBox="0 0 1760 1760" fill="none" xmlns="http://www.w3.org/2000/svg">
<rect width="1760" height="1760" fill="white"/>
<path d="M1034.08 1325.61C629.732 1325.61 638.995 1324.84 545.896 1271.94C494.483 1242.59 429.176 1188.92 402.775 1142.2C376.374 1095.48 366.184 1045.28 402.775 1003.58C426.86 976.549 482.442 937.549 513.475 915.54C544.507 893.531 565.349 851.056 558.401 817.849C549.138 774.602 494.483 764.562 467.619 726.722C433.807 679.227 443.072 662.238 446.777 588.487C449.093 539.062 409.722 547.943 413.89 541.379C427.323 519.37 459.745 474.193 473.177 452.183C480.125 440.599 487.535 429.015 499.115 420.134C512.084 410.094 529.222 404.689 546.36 400.442C587.582 389.63 632.974 368.393 673.733 380.749C748.305 403.144 745.526 441.371 771.927 459.133C808.518 483.846 860.857 491.182 905.322 478.053C955.345 463.38 1001.66 423.995 1053.08 435.965C1097.08 446.391 1147.56 468.786 1138.76 527.478C1122.55 634.05 1050.3 674.981 1070.68 746.801C1118.38 916.312 1347.19 692.743 1379.15 855.304C1406.02 990.449 1236.03 888.124 1158.22 983.498C1141.08 1004.35 1141.08 1033.31 1152.19 1056.86C1162.38 1078.1 1205 1136.02 1321.25 1110.92C1335.15 1107.83 1417.13 1305.92 1033.62 1325.22L1034.08 1325.61Z" fill="#FFE0F6" stroke="black" stroke-width="20" stroke-miterlimit="10"/>
<path d="M709.396 1087.75C708.006 1103.2 707.08 1120.57 712.175 1133.32C717.733 1147.22 727.923 1150.69 737.187 1152.62C776.557 1160.35 816.853 1161.89 856.223 1156.48C865.024 1155.33 873.824 1153.78 881.698 1145.67C898.372 1127.91 902.078 1087.75 903.931 1052.61C907.173 997.398 905.783 927.895 878.455 904.727C868.728 896.619 858.076 896.232 847.423 896.618C817.317 897.776 787.21 902.796 757.567 911.291C748.766 913.994 739.502 917.082 732.555 927.894C725.607 938.706 712.638 1046.05 708.932 1088.14L709.396 1087.75Z" fill="white" stroke="black" stroke-width="20" stroke-miterlimit="10"/>
<path d="M880.311 1064.58C896.171 1064.58 909.028 1050.75 909.028 1033.69C909.028 1016.63 896.171 1002.8 880.311 1002.8C864.452 1002.8 851.595 1016.63 851.595 1033.69C851.595 1050.75 864.452 1064.58 880.311 1064.58Z" fill="black"/>
</svg>
