<svg width="1760" height="1760" viewBox="0 0 1760 1760" fill="none" xmlns="http://www.w3.org/2000/svg">
<rect width="1760" height="1760" fill="white"/>
<path d="M887.356 582.47C864.292 569.773 832.526 585.009 814.684 602.423C796.842 619.836 785.528 641.24 767.251 658.291C735.484 687.313 685.004 698.197 637.571 696.384C623.211 696.021 608.415 694.569 595.795 700.374C574.037 710.894 573.602 737.015 579.259 757.33C584.916 777.646 593.619 800.501 581.434 818.64C572.296 832.426 553.149 839.318 534.437 841.857C515.725 844.397 496.578 842.584 477.866 843.672C448.274 845.123 418.682 853.467 396.488 869.429C374.295 885.391 360.37 910.423 363.417 934.729C366.463 959.035 385.61 980.44 409.98 993.5C434.349 1006.56 463.939 1012 493.095 1013.45C518.77 1014.54 545.316 1012.73 568.38 1003.29C611.896 985.881 636.265 946.701 675.43 922.758C711.549 900.628 760.724 893.372 802.935 906.795C845.146 920.218 876.477 954.319 878.218 991.686C881.264 1057.71 798.148 1109.23 796.842 1175.25C795.972 1211.89 822.518 1246.72 858.636 1267.4C894.755 1288.08 940.011 1296.42 983.963 1297.15C1038.79 1297.87 1097.54 1285.54 1132.36 1249.98C1181.53 1199.2 1163.25 1124.46 1184.58 1061.7C1187.19 1054.08 1190.67 1046.1 1198.07 1040.66C1209.82 1032.32 1227.22 1033.77 1242.45 1034.49C1273.35 1036.31 1304.25 1034.86 1334.71 1030.14C1356.03 1026.88 1379.53 1020.35 1389.97 1004.02C1395.63 994.95 1396.07 984.067 1396.5 973.547C1399.11 864.713 1397.37 755.879 1391.28 647.045C1389.97 621.65 1382.58 590.088 1352.98 584.284C1339.49 581.381 1325.57 585.373 1311.64 586.461C1266.82 589.726 1227.22 562.155 1182.4 557.801C1136.27 553.448 1088.4 567.234 1050.54 589.363C999.629 619.111 984.398 635.799 887.356 582.47Z" fill="#FCFFA6" stroke="black" stroke-width="20" stroke-miterlimit="10"/>
<path d="M1095.37 796.147C1082.75 795.784 1068.82 795.421 1058.38 797.235C1047.07 799.049 1044.45 803.04 1042.71 806.305C1036.19 820.816 1035.31 835.689 1039.67 850.201C1040.54 853.466 1041.84 856.731 1048.37 859.633C1062.73 865.801 1095.37 867.251 1123.65 867.976C1168.04 869.065 1224.61 868.703 1243.33 858.545C1249.85 854.917 1250.29 850.926 1249.85 846.936C1248.98 835.69 1245.07 824.806 1238.1 813.923C1235.93 810.658 1233.32 807.393 1224.61 804.853C1215.91 802.314 1129.31 797.598 1094.93 796.147H1095.37Z" fill="white" stroke="black" stroke-width="20" stroke-miterlimit="10"/>
<path d="M1129.74 829.161C1139.84 829.161 1148.02 822.502 1148.02 814.288C1148.02 806.073 1139.84 799.414 1129.74 799.414C1119.65 799.414 1111.47 806.073 1111.47 814.288C1111.47 822.502 1119.65 829.161 1129.74 829.161Z" fill="black"/>
</svg>
