<svg width="1760" height="1760" viewBox="0 0 1760 1760" fill="none" xmlns="http://www.w3.org/2000/svg">
<rect width="1760" height="1760" fill="white"/>
<path d="M794.837 411.125C742.348 404.216 699.803 446.593 654.497 469.624C621.346 486.666 584.328 499.563 546.204 506.933C522.998 511.539 498.136 514.762 479.903 527.659C450.067 548.848 450.067 586.618 451.724 619.322C459.46 785.141 435.701 950.96 425.203 1116.32C421.335 1176.66 419.677 1239.3 445.646 1295.5C471.614 1351.69 531.839 1401.9 604.771 1404.2C667.205 1406.5 728.535 1370.11 746.768 1320.37C766.659 1266.48 740.137 1200.61 782.128 1155.93C816.937 1118.62 882.135 1115.4 938.492 1116.32C1045.13 1118.16 1151.21 1124.61 1257.29 1135.2C1297.63 1139.35 1346.8 1140.73 1369.45 1112.63C1381.06 1098.82 1382.16 1080.85 1383.27 1063.81C1389.34 944.512 1395.42 824.753 1401.5 705.456C1403.71 658.013 1406.47 610.109 1399.84 562.666C1393.77 519.369 1369.45 507.853 1377.19 442.446C1391 329.597 1154.53 295.974 1145.13 459.49C1140.16 543.782 1161.71 646.497 1016.4 666.303C918.601 679.661 874.952 627.152 857.271 498.181C853.404 471.005 853.957 418.035 795.39 410.205L794.837 411.125Z" fill="#FFD58C" stroke="black" stroke-width="20" stroke-miterlimit="10"/>
<path d="M999.82 865.287C983.797 864.827 966.118 864.366 952.857 866.669C938.492 868.972 935.176 874.039 932.966 878.184C924.678 896.609 923.573 915.493 929.098 933.918C930.203 938.063 931.861 942.209 940.149 945.894C958.382 953.724 999.821 955.566 1035.73 956.487C1092.09 957.869 1163.92 957.409 1187.68 944.512C1195.96 939.906 1196.52 934.839 1195.96 929.772C1194.86 915.493 1189.89 901.675 1181.05 887.857C1178.28 883.711 1174.97 879.566 1163.92 876.341C1152.87 873.117 1042.92 867.13 999.268 865.287H999.82Z" fill="white" stroke="black" stroke-width="20" stroke-miterlimit="10"/>
<path d="M1043.47 907.205C1056.28 907.205 1066.67 898.75 1066.67 888.32C1066.67 877.89 1056.28 869.435 1043.47 869.435C1030.65 869.435 1020.26 877.89 1020.26 888.32C1020.26 898.75 1030.65 907.205 1043.47 907.205Z" fill="black"/>
</svg>
