<svg width="1760" height="1760" viewBox="0 0 1760 1760" fill="none" xmlns="http://www.w3.org/2000/svg">
<rect width="1760" height="1760" fill="white"/>
<path d="M629.523 450.847C558.828 447.302 486.539 430.906 418.503 446.859C407.872 449.517 397.242 452.62 390.863 460.153C385.016 467.243 384.485 476.548 384.485 484.968C381.296 702.096 378.638 919.223 380.764 1136.35C380.764 1179.33 382.89 1225.42 414.251 1259.1C456.774 1305.18 535.973 1311.83 605.604 1314.49C652.911 1316.26 700.217 1318.03 747.524 1319.8C822.47 1322.46 910.706 1320.69 955.355 1270.62C1007.98 1211.68 967.049 1126.16 990.436 1055.71C995.22 1041.53 1002.66 1027.79 1016.48 1018.93C1029.24 1010.51 1045.18 1006.96 1061.13 1005.63C1128.63 998.986 1196.14 1021.58 1263.11 1015.82C1310.95 1011.84 1358.79 991.895 1384.84 957.775C1410.88 923.655 1411.41 875.799 1380.05 845.224C1365.17 830.601 1344.97 820.851 1329.56 807.115C1292.88 774.324 1289.16 725.138 1287.56 679.94C1285.44 627.209 1283.31 574.477 1281.19 521.746C1280.12 497.817 1275.87 469.015 1250.36 457.937C1233.35 450.404 1213.15 457.937 1193.48 457.937C1020.2 457.937 917.085 465.47 628.992 450.847H629.523Z" fill="#FF6640" stroke="black" stroke-width="20" stroke-miterlimit="10"/>
<path d="M669.917 648.482C658.755 648.482 649.719 655.128 649.719 664.434C649.719 691.021 650.782 742.422 661.945 770.782C677.891 810.219 711.909 846.112 759.747 858.076C776.756 862.508 794.296 863.395 811.837 863.395C844.26 862.952 877.747 857.191 903.261 840.795C927.712 825.286 943.658 801.801 952.163 777.43C959.073 757.489 963.325 690.135 964.919 666.206C964.919 661.332 960.668 657.344 954.29 656.901L669.917 648.482Z" fill="white" stroke="black" stroke-width="20" stroke-miterlimit="10"/>
<path d="M892.101 813.762C900.907 813.762 908.048 807.811 908.048 800.469C908.048 793.127 900.907 787.176 892.101 787.176C883.294 787.176 876.155 793.127 876.155 800.469C876.155 807.811 883.294 813.762 892.101 813.762Z" fill="black" stroke="black" stroke-width="20" stroke-miterlimit="10"/>
</svg>
