<svg width="1760" height="1760" viewBox="0 0 1760 1760" fill="none" xmlns="http://www.w3.org/2000/svg">
<rect width="1760" height="1760" fill="white"/>
<path d="M780.164 411.04C764.156 378.689 689.455 355.235 624.94 390.821C523.075 447.839 515.315 417.509 478.449 453.5C460.502 471.292 444.009 508.9 430.912 538.016C422.18 557.83 414.42 579.263 417.815 600.291C422.181 626.98 444.01 649.222 456.136 673.889C492.032 744.252 452.74 829.577 487.18 900.344C501.732 930.268 528.412 954.936 546.845 983.647C565.277 1012.36 574.979 1048.35 554.606 1075.85C536.658 1100.11 523.561 1107.39 480.39 1134.48C457.592 1148.63 462.442 1179.37 461.471 1203.63C460.016 1240.43 458.076 1277.23 456.62 1314.03C455.65 1332.63 455.166 1352.44 466.808 1368.21C480.875 1387.62 510.465 1396.12 538.114 1396.52C565.763 1396.93 592.441 1390.05 619.12 1385.6C693.821 1374.28 631.732 1087.17 905.797 1260.24C1034.34 1341.53 1269.6 1459.2 1302.59 1374.68C1321.02 1327.78 1178.41 1176.54 1166.28 1122.75C1155.12 1074.63 1182.29 1016.81 1238.56 1004.27C1269.6 997.395 1309.38 1002.25 1327.81 980.411C1335.57 970.706 1337.03 958.575 1337.51 946.848C1346.24 819.467 1346.24 691.681 1337.03 564.705C1335.09 534.781 1321.02 495.96 1285.12 497.174C1272.03 497.174 1260.38 504.048 1249.23 509.709C1170.65 551.765 1079.45 584.52 986.319 578.859C893.185 573.197 836.433 526.694 779.194 411.445L780.164 411.04Z" fill="#FF3B83" stroke="black" stroke-width="20" stroke-miterlimit="10"/>
<path d="M975.648 818.655C904.827 730.095 767.552 783.475 740.388 855.051C695.276 974.344 870.387 986.474 933.447 965.446C1016.39 937.14 1004.75 855.05 975.648 818.655Z" fill="white" stroke="black" stroke-width="20" stroke-miterlimit="10"/>
<path d="M949.453 891.445C963.92 891.445 975.647 883.115 975.647 872.842C975.647 862.569 963.92 854.241 949.453 854.241C934.987 854.241 923.259 862.569 923.259 872.842C923.259 883.115 934.987 891.445 949.453 891.445Z" fill="black"/>
</svg>
