<svg width="1760" height="1760" viewBox="0 0 1760 1760" fill="none" xmlns="http://www.w3.org/2000/svg">
<rect width="1760" height="1760" fill="white"/>
<path d="M657.562 474.083L565.328 473C554.07 473 541.944 472.999 532.418 478.053C518.128 485.634 514.664 501.88 512.499 515.958C499.076 614.87 495.179 714.864 500.808 814.138C504.272 875.506 476.558 880.561 458.371 883.81C406.409 893.557 362.674 875.868 338.424 948.067C320.237 1001.85 408.573 1094.63 463.134 1199.32C471.794 1215.56 486.517 1229.28 502.539 1240.83C537.181 1265.74 585.68 1271.52 631.147 1276.57C651.932 1278.74 674.45 1280.9 693.503 1273.68C706.926 1268.27 717.319 1258.88 727.712 1249.86C767.117 1215.56 822.11 1181.63 877.104 1195.71C931.665 1209.79 955.049 1263.21 998.785 1293.9C1039.06 1322.05 1094.48 1329.27 1146.88 1331.08C1192.35 1332.52 1239.98 1330 1278.52 1310.14C1317.06 1290.29 1342.6 1248.41 1325.28 1213.4C1318.35 1199.32 1305.36 1187.77 1293.67 1175.49C1273.32 1153.83 1257.3 1128.2 1252.97 1100.77C1244.31 1045.17 1284.58 992.829 1326.15 948.788C1367.72 904.747 1414.49 859.262 1422.71 803.308C1426.18 780.566 1422.71 757.101 1419.25 734.358C1415.35 706.923 1411.02 679.488 1407.13 652.052C1405.83 643.388 1404.09 634.364 1396.73 628.588C1390.24 623.534 1381.14 622.45 1372.05 621.368C1343.47 618.48 1301.47 627.866 1278.08 613.787C1256 600.43 1226.55 554.584 1206.64 539.423C1161.17 505.128 1107.47 519.929 1074.13 563.248C1023.9 628.588 1023.03 832.188 898.323 813.777C761.055 793.562 800.893 645.915 783.139 600.069C765.385 554.223 742.001 476.249 657.994 475.166L657.562 474.083Z" fill="#FFE0F6" stroke="black" stroke-width="20" stroke-miterlimit="10"/>
<path d="M970.635 962.866C977.563 973.335 970.636 997.883 955.48 1014.49C932.53 1040.48 889.227 1052.39 851.987 1042.65C814.747 1032.9 787.467 1002.58 786.168 970.448C786.168 968.643 786.167 966.838 787.034 965.033C788.333 962.867 791.364 961.783 794.396 961.061C855.452 943.012 960.243 947.343 970.203 962.866H970.635Z" fill="#FAFCFF" stroke="black" stroke-width="20" stroke-miterlimit="10"/>
<path d="M880.136 997.523C886.115 997.523 890.962 993.482 890.962 988.498C890.962 983.514 886.115 979.473 880.136 979.473C874.157 979.473 869.311 983.514 869.311 988.498C869.311 993.482 874.157 997.523 880.136 997.523Z" fill="black" stroke="black" stroke-width="20" stroke-miterlimit="10"/>
</svg>
