<svg width="1760" height="1760" viewBox="0 0 1760 1760" fill="none" xmlns="http://www.w3.org/2000/svg">
<rect width="1760" height="1760" fill="white"/>
<path d="M783.071 625.955C721.338 638.603 652.802 615.923 595.777 640.347C558.109 656.484 542.415 693.12 523.058 724.086C465.51 814.803 350.413 883.714 336.288 985.77C329.487 1035.49 349.889 1087.39 391.219 1123.59C405.868 1136.68 423.657 1148.01 433.597 1164.15C456.093 1199.48 436.736 1247.02 462.371 1281.04C472.311 1294.56 488.528 1303.72 505.793 1311.13C545.553 1328.14 597.871 1334.25 631.354 1309.82C656.466 1291.94 663.79 1262.28 665.359 1234.37C666.929 1206.46 664.312 1178.54 674.776 1152.38C685.239 1126.21 714.537 1102.66 747.496 1105.71C776.794 1108.33 798.243 1131.88 806.091 1155.86C813.938 1179.85 811.846 1205.15 814.462 1229.57C819.17 1268.83 841.665 1311.13 886.657 1324.21C907.06 1329.88 929.035 1329.01 949.961 1325.09C1017.45 1311.57 1072.38 1262.72 1084.41 1206.02C1092.78 1165.9 1083.89 1118.36 1117.9 1088.7C1155.04 1056.86 1217.3 1066.89 1270.14 1062.1C1324.55 1057.3 1377.39 1032.44 1405.11 993.184C1432.84 953.931 1432.32 900.723 1398.84 864.523C1375.29 838.791 1338.15 823.526 1316.18 797.357C1279.56 754.18 1291.59 695.301 1306.76 643.836C1321.93 592.372 1336.58 534.801 1304.14 489.006C1285.31 462.837 1249.21 452.806 1215.2 441.03C1100.63 400.905 1094.88 492.931 1078.14 510.813C1016.4 577.978 937.405 593.68 783.071 625.955Z" fill="white" stroke="black" stroke-width="20" stroke-miterlimit="10"/>
<path d="M1055.12 823.528C1063.49 836.176 1055.64 865.834 1037.33 885.896C1009.61 917.298 957.29 931.691 912.298 919.915C867.305 908.139 834.345 871.503 832.775 832.687C832.775 830.506 832.776 828.326 833.823 826.145C835.392 823.528 839.054 822.219 842.716 821.347C916.482 799.54 1048 803 1055.12 823.528Z" fill="#FAFCFF" stroke="black" stroke-width="20" stroke-miterlimit="10"/>
<path d="M1011.08 837.807C1018.3 837.807 1024.16 832.925 1024.16 826.904C1024.16 820.882 1018.3 816 1011.08 816C1003.86 816 998 820.882 998 826.904C998 832.925 1003.86 837.807 1011.08 837.807Z" fill="black" stroke="black" stroke-width="20" stroke-miterlimit="10"/>
</svg>
