<svg width="1760" height="1760" viewBox="0 0 1760 1760" fill="none" xmlns="http://www.w3.org/2000/svg">
<rect width="1760" height="1760" fill="white"/>
<path d="M663.56 502.075C595.887 506.885 527.69 512.134 460.018 517.382C449.001 518.256 437.461 519.13 428.018 524.378C410.182 534.874 409.657 556.304 410.706 574.672C412.279 620.592 406.509 666.511 394.443 711.119C384.476 749.166 369.263 788.964 384.476 826.137C397.066 857.187 428.542 879.928 454.771 903.981C493.591 939.843 525.066 987.949 511.952 1035.18C504.083 1064.04 480.477 1088.1 463.69 1113.9C444.28 1143.2 433.263 1176.44 431.689 1210.11C429.066 1259.97 448.477 1312.88 493.592 1346.12C538.707 1379.36 611.1 1387.23 659.887 1357.93C697.133 1335.63 714.444 1297.14 724.936 1259.97C735.428 1222.36 741.199 1183.43 755.363 1146.7C766.904 1117.4 785.264 1088.1 816.74 1071.92C854.51 1052.24 904.348 1055.3 945.791 1068.85C987.233 1082.41 1023.43 1105.15 1061.2 1124.83C1114.18 1151.95 1175.56 1173.81 1236.94 1166.38C1298.32 1158.95 1356.55 1113.02 1349.2 1061.42C1342.38 1013.75 1287.82 982.263 1261.59 939.842C1241.66 907.916 1239.04 868.995 1253.73 835.32C1277.86 779.779 1343.96 744.355 1378.58 692.75C1414.78 638.959 1412.15 568.987 1371.76 517.382C1361.79 504.262 1348.68 492.016 1330.84 487.206C1315.63 483.27 1299.37 485.456 1283.1 487.206C1041.79 512.134 872.872 487.205 663.56 502.511V502.075Z" fill="#FFD58C" stroke="black" stroke-width="20" stroke-miterlimit="10"/>
<path d="M944.639 757.245C888.508 689.021 776.347 725.354 754.838 780.457C719.166 872.297 858.183 881.481 907.495 865.299C973.069 843.433 964.15 780.457 941.068 752.467L944.639 757.245Z" fill="white" stroke="black" stroke-width="20" stroke-miterlimit="10"/>
<path d="M854.509 766.659C865.808 766.659 874.969 760.198 874.969 752.228C874.969 744.257 865.808 737.795 854.509 737.795C843.21 737.795 834.051 744.257 834.051 752.228C834.051 760.198 843.21 766.659 854.509 766.659Z" fill="black"/>
</svg>
