<svg width="1760" height="1760" viewBox="0 0 1760 1760" fill="none" xmlns="http://www.w3.org/2000/svg">
<rect width="1760" height="1760" fill="white"/>
<path d="M933.703 359.319C887.549 348.738 834.473 364.129 805.049 395.873C753.125 452.627 780.816 542.567 723.7 595.954C688.507 628.659 631.392 637.317 578.891 638.76C551.776 639.241 521.774 639.721 502.159 655.592C472.735 679.16 487.16 719.561 488.89 753.709C491.775 804.691 461.197 853.268 421.389 891.745C400.619 911.946 376.966 930.223 359.081 952.347C308.888 1016.8 321.004 1105.29 371.773 1169.74C422.543 1234.19 504.467 1276.51 589.853 1304.89C783.702 1369.34 1013.32 1367.42 1192.74 1278.44C1230.82 1259.2 1267.17 1236.6 1294.86 1207.26C1315.06 1186.09 1330.63 1160.6 1328.9 1133.67C1327.75 1118.28 1320.25 1103.85 1313.9 1089.42C1287.94 1035.07 1266.59 972.066 1298.9 920.603C1327.75 873.95 1393.52 849.42 1421.79 802.767C1450.63 754.19 1426.4 688.298 1369.86 661.845C1339.86 647.897 1304.09 644.05 1275.82 627.697C1252.75 614.23 1236.59 593.068 1212.36 581.044C1180.63 565.653 1141.4 569.02 1105.05 569.501C1068.7 569.982 1027.17 564.691 1006.4 539.2C986.205 514.19 994.858 481.004 998.897 450.703C1002.94 420.403 998.897 373.268 933.703 358.839V359.319Z" fill="#442FBD" stroke="black" stroke-width="20" stroke-miterlimit="10"/>
<path d="M976.394 929.74C914.662 854.71 795.238 899.92 771.584 960.521C732.353 1061.52 885.238 1071.62 939.47 1053.83C1011.59 1029.78 1001.78 960.521 976.394 929.74Z" fill="white" stroke="black" stroke-width="20" stroke-miterlimit="10"/>
<path d="M880.624 944.168C893.051 944.168 903.122 937.063 903.122 928.297C903.122 919.531 893.051 912.424 880.624 912.424C868.198 912.424 858.123 919.531 858.123 928.297C858.123 937.063 868.198 944.168 880.624 944.168Z" fill="black"/>
</svg>
