<svg width="1760" height="1760" viewBox="0 0 1760 1760" fill="none" xmlns="http://www.w3.org/2000/svg">
<rect width="1760" height="1760" fill="white"/>
<path d="M437.843 1348.63C457.571 1409.41 545.545 1412.61 606.328 1393.95C674.043 1373.15 734.293 1334.23 799.874 1308.64C865.456 1283.04 943.3 1271.85 1004.62 1306.5C1051.54 1332.63 1085.13 1382.75 1137.38 1395.01C1206.16 1411.01 1270.14 1353.42 1310.13 1295.31C1360.25 1222.79 1397.04 1126.82 1356.52 1048.44C1336.26 1009.51 1300.53 981.253 1272.27 947.662C1244.02 914.07 1223.76 866.616 1242.42 826.626C1251.48 806.898 1268.54 793.035 1285.07 778.638C1321.33 747.18 1357.05 713.055 1378.91 670.399C1400.77 627.743 1421.03 559.494 1381.58 531.768C1299.47 475.249 1135.25 461.919 1074.46 448.056C1000.88 430.994 936.369 379.807 860.657 373.408C759.352 364.344 660.713 437.925 561.541 416.597C501.291 403.801 441.042 356.879 384.525 381.939C331.74 405.4 332.273 477.382 352 531.768C420.781 721.053 548.211 679.464 663.912 730.117C889.449 828.759 832.399 964.191 751.888 1033.51C695.904 1081.49 371.195 1148.14 437.309 1349.69L437.843 1348.63Z" fill="#FCFFA6" stroke="black" stroke-width="20" stroke-miterlimit="10"/>
<path d="M624.457 540.831C620.725 573.356 591.4 598.416 556.743 606.414C548.212 608.547 539.681 609.614 531.15 608.547C514.621 606.414 499.692 596.284 489.028 584.02C469.834 562.159 462.369 532.833 468.234 507.24C468.767 504.574 469.834 501.374 472.5 500.308C474.099 499.775 476.232 499.775 478.365 500.308C517.82 505.107 556.743 512.038 595.665 521.103C607.928 523.769 625.524 529.101 624.457 540.831Z" fill="white" stroke="black" stroke-width="20" stroke-miterlimit="10"/>
<path d="M546.833 558.383C548.919 552.562 545.666 546.071 539.567 543.886C533.468 541.701 526.833 544.649 524.748 550.471C522.662 556.293 525.916 562.783 532.015 564.968C538.113 567.153 544.748 564.205 546.833 558.383Z" fill="black"/>
</svg>
