<svg width="1760" height="1760" viewBox="0 0 1760 1760" fill="none" xmlns="http://www.w3.org/2000/svg">
<g clip-path="url(#clip0_10_811)">
<path d="M1760 0H0V1760H1760V0Z" fill="white"/>
<path d="M693.376 555.773C657.234 572.028 612.531 619.205 580.193 640.614C551.184 659.644 514.565 668.763 481.752 683.432C411.369 714.751 358.106 782.149 375.226 847.167C382.835 877.298 404.236 903.464 416.125 932.405C454.169 1023.98 397.102 1131.82 447.036 1219.43C460.352 1243.22 483.654 1265.03 514.09 1271.37C557.841 1280.49 602.544 1254.72 625.847 1222.61C649.149 1190.49 656.758 1152.43 670.074 1116.36C683.389 1080.28 706.216 1043.81 746.163 1027.15C792.293 1008.12 850.787 1021.21 889.307 1049.75C927.827 1078.3 950.179 1119.13 966.348 1159.57C983.943 1203.58 1005.82 1257.1 1060.03 1266.61C1120.43 1277.32 1168.46 1224.99 1226 1206.75C1278.31 1190.49 1348.22 1198.03 1378.18 1158.78C1399.58 1131.03 1386.27 1093.36 1363.92 1066.4C1341.56 1039.45 1310.18 1017.64 1290.68 988.7C1244.55 920.51 1274.99 836.463 1277.36 757.965C1278.31 727.438 1273.56 694.136 1247.4 672.331C1219.82 649.337 1171.79 654.887 1134.22 663.212C985.37 695.721 924.023 612.863 863.151 577.182C813.217 547.845 759.479 526.037 693.376 555.771V555.773Z" fill="#FF3B83" stroke="black" stroke-width="20" stroke-miterlimit="10"/>
<path d="M665.657 848C664.23 858.705 660.566 878.485 666.748 887.207C673.406 896.722 685.77 899.101 697.184 900.29C744.74 905.444 793.247 906.634 841.278 902.669C851.741 901.876 862.679 900.687 872.19 895.136C892.163 883.243 896.919 855.887 899.297 832.1C903.101 794.834 901.675 747.656 868.861 731.797C857.448 726.247 844.132 726.246 831.292 726.246C795.149 727.039 758.531 730.211 722.864 736.158C712.402 737.744 700.988 740.122 692.904 747.258C684.819 754.395 668.65 827.343 664.37 855.888L665.657 848Z" fill="white" stroke="black" stroke-width="20" stroke-miterlimit="10"/>
<path d="M788.009 839.239C800.09 839.239 809.884 829.832 809.884 818.227C809.884 806.623 800.09 797.215 788.009 797.215C775.927 797.215 766.133 806.623 766.133 818.227C766.133 829.832 775.927 839.239 788.009 839.239Z" fill="black"/>
</g>
<defs>
<clipPath id="clip0_10_811">
<rect width="1760" height="1760" fill="white"/>
</clipPath>
</defs>
</svg>
