<svg width="1760" height="1760" viewBox="0 0 1760 1760" fill="none" xmlns="http://www.w3.org/2000/svg">
<rect width="1760" height="1760" fill="white"/>
<path d="M543.141 784.64C522.171 784.64 504.872 798.626 494.911 813.922C484.951 829.218 481.805 847.136 479.708 864.18C473.417 906.135 469.748 948.527 467.651 990.919C465.554 1038.12 467.127 1087.5 493.863 1128.58C523.744 1174.91 584.031 1207.69 597.137 1259.26C602.379 1280.23 599.234 1302.96 608.146 1323.06C620.203 1351.47 654.802 1369.83 689.926 1376.38C725.05 1382.94 761.746 1379.44 797.394 1375.51C810.5 1374.2 824.654 1372.89 836.187 1367.2C850.342 1360.21 859.254 1348.41 865.545 1335.74C882.32 1303.83 884.417 1268 893.329 1233.91C902.241 1199.82 921.638 1164.42 959.383 1149.12C1000.27 1132.52 1047.98 1144.75 1092.54 1153.49C1137.1 1162.24 1190.57 1163.98 1219.4 1135.14C1228.31 1125.96 1235.65 1115.04 1238.8 1103.24C1266.06 1005.78 1267.11 918.809 1265.01 825.721C1262.39 699.856 1270.78 573.992 1290.7 449.438C1293.84 431.082 1300.13 398.305 1278.12 397.431C1221.5 395.246 1082.05 336.246 1032.78 441.57C967.246 582.294 1046.93 669.701 927.404 725.204C824.13 773.278 697.79 786.825 543.141 784.64Z" fill="#3EC790" stroke="black" stroke-width="20" stroke-miterlimit="10"/>
<path d="M865.542 1064.78C883.366 1065.65 903.287 1066.09 917.965 1060.84C933.692 1055.16 937.362 1045.11 938.934 1036.37C946.274 998.347 946.274 960.325 938.934 922.303C937.362 914 935.265 905.259 925.304 898.267C904.335 882.971 858.202 880.348 817.836 879.911C754.928 878.6 675.245 882.096 649.557 908.755C640.645 918.37 640.645 928.859 641.694 938.911C644.315 967.755 651.13 996.162 661.615 1024.13C664.76 1032.44 668.954 1041.18 681.536 1047.29C694.117 1053.41 817.312 1062.59 865.542 1064.78Z" fill="white" stroke="black" stroke-width="20" stroke-miterlimit="10"/>
<path d="M794.012 984.793C813.689 984.249 829.329 975.984 828.945 966.335C828.561 956.685 812.298 949.305 792.621 949.849C772.945 950.393 757.304 958.656 757.688 968.305C758.072 977.955 774.335 985.337 794.012 984.793Z" fill="black"/>
</svg>
