<svg width="1760" height="1760" viewBox="0 0 1760 1760" fill="none" xmlns="http://www.w3.org/2000/svg">
<rect width="1760" height="1760" fill="white"/>
<path d="M1057 479.057C1002.55 484.859 972.802 531.639 963.795 565.087C953.969 601.265 949.466 669.185 940.459 675.328C930.224 682.496 796.758 674.645 713.648 682.495C698.91 683.861 682.534 687.274 674.755 698.196C670.661 704.34 669.842 711.507 669.023 718.333C661.654 802.976 654.285 887.619 646.915 972.263C646.097 979.771 645.687 987.621 641.593 994.105C635.043 1004.69 621.532 1010.83 607.613 1013.9C576.088 1020.73 540.47 1012.88 504.033 1007.08C467.596 1001.27 430.34 999.225 406.185 1017.31C369.748 1044.62 364.835 1087.62 356.647 1135.75C350.097 1174.31 394.722 1202.98 424.609 1210.83C545.792 1242.57 674.755 1245.65 802.08 1248.72C822.55 1249.06 844.658 1249.4 862.262 1240.53C892.968 1224.83 897.062 1188.99 892.149 1159.3C887.236 1129.6 877.41 1098.2 891.74 1070.56C904.431 1045.98 937.593 1029.94 969.526 1033.01C1001.46 1036.09 1028.89 1059.29 1031.76 1085.92C1032.98 1095.81 1030.94 1106.74 1035.85 1115.95C1044.04 1132.33 1068.6 1137.11 1089.48 1139.5C1146.39 1145.99 1203.71 1149.06 1261.02 1148.72C1293.37 1148.72 1328.57 1146.67 1354.37 1130.29C1388.76 1108.44 1396.13 1068.51 1398.99 1033.01C1408.41 924.821 1402.68 816.286 1396.95 708.093C1396.54 699.561 1396.13 690.687 1391.21 683.179C1378.93 663.383 1347 660.653 1319.98 660.653C1285.59 660.653 1251.2 660.653 1216.81 660.653C1198.38 660.653 1178.73 660.652 1163.58 651.778C1121.83 628.228 1136.97 585.224 1134.93 549.046C1133.7 526.861 1117.73 471.911 1047.31 479.761L1057 479.057Z" fill="#FCFFA6" stroke="black" stroke-width="20" stroke-miterlimit="10"/>
<path d="M1138.61 813.896C1142.3 853.146 1110.36 890.348 1068.6 908.778C1058.37 913.215 1047.72 916.97 1036.26 917.652C1014.56 919.359 993.274 911.508 976.488 899.904C947.011 879.426 929.816 847.002 931.044 814.92C931.044 811.507 931.863 807.753 934.729 805.705C936.776 804.34 939.642 803.998 942.098 803.657C993.683 798.879 1045.27 796.831 1097.26 797.172C1113.64 797.172 1136.57 799.561 1138.2 813.554L1138.61 813.896Z" fill="white" stroke="black" stroke-width="20" stroke-miterlimit="10"/>
<path d="M1044.69 855.985C1045.94 848.517 1040.23 841.685 1031.94 840.727C1023.65 839.768 1015.93 845.045 1014.69 852.514C1013.44 859.982 1019.15 866.813 1027.44 867.772C1035.73 868.73 1043.45 863.453 1044.69 855.985Z" fill="black"/>
</svg>
