<svg width="1760" height="1760" viewBox="0 0 1760 1760" fill="none" xmlns="http://www.w3.org/2000/svg">
<rect width="1760" height="1760" fill="white"/>
<path d="M451.777 518.687C426.834 516.212 401.298 516.707 388.233 534.035C375.168 551.363 373.98 573.146 373.386 593.94C367.447 782.567 362.102 971.689 356.164 1160.32C354.976 1205.86 359.133 1260.82 406.643 1283.59C427.428 1293.49 452.965 1294.98 476.719 1295.97C572.333 1299.93 667.946 1304.39 763.559 1308.35C811.662 1310.33 866.892 1310.33 899.555 1281.12C958.942 1227.65 894.804 1129.13 950.628 1073.18C983.291 1040.51 1042.08 1038.53 1093.16 1039.52C1167.98 1040.51 1243.41 1041.99 1318.23 1042.98C1329.52 1042.98 1341.99 1042.98 1352.08 1039.02C1368.12 1032.59 1380 1018.72 1382.97 1003.87C1429.29 798.904 1391.28 550.868 1344.36 542.452C1246.97 524.629 1085.44 537.501 985.666 537.501C821.164 537.501 669.133 539.481 451.777 518.687Z" fill="#DAD4FF" stroke="black" stroke-width="20" stroke-miterlimit="10"/>
<path d="M903.118 776.625C908.463 833.56 862.141 887.524 801.566 914.259C786.719 920.695 771.279 926.141 754.651 927.131C723.175 929.607 692.294 918.221 667.945 901.388C625.187 871.683 600.244 824.649 602.026 778.111C602.026 773.16 603.214 767.714 607.371 764.744C610.34 762.764 614.497 762.269 618.06 761.774C692.888 754.842 767.716 751.872 843.137 752.367C866.892 752.367 900.149 755.833 902.524 776.131L903.118 776.625Z" fill="white" stroke="black" stroke-width="20" stroke-miterlimit="10"/>
<path d="M766.808 837.692C768.612 826.859 760.329 816.95 748.309 815.559C736.289 814.169 725.083 821.824 723.28 832.657C721.476 843.49 729.759 853.4 741.779 854.79C753.799 856.181 765.005 848.526 766.808 837.692Z" fill="black"/>
</svg>
