<svg width="1760" height="1760" viewBox="0 0 1760 1760" fill="none" xmlns="http://www.w3.org/2000/svg">
<rect width="1760" height="1760" fill="white"/>
<path d="M428.185 496.212C409.624 495.327 385.761 496.653 378.867 511.242C376.746 515.221 376.746 519.642 376.746 524.063C370.382 690.288 364.019 856.954 357.125 1023.18C355.534 1061.64 353.943 1100.99 365.079 1138.12C376.215 1175.26 401.14 1211.95 441.442 1230.96C464.775 1242.01 491.291 1246.88 517.805 1249.09C563.941 1253.51 614.85 1250.41 648.789 1224.33C680.077 1200.01 689.092 1162.44 694.395 1127.07C699.698 1091.7 703.94 1054.13 729.395 1025.83C754.849 997.539 810.53 984.276 840.227 1009.92C856.666 1024.06 860.379 1045.28 857.197 1064.74C854.015 1084.19 845.53 1102.31 839.697 1121.32C830.151 1151.83 829.091 1185.43 845 1214.16C860.909 1242.9 895.378 1265.44 933.56 1264.56C981.817 1263.23 1018.41 1226.1 1032.73 1187.64C1047.04 1149.17 1047.04 1108.06 1058.71 1069.16C1068.26 1037.77 1091.06 1005.05 1128.71 998.422C1164.24 992.233 1198.71 1011.24 1222.57 1034.23C1234.24 1045.73 1244.84 1058.1 1259.16 1067.39C1300 1093.91 1364.69 1084.63 1398.63 1051.92C1432.57 1019.2 1435.75 969.245 1415.07 929.899C1394.39 890.553 1351.97 860.933 1304.77 842.808C1288.86 836.619 1271.36 831.314 1260.75 819.377C1254.39 812.304 1251.21 803.463 1249.09 795.063C1239.01 758.812 1241.13 720.349 1254.92 684.982C1272.42 639.447 1309.01 598.334 1310.07 550.589C1310.07 542.189 1309.01 532.904 1303.71 525.831C1289.39 507.705 1270.83 510.8 1245.91 514.778C1041.74 547.935 427.654 496.212 427.654 496.212H428.185Z" fill="#7968D9" stroke="black" stroke-width="20" stroke-miterlimit="10"/>
<path d="M737.876 814.07C729.392 841.921 723.028 875.52 748.482 895.856C764.921 908.677 789.845 912.213 813.179 913.539C842.875 915.308 873.102 914.424 900.678 905.582C928.254 896.74 952.647 879.94 961.132 857.836C969.617 833.963 959.011 809.207 946.284 786.661C922.42 745.104 890.602 705.315 842.875 679.232C837.572 676.58 832.269 673.485 825.906 672.601C811.588 670.391 797.8 678.349 790.906 688.517C784.012 698.685 747.952 781.355 738.406 814.07H737.876Z" fill="white" stroke="black" stroke-width="20" stroke-miterlimit="10"/>
<path d="M847.93 846.014C864.001 845.103 876.321 835.677 875.446 824.959C874.572 814.241 860.836 806.291 844.764 807.202C828.693 808.113 816.374 817.54 817.248 828.258C818.122 838.976 831.859 846.925 847.93 846.014Z" fill="#030005"/>
</svg>
