<svg width="1760" height="1760" viewBox="0 0 1760 1760" fill="none" xmlns="http://www.w3.org/2000/svg">
<rect width="1760" height="1760" fill="white"/>
<path d="M442.236 706.19C407.13 708.194 410.497 754.7 406.168 783.966C398.474 834.882 360.001 880.586 356.154 931.902C355.192 949.943 358.559 969.187 371.062 984.421C384.047 1000.46 404.725 1010.48 423.962 1021.71C470.609 1048.57 512.448 1086.25 523.028 1132.76C537.936 1199.71 485.037 1266.66 496.578 1334.42C498.983 1348.45 504.273 1362.88 515.334 1373.7C535.532 1394.15 570.157 1400.16 602.378 1401.77C647.102 1404.17 695.673 1409.39 735.588 1392.55C800.03 1365.29 806.762 1297.93 778.87 1241.4C703.849 1089.86 831.769 1076.23 896.21 1109.91C967.384 1146.79 928.912 1207.33 940.935 1226.97C964.018 1263.86 1024.13 1267.06 1073.66 1265.06C1115.02 1263.86 1161.19 1260.65 1189.56 1235.39C1241.5 1189.29 1196.78 1105.9 1241.02 1054.98C1264.1 1028.12 1305.46 1017.7 1338.64 999.656C1370.38 982.016 1396.35 954.754 1402.6 923.082C1408.86 891.41 1393.95 856.131 1361.25 839.693C1345.86 831.675 1327.58 828.066 1312.19 820.048C1274.2 799.601 1288.15 773.543 1304.98 738.263C1357.4 628.013 1255.93 578.3 1254 576.295C1247.27 569.48 1151.57 695.766 915.928 596.341C896.691 588.322 952.957 536.605 947.187 448.806C944.782 412.724 917.37 369.425 879.379 352.587C767.328 303.275 686.536 423.147 720.199 490.901C763 576.295 809.648 654.071 675.956 686.144C597.088 704.987 567.271 700.176 441.755 706.591L442.236 706.19Z" fill="#FFE0F6" stroke="black" stroke-width="20" stroke-miterlimit="10"/>
<path d="M800.032 890.608C792.338 915.865 786.567 946.335 809.651 964.776C824.559 976.403 847.161 979.61 868.321 980.813C895.252 982.416 922.663 981.615 947.67 973.597C972.677 965.578 994.799 950.343 1002.49 930.298C1010.19 908.648 1000.57 886.198 989.028 865.752C967.387 828.066 938.533 791.985 895.252 768.331C890.443 765.925 885.634 763.118 879.863 762.316C866.878 760.312 854.375 767.529 848.123 776.75C841.871 785.971 809.17 860.941 800.513 890.608H800.032Z" fill="white" stroke="black" stroke-width="20" stroke-miterlimit="10"/>
<path d="M899.835 919.54C914.409 918.714 925.581 910.164 924.788 900.445C923.996 890.725 911.538 883.515 896.964 884.341C882.39 885.167 871.218 893.717 872.011 903.436C872.804 913.156 885.261 920.366 899.835 919.54Z" fill="#030005"/>
</svg>
