<svg width="1760" height="1760" viewBox="0 0 1760 1760" fill="none" xmlns="http://www.w3.org/2000/svg">
<rect width="1760" height="1760" fill="white"/>
<path d="M454.097 653.319C441.246 653.319 436.797 669.389 437.291 680.103C437.785 690.816 442.728 701.118 446.188 711.42C455.085 739.441 453.108 769.521 439.763 796.306C432.843 809.904 421.968 823.09 421.968 837.925C421.968 910.86 543.563 880.368 535.16 970.61C525.769 1070.33 458.051 1071.15 402.197 1107.83C341.894 1147.39 353.757 1228.56 365.619 1292.02C369.574 1313.04 376 1335.7 394.783 1350.12C409.117 1361.25 428.888 1365.37 448.165 1368.67C581.623 1391.33 731.392 1364.54 826.295 1282.96C843.101 1268.53 858.424 1252.46 877.701 1240.1C919.222 1214.14 978.536 1210.43 1024.01 1230.62C1062.07 1247.52 1088.76 1278.01 1125.34 1296.55C1170.32 1319.22 1230.62 1320.04 1275.6 1297.38C1320.58 1274.71 1347.77 1228.98 1339.86 1185.71C1332.94 1146.97 1301.31 1114.83 1282.52 1078.98C1265.22 1045.61 1258.8 1008.52 1264.73 972.259C1277.58 892.73 1371 792.597 1374.95 712.244C1376.93 668.565 1314.65 681.751 1185.15 664.856C1150.05 660.324 1096.67 651.258 1074.92 627.771C1046.75 597.278 1065.04 536.292 1028.95 456.351C1013.14 421.737 984.468 382.591 939.982 383.003C913.29 383.003 853.975 396.602 853.975 468.714C853.975 565.137 874.241 629.007 808.501 643.429C713.598 664.445 625.115 653.319 462 653.319H454.097Z" fill="#2667FF" stroke="black" stroke-width="20" stroke-miterlimit="10"/>
<path d="M1027.96 893.552C1027.47 940.94 984.466 982.97 932.071 1001.51C919.22 1006.05 905.874 1009.34 892.034 1009.75C865.837 1009.75 841.122 998.216 822.339 982.97C789.222 955.773 772.911 915.39 778.348 877.068C778.842 872.948 780.325 868.828 784.279 866.355C786.751 864.707 790.211 864.707 793.671 864.707C855.951 863.471 918.725 865.532 981.005 870.476C1000.28 872.125 1027.96 876.657 1027.96 893.552Z" fill="white" stroke="black" stroke-width="20" stroke-miterlimit="10"/>
<path d="M927.106 896.849C929.964 886.422 921.493 875.914 908.187 873.38C894.88 870.845 881.777 877.244 878.919 887.671C876.061 898.099 884.531 908.606 897.838 911.141C911.144 913.675 924.248 907.277 927.106 896.849Z" fill="black"/>
</svg>
