<svg width="1760" height="1760" viewBox="0 0 1760 1760" fill="none" xmlns="http://www.w3.org/2000/svg">
<rect width="1760" height="1760" fill="white"/>
<path d="M508.593 525.785L397.543 753.428C375.011 799.941 351.406 848.69 356.771 898.78C364.818 977.494 441.534 1044.58 440.998 1123.74C440.998 1160.41 424.367 1197.53 436.169 1232.87C448.508 1269.54 489.817 1295.03 533.808 1305.32C577.799 1315.61 624.472 1313.37 669.536 1310.69C695.287 1309.34 722.648 1307.55 744.643 1295.48C797.754 1265.51 783.806 1198.43 804.192 1147.89C814.385 1122.85 834.771 1100.04 863.741 1088.41C892.711 1076.78 929.191 1078.57 953.332 1095.56C1004.83 1131.34 976.937 1202.9 1006.44 1252.99C1024.68 1284.3 1064.92 1303.53 1105.69 1311.13C1146.46 1318.74 1188.85 1315.61 1230.69 1312.47C1250 1311.13 1269.85 1309.34 1287.02 1301.74C1337.99 1278.04 1332.62 1217.21 1328.33 1168.46C1309.02 957.368 1399.14 795.022 1399.14 550.83C1399.14 532.493 1390.56 513.262 1374.47 500.292C1353.54 484.192 1321.89 484.192 1293.46 485.534C1054.19 495.82 814.921 510.579 508.593 525.785Z" fill="#FFF570" stroke="black" stroke-width="20" stroke-miterlimit="10"/>
<path d="M967.819 946.633C906.125 951.105 847.112 917.115 817.606 871.944C810.632 861.21 804.731 849.134 802.585 836.612C799.366 812.908 811.705 789.652 829.408 770.868C861.061 738.219 911.489 718.989 961.918 719.883C967.283 719.883 973.183 720.778 976.402 723.908C978.548 726.145 979.085 729.275 979.621 731.958C988.205 787.863 992.497 844.662 992.497 901.014C992.497 918.903 989.815 944.396 967.819 945.738V946.633Z" fill="white" stroke="black" stroke-width="20" stroke-miterlimit="10"/>
<path d="M980.872 835.73C982.69 823.473 972.961 812.382 959.14 810.957C945.32 809.532 932.643 818.313 930.824 830.57C929.006 842.827 938.736 853.918 952.556 855.343C966.376 856.767 979.054 847.986 980.872 835.73Z" fill="black"/>
</svg>
