<svg width="1760" height="1760" viewBox="0 0 1760 1760" fill="none" xmlns="http://www.w3.org/2000/svg">
<rect width="1760" height="1760" fill="white"/>
<path d="M539.778 375.533C479.186 393.774 429.534 452.706 436.687 506.025C444.682 566.711 525.472 611.611 507.799 670.543C504.433 681.417 498.542 691.59 496.438 702.465C492.651 723.512 504.433 743.858 511.586 764.203C537.253 840.323 493.913 920.653 497.7 999.579C498.542 1016.07 502.749 1034.31 518.739 1044.13C528.417 1050.09 541.461 1051.85 553.243 1052.9C639.923 1062.02 727.445 1066.58 814.967 1066.58C835.585 1066.58 856.624 1066.23 875.559 1059.56C911.746 1046.93 932.364 1014.66 965.184 996.773C1016.52 969.061 1094.78 988.354 1120.45 1034.66C1146.12 1080.96 1114.14 1142.7 1056.07 1158.84C1022.41 1168.31 984.12 1163.75 951.72 1175.67C904.172 1193.21 883.133 1240.57 878.504 1283.71C874.297 1320.55 881.45 1362.99 916.795 1385.44C944.567 1402.98 982.016 1403.68 1016.94 1404.03C1076.69 1404.03 1136.02 1404.03 1195.77 1404.03C1226.91 1404.03 1261.41 1402.98 1283.29 1384.39C1297.18 1372.81 1303.07 1355.98 1306.86 1339.84C1317.8 1295.99 1319.48 1251.09 1320.74 1206.19C1325.37 1064.83 1330 922.758 1312.75 782.093C1308.96 751.575 1303.49 719.654 1284.56 693.345C1258.89 657.916 1192.83 640.727 1170.94 615.471C1120.45 557.241 1189.88 486.732 1042.61 574.077C1000.95 598.632 967.709 622.486 916.795 623.889C863.356 625.292 784.25 601.438 750.167 567.412C674.427 491.643 702.619 326.073 539.778 374.832V375.533Z" fill="#FF3B83" stroke="black" stroke-width="20" stroke-miterlimit="10"/>
<path d="M722.814 746.311C674.845 771.217 675.687 842.778 705.141 885.223C709.77 892.239 715.661 898.552 722.814 903.463C732.071 909.777 743.432 912.584 754.793 914.689C796.45 921.354 842.315 910.83 871.349 882.767C900.382 854.704 907.535 808.4 883.551 776.83C868.824 757.536 844.419 745.259 819.172 739.998C793.925 734.736 762.788 725.966 722.814 746.663V746.311Z" fill="white" stroke="black" stroke-width="20" stroke-miterlimit="10"/>
<path d="M793.923 851.196C805.31 851.196 814.541 842.873 814.541 832.605C814.541 822.337 805.31 814.012 793.923 814.012C782.536 814.012 773.305 822.337 773.305 832.605C773.305 842.873 782.536 851.196 793.923 851.196Z" fill="black"/>
</svg>
