<svg width="1760" height="1760" viewBox="0 0 1760 1760" fill="none" xmlns="http://www.w3.org/2000/svg">
<rect width="1760" height="1760" fill="white"/>
<path d="M610.428 1012.5C619.863 982.626 638.341 956.285 652.1 927.979C665.86 899.673 685.517 871.76 715.002 860.359C744.486 848.958 784.192 862.324 792.055 892.596C796.38 909.502 790.483 927.193 782.62 942.919C761.784 985.378 727.581 1019.97 704.78 1061.25C681.978 1102.53 671.364 1156.79 698.49 1195.32C721.292 1227.95 765.322 1239.74 804.636 1235.81C843.949 1231.88 880.903 1214.97 917.858 1200.03C954.812 1185.09 993.732 1171.33 1033.05 1174.87C1067.64 1178.02 1099.88 1193.74 1134.47 1197.28C1162.39 1200.43 1190.69 1195.32 1217.42 1187.45C1288.58 1166.62 1356.2 1122.58 1389.22 1056.14C1397.09 1040.42 1402.98 1023.51 1403.77 1006.21C1405.73 960.61 1373.89 921.296 1342.05 889.058C1316.89 863.111 1290.55 838.343 1263.42 814.361C1223.32 779.371 1178.5 741.63 1172.61 688.949C1169.07 659.463 1179.29 628.798 1172.21 600.099C1163.57 565.109 1131.33 539.948 1096.73 530.119C1062.14 520.291 1025.18 522.65 989.407 525.402C955.205 528.154 919.823 531.299 890.732 549.383C876.579 558.426 864.391 570.613 851.811 581.621C820.754 608.748 779.082 631.55 739.769 618.969C715.002 611.107 694.952 589.484 669.005 587.125C621.043 582.407 590.379 641.378 543.203 651.993C522.76 656.711 498.779 652.387 483.053 666.54C465.756 682.265 470.867 709.785 472.439 733.374C475.191 781.73 454.748 830.873 418.58 863.111C399.316 880.016 374.942 893.383 362.362 915.792C343.099 949.995 360.79 973.584 378.481 1008.57C389.488 1030.2 542.023 1228.34 610.821 1013.68L610.428 1012.5Z" fill="#FF82C1" stroke="black" stroke-width="20" stroke-miterlimit="10"/>
<path d="M591.163 1065.97C605.709 1075.8 621.435 1084.06 637.946 1089.95C639.519 1090.35 641.092 1091.13 642.664 1090.74C643.844 1090.74 645.022 1089.56 645.809 1088.38C662.713 1071.87 676.08 1052.21 685.122 1030.98C664.679 1015.65 644.63 1000.32 624.187 984.984C608.462 1012.9 595.488 1042.38 590.771 1065.58L591.163 1065.97Z" fill="white" stroke="black" stroke-width="20" stroke-miterlimit="10"/>
<path d="M483.055 1024.69C456.322 1017.22 437.845 990.489 434.307 962.576C433.521 955.893 433.128 948.816 435.094 942.133C438.239 929.552 448.067 919.33 459.468 913.04C479.124 901.246 504.284 899.673 525.513 907.929C527.872 908.716 530.231 909.895 530.624 912.254C531.018 913.826 530.624 915.399 530.624 916.972C523.155 946.85 514.113 976.729 503.105 1005.43C499.567 1014.47 493.67 1027.05 483.842 1024.3L483.055 1024.69Z" fill="white" stroke="black" stroke-width="20" stroke-miterlimit="10"/>
<path d="M487.862 958.497C490.197 954.083 488.201 948.447 483.403 945.908C478.605 943.37 472.822 944.891 470.487 949.305C468.152 953.719 470.148 959.355 474.946 961.893C479.744 964.432 485.527 962.911 487.862 958.497Z" fill="black"/>
</svg>
