<svg width="1760" height="1760" viewBox="0 0 1760 1760" fill="none" xmlns="http://www.w3.org/2000/svg">
<rect width="1760" height="1760" fill="white"/>
<path d="M620.247 371.913C580.643 373.121 551.181 404.123 530.896 432.711C510.611 461.298 495.638 492.705 471.006 518.071C451.204 538.606 424.158 555.516 412.566 579.675C401.458 603.833 406.77 630.81 411.6 656.176C451.687 857.093 408.219 1297.98 422.226 1331C471.973 1448.97 1191.13 1399.85 1213.35 1347.1C1227.35 1313.28 1227.35 1277.05 1228.8 1241.21C1229.28 1227.92 1229.28 1213.43 1218.66 1203.77C1211.41 1196.92 1199.82 1193.7 1189.2 1191.28C1155.87 1184.04 1121.1 1181.22 1086.8 1182.02C1054.93 1183.23 1019.19 1186.45 995.039 1169.14C975.237 1154.64 970.407 1130.48 970.89 1108.74C970.89 1077.74 981.998 1042.71 1014.36 1027.01C1040.44 1014.12 1072.8 1016.94 1102.26 1020.56C1132.21 1023.78 1162.15 1027.01 1192.09 1030.23C1209 1032.24 1227.35 1033.85 1242.81 1027.01C1255.85 1020.97 1264.06 1009.69 1270.82 998.822C1336.02 897.76 1364.52 779.785 1350.51 665.436C1344.72 617.924 1318.63 539.813 1262.61 530.15C1223.97 523.708 1190.16 554.711 1041.41 512.837C1018.22 506.394 995.522 525.721 971.856 530.15C911.484 541.021 858.356 499.146 817.303 460.493C776.25 421.839 724.088 368.288 620.247 371.107V371.913Z" fill="#FCFFA6" stroke="black" stroke-width="20" stroke-miterlimit="10"/>
<path d="M957.849 857.497C956.4 876.019 954.952 896.554 961.231 911.854C967.992 928.362 980.55 932.388 992.141 934.402C1040.44 943.662 1089.7 945.272 1138.48 938.83C1149.11 937.622 1160.22 935.609 1169.88 925.945C1190.16 905.008 1194.99 857.094 1197.41 815.623C1201.27 750.395 1199.82 667.855 1166.5 640.072C1154.91 630.409 1141.38 630.006 1128.34 630.811C1091.63 632.422 1054.45 638.059 1018.22 648.125C1007.6 650.943 996.005 654.97 987.795 667.452C979.584 679.933 963.162 807.167 958.816 857.497H957.849Z" fill="white" stroke="black" stroke-width="20" stroke-miterlimit="10"/>
<path d="M1139.45 905.81C1151.72 905.81 1161.67 889.406 1161.67 869.171C1161.67 848.935 1151.72 832.53 1139.45 832.53C1127.18 832.53 1117.23 848.935 1117.23 869.171C1117.23 889.406 1127.18 905.81 1139.45 905.81Z" fill="black"/>
</svg>
