<svg width="1760" height="1760" viewBox="0 0 1760 1760" fill="none" xmlns="http://www.w3.org/2000/svg">
<rect width="1760" height="1760" fill="white"/>
<path d="M1047.78 492.544C1009.7 489.221 971.615 501.034 957.887 530.567C944.16 560.1 950.36 593.325 952.131 624.704C953.902 656.083 950.36 691.523 922.905 713.672C858.695 765.724 715.664 721.055 715.664 721.055C715.664 721.055 689.538 821.467 670.496 879.795C659.426 914.496 646.141 940.337 608.944 971.346C578.832 996.449 526.136 979.838 484.51 974.3C442.885 968.763 391.518 971.716 369.377 1001.99C360.964 1013.43 358.749 1026.72 356.978 1040.01C354.764 1059.58 355.206 1081.36 370.262 1096.86C385.318 1112.37 411.002 1119.01 434.915 1119.75C616.472 1125.29 757.732 1132.3 919.362 1124.92C943.717 1123.81 971.172 1121.23 985.785 1105.35C1004.38 1085.05 991.984 1056.25 988.885 1030.41C985.342 1003.83 992.87 976.146 1013.24 955.473C1033.61 934.8 1066.38 922.248 1097.82 926.309C1250.15 944.767 1163.36 1087.26 1181.96 1112.37C1209.41 1149.65 1387.43 1147.07 1391.41 1103.51C1400.71 998.296 1283.36 702.966 1267.86 690.045C1245.28 671.218 1199.67 687.83 1170 661.251C1146.53 640.209 1138.12 610.675 1127.49 583.727C1111.1 543.119 1115.09 498.45 1047.78 492.544Z" fill="#8CFFD9" stroke="black" stroke-width="20" stroke-miterlimit="10"/>
<path d="M979.146 820.731C973.832 797.104 991.988 773.108 1017.67 760.187C1023.87 756.865 1030.96 754.281 1038.04 753.173C1052.21 750.958 1066.82 755.019 1078.34 761.295C1099.15 772.37 1112.88 791.197 1114.21 810.762C1114.21 812.608 1114.21 815.193 1112.44 816.301C1111.11 817.408 1109.34 817.407 1107.56 817.777C1074.35 822.945 1040.26 826.637 1006.6 828.483C995.973 829.221 980.917 829.221 979.146 820.731Z" fill="white" stroke="black" stroke-width="20" stroke-miterlimit="10"/>
<path d="M1060.63 813.969C1060.93 808.674 1055.03 804.142 1047.46 803.848C1039.88 803.553 1033.5 807.607 1033.21 812.903C1032.91 818.198 1038.81 822.729 1046.38 823.023C1053.96 823.318 1060.34 819.264 1060.63 813.969Z" fill="black"/>
</svg>
