<svg width="1760" height="1760" viewBox="0 0 1760 1760" fill="none" xmlns="http://www.w3.org/2000/svg">
<rect width="1760" height="1760" fill="white"/>
<path d="M700.106 621.6C599.425 648.592 559.064 545.431 530.678 543.582C504.953 542.103 484.106 559.851 468.583 576.49C412.698 636.76 369.675 707.384 358.587 783.183C347.499 858.983 371.893 939.958 434.875 995.421C454.834 1012.8 478.341 1027.96 494.308 1047.93C530.677 1093.41 520.033 1152.94 522.694 1207.66C523.137 1218.01 524.468 1229.11 531.121 1237.61C536.443 1244.63 544.87 1249.81 553.298 1254.25C586.119 1271.26 625.15 1280.87 663.293 1276.43C701.437 1272 737.807 1251.66 752.444 1222.08C778.168 1170.31 735.589 1107.83 762.201 1056.43C787.483 1007.99 869.979 993.572 924.534 1020.19C979.088 1046.82 1006.14 1102.65 1005.7 1155.16C1005.7 1189.54 995.943 1227.63 1019.89 1255.73C1039.41 1279.02 1075.78 1287.53 1109.49 1293.44C1144.97 1299.36 1184.89 1303.8 1215.49 1286.79C1250.09 1267.56 1258.51 1228 1257.63 1193.24C1256.3 1153.68 1247.87 1111.52 1270.49 1076.77C1282.91 1058.28 1302.87 1044.23 1319.28 1027.59C1350.77 995.421 1366.29 955.118 1378.27 914.815C1410.2 805.738 1418.63 687.786 1367.18 583.885C1360.53 570.574 1352.1 556.894 1337.46 549.499C1308.63 535.078 1272.71 550.237 1239.88 555.784C1174.24 566.876 1109.49 538.406 1048.72 514.742C987.959 491.077 916.55 478.136 856.673 503.279C769.741 539.885 794.135 595.717 700.106 620.861V621.6Z" fill="#FFE0F6" stroke="black" stroke-width="20" stroke-miterlimit="10"/>
<path d="M858.45 678.914C810.549 716.259 813.653 814.613 834.056 875.992C837.161 885.975 841.596 895.22 846.918 902.245C854.014 911.489 862.886 915.926 871.756 918.884C904.578 929.607 942.277 915.925 967.559 877.101C992.84 838.277 1002.15 772.462 985.3 726.613C975.099 698.511 956.027 680.393 936.068 672.259C916.109 664.124 888.61 655.25 858.45 678.914Z" fill="white" stroke="black" stroke-width="20" stroke-miterlimit="10"/>
<path d="M925.05 803.105C925.807 788.415 919.08 776.244 910.025 775.92C900.97 775.596 893.016 787.241 892.259 801.931C891.502 816.62 898.229 828.791 907.284 829.116C916.339 829.44 924.293 817.794 925.05 803.105Z" fill="black"/>
</svg>
