<svg width="1760" height="1760" viewBox="0 0 1760 1760" fill="none" xmlns="http://www.w3.org/2000/svg">
<rect width="1760" height="1760" fill="white"/>
<path d="M590.442 391.611C559.987 383.994 526.485 387.38 514.811 411.923C503.136 436.466 510.75 463.547 516.841 489.36C543.236 599.38 537.652 714.479 499.583 821.961C489.939 848.62 478.772 875.279 461.006 898.975C442.226 923.518 401.618 951.023 384.868 976.836C349.844 1031 372.686 1089.82 381.315 1150.75C382.837 1160.48 384.36 1170.64 391.974 1177.83C398.065 1183.76 406.694 1186.72 415.323 1189.68C444.256 1198.99 474.712 1205.76 505.675 1204.49C536.638 1203.22 567.6 1191.8 585.366 1170.64C609.73 1141.44 611.761 1103.78 628.511 1070.78C670.641 988.261 762.514 995.878 792.97 1046.66C816.827 1086.43 811.243 1134.25 830.532 1175.3C839.668 1195.18 854.896 1212.96 871.139 1229.46C933.065 1292.09 1018.34 1338.63 1112.24 1361.06C1160.47 1372.49 1213.25 1377.56 1259.95 1362.33C1334.06 1338.63 1375.68 1261.2 1348.27 1199.41C1325.43 1147.37 1261.48 1105.05 1268.58 1049.62C1272.13 1023.38 1291.93 1000.53 1308.68 978.105C1360.96 909.554 1393.45 830.424 1402.59 749.602C1406.14 718.288 1404.62 683.589 1378.73 660.739C1349.8 634.926 1301.57 634.926 1259.44 638.311C1173.15 645.505 1083.82 661.585 1002.1 637.042C924.944 613.768 869.108 558.758 812.766 508.826C756.423 458.893 681.808 414.038 590.442 391.611Z" fill="#99E6FF" stroke="black" stroke-width="20" stroke-miterlimit="10"/>
<path d="M933.068 855.392C882.817 885.013 883.832 968.797 914.795 1018.73C919.871 1026.77 925.454 1034.39 933.068 1039.89C942.712 1047.08 954.386 1050.89 966.568 1053.01C1009.71 1060.62 1057.43 1048.35 1087.37 1015.35C1117.32 982.339 1120.88 929.444 1100.06 890.514C1067.07 829.579 974.69 830.426 933.068 854.969V855.392Z" fill="white" stroke="black" stroke-width="20" stroke-miterlimit="10"/>
<path d="M1006.67 978.954C1018.44 978.954 1027.99 969.103 1027.99 956.95C1027.99 944.798 1018.44 934.945 1006.67 934.945C994.896 934.945 985.352 944.798 985.352 956.95C985.352 969.103 994.896 978.954 1006.67 978.954Z" fill="black"/>
</svg>
