<svg width="1760" height="1760" viewBox="0 0 1760 1760" fill="none" xmlns="http://www.w3.org/2000/svg">
<rect width="1760" height="1760" fill="white"/>
<path d="M691.618 517.647C621.712 537.653 623.276 612.023 500.158 607.674C478.768 606.804 454.25 609.848 439.643 623.33C431.296 631.158 428.166 641.596 425.036 651.599C413.559 690.306 404.69 736.841 439.121 764.24C449.555 772.938 463.64 778.157 474.595 786.421C514.244 815.56 509.549 866.879 501.202 910.37C498.594 925.157 495.463 940.378 486.073 952.99C463.118 982.564 410.95 988.219 388.517 1017.79C369.215 1043.02 378.084 1075.63 386.952 1104.34C399.994 1144.79 413.037 1185.67 426.079 1226.11C431.817 1243.51 437.556 1261.34 451.12 1275.69C472.51 1298.31 508.505 1307.01 542.936 1310.49C580.498 1314.4 618.581 1313.1 655.621 1307.01C689.009 1301.35 724.485 1289.61 739.614 1263.95C751.612 1243.08 746.916 1218.28 746.916 1195.23C746.916 1154.79 764.654 1113.04 802.215 1087.81C839.777 1062.59 898.728 1057.8 936.289 1083.03C957.157 1096.95 969.677 1117.39 978.546 1138.26C990.545 1166.53 997.327 1196.54 998.37 1226.55C999.414 1256.99 995.24 1290.48 1017.67 1314.4C1036.98 1334.41 1069.32 1341.36 1100.1 1344.84C1148.09 1350.5 1197.13 1350.5 1245.13 1345.71C1272.26 1343.1 1299.91 1337.89 1321.3 1323.53C1347.38 1305.7 1357.29 1276.56 1364.07 1249.16C1373.46 1210.89 1378.16 1171.32 1378.16 1132.17C1378.16 1111.3 1376.59 1089.55 1361.99 1072.59C1346.34 1054.76 1319.21 1047.37 1295.73 1036.93C1272.26 1026.49 1249.82 1006.92 1254.52 985.174C1260.78 955.166 1309.3 949.077 1336.95 929.071C1358.86 912.979 1367.2 887.754 1372.94 863.834C1390.16 794.684 1396.42 723.794 1396.94 653.339C1396.94 612.892 1404.24 567.662 1377.12 534.174C1354.68 506.34 1332.25 475.462 1274.86 455.456C1261.3 450.672 1244.09 453.28 1231.56 459.804C1215.91 467.632 1207.57 483.724 1199.74 497.207C1175.74 538.523 1142.36 579.839 1091.23 597.235C907.597 659.862 836.125 475.895 691.618 518.081V517.647Z" fill="#2667FF" stroke="black" stroke-width="20" stroke-miterlimit="10"/>
<path d="M826.208 916.456C824.643 927.329 823.601 939.508 828.818 948.641C834.556 958.644 845.512 960.818 855.424 962.123C897.159 967.777 939.415 968.646 981.672 964.732C991.062 963.862 1000.45 962.558 1008.8 956.904C1026.54 944.727 1030.71 916.023 1032.8 891.668C1035.93 852.961 1034.88 804.25 1005.67 787.724C995.757 782.07 983.759 782.07 972.804 782.07C940.981 782.94 909.158 786.42 877.856 792.509C868.466 794.248 858.554 796.422 851.772 804.251C844.99 812.079 830.382 887.318 826.73 916.892L826.208 916.456Z" fill="white" stroke="black" stroke-width="20" stroke-miterlimit="10"/>
<path d="M873.682 839.478C887.511 839.478 898.723 830.715 898.723 819.907C898.723 809.098 887.511 800.336 873.682 800.336C859.852 800.336 848.642 809.098 848.642 819.907C848.642 830.715 859.852 839.478 873.682 839.478Z" fill="black"/>
</svg>
