<svg width="1760" height="1760" viewBox="0 0 1760 1760" fill="none" xmlns="http://www.w3.org/2000/svg">
<rect width="1760" height="1760" fill="white"/>
<path d="M640.843 568.905C609.39 563.661 578.42 554.383 546.482 553.576C537.288 553.576 527.61 553.576 519.384 557.61C503.899 565.275 501.481 582.621 500.997 597.547C498.577 654.024 496.641 710.501 494.222 766.575C492.286 821.035 484.544 884.37 429.379 914.222C410.507 924.307 351.471 931.165 349.051 972.716C346.632 1017.09 430.346 1032.02 445.347 1044.12C476.317 1069.13 471.478 1092.53 468.575 1128.43C465.672 1164.33 456.961 1207.9 458.896 1243.81C460.832 1279.71 482.608 1295.04 521.804 1309.56C558.581 1323.28 610.842 1326.1 649.07 1314.4C665.523 1309.16 682.459 1303.91 695.04 1293.83C714.88 1278.1 721.17 1254.29 726.493 1231.7C735.687 1192.98 745.85 1153.44 766.174 1117.54C786.497 1081.64 818.919 1048.96 861.986 1032.82C905.054 1016.69 960.702 1019.11 996.026 1045.73C1037.16 1076.39 1042 1127.62 1045.87 1173.21C1049.74 1218.79 1060.39 1270.83 1106.36 1296.25C1135.39 1312.38 1172.17 1313.6 1207.01 1312.79C1255.88 1311.17 1307.66 1304.72 1343.95 1277.29C1372.99 1255.1 1387.5 1221.22 1384.6 1188.54C1381.7 1155.86 1363.31 1124.8 1335.24 1101.81C1320.24 1089.3 1301.85 1078.81 1290.24 1063.89C1278.63 1048.96 1273.79 1027.98 1287.34 1013.86C1307.18 993.693 1346.85 1002.97 1375.4 992.079C1403.95 981.187 1416.05 950.529 1409.28 925.115C1402.5 899.7 1381.7 877.916 1359.44 859.359C1337.18 840.802 1312.98 823.455 1296.53 800.865C1251.04 739.547 1275.24 661.286 1272.82 589.48C1272.33 569.713 1268.95 548.332 1253.95 533.003C1243.3 522.111 1229.75 510.412 1212.81 508.798C1085.55 497.099 1049.26 438.201 1036.19 439.008C1012.96 440.218 969.897 489.837 900.215 532.195C837.308 570.519 767.625 589.479 640.359 567.695L640.843 568.905Z" fill="#FFF570" stroke="black" stroke-width="20" stroke-miterlimit="10"/>
<path d="M780.207 847.661C778.756 857.747 777.787 869.042 782.626 877.513C787.949 886.792 798.112 888.809 807.306 890.019C846.018 895.263 885.214 896.07 924.41 892.439C933.121 891.632 941.83 890.422 949.573 885.178C966.025 873.883 969.896 847.258 971.832 824.667C974.735 788.764 973.768 743.583 946.669 728.253C937.475 723.009 926.345 723.009 916.183 723.009C886.665 723.816 857.147 727.042 828.113 732.69C819.403 734.304 810.209 736.322 803.918 743.583C797.627 750.844 784.079 820.634 780.692 848.065L780.207 847.661Z" fill="white" stroke="black" stroke-width="20" stroke-miterlimit="10"/>
<path d="M881.345 771.015C891.234 771.015 899.25 761.984 899.25 750.845C899.25 739.705 891.234 730.674 881.345 730.674C871.457 730.674 863.441 739.705 863.441 750.845C863.441 761.984 871.457 771.015 881.345 771.015Z" fill="black"/>
</svg>
