<svg width="1760" height="1760" viewBox="0 0 1760 1760" fill="none" xmlns="http://www.w3.org/2000/svg">
<rect width="1760" height="1760" fill="white"/>
<path d="M727.151 424.364C675.621 422.182 629.916 447.642 598.101 480.378C566.287 513.114 535.817 550.942 487.423 565.128C470.844 570.22 452.025 572.039 438.134 581.132C418.419 593.863 414.385 616.414 411.696 636.783C401.838 714.985 394.669 801.553 452.472 864.479C474.429 888.485 504.451 907.398 521.03 933.95C537.609 960.503 533.129 999.786 499.074 1011.43C477.566 1018.7 448.439 1013.24 432.756 1027.43C420.21 1038.71 423.795 1057.26 434.549 1069.62C445.303 1081.99 460.986 1091.08 473.981 1102C492.801 1118 505.348 1139.09 509.38 1161.28C512.965 1181.65 509.38 1202.38 513.413 1222.75C521.031 1260.58 555.534 1292.59 597.654 1310.78C639.774 1328.96 687.719 1334.78 735.216 1335.87C790.331 1337.33 853.512 1328.96 882.638 1291.13C898.321 1270.77 901.01 1244.94 896.977 1220.93C892.944 1195.84 883.087 1171.1 887.568 1146.01C895.633 1099.81 960.157 1066.35 1015.27 1079.81C1091.9 1098.72 1114.3 1180.2 1181.07 1215.84C1242.9 1248.94 1335.66 1230.03 1377.33 1180.2C1419 1130.37 1410.04 1058.35 1362.99 1011.79C1341.03 989.966 1311.46 972.871 1293.54 948.501C1256.34 898.306 1278.3 834.652 1297.12 778.274C1315.94 721.895 1328.04 654.241 1278.75 611.321C1265.75 600.046 1247.38 591.316 1229.01 594.59C1216.02 596.772 1203.02 602.592 1195.85 611.685C1139.39 681.158 1078.9 680.066 1035.44 684.067C885.327 697.889 879.501 638.965 866.955 590.225C858.441 555.671 897.873 431.275 727.151 424V424.364Z" fill="#424242" stroke="black" stroke-width="20" stroke-miterlimit="10"/>
<path d="M966.881 823.012C974.947 834.288 966.881 861.203 949.405 879.39C922.072 907.397 870.094 920.128 825.733 909.216C781.373 898.304 747.766 864.841 745.974 829.559C745.974 827.74 745.974 825.558 747.318 823.739C749.11 821.557 752.695 820.466 755.832 819.375C829.318 800.097 954.783 805.916 966.881 822.648V823.012Z" fill="#FAFCFF" stroke="black" stroke-width="20" stroke-miterlimit="10"/>
<path d="M890.703 895.031C898.127 895.031 904.146 890.145 904.146 884.119C904.146 878.092 898.127 873.207 890.703 873.207C883.279 873.207 877.261 878.092 877.261 884.119C877.261 890.145 883.279 895.031 890.703 895.031Z" fill="black" stroke="black" stroke-width="20" stroke-miterlimit="10"/>
</svg>
