<svg width="1760" height="1760" viewBox="0 0 1760 1760" fill="none" xmlns="http://www.w3.org/2000/svg">
<rect width="1760" height="1760" fill="white"/>
<path d="M556.054 487.345C505.718 487.345 448.112 485.481 433.571 526.044C425.741 547.958 431.335 571.27 432.453 594.116C435.25 650.066 410.64 704.151 394.981 758.702C379.321 813.253 372.05 874.332 407.285 922.356C430.775 954.527 469.925 976.44 498.448 1005.35C534.242 1041.72 552.698 1090.2 548.783 1137.3C545.986 1167.6 535.361 1199.77 551.02 1226.82C571.714 1262.72 627.083 1272.04 674.063 1275.77C874.845 1291.62 1302.69 1282.77 1320.03 1274.37C1360.3 1254.32 1371.49 1187.65 1375.96 1148.95C1379.32 1120.98 1380.99 1091.6 1368.13 1065.49C1341.28 1009.54 1185.8 1016.07 1185.8 920.956C1185.8 805.792 1344.64 900.908 1329.54 709.28C1325.07 653.33 1198.11 662.189 1073.39 623.49C870.37 561.013 932.449 510.658 866.454 487.812C788.714 461.235 689.722 487.812 556.054 487.812V487.345Z" fill="#FF82C1" stroke="black" stroke-width="20" stroke-miterlimit="10"/>
<path d="M745.09 758.236C762.427 749.378 803.814 757.304 832.337 775.022C876.521 802.531 897.214 856.615 881.554 902.774C865.895 949.398 815.56 985.3 761.309 987.631C758.513 987.631 755.157 987.63 752.361 986.698C749.005 984.833 746.768 981.103 745.65 977.839C713.771 902.307 718.804 771.291 745.09 758.236Z" fill="#FAFCFF" stroke="black" stroke-width="20" stroke-miterlimit="10"/>
<path d="M822.268 960.124C831.534 960.124 839.045 953.861 839.045 946.136C839.045 938.411 831.534 932.149 822.268 932.149C813.001 932.149 805.488 938.411 805.488 946.136C805.488 953.861 813.001 960.124 822.268 960.124Z" fill="black" stroke="black" stroke-width="20" stroke-miterlimit="10"/>
</svg>
