<svg width="1760" height="1760" viewBox="0 0 1760 1760" fill="none" xmlns="http://www.w3.org/2000/svg">
<rect width="1760" height="1760" fill="white"/>
<path d="M609 881.403C571.126 860.858 537.156 818.959 531.264 776.612C527.056 748.102 532.105 719.173 530.422 690.662C528.739 662.152 519.481 631.126 495.073 615.613C489.602 612.259 483.289 609.743 478.239 605.55C460.985 592.972 456.778 568.235 462.248 547.272C467.719 526.308 481.185 509.118 494.231 491.928C503.91 479.35 516.535 465.095 532.526 466.353C550.622 467.611 561.143 486.478 577.134 494.863C593.967 503.668 614.588 499.056 630.579 489.413C646.571 479.77 658.775 464.676 671.399 450.84C689.074 431.554 708.432 413.525 729.053 396.754C763.14 369.082 808.589 345.184 849.409 361.116C877.184 372.017 895.279 399.27 907.062 426.522C918.845 453.775 927.683 483.124 945.358 507.441C963.032 531.759 993.332 549.788 1022.37 542.241C1034.15 539.306 1044.67 532.178 1056.88 531.759C1069.08 531.759 1080.44 538.048 1089.7 546.014C1127.15 577.879 1142.3 630.287 1180.18 661.733C1191.54 671.376 1204.59 678.503 1215.95 687.727C1250.88 715.399 1270.66 760.68 1267.71 804.703C1263.5 863.82 1221.84 912.036 1189.02 961.51C1156.19 1010.98 1131.36 1076.39 1161.66 1127.54C1177.65 1154.79 1206.69 1172.82 1221.84 1200.49C1241.62 1237.81 1230.68 1285.19 1205.85 1319.15C1175.13 1361.49 1125.47 1387.07 1074.13 1397.55C1022.79 1408.03 969.765 1404.26 918.004 1396.71C881.392 1391.26 844.78 1384.13 812.376 1366.52C779.972 1348.92 752.198 1319.99 744.202 1283.93C731.157 1226.49 770.294 1170.73 778.289 1112.03C785.023 1063.39 769.452 1013.08 739.573 974.088C708.853 933.838 661.299 909.521 602.804 878.076L609 881.403Z" fill="#FF3B83" stroke="black" stroke-width="20" stroke-miterlimit="10"/>
<path d="M890.65 1113.71C840.993 1143.89 841.835 1229.42 872.555 1281C877.605 1289.38 883.496 1296.93 890.65 1302.8C900.329 1310.34 912.113 1314.12 923.896 1316.21C966.82 1324.18 1014.37 1311.6 1044.25 1278.06C1074.13 1244.52 1081.71 1188.76 1056.88 1150.6C1041.73 1127.12 1016.48 1112.45 989.965 1106.16C963.453 1099.87 931.891 1088.97 890.65 1113.71Z" fill="white" stroke="black" stroke-width="20" stroke-miterlimit="10"/>
<path d="M963.875 1239.49C975.496 1239.49 984.917 1229.54 984.917 1217.27C984.917 1204.99 975.496 1195.05 963.875 1195.05C952.255 1195.05 942.834 1204.99 942.834 1217.27C942.834 1229.54 952.255 1239.49 963.875 1239.49Z" fill="black"/>
</svg>
