<svg width="1760" height="1760" viewBox="0 0 1760 1760" fill="none" xmlns="http://www.w3.org/2000/svg">
<rect width="1760" height="1760" fill="white"/>
<path d="M929.55 531.178C885.036 525.731 838.89 529.817 802.136 551.265C765.382 572.713 737.613 603.353 709.435 632.631C681.257 661.909 650.629 690.847 611.017 708.21C584.064 719.785 551.803 727.276 536.284 749.064C517.907 774.938 532.608 811.024 513.823 836.558C496.263 860.389 456.242 865.837 434.598 887.285C418.263 903.626 414.995 928.479 428.064 946.863C451.341 979.205 509.739 980.907 538.326 1010.19C569.771 1041.51 553.843 1087.81 549.351 1128.32C548.126 1141.26 548.535 1155.9 559.969 1165.09C567.32 1171.22 578.347 1173.6 588.556 1175.64C661.656 1189.26 738.43 1190.28 811.938 1178.37C829.09 1175.64 847.057 1171.9 859.309 1161.68C877.686 1147.05 879.728 1122.87 877.277 1101.77C874.827 1080.66 869.519 1058.53 878.095 1038.1C890.755 1007.46 932.817 990.099 971.205 993.163C1007.96 995.887 1042.67 1015.29 1059.41 1042.87C1071.67 1062.96 1074.93 1085.76 1081.87 1107.21C1088.82 1128.66 1101.07 1151.13 1124.35 1162.36C1138.23 1168.83 1154.16 1170.54 1170.08 1172.24C1197.04 1174.96 1224.4 1177.34 1251.76 1179.39C1286.47 1182.11 1323.63 1183.47 1353.04 1168.15C1397.55 1144.66 1404.08 1093.94 1404.08 1050.02C1404.08 1018.7 1401.63 984.992 1377.54 961.161C1347.73 931.542 1293.41 925.755 1265.23 895.115C1247.67 876.05 1243.59 850.176 1245.22 826.004C1246.86 801.832 1253.39 778.001 1253.8 753.83C1253.8 744.978 1252.98 735.446 1247.27 727.957C1236.65 713.658 1213.78 710.934 1194.59 707.189C1152.93 698.678 1094.53 678.932 1067.17 651.696C1046.75 630.929 1038.59 544.456 929.958 530.838L929.55 531.178Z" fill="#DAD4FF" stroke="black" stroke-width="20" stroke-miterlimit="10"/>
<path d="M807.445 846.433C806.22 860.051 805.403 875.37 809.895 886.605C814.796 898.861 823.78 901.925 831.948 903.627C866.66 910.436 902.189 911.798 936.901 907.032C944.66 906.011 952.419 904.649 959.361 897.5C974.063 881.839 977.33 846.433 978.964 815.452C981.822 766.768 980.596 705.489 956.502 685.062C947.926 677.912 938.534 677.572 929.142 677.913C902.597 678.934 876.053 683.359 849.917 690.849C842.157 693.232 833.99 695.956 827.864 705.489C821.738 715.021 810.303 809.665 807.036 846.774L807.445 846.433Z" fill="white" stroke="black" stroke-width="20" stroke-miterlimit="10"/>
<path d="M958.138 826.005C972.122 826.005 983.458 813.811 983.458 798.769C983.458 783.728 972.122 771.534 958.138 771.534C944.155 771.534 932.819 783.728 932.819 798.769C932.819 813.811 944.155 826.005 958.138 826.005Z" fill="black"/>
</svg>
