<svg width="1760" height="1760" viewBox="0 0 1760 1760" fill="none" xmlns="http://www.w3.org/2000/svg">
<rect width="1760" height="1760" fill="white"/>
<path d="M690.782 433.467L533.659 430.479C516.334 430.479 497.814 430.478 482.878 437.949C452.41 453.887 455.995 490.244 453.605 520.126C451.215 548.515 439.864 575.907 421.344 599.315C405.213 619.735 383.109 637.665 373.551 660.575C359.213 693.446 372.355 729.306 375.939 763.671C380.121 801.523 372.953 839.871 374.745 878.221C376.537 916.57 389.084 956.912 424.332 981.317C461.372 1007.22 515.737 1010.7 550.387 1038.59C588.622 1068.97 591.011 1118.28 591.011 1162.11C591.011 1199.96 591.011 1237.81 591.011 1275.66C591.011 1288.11 591.012 1300.56 596.986 1311.52C608.935 1334.43 641.196 1344.39 670.47 1351.86C729.017 1366.8 789.356 1381.25 850.89 1379.25C912.425 1377.26 975.753 1355.35 1008.61 1312.02C1037.88 1273.67 1037.88 1225.36 1046.25 1180.53C1054.61 1135.71 1077.91 1086.4 1129.29 1070.47C1163.34 1060.01 1202.18 1067.48 1238.02 1062C1284.62 1055.53 1324.05 1027.63 1349.14 994.265C1374.23 960.896 1386.78 922.05 1397.53 883.7C1404.7 856.308 1410.08 823.934 1388.57 802.02C1371.25 784.09 1341.37 778.114 1319.27 764.667C1283.42 742.753 1270.88 702.91 1264.31 665.556C1257.14 622.724 1254.15 579.394 1256.54 536.064C1258.33 501.201 1259.53 459.864 1226.07 439.942C1201.58 425.498 1168.12 428.486 1138.25 431.474C1006.22 445.42 872.397 436.953 691.378 433.467H690.782Z" fill="#FFF570" stroke="black" stroke-width="20" stroke-miterlimit="10"/>
<path d="M740.966 895.156C739.174 915.077 737.979 937.489 744.55 953.925C751.719 971.854 764.863 976.337 776.812 978.827C827.592 988.788 879.567 990.78 930.348 983.808C941.699 982.314 953.051 980.321 963.207 969.862C984.714 946.952 989.494 895.156 991.884 849.833C996.066 778.613 994.272 688.965 959.025 659.083C946.479 648.624 932.739 648.126 918.998 648.624C880.166 650.118 841.333 656.592 803.098 667.549C791.747 671.035 779.798 675.02 770.837 688.966C761.876 702.911 745.147 841.367 740.368 895.654L740.966 895.156Z" fill="white" stroke="black" stroke-width="20" stroke-miterlimit="10"/>
<path d="M786.37 857.8C806.827 857.8 823.41 839.962 823.41 817.957C823.41 795.952 806.827 778.112 786.37 778.112C765.913 778.112 749.328 795.952 749.328 817.957C749.328 839.962 765.913 857.8 786.37 857.8Z" fill="black"/>
</svg>
