<svg width="1760" height="1760" viewBox="0 0 1760 1760" fill="none" xmlns="http://www.w3.org/2000/svg">
<rect width="1760" height="1760" fill="white"/>
<path d="M824.377 412.731C785.702 399.633 740.582 410.38 707.144 430.867C672.901 452.025 647.52 481.915 623.349 511.134C604.012 534.307 606.026 562.518 593.134 587.707C560.1 651.854 502.895 667.639 494.435 680.737C488.392 689.805 488.392 700.552 488.392 710.963C488.392 754.623 492.018 798.284 498.463 841.608C501.686 861.423 505.714 882.581 521.425 897.694C536.734 912.471 560.101 919.86 575.006 934.973C599.178 959.826 592.732 1009.87 575.812 1038.75C512.966 1147.23 443.271 1101.22 399.762 1117.34C356.253 1133.46 363.908 1177.79 358.268 1218.43C355.851 1236.9 353.836 1256.04 360.685 1273.84C371.159 1300.37 400.568 1319.52 432.394 1328.59C464.22 1337.65 498.463 1338.66 531.9 1339.33C748.639 1344.03 965.377 1349.07 1182.12 1353.77C1232.88 1354.78 1291.69 1353.1 1322.31 1319.18C1341.65 1298.02 1344.07 1269.81 1345.68 1243.28C1360.18 1016.92 1375.09 790.559 1381.53 563.862C1381.53 555.466 1381.53 546.062 1375.09 539.681C1369.45 534.307 1360.58 532.293 1351.72 530.95C1267.12 517.516 1206.29 525.24 1197.83 531.621C1160.36 560.504 1186.55 675.7 1145.86 714.658C1128.53 731.45 1088.65 800.298 926.3 758.989C888.028 749.249 774.825 693.835 852.979 589.051C881.582 550.764 966.183 461.094 823.57 412.396L824.377 412.731Z" fill="#442FBD" stroke="black" stroke-width="20" stroke-miterlimit="10"/>
<path d="M1022.98 1092.15C1037.49 1093.49 1053.6 1094.84 1066.09 1093.49C1079.39 1091.82 1083.01 1087.11 1085.03 1082.75C1093.89 1064.61 1096.71 1046.14 1093.08 1027.67C1092.28 1023.64 1091.07 1019.27 1083.82 1015.24C1067.7 1006.51 1030.24 1002.82 997.201 999.793C945.635 995.427 880.372 992.404 857.409 1003.82C849.352 1007.85 848.949 1012.89 848.949 1017.93C848.949 1032.03 852.575 1046.14 859.424 1060.58C861.438 1064.95 864.258 1069.31 873.926 1073.01C883.595 1076.7 983.908 1088.46 1023.39 1092.49L1022.98 1092.15Z" fill="white" stroke="black" stroke-width="20" stroke-miterlimit="10"/>
<path d="M999.723 1011.56C1000.2 1003.78 993.193 997.161 984.082 996.776C974.972 996.391 967.203 1002.39 966.73 1010.17C966.257 1017.95 973.26 1024.57 982.37 1024.95C991.481 1025.34 999.25 1019.34 999.723 1011.56Z" fill="black"/>
</svg>
