<svg width="1760" height="1760" viewBox="0 0 1760 1760" fill="none" xmlns="http://www.w3.org/2000/svg">
<rect width="1760" height="1760" fill="white"/>
<path d="M815.905 419C776.531 419 737.62 428.654 719.091 457.617C700.562 486.58 699.172 520.564 693.614 553.002C688.055 585.441 676.938 619.81 645.901 639.891C608.843 663.834 554.646 659.2 512.955 641.049C494.426 632.94 475.434 621.741 455.052 625.603C424.942 631.395 417.067 663.447 415.677 689.321C405.949 853.058 395.758 1017.18 386.03 1180.92C384.64 1200.61 383.715 1220.7 389.737 1239.62C401.317 1276.3 438.838 1303.72 480.065 1320.33C549.086 1347.75 632.931 1347.75 701.952 1320.33C717.701 1314.15 733.451 1306.43 745.031 1295.23C756.612 1284.03 763.561 1270.51 769.12 1256.61C787.186 1211.04 789.965 1162.38 806.641 1116.81C823.318 1071.25 860.376 1025.68 916.426 1014.87C976.182 1003.67 1042.42 1043.06 1048.91 1094.03C1052.15 1120.29 1041.5 1146.55 1037.33 1172.81C1033.16 1199.07 1038.26 1229.58 1064.2 1245.41C1075.31 1252.36 1089.67 1255.45 1103.11 1257.38C1192.51 1269.74 1288.86 1233.83 1337.96 1170.49C1387.07 1107.16 1386.6 1019.11 1336.11 956.167C1320.82 937.244 1301.83 920.639 1288.86 900.558C1262.92 861.554 1261.99 815.214 1261.53 770.804C1260.6 684.688 1249.49 599.343 1248.56 513.226C1248.56 483.877 1255.05 448.35 1224.47 432.903C1209.65 425.566 1191.12 424.407 1173.98 424.02C1054 419.773 931.249 419.773 815.905 419.773V419Z" fill="#FF82C1" stroke="black" stroke-width="20" stroke-miterlimit="10"/>
<path d="M834.434 717.512C901.602 616.335 984.056 692.41 987.298 781.23C992.394 929.134 870.101 929.134 832.117 898.241C781.625 857.306 807.102 758.832 834.896 717.512H834.434Z" fill="white" stroke="black" stroke-width="20" stroke-miterlimit="10"/>
<path d="M855.567 788.978C857.78 776.531 851.572 765.45 841.703 764.231C831.833 763.012 822.039 772.115 819.826 784.562C817.613 797.01 823.82 808.089 833.689 809.308C843.559 810.527 853.354 801.425 855.567 788.978Z" fill="black"/>
</svg>
