<svg width="1760" height="1760" viewBox="0 0 1760 1760" fill="none" xmlns="http://www.w3.org/2000/svg">
<g clip-path="url(#clip0_10_817)">
<path d="M1760 0H0V1760H1760V0Z" fill="white"/>
<path d="M667.223 626.669C600.214 623.86 527.588 585.326 523.174 632.289C518.359 686.075 517.556 766.354 521.569 820.14C523.575 846.632 526.383 873.525 536.013 898.412C548.452 930.523 571.324 957.015 586.973 987.521C621.882 1055.36 617.468 1144.46 567.713 1202.27C560.089 1211.5 550.861 1219.93 546.848 1231.17C542.434 1242.81 543.637 1256.05 546.045 1268.49C557.28 1325.09 592.992 1379.68 647.161 1398.95C701.33 1418.21 771.949 1389.31 785.592 1333.52C791.209 1311.04 787.599 1286.16 798.834 1265.69C809.668 1245.21 833.342 1233.97 856.614 1231.57C879.887 1229.16 902.758 1234.38 925.629 1239.59C974.582 1250.83 1023.53 1262.07 1072.49 1273.71C1088.14 1277.33 1104.19 1280.94 1119.83 1277.73C1137.09 1274.11 1151.53 1262.88 1165.18 1252.04C1196.47 1227.15 1230.18 1199.05 1239.01 1159.72C1250.64 1109.14 1209.71 1053.35 1158.35 1049.34C1150.33 1048.53 1141.1 1048.53 1135.48 1042.51C1132.67 1039.3 1131.47 1034.88 1130.67 1030.87C1109.8 945.374 1117.83 853.054 1153.14 772.375C1162.37 751.101 1173.6 730.229 1180.82 707.751C1195.67 661.992 1182.83 709.356 1184.84 450.459C1184.84 425.572 1193.67 387.44 1174.81 370.983C1158.35 356.934 1134.28 357.336 1112.61 358.54C1080.51 360.547 1048.41 362.152 1016.31 364.159C1006.28 364.561 995.848 365.364 987.021 370.582C970.971 379.814 965.353 400.285 962.544 418.347C954.519 465.712 963.346 552.412 927.234 592.551C875.873 649.549 721.392 628.677 668.026 626.268L667.223 626.669Z" fill="#424242" stroke="#140202" stroke-width="20" stroke-miterlimit="10"/>
<path d="M791.613 857.871C785.193 857.871 779.977 863.089 779.977 869.512C779.977 887.976 780.378 924.101 787.199 943.769C796.428 971.064 816.089 996.352 843.374 1004.78C853.004 1007.99 863.436 1008.79 873.468 1008.39C892.326 1008.39 911.587 1003.98 926.433 992.739C940.477 981.901 949.706 965.444 954.521 948.184C958.534 934.136 960.941 887.173 961.743 870.314C961.743 866.702 959.336 863.892 955.725 863.892L791.613 857.871Z" fill="white" stroke="black" stroke-width="20" stroke-miterlimit="10"/>
<path d="M926.432 969.86C933.08 969.86 938.469 964.469 938.469 957.818C938.469 951.168 933.08 945.777 926.432 945.777C919.784 945.777 914.395 951.168 914.395 957.818C914.395 964.469 919.784 969.86 926.432 969.86Z" fill="black" stroke="#140202" stroke-width="20" stroke-miterlimit="10"/>
</g>
<defs>
<clipPath id="clip0_10_817">
<rect width="1760" height="1760" fill="white"/>
</clipPath>
</defs>
</svg>
