<svg width="1760" height="1760" viewBox="0 0 1760 1760" fill="none" xmlns="http://www.w3.org/2000/svg">
<rect width="1760" height="1760" fill="white"/>
<path d="M774.074 365.526C711.729 343.005 689.215 409.702 678.824 451.714C668.433 493.725 658.908 545.264 617.778 559.123C584.873 570.384 542.877 551.327 517.766 575.148C509.54 582.511 505.211 593.339 501.315 603.733C467.111 689.488 432.474 776.108 420.785 867.493C412.992 926.828 419.486 996.125 467.111 1032.51C494.82 1053.29 535.084 1062.39 547.639 1094.87C565.823 1141.65 509.972 1182.79 497.417 1231.3C486.16 1275.48 512.57 1320.95 546.341 1351.7C616.912 1417.1 727.316 1440.06 813.906 1398.48C835.121 1388.08 855.037 1374.22 869.324 1356.03C909.589 1304.5 909.155 1220.47 967.171 1191.02C1031.68 1158.11 1102.69 1222.64 1174.99 1230.43C1228.24 1236.5 1283.23 1207.48 1311.37 1161.57C1339.51 1115.66 1340.38 1055.46 1316.13 1007.39C1297.51 970.572 1226.08 935.923 1250.76 903.008C1391.9 709.41 1333.88 634.484 1307.9 608.93C1266.34 567.352 1227.81 581.645 1202.26 579.046C1002.24 559.123 954.182 431.791 774.074 366.825V365.526Z" fill="#DAD4FF" stroke="#140202" stroke-width="20" stroke-miterlimit="10"/>
<path d="M979.293 899.976C990.983 912.536 1003.11 925.529 1007.44 941.987C1011.76 958.445 1006.14 980.1 989.252 989.628C962.842 1005.22 933.833 983.565 904.826 980.966C872.354 978.367 841.182 1000.02 808.278 1006.95C800.918 1008.68 793.124 1009.12 787.062 1006.52C774.94 1000.89 774.94 984.431 779.27 971.438C783.599 958.445 791.393 945.885 790.527 932.892C789.228 913.835 770.611 902.141 756.323 889.581C742.036 877.021 731.645 854.067 746.798 839.341C765.848 820.718 799.618 838.042 822.131 823.316C838.584 812.056 839.018 790.401 839.451 772.643C839.884 754.886 846.811 731.498 866.293 727.167C886.209 722.836 898.765 743.192 901.796 760.949C904.827 779.14 905.692 800.362 921.711 809.457C941.627 821.151 975.397 806.425 991.416 822.883C1000.94 832.845 998.776 849.303 992.715 862.729C986.653 876.155 977.563 889.148 978.861 899.543L979.293 899.976Z" fill="white" stroke="black" stroke-width="20" stroke-miterlimit="10"/>
<path d="M976.454 921.356C988.471 914.429 992.599 899.07 985.675 887.049C978.751 875.028 963.397 870.898 951.381 877.824C939.364 884.751 935.235 900.111 942.159 912.131C949.083 924.152 964.437 928.282 976.454 921.356Z" fill="black"/>
</svg>
