<svg width="1760" height="1760" viewBox="0 0 1760 1760" fill="none" xmlns="http://www.w3.org/2000/svg">
<rect width="1760" height="1760" fill="white"/>
<path d="M838.73 343.558C798.122 327.705 754.542 355.943 722.847 386.162C691.153 416.381 658.962 452.051 615.383 455.023C574.774 457.5 525.747 432.73 498.51 462.949C483.653 479.793 485.138 504.563 485.138 526.856C486.128 603.643 460.873 680.925 415.312 742.85C405.407 755.731 394.511 768.611 391.045 784.464C381.14 824.591 418.282 859.269 443.539 892.461C490.09 953.89 494.547 1051.98 436.111 1102.51C423.235 1113.9 407.882 1122.33 396.987 1135.7C381.14 1155.52 378.169 1182.27 375.693 1207.54C371.731 1248.16 368.759 1292.74 392.53 1325.44C421.254 1365.57 477.215 1372.5 526.242 1375.97C660.449 1385.38 794.656 1394.8 928.862 1404.21C967.985 1407.18 1008.59 1409.66 1045.73 1397.27C1082.88 1384.89 1117.05 1354.17 1121.01 1315.53C1122.99 1297.2 1118.04 1278.87 1120.51 1260.54C1124.97 1226.36 1157.66 1198.12 1191.83 1198.62C1214.61 1198.62 1237.39 1210.01 1259.67 1205.55C1304.74 1196.14 1313.16 1136.2 1311.67 1089.63C1308.2 992.532 1305.23 894.938 1323.06 799.326C1338.41 715.603 1369.61 634.853 1384.47 551.13C1386.95 538.25 1388.43 524.874 1382.49 512.985C1368.62 485.242 1328.01 491.682 1298.3 499.609C1226 518.929 1149.73 522.397 1076.44 509.021C1027.41 500.104 976.403 482.27 944.708 443.133C915.985 407.96 900.139 367.833 838.73 343.558Z" fill="#FFF570" stroke="black" stroke-width="20" stroke-miterlimit="10"/>
<path d="M719.877 884.039C712.944 869.672 721.858 835.985 739.686 813.692C767.419 779.014 817.437 764.648 859.036 779.51C900.635 794.372 930.844 836.976 930.349 881.562C930.349 884.039 930.349 886.516 928.863 888.993C926.882 891.965 923.415 892.956 920.443 893.947C849.626 916.24 730.772 905.837 719.877 884.039Z" fill="#FAFCFF" stroke="black" stroke-width="20" stroke-miterlimit="10"/>
<path d="M748.104 885.03C754.941 885.03 760.484 879.485 760.484 872.645C760.484 865.805 754.941 860.26 748.104 860.26C741.266 860.26 735.723 865.805 735.723 872.645C735.723 879.485 741.266 885.03 748.104 885.03Z" fill="black" stroke="#140202" stroke-width="20" stroke-miterlimit="10"/>
</svg>
