<svg width="1760" height="1760" viewBox="0 0 1760 1760" fill="none" xmlns="http://www.w3.org/2000/svg">
<rect width="1760" height="1760" fill="white"/>
<path d="M804 388.397C772.999 381.506 743.057 407.349 736.598 438.361C725.403 491.77 728.849 579.637 683.639 598.158C670.291 603.757 635.845 604.187 603.553 605.48C560.065 607.203 546.718 670.087 537.676 693.346C476.966 852.712 495.48 978.482 489.452 1148.62C488.591 1180.06 487.73 1212.36 499.356 1241.65C511.412 1271.37 535.093 1294.2 560.927 1313.15C678.041 1400.16 849.838 1410.92 969.967 1328.66C1010.44 1300.66 1045.75 1261.89 1058.23 1214.09C1066.84 1181.78 1064.69 1147.32 1069 1114.16C1076.75 1056.01 1113.35 995.28 1171.04 984.081C1201.61 978.051 1236.92 985.373 1260.17 965.13C1271.79 954.792 1277.82 939.717 1282.99 924.642C1298.49 879.848 1310.55 833.761 1319.16 786.812C1331.21 719.62 1335.95 650.274 1324.32 582.652C1314.42 525.797 1277.82 474.972 1288.59 418.117C1291.17 404.765 1295.91 370.738 1283.85 359.97C1261.03 339.296 1190.42 337.142 1152.53 345.756C1096.55 357.816 1087.51 379.352 1087.51 418.548C1087.51 486.171 1056.08 568.438 1014.75 587.39C839.935 667.503 854.575 484.879 849.408 455.159C845.533 432.331 836.723 395.289 804 388.397Z" fill="#5CFF37" stroke="#140202" stroke-width="20" stroke-miterlimit="10"/>
<path d="M760.711 1016.39C759.849 1030.6 759.418 1046.54 762.432 1058.16C765.876 1071.09 771.905 1074.1 777.502 1075.82C801.614 1083.15 825.725 1084.01 849.837 1079.27C855.004 1078.41 860.602 1076.69 865.338 1069.36C875.672 1053.43 877.825 1016.39 879.117 984.512C880.839 934.118 880.408 870.802 863.616 849.697C857.588 842.375 851.129 841.944 844.671 842.375C826.587 843.667 808.073 847.974 789.989 855.727C784.822 857.88 778.794 860.896 774.919 870.802C771.044 880.709 762.863 978.482 760.711 1016.82V1016.39Z" fill="white" stroke="black" stroke-width="20" stroke-miterlimit="10"/>
<path d="M855.004 985.804C868.796 985.804 879.977 975.198 879.977 962.115C879.977 949.031 868.796 938.425 855.004 938.425C841.211 938.425 830.031 949.031 830.031 962.115C830.031 975.198 841.211 985.804 855.004 985.804Z" fill="black"/>
</svg>
