<svg width="1760" height="1760" viewBox="0 0 1760 1760" fill="none" xmlns="http://www.w3.org/2000/svg">
<rect width="1760" height="1760" fill="white"/>
<path d="M1038 360.891C989.321 339.834 928.016 378.422 906.088 426.679C884.161 474.935 883.284 530.211 867.496 580.662C851.708 631.112 811.363 682.001 758.738 680.685C729.355 679.808 694.709 664.453 674.097 685.511C662.257 697.794 661.818 716.658 661.818 734.206C661.818 805.714 656.117 877.661 644.277 948.291C636.821 991.284 623.665 1039.1 585.073 1059.72C557.444 1074.64 522.799 1071.57 493.417 1082.97C437.722 1104.91 416.233 1171.59 401.322 1229.5C389.92 1274.24 382.465 1330.84 419.303 1358.91C442.107 1376.02 473.683 1374.71 502.627 1373.39C722.339 1362.42 941.611 1408.49 1161.32 1402.34C1213.51 1401.03 1271.4 1393.57 1305.16 1353.65C1332.79 1320.75 1336.3 1274.24 1337.18 1231.25C1338.06 1196.16 1336.74 1158.43 1314.81 1130.79C1284.99 1093.5 1228.42 1090.87 1190.27 1062.35C1155.62 1036.03 1139.83 987.336 1152.99 945.659C1166.15 903.983 1206.49 872.835 1249.91 871.08C1277.1 870.203 1309.99 877.661 1327.97 857.042C1335.42 848.268 1338.06 836.423 1340.25 824.578C1356.91 737.716 1365.68 649.099 1367 560.481C1367 546.882 1367 532.844 1361.74 520.121C1344.2 477.568 1285.87 477.568 1240.7 468.794C1174.04 456.071 1124.92 398.163 1031.95 358.241L1038 360.891Z" fill="#63B6FF" stroke="black" stroke-width="20" stroke-miterlimit="10"/>
<path d="M798.646 1036.47C796.453 1050.95 794.259 1066.74 796.013 1079.02C798.206 1092.18 803.908 1096.13 809.609 1098.33C833.291 1107.98 857.848 1111.93 882.846 1109.29C888.547 1108.85 894.248 1107.98 899.511 1100.96C911.351 1085.6 917.49 1048.75 922.314 1016.29C929.331 965.4 935.472 901.35 920.561 878.099C915.299 869.764 908.72 868.887 902.142 868.887C883.284 868.009 864.426 870.641 845.569 876.783C839.868 878.538 833.728 881.17 828.904 890.383C824.08 899.595 805.223 998.302 799.083 1036.91L798.646 1036.47Z" fill="white" stroke="black" stroke-width="20" stroke-miterlimit="10"/>
<path d="M851.862 1023.62C853.226 1010.36 843.004 998.447 829.031 997.008C815.057 995.568 802.623 1005.15 801.258 1018.4C799.893 1031.66 810.115 1043.57 824.089 1045.01C838.063 1046.45 850.497 1036.87 851.862 1023.62Z" fill="black"/>
</svg>
