<svg width="1760" height="1760" viewBox="0 0 1760 1760" fill="none" xmlns="http://www.w3.org/2000/svg">
<rect width="1760" height="1760" fill="white"/>
<path d="M1066.61 482.549C982.239 491.793 895.053 500.636 814.295 475.315C783.76 465.669 754.43 451.601 722.69 445.573C690.949 439.544 655.191 443.965 632.691 466.472C599.344 499.832 621.44 542.435 621.44 603.125C621.44 681.098 619.834 757.462 600.95 833.023C596.933 849.904 590.504 868.392 575.236 876.43C564.388 882.057 551.531 881.254 539.076 881.656C504.121 883.665 459.122 884.871 430.194 927.474C351.445 1042.42 501.309 1089.45 582.87 1115.98C639.521 1134.46 701.395 1123.21 759.653 1109.54C817.911 1095.88 877.777 1080.61 936.437 1091.46C995.096 1102.31 1052.55 1147.73 1054.56 1207.21C1056.17 1246.6 1034.47 1286.79 1048.13 1323.37C1060.18 1354.72 1093.93 1371.6 1125.67 1382.85C1147.77 1390.89 1171.08 1397.72 1194.78 1397.32C1241.39 1396.11 1283.57 1365.57 1308.48 1326.18C1333.4 1286.79 1343.44 1239.77 1348.66 1193.55C1355.49 1133.26 1353.88 1069.35 1324.15 1016.3C1299.24 971.284 1254.24 933.101 1253.04 881.656C1251.83 821.77 1310.89 777.156 1322.14 718.476C1335 651.355 1282.37 583.431 1298.44 517.114C1308.89 474.511 1346.25 440.749 1351.48 397.342C1353.48 379.658 1348.26 359.16 1332.59 350.72C1315.31 341.475 1294.02 351.121 1277.55 361.571C1207.24 405.381 1145.76 474.109 1066.21 482.549H1066.61Z" fill="#FF6640" stroke="black" stroke-width="20" stroke-miterlimit="10"/>
<path d="M1026.43 779.166C1032.86 790.822 1026.44 818.152 1012.37 836.641C991.079 865.579 950.9 878.842 916.347 867.99C881.794 857.138 856.481 823.377 855.276 787.606C855.276 785.597 855.277 783.587 856.08 781.577C857.286 779.166 860.098 777.96 862.91 777.157C919.561 757.061 1016.79 761.883 1026.03 779.166H1026.43Z" fill="#FAFCFF" stroke="black" stroke-width="20" stroke-miterlimit="10"/>
<path d="M943.266 784.391C948.813 784.391 953.31 779.892 953.31 774.343C953.31 768.794 948.813 764.295 943.266 764.295C937.719 764.295 933.221 768.794 933.221 774.343C933.221 779.892 937.719 784.391 943.266 784.391Z" fill="black" stroke="#140202" stroke-width="20" stroke-miterlimit="10"/>
</svg>
