<svg width="1760" height="1760" viewBox="0 0 1760 1760" fill="none" xmlns="http://www.w3.org/2000/svg">
<rect width="1760" height="1760" fill="white"/>
<path d="M407.444 1077.27C429.592 1105.07 452.211 1131.46 486.611 1139.95C521.011 1148.43 558.238 1150.31 588.868 1167.75C639.29 1196.02 660.967 1257.76 705.263 1294.99C752.857 1335.04 820.243 1341.64 882.916 1342.11C951.716 1342.11 1021.46 1337.4 1086.49 1314.31C1135.97 1296.87 1183.56 1266.71 1209.01 1220.53C1240.11 1163.98 1233.04 1090.94 1270.27 1038.16C1283.46 1019.31 1301.37 1004.7 1316.92 987.263C1371.59 926.944 1391.38 842.591 1400.33 761.537C1402.69 738.446 1404.57 714.884 1396.56 693.207C1388.55 672.001 1372.06 655.507 1360.75 636.186C1327.76 579.166 1344.25 506.594 1330.59 442.034C1329.17 435.436 1327.29 428.367 1322.1 423.655C1316.45 418.471 1307.97 418 1299.96 418C1266.97 418.471 1212.31 471.722 1179.32 470.308C1021.46 463.239 979.991 385.955 752.857 461.826C686.885 483.503 618.556 501.41 548.814 504.709C525.252 505.651 501.691 504.238 479.543 511.306C457.395 518.375 436.66 537.696 437.131 561.258C437.603 588.59 464.463 606.969 479.543 630.06C509.23 676.713 486.14 739.389 452.682 783.686C419.225 827.983 375.871 867.096 360.792 920.346C341.472 988.206 385.296 1048.52 408.386 1077.27H407.444Z" fill="#84FAB0" stroke="black" stroke-width="20" stroke-miterlimit="10"/>
<path d="M993.183 955.689C1012.03 948.149 1031.35 940.609 1051.62 942.023C1071.88 943.436 1092.61 956.16 1095.91 975.952C1101.57 1007.05 1065.28 1028.26 1049.73 1056.06C1032.77 1086.69 1043.13 1124.87 1036.54 1159.74C1035.12 1167.28 1032.77 1175.29 1026.64 1180C1015.33 1189.9 997.424 1184.71 985.172 1175.76C972.92 1166.81 962.082 1155.03 947.474 1151.73C925.797 1146.54 905.062 1161.15 885.271 1171.05C865.479 1180.94 835.791 1183.3 825.895 1163.51C813.643 1138.53 847.1 1111.2 840.503 1084.34C835.319 1064.55 811.758 1056.54 792.438 1050.41C773.117 1044.28 750.498 1029.2 753.796 1008.94C757.566 988.205 785.37 982.078 806.104 985.377C826.838 988.676 850.87 994.802 868.305 982.078C889.982 966.056 888.569 928.357 913.073 917.989C928.153 911.863 945.117 919.874 957.369 930.241C969.621 940.609 979.988 953.804 992.24 956.16L993.183 955.689Z" fill="white" stroke="black" stroke-width="20" stroke-miterlimit="10"/>
<path d="M940.097 1080.85C956.258 1078.08 967.398 1064.4 964.982 1050.29C962.565 1036.18 947.506 1026.99 931.346 1029.76C915.185 1032.52 904.043 1046.21 906.46 1060.31C908.876 1074.42 923.937 1083.62 940.097 1080.85Z" fill="black"/>
</svg>
