<svg width="1760" height="1760" viewBox="0 0 1760 1760" fill="none" xmlns="http://www.w3.org/2000/svg">
<rect width="1760" height="1760" fill="white"/>
<path d="M686.968 568.651C719.335 491.807 783.206 465.04 749.113 400.284C728.83 360.998 676.61 354.522 632.591 356.249C617.918 356.681 602.814 357.544 589.435 364.02C570.447 373.518 558.794 392.513 548.005 411.077C522.111 455.543 495.787 502.167 492.334 553.541C487.587 626.068 529.879 699.027 510.027 768.533C494.923 822.497 444.432 864.804 444 920.927C444 967.551 478.525 1005.97 503.123 1045.26C542.827 1109.15 558.794 1187.29 548.005 1261.55C544.552 1284.43 538.943 1308.17 546.279 1330.19C556.637 1360.84 589.005 1377.68 620.077 1386.74C693.011 1408.33 771.121 1402.72 847.075 1395.81C901.02 1391.06 963.166 1379.83 988.196 1331.91C1011.93 1286.59 993.375 1219.67 1033.94 1188.59C1062.86 1166.57 1107.74 1178.66 1130.61 1206.72C1153.48 1234.78 1159.09 1273.2 1157.8 1309.47C1156.94 1336.23 1153.92 1366.88 1172.04 1386.74C1190.6 1406.6 1224.26 1405.31 1246.7 1389.76C1269.14 1374.22 1281.66 1348.75 1290.29 1322.85C1304.96 1279.68 1310.57 1234.35 1313.59 1189.02C1326.54 985.683 1284.25 782.348 1296.76 579.012C1300.65 518.572 1302.8 445.182 1251.88 412.803C1231.6 399.852 1206.57 396.83 1182.83 395.103C1137.95 391.649 1096.09 395.535 1056.82 417.552C952.378 475.402 1116.37 601.461 963.165 706.366C933.819 726.657 877.718 748.674 792.701 718.023C735.304 696.869 661.073 632.112 687.83 569.082L686.968 568.651Z" fill="#FF3B83" stroke="black" stroke-width="20" stroke-miterlimit="10"/>
<path d="M816.435 1014.18C808.235 1040.94 800.899 1073.32 819.456 1094.91C831.54 1108.29 850.527 1113.04 868.652 1115.63C891.525 1118.65 915.262 1119.51 937.271 1113.04C959.281 1106.56 979.563 1091.02 987.331 1069.44C995.531 1046.55 988.626 1021.52 979.995 999.066C964.028 957.19 941.585 916.61 906.198 888.548C902.314 885.526 897.998 882.505 893.251 881.209C882.462 878.187 870.811 885.526 864.77 894.592C858.728 903.658 825.497 983.093 816.003 1014.18H816.435Z" fill="white" stroke="black" stroke-width="20" stroke-miterlimit="10"/>
<path d="M909.219 1116.06C921.851 1116.06 932.093 1107.56 932.093 1097.06C932.093 1086.57 921.851 1078.07 909.219 1078.07C896.587 1078.07 886.348 1086.57 886.348 1097.06C886.348 1107.56 896.587 1116.06 909.219 1116.06Z" fill="#030005"/>
</svg>
