<svg width="1760" height="1760" viewBox="0 0 1760 1760" fill="none" xmlns="http://www.w3.org/2000/svg">
<rect width="1760" height="1760" fill="white"/>
<path d="M859.832 369.279C815.967 374.81 793.113 424.59 784.266 468.102C775.419 511.613 768.415 561.393 731.554 586.468C705.383 604.167 671.102 604.168 642.718 618.549C579.685 650.629 572.682 736.177 573.788 806.976C573.788 819.882 574.525 833.525 581.16 844.587C603.277 881.462 662.623 858.231 700.591 878.143C734.872 896.212 740.032 942.673 740.401 981.76C740.401 995.772 740.401 1010.89 732.291 1022.32C716.81 1042.97 685.477 1037.81 660.043 1041.13C619.496 1046.29 585.952 1077.63 568.258 1114.51C550.565 1151.38 546.142 1193.05 543.93 1233.98C541.35 1277.86 542.455 1326.16 569.733 1360.83C597.01 1395.49 644.561 1407.66 688.426 1409.87C743.718 1413.19 801.222 1403.97 849.142 1375.95C897.062 1347.92 934.292 1298.51 939.821 1243.2C944.613 1194.89 925.813 1146.96 925.076 1098.28C924.339 1049.61 953.46 992.084 1002.12 992.453C1047.09 992.453 1076.21 1040.39 1117.49 1058.09C1158.04 1075.42 1207.8 1060.67 1238.4 1028.96C1268.99 997.247 1282.26 951.523 1283 907.642C1283 878.512 1277.84 847.906 1259.78 825.044C1225.86 783.008 1157.3 778.214 1129.29 731.752C1109.38 698.566 1117.49 653.579 1096.85 620.761C1081.37 595.686 1052.25 582.78 1033.08 560.287C1006.54 528.575 1003.22 484.326 991.427 444.871C979.631 405.415 947.93 358.585 860.2 369.647L859.832 369.279Z" fill="#9DC0EB" stroke="black" stroke-width="20" stroke-miterlimit="10"/>
<path d="M845.455 669.804C808.963 695.616 809.7 768.627 832.185 812.139C835.871 819.145 839.926 825.782 845.455 830.576C852.459 836.844 860.937 840.163 869.784 842.007C901.116 848.644 935.766 837.951 957.514 809.189C979.262 780.427 981.842 734.334 966.729 700.41C942.769 647.311 875.682 648.048 845.455 669.435V669.804Z" fill="white" stroke="#140202" stroke-width="20" stroke-miterlimit="10"/>
<path d="M898.904 777.477C907.455 777.477 914.386 768.892 914.386 758.302C914.386 747.713 907.455 739.128 898.904 739.128C890.354 739.128 883.422 747.713 883.422 758.302C883.422 768.892 890.354 777.477 898.904 777.477Z" fill="black"/>
</svg>
