<svg width="1760" height="1760" viewBox="0 0 1760 1760" fill="none" xmlns="http://www.w3.org/2000/svg">
<rect width="1760" height="1760" fill="white"/>
<path d="M879.929 432.372C862.607 410.714 825.27 414.59 797.92 417.885C735.472 426.36 692.624 420.24 625.617 470.146C614.221 478.621 589.607 498.866 580.946 510.165C570.462 523.819 566.359 541.239 564.536 558.189C558.61 624.103 590.062 691.9 643.85 728.153C674.847 748.869 712.224 760.169 736.383 788.889C750.058 804.896 757.807 825.612 762.821 846.328C779.231 910.83 769.659 984.748 728.179 1036.07C686.698 1087.39 611.486 1109.99 553.596 1079.85C506.646 1055.37 468.812 999.343 416.848 1007.35C385.851 1012.06 362.148 1039.83 352.12 1070.91C342.092 1101.98 343.459 1134.94 345.283 1166.95C348.473 1236.16 356.678 1315.26 410.922 1356.22C435.081 1374.58 465.621 1381.65 494.794 1387.77C579.578 1404.72 665.73 1413.19 752.337 1412.72C802.023 1412.72 857.634 1406.6 888.63 1366.58C907.775 1342.1 913.701 1309.61 921.45 1278.54C932.845 1231.93 951.534 1184.37 987.545 1153.3C1023.56 1122.23 1080.08 1112.81 1116.54 1142.94C1160.3 1178.72 1165.77 1258.29 1219.56 1274.77C1238.25 1280.42 1258.76 1276.18 1277.91 1272.42C1302.98 1266.77 1330.78 1259.7 1345.83 1238.05C1354.94 1224.86 1357.68 1208.39 1359.5 1192.38C1364.06 1159.89 1367.25 1127.41 1368.62 1094.45C1370.44 1061.02 1369.53 1024.3 1349.02 997.931C1320.76 961.678 1259.22 950.379 1254.2 904.239C1251.93 882.11 1265.14 860.923 1281.55 845.857C1297.96 830.791 1317.56 820.904 1333.97 805.838C1382.29 762.052 1393.23 689.546 1400.98 623.161C1410.1 543.123 1398.7 524.761 1303.89 510.165C1261.95 503.574 1211.36 496.982 1157.57 477.679C1128.4 467.321 1091.93 441.426 1060.93 438.131C1027.2 434.835 903.672 464.496 873.132 425.889L879.929 432.372Z" fill="#FFD58C" stroke="black" stroke-width="20" stroke-miterlimit="10"/>
<path d="M962 660C910.036 709.436 907.319 844.445 921.45 932.959C923.729 947.083 926.92 960.737 931.478 971.095C937.404 984.278 946.065 991.811 954.725 996.519C986.633 1013.94 1025.83 997.46 1055.01 943.787C1084.18 890.114 1100.59 797.834 1088.74 731.92C1081.45 691.43 1064.58 664.593 1045.44 651.41C1026.29 638.228 999.852 624.103 966.577 655.648L962 660Z" fill="white" stroke="#140202" stroke-width="20" stroke-miterlimit="10"/>
<path d="M1020.78 837.179C1023.08 816.514 1017.65 798.894 1008.64 797.824C999.638 796.755 990.474 812.641 988.173 833.307C985.873 853.972 991.306 871.592 1000.31 872.662C1009.31 873.731 1018.48 857.845 1020.78 837.179Z" fill="black"/>
</svg>
