<svg width="1760" height="1760" viewBox="0 0 1760 1760" fill="none" xmlns="http://www.w3.org/2000/svg">
<rect width="1760" height="1760" fill="white"/>
<path d="M821.645 365C772.953 365 742.521 411.969 741.217 460.243C739.912 504.603 762.954 552.442 742.521 592.017C727.305 621.156 692.525 634.637 659.919 638.117C627.313 641.596 593.837 636.377 561.231 640.726C549.928 642.031 538.624 644.64 529.495 650.729C520.365 656.817 513.844 666.385 509.062 676.388C476.021 742.058 503.845 834.691 449.936 884.705C433.415 899.926 411.243 908.189 392.115 919.931C372.986 931.674 355.161 951.244 356.031 973.424C356.9 1008.65 398.201 1026.05 423.416 1051.27C448.632 1076.93 458.196 1114.33 458.631 1149.99C459.066 1185.65 452.11 1221.32 448.632 1256.98C447.762 1266.98 447.327 1276.98 450.371 1286.55C459.935 1313.95 495.15 1320.91 523.843 1323.08C674.7 1334.82 827.296 1341.78 973.372 1380.05C1038.15 1397.02 1112.93 1418.76 1168.14 1380.05C1192.05 1363.53 1207.7 1338.3 1222.48 1313.52C1262.48 1248.28 1302.48 1182.18 1324.21 1109.11C1327.26 1099.11 1329.86 1088.24 1328.56 1077.8C1325.08 1049.97 1297.26 1033.44 1273.35 1019.09C1240.74 999.518 1209.44 974.294 1194.66 939.502C1179.88 904.71 1186.4 857.741 1218.57 837.3C1253.78 814.686 1306.82 829.472 1337.25 800.334C1345.52 792.071 1351.17 781.634 1356.38 771.196C1374.21 733.795 1389.42 695.089 1400.73 655.078C1402.9 648.12 1404.64 640.726 1403.77 633.333C1401.6 615.937 1384.21 605.064 1367.69 599.411C1351.17 593.757 1332.91 589.843 1320.73 577.231C1299.87 555.486 1302.91 512.431 1274.22 502.863C1265.52 499.819 1256.39 501.124 1247.7 502.428C1184.22 510.691 1120.32 513.736 1056.84 511.561C999.022 509.387 902.508 514.606 899.464 448.501C897.291 404.141 887.292 365.435 822.514 365.435L821.645 365Z" fill="#424242" stroke="black" stroke-width="20" stroke-miterlimit="10"/>
<path d="M823.384 815.991C810.341 812.076 795.995 808.162 784.257 810.772C771.214 813.381 766.432 822.514 763.389 830.777C749.477 866.439 741.217 903.405 738.173 941.241C737.739 949.504 737.304 958.203 742.521 966.901C754.259 985.601 788.169 995.604 817.297 1003.43C863.381 1015.61 922.506 1026.05 947.287 1004.3C955.982 996.909 958.156 986.471 959.895 976.468C964.242 948.2 965.981 919.496 964.242 890.358C963.807 881.66 962.503 872.527 954.678 864.264C946.852 856.001 858.598 826.428 823.384 815.991Z" fill="white" stroke="black" stroke-width="20" stroke-miterlimit="10"/>
<path d="M881.61 928.051C883.467 918.625 873.133 908.649 858.528 905.769C843.922 902.89 830.576 908.196 828.719 917.623C826.862 927.049 837.196 937.025 851.802 939.904C866.407 942.784 879.753 937.477 881.61 928.051Z" fill="black"/>
</svg>
