<svg width="1760" height="1760" viewBox="0 0 1760 1760" fill="none" xmlns="http://www.w3.org/2000/svg">
<rect width="1760" height="1760" fill="white"/>
<path d="M1255.43 402.698C1225.02 361.51 1166.53 373.679 1052.84 373.679C996.222 373.679 959.26 372.743 933.526 408.782C904.049 450.907 921.361 508.945 911.068 559.494C903.581 595.534 872.233 617.064 850.242 619.872C796.436 626.425 742.629 623.149 688.354 622.213C662.153 622.213 633.144 621.277 613.961 638.594C601.328 649.828 595.245 666.677 589.63 682.591C580.741 707.866 572.319 733.14 563.429 758.415C553.136 787.434 541.438 818.793 515.705 835.643C481.081 858.577 435.228 854.833 399.201 874.491C356.156 897.893 346.33 938.146 365.046 981.674C419.788 1112.73 599.924 1108.52 639.694 1094.94C685.079 1079.5 695.84 1045.8 729.06 1029.41C784.271 1002.27 857.729 1012.56 897.967 1058.9C930.251 1096.35 938.205 1149.24 938.673 1198.85C939.141 1248.46 934.462 1299.01 947.095 1346.75C950.838 1360.33 956.452 1374.37 967.214 1383.26C976.572 1390.75 988.737 1393.56 1000.43 1395.9C1052.84 1406.19 1106.64 1409.47 1160.45 1406.19C1185.25 1404.79 1210.98 1401.05 1231.1 1386.54C1263.85 1362.67 1271.34 1317.73 1276.02 1277.48C1281.63 1228.34 1287.25 1179.19 1293.33 1129.58C1310.17 984.014 1327.02 836.111 1303.16 691.484C1296.6 652.636 1276.95 628.297 1270.87 589.449C1261.05 527.199 1284.44 438.738 1256.83 400.826L1255.43 402.698Z" fill="#FF6640" stroke="black" stroke-width="20" stroke-miterlimit="10"/>
<path d="M1108.98 782.285C1109.92 836.111 1071.08 885.256 1021.96 907.722C1010.26 913.339 997.627 917.551 984.526 918.019C959.728 918.955 935.866 906.786 917.619 889.937C885.334 859.981 868.023 814.581 872.234 771.052C872.234 766.372 873.637 761.223 877.38 758.883C879.72 757.011 882.995 757.01 886.27 756.542C945.224 753.266 1004.65 753.734 1063.6 757.479C1081.85 758.883 1108.52 763.095 1108.98 782.285Z" fill="white" stroke="black" stroke-width="20" stroke-miterlimit="10"/>
<path d="M1013.3 788.691C1015.62 776.767 1007.23 765.092 994.551 762.615C981.87 760.138 969.703 767.796 967.375 779.72C965.047 791.644 973.44 803.319 986.121 805.796C998.802 808.273 1010.97 800.615 1013.3 788.691Z" fill="black"/>
</svg>
