<svg width="1760" height="1760" viewBox="0 0 1760 1760" fill="none" xmlns="http://www.w3.org/2000/svg">
<rect width="1760" height="1760" fill="white"/>
<path d="M357.163 1227.06C354.491 1267.14 353.957 1313.64 383.878 1340.9C398.838 1354.26 418.073 1360.14 437.842 1364.42C503.561 1379.39 571.952 1379.92 639.273 1379.92C789.946 1379.92 940.619 1377.78 1090.76 1372.97C1127.62 1371.9 1165.03 1370.3 1200.29 1358.01C1241.96 1343.04 1277.23 1312.04 1298.07 1273.02C1310.36 1249.51 1317.3 1222.78 1324.25 1197.13C1372.33 1014.87 1373.94 894.071 1380.35 770.605C1382.49 726.777 1412.94 574.982 1364.85 520.999C1339.74 492.671 1309.29 511.378 1280.97 508.706C1250.51 505.499 1227 481.447 1205.1 460.067C1183.19 438.688 1160.22 405.55 1119.61 409.291C1052.82 415.171 1043.74 471.826 1035.72 509.775C1026.64 550.93 1022.37 708.07 944.359 724.104C769.643 759.915 817.73 565.896 826.813 515.12C845.514 415.17 782.466 413.567 772.315 412.498C759.491 411.429 680.949 415.17 672.4 558.948C669.194 615.069 659.043 659.966 609.887 688.828C560.731 717.69 464.023 713.949 407.922 705.397C396.701 703.794 372.658 998.831 357.697 1227.59L357.163 1227.06Z" fill="white" stroke="black" stroke-width="20" stroke-miterlimit="10"/>
<path d="M1005.27 963.555C1018.09 1023.42 985.5 1086.49 935.81 1122.83C923.521 1131.38 910.698 1139.4 895.738 1142.61C867.954 1149.02 838.567 1140.47 814.524 1125.51C771.78 1098.78 742.928 1051.75 737.585 1002.04C737.585 996.693 737.05 990.814 740.791 987.073C743.462 984.4 746.668 983.866 750.408 982.797C816.127 966.228 882.38 953.935 949.168 945.383C970.006 942.71 1000.46 941.641 1005.27 963.555Z" fill="white" stroke="black" stroke-width="20" stroke-miterlimit="10"/>
<path d="M873.297 1065.64C884.216 1065.64 893.066 1056.07 893.066 1044.26C893.066 1032.46 884.216 1022.88 873.297 1022.88C862.379 1022.88 853.528 1032.46 853.528 1044.26C853.528 1056.07 862.379 1065.64 873.297 1065.64Z" fill="black"/>
</svg>
