<svg width="1760" height="1760" viewBox="0 0 1760 1760" fill="none" xmlns="http://www.w3.org/2000/svg">
<rect width="1760" height="1760" fill="white"/>
<path d="M965.724 434.489C929.533 431.554 894.808 451.613 867.909 476.564C841.01 501.516 819.002 531.36 790.635 554.354C727.055 606.215 640.489 616.978 558.814 625.295C527.513 628.72 492.788 633.612 473.225 658.074C452.684 683.515 457.086 720.209 458.064 752.988C459.531 810.23 447.794 868.45 424.318 920.31C409.157 953.09 389.593 983.912 374.921 1016.69C356.825 1056.81 346.066 1100.35 343.62 1143.9C341.175 1181.08 345.577 1220.22 363.673 1253C381.768 1285.78 416.982 1310.73 454.152 1309.75C494.256 1308.28 528.491 1278.44 550.989 1244.68C573.486 1210.92 588.647 1173.25 613.59 1141.45C638.533 1109.65 678.148 1084.7 717.763 1092.53C759.334 1100.84 786.723 1142.43 795.526 1184.01C804.33 1225.6 799.928 1268.65 803.84 1310.73C807.753 1352.8 822.914 1397.81 859.106 1419.83C880.136 1432.55 905.568 1435.98 930.511 1435.98C964.257 1435.98 998.492 1430.1 1027.35 1412.49C1079.19 1380.2 1101.69 1312.2 1089.95 1252.02C1078.7 1195.27 1041.04 1139.98 1055.71 1083.72C1066.47 1043.11 1107.07 1012.29 1149.13 1013.27C1196.57 1014.25 1238.63 1049.47 1286.07 1046.05C1342.8 1041.64 1379.97 981.466 1387.31 925.203C1400.51 821.972 1415.18 743.692 1392.69 666.881C1383.39 635.569 1360.41 568.543 1318.84 549.462C1261.61 523.532 1217.6 592.026 1126.63 522.064C1092.39 495.645 1068.92 442.317 967.191 434L965.724 434.489Z" fill="#8CFFD9" stroke="black" stroke-width="20" stroke-miterlimit="10"/>
<path d="M1048.87 747.117C1060.6 801.913 1030.28 860.133 984.798 893.402C973.549 901.23 961.811 908.568 948.117 911.504C922.685 917.375 895.786 909.547 873.778 895.848C834.652 871.386 808.242 828.332 803.351 782.832C803.351 777.94 802.862 772.558 806.285 769.133C808.731 766.687 811.665 766.198 815.089 765.219C875.245 750.053 935.89 738.8 997.025 730.972C1016.1 728.526 1044.47 727.058 1048.87 747.117Z" fill="white" stroke="black" stroke-width="20" stroke-miterlimit="10"/>
<path d="M927.576 840.564C937.57 840.564 945.672 831.802 945.672 820.994C945.672 810.186 937.57 801.424 927.576 801.424C917.582 801.424 909.48 810.186 909.48 820.994C909.48 831.802 917.582 840.564 927.576 840.564Z" fill="black"/>
</svg>
