<svg width="1760" height="1760" viewBox="0 0 1760 1760" fill="none" xmlns="http://www.w3.org/2000/svg">
<rect width="1760" height="1760" fill="white"/>
<path d="M919.146 400.22C878.957 380.119 828.094 390.169 800.464 425.974C772.835 461.779 766.555 508.892 759.02 553.491C751.485 598.091 740.182 645.203 706.901 675.983C658.549 720.582 562.474 714.928 497.168 717.441C478.33 718.069 429.978 717.441 413.652 797.218C395.442 887.045 396.07 988.179 384.767 1079.26C384.767 1079.26 372.836 1148.99 375.347 1170.97C379.743 1213.06 418.048 1220.6 433.746 1260.17C472.051 1355.65 551.799 1382.66 632.176 1405.28C712.552 1427.89 806.116 1410.93 863.886 1350.63C883.352 1330.53 899.051 1306.03 919.146 1286.56C950.543 1256.4 1007.06 1236.3 1050.39 1237.56C1174.72 1241.33 1266.4 1332.41 1339.24 1237.56C1404.54 1152.76 1417.73 1116.32 1390.1 931.644C1380.68 866.315 1354.31 748.849 1287.75 727.492C1236.26 711.16 1093.09 747.593 1029.04 673.47C963.729 597.462 1020.87 450.473 919.146 400.22Z" fill="#FF82C1" stroke="#030000" stroke-width="20" stroke-miterlimit="10"/>
<path d="M814.906 878.251C761.531 914.685 762.16 1017.7 795.44 1079.26C800.464 1089.31 806.743 1098.74 814.906 1105.65C824.954 1114.44 838.14 1118.84 850.699 1121.98C897.166 1131.4 948.03 1116.32 980.056 1076.12C1012.08 1035.92 1020.24 968.706 993.87 922.851C977.544 894.583 950.542 876.995 922.285 869.457C894.028 861.919 859.49 849.356 815.534 878.879L814.906 878.251Z" fill="white" stroke="#030000" stroke-width="20" stroke-miterlimit="10"/>
<path d="M894.026 1030.27C906.511 1030.27 916.632 1018.17 916.632 1003.25C916.632 988.337 906.511 976.244 894.026 976.244C881.541 976.244 871.42 988.337 871.42 1003.25C871.42 1018.17 881.541 1030.27 894.026 1030.27Z" fill="black"/>
</svg>
