<svg width="1760" height="1760" viewBox="0 0 1760 1760" fill="none" xmlns="http://www.w3.org/2000/svg">
<rect width="1760" height="1760" fill="white"/>
<path d="M604.769 431.605C576.144 431.605 560.672 465.657 552.935 493.131C543.652 526.796 538.236 561.234 536.302 596.06C533.981 640.947 538.236 685.834 533.594 730.333C530.887 758.194 524.697 786.055 526.245 813.916C528.952 863.059 554.869 908.332 556.803 957.475C557.964 986.497 550.614 1015.52 547.907 1044.54C545.199 1073.56 547.133 1105.29 564.927 1128.51C592.004 1163.72 643.064 1167.2 687.548 1165.27C732.032 1163.33 778.064 1166.04 814.425 1191.58C887.533 1243.43 828.737 1342.88 874.768 1385.06C897.204 1405.57 957.161 1414.85 985.399 1403.63C1013.64 1392.41 1026.79 1361.07 1028.72 1330.89C1031.04 1297.22 1012.86 1258.91 1032.98 1231.83C1039.94 1222.15 1050.77 1215.96 1061.6 1211.7C1101.83 1195.45 1147.09 1198.55 1190.03 1202.42C1208.59 1203.97 1228.71 1205.51 1243.79 1194.68C1261.2 1181.91 1264.68 1157.53 1266.62 1135.86C1273.19 1052.67 1275.9 969.471 1274.74 885.889C1274.74 875.441 1274.35 864.606 1268.94 856.093C1258.88 839.067 1235.67 835.972 1215.56 835.198C1176.87 833.263 1138.19 831.715 1099.51 829.78C1056.57 827.846 997.39 834.811 961.416 811.207C916.545 781.798 909.582 711.76 923.894 659.908C938.207 608.056 964.897 553.495 1036.46 556.591C1071.27 558.139 1111.11 551.947 1134.32 525.635C1142.06 516.735 1146.7 505.126 1149.41 493.904C1157.53 460.626 1151.73 423.092 1129.68 396.779C1107.63 370.466 1069.34 357.697 1037.23 369.305C1006.67 380.527 987.333 409.935 961.803 430.831C929.697 456.757 878.637 448.244 825.643 445.922C784.253 443.987 661.631 431.605 603.609 431.605H604.769Z" fill="#FFE0F6" stroke="#050000" stroke-width="20" stroke-miterlimit="10"/>
<path d="M778.451 895.176C740.156 897.885 703.021 873.894 684.067 842.164C679.425 834.424 675.943 826.298 674.783 817.398C672.849 800.759 680.199 784.507 691.416 771.738C711.144 749.295 742.477 736.138 774.196 736.912C777.29 736.912 781.158 737.299 783.092 740.008C784.64 741.556 784.64 743.877 785.027 745.812C790.442 784.894 793.536 824.364 793.923 863.833C793.923 876.216 792.376 894.015 778.451 894.789V895.176Z" fill="white" stroke="black" stroke-width="20" stroke-miterlimit="10"/>
<path d="M785.598 817.976C786.696 809.283 780.541 801.345 771.851 800.247C763.161 799.149 755.227 805.306 754.129 813.999C753.031 822.692 759.186 830.629 767.876 831.728C776.566 832.826 784.5 826.669 785.598 817.976Z" fill="black"/>
</svg>
