<svg width="1760" height="1760" viewBox="0 0 1760 1760" fill="none" xmlns="http://www.w3.org/2000/svg">
<g clip-path="url(#clip0_10_141)">
<path d="M1760 0H0V1760H1760V0Z" fill="white"/>
<path d="M643.18 653.845C614.924 671.065 582.693 680.778 549.58 681.661C540.308 681.661 531.037 681.661 522.207 684.31C498.365 691.375 485.561 719.191 487.769 743.916C489.977 768.641 503.222 790.717 516.909 811.469C530.596 832.22 546.048 852.53 552.229 876.372C559.293 904.188 553.994 933.329 547.372 961.586C536.776 1004.41 522.648 1047.24 498.807 1084.33C482.029 1110.38 460.394 1133.34 442.734 1158.95C425.074 1184.55 411.388 1214.58 413.154 1245.93C414.92 1277.27 436.112 1308.62 467.018 1313.92C488.21 1317.45 509.403 1309.06 528.829 1300.68C563.708 1285.66 599.029 1270.21 636.558 1265.8C674.086 1261.38 715.146 1269.33 742.078 1295.82C768.569 1321.87 778.282 1361.61 806.98 1385.01C844.509 1415.91 904.113 1407.08 941.642 1375.73C975.638 1347.03 998.155 1302.44 1040.54 1289.64C1083.37 1276.83 1127.96 1302.44 1172.55 1305.09C1233.48 1309.06 1292.2 1267.12 1316.93 1211.05C1341.65 1154.97 1335.03 1088.74 1308.54 1033.55C1298.82 1013.24 1286.9 994.7 1277.63 974.39C1258.2 930.238 1253.79 879.463 1265.27 832.662C1282.49 763.784 1333.7 698.881 1318.25 630.003C1314.72 614.108 1305.45 597.33 1289.55 593.798C1277.63 591.149 1265.71 596.889 1255.11 603.07C1212.73 627.354 1171.67 660.468 1123.1 660.91C1057.76 661.793 971.665 640.158 991.533 536.842C1015.37 415.865 965.042 385.841 927.955 365.531C896.166 347.87 854.222 356.259 825.082 378.336C795.943 400.412 777.4 433.526 763.271 467.081C749.143 500.637 738.547 535.959 720.887 568.19C700.136 606.161 669.229 637.951 643.18 653.845Z" fill="#B7ABFF" stroke="black" stroke-width="20" stroke-miterlimit="10"/>
<path d="M792.415 686.077C741.641 718.308 742.524 810.587 773.871 865.335C778.728 874.166 784.909 882.555 792.415 888.736C802.128 896.683 814.49 900.657 826.411 902.865C870.12 911.254 918.687 898.008 949.151 861.803C979.615 825.598 987.563 765.993 961.955 724.931C946.502 699.765 920.453 683.87 893.962 677.247C867.471 670.624 834.359 659.145 792.415 685.636V686.077Z" fill="white" stroke="black" stroke-width="20" stroke-miterlimit="10"/>
<path d="M867.474 821.182C879.423 821.182 889.109 810.507 889.109 797.339C889.109 784.172 879.423 773.497 867.474 773.497C855.526 773.497 845.841 784.172 845.841 797.339C845.841 810.507 855.526 821.182 867.474 821.182Z" fill="black"/>
</g>
<defs>
<clipPath id="clip0_10_141">
<rect width="1760" height="1760" fill="white"/>
</clipPath>
</defs>
</svg>
