<svg width="1760" height="1760" viewBox="0 0 1760 1760" fill="none" xmlns="http://www.w3.org/2000/svg">
<rect width="1760" height="1760" fill="white"/>
<path d="M513.23 385.6C487.225 378.168 461.221 397.81 445.831 420.107C413.989 466.825 408.152 525.753 403.906 582.026C389.047 772.081 373.657 962.137 358.797 1152.19C356.144 1186.7 353.49 1221.21 360.389 1255.18C367.288 1289.16 384.801 1322.07 414.52 1339.59C435.748 1352.33 461.221 1355.52 485.633 1357.64C551.97 1363.48 618.838 1360.3 684.644 1348.09C717.016 1342.25 750.981 1333.22 773.27 1308.8C790.252 1290.75 798.213 1265.8 813.603 1246.16C851.283 1196.79 934.071 1192.01 977.057 1236.6C1012.61 1273.23 1020.04 1332.16 1060.91 1362.95C1085.85 1381.53 1118.75 1385.78 1150.06 1386.84C1194.11 1388.43 1244 1383.13 1270.53 1348.09C1287.51 1325.79 1291.23 1296.06 1294.41 1268.45C1298.66 1226.52 1302.37 1184.58 1306.09 1142.64C1309.27 1106.54 1311.93 1069.37 1299.72 1035.4C1289.11 1004.08 1266.82 978.063 1251.96 948.333C1237.1 918.604 1230.73 880.381 1250.9 853.837C1263.1 838.441 1282.21 829.947 1296.54 816.144C1324.66 789.069 1329.44 746.068 1331.56 706.783C1336.34 615.472 1337.93 524.16 1335.28 432.318C1335.28 421.7 1334.21 409.49 1325.72 403.119C1320.42 398.872 1313.52 398.341 1306.62 398.341C1285.39 398.341 1264.16 402.058 1242.94 405.774C1018.98 444.528 782.292 462.578 513.23 385.6Z" fill="#9DC0EB" stroke="#140202" stroke-width="20" stroke-miterlimit="10"/>
<path d="M780.169 673.868C722.854 727.487 726.569 868.701 750.981 956.827C754.696 971.161 760.003 984.433 766.371 994.52C774.862 1007.79 785.476 1014.16 796.09 1018.41C835.362 1033.8 880.471 1014.16 910.72 958.42C940.97 902.678 952.114 808.181 931.948 742.352C919.742 702.005 896.922 675.992 873.041 664.312C849.159 652.633 816.256 639.892 780.169 673.868Z" fill="white" stroke="#140202" stroke-width="20" stroke-miterlimit="10"/>
<path d="M859.67 853.729C860.576 832.638 852.527 815.163 841.693 814.697C830.858 814.232 821.341 830.952 820.435 852.042C819.529 873.133 827.578 890.608 838.413 891.074C849.247 891.539 858.764 874.819 859.67 853.729Z" fill="black"/>
</svg>
