<svg width="1760" height="1760" viewBox="0 0 1760 1760" fill="none" xmlns="http://www.w3.org/2000/svg">
<rect width="1760" height="1760" fill="white"/>
<path d="M900.919 365.023C858.214 369.016 833.867 418.524 823.49 460.047C813.113 501.57 815.907 545.089 811.915 587.809C809.122 618.552 801.14 651.691 776.793 670.855C753.645 689.62 720.917 691.217 690.983 687.624C663.044 684.03 635.505 676.844 609.563 666.064C600.782 662.471 591.203 658.079 582.024 660.075C562.866 664.068 558.077 688.822 557.278 708.784C551.292 866.491 545.304 1024.2 539.318 1182.3C538.519 1197.88 538.519 1215.04 548.098 1227.42C558.874 1241.39 578.432 1244.59 595.993 1243.39C613.554 1242.19 631.115 1237.8 648.277 1239.8C679.009 1243.79 702.956 1268.54 719.32 1294.5C735.684 1320.45 748.056 1349.59 768.811 1372.75C789.565 1395.91 822.293 1411.88 851.428 1401.1C875.775 1392.31 890.542 1367.16 898.524 1342.41C906.506 1317.65 909.7 1291.3 921.274 1268.14C937.239 1235.01 969.967 1210.65 1006.29 1204.66C1047 1197.88 1090.5 1213.05 1130.01 1200.27C1157.95 1191.09 1180.7 1167.93 1189.08 1139.58C1197.06 1112.03 1192.28 1080.89 1206.64 1056.14C1229.39 1017.01 1296.45 1080.09 1282.08 845.331C1270.9 665.266 1165.93 714.773 1081.72 686.426C944.024 639.713 1035.42 529.917 1017.06 461.644C1004.29 413.733 967.572 358.236 900.919 365.023Z" fill="#FF6640" stroke="black" stroke-width="20" stroke-miterlimit="10"/>
<path d="M858.612 844.133C819.099 872.081 806.726 953.13 844.244 998.247C851.827 1007.43 919.677 1074.9 979.944 995.452C1003.49 964.31 1009.48 912.806 989.922 877.671C977.949 856.111 957.992 842.536 937.238 836.547C916.484 830.558 891.34 820.976 858.612 843.734V844.133Z" fill="white" stroke="black" stroke-width="20" stroke-miterlimit="10"/>
<path d="M916.884 960.717C926.142 960.717 933.647 951.421 933.647 939.955C933.647 928.489 926.142 919.194 916.884 919.194C907.626 919.194 900.121 928.489 900.121 939.955C900.121 951.421 907.626 960.717 916.884 960.717Z" fill="black"/>
</svg>
