<svg width="1760" height="1760" viewBox="0 0 1760 1760" fill="none" xmlns="http://www.w3.org/2000/svg">
<rect width="1760" height="1760" fill="white"/>
<path d="M592.223 708.162C560.339 698.876 519.174 693.224 499.398 719.87C479.219 747.323 498.187 785.274 511.102 816.765C536.932 880.15 535.317 950.399 533.299 1019.03C532.896 1035.99 532.088 1053.75 522.806 1067.88C516.348 1077.98 508.277 1089.28 496.976 1092.91C445.721 1109.87 441.282 1162.36 448.95 1204.34C456.618 1246.33 504.241 1279.44 542.985 1262.08C574.869 1247.95 588.591 1207.98 618.86 1190.21C646.707 1174.06 686.663 1183.35 704.824 1209.59C735.9 1254.81 706.035 1329.9 749.622 1363.82C773.837 1382.39 813.793 1373.91 827.918 1346.86C834.376 1335.15 835.586 1321.42 838.411 1308.1C844.465 1278.23 859.801 1247.14 887.649 1234.22C921.55 1218.07 963.524 1234.22 990.564 1260.46C1017.6 1286.7 1035.36 1321.02 1058.37 1350.9C1081.37 1380.77 1113.66 1407.82 1151.19 1408.23C1198.01 1409.03 1237.56 1365.43 1242.81 1319C1248.05 1272.57 1225.05 1226.15 1192.36 1193.04C1170.16 1170.43 1141.1 1146.61 1144.33 1115.52C1145.54 1105.03 1150.38 1094.93 1156.44 1086.05C1187.51 1040.43 1244.82 1018.23 1277.51 973.411C1294.06 950.803 1303.34 923.753 1308.59 896.703C1315.85 859.156 1315.05 818.783 1299.31 784.063C1283.57 749.342 1250.47 720.677 1212.54 717.044C1188.32 714.621 1164.51 721.889 1141.1 727.945C1110.83 735.615 1079.35 740.864 1048.28 736.827C1017.2 732.789 986.932 716.64 970.385 690.398C944.555 648.41 959.487 593.907 954.241 545.056C949.398 499.838 923.972 456.235 884.824 434.434C845.676 412.633 791.595 415.055 757.694 444.931C716.528 481.267 721.775 514.372 733.882 567.664C738.322 587.043 744.375 639.124 734.286 656.485C691.102 731.174 623.703 717.448 591.819 708.566L592.223 708.162Z" fill="#3EC790" stroke="black" stroke-width="20" stroke-miterlimit="10"/>
<path d="M816.617 887.822C776.662 916.083 764.151 998.04 802.088 1043.66C809.756 1052.95 878.366 1121.18 939.307 1040.83C963.119 1009.34 969.173 957.263 949.397 921.735C937.289 899.934 917.11 886.207 896.123 880.151C875.137 874.095 849.711 864.406 816.617 887.418V887.822Z" fill="white" stroke="black" stroke-width="20" stroke-miterlimit="10"/>
<path d="M875.541 1005.71C884.902 1005.71 892.491 996.311 892.491 984.716C892.491 973.121 884.902 963.722 875.541 963.722C866.179 963.722 858.59 973.121 858.59 984.716C858.59 996.311 866.179 1005.71 875.541 1005.71Z" fill="black"/>
</svg>
