<svg width="1760" height="1760" viewBox="0 0 1760 1760" fill="none" xmlns="http://www.w3.org/2000/svg">
<rect width="1760" height="1760" fill="white"/>
<path d="M794.999 348.779C722.283 330.227 692.513 408.826 682.264 458.134C675.92 486.449 659.816 533.804 637.855 552.844C613.942 573.836 575.387 569.443 565.627 599.711C559.77 618.75 567.579 638.766 573.924 657.806C601.253 744.704 577.827 845.761 515.36 912.155C489.007 939.982 456.797 961.951 431.42 990.755C406.043 1019.56 388.474 1059.1 399.211 1096.2C409.948 1131.84 443.621 1154.3 468.51 1182.13C492.424 1208.98 508.04 1242.17 525.609 1273.42C543.178 1304.66 563.675 1335.91 593.444 1355.92C623.214 1375.94 665.184 1381.8 694.953 1361.78C723.747 1342.74 734.971 1305.64 761.325 1283.67C800.855 1250.96 861.37 1261.7 905.292 1287.58C949.214 1313.45 985.815 1351.53 1031.69 1374.48C1090.74 1404.26 1162.97 1405.23 1223 1377.4C1283.02 1349.58 1328.9 1293.43 1344.03 1228.99C1349.88 1204.58 1351.35 1179.69 1352.81 1155.28C1355.25 1114.76 1358.18 1074.24 1360.62 1033.72C1365.01 962.927 1367.94 885.304 1325.48 828.186C1283.51 771.555 1227.88 771.067 1159.06 755.933C1090.25 740.799 1003.87 693.444 917.98 601.663C870.642 550.891 872.106 524.04 865.762 486.45C855.025 424.449 853.561 364.889 794.022 349.755L794.999 348.779Z" fill="#B7ABFF" stroke="black" stroke-width="20" stroke-miterlimit="10"/>
<path d="M939.941 920.455C891.627 954.628 876.498 1053.73 922.372 1108.9C931.645 1120.13 1014.61 1202.63 1088.3 1105.48C1117.09 1067.4 1124.41 1004.42 1100.5 961.463C1085.86 935.1 1061.46 918.502 1036.08 911.179C1010.7 903.856 979.959 892.139 939.941 919.966V920.455Z" fill="white" stroke="#140202" stroke-width="20" stroke-miterlimit="10"/>
<path d="M1010.7 1063.01C1022.02 1063.01 1031.2 1051.64 1031.2 1037.62C1031.2 1023.6 1022.02 1012.23 1010.7 1012.23C999.385 1012.23 990.208 1023.6 990.208 1037.62C990.208 1051.64 999.385 1063.01 1010.7 1063.01Z" fill="black"/>
</svg>
