<svg width="1760" height="1760" viewBox="0 0 1760 1760" fill="none" xmlns="http://www.w3.org/2000/svg">
<rect width="1760" height="1760" fill="white"/>
<path d="M852.226 389.983C832.121 392.337 813.624 402.144 801.963 418.228C790.301 434.311 785.074 454.317 779.847 473.539C770.598 506.491 761.752 539.835 752.504 572.787C742.451 608.877 725.16 641.436 699.827 669.68C636.294 740.683 538.581 679.095 526.517 712.046C520.888 726.953 528.528 743.429 532.147 759.12C540.591 792.464 530.539 829.731 506.412 855.229C492.74 869.351 474.243 881.904 470.624 901.126C467.005 919.956 479.873 937.608 489.925 954.476C516.867 1000.37 523.703 1054.9 522.497 1107.47C521.29 1160.03 512.846 1212.6 511.237 1265.16C510.835 1281.64 511.237 1298.51 517.671 1313.41C524.105 1328.32 538.983 1341.27 555.871 1341.27C591.659 1341.27 606.939 1290.27 641.923 1283.6C661.224 1280.07 680.526 1291.45 692.991 1306.35C705.456 1321.26 712.694 1339.7 722.747 1356.17C734.006 1374.61 749.689 1391.48 769.794 1399.32C789.9 1407.17 816.036 1404.42 830.915 1388.73C843.782 1375 846.597 1355 853.835 1337.74C871.528 1297.33 918.172 1274.58 962.807 1272.22C1007.44 1269.87 1051.67 1284.78 1093.09 1301.65C1112.39 1309.49 1132.1 1317.73 1152.6 1317.73C1173.11 1317.73 1196.03 1307.14 1202.06 1287.92C1209.7 1265.16 1193.22 1238.49 1204.48 1217.31C1214.13 1199.65 1237.45 1195.73 1254.74 1185.53C1273.24 1174.94 1286.1 1155.72 1288.52 1134.93C1291.73 1107.86 1278.46 1081.58 1261.98 1059.61C1245.49 1037.64 1224.58 1018.81 1210.11 995.666C1185.17 956.83 1178.74 907.403 1192.41 863.859C1195.23 854.445 1199.25 845.422 1199.65 835.615C1200.45 816.001 1186.78 797.956 1170.3 786.58C1153.81 775.204 1049.26 792.464 1011.06 620.645C1001.81 578.278 992.563 373.115 852.226 389.983Z" fill="#63B6FF" stroke="black" stroke-width="20" stroke-miterlimit="10"/>
<path d="M807.593 820.316C764.165 859.937 766.979 964.284 785.476 1029.4C788.291 1039.99 792.313 1049.8 797.138 1057.25C803.572 1067.06 811.614 1071.77 819.656 1074.91C849.412 1086.28 883.592 1071.77 906.512 1030.58C929.432 989.39 937.876 919.564 922.596 870.921C913.347 841.107 896.057 821.886 877.962 813.255C859.867 804.625 834.937 795.21 807.593 820.316Z" fill="white" stroke="#140202" stroke-width="20" stroke-miterlimit="10"/>
<path d="M867.783 952.821C868.47 937.236 862.371 924.323 854.162 923.979C845.953 923.635 838.741 935.99 838.055 951.575C837.368 967.159 843.467 980.072 851.677 980.416C859.886 980.76 867.097 968.405 867.783 952.821Z" fill="black"/>
</svg>
