<svg width="1760" height="1760" viewBox="0 0 1760 1760" fill="none" xmlns="http://www.w3.org/2000/svg">
<rect width="1760" height="1760" fill="white"/>
<path d="M964.336 372.74C926.381 346.922 870.967 371.601 839.844 405.013C808.721 438.425 793.918 484.367 786.707 529.549C780.255 569.796 774.561 617.256 738.883 637.759C707.001 655.984 667.148 657.882 630.331 658.642C617.426 658.642 600.727 652.946 585.924 663.198C557.078 682.941 565.428 733.439 563.151 757.739C552.524 867.847 545.312 939.607 534.305 1049.72C533.546 1056.93 532.787 1064.14 535.443 1070.98C539.618 1083.51 553.283 1090.72 566.567 1092.62C579.851 1094.52 593.136 1092.24 606.42 1092.62C641.719 1093.38 675.878 1112.36 695.235 1141.98C714.592 1171.59 717.628 1210.7 703.964 1242.97C694.475 1265.38 677.017 1285.12 675.119 1309.42C672.842 1337.14 692.198 1362.95 716.11 1376.62C740.022 1390.29 768.489 1394.09 796.196 1397.51C820.867 1400.54 847.435 1402.44 869.449 1390.29C898.295 1373.96 909.301 1336.76 907.783 1303.72C906.264 1270.69 895.637 1238.42 893.739 1205.01C891.842 1171.59 900.571 1134.76 928.279 1116.54C970.788 1088.44 1030.38 1119.2 1078.2 1101.35C1108.57 1089.96 1128.3 1060.35 1140.83 1030.35C1145.38 1019.34 1149.56 1007.19 1148.04 995.041C1145.38 973.399 1126.03 958.212 1115.02 939.228C1100.97 914.928 1100.97 884.553 1110.46 858.355C1119.95 832.157 1138.17 809.756 1158.67 790.771C1179.54 771.787 1203.45 755.081 1217.12 730.781C1230.78 706.482 1230.78 670.412 1207.63 654.845C1198.52 648.39 1186.75 646.492 1175.75 644.973C1148.42 641.556 1120.33 641.936 1093.76 634.722C1067.19 627.508 1040.63 611.561 1030.76 585.742C1018.23 553.469 1047.46 429.313 964.336 373.12V372.74Z" fill="#FF3B83" stroke="black" stroke-width="20" stroke-miterlimit="10"/>
<path d="M856.165 918.725C876.281 926.318 900.192 933.532 917.652 921.382C928.659 913.409 933.213 900.12 936.249 886.831C940.045 870.505 941.943 853.419 938.148 836.713C934.352 820.007 923.724 804.82 908.163 797.985C891.463 790.771 872.106 794.188 854.267 798.745C821.626 807.857 789.363 821.526 765.831 845.446C763.174 848.104 760.897 850.761 759.758 854.178C757.101 861.772 761.657 870.505 768.488 875.441C775.32 880.377 833.392 909.232 856.544 917.965L856.165 918.725Z" fill="white" stroke="black" stroke-width="20" stroke-miterlimit="10"/>
<path d="M836.998 826.474C837.714 817.486 831.859 809.685 823.918 809.051C815.978 808.418 808.96 815.191 808.243 824.18C807.527 833.168 813.383 840.968 821.323 841.601C829.263 842.235 836.281 835.462 836.998 826.474Z" fill="#030005"/>
</svg>
