<svg width="1760" height="1760" viewBox="0 0 1760 1760" fill="none" xmlns="http://www.w3.org/2000/svg">
<rect width="1760" height="1760" fill="white"/>
<path d="M704.316 448.189C661.52 424.405 645.142 388.465 609.214 390.051C573.287 391.636 553.21 417.534 541.586 451.888C534.718 471.444 534.718 493.114 530.492 513.198C517.283 569.222 471.316 609.39 432.219 651.672C393.121 693.955 357.722 749.979 374.101 805.474C386.253 846.171 424.823 877.883 427.993 920.165C430.106 947.12 416.897 973.546 416.369 1001.03C415.312 1048.07 450.712 1087.71 487.696 1116.25C524.68 1144.79 566.947 1170.16 590.722 1210.86C604.987 1235.7 611.328 1264.77 621.367 1291.72C631.405 1318.68 646.728 1346.16 672.616 1358.84C702.204 1373.64 739.715 1365.19 764.019 1342.99C788.323 1320.79 801.532 1288.55 804.702 1255.78C808.401 1220.37 802.588 1180.2 825.307 1152.72C852.253 1120.48 901.917 1124.71 942.599 1134.75C996.491 1148.49 1048.8 1168.04 1102.69 1181.79C1156.58 1195.53 1213.64 1202.4 1267.53 1190.24C1321.42 1178.09 1373.2 1143.73 1395.92 1092.99C1418.64 1042.25 1405.43 975.132 1359.46 943.949C1340.97 931.264 1317.2 927.036 1301.35 911.18C1200.43 810.231 1181.94 678.627 1147.07 600.405C1050.38 383.708 919.352 567.636 704.845 448.717L704.316 448.189Z" fill="#FF6640" stroke="black" stroke-width="20" stroke-miterlimit="10"/>
<path d="M946.297 798.603C958.978 857.799 926.22 920.694 877.084 956.634C864.933 965.09 852.252 973.018 837.459 976.189C809.985 982.531 780.925 974.075 757.149 959.276C714.882 932.85 686.351 886.339 681.068 837.186C681.068 831.901 680.541 826.087 684.239 822.387C686.881 819.745 690.051 819.216 693.749 818.159C758.735 801.775 824.25 789.619 890.293 781.162C910.898 778.52 941.542 776.934 946.297 798.603Z" fill="white" stroke="black" stroke-width="20" stroke-miterlimit="10"/>
<path d="M897.689 832.43C914.321 832.43 927.805 820.125 927.805 804.946C927.805 789.768 914.321 777.463 897.689 777.463C881.056 777.463 867.574 789.768 867.574 804.946C867.574 820.125 881.056 832.43 897.689 832.43Z" fill="black"/>
</svg>
