<svg width="1760" height="1760" viewBox="0 0 1760 1760" fill="none" xmlns="http://www.w3.org/2000/svg">
<rect width="1760" height="1760" fill="white"/>
<path d="M540.204 428.793C519.906 403.633 482.84 394.805 452.393 405.399C421.947 415.992 399.002 443.36 390.618 474.7C377.821 523.255 397.678 575.782 386.647 624.778C381.352 648.173 368.997 671.126 374.292 694.08C378.704 713.943 394.148 728.509 407.386 743.959C483.723 833.123 487.694 969.959 569.767 1053.83C579.916 1064.42 591.829 1074.13 605.508 1078.99C646.986 1093.55 688.465 1061.77 725.089 1037.49C750.682 1020.28 778.04 1005.71 806.721 994.237C825.254 986.733 847.316 980.553 864.966 990.705C879.086 999.092 886.147 1015.42 891.883 1030.87C902.473 1059.12 913.063 1086.93 923.653 1115.18C934.243 1143.43 944.834 1172.12 963.807 1195.52C1004.4 1245.84 1074.12 1262.61 1138.54 1267.03C1207.38 1271.88 1281.07 1264.82 1337.11 1225.09C1393.15 1185.37 1424.48 1103.71 1390.06 1043.67C1374.17 1015.87 1346.81 996.003 1332.25 967.752C1310.63 925.819 1320.78 875.057 1327.84 828.267C1337.99 763.822 1341.96 698.052 1339.31 632.724C1339.31 626.544 1338.87 620.364 1335.34 615.067C1331.37 608.888 1323.87 606.239 1316.81 604.473C1289.45 597.411 1260.77 597.411 1232.53 597.853C1126.19 599.177 1014.55 603.591 920.122 554.594C906.444 547.532 892.765 539.145 877.321 538.262C852.611 536.938 831.872 554.594 809.809 565.188C766.566 585.493 714.057 577.106 671.696 554.153C629.336 531.2 594.918 496.329 540.644 429.235L540.204 428.793Z" fill="#63B6FF" stroke="black" stroke-width="20" stroke-miterlimit="10"/>
<path d="M685.816 741.751C672.578 740.868 658.458 739.986 647.427 743.517C635.513 747.048 632.866 754.111 631.543 760.291C624.924 786.775 624.041 813.701 628.453 840.627C629.336 846.365 630.659 852.545 637.719 857.842C652.722 868.877 686.257 871.525 715.821 872.849C762.152 875.056 820.399 874.174 839.814 855.635C846.874 849.013 846.874 841.951 846.433 834.888C845.55 814.584 841.138 794.279 834.078 774.416C831.872 768.677 829.224 762.056 820.399 757.642C811.574 753.228 721.558 743.958 686.258 741.751H685.816Z" fill="white" stroke="black" stroke-width="20" stroke-miterlimit="10"/>
<path d="M736.12 785.009C750.498 785.009 762.154 776.314 762.154 765.587C762.154 754.861 750.498 746.165 736.12 746.165C721.742 746.165 710.086 754.861 710.086 765.587C710.086 776.314 721.742 785.009 736.12 785.009Z" fill="black"/>
</svg>
