<svg width="1760" height="1760" viewBox="0 0 1760 1760" fill="none" xmlns="http://www.w3.org/2000/svg">
<rect width="1760" height="1760" fill="white"/>
<path d="M511.979 1064.55C502.816 1146.53 415.051 1208.25 421.32 1290.23C425.66 1351.48 485.456 1397.77 546.216 1403.56C606.976 1409.34 666.773 1382.82 717.407 1348.1C760.807 1318.2 799.385 1281.55 831.694 1239.6C886.185 1169.67 925.246 1082.87 1000.95 1036.58C1018.32 1025.97 1038.09 1017.77 1057.86 1020.18C1104.15 1025.48 1126.33 1082.39 1122.48 1128.68C1118.62 1174.98 1099.33 1220.79 1105.11 1267.08C1106.08 1275.28 1108.01 1283.96 1114.28 1289.75C1119.1 1294.57 1125.37 1296.5 1132.12 1297.95C1176 1306.63 1217.96 1275.77 1247.85 1242.49C1309.58 1173.53 1347.67 1086.73 1382.39 1000.89C1409.4 934.823 1434.96 864.417 1426.28 794.01C1415.18 704.314 1351.53 630.532 1286.91 567.359C1264.73 545.658 1238.21 523.475 1207.35 525.886C1182.75 527.815 1162.5 545.176 1139.83 554.82C1097.88 572.663 1045.32 562.054 1013.97 529.262C967.681 481.038 963.341 392.789 900.651 369.159C851.947 351.316 801.314 386.037 757.913 414.489C694.742 455.962 625.784 487.789 553.451 508.526C540.913 511.901 527.41 515.759 518.248 524.922C509.568 533.12 505.227 544.693 500.887 555.303C490.278 582.79 479.669 610.76 469.543 638.247C454.111 679.238 438.199 721.675 437.234 765.558C435.305 871.65 523.07 963.757 511.979 1063.58V1064.55Z" fill="#8CFFD9" stroke="black" stroke-width="20" stroke-miterlimit="10"/>
<path d="M604 1127.94C560.118 1149.16 556.347 1212.59 583.834 1249.24C588.174 1255.03 593.479 1260.81 599.748 1264.67C608.428 1269.98 618.554 1272.39 629.163 1274.32C667.259 1280.1 709.213 1270.94 735.736 1246.83C762.258 1222.72 769.008 1183.17 746.826 1156.17C733.324 1139.29 711.142 1129.16 687.513 1124.34C663.884 1119.52 635.914 1112.29 599.265 1130.13L604 1127.94Z" fill="white" stroke="black" stroke-width="20" stroke-miterlimit="10"/>
<path d="M664.85 1219.82C675.237 1219.82 683.656 1212.7 683.656 1203.91C683.656 1195.12 675.237 1188 664.85 1188C654.464 1188 646.043 1195.12 646.043 1203.91C646.043 1212.7 654.464 1219.82 664.85 1219.82Z" fill="black"/>
</svg>
