<svg width="1760" height="1760" viewBox="0 0 1760 1760" fill="none" xmlns="http://www.w3.org/2000/svg">
<path d="M1760 0H0V1760H1760V0Z" fill="white"/>
<path d="M681.992 606.782C605.923 595.722 554.178 598.377 452.015 606.782C431.229 608.552 409.116 614.303 394.963 629.788C379.926 645.715 377.274 669.606 375.062 691.726C369.755 753.665 364.006 815.603 358.699 877.984C355.161 920.013 351.622 964.697 372.409 1001.42C392.311 1037.25 431.671 1058.93 471.032 1069.99C510.394 1081.05 552.409 1083.26 592.654 1091.67C607.691 1094.77 623.171 1099.19 634.67 1109.37C657.667 1130.6 655.014 1166.88 652.803 1198.29C650.149 1231.92 650.149 1265.54 652.803 1299.16C654.13 1317.75 656.341 1337.21 663.859 1354.02C676.243 1381.45 701.894 1401.36 728.872 1414.19C760.715 1429.23 796.538 1436.31 831.034 1429.68C865.531 1423.04 897.815 1401.8 913.294 1369.95C924.351 1347.39 926.121 1321.28 927.006 1296.51C928.775 1253.6 928.331 1210.24 925.678 1167.32C922.582 1119.1 917.275 1069.11 933.197 1023.1C949.118 977.085 994.671 937.267 1041.99 946.116C1069.86 951.425 1093.3 972.661 1105.24 998.321C1117.18 1023.98 1118.5 1054.07 1113.2 1081.94C1111.43 1092.56 1108.33 1104.06 1112.31 1113.79C1117.62 1127.51 1133.1 1133.7 1147.25 1137.24C1191.48 1149.63 1237.91 1154.05 1283.91 1150.07C1296.29 1149.19 1310 1146.97 1319.29 1138.57C1327.69 1131.05 1331.67 1119.54 1334.33 1108.48C1346.71 1062.03 1348.48 1013.81 1350.25 966.024C1353.35 887.717 1356.44 808.967 1359.54 730.659C1361.31 689.072 1359.54 639.964 1325.93 615.631C1293.64 591.74 1246.76 602.801 1210.49 585.546C1178.65 570.504 1160.52 536.881 1148.58 503.699C1136.64 470.518 1128.68 435.567 1107.89 407.253C1086.22 377.611 1049.95 358.144 1013.25 359.029C976.538 359.914 942.043 381.15 928.332 415.216C910.2 459.9 951.772 506.796 915.064 567.407C892.951 603.686 775.752 620.497 681.992 606.782Z" fill="white" stroke="black" stroke-width="20" stroke-miterlimit="10"/>
<path d="M670.936 936.824C669.609 954.521 668.724 974.43 673.589 989.029C678.896 1004.96 688.626 1008.94 697.472 1011.15C735.064 1020 773.54 1021.77 811.132 1015.58C819.535 1014.25 827.939 1012.48 835.457 1003.19C851.379 982.835 854.916 936.824 856.685 896.564C859.781 833.299 858.454 753.663 832.361 727.119C823.073 717.828 812.901 717.385 802.729 717.828C773.982 719.155 745.236 724.907 716.931 734.64C708.528 737.737 699.683 741.276 693.049 753.664C686.415 766.051 674.031 889.043 670.493 937.266L670.936 936.824Z" fill="white" stroke="black" stroke-width="20" stroke-miterlimit="10"/>
<path d="M704.549 904.088C719.693 904.088 731.971 888.242 731.971 868.695C731.971 849.148 719.693 833.301 704.549 833.301C689.406 833.301 677.129 849.148 677.129 868.695C677.129 888.242 689.406 904.088 704.549 904.088Z" fill="black"/>
</svg>
