<svg width="1760" height="1760" viewBox="0 0 1760 1760" fill="none" xmlns="http://www.w3.org/2000/svg">
<rect width="1760" height="1760" fill="white"/>
<path d="M877.646 397.699C848.219 397.699 818.308 396.252 788.88 395.769C779.232 395.769 722.789 385.152 727.613 439.684C734.85 521.241 756.559 589.769 729.544 657.813C721.342 678.082 709.281 697.868 690.949 709.45C635.954 743.231 535.129 676.634 483.993 716.206C456.013 737.923 459.389 801.142 459.389 836.853C459.389 987.42 446.364 1094.55 435.751 1227.75C432.857 1266.84 429.48 1306.41 441.54 1343.57C456.977 1391.83 500.396 1431.4 550.567 1437.67C600.738 1443.95 654.768 1412.58 670.206 1364.32C677.924 1340.67 676.478 1314.61 684.679 1290.97C699.152 1250.91 741.604 1226.3 783.574 1221.47C825.544 1216.65 867.998 1229.2 907.556 1244.64C947.114 1260.08 985.225 1279.38 1026.71 1289.52C1084.12 1303.51 1147.8 1299.17 1197.97 1268.28C1248.14 1237.4 1283.36 1179.01 1277.57 1120.13C1271.78 1060.29 1226.92 1001.9 1247.66 945.435C1259.72 912.136 1292.04 890.42 1309.89 860.017C1328.71 827.684 1330.15 788.111 1324.85 750.952C1319.54 713.793 1308.45 678.082 1304.1 640.923C1294.94 563.226 1314.72 483.117 1298.8 406.868C1296.87 398.664 1294.45 389.978 1288.18 384.669C1279.98 377.913 1268.4 376.948 1257.79 378.878C1149.73 400.595 1014.17 397.216 877.163 397.699H877.646Z" fill="#FFE0F6" stroke="black" stroke-width="20" stroke-miterlimit="10"/>
<path d="M895.496 770.739C965.446 644.301 1051.32 739.371 1054.69 850.366C1060 1035.2 932.641 1035.2 893.083 996.589C840.499 945.435 867.032 822.376 895.977 770.739H895.496Z" fill="white" stroke="#140202" stroke-width="20" stroke-miterlimit="10"/>
<path d="M1038.09 867.198C1040.4 851.642 1033.93 837.796 1023.65 836.272C1013.37 834.748 1003.17 846.124 1000.87 861.679C998.564 877.234 1005.03 891.079 1015.31 892.603C1025.59 894.127 1035.79 882.753 1038.09 867.198Z" fill="black"/>
</svg>
