<svg width="1760" height="1760" viewBox="0 0 1760 1760" fill="none" xmlns="http://www.w3.org/2000/svg">
<g clip-path="url(#clip0_10_829)">
<path d="M1760 0H0V1760H1760V0Z" fill="white"/>
<path d="M959.935 379.647C851.033 347.26 832.954 440.217 812.35 507.516C785.44 595.425 798.475 661.883 734.563 705.627C681.163 742.221 606.738 752.316 548.293 730.023C455.789 695.112 452.426 742.642 450.744 747.689C405.754 890.279 495.314 967.252 447.8 1074.93C433.504 1107.32 393.559 1124.56 388.514 1159.48C382.627 1199.85 428.458 1308.8 468.403 1357.59C499.518 1395.44 547.032 1417.74 595.387 1425.73C643.741 1433.72 693.356 1429.51 742.131 1421.94C784.599 1415.21 796.372 1397.55 813.612 1377.36C859.864 1323.52 952.367 1280.61 1007.03 1350.02C1030.15 1379.46 1039.83 1483.77 1198.34 1439.19C1221.89 1432.46 1255.95 1405.96 1276.97 1381.14C1325.33 1324.78 1318.6 1236.87 1279.07 1173.36C1210.12 1062.73 1181.95 1046.33 1211.8 954.634C1226.1 910.889 1266.46 881.446 1291.69 843.17C1322.8 796.481 1298.84 766.196 1279.92 713.619C1245.02 614.353 1262.68 602.155 1185.31 625.71C1144.94 637.907 1079.35 645.058 1051.18 625.71C1007.87 596.266 1012.5 557.99 1022.59 517.19C1025.95 504.15 1043.61 404.043 959.935 379.227V379.647Z" fill="#63B6FF" stroke="black" stroke-width="20" stroke-miterlimit="10"/>
<path d="M786.279 905.001C779.551 905.001 774.086 910.048 774.086 916.778C774.086 936.126 774.506 973.982 781.654 994.592C791.325 1023.19 811.928 1049.69 840.52 1058.53C850.611 1061.89 861.543 1062.73 872.055 1062.31C891.817 1062.31 912 1057.69 927.558 1045.91C942.274 1034.55 951.944 1017.31 956.99 999.219C961.195 984.497 963.719 935.285 964.56 917.619C964.56 913.834 962.036 910.889 958.252 910.889L798.5 905L786.279 905.001Z" fill="white" stroke="black" stroke-width="20" stroke-miterlimit="10"/>
<path d="M854.817 1050.11C861.783 1050.11 867.432 1044.46 867.432 1037.5C867.432 1030.53 861.783 1024.88 854.817 1024.88C847.85 1024.88 842.203 1030.53 842.203 1037.5C842.203 1044.46 847.85 1050.11 854.817 1050.11Z" fill="black" stroke="#140202" stroke-width="20" stroke-miterlimit="10"/>
</g>
<defs>
<clipPath id="clip0_10_829">
<rect width="1760" height="1760" fill="white"/>
</clipPath>
</defs>
</svg>
