<svg width="1760" height="1760" viewBox="0 0 1760 1760" fill="none" xmlns="http://www.w3.org/2000/svg">
<rect width="1760" height="1760" fill="white"/>
<path d="M881.7 401.526C834.493 385.077 777.209 406.832 752.809 450.341C731.062 489.075 734.775 538.421 711.437 576.094C699.237 595.726 678.551 606.869 657.864 616.419C588.91 649.317 561.329 614.297 523.669 641.358C501.922 656.745 490.783 684.867 476.992 707.683C453.124 747.478 419.177 779.314 390.534 815.926C361.892 852.537 338.554 896.047 341.206 942.209C343.858 986.249 370.379 1024.98 395.839 1061.06C413.342 1086 430.846 1110.94 448.349 1135.88C463.201 1157.1 479.115 1178.86 500.862 1193.18C551.251 1225.02 616.492 1205.92 674.838 1193.18C731.593 1180.45 789.408 1174.08 846.693 1167.71C881.17 1164 916.178 1160.29 950.124 1166.12C984.071 1171.96 1017.49 1190.53 1034.46 1220.77C1043.48 1237.22 1047.19 1255.79 1053.03 1273.3C1071.59 1328.49 1115.08 1375.71 1169.72 1395.34C1224.35 1414.98 1289.59 1406.49 1335.21 1370.94C1380.82 1335.38 1405.75 1272.77 1393.55 1215.47C1380.29 1152.33 1328.31 1105.63 1291.71 1052.04C1268.9 1019.15 1251.4 981.473 1247.16 941.678C1242.91 901.883 1252.99 859.435 1279.51 829.191C1313.46 791.518 1370.21 775.6 1393.55 731.029C1417.42 685.397 1396.2 629.684 1371.8 584.053C1355.36 553.278 1323.54 518.789 1298.61 493.851C1273.68 468.912 1254.58 454.586 1219.58 454.055C1195.71 454.055 1172.9 461.484 1149.03 460.953C1119.86 460.953 926.255 417.444 879.578 400.995L881.7 401.526Z" fill="#B0FCA4" stroke="black" stroke-width="20" stroke-miterlimit="10"/>
<path d="M851.997 718.826C928.908 579.808 1023.32 684.336 1027.03 806.375C1032.87 1009.6 892.84 1009.6 849.346 967.147C791.53 910.903 820.703 775.6 852.528 718.826H851.997Z" fill="white" stroke="#140202" stroke-width="20" stroke-miterlimit="10"/>
<path d="M876.348 815.313C878.881 798.21 871.774 782.988 860.473 781.312C849.171 779.637 837.956 792.143 835.422 809.246C832.888 826.348 839.996 841.571 851.297 843.246C862.598 844.922 873.814 832.416 876.348 815.313Z" fill="black"/>
</svg>
