<svg width="1760" height="1760" viewBox="0 0 1760 1760" fill="none" xmlns="http://www.w3.org/2000/svg">
<rect width="1760" height="1760" fill="white"/>
<path d="M1231.91 556.958C1238.92 515.335 1243.13 466.697 1213.21 437.234C1197.32 421.801 1174.88 415.254 1153.37 409.174C1126.72 401.692 1100.08 394.209 1073.43 386.727C1026.68 373.632 971.511 361.94 932.708 391.403C897.178 418.528 891.101 468.568 872.868 509.723C842.013 578.47 767.679 625.237 692.878 622.898C652.206 621.495 605.455 609.336 574.6 636.461C554.497 654.232 549.822 683.695 536.732 707.079C508.215 758.054 437.622 778.164 416.117 828.204C391.339 885.727 410.973 947.46 445.568 997.032C463.801 1023.22 483.905 1047.54 503.54 1072.79C534.863 1113.01 555.433 1166.8 538.603 1214.97C533.46 1229.46 524.577 1243.03 520.369 1257.99C511.487 1289.32 522.708 1323.93 544.68 1348.25C566.653 1372.57 596.573 1387.53 627.896 1396.89C678.387 1411.85 741.966 1408.11 772.821 1365.09C797.599 1330.48 788.717 1278.1 816.767 1246.3C892.97 1160.72 1032.75 1302.89 1081.84 1272.02C1329.15 1115.82 990.211 1082.15 1018.26 916.126C1024.81 876.842 1054.26 841.767 1092.6 830.543C1130.93 819.319 1168.8 838.961 1204.8 856.732C1283.34 894.613 1331.02 834.284 1346.92 768.811C1395.54 570.987 1213.21 666.391 1231.91 557.425V556.958Z" fill="#B7ABFF" stroke="black" stroke-width="20" stroke-miterlimit="10"/>
<path d="M765.808 975.052C750.848 975.987 724.668 955.878 711.578 932.494C691.475 896.016 697.085 846.911 724.668 815.577C752.25 784.244 800.871 773.487 839.207 789.856C841.544 790.791 843.414 791.726 844.816 793.597C846.686 796.403 846.686 799.677 846.219 802.95C840.141 872.633 788.248 973.649 765.808 975.052Z" fill="#FAFCFF" stroke="black" stroke-width="20" stroke-miterlimit="10"/>
<path d="M816.766 822.592C823.221 822.592 828.454 817.358 828.454 810.9C828.454 804.443 823.221 799.209 816.766 799.209C810.311 799.209 805.078 804.443 805.078 810.9C805.078 817.358 810.311 822.592 816.766 822.592Z" fill="black" stroke="#140202" stroke-width="20" stroke-miterlimit="10"/>
</svg>
