<svg width="1760" height="1760" viewBox="0 0 1760 1760" fill="none" xmlns="http://www.w3.org/2000/svg">
<rect width="1760" height="1760" fill="white"/>
<path d="M695.216 576.125C618.655 568.385 646.348 649.861 638.611 702.413C634.131 731.744 623.135 763.113 597.479 777.778C548.611 805.073 489.562 754.558 434.178 761.076C395.898 765.557 364.54 798.962 357.617 836.848C350.694 874.735 366.576 914.658 394.268 941.545C413.816 960.692 439.064 973.728 458.611 992.875C478.159 1012.02 492.005 1041.76 481.01 1067.02C470.015 1092.68 435.399 1109.39 439.065 1137.09C440.693 1150.12 450.874 1160.31 460.24 1169.27C481.417 1189.23 503.408 1208.79 525.399 1227.93C542.91 1243.01 562.05 1258.49 584.855 1262.15C625.172 1268.26 661.824 1234.86 679.742 1197.79C697.661 1160.72 702.954 1119.16 721.28 1082.09C747.75 1028.32 801.505 988.394 860.962 979.431C886.211 975.357 913.089 976.987 935.487 990.023C968.881 1009.17 985.17 1049.09 987.206 1087.39C989.242 1125.68 980.283 1163.57 974.989 1201.45C973.36 1213.67 972.138 1226.71 978.247 1237.3C987.206 1253.19 1007.57 1257.26 1025.49 1259.3C1082.91 1265.82 1141.14 1268.67 1198.97 1267.45C1218.52 1267.45 1239.29 1265.82 1255.58 1255.23C1268.2 1247.08 1277.16 1233.64 1282.86 1219.38C1299.56 1176.2 1288.15 1126.9 1267.39 1085.76C1246.62 1044.61 1216.48 1008.36 1193.68 968.432C1177.79 940.73 1165.17 909.362 1168.43 877.994C1171.69 846.625 1195.3 814.85 1227.07 812.405C1246.21 810.776 1266.57 819.331 1284.08 811.183C1295.08 805.887 1302.41 795.296 1309.33 785.111C1333.36 748.447 1356.98 712.19 1381.01 675.526C1394.04 655.564 1407.88 632.344 1403 609.123C1398.92 588.754 1390.37 576.94 1373.27 565.533C1341.5 544.35 1317.88 518.277 1312.18 488.946C1302.41 436.801 1261.28 436.801 1241.73 435.987C1223 435.172 1202.63 435.987 1188.38 448.208C1156.21 474.688 1176.98 530.499 1154.99 565.533C1136.25 594.865 1096.35 598.938 1061.73 599.753C958.292 603.012 823.496 590.384 695.624 577.347L695.216 576.125Z" fill="#2667FF" stroke="#140202" stroke-width="20" stroke-miterlimit="10"/>
<path d="M869.921 725.634C856.482 725.634 841.414 725.227 830.418 728.486C818.609 732.152 815.759 737.856 814.537 743.559C808.428 766.372 808.021 789.593 813.315 811.999C814.537 816.887 816.165 822.183 823.089 826.257C838.564 835.219 873.586 836.442 903.722 836.442C951.369 836.442 1011.23 833.997 1030.78 817.702C1037.7 811.999 1037.7 805.481 1036.89 799.37C1035.26 782.26 1030.37 765.15 1022.63 748.04C1020.19 743.151 1017.34 737.856 1007.97 734.189C998.608 730.523 905.758 726.041 869.514 725.227L869.921 725.634Z" fill="white" stroke="black" stroke-width="20" stroke-miterlimit="10"/>
<path d="M924.34 771.135C936.704 770.738 946.387 759.843 945.968 746.8C945.549 733.757 935.187 723.506 922.824 723.903C910.46 724.301 900.777 735.196 901.196 748.239C901.615 761.281 911.977 771.532 924.34 771.135Z" fill="black"/>
</svg>
