<svg width="1760" height="1760" viewBox="0 0 1760 1760" fill="none" xmlns="http://www.w3.org/2000/svg">
<rect width="1760" height="1760" fill="white"/>
<path d="M678.623 575.027C659.816 571.815 641.928 562.638 626.332 572.733C610.736 582.828 600.644 600.265 591.011 616.784C568.993 654.869 547.435 693.414 525.417 731.499C516.243 747.559 507.069 773.714 491.014 782.433C436.888 811.8 424.962 772.338 372.67 814.094C339.185 840.708 335.973 892.1 353.404 931.104C366.706 960.93 388.725 985.708 407.073 1012.78C450.649 1077.94 471.749 1158.24 466.244 1236.71C465.327 1249.09 463.951 1262.4 468.538 1273.87C479.547 1300.49 514.867 1304.62 543.765 1304.62C731.832 1304.62 919.9 1304.62 1107.97 1304.62C1135.03 1304.62 1164.39 1304.16 1186.86 1289.02C1202 1279.38 1212.55 1264.24 1221.27 1248.64C1234.57 1225.69 1244.66 1201.37 1251.54 1176.14C1262.09 1137.59 1265.76 1096.29 1283.65 1060.5C1301.08 1026.55 1330.44 1000.39 1357.5 972.86C1384.56 945.328 1410.25 914.126 1416.67 876.499C1423.09 838.873 1403.37 793.904 1366.22 785.645C1354.29 782.891 1340.99 783.809 1329.06 780.597C1303.37 773.255 1288.24 745.724 1285.48 719.569C1282.73 693.413 1290.53 666.799 1296.49 641.103C1303.37 612.654 1308.42 583.746 1312.09 554.837C1314.38 535.106 1314.84 512.163 1298.79 500.233C1291.91 495.185 1283.19 493.35 1274.93 491.515C1241.45 484.173 1207.96 476.831 1174.48 469.489C1153.84 464.901 1132.28 460.312 1111.64 464.901C1074.48 473.16 1050.63 507.116 1021.73 531.894C982.284 565.85 930.451 583.287 878.617 588.793C826.784 594.299 787.336 593.382 677.706 575.027H678.623Z" fill="#FF82C1" stroke="black" stroke-width="20" stroke-miterlimit="10"/>
<path d="M817.608 974.695C816.69 989.838 816.232 1006.82 819.443 1019.2C823.113 1032.97 829.535 1036.18 835.498 1038.02C861.185 1045.82 886.872 1046.74 912.559 1041.69C918.064 1040.77 924.027 1038.94 929.073 1031.14C940.082 1014.16 942.374 974.695 943.751 940.74C945.585 887.053 945.127 819.6 927.238 797.116C920.816 789.315 913.936 788.856 907.055 789.315C887.79 790.692 868.066 795.28 848.801 803.54C843.296 805.834 836.874 809.046 832.746 819.6C828.617 830.154 819.901 934.316 817.608 975.154V974.695Z" fill="white" stroke="black" stroke-width="20" stroke-miterlimit="10"/>
<path d="M917.606 941.658C932.299 941.658 944.21 930.358 944.21 916.42C944.21 902.482 932.299 891.183 917.606 891.183C902.912 891.183 891 902.482 891 916.42C891 930.358 902.912 941.658 917.606 941.658Z" fill="black"/>
</svg>
