<svg width="1760" height="1760" viewBox="0 0 1760 1760" fill="none" xmlns="http://www.w3.org/2000/svg">
<rect width="1760" height="1760" fill="white"/>
<path d="M668.046 341.84C641.697 339.902 580.865 332.537 564.591 353.468C558.779 361.22 556.453 370.911 554.516 380.213C544.054 429.44 536.305 479.054 531.655 529.055C529.718 548.048 529.331 568.979 541.73 582.933C557.616 600.763 587.064 598.437 607.6 610.841C637.435 628.671 639.761 672.859 624.262 704.255C608.763 735.651 581.639 758.52 559.553 785.653C520.031 834.492 498.72 896.509 490.195 958.914C487.095 979.458 485.933 1001.94 496.007 1020.16C511.119 1047.68 545.992 1056.2 576.99 1059.69C610.701 1063.57 644.41 1063.96 678.12 1062.02C707.181 1060.08 737.791 1056.2 763.752 1069.77C807.536 1092.64 814.511 1151.94 810.249 1201.17C805.987 1250.4 797.075 1304.66 825.748 1344.97C852.096 1381.8 906.342 1393.42 947.802 1374.82C989.262 1356.21 1014.84 1310.48 1015.22 1265.13C1015.22 1220.94 994.299 1179.08 990.037 1135.28C988.874 1123.26 988.874 1110.47 993.912 1099.62C1007.09 1070.93 1045.83 1066.67 1077.22 1068.61C1108.6 1070.55 1145.8 1071.32 1165.18 1046.51C1175.64 1032.95 1177.96 1015.12 1179.9 998.45C1199.66 827.127 1219.03 655.028 1222.91 482.542C1223.68 440.293 1220.2 391.066 1185.32 367.81C1166.73 355.406 1143.48 350.367 1121 351.918C962.914 361.996 974.926 364.709 667.659 342.615L668.046 341.84Z" fill="#FCFFA6" stroke="black" stroke-width="20" stroke-miterlimit="10"/>
<path d="M1028.01 615.105C1027.23 627.896 1026.85 642.237 1029.56 652.703C1032.66 664.331 1038.08 667.044 1043.12 668.595C1064.82 675.184 1086.52 675.959 1108.22 671.696C1112.87 670.92 1117.9 669.37 1122.17 662.781C1131.46 648.439 1133.4 615.105 1134.56 586.422C1136.11 541.071 1135.73 484.093 1120.62 465.1C1115.19 458.511 1109.38 458.123 1103.57 458.51C1087.29 459.673 1070.63 463.549 1054.36 470.526C1049.71 472.464 1044.28 475.178 1040.8 484.093C1037.31 493.008 1029.95 580.995 1028.01 615.492V615.105Z" fill="white" stroke="black" stroke-width="20" stroke-miterlimit="10"/>
<path d="M1112.87 587.585C1125.28 587.585 1135.34 578.04 1135.34 566.266C1135.34 554.492 1125.28 544.948 1112.87 544.948C1100.45 544.948 1090.39 554.492 1090.39 566.266C1090.39 578.04 1100.45 587.585 1112.87 587.585Z" fill="black"/>
</svg>
