<svg width="1760" height="1760" viewBox="0 0 1760 1760" fill="none" xmlns="http://www.w3.org/2000/svg">
<rect width="1760" height="1760" fill="white"/>
<path d="M829.61 358.677C751.639 350.95 678.818 371.186 603.422 393.628C578.412 400.987 551.931 409.449 536.116 430.052C512.946 460.221 521.773 503.267 512.211 540.058C508.9 552.935 503.016 565.444 501.544 578.689C498.234 604.443 510.74 629.461 519.567 653.744C567.011 787.297 505.591 933.727 510.372 1075.74C510.372 1085.68 511.843 1096.71 519.567 1103.34C525.083 1108.12 532.438 1109.22 539.426 1109.96C568.849 1113.27 599.009 1111.43 627.696 1104.81C656.015 1098.18 683.231 1087.15 711.918 1083.84C740.605 1080.52 772.971 1087.51 790.625 1110.33C818.209 1145.65 798.348 1196.79 799.083 1241.67C799.819 1292.44 829.979 1341.01 874.113 1366.03C918.247 1391.04 974.15 1392.88 1020.86 1373.38C1036.67 1366.76 1051.38 1357.56 1063.15 1345.05C1076.03 1330.71 1084.12 1312.31 1088.9 1293.55C1096.25 1265.95 1097.36 1236.89 1092.58 1208.93C1087.43 1178.76 1075.29 1149.69 1074.55 1119.16C1073.82 1088.62 1088.16 1054.03 1117.59 1045.57C1146.64 1037.11 1182.68 1055.87 1205.85 1036.01C1218.73 1024.97 1220.93 1006.21 1222.41 989.282C1230.86 885.53 1239.32 781.778 1247.78 678.026C1249.62 655.216 1251.46 632.405 1248.89 609.962C1245.94 584.208 1230.86 554.407 1205.49 554.775C1192.61 554.775 1127.88 664.781 1003.2 625.782C878.524 586.784 938.843 481.928 933.694 441.089C929.281 405.769 893.237 365.299 829.61 359.045V358.677Z" fill="#3EC790" stroke="black" stroke-width="20" stroke-miterlimit="10"/>
<path d="M974.518 836.597C935.165 779.203 858.665 813.787 843.586 860.144C818.577 937.406 916.039 945.132 950.611 931.519C996.584 913.124 990.7 860.144 974.518 836.597Z" fill="white" stroke="#140202" stroke-width="20" stroke-miterlimit="10"/>
<path d="M913.099 834.758C921.02 834.758 927.441 829.322 927.441 822.617C927.441 815.911 921.02 810.475 913.099 810.475C905.177 810.475 898.754 815.911 898.754 822.617C898.754 829.322 905.177 834.758 913.099 834.758Z" fill="black"/>
</svg>
