<svg width="1760" height="1760" viewBox="0 0 1760 1760" fill="none" xmlns="http://www.w3.org/2000/svg">
<rect width="1760" height="1760" fill="white"/>
<path d="M821.52 529.457C813.935 516.282 805.95 501.509 809.144 486.737C814.334 463.181 842.68 455.595 864.638 445.613C907.757 426.05 941.694 382.93 988.805 380.135C1030.33 377.739 1065.86 407.684 1097 434.833C1128.14 461.983 1166.47 489.931 1207.59 482.744C1226.36 479.55 1243.52 468.77 1262.69 466.774C1287.04 464.378 1310.6 477.155 1326.97 495.521C1343.34 513.886 1352.92 536.644 1360.9 559.402C1374.48 596.932 1384.46 637.257 1377.67 676.384C1368.89 727.09 1332.96 768.613 1312.59 815.725C1299.02 846.867 1293.03 885.196 1312.59 912.745C1320.98 924.722 1333.36 933.107 1344.53 942.29C1376.07 968.241 1401.63 1004.97 1404.02 1046.1C1407.61 1110.78 1355.31 1164.28 1303.01 1201.81C1185.63 1285.25 1046.7 1335.96 904.165 1357.52C816.73 1370.69 726.899 1373.49 640.661 1353.92C554.424 1334.36 472.179 1291.64 414.687 1224.56C389.136 1195.02 368.375 1158.69 368.774 1119.96C368.774 1093.21 379.155 1067.26 391.132 1043.3C418.281 988.604 454.213 938.297 497.332 895.177C520.488 872.02 552.827 849.263 583.17 860.841C612.714 872.02 622.695 908.353 623.094 939.894C623.494 971.435 613.113 1008.17 632.676 1032.52C704.141 1120.76 833.498 903.961 856.654 849.263C953.671 620.887 842.68 565.79 821.919 530.256L821.52 529.457Z" fill="#FFD58C" stroke="black" stroke-width="20" stroke-miterlimit="10"/>
<path d="M1057.48 637.257C1020.35 661.612 1020.75 731.881 1043.9 773.404C1047.5 780.191 1051.89 786.58 1057.48 790.971C1064.66 796.96 1073.45 800.154 1082.23 801.751C1114.57 808.139 1150.1 798.158 1172.46 770.609C1194.82 743.061 1200.41 697.545 1182.04 666.802C1170.47 647.638 1151.7 635.66 1132.14 630.47C1112.57 625.279 1088.62 616.496 1057.48 636.858V637.257Z" fill="white" stroke="black" stroke-width="20" stroke-miterlimit="10"/>
<path d="M1112.58 740.266C1121.4 740.266 1128.55 732.043 1128.55 721.9C1128.55 711.757 1121.4 703.534 1112.58 703.534C1103.76 703.534 1096.61 711.757 1096.61 721.9C1096.61 732.043 1103.76 740.266 1112.58 740.266Z" fill="black"/>
</svg>
