<svg width="1760" height="1760" viewBox="0 0 1760 1760" fill="none" xmlns="http://www.w3.org/2000/svg">
<rect width="1760" height="1760" fill="white"/>
<path d="M841.163 573.235C796.157 573.668 751.151 578.43 706.577 574.967C646.857 570.205 618.726 542.065 624.352 666.31C631.709 825.619 606.176 912.634 597.088 1035.58C594.492 1068.05 588.002 1107.01 557.709 1119.13C541.697 1125.62 523.088 1122.16 505.778 1124.76C472.455 1129.95 445.625 1158.53 435.671 1190.99C425.718 1223.46 430.044 1258.53 439.565 1290.99C445.191 1310.04 453.414 1329.09 465.098 1345.11C502.748 1396.19 575.883 1411.78 637.334 1396.19C670.657 1387.97 703.547 1370.22 719.126 1339.48C726.483 1325.19 729.08 1309.18 733.408 1294.02C743.794 1256.79 764.564 1221.3 796.588 1199.65C828.612 1178.01 873.187 1173.24 906.077 1193.59C947.189 1219.13 959.306 1273.68 990.031 1310.91C1038.07 1369.35 1137.17 1374.98 1191.26 1322.6C1245.36 1270.22 1243.63 1171.08 1186.93 1120.86C1157.94 1095.32 1116.83 1079.74 1102.12 1044.24C1092.16 1019.56 1099.08 989.258 1118.56 971.076C1155.78 936.877 1218.53 954.626 1262.67 929.517C1304.64 905.707 1316.76 852.027 1323.25 803.974C1328.01 769.342 1331.48 734.709 1334.07 699.644C1336.24 671.505 1336.24 639.47 1315.46 620.422C1295.99 603.105 1268.29 599.642 1243.19 592.283C1138.03 562.845 1207.71 473.666 1173.95 400.505C1155.34 359.812 1122.45 350.288 1089.13 358.946C1051.05 368.47 1037.2 414.791 1032.01 453.753C1026.81 492.714 1019.89 538.169 985.272 556.784C971.856 564.144 955.843 565.443 940.697 567.174C917.761 569.339 894.824 572.802 840.297 573.235H841.163Z" fill="#FFE0F6" stroke="black" stroke-width="20" stroke-miterlimit="10"/>
<path d="M763.701 858.521C767.596 886.659 774.952 919.128 801.35 930.383C817.795 937.31 837.269 933.413 855.012 928.219C877.082 921.292 899.151 911.768 916.029 896.184C932.906 880.599 944.593 858.088 942.429 835.144C940.265 810.901 922.953 791.42 905.643 774.536C873.187 743.367 835.536 716.094 791.395 706.137C786.635 704.839 781.443 703.973 776.683 705.271C765.431 707.436 758.073 718.692 756.775 729.514C755.477 740.337 759.373 826.486 763.701 858.954V858.521Z" fill="white" stroke="black" stroke-width="20" stroke-miterlimit="10"/>
<path d="M891.742 913.034C903.186 907.602 908.811 895.494 904.304 885.989C899.796 876.485 886.863 873.183 875.419 878.615C863.974 884.046 858.351 896.153 862.859 905.658C867.366 915.162 880.297 918.465 891.742 913.034Z" fill="#030005"/>
</svg>
