<svg width="1760" height="1760" viewBox="0 0 1760 1760" fill="none" xmlns="http://www.w3.org/2000/svg">
<rect width="1760" height="1760" fill="white"/>
<path d="M905.19 331.382C861.707 333.068 843.505 375.554 843.505 437.598C843.505 481.096 850.246 534.036 819.572 564.721C735.303 649.019 698.225 585.964 645.641 617.998C615.641 636.206 597.439 670.937 596.09 706.342C594.742 741.748 608.562 776.142 631.146 803.117C649.012 824.698 672.607 842.907 682.719 868.871C700.921 916.415 668.562 966.319 647.663 1012.85C633.843 1043.2 624.742 1075.57 620.697 1108.95C616.315 1144.02 619.012 1183.14 643.618 1208.76C660.809 1226.97 686.427 1235.06 705.64 1251.25C730.247 1271.48 742.719 1302.5 758.899 1329.82C775.078 1357.13 800.022 1383.77 832.044 1384.78C877.887 1386.46 910.92 1335.21 956.763 1330.49C1003.62 1325.77 1045.08 1371.29 1091.59 1364.21C1125.98 1358.81 1150.58 1324.42 1153.28 1289.69C1155.98 1254.96 1141.82 1220.9 1123.62 1191.57C1105.41 1162.23 1082.49 1135.25 1065.64 1104.57C1039.68 1057.7 1029.91 997.679 1055.86 950.809C1067.32 929.902 1085.19 913.38 1100.02 894.834C1130.36 858.08 1151.26 813.233 1159.68 766.026C1164.07 742.422 1165.08 717.132 1156.65 694.54C1146.87 668.239 1124.29 646.322 1123.28 618.335C1122.27 598.44 1132.72 579.894 1139.8 561.012C1146.87 542.129 1148.56 520.885 1138.11 503.689C1109.12 455.807 1058.9 494.584 986.426 427.145C953.392 396.461 961.145 329.021 905.864 331.045L905.19 331.382Z" fill="#FF82C1" stroke="black" stroke-width="20" stroke-miterlimit="10"/>
<path d="M851.595 797.049C813.168 832.454 807.775 932.264 818.224 995.657C819.909 1005.77 822.269 1015.55 825.64 1022.97C830.022 1032.41 836.426 1037.81 842.831 1041.18C866.426 1053.65 895.415 1041.85 916.987 1003.41C938.56 964.972 950.695 898.882 941.931 851.674C936.538 822.676 924.066 803.456 909.909 794.014C895.752 784.573 876.201 774.457 851.595 797.049Z" fill="white" stroke="#140202" stroke-width="20" stroke-miterlimit="10"/>
<path d="M891.651 927.265C893.352 912.465 889.334 899.845 882.676 899.079C876.018 898.313 869.242 909.691 867.54 924.492C865.839 939.292 869.857 951.911 876.515 952.677C883.173 953.443 889.949 942.066 891.651 927.265Z" fill="black"/>
</svg>
