<svg width="1760" height="1760" viewBox="0 0 1760 1760" fill="none" xmlns="http://www.w3.org/2000/svg">
<rect width="1760" height="1760" fill="white"/>
<path d="M570.274 517.595C526.465 510.675 479.427 518.979 444.379 546.196C409.332 573.414 388.58 620.007 398.264 663.371C401.953 680.439 410.254 696.124 413.482 712.731C424.089 769.934 376.59 828.982 395.497 884.34C404.259 910.173 426.394 929.087 438.384 953.537C464.209 1005.2 442.535 1066.56 422.705 1120.99C402.876 1175.43 386.735 1240.47 420.86 1287.07C447.146 1323.05 498.334 1335.51 541.683 1324.89C585.031 1314.28 621.923 1284.76 650.976 1250.62C680.028 1216.49 703.086 1178.2 730.294 1142.21C747.357 1119.15 766.725 1097.01 791.166 1082.24C815.607 1067.48 846.044 1060.1 873.713 1068.87C917.061 1082.7 940.119 1129.76 949.342 1174.51C958.565 1219.25 959.487 1266.31 980.239 1306.9C1006.99 1358.57 1063.71 1389.94 1120.89 1401.01C1147.64 1406.09 1176.23 1407.93 1202.51 1400.55C1276.76 1380.25 1316.88 1297.22 1321.49 1220.64C1326.1 1144.06 1305.81 1067.94 1303.51 990.904C1301.66 927.243 1312.73 864.042 1331.64 803.149C1347.32 752.404 1368.99 702.121 1368.07 649.07C1367.15 596.019 1334.87 538.355 1282.76 530.051C1256.93 525.899 1230.65 532.819 1204.36 532.819C1049.41 532.357 1123.2 423.026 1010.21 398.576C958.565 387.505 902.304 396.27 859.878 427.639C828.52 451.166 806.846 486.226 772.72 505.601C754.274 515.75 733.522 520.825 712.77 524.515C668.961 532.358 626.074 527.744 570.274 518.979V517.595Z" fill="#E6E1E1" stroke="black" stroke-width="20" stroke-miterlimit="10"/>
<path d="M996.379 774.086C997.302 827.137 959.026 875.575 910.605 897.718C899.076 903.254 886.625 907.406 873.713 907.867C849.272 908.79 825.753 896.796 807.768 880.188C775.948 850.664 758.886 805.917 763.036 763.015C763.036 758.402 764.419 753.327 768.109 751.02C770.414 749.175 773.642 749.176 776.871 748.714C834.976 745.485 893.542 745.946 951.647 749.636C969.632 751.02 995.918 755.172 996.379 774.086Z" fill="white" stroke="black" stroke-width="20" stroke-miterlimit="10"/>
<path d="M901.844 780.896C904.138 769.143 895.866 757.637 883.368 755.195C870.869 752.753 858.878 760.301 856.583 772.054C854.289 783.806 862.561 795.313 875.059 797.755C887.558 800.196 899.549 792.648 901.844 780.896Z" fill="black"/>
</svg>
