<svg width="1760" height="1760" viewBox="0 0 1760 1760" fill="none" xmlns="http://www.w3.org/2000/svg">
<rect width="1760" height="1760" fill="white"/>
<path d="M852.497 351.216C787.616 346.258 761.484 427.838 740.308 465.247C706.516 524.291 655.152 581.082 587.568 588.744C569.546 590.547 550.622 588.744 533.501 595.505C495.203 609.477 479.884 654.549 469.972 694.212C461.862 726.213 453.752 758.664 445.191 790.665C433.927 835.286 422.213 881.259 427.169 927.683C431.675 971.403 450.598 1011.97 459.159 1054.78C466.368 1092.19 465.917 1130.51 461.412 1167.91C456.455 1209.38 447.444 1254.45 469.972 1289.61C477.632 1301.78 488.896 1311.69 501.061 1319.81C565.491 1362.17 664.163 1344.6 702.911 1278.34C730.846 1230.11 725.439 1167.91 750.671 1117.89C770.495 1079.12 810.144 1049.83 853.849 1048.02C897.553 1046.22 941.708 1076.42 951.62 1118.79C961.082 1157.55 942.609 1197.21 926.839 1234.17C911.07 1271.13 897.553 1313.95 915.575 1349.55C927.29 1372.54 949.818 1387.86 973.697 1397.78C1016.95 1415.36 1067.41 1416.26 1109.77 1396.88C1152.12 1377.5 1185.46 1336.93 1192.22 1290.51C1196.72 1259.41 1189.97 1227.41 1190.87 1195.86C1191.77 1164.31 1204.38 1129.15 1233.67 1116.98C1259.8 1106.17 1289.99 1116.98 1317.92 1111.12C1362.98 1101.66 1388.66 1047.12 1375.6 1002.95C1362.53 958.783 1319.28 928.133 1274.22 920.02C1250.34 915.513 1226.01 916.415 1203.03 909.654C1153.92 895.231 1119.23 848.807 1106.16 799.679C1093.1 750.551 1097.6 697.818 1104.36 647.337C1107.06 625.252 1110.67 603.167 1106.16 581.532C1101.66 559.898 1088.14 538.714 1067.41 531.953C1039.93 522.939 1010.19 528.798 982.258 520.685C899.355 495.896 942.609 358.427 852.947 351.667L852.497 351.216Z" fill="#2667FF" stroke="black" stroke-width="20" stroke-miterlimit="10"/>
<path d="M930.894 785.707C931.796 837.539 894.399 884.865 847.09 906.499C835.826 911.908 823.661 915.964 811.046 916.415C787.166 917.316 764.187 905.597 746.616 889.372C715.527 860.526 698.856 816.806 702.911 774.889C702.911 770.382 704.263 765.424 707.868 763.171C710.12 761.368 713.274 761.368 716.428 760.917C773.199 757.762 830.42 758.213 887.19 761.819C904.762 763.171 930.444 767.227 930.894 785.707Z" fill="white" stroke="black" stroke-width="20" stroke-miterlimit="10"/>
<path d="M838.519 791.896C840.761 780.414 832.679 769.171 820.468 766.786C808.257 764.4 796.54 771.775 794.299 783.258C792.057 794.74 800.139 805.982 812.35 808.368C824.561 810.753 836.278 803.379 838.519 791.896Z" fill="black"/>
</svg>
