<svg width="1760" height="1760" viewBox="0 0 1760 1760" fill="none" xmlns="http://www.w3.org/2000/svg">
<rect width="1760" height="1760" fill="white"/>
<path d="M737.922 379.492C682.718 356.086 649.449 384.978 577.428 418.625C534.654 438.739 530.998 512.98 484.934 579.175C475.063 593.438 464.46 607.701 460.805 624.524C456.052 645.004 461.901 666.216 464.461 687.061C469.213 726.925 462.267 767.154 462.267 807.383C462.267 847.612 471.041 890.766 500.654 917.829C529.901 944.527 571.944 949.281 609.6 960.253C647.256 971.224 688.202 995.362 692.223 1034.49C695.148 1061.19 679.428 1086.43 675.772 1113.49C670.653 1151.52 692.589 1191.39 726.589 1208.94C760.589 1226.5 804.459 1222.11 835.535 1199.43C857.104 1183.71 872.094 1160.67 893.664 1144.94C916.696 1128.12 947.405 1121.17 974.459 1129.58C1009.56 1140.55 1033.68 1178.95 1028.93 1215.52C1025.64 1239.66 1011.38 1260.87 1005.53 1284.28C994.201 1329.63 1018.33 1381.56 1060.37 1402.04C1102.42 1422.52 1158.35 1409.35 1186.87 1372.05C1201.12 1353.77 1208.44 1331.09 1213.19 1308.42C1221.23 1268.19 1220.87 1226.13 1212.46 1185.9C1206.97 1159.2 1197.47 1132.87 1180.65 1111.66C1145.92 1067.77 1084.14 1051.32 1049.77 1007.06C1019.79 968.299 1007.36 949.281 1019.43 866.263C1027.1 814.697 1073.53 744.114 1011.75 693.645C992.373 677.553 964.588 674.261 929.126 692.547C782.89 766.056 750.718 608.432 761.685 563.449C789.105 453.733 792.029 402.899 738.288 379.859L737.922 379.492Z" fill="#FFF570" stroke="black" stroke-width="20" stroke-miterlimit="10"/>
<path d="M779.964 845.051C743.771 870.652 744.502 943.064 766.803 986.219C770.459 993.167 774.48 999.75 779.964 1004.5C786.91 1010.72 795.319 1014.01 804.093 1015.84C835.168 1022.42 869.534 1011.82 891.104 983.293C912.673 954.767 915.233 909.052 900.243 875.406C876.48 822.742 809.943 823.474 779.964 844.685V845.051Z" fill="white" stroke="#140202" stroke-width="20" stroke-miterlimit="10"/>
<path d="M833.34 951.841C841.821 951.841 848.695 943.327 848.695 932.824C848.695 922.321 841.821 913.806 833.34 913.806C824.86 913.806 817.986 922.321 817.986 932.824C817.986 943.327 824.86 951.841 833.34 951.841Z" fill="black"/>
</svg>
