<svg width="1760" height="1760" viewBox="0 0 1760 1760" fill="none" xmlns="http://www.w3.org/2000/svg">
<rect width="1760" height="1760" fill="white"/>
<path d="M921.692 370.342C883.072 362.899 845.515 393.026 828.862 428.47C812.209 463.914 810.438 504.674 805.123 543.662C799.808 582.65 789.179 623.765 759.77 649.993C727.528 678.703 681.113 682.602 638.241 685.437C604.227 687.564 570.213 689.691 535.844 691.817C525.215 692.526 513.877 693.59 506.436 700.678C500.059 706.704 497.933 715.919 495.807 724.426C486.949 763.414 478.091 802.047 469.233 841.035C463.919 864.428 458.604 888.53 462.147 911.923C468.525 955.164 500.767 991.317 537.262 1015.42C598.204 1055.47 614.856 1069.65 635.052 1108.28C672.255 1179.17 653.477 1266.01 679.341 1338.67C692.097 1374.46 737.094 1388.29 773.943 1397.86C814.335 1408.49 857.915 1409.55 897.598 1396.79C937.282 1384.03 973.067 1356.74 992.555 1319.88C1026.57 1254.66 1006.37 1170.31 1043.93 1106.86C1076.17 1051.93 1143.85 1026.41 1180.34 973.949C1215.77 922.91 1215.77 856.276 1214.71 793.895C1213.65 744.983 1212.58 695.716 1211.52 646.804C1210.81 610.651 1204.08 565.992 1169.71 555.005C1139.95 545.435 1117.27 572.018 1088.93 585.486C1021.61 617.386 989.72 604.271 970.941 573.081C962.438 558.903 948.266 531.612 964.564 490.142C978.737 453.99 985.823 382.748 922.046 370.697L921.692 370.342Z" fill="white" stroke="black" stroke-width="20" stroke-miterlimit="10"/>
<path d="M792.369 917.594C786.7 939.924 782.448 966.861 799.455 983.166C810.439 993.444 827.092 996.28 842.681 997.343C862.523 998.761 882.719 998.052 901.143 990.963C919.568 983.874 935.866 970.406 941.535 952.684C947.204 933.544 940.118 913.696 931.614 895.619C915.67 862.302 894.411 830.403 862.523 809.491C858.98 807.364 855.437 804.883 851.185 804.175C841.618 802.402 832.406 808.782 827.8 816.934C823.194 825.086 799.101 891.366 792.723 917.594H792.369Z" fill="white" stroke="black" stroke-width="20" stroke-miterlimit="10"/>
<path d="M865.47 943.499C876.207 942.769 884.438 935.21 883.854 926.617C883.27 918.024 874.092 911.65 863.354 912.381C852.617 913.111 844.385 920.669 844.97 929.262C845.554 937.855 854.732 944.229 865.47 943.499Z" fill="#030005"/>
</svg>
