<svg width="1760" height="1760" viewBox="0 0 1760 1760" fill="none" xmlns="http://www.w3.org/2000/svg">
<rect width="1760" height="1760" fill="white"/>
<path d="M871.301 371.4C845.047 372.437 826.739 393.516 818.103 418.397C809.467 443.278 809.121 471.269 795.649 494.076C771.122 535.544 715.16 543.147 667.143 541.764C645.726 541.073 621.544 540.728 605.999 555.241C590.454 569.755 589.073 593.944 588.727 615.369C588.036 682.409 587.691 749.449 587 816.143C587 828.583 587 842.061 595.291 851.391C611.872 870.743 642.617 857.266 668.18 855.883C694.779 854.501 721.378 870.051 733.123 893.895C748.668 925.342 737.959 963.7 719.996 994.11C702.033 1024.52 677.852 1050.78 663.343 1082.57C648.835 1114.37 647.107 1156.18 671.634 1181.06C695.815 1205.6 734.85 1204.9 769.395 1205.6C814.303 1206.29 864.738 1215.96 888.919 1253.63C902.737 1275.05 905.155 1301.66 909.991 1326.54C914.827 1351.42 924.5 1378.03 946.608 1390.82C962.499 1400.15 981.844 1400.49 999.807 1396.35C1028.82 1389.44 1055.08 1370.43 1068.2 1343.48C1080.64 1317.9 1079.95 1287.84 1082.02 1259.5C1084.1 1231.17 1091 1200.41 1113.11 1182.1C1132.46 1166.55 1159.4 1163.78 1179.44 1148.92C1208.8 1127.15 1215.36 1086.72 1217.78 1050.09C1221.93 992.036 1220.55 918.43 1216.06 906.336C1210.53 890.094 1080.64 929.834 1080.64 702.452C1080.64 545.911 1243 639.905 1243 560.079C1243 543.838 1236.78 525.522 1221.58 519.302C1214.67 516.538 1207.07 516.538 1199.47 516.538C1128.66 516.538 1057.84 505.48 990.48 483.364C975.971 478.526 961.117 472.997 950.063 462.284C934.172 446.734 911.027 368.636 871.301 370.018V371.4Z" fill="#FFD58C" stroke="black" stroke-width="20" stroke-miterlimit="10"/>
<path d="M862.665 726.987C825.357 761.889 828.121 853.464 844.702 910.828C847.466 920.158 850.575 928.797 854.72 935.363C860.247 943.657 867.156 948.149 874.065 950.914C899.628 960.589 928.991 947.803 948.335 911.519C967.68 875.235 974.589 813.378 961.462 770.874C953.172 744.611 938.663 727.678 923.118 720.421C907.573 713.164 886.155 704.525 862.665 726.987Z" fill="white" stroke="#140202" stroke-width="20" stroke-miterlimit="10"/>
<path d="M915.756 843.711C916.279 829.98 910.984 818.631 903.93 818.362C896.877 818.093 890.734 829.007 890.212 842.738C889.689 856.47 894.984 867.819 902.038 868.087C909.092 868.356 915.234 857.442 915.756 843.711Z" fill="black"/>
</svg>
