<svg width="1760" height="1760" viewBox="0 0 1760 1760" fill="none" xmlns="http://www.w3.org/2000/svg">
<rect width="1760" height="1760" fill="white"/>
<path d="M711.834 385.652C696.089 367.933 663.025 366.357 644.131 380.533C625.237 394.708 614.609 417.94 612.248 441.171C610.673 458.497 608.705 475.429 604.375 492.36C592.566 536.067 503.608 526.224 476.842 536.462C445.745 548.274 431.181 562.056 424.884 594.738C389.458 775.08 483.927 839.656 500.853 850.288C522.895 864.069 556.747 859.737 570.917 881.788C576.428 890.057 577.215 900.689 578.002 910.533C581.151 952.665 581.151 994.797 578.79 1036.54C576.034 1082.21 565.407 1134.19 525.257 1155.84C503.214 1167.66 454.405 1171.59 431.969 1221.6C414.649 1260.19 422.915 1298.78 418.979 1340.91C417.405 1358.63 417.798 1379.5 431.182 1391.31C438.66 1398.01 448.895 1400.37 459.129 1402.34C551.236 1421.63 645.705 1427.93 739.387 1421.24C770.09 1418.88 807.09 1411 817.324 1381.86C824.016 1362.96 816.931 1342.49 811.026 1323.59C799.218 1285 792.526 1243.26 801.973 1203.88C811.42 1164.51 838.58 1127.89 877.155 1115.29C915.73 1102.69 963.752 1121.19 977.922 1159.39C985.401 1179.47 983.039 1202.31 993.273 1221.21C1010.2 1251.92 1051.14 1257.83 1085.77 1259.8C1122.77 1262.16 1164.5 1262.95 1191.27 1237.35C1216.06 1213.73 1219.21 1176.71 1224.72 1142.85C1229.45 1112.53 1236.53 1082.61 1246.37 1053.86C1251.49 1038.9 1257.39 1023.93 1268.02 1012.12C1283.37 995.584 1305.81 988.497 1324.7 976.684C1357.77 956.602 1381.78 920.377 1382.96 881.394C1384.14 842.412 1359.73 803.43 1322.73 790.83C1304.23 784.53 1282.59 784.53 1267.23 771.929C1256.61 763.267 1251.1 749.879 1246.77 736.491C1223.15 660.889 1240.47 612.851 1243.62 533.705C1245.19 498.267 1265.27 395.102 1184.97 380.139C1135.76 371.083 1109.39 469.522 935.411 477.791C831.888 482.516 755.526 435.265 710.653 384.471L711.834 385.652Z" fill="#FF3B83" stroke="black" stroke-width="20" stroke-miterlimit="10"/>
<path d="M796.463 695.147C732.696 731.767 733.877 835.719 773.239 897.539C779.537 907.383 787.016 916.834 796.463 923.921C808.665 932.978 824.016 937.309 838.974 940.066C894.081 949.91 955.092 934.553 993.274 893.602C1031.45 852.651 1041.3 785.318 1009.41 739.248C989.731 710.897 957.454 693.178 923.996 685.303C890.538 677.428 849.602 664.828 796.463 695.147Z" fill="white" stroke="#140202" stroke-width="20" stroke-miterlimit="10"/>
<path d="M890.538 847.925C905.538 847.925 917.698 835.762 917.698 820.756C917.698 805.751 905.538 793.587 890.538 793.587C875.538 793.587 863.378 805.751 863.378 820.756C863.378 835.762 875.538 847.925 890.538 847.925Z" fill="black"/>
</svg>
