<svg width="1760" height="1760" viewBox="0 0 1760 1760" fill="none" xmlns="http://www.w3.org/2000/svg">
<rect width="1760" height="1760" fill="white"/>
<path d="M877.957 361.473C800.056 337.093 751.314 437.66 746.962 497.739C744.786 529.955 660.792 537.356 615.096 524.296C569.4 511.235 525.444 489.467 478.007 489.902C465.386 489.902 452.331 492.08 442.756 499.916C428.83 511.67 426.218 531.696 424.913 549.981C420.125 613.543 415.339 677.104 410.551 741.101C407.07 788.99 398.801 849.069 431.441 883.897C463.646 918.725 531.537 912.631 552.427 970.968C615.966 1150.33 419.69 1112.89 413.162 1231.74C410.986 1267.88 417.079 1317.51 443.191 1342.32C458.423 1356.69 479.313 1364.09 500.203 1368.45C543.723 1377.59 589.419 1377.15 632.939 1366.27C700.83 1349.73 760.888 1309.67 826.168 1284.86C891.449 1260.04 971.526 1252.64 1026.36 1296.61C1059.87 1323.6 1079.89 1367.57 1118.62 1386.73C1146.04 1400.66 1178.25 1399.36 1208.71 1395C1232.21 1391.52 1256.15 1386.29 1274.43 1371.49C1303.15 1348.85 1312.72 1309.67 1318.38 1273.54C1324.47 1236.53 1327.96 1195.61 1306.2 1165.14C1285.74 1136.84 1249.18 1126.39 1215.67 1118.12C1179.99 1108.98 1143.87 1099.83 1108.18 1090.69C1090.34 1086.34 1072.49 1081.55 1055.95 1073.28C992.415 1041.06 967.174 962.261 965.868 890.863C964.998 856.905 968.914 821.206 987.193 792.473C1021.57 738.924 1093.82 726.735 1146.04 690.6C1209.58 646.629 1241.79 562.171 1223.51 487.29C1219.16 469.441 1211.32 429.389 1195.65 420.246C1182.6 412.41 998.943 433.742 977.618 425.905C951.941 416.763 939.756 379.758 878.392 360.602L877.957 361.473Z" fill="#FF82C1" stroke="black" stroke-width="20" stroke-miterlimit="10"/>
<path d="M807.455 1010.15C757.407 1014.5 709.534 981.416 685.598 937.446C679.941 926.997 675.153 915.243 673.413 903.053C670.801 879.979 680.811 857.341 695.173 839.056C720.85 807.275 761.759 788.555 802.667 789.426C807.019 789.426 811.806 790.296 814.417 793.344C816.158 795.52 816.594 798.568 817.029 801.18C823.992 855.6 827.474 910.889 827.474 965.744C827.474 983.158 825.298 1007.97 807.455 1009.28V1010.15Z" fill="white" stroke="black" stroke-width="20" stroke-miterlimit="10"/>
<path d="M817.748 902.04C819.223 890.109 811.33 879.312 800.119 877.925C788.908 876.538 778.623 885.086 777.148 897.017C775.673 908.948 783.566 919.744 794.777 921.131C805.989 922.518 816.273 913.971 817.748 902.04Z" fill="black"/>
</svg>
