<svg width="1760" height="1760" viewBox="0 0 1760 1760" fill="none" xmlns="http://www.w3.org/2000/svg">
<rect width="1760" height="1760" fill="white"/>
<path d="M738.032 480.927L644.922 467.565C631.957 465.6 617.421 464.028 606.421 470.709C588.349 481.713 587.563 506.865 585.599 527.695C579.706 591.755 541.99 652.279 486.988 685.684C455.951 704.549 419.807 715.16 394.27 740.706C359.305 775.683 352.626 829.918 357.34 878.651C361.269 922.275 374.234 967.471 406.056 997.733C470.094 1059.04 581.277 1037.43 651.208 1091.66C661.03 1099.52 670.066 1108.95 674.387 1120.35C683.423 1143.93 671.637 1169.87 666.53 1194.24C654.351 1254.37 686.959 1321.57 743.14 1346.33C799.32 1371.09 872.787 1349.48 903.824 1296.42C918.36 1271.27 924.253 1241 943.897 1219.78C968.648 1193.06 1009.51 1187.16 1045.65 1192.67C1081.79 1198.17 1115.58 1213.1 1151.33 1221.35C1167.44 1224.89 1184.33 1227.25 1200.83 1224.89C1221.26 1221.75 1240.12 1210.74 1256.62 1198.17C1308.87 1158.08 1344.23 1098.74 1365.45 1036.64C1378.02 999.305 1385.88 957.253 1370.55 920.703C1361.52 898.695 1344.63 880.616 1332.05 860.18C1297.87 802.801 1301.41 730.487 1314.37 664.855C1327.34 599.222 1349.34 534.376 1347.77 467.172C1347.38 446.342 1343.84 423.941 1328.91 409.007C1304.95 385.033 1265.26 392.107 1232.66 401.146C1185.9 414.115 1135.62 429.443 1107.33 468.744C1064.9 527.302 1010.68 650.314 907.753 598.044C848.036 567.782 814.249 491.145 737.64 480.141L738.032 480.927Z" fill="#3EC790" stroke="black" stroke-width="20" stroke-miterlimit="10"/>
<path d="M852.75 775.29C810.32 814.984 813.071 919.524 831.143 984.763C833.893 995.374 837.821 1005.2 842.536 1012.67C848.822 1022.49 856.679 1027.21 864.536 1030.35C893.609 1041.75 927.003 1027.21 949.397 985.942C971.79 944.676 980.04 874.721 965.111 825.988C956.075 796.12 939.182 776.862 921.503 768.216C903.823 759.57 879.465 750.137 852.75 775.29Z" fill="white" stroke="#140202" stroke-width="20" stroke-miterlimit="10"/>
<path d="M911.599 908.116C912.27 892.502 906.312 879.566 898.291 879.221C890.27 878.876 883.224 891.254 882.553 906.868C881.883 922.481 887.842 935.418 895.863 935.762C903.883 936.107 910.929 923.729 911.599 908.116Z" fill="black"/>
</svg>
