<svg width="1760" height="1760" viewBox="0 0 1760 1760" fill="none" xmlns="http://www.w3.org/2000/svg">
<rect width="1760" height="1760" fill="white"/>
<path d="M522.03 699.898C509.207 645.966 489.219 597.691 452.259 556.204C379.471 474.74 528.819 361.972 636.681 377.436C640.075 377.813 643.847 378.567 646.487 381.207C649.127 384.224 649.126 388.373 649.126 392.144C652.143 474.74 736.622 533.952 818.838 542.627C901.055 551.301 981.762 523.015 1061.72 503.403C1107.73 492.089 1159.77 484.169 1199.75 509.438C1243.5 537.347 1256.7 595.805 1255.57 647.851C1254.43 699.898 1244.25 753.076 1257.45 803.614C1268.39 845.477 1294.41 881.306 1311.76 920.907C1329.11 960.508 1337.03 1009.16 1312.51 1044.61C1274.8 1099.3 1193.34 1086.85 1126.96 1085.72C1074.16 1084.97 1013.06 1101.18 991.945 1149.46C967.808 1204.52 1007.79 1270.9 986.666 1327.1C963.66 1387.44 875.787 1401.02 822.987 1364.43C770.188 1327.85 748.314 1259.21 746.051 1194.72C743.788 1130.22 757.365 1066.49 758.873 1001.99C758.873 989.171 758.874 975.594 751.331 965.034C731.72 937.125 685.708 956.359 667.983 985.022C650.257 1013.69 638.189 1045.74 615.561 1071.01C579.356 1111.37 362.501 982.759 508.076 847.363C549.184 809.271 533.345 743.647 522.785 699.521L522.03 699.898Z" fill="#DAD4FF" stroke="black" stroke-width="20" stroke-miterlimit="10"/>
<path d="M1119.05 632.387C1128.1 674.628 1104.71 719.509 1069.64 745.155C1060.97 751.189 1051.91 756.846 1041.35 759.109C1021.74 763.635 1001 757.601 984.029 747.04C953.858 728.183 933.492 694.994 929.721 659.919C929.721 656.148 929.344 651.999 931.984 649.359C933.869 647.473 936.133 647.096 938.773 646.342C985.161 634.65 1031.93 625.976 1079.07 619.941C1093.78 618.056 1115.65 616.924 1119.05 632.387Z" fill="white" stroke="black" stroke-width="20" stroke-miterlimit="10"/>
<path d="M1025.51 704.8C1033.22 704.8 1039.47 698.046 1039.47 689.714C1039.47 681.382 1033.22 674.628 1025.51 674.628C1017.81 674.628 1011.56 681.382 1011.56 689.714C1011.56 698.046 1017.81 704.8 1025.51 704.8Z" fill="black"/>
</svg>
