<svg width="1760" height="1760" viewBox="0 0 1760 1760" fill="none" xmlns="http://www.w3.org/2000/svg">
<rect width="1760" height="1760" fill="white"/>
<path d="M653.486 317.912C624.107 321.83 591.202 321.046 572.399 343.382C559.864 358.273 555.555 378.257 551.638 397.066C541.845 444.481 531.661 491.896 521.868 539.702C511.683 588.293 501.498 639.235 514.816 687.041C528.135 734.848 563.39 774.817 573.183 823.408C579.45 854.756 574.75 887.672 565.74 918.629C553.205 961.342 532.444 1001.7 505.023 1036.97C483.87 1064.4 457.233 1092.22 458.017 1126.71C458.409 1163.54 490.138 1191.75 518.734 1215.27C541.062 1233.29 563.39 1251.32 586.11 1269.34C615.097 1292.46 653.877 1317.15 686.39 1299.12C714.202 1283.84 719.294 1246.61 722.82 1214.87C727.129 1175.3 735.355 1134.54 758.858 1102.8C782.361 1071.06 825.059 1049.9 862.664 1062.83C887.343 1071.45 905.754 1093.01 914.763 1117.69C923.773 1142.38 924.164 1169.03 920.639 1194.89C915.155 1232.9 902.62 1276 926.123 1306.57C936.308 1319.89 951.585 1328.12 966.862 1334.78C1020.92 1358.29 1081.24 1367.31 1139.61 1360.25C1156.06 1358.29 1172.91 1354.77 1187.4 1346.15C1219.91 1326.55 1232.06 1284.62 1228.53 1247.01C1225.01 1209.39 1208.95 1174.12 1197.19 1138.46C1159.59 1025.61 1161.94 899.82 1203.85 788.532C1220.7 743.077 1244.2 700.365 1261.04 655.301C1288.07 583.983 1299.82 507.178 1301 430.766C1301 406.471 1301 381.392 1291.99 358.664C1282.98 335.937 1265.35 315.56 1241.46 309.682C1221.87 304.98 1111.02 323.397 1085.95 402.161C1043.25 535.392 1042.86 570.659 918.68 563.606C774.135 555.769 805.082 448.792 798.422 415.876C794.113 394.716 787.454 301.061 653.877 318.695L653.486 317.912Z" fill="#7968D9" stroke="#0D0000" stroke-width="20" stroke-miterlimit="10"/>
<path d="M782.361 858.675C781.186 869.256 780.01 880.619 785.103 889.24C790.587 898.645 800.772 900.995 810.174 902.171C849.346 907.265 889.301 908.441 928.865 904.523C937.483 903.739 946.492 902.563 954.326 897.077C970.779 885.322 974.696 858.284 976.655 834.772C979.789 797.937 978.613 751.306 951.584 735.632C942.183 730.146 931.215 730.146 920.638 730.146C890.868 730.929 860.705 734.064 831.326 739.942C822.708 741.509 813.307 743.861 806.648 750.915C799.988 757.968 786.67 830.069 783.145 858.283L782.361 858.675Z" fill="white" stroke="black" stroke-width="20" stroke-miterlimit="10"/>
<path d="M885.775 839.083C895.727 839.083 903.795 829.784 903.795 818.314C903.795 806.844 895.727 797.545 885.775 797.545C875.824 797.545 867.756 806.844 867.756 818.314C867.756 829.784 875.824 839.083 885.775 839.083Z" fill="black"/>
</svg>
