<svg width="1760" height="1760" viewBox="0 0 1760 1760" fill="none" xmlns="http://www.w3.org/2000/svg">
<rect width="1760" height="1760" fill="white"/>
<path d="M411.041 499.904C394.073 498.662 377.106 494.522 367.174 508.184C357.242 521.845 356 539.647 356 556.62C356 605.47 367.174 658.875 406.075 689.096C449.942 723.043 513.26 714.763 564.162 736.29C600.166 751.194 629.963 782.657 638.654 820.33C647.344 858.002 631.618 901.885 598.511 921.756C543.884 954.875 462.771 921.756 416.007 964.81C400.281 979.3 392.004 999.585 385.797 1019.87C374.209 1056.3 366.76 1093.97 363.863 1132.47C362.208 1151.93 362.622 1173.46 376.278 1187.95C391.591 1204.09 416.834 1204.09 439.182 1202.85C483.049 1200.37 526.916 1197.88 570.37 1195.4C604.305 1193.33 642.378 1192.92 667.622 1215.69C706.524 1250.88 690.384 1317.11 716.456 1363.07C730.113 1387.08 755.771 1404.05 783.498 1406.95C811.226 1409.85 839.781 1398.67 857.99 1377.97C894.822 1336.16 888.2 1264.95 932.481 1231.42C959.794 1210.72 996.626 1211.55 1030.98 1211.13C1134.85 1209.06 1244.1 1180.5 1316.11 1105.57C1352.53 1067.07 1377.77 1018.63 1391.43 967.295C1416.68 872.906 1403.85 768.167 1353.36 684.542C1302.87 600.917 1215.13 540.061 1118.71 524.744C1074.43 517.706 1028.91 520.189 984.211 521.845C800.879 528.883 665.967 516.464 412.282 500.732L411.041 499.904Z" fill="#DAD4FF" stroke="#0D0000" stroke-width="20" stroke-miterlimit="10"/>
<path d="M875.371 793.42C866.68 793.42 859.644 799.629 859.644 808.323C859.644 833.162 860.472 881.185 869.163 907.68C881.578 944.525 908.064 978.058 945.31 989.235C958.553 993.375 972.209 994.203 985.866 994.203C1011.11 993.789 1037.18 988.408 1057.05 973.09C1076.08 958.601 1088.5 936.659 1095.12 913.89C1100.5 895.26 1103.81 832.335 1105.05 809.979C1105.05 805.426 1101.74 801.699 1096.78 801.286L875.371 793.42Z" fill="white" stroke="black" stroke-width="20" stroke-miterlimit="10"/>
<path d="M982.142 848.894C996.312 848.894 1007.8 837.402 1007.8 823.226C1007.8 809.051 996.312 797.559 982.142 797.559C967.971 797.559 956.483 809.051 956.483 823.226C956.483 837.402 967.971 848.894 982.142 848.894Z" fill="black"/>
</svg>
