<svg width="1760" height="1760" viewBox="0 0 1760 1760" fill="none" xmlns="http://www.w3.org/2000/svg">
<rect width="1760" height="1760" fill="white"/>
<path d="M869.791 400.7C783.335 380.159 771.087 481.781 757.038 537.997C748.753 570.789 733.263 605.384 702.643 620.159C667.7 637.096 566.834 639.978 562.872 645.384C546.301 669.168 597.814 686.465 610.062 693.312C684.631 734.032 740.467 807.906 759.56 890.789C778.652 973.672 760.64 1064.48 711.288 1133.67C692.916 1159.62 669.862 1183.04 641.403 1197.09C622.311 1206.46 601.417 1211.51 582.325 1220.52C556.028 1232.77 532.612 1252.59 520.004 1278.18C507.396 1303.76 505.955 1336.19 520.004 1361.42C545.58 1407.18 610.423 1415.11 659.415 1396.73C708.407 1378.36 746.591 1340.16 789.099 1309.89C831.606 1279.62 885.281 1255.47 935.354 1270.97C976.781 1283.58 1005.96 1319.98 1042.34 1343.76C1089.53 1374.75 1152.58 1383.04 1203.73 1359.26C1254.88 1335.47 1289.46 1276.73 1279.74 1221.24C1273.97 1189.17 1255.6 1161.06 1240.47 1132.23C1185.72 1027.37 1175.63 899.798 1213.09 787.366C1222.1 759.978 1233.99 733.312 1238.67 704.844C1243.35 676.375 1257.04 635.654 1237.95 614.393C1216.7 590.609 1200.13 584.483 1168.43 586.285C1136.72 588.087 1006.32 641.78 974.62 620.519C946.882 601.78 982.545 428.087 870.512 401.42L869.791 400.7Z" fill="#99E6FF" stroke="#030000" stroke-width="20" stroke-miterlimit="10"/>
<path d="M931.752 801.42C892.846 837.816 895.368 933.672 911.939 993.492C914.46 1003.22 918.063 1012.23 922.385 1019.08C928.149 1028.09 935.354 1032.41 942.559 1035.29C969.216 1045.74 999.836 1032.41 1020.37 994.573C1040.9 956.735 1048.47 892.591 1034.78 847.906C1026.49 820.519 1011 802.862 994.793 794.934C978.582 787.006 956.248 778.357 931.752 801.42Z" fill="white" stroke="#140202" stroke-width="20" stroke-miterlimit="10"/>
<path d="M985.689 923.323C986.304 909.006 980.841 897.144 973.486 896.828C966.132 896.512 959.671 907.862 959.056 922.178C958.441 936.494 963.905 948.356 971.26 948.672C978.614 948.988 985.074 937.639 985.689 923.323Z" fill="black"/>
</svg>
