<svg width="1760" height="1760" viewBox="0 0 1760 1760" fill="none" xmlns="http://www.w3.org/2000/svg">
<rect width="1760" height="1760" fill="white"/>
<path d="M587.171 534.734C546.974 526.901 502.078 549.357 478.586 583.302C459.27 611.502 458.227 647.536 454.572 681.48C443.087 775.481 401.324 863.215 389.839 957.215C382.008 1018.84 387.75 1080.98 392.971 1142.6C396.103 1176.03 400.801 1213.11 426.382 1234.52C448.307 1253.32 480.674 1254.36 508.343 1247.05C536.011 1239.74 561.069 1224.07 587.171 1211.54C617.971 1196.39 651.904 1185.43 686.359 1185.95C720.814 1186.47 756.313 1201.09 776.15 1228.77C797.554 1258.54 798.598 1297.71 810.083 1332.69C822.612 1370.29 849.236 1404.24 884.735 1422.52C920.234 1440.8 964.086 1443.41 1000.11 1426.7C1064.32 1396.93 1089.38 1318.07 1096.16 1247.57C1101.91 1188.04 1102.43 1121.19 1145.76 1080.46C1185.95 1042.86 1248.08 1042.34 1297.67 1018.32C1355.62 990.115 1393.21 928.493 1402.08 864.781C1410.95 801.07 1393.73 735.791 1363.97 678.346C1348.31 648.579 1328.99 620.38 1302.89 598.969C1271.05 573.38 1230.85 559.801 1190.13 553.534C1159.85 548.834 1125.4 545.702 1107.65 520.635C1091.99 498.179 1087.29 469.979 1082.59 442.823C1073.19 387.989 1000.63 351.433 953.645 382.245C815.826 471.545 1037.69 575.991 949.991 700.802C917.102 747.28 794.944 828.226 718.203 761.381C635.721 689.836 696.8 556.668 587.693 535.257L587.171 534.734Z" fill="#424242" stroke="#030000" stroke-width="20" stroke-miterlimit="10"/>
<path d="M858.111 932.147C858.633 916.48 858.111 908.124 865.941 894.547C873.772 880.969 889.433 870.524 905.095 874.18C930.153 880.447 933.807 912.825 949.469 932.147C966.696 954.08 998.541 959.303 1022.03 974.97C1027.25 978.625 1031.95 982.803 1034.04 988.547C1037.69 999.514 1027.78 1010.48 1017.33 1016.23C1006.89 1021.97 994.886 1025.63 987.578 1034.5C976.615 1048.08 980.791 1066.88 981.835 1084.11C982.879 1101.35 975.048 1122.76 957.299 1123.28C934.851 1123.8 925.454 1091.43 903.529 1087.25C887.345 1084.11 873.772 1098.21 862.809 1109.7C851.846 1121.19 833.575 1132.16 820.002 1123.28C805.907 1113.88 810.605 1092.47 819.48 1078.89C828.354 1065.31 840.883 1050.69 837.229 1034.5C832.531 1014.14 803.819 1003.17 804.341 982.281C804.341 969.747 815.826 960.347 827.833 955.125C839.84 949.903 852.369 946.769 858.111 939.458L858.111 932.147Z" fill="white" stroke="black" stroke-width="20" stroke-miterlimit="10"/>
<path d="M933.077 1017.99C936.24 1005.7 929.751 993.402 918.583 990.525C907.415 987.648 895.796 995.279 892.633 1007.57C889.469 1019.86 895.959 1032.15 907.127 1035.03C918.296 1037.91 929.913 1030.28 933.077 1017.99Z" fill="black"/>
</svg>
