<svg width="1760" height="1760" viewBox="0 0 1760 1760" fill="none" xmlns="http://www.w3.org/2000/svg">
<rect width="1760" height="1760" fill="white"/>
<path d="M839.847 381.783C816.368 378.651 793.281 388.046 777.629 406.052C761.977 424.059 749.064 445.98 727.542 455.766C706.803 465.16 680.585 461.246 662.585 474.947C653.585 481.601 648.107 491.778 642.629 501.564C632.063 521.528 621.107 541.1 610.541 561.064C608.976 563.804 607.411 566.935 607.02 570.067C606.237 578.287 613.672 584.55 619.933 589.639C670.411 630.741 703.672 692.589 709.151 757.568C714.629 820.982 689.976 891.441 633.628 920.408C605.846 934.5 572.585 938.023 547.541 956.813C510.758 984.605 503.323 1035.88 498.628 1081.68C495.889 1110.26 494.324 1142.36 513.498 1163.49C529.932 1181.5 556.541 1185.02 580.802 1185.41C665.324 1186.59 748.281 1160.36 832.803 1160.75C861.369 1160.75 892.673 1165.06 913.412 1185.02C945.5 1215.56 939.238 1267.23 947.456 1310.68C954.499 1347.08 974.456 1381.92 1006.54 1400.32C1038.63 1418.72 1082.85 1416.76 1109.07 1390.92C1140.76 1360 1138.02 1309.11 1132.93 1264.88C1128.63 1226.12 1123.93 1187.37 1119.63 1148.62C1118.46 1137.27 1117.28 1124.74 1122.37 1114.56C1132.15 1095.77 1157.59 1093.82 1178.72 1095.77C1199.85 1097.73 1223.72 1100.47 1239.37 1086.38C1251.5 1075.42 1254.24 1057.8 1255.81 1041.76C1260.5 997.131 1262.85 952.506 1262.46 907.49C1262.46 902.402 1262.46 897.313 1260.11 892.616C1254.63 880.873 1238.98 879.306 1226.07 879.306C1203.37 879.306 1180.28 878.132 1159.54 870.303C1138.81 862.475 1119.63 845.643 1114.54 823.33C1105.93 783.795 1142.72 750.522 1157.98 713.335C1174.41 673.799 1148.2 611.168 1114.93 571.241C1089.5 540.709 1044.5 602.165 1004.98 598.642C952.934 593.945 907.151 548.537 902.064 496.475C898.934 463.594 902.847 390.786 839.847 381.783Z" fill="#FFF570" stroke="#030000" stroke-width="20" stroke-miterlimit="10"/>
<path d="M920.847 952.506C891.89 956.029 864.107 933.717 850.802 904.75C847.672 897.704 844.934 889.876 844.151 881.655C842.977 866.389 849.237 850.731 857.846 838.596C873.498 817.067 897.369 804.15 921.238 804.541C923.586 804.541 926.325 804.541 927.89 807.281C929.064 808.847 929.064 810.804 929.064 812.761C932.194 849.557 933.368 886.353 932.585 923.148C932.585 934.891 930.628 951.332 920.063 952.506H920.847Z" fill="white" stroke="black" stroke-width="20" stroke-miterlimit="10"/>
<path d="M928.994 880.29C930.065 872.145 925.722 864.857 919.294 864.011C912.866 863.166 906.787 869.083 905.716 877.228C904.646 885.374 908.989 892.662 915.417 893.507C921.845 894.353 927.924 888.435 928.994 880.29Z" fill="black"/>
</svg>
