<svg width="1760" height="1760" viewBox="0 0 1760 1760" fill="none" xmlns="http://www.w3.org/2000/svg">
<g clip-path="url(#clip0_10_835)">
<path d="M1760 0H0V1760H1760V0Z" fill="white"/>
<path d="M624.288 579.469C599.669 573.126 575.424 586.186 550.432 590.663C517.234 596.26 472.474 573.872 441.141 585.812C394.888 603.35 374 659.32 374 721.635C374 783.949 477.696 759.321 511.267 788.426C573.186 842.531 547.448 927.234 555.281 983.204C560.13 1017.53 577.663 1052.98 609.741 1066.04C643.312 1079.85 682.85 1064.92 717.54 1075.37C761.555 1088.43 785.427 1137.31 788.411 1183.21C791.395 1229.1 779.459 1274.25 777.221 1320.15C776.475 1336.57 777.221 1353.36 783.562 1368.66C800.347 1408.58 854.807 1422.76 894.719 1405.22C934.631 1387.69 959.622 1347.01 970.813 1305.22C980.138 1270.15 982.003 1231.71 1001.03 1201.12C1043.55 1133.21 1150.97 1129.47 1190.51 1060.07C1210.28 1025.37 1208.05 982.831 1205.06 942.905C1203.57 922.756 1202.45 901.861 1211.03 883.95C1219.98 865.293 1237.89 852.606 1253.18 838.427C1287.5 806.71 1311.37 761.934 1311 715.291C1310.62 668.649 1293.09 583.946 1249.82 566.409C1217 552.976 1192.01 577.976 1136.05 589.17C1128.59 590.663 1120.76 586.185 1114.42 581.708C1106.96 575.738 1103.23 566.409 1100.62 557.08C1086.82 508.572 1092.41 454.841 1072.64 408.572C1068.17 397.377 1061.83 386.93 1052.5 379.467C1042.8 371.631 1030.12 367.899 1017.44 366.407C982.749 362.675 946.567 376.109 923.068 402.228C899.568 428.348 889.496 465.662 896.957 499.617C902.552 526.11 917.473 555.215 902.179 577.603C895.838 586.932 885.393 591.783 875.695 597.007C734.325 670.888 638.089 583.2 624.288 579.469Z" fill="#FF82C1" stroke="black" stroke-width="20" stroke-miterlimit="10"/>
<path d="M831.309 942.159C830.19 951.488 829.445 961.935 833.175 969.771C837.278 978.353 845.112 980.219 852.199 981.339C882.04 986.189 912.253 986.936 942.466 983.577C949.18 982.831 955.894 981.711 961.862 976.861C974.544 966.413 977.529 941.786 979.021 920.89C981.259 887.681 980.513 845.889 959.624 831.71C952.537 826.859 943.959 826.859 936.126 826.859C913.372 827.606 890.618 830.591 868.238 835.814C861.524 837.307 854.437 839.173 849.588 845.889C844.738 852.606 834.294 917.159 831.683 942.532L831.309 942.159Z" fill="white" stroke="black" stroke-width="20" stroke-miterlimit="10"/>
<path d="M865.25 876.488C874.933 876.488 882.782 868.97 882.782 859.697C882.782 850.423 874.933 842.906 865.25 842.906C855.568 842.906 847.719 850.423 847.719 859.697C847.719 868.97 855.568 876.488 865.25 876.488Z" fill="black"/>
</g>
<defs>
<clipPath id="clip0_10_835">
<rect width="1760" height="1760" fill="white"/>
</clipPath>
</defs>
</svg>
