<svg width="1760" height="1760" viewBox="0 0 1760 1760" fill="none" xmlns="http://www.w3.org/2000/svg">
<rect width="1760" height="1760" fill="white"/>
<path d="M924.331 480.111C924.331 448.227 926.185 416.343 927.297 384.46C927.297 378.157 927.296 371.484 925.072 365.552C916.548 344.791 887.271 348.127 864.663 350.352C826.861 354.059 788.688 344.049 750.515 345.161C712.342 346.274 669.722 363.328 658.233 399.66C650.45 423.758 658.232 449.71 664.533 474.179C674.91 515.702 679.728 560.562 663.792 600.231C648.226 639.159 614.501 668.076 595.971 705.891C573.363 751.863 575.957 805.621 578.922 856.783C579.663 871.983 580.775 887.925 587.446 902.013C603.382 935.38 646.002 946.132 683.063 946.132C720.124 946.132 759.038 939.829 793.135 954.658C830.196 970.6 854.285 1012.12 849.838 1052.16C846.503 1081.45 830.196 1107.4 816.854 1134.1C800.177 1167.46 788.318 1203.05 781.276 1239.39C773.864 1279.06 773.493 1323.92 798.324 1355.43C816.484 1378.79 845.762 1391.39 874.669 1397.32C981.035 1419.57 1098.89 1357.65 1141.14 1257.92C1148.55 1240.87 1153.74 1222.33 1153.74 1203.8C1154.11 1161.9 1129.28 1124.09 1119.64 1083.31C1116.68 1069.96 1115.2 1055.87 1119.64 1042.89C1130.02 1015.83 1162.26 1005.82 1186.35 989.508C1238.98 953.546 1252.69 881.993 1250.84 818.597C1248.99 758.908 1233.42 693.286 1183.39 660.661C1134.84 628.777 1069.61 638.788 1016.61 615.06C964.727 592.074 923.96 580.952 923.96 480.852L924.331 480.111Z" fill="#3EC790" stroke="black" stroke-width="20" stroke-miterlimit="10"/>
<path d="M903.947 732.956C855.397 762.986 856.138 848.998 886.157 900.53C890.975 908.687 896.535 916.473 903.947 922.405C913.212 929.819 925.072 933.527 936.561 935.751C978.811 943.908 1025.14 931.302 1054.42 897.194C1083.69 863.086 1091.11 807.475 1066.64 769.289C1051.82 745.932 1026.99 731.103 1001.42 724.8C975.846 718.497 944.344 707.746 903.947 732.956Z" fill="white" stroke="#140202" stroke-width="20" stroke-miterlimit="10"/>
<path d="M975.846 859.008C987.309 859.008 996.6 849.049 996.6 836.763C996.6 824.478 987.309 814.519 975.846 814.519C964.384 814.519 955.092 824.478 955.092 836.763C955.092 849.049 964.384 859.008 975.846 859.008Z" fill="black"/>
</svg>
