<svg width="1760" height="1760" viewBox="0 0 1760 1760" fill="none" xmlns="http://www.w3.org/2000/svg">
<rect width="1760" height="1760" fill="white"/>
<path d="M410.042 795.508C375.213 747.162 348.181 687.899 358.058 629.155C367.935 570.412 429.276 518.427 485.938 536.622C525.966 549.098 551.958 590.686 591.465 605.242C648.648 626.556 709.469 586.008 756.774 547.539C804.08 509.07 862.301 466.442 921.043 484.117C1015.65 512.709 1015.65 665.025 1105.59 706.093C1162.77 732.086 1231.91 700.375 1292.21 718.57C1345.75 734.685 1380.58 787.19 1397.21 840.215C1438.8 970.178 1385.26 1131.33 1262.58 1190.6C1183.04 1229.06 1089.99 1222.83 1001.62 1215.55C980.824 1213.99 958.991 1211.91 942.356 1199.43C915.325 1179.16 912.206 1140.69 907.527 1106.9C902.849 1073.11 890.372 1033.6 857.103 1025.8C843.587 1022.68 829.551 1025.8 817.075 1030.48C778.607 1045.56 750.016 1078.31 722.984 1109.5C695.953 1140.69 666.322 1172.92 627.334 1186.44C588.347 1199.95 536.363 1185.92 522.327 1146.93C515.049 1127.17 518.688 1105.34 520.248 1084.55C529.085 975.377 467.224 876.605 409.522 796.028L410.042 795.508Z" fill="#96BDF2" stroke="black" stroke-width="20" stroke-miterlimit="10"/>
<path d="M1024.49 1020.6C1022.93 1033.08 1021.89 1046.6 1027.61 1056.99C1033.85 1068.43 1046.32 1071.03 1057.24 1072.59C1104.02 1078.83 1151.85 1079.87 1198.63 1075.71C1209.03 1074.67 1219.95 1073.63 1228.78 1066.87C1248.54 1052.83 1253.22 1020.6 1255.3 992.532C1258.94 948.344 1257.9 892.72 1225.15 874.525C1213.71 867.767 1200.71 867.767 1188.24 868.287C1152.37 869.327 1117.02 872.966 1081.67 879.724C1071.27 881.803 1060.36 884.403 1052.04 892.72C1043.72 901.038 1028.13 986.813 1023.97 1020.6H1024.49Z" fill="white" stroke="black" stroke-width="20" stroke-miterlimit="10"/>
<path d="M1148.21 997.729C1160.27 997.729 1170.04 986.557 1170.04 972.776C1170.04 958.995 1160.27 947.823 1148.21 947.823C1136.15 947.823 1126.38 958.995 1126.38 972.776C1126.38 986.557 1136.15 997.729 1148.21 997.729Z" fill="black"/>
</svg>
