<svg width="1760" height="1760" viewBox="0 0 1760 1760" fill="none" xmlns="http://www.w3.org/2000/svg">
<rect width="1760" height="1760" fill="white"/>
<path d="M389.164 1114.35C359.244 1147.03 327.749 1182.46 332.473 1226.55C337.197 1270.65 369.479 1310.41 411.603 1324.19C491.915 1350.57 571.44 1285.61 654.114 1267.89C734.032 1250.57 815.92 1278.13 895.838 1295.06C975.756 1311.99 1068.67 1314.74 1128.9 1259.23C1213.54 1181.28 1185.2 1038.37 1242.28 938.762C1276.14 880.102 1336.77 841.126 1375.35 785.614C1413.93 730.103 1418.65 637.191 1357.63 608.057C1338.34 598.609 1315.9 598.215 1295.03 593.491C1222.2 577.743 1169.06 517.113 1113.94 466.72C1100.55 454.516 1086.38 442.311 1069.45 435.618C985.992 401.76 911.979 508.058 823.4 523.413C783.244 530.105 741.512 517.901 702.144 527.743C638.367 543.885 602.541 614.357 597.423 680.104C592.305 745.851 609.234 811.205 610.808 876.952C612.383 942.699 593.487 1016.32 537.583 1050.97C484.042 1084.04 417.115 1083.64 388.77 1114.74L389.164 1114.35Z" fill="#2667FF" stroke="black" stroke-width="20" stroke-miterlimit="10"/>
<path d="M832.848 678.529C810.801 703.726 795.841 735.615 795.447 768.686C795.053 801.756 810.014 836.008 837.966 854.512C849.383 861.992 862.374 866.716 875.759 870.259C896.625 875.771 918.277 878.133 939.536 874.984C999.377 865.535 1045.04 803.725 1039.14 743.489C1033.23 683.254 977.331 632.861 916.703 630.105C888.751 628.924 863.949 643.884 833.242 678.529H832.848Z" fill="white" stroke="black" stroke-width="20" stroke-miterlimit="10"/>
<path d="M951.349 765.93C958.307 765.93 963.946 760.29 963.946 753.332C963.946 746.374 958.307 740.733 951.349 740.733C944.392 740.733 938.751 746.374 938.751 753.332C938.751 760.29 944.392 765.93 951.349 765.93Z" fill="black" stroke="black" stroke-width="20" stroke-miterlimit="10"/>
</svg>
