<svg width="1760" height="1760" viewBox="0 0 1760 1760" fill="none" xmlns="http://www.w3.org/2000/svg">
<rect width="1760" height="1760" fill="white"/>
<path d="M894.331 631.682L906.175 533.832C909.245 508.821 912.315 482.494 902.665 459.238C889.945 427.206 856.17 407.46 822.395 401.756C788.62 396.052 753.968 402.195 719.754 408.338C642.992 422.379 565.792 435.981 489.03 450.023C479.819 451.778 470.169 453.533 462.712 458.798C449.114 468.452 445.167 486.442 442.535 502.678C428.06 583.415 396.917 755.86 399.11 763.759C411.392 810.709 595.181 747.962 605.708 880.038C610.972 944.101 602.638 997.195 605.708 1061.26C607.024 1086.27 608.339 1111.28 604.83 1135.85C598.689 1180.17 577.196 1221.86 575.442 1266.61C573.249 1324.97 610.532 1383.77 665.362 1403.51C720.192 1423.26 788.619 1398.25 814.938 1346.03C824.588 1326.73 828.974 1304.35 839.94 1285.48C856.17 1258.28 886.436 1239.85 918.457 1238.97C968.023 1237.65 1011.89 1274.95 1061.45 1278.46C1116.72 1281.97 1169.8 1235.02 1173.74 1180.17C1175.5 1152.53 1166.73 1124.88 1168.92 1097.24C1171.55 1065.65 1189.97 1035.37 1217.17 1018.7C1252.7 996.756 1299.63 997.634 1332.09 970.868C1367.62 941.469 1372.45 889.252 1370.69 842.74C1368.5 789.208 1354.02 726.461 1304.9 705.838C1286.03 697.94 1264.54 697.501 1247.87 685.654C1239.54 679.95 1232.96 671.173 1223.31 667.224C1211.03 661.959 1196.55 665.469 1183.83 668.54C1115.84 684.776 1065.4 684.776 975.479 693.113C909.683 699.256 891.699 654.938 894.331 631.682Z" fill="#7968D9" stroke="black" stroke-width="20" stroke-miterlimit="10"/>
<path d="M657.905 718.563C699.137 751.473 768.442 723.39 799.147 680.388C803.972 673.367 808.357 665.908 810.55 657.571C813.182 647.04 812.306 635.631 810.112 624.661C801.778 585.17 775.459 548.312 738.175 533.832C700.891 519.352 653.08 530.322 630.71 564.109C617.112 584.732 613.602 611.059 617.55 635.631C621.498 660.204 623.692 690.92 657.905 718.563Z" fill="white" stroke="#140202" stroke-width="20" stroke-miterlimit="10"/>
<path d="M716.343 649.358C726.245 645.41 731.073 634.18 727.126 624.275C723.18 614.37 711.954 609.54 702.052 613.488C692.151 617.436 687.323 628.666 691.269 638.571C695.216 648.476 706.442 653.306 716.343 649.358Z" fill="black"/>
</svg>
