<svg width="1760" height="1760" viewBox="0 0 1760 1760" fill="none" xmlns="http://www.w3.org/2000/svg">
<rect width="1760" height="1760" fill="white"/>
<path d="M765.872 375.994C745.89 370.144 725.909 364.781 705.44 366.244C684.971 367.706 664.014 378.432 655.242 396.958C650.856 406.708 649.882 417.434 649.882 428.16C649.882 462.287 656.216 496.414 656.216 530.541C656.216 564.668 648.419 600.744 625.026 625.608C589.449 663.148 529.017 664.123 489.541 697.275C453.964 726.526 441.78 775.767 437.881 822.082C435.445 854.746 436.906 890.335 457.375 915.687C481.256 945.426 522.682 952.251 560.208 958.589C597.735 964.927 639.16 975.652 658.654 1008.32C669.376 1026.84 671.324 1049.27 668.4 1070.23C658.653 1149.7 594.811 1218.44 598.222 1298.4C600.172 1342.76 625.513 1385.66 664.502 1406.63C703.491 1427.59 754.663 1424.67 789.265 1397.36C805.835 1384.2 818.506 1366.16 837.513 1356.41C859.931 1344.71 886.25 1347.15 911.592 1349.1C982.259 1355.44 1062.67 1354.46 1110.43 1302.3C1143.09 1266.22 1151.37 1214.54 1150.88 1165.79C1150.4 1117.04 1143.09 1068.28 1150.88 1020.02C1153.81 1001.49 1159.66 982.965 1170.87 967.364C1204.49 921.049 1272.72 922.024 1326.33 901.061C1334.13 898.136 1342.42 894.235 1347.29 887.41C1352.16 881.072 1354.11 872.785 1355.57 864.984C1365.32 811.356 1367.27 756.753 1369.22 702.15C1370.19 670.948 1367.76 632.921 1339.98 618.783C1322.92 610.007 1302.45 613.907 1282.96 615.37C1263.46 616.832 1241.05 611.958 1232.76 594.407C1228.86 585.631 1229.84 575.393 1230.81 565.643C1232.76 545.167 1234.71 524.203 1236.66 503.726C1240.56 465.212 1238.61 415.971 1203.52 399.883C1189.39 393.545 1173.3 394.52 1157.71 395.495C1043.18 402.321 923.775 420.847 765.872 375.507V375.994Z" fill="#5CFF37" stroke="black" stroke-width="20" stroke-miterlimit="10"/>
<path d="M841.901 899.598C840.439 919.099 839.464 941.038 844.825 957.127C850.673 974.678 861.394 979.065 871.141 981.503C912.567 991.253 954.967 993.203 996.392 986.378C1005.65 984.915 1014.91 982.965 1023.2 972.727C1040.74 950.301 1044.64 899.598 1046.59 855.233C1050 785.516 1048.54 697.762 1019.79 668.51C1009.55 658.272 998.342 657.785 987.132 658.272C955.454 659.735 923.776 666.073 892.585 676.799C883.325 680.211 873.579 684.111 866.269 697.762C858.959 711.413 845.312 846.945 841.413 900.085L841.901 899.598Z" fill="white" stroke="black" stroke-width="20" stroke-miterlimit="10"/>
<path d="M878.939 863.034C895.627 863.034 909.155 845.572 909.155 824.032C909.155 802.492 895.627 785.03 878.939 785.03C862.251 785.03 848.723 802.492 848.723 824.032C848.723 845.572 862.251 863.034 878.939 863.034Z" fill="black"/>
</svg>
