<svg width="1760" height="1760" viewBox="0 0 1760 1760" fill="none" xmlns="http://www.w3.org/2000/svg">
<rect width="1760" height="1760" fill="white"/>
<path d="M740.841 398.225C706.819 375.186 658.14 397.177 617.837 405.031C584.338 411.314 551.364 417.598 517.866 423.881C501.116 427.023 482.796 431.212 471.281 443.778C460.812 455.297 458.719 471.529 457.149 487.237C452.962 527.031 452.962 567.348 457.149 606.618C458.196 617.09 459.765 628.086 466.046 635.94C481.749 655.313 513.154 644.841 537.754 650.6C560.261 655.836 576.487 676.257 583.815 697.725C591.143 719.193 591.143 742.755 590.62 765.793C590.62 799.827 589.574 833.861 589.574 867.895C589.574 896.694 588.003 928.11 569.684 950.625C548.747 976.805 512.107 982.04 479.656 990.941C443.016 1000.37 405.853 1018.69 389.104 1052.2C380.729 1069.48 378.636 1088.86 377.066 1107.71C370.785 1179.96 368.691 1252.74 370.785 1325.52C370.785 1334.42 371.307 1343.85 376.018 1351.7C383.869 1364.79 400.096 1368.46 414.752 1370.55C458.719 1376.84 503.733 1376.84 548.223 1370.55C589.05 1364.27 633.541 1348.04 649.767 1309.82C656.571 1293.06 657.094 1274.73 662.328 1257.46C680.124 1196.72 751.309 1165.82 814.643 1170.01C877.977 1174.2 936.076 1204.05 994.699 1227.61C1094.15 1266.88 1208.78 1286.78 1305.61 1242.27C1340.16 1226.56 1372.61 1200.91 1384.12 1165.3C1393.02 1137.55 1388.83 1107.18 1378.89 1079.95C1346.96 990.942 1260.07 919.732 1263.74 825.484C1265.31 787.785 1282.06 749.561 1270.54 713.957C1261.64 684.635 1236 663.691 1218.72 638.558C1196.74 606.618 1187.32 567.872 1173.71 531.743C1160.1 495.615 1140.21 458.439 1105.66 441.16C1081.06 428.593 1052.8 424.405 1025.58 426.499C833.486 443.254 790.566 431.735 741.365 398.225H740.841Z" fill="#FF82C1" stroke="black" stroke-width="20" stroke-miterlimit="10"/>
<path d="M777.481 828.102C767.536 860.565 758.638 899.836 781.145 926.016C795.801 942.248 818.83 948.007 840.814 951.149C868.555 954.814 897.343 955.861 924.037 948.007C950.732 940.153 975.332 921.303 984.754 895.123C994.699 867.372 986.325 837.004 975.857 809.776C956.49 758.987 929.271 709.769 886.351 675.735C881.64 672.069 876.407 668.403 870.649 666.833C857.564 663.167 843.431 672.069 836.103 683.065C828.775 694.061 788.472 790.403 776.957 828.102H777.481Z" fill="white" stroke="black" stroke-width="20" stroke-miterlimit="10"/>
<path d="M836.627 791.45C851.948 791.45 864.368 781.135 864.368 768.411C864.368 755.687 851.948 745.373 836.627 745.373C821.306 745.373 808.886 755.687 808.886 768.411C808.886 781.135 821.306 791.45 836.627 791.45Z" fill="#030005"/>
</svg>
