<svg width="1760" height="1760" viewBox="0 0 1760 1760" fill="none" xmlns="http://www.w3.org/2000/svg">
<rect width="1760" height="1760" fill="white"/>
<path d="M754.619 599.161C722.405 592.716 690.996 577.007 659.588 586.674C645.494 591.105 632.207 597.953 617.711 601.578C598.383 606.412 578.249 604.801 558.518 606.815C538.787 608.829 517.848 615.676 506.976 632.595C490.064 658.375 505.365 692.614 517.848 720.811C532.344 753.841 543.619 789.691 540.8 825.541C537.982 861.392 519.458 898.048 487.244 914.16C465.5 925.036 440.133 926.245 417.583 935.912C375.302 953.636 349.128 1002.78 357.584 1047.89C366.846 1096.63 409.931 1131.68 429.26 1177.2C442.145 1207.81 445.367 1244.47 469.93 1267.02C484.829 1280.72 505.365 1286.36 525.096 1291.6C562.947 1301.67 608.046 1310.12 637.441 1284.34C660.796 1263.4 664.823 1227.95 685.359 1204.19C710.325 1175.59 753.813 1171.15 790.859 1179.61C827.905 1188.07 862.132 1206.6 898.775 1216.27C935.418 1225.94 978.906 1225.13 1006.69 1199.35C1060.65 1149.81 1023.6 1046.69 1077.56 996.737C1093.27 982.236 1114.61 974.582 1130.31 960.081C1161.72 931.078 1162.93 882.741 1165.75 840.043C1168.57 797.345 1180.65 747.396 1220.51 731.686C1248.29 720.407 1279.3 730.075 1308.69 734.909C1338.09 739.742 1374.33 734.909 1388.02 708.726C1393.26 698.253 1394.06 685.765 1394.46 673.681C1396.07 637.025 1397.28 599.967 1398.89 563.311C1399.7 547.198 1399.3 529.474 1388.42 517.793C1374.33 503.292 1350.57 505.708 1330.44 504.5C1245.88 498.861 1243.86 439.647 1191.92 427.966C1156.89 419.91 1117.43 437.23 1099.31 468.65C1082.8 497.249 1083.2 534.308 1063.07 560.491C1045.75 582.646 1017.16 592.313 990.182 598.758C916.091 615.676 858.911 620.107 755.424 598.758L754.619 599.161Z" fill="#B7ABFF" stroke="black" stroke-width="20" stroke-miterlimit="10"/>
<path d="M765.491 847.696C733.68 867.031 734.485 922.619 753.813 956.052C757.034 961.289 760.659 966.525 765.491 970.15C771.531 974.984 779.181 977.401 786.832 978.61C814.214 983.846 844.817 975.79 863.743 953.636C882.668 931.481 887.501 895.631 871.797 871.059C862.132 855.752 846.026 846.487 829.113 842.459C812.201 838.431 792.067 831.583 765.491 847.696Z" fill="white" stroke="#140202" stroke-width="20" stroke-miterlimit="10"/>
<path d="M760.255 898.449C767.816 898.449 773.946 891.957 773.946 883.948C773.946 875.939 767.816 869.447 760.255 869.447C752.694 869.447 746.564 875.939 746.564 883.948C746.564 891.957 752.694 898.449 760.255 898.449Z" fill="black"/>
</svg>
