<svg width="1760" height="1760" viewBox="0 0 1760 1760" fill="none" xmlns="http://www.w3.org/2000/svg">
<rect width="1760" height="1760" fill="white"/>
<path d="M741.157 687.563C699.757 682.798 659.089 674.002 617.688 671.803C583.614 669.97 544.412 669.604 521.33 694.893C498.98 719.082 501.179 756.466 498.614 789.452C496.416 819.139 488.722 849.925 468.938 872.282C453.183 889.875 431.2 900.87 416.179 918.829C400.791 937.887 394.563 962.443 389.067 986.266C383.205 1011.92 377.709 1041.24 392.364 1062.87C401.157 1076.06 415.812 1083.76 427.17 1095.12C452.816 1120.77 458.313 1159.99 459.778 1196.28C461.244 1232.56 461.244 1271.04 480.295 1301.83C508.873 1348.38 572.623 1361.94 626.48 1351.67C680.338 1341.41 728.7 1313.56 779.994 1294.13C804.907 1284.6 831.653 1277.27 858.033 1279.84C879.649 1282.04 900.166 1291.2 920.683 1298.9C941.201 1306.59 962.818 1313.56 984.434 1311.73C1015.21 1308.79 1047.45 1308.79 1067.24 1164.02C1072.73 1124.81 1125.49 1085.59 1170.55 1130.67C1199.5 1159.62 1207.19 1240.26 1304.28 1210.94C1321.14 1205.8 1340.19 1202.51 1348.98 1187.11C1353.74 1179.05 1354.84 1169.15 1355.94 1159.99C1370.6 1041.61 1377.56 922.128 1376.09 802.646C1376.09 774.059 1374.26 743.272 1355.94 721.648C1327 687.562 1272.41 692.327 1235.4 666.672C1206.83 646.88 1193.27 611.329 1187.41 576.877C1181.55 542.425 1181.55 507.24 1172.02 473.522C1162.49 439.803 1140.88 407.184 1107.54 396.922C1063.21 383.728 1015.94 417.08 997.623 459.595C979.304 502.11 983.335 550.489 988.831 596.302C991.029 613.894 993.227 632.587 986.266 648.713C981.136 660.808 970.878 670.337 960.253 678.033C928.012 700.39 771.934 690.128 741.524 686.83L741.157 687.563Z" fill="#FFF570" stroke="black" stroke-width="20" stroke-miterlimit="10"/>
<path d="M758.377 1013.02C757.644 1025.12 757.278 1038.68 759.843 1048.57C762.774 1059.57 767.903 1062.13 772.666 1063.6C793.183 1069.83 813.7 1070.56 834.218 1066.53C838.614 1065.8 843.377 1064.33 847.407 1058.1C856.2 1044.54 858.032 1013.02 859.131 985.9C860.597 943.019 860.231 889.142 845.942 871.183C840.813 864.952 835.317 864.586 829.821 864.952C814.433 866.052 798.678 869.717 783.29 876.314C778.894 878.147 773.765 880.712 770.468 889.142C767.17 897.572 760.209 980.769 758.377 1013.39V1013.02Z" fill="white" stroke="black" stroke-width="20" stroke-miterlimit="10"/>
<path d="M778.528 985.533C790.265 985.533 799.778 976.509 799.778 965.376C799.778 954.243 790.265 945.218 778.528 945.218C766.792 945.218 757.278 954.243 757.278 965.376C757.278 976.509 766.792 985.533 778.528 985.533Z" fill="black"/>
</svg>
