<svg width="1760" height="1760" viewBox="0 0 1760 1760" fill="none" xmlns="http://www.w3.org/2000/svg">
<rect width="1760" height="1760" fill="white"/>
<path d="M970.85 486C976.659 441.591 950.52 420.963 926.041 407.267C901.563 393.57 871.275 393.985 844.307 400.211C817.339 406.437 791.616 418.473 765.063 427.604C731.456 439.225 696.606 446.28 661.34 448.77C638.521 450.43 613.627 450.431 594.957 464.127C573.797 479.484 567.16 507.706 565.086 533.438C563.011 559.171 564.255 586.563 553.467 610.22C544.755 628.896 529.405 644.253 521.936 663.345C509.905 693.643 523.181 727.261 526.915 759.633C546 924.403 526.5 1050.16 519.447 1195.84C518.617 1209.95 519.447 1225.72 529.404 1235.27C536.457 1241.91 547.245 1243.57 556.787 1244.81C591.223 1249.38 626.075 1251.45 660.926 1251.87C676.277 1251.87 693.286 1252.28 705.318 1262.66C714.861 1270.96 718.595 1284.24 723.574 1295.86C746.393 1349.82 803.649 1380.94 859.244 1400.04C885.797 1409.17 914.01 1416.22 942.223 1414.98C970.435 1413.73 999.062 1403.36 1017.73 1382.19C1041.38 1355.63 1044.7 1316.61 1040.55 1281.34C1036.4 1246.06 1028.11 1202.89 1056.32 1180.9C1072.5 1168.03 1095.73 1168.45 1115.65 1173.01C1135.56 1177.58 1154.65 1187.12 1175.39 1190.03C1213.15 1195.84 1252.98 1178.82 1275.8 1148.11C1298.61 1117.4 1302.35 1074.23 1285.75 1039.78C1278.29 1024.01 1266.67 1010.73 1257.54 995.79C1221.44 938.93 1217.3 867.128 1224.76 799.892C1228.5 769.179 1234.31 738.467 1230.99 707.754C1227.67 677.041 1214.39 645.498 1187.84 629.727C1131.41 596.109 1053.83 644.253 995.743 613.956C971.679 601.504 957.574 597.354 970.85 493.594L970.85 486Z" fill="#FCFFA6" stroke="black" stroke-width="20" stroke-miterlimit="10"/>
<path d="M962.967 858.828C969.606 870.864 962.967 899.087 948.446 918.178C926.457 948.061 884.967 961.757 849.286 950.551C813.605 939.345 787.468 904.482 786.223 867.544C786.223 865.468 786.222 863.393 787.052 861.318C788.297 858.828 791.202 857.582 794.106 856.752C852.606 836 953.01 840.981 962.552 858.828H962.967Z" fill="#FAFCFF" stroke="black" stroke-width="20" stroke-miterlimit="10"/>
<path d="M929.776 933.949C935.504 933.949 940.148 929.304 940.148 923.573C940.148 917.843 935.504 913.197 929.776 913.197C924.047 913.197 919.403 917.843 919.403 923.573C919.403 929.304 924.047 933.949 929.776 933.949Z" fill="black" stroke="#140202" stroke-width="20" stroke-miterlimit="10"/>
</svg>
