<svg width="1760" height="1760" viewBox="0 0 1760 1760" fill="none" xmlns="http://www.w3.org/2000/svg">
<rect width="1760" height="1760" fill="white"/>
<path d="M985.919 541C970.773 492.332 974.369 447.919 913.784 412.107C870.181 386.395 811.432 415.32 782.516 457.561C737.078 524.136 775.173 571.427 748.552 613.668C722.391 654.99 667.772 654.072 619.121 660.959C523.195 674.274 395.14 699.526 382.289 716.514C374.486 726.156 358.422 841.859 356.127 924.962C354.75 988.782 364.389 1054.44 394.223 1110.91C429.105 1177.03 491.526 1227.99 563.585 1247.74C635.644 1267.48 715.964 1254.62 777.926 1212.38C805.924 1193.1 829.791 1168.76 857.789 1149.02C885.787 1129.28 919.75 1115.5 953.255 1121.93C998.694 1130.66 1028.07 1171.98 1060.2 1205.04C1112.06 1258.29 1185.04 1295.49 1258.93 1287.68C1332.83 1279.87 1402.59 1218.81 1403.97 1144.43C1405.35 1079.23 1358.53 1023.68 1333.75 963.071C1310.34 905.219 1307.13 839.563 1324.57 779.416C1330.99 757.837 1340.17 736.716 1343.39 714.219C1348.89 677.029 1320.9 653.153 1297.49 624.228C1259.39 576.937 1224.97 575.1 1187.79 579.232C1073.05 592.088 1003.28 596.221 984.007 535.615L985.919 541Z" fill="#FF6640" stroke="#140202" stroke-width="20" stroke-miterlimit="10"/>
<path d="M962.894 796.863C913.783 725.237 818.316 768.396 799.498 826.247C768.288 922.666 889.917 932.308 933.061 915.32C990.433 892.363 983.089 826.247 962.894 796.863Z" fill="white" stroke="#140202" stroke-width="20" stroke-miterlimit="10"/>
<path d="M822.448 881.803C832.334 881.803 840.348 875.02 840.348 866.652C840.348 858.284 832.334 851.5 822.448 851.5C812.562 851.5 804.548 858.284 804.548 866.652C804.548 875.02 812.562 881.803 822.448 881.803Z" fill="black"/>
</svg>
