<svg width="1760" height="1760" viewBox="0 0 1760 1760" fill="none" xmlns="http://www.w3.org/2000/svg">
<rect width="1760" height="1760" fill="white"/>
<path d="M880.198 356.632C867.637 348.899 852.66 346 838.167 346C798.551 346 755.069 360.981 738.16 396.745C723.666 427.192 732.362 463.44 730.43 497.753C726.565 563.964 675.355 624.858 610.617 639.357C594.19 643.223 577.281 644.19 561.821 650.472C520.756 666.904 500.947 713.301 493.217 756.797C479.69 831.224 488.386 909.516 517.857 979.11C538.148 1026.96 569.067 1073.35 567.618 1125.06C566.652 1157.44 553.608 1189.82 559.406 1221.72C562.305 1237.67 570.516 1252.65 579.213 1266.67C619.312 1329.5 682.602 1381.69 757.002 1388.94C780.675 1391.36 805.797 1388.94 827.054 1377.34C848.312 1365.74 865.221 1345.44 868.12 1321.76C872.951 1281.65 839.616 1246.37 838.65 1205.77C837.684 1169.53 865.222 1136.66 899.04 1122.16C932.859 1107.67 970.541 1109.12 1006.78 1115.88C1043.01 1122.65 1077.31 1134.73 1113.06 1141.01C1142.53 1146.33 1174.9 1147.29 1201.47 1133.76C1219.83 1124.1 1233.84 1108.63 1245.44 1091.72C1267.66 1059.34 1282.15 1015.84 1263.31 981.044C1256.07 967.511 1244.47 956.879 1234.81 945.28C1193.26 894.534 1188.43 816.241 1223.7 761.146C1240.12 735.049 1264.76 712.817 1269.59 682.37C1272.49 664.488 1267.66 646.606 1262.35 629.207C1255.1 605.526 1245.92 582.329 1235.29 560.097C1226.6 541.732 1215.48 521.917 1196.64 514.668C1169.59 504.035 1140.6 521.434 1115 535.933C1085.53 552.365 1052.67 566.864 1018.85 562.514C871.985 543.666 932.375 389.496 880.681 358.082L880.198 356.632Z" fill="#FFE0F6" stroke="black" stroke-width="20" stroke-miterlimit="10"/>
<path d="M979.722 772.262C987.452 786.277 979.721 819.141 962.812 841.373C937.207 876.17 888.895 892.118 847.347 879.069C805.798 866.021 775.361 825.424 773.911 782.411C773.911 779.995 773.912 777.578 774.878 775.162C776.328 772.262 779.709 770.812 783.091 769.845C851.211 745.681 968.126 751.48 979.238 772.262H979.722Z" fill="#FAFCFF" stroke="black" stroke-width="20" stroke-miterlimit="10"/>
<path d="M901.456 782.411C908.126 782.411 913.534 777.002 913.534 770.329C913.534 763.656 908.126 758.247 901.456 758.247C894.785 758.247 889.378 763.656 889.378 770.329C889.378 777.002 894.785 782.411 901.456 782.411Z" fill="black" stroke="#140202" stroke-width="20" stroke-miterlimit="10"/>
</svg>
