<svg width="1760" height="1760" viewBox="0 0 1760 1760" fill="none" xmlns="http://www.w3.org/2000/svg">
<rect width="1760" height="1760" fill="white"/>
<path d="M820.105 449.342C795.414 437.378 764.936 398.785 737.544 398.013C693.563 396.855 650.739 473.657 641.094 520.355C626.434 591.753 763.007 640.767 650.353 742.267C611.387 777.388 542.329 734.935 488.703 728.374C460.539 724.9 431.218 727.602 406.141 740.338C381.064 753.074 360.616 777.001 356.758 805.174C350.2 852.259 387.622 892.396 413.471 932.533C431.604 961.092 444.721 993.125 461.696 1022.46C520.338 1125.11 637.621 1198.44 754.518 1183.01C785.382 1178.76 815.475 1169.11 846.339 1167.95C883.762 1166.8 921.57 1179.53 950.505 1202.69C976.74 1223.53 995.644 1252.09 1021.11 1273.7C1092.87 1335.06 1206.68 1328.5 1284.61 1274.86C1318.56 1251.32 1348.65 1216.2 1349.04 1174.9C1349.81 1116.62 1291.55 1066.45 1301.58 1008.95C1307.37 975.758 1335.15 950.286 1346.72 918.639C1364.85 869.24 1334.38 807.49 1284.22 791.667C1242.56 778.159 1197.8 793.983 1156.14 807.876C1114.47 821.77 1067.79 833.734 1028.44 814.437C991.786 796.298 972.111 755.389 964.009 715.638C955.907 675.887 956.292 634.205 946.261 594.84C931.601 536.564 925.814 500.286 820.105 448.957V449.342Z" fill="#63B6FF" stroke="#140202" stroke-width="20" stroke-miterlimit="10"/>
<path d="M719.798 963.794C714.396 947.971 724.814 910.535 742.175 885.449C769.181 846.47 815.862 829.874 852.513 846.084C889.164 861.907 913.856 909.377 910.769 958.777C910.769 961.479 910.383 964.566 908.839 966.881C906.91 969.969 903.824 971.513 900.738 972.671C835.152 998.528 727.9 987.722 719.413 964.18L719.798 963.794Z" fill="#FAFCFF" stroke="black" stroke-width="20" stroke-miterlimit="10"/>
<path d="M846.726 925.2C853.118 925.2 858.299 920.017 858.299 913.622C858.299 907.228 853.118 902.045 846.726 902.045C840.334 902.045 835.152 907.228 835.152 913.622C835.152 920.017 840.334 925.2 846.726 925.2Z" fill="black" stroke="#140202" stroke-width="20" stroke-miterlimit="10"/>
</svg>
