<svg width="1760" height="1760" viewBox="0 0 1760 1760" fill="none" xmlns="http://www.w3.org/2000/svg">
<rect width="1760" height="1760" fill="white"/>
<path d="M694.601 616.26C672.436 606.879 666.469 574.899 642.173 575.325C627.254 575.325 613.187 582.148 598.695 586.838C562.037 599.204 522.822 601.335 484.46 609.01C446.097 616.685 407.308 632.036 384.29 663.163C357.437 699.407 357.863 749.296 365.535 794.068C373.208 838.84 386.849 883.612 381.308 928.81C379.176 945.866 374.913 964.201 383.012 979.552C397.078 1005.99 435.015 1002.58 464.852 1007.69C517.281 1016.65 559.054 1069.1 555.217 1122.4C553.086 1151.39 539.446 1178.25 530.069 1205.97C518.134 1240.93 513.019 1278.88 521.97 1314.7C530.921 1350.52 556.07 1383.35 591.022 1394.87C622.565 1405.53 657.091 1398.7 690.765 1397.42C765.785 1394.87 849.331 1420.45 911.137 1377.38C924.351 1368 935.859 1355.21 938.417 1339.01C939.695 1329.2 937.564 1319.39 934.58 1309.59C924.35 1273.77 907.301 1240.08 902.186 1203.41C897.071 1166.74 906.874 1124.1 938.417 1104.91C961.434 1090.84 990.846 1091.69 1015.99 1100.22C1041.14 1108.75 1063.74 1124.1 1086.75 1138.6C1136.63 1169.73 1192.46 1196.16 1251.29 1196.16C1310.11 1196.16 1372.34 1164.61 1391.95 1109.18C1406.87 1067.39 1395.78 1020.91 1379.16 979.979C1362.54 939.044 1340.37 899.815 1330.99 856.322C1319.91 803.449 1329.71 748.017 1343.35 695.57C1351.45 665.296 1360.4 632.463 1348.47 603.468C1338.67 578.736 1315.65 562.107 1301.16 539.508C1273.88 496.441 1279.84 437.598 1248.73 397.516C1213.35 351.892 1144.3 322.896 1061.6 370.227C1007.9 400.928 987.009 456.36 1005.34 521.599C1043.7 658.473 949.073 647.387 852.314 634.168C780.704 624.361 734.669 632.889 694.601 616.26Z" fill="#B7ABFF" stroke="#140202" stroke-width="20" stroke-miterlimit="10"/>
<path d="M837.823 807.287C823.757 808.14 808.412 808.992 796.903 813.256C784.542 817.947 782.41 824.343 781.131 830.312C776.868 854.617 778.147 878.922 785.394 901.948C787.099 907.064 789.231 912.181 796.903 916.019C813.953 924.12 850.184 922.841 881.727 920.282C931.172 916.871 993.83 909.196 1012.58 890.861C1019.4 884.465 1018.55 877.643 1017.7 871.247C1014.72 853.338 1008.32 835.856 998.944 818.8C995.961 813.683 992.553 808.566 982.749 805.581C972.945 802.596 875.759 805.155 837.396 807.287H837.823Z" fill="white" stroke="black" stroke-width="20" stroke-miterlimit="10"/>
<path d="M904.224 917.234C917.097 915.84 926.341 903.701 924.871 890.122C923.401 876.543 911.774 866.665 898.901 868.059C886.029 869.454 876.786 881.592 878.256 895.172C879.726 908.751 891.352 918.629 904.224 917.234Z" fill="black"/>
</svg>
