<svg width="1760" height="1760" viewBox="0 0 1760 1760" fill="none" xmlns="http://www.w3.org/2000/svg">
<rect width="1760" height="1760" fill="white"/>
<path d="M605.964 639.092C536.989 690.929 519.013 695.11 519.013 774.537C519.013 821.776 491.006 847.276 457.145 880.302C435.826 901.622 373.539 946.352 395.695 980.213C411.162 1004.46 435.407 987.738 463.833 1005.3C501.455 1028.71 520.268 1075.53 523.612 1119.84C526.956 1163.32 512.325 1205.96 506.891 1249.43C501.457 1292.91 506.891 1342.24 540.751 1370.25C569.177 1393.66 609.726 1395.33 646.094 1390.31C668.668 1386.97 691.659 1381.53 710.888 1368.99C737.642 1351.43 754.782 1322.59 765.65 1292.49C781.953 1248.6 786.971 1200.52 807.036 1157.88C827.102 1115.24 868.904 1077.2 915.306 1083.47C947.494 1087.65 973.83 1111.9 988.879 1140.74C1003.93 1169.59 1008.53 1202.19 1011.87 1234.38C1017.72 1287.89 1024.83 1349.76 1069.56 1379.86C1088.79 1392.82 1112.2 1397 1135.19 1399.93C1164.03 1403.27 1193.3 1404.52 1222.14 1403.27C1239.28 1402.43 1257.25 1400.76 1271.89 1391.57C1297.38 1375.26 1305.33 1342.24 1310.76 1312.56C1327.9 1217.24 1345.46 1122.35 1362.6 1027.03C1411.09 759.488 1210.02 749.455 1089.62 749.455C1033.19 749.455 975.92 721.446 939.969 677.97C862.634 584.329 906.528 483.999 862.216 424.219C850.094 407.497 805.364 371.546 746.84 410.424C668.668 462.261 651.947 604.395 605.964 639.092Z" fill="#FFE0F6" stroke="black" stroke-width="20" stroke-miterlimit="10"/>
<path d="M1119 872.358C1165 872.357 1210.02 887.825 1238.44 926.703C1245.13 936.318 1251.4 946.351 1253.91 958.056C1258.93 979.794 1252.24 1002.79 1240.53 1021.6C1219.63 1055.04 1182.85 1077.62 1143.97 1081.8C1139.79 1081.8 1135.19 1082.21 1132.26 1079.29C1130.17 1077.2 1129.76 1074.69 1128.92 1071.76C1115.96 1020.34 1106.35 968.507 1099.66 916.252C1097.57 899.948 1096.73 876.12 1113.87 872.357L1119 872.358Z" fill="white" stroke="black" stroke-width="20" stroke-miterlimit="10"/>
<path d="M1176.99 1000.7C1191.31 1000.7 1202.91 989.467 1202.91 975.615C1202.91 961.762 1191.31 950.532 1176.99 950.532C1162.68 950.532 1151.07 961.762 1151.07 975.615C1151.07 989.467 1162.68 1000.7 1176.99 1000.7Z" fill="black"/>
</svg>
