<svg width="1760" height="1760" viewBox="0 0 1760 1760" fill="none" xmlns="http://www.w3.org/2000/svg">
<rect width="1760" height="1760" fill="white"/>
<path d="M756.047 433.084C694.759 417.757 653.717 364.658 625.809 356.447C592.976 347.141 558.502 366.3 527.311 381.627C510.347 390.386 492.836 399.145 479.703 412.83C456.72 435.821 447.966 469.213 440.305 500.963C418.416 591.285 398.167 685.987 421.15 775.762C434.284 827.219 461.097 873.748 478.607 923.562C496.118 973.377 505.422 1030.31 482.438 1077.93C471.494 1100.37 454.532 1119.53 443.04 1141.98C426.077 1174.82 422.794 1213.14 423.341 1250.37C423.341 1288.68 427.717 1326.46 434.831 1364.23C437.02 1375.17 439.755 1387.22 447.963 1395.43C458.361 1405.83 475.325 1406.92 490.1 1406.92C517.461 1407.47 544.822 1408.02 572.183 1408.57C707.346 1411.3 843.054 1414.04 977.669 1401.45C1007.22 1398.71 1040.6 1392.69 1055.92 1366.96C1073.98 1336.31 1054.28 1297.44 1036.22 1266.24C1019.81 1237.23 1003.94 1206.57 1003.94 1173.18C1003.94 1139.79 1024.18 1104.21 1057.02 1098.19C1081.64 1093.26 1106.27 1105.3 1128.7 1116.8C1168.65 1136.5 1212.43 1154.57 1257.3 1149.64C1302.17 1144.72 1346.49 1111.32 1348.14 1066.44C1349.78 1030.31 1324.06 998.557 1295.06 977.755C1266.06 956.954 1232.13 942.722 1204.22 920.278C1182.33 902.761 1164.27 879.769 1151.69 854.041C1144.57 839.261 1139.65 822.839 1142.93 806.964C1150.59 771.93 1191.63 759.339 1223.37 743.465C1302.72 702.956 1344.31 601.686 1317.49 517.385C1311.47 498.226 1302.17 480.161 1287.4 465.929C1260.04 440.201 1220.09 434.179 1182.33 431.442C1061.94 421.041 962.348 484.541 756.047 433.632V433.084Z" fill="#FF82C1" stroke="#140202" stroke-width="20" stroke-miterlimit="10"/>
<path d="M668.494 1190.15C667.399 1208.22 666.851 1228.47 670.681 1243.25C675.059 1259.67 682.722 1263.5 689.836 1265.69C720.48 1275 751.124 1276.09 781.768 1270.07C788.335 1268.98 795.448 1266.79 801.467 1257.48C814.6 1237.23 817.337 1190.15 818.978 1149.64C821.167 1085.6 820.621 1005.13 799.279 978.304C791.618 968.998 783.41 968.451 775.202 968.998C752.219 970.64 728.687 976.114 705.704 985.968C699.137 988.705 691.478 992.536 686.553 1005.13C681.628 1017.72 671.23 1141.98 668.494 1190.7V1190.15Z" fill="white" stroke="black" stroke-width="20" stroke-miterlimit="10"/>
<path d="M699.138 1150.74C716.667 1150.74 730.878 1137.26 730.878 1120.63C730.878 1104 716.667 1090.52 699.138 1090.52C681.609 1090.52 667.399 1104 667.399 1120.63C667.399 1137.26 681.609 1150.74 699.138 1150.74Z" fill="black"/>
</svg>
