<svg width="1760" height="1760" viewBox="0 0 1760 1760" fill="none" xmlns="http://www.w3.org/2000/svg">
<rect width="1760" height="1760" fill="white"/>
<path d="M585.482 549.962C526.468 543.836 462.445 553.303 417.349 592.288C372.254 631.272 354.439 704.229 389.513 752.125C414.566 786.097 457.991 800.021 489.168 828.424C532.036 867.408 545.397 934.796 520.901 987.704C503.643 1025.57 469.682 1053.42 446.299 1087.39C379.492 1184.3 412.339 1336.9 515.891 1393.14C619.442 1449.39 769.202 1387.02 798.152 1272.85C809.287 1229.41 804.276 1183.74 803.163 1139.19C802.05 1094.63 805.947 1046.74 830.999 1009.98C856.052 973.224 909.498 952.061 947.913 975.452C984.657 997.729 991.894 1046.18 1010.82 1084.61C1046.45 1155.89 1137.76 1194.32 1214.03 1169.82C1290.3 1145.31 1342.08 1061.22 1329.27 982.134C1320.36 925.885 1283.62 876.876 1274.16 820.627C1254.67 704.787 1412.22 543.279 1386.06 459.74C1369.91 407.946 1322.59 399.035 1206.79 382.327C1133.86 371.746 1083.2 324.964 1039.22 346.684C989.667 371.189 991.337 404.048 959.604 439.691C876.095 532.697 751.944 568.34 585.482 551.075V549.962Z" fill="#7968D9" stroke="#140202" stroke-width="20" stroke-miterlimit="10"/>
<path d="M802.606 626.816C747.49 665.801 748.604 776.072 782.564 841.789C788.131 852.37 794.255 862.395 802.606 869.635C813.184 879.103 825.989 884.115 839.35 886.9C886.672 896.924 939.005 880.773 971.852 837.333C1004.7 793.893 1008.6 724.278 985.77 673.041C949.583 592.844 848.258 593.958 802.606 626.26V626.816Z" fill="white" stroke="#140202" stroke-width="20" stroke-miterlimit="10"/>
<path d="M883.332 789.438C896.246 789.438 906.714 776.473 906.714 760.478C906.714 744.484 896.246 731.518 883.332 731.518C870.418 731.518 859.949 744.484 859.949 760.478C859.949 776.473 870.418 789.438 883.332 789.438Z" fill="black"/>
</svg>
