<svg width="1760" height="1760" viewBox="0 0 1760 1760" fill="none" xmlns="http://www.w3.org/2000/svg">
<rect width="1760" height="1760" fill="white"/>
<path d="M507.659 735.354C485.499 733.339 465.857 750.469 460.317 772.133C454.777 793.797 458.806 816.469 456.288 838.637C448.733 903.63 389.303 949.477 366.639 1010.44C340.954 1079.97 366.639 1157.05 392.325 1227.08C401.391 1251.26 410.96 1276.96 432.113 1291.57C447.222 1302.65 466.864 1306.18 485.499 1309.2C561.549 1321.8 638.102 1329.36 715.16 1331.37C731.78 1331.37 748.904 1331.87 764.517 1326.33C804.808 1311.72 820.925 1264.87 848.121 1231.62C879.851 1192.32 931.222 1169.14 981.586 1172.16C1031.95 1175.19 1080.8 1203.4 1107.5 1246.23C1118.07 1262.85 1125.63 1281.49 1138.72 1296.61C1159.88 1320.79 1193.62 1331.37 1225.85 1331.37C1258.09 1331.37 1289.82 1322.3 1320.54 1313.74C1333.63 1310.21 1347.23 1305.68 1355.79 1295.1C1362.34 1287.04 1364.35 1276.45 1366.37 1265.87C1376.44 1214.99 1386.51 1163.6 1396.59 1112.71C1403.13 1078.45 1409.18 1039.66 1388.03 1011.95C1367.88 985.248 1330.11 979.203 1302.41 960.057C1261.61 932.851 1244.99 874.912 1264.63 830.072C1274.71 806.393 1293.34 787.751 1304.42 764.576C1313.99 744.423 1318.02 721.751 1320.03 699.079C1323.06 667.843 1321.54 633.583 1301.4 609.4C1272.69 575.14 1219.81 577.659 1175.99 585.72C1132.18 593.781 1082.82 604.362 1045.55 579.171C1003.24 550.453 996.696 487.98 957.412 455.231C925.178 428.025 875.318 428.025 838.552 449.186C801.786 470.346 777.611 508.636 766.531 549.445C758.473 579.17 755.955 610.911 742.356 638.621C724.729 673.888 690.481 698.576 653.212 712.179C615.942 725.782 576.658 741.4 507.659 734.85V735.354Z" fill="#FFE0F6" stroke="#0D0000" stroke-width="20" stroke-miterlimit="10"/>
<path d="M1032.96 864.331C1037.49 922.27 998.207 977.187 946.835 1004.39C934.244 1010.94 921.149 1016.48 907.047 1017.49C880.354 1020.01 854.165 1008.42 833.516 991.294C797.253 961.065 776.101 913.202 777.611 865.843C777.611 860.805 778.619 855.263 782.144 852.24C784.662 850.225 788.188 849.72 791.21 849.217C854.669 842.163 918.128 839.141 982.09 839.645C1002.24 839.645 1030.44 843.171 1032.45 863.828L1032.96 864.331Z" fill="white" stroke="black" stroke-width="20" stroke-miterlimit="10"/>
<path d="M917.31 925.839C918.839 914.815 911.815 904.731 901.621 903.316C891.427 901.901 881.923 909.691 880.394 920.715C878.865 931.739 885.889 941.824 896.083 943.239C906.277 944.654 915.78 936.864 917.31 925.839Z" fill="black"/>
</svg>
