<svg width="1760" height="1760" viewBox="0 0 1760 1760" fill="none" xmlns="http://www.w3.org/2000/svg">
<rect width="1760" height="1760" fill="white"/>
<path d="M470.867 440.517C432.921 451.905 449.183 535.957 439.426 587.473C432.921 624.347 399.854 659.595 385.218 694.3C370.581 729.006 363.534 770.761 382.507 803.297C409.069 849.39 475.746 858.609 505.018 903.075C518.028 923.139 521.822 947.541 521.822 971.401C521.822 1064.67 468.156 1159.57 499.597 1247.42C510.981 1278.33 532.122 1305.44 556.516 1327.13C581.994 1349.91 613.434 1368.89 647.586 1369.97C680.111 1371.06 711.009 1356.42 736.487 1336.35C781.48 1301.1 811.295 1250.67 836.773 1199.7C851.951 1169.33 866.045 1137.88 889.355 1113.48C912.664 1089.07 947.9 1072.26 980.424 1080.94C1020.54 1091.24 1042.76 1134.08 1056.86 1173.13C1070.95 1212.17 1084.5 1256.09 1119.2 1278.87C1152.81 1300.56 1198.88 1296.22 1233.58 1276.16C1268.27 1256.09 1293.75 1223.02 1315.43 1189.39C1350.67 1133.54 1377.77 1072.26 1395.12 1008.82C1402.17 982.789 1407.59 955.675 1401.08 929.104C1388.61 878.673 1334.4 844.51 1327.36 792.994C1318.68 728.464 1388.07 666.645 1365.3 605.368C1356.09 580.423 1332.24 562.528 1306.76 553.852C1281.28 545.175 1254.18 543.549 1227.61 541.38C1159.31 535.957 1091.01 525.654 1024.33 509.928C953.32 493.117 883.392 469.8 811.295 456.785C715.346 439.432 525.075 424.791 469.783 441.059L470.867 440.517Z" fill="#67FF4B" stroke="#0D0000" stroke-width="20" stroke-miterlimit="10"/>
<path d="M1025.96 790.281C1027.04 852.643 982.051 909.582 925.132 935.611C911.58 942.118 896.944 946.999 881.766 947.541C853.035 948.625 825.389 934.526 804.248 915.004C766.844 880.299 746.787 827.698 751.666 777.267C751.666 771.844 753.292 765.879 757.629 763.168C760.339 760.999 764.134 760.999 767.928 760.456C836.231 756.66 905.075 757.203 973.378 761.541C994.519 763.168 1025.42 768.048 1025.96 790.281Z" fill="white" stroke="black" stroke-width="20" stroke-miterlimit="10"/>
<path d="M914.64 797.748C917.337 783.933 907.613 770.407 892.921 767.537C878.23 764.667 864.133 773.539 861.436 787.354C858.739 801.169 868.463 814.695 883.155 817.565C897.846 820.436 911.943 811.563 914.64 797.748Z" fill="black"/>
</svg>
