<svg width="1760" height="1760" viewBox="0 0 1760 1760" fill="none" xmlns="http://www.w3.org/2000/svg">
<rect width="1760" height="1760" fill="white"/>
<path d="M871.074 361.204C805.452 347.595 768.239 404.033 740.63 417.643C713.021 431.252 680.61 427.65 655.801 443.661C630.993 459.672 624.591 491.293 609.786 516.511C566.571 592.163 515.354 687.428 459.335 752.673C452.533 760.278 551.366 759.478 570.573 801.507C607.785 882.763 498.148 908.78 587.378 1013.25C615.388 1046.07 664.204 1063.69 703.818 1046.07C717.022 1040.07 777.443 997.641 831.061 1064.49C854.269 1093.71 853.468 1134.94 845.466 1171.36C837.463 1207.79 824.658 1244.21 827.86 1281.04C833.061 1339.88 885.479 1391.11 944.299 1395.11C1003.12 1399.12 1061.94 1355.89 1075.14 1298.25C1084.35 1258.22 1073.54 1216.19 1071.94 1175.36C1070.34 1134.54 1081.95 1086.9 1118.76 1068.49C1142.77 1056.48 1171.18 1060.08 1197.58 1054.88C1205.19 1053.28 1212.79 1050.88 1218.79 1046.07C1231.2 1036.07 1233.6 1018.86 1235.6 1003.25C1244 931.596 1252.4 859.947 1260.81 788.298C1264.41 757.476 1266.41 721.051 1243.2 700.237C1222.39 681.424 1191.18 683.826 1163.17 685.827C1103.15 689.43 1033.13 680.624 1000.32 629.789C978.711 596.166 979.911 553.336 979.511 513.309C979.111 483.288 981.912 384.02 871.074 361.204Z" fill="#99E6FF" stroke="#0D0000" stroke-width="20" stroke-miterlimit="10"/>
<path d="M1025.93 835.93C1029.53 881.962 998.317 925.592 957.504 947.206C947.5 952.41 937.097 956.813 925.893 957.613C904.686 959.615 883.879 950.408 867.473 936.799C838.663 912.782 821.858 874.757 823.058 837.131C823.058 833.128 823.858 828.725 826.659 826.323C828.66 824.722 831.461 824.322 833.862 823.922C884.279 818.318 934.696 815.916 985.513 816.316C1001.52 816.316 1023.93 819.118 1025.53 835.53L1025.93 835.93Z" fill="white" stroke="black" stroke-width="20" stroke-miterlimit="10"/>
<path d="M934.071 885.174C935.286 876.415 929.706 868.404 921.607 867.28C913.508 866.155 905.958 872.344 904.743 881.103C903.528 889.862 909.108 897.873 917.207 898.998C925.306 900.122 932.856 893.933 934.071 885.174Z" fill="black"/>
</svg>
