<svg width="1760" height="1760" viewBox="0 0 1760 1760" fill="none" xmlns="http://www.w3.org/2000/svg">
<rect width="1760" height="1760" fill="white"/>
<path d="M576.984 492C520.518 555.445 574.961 564.521 544.272 760.585C535.68 814.616 543.863 909.988 519.722 924.723C468.574 955.422 412.517 934.138 384.693 976.298C373.645 993.08 369.963 1013.55 368.326 1033.6C363.416 1098.68 366.28 1164.59 376.919 1229.26C378.146 1237.44 379.783 1246.04 385.102 1252.59C392.058 1261.6 403.515 1265.69 414.154 1268.55C496.808 1290.66 584.372 1285.34 668.663 1271.01C693.623 1266.92 718.991 1261.59 739.86 1247.27C777.913 1221.48 791.416 1171.95 795.508 1126.11C799.6 1080.27 797.145 1032.78 814.33 990.215C828.651 954.604 858.112 923.496 895.347 914.9C932.583 906.304 976.774 923.905 991.095 959.516C1014.83 1017.64 956.724 1089.27 987.822 1143.71C1010.74 1184.23 1070.07 1187.1 1112.62 1168.27C1149.45 1151.9 1180.95 1122.83 1200.19 1087.22C1227.6 1036.47 1230.06 976.298 1243.56 919.811C1251.74 886.656 1268.93 849.818 1302.48 842.45C1314.35 839.994 1327.03 841.631 1339.31 839.175C1363.86 834.263 1381.45 812.16 1388.82 788.419C1396.18 764.678 1394.95 739.301 1393.73 714.332C1391.27 669.307 1388.82 624.691 1386.77 579.666C1385.54 555.925 1384.32 531.775 1376.54 509.262C1368.77 486.75 1354.04 465.465 1331.94 456.05C1297.57 440.905 1258.29 457.688 1222.28 468.33C1134.72 493.299 849.11 480.2 688.712 473.242C630.2 470.786 598.262 468.259 576.984 492Z" fill="#3EC790" stroke="#0D0000" stroke-width="20" stroke-miterlimit="10"/>
<path d="M852.613 651.426C817.833 675.167 817.833 741.886 839.519 781.999C842.793 788.549 846.885 794.688 852.204 799.191C858.751 804.921 867.343 807.787 875.527 809.834C905.806 815.973 938.95 806.149 959.818 779.953C980.686 753.756 986.005 709.959 968.82 680.078C958.181 661.659 940.586 650.198 922.173 645.286C903.76 640.374 881.255 632.188 852.613 651.426Z" fill="white" stroke="#140202" stroke-width="20" stroke-miterlimit="10"/>
<path d="M903.76 750.072C911.895 750.072 918.491 742.192 918.491 732.471C918.491 722.751 911.895 714.87 903.76 714.87C895.625 714.87 889.03 722.751 889.03 732.471C889.03 742.192 895.625 750.072 903.76 750.072Z" fill="black"/>
</svg>
