<svg width="1760" height="1760" viewBox="0 0 1760 1760" fill="none" xmlns="http://www.w3.org/2000/svg">
<rect width="1760" height="1760" fill="white"/>
<path d="M811.394 353C683.993 353 687.946 443.531 700.247 547.685C715.184 670.296 617.217 625.91 589.101 666.341C582.95 675.13 581.632 686.557 581.193 697.104C576.8 757.751 578.118 818.397 584.707 879.044C587.783 906.291 589.54 933.538 588.222 960.785C585.586 1021.43 545.169 1052.63 497.284 1058.35C449.398 1064.06 440.612 1101.85 423.04 1144.04C405.467 1186.23 398.877 1231.94 392.287 1277.2C389.212 1297.42 386.576 1318.95 392.727 1338.29C405.028 1375.64 445.884 1394.98 483.665 1405.97C524.961 1418.27 568.892 1426.62 611.505 1419.59C654.119 1412.56 695.854 1387.51 713.866 1347.96C734.074 1303.57 725.288 1243.8 763.069 1213.04C787.671 1192.82 827.649 1195.46 849.614 1218.75C873.777 1244.24 873.337 1285.11 895.303 1312.8C915.072 1337.85 948.899 1346.64 980.53 1352.35C1052.14 1365.54 1125.5 1371.69 1198.43 1371.25C1222.59 1371.25 1247.63 1369.93 1270.04 1360.26C1310.46 1342.68 1334.62 1300.49 1350.43 1259.18C1368.45 1212.16 1379.43 1158.11 1359.22 1111.96C1334.18 1053.95 1263.89 1016.6 1261.25 953.314C1260.37 933.098 1267.4 913.762 1272.67 894.425C1290.25 834.218 1297.28 771.374 1293.32 708.969C1290.69 666.78 1279.26 605.255 1216.44 593.829C1182.18 587.676 1164.6 617.999 1139.56 631.623C1060.49 674.251 1021.39 664.583 961.64 631.623C831.163 559.989 1047.75 353 810.515 353H811.394Z" fill="#B0FCA4" stroke="#0D0000" stroke-width="20" stroke-miterlimit="10"/>
<path d="M1027.54 882.559C1027.1 933.098 988.877 977.925 942.31 997.701C930.888 1002.53 919.026 1006.05 906.725 1006.49C883.441 1006.49 861.476 994.184 844.782 977.924C815.348 948.919 800.85 905.852 805.683 864.981C806.122 860.586 807.44 856.192 810.954 853.555C813.151 851.797 816.226 851.797 819.302 851.797C874.655 850.478 930.448 852.676 985.802 857.949C1002.94 859.707 1027.54 864.541 1027.54 882.559Z" fill="white" stroke="black" stroke-width="20" stroke-miterlimit="10"/>
<path d="M937.461 886.31C940.001 875.189 932.473 863.983 920.647 861.28C908.82 858.577 897.174 865.401 894.634 876.522C892.094 887.642 899.622 898.849 911.448 901.552C923.275 904.255 934.921 897.431 937.461 886.31Z" fill="black"/>
</svg>
