<svg width="1760" height="1760" viewBox="0 0 1760 1760" fill="none" xmlns="http://www.w3.org/2000/svg">
<rect width="1760" height="1760" fill="white"/>
<path d="M725.67 448.817C686.153 429.472 642.433 466.9 620.152 504.748C597.871 542.597 583.578 587.594 548.686 614.088C539.017 621.237 528.087 626.704 520.099 635.115C499.5 656.142 499.92 689.364 499.5 718.802C499.079 770.107 492.774 821.412 480.582 871.456C473.436 900.894 464.187 931.593 469.652 961.451C480.162 1016.96 538.176 1051.87 555.832 1105.7C571.807 1153.64 552.469 1206.62 561.297 1256.67C570.966 1310.92 613.426 1354.23 661.35 1381.15C694.561 1399.65 731.135 1412.27 768.55 1417.31C811.429 1423.2 855.57 1420.26 898.03 1411.43C936.706 1403.01 974.961 1389.56 1006.91 1366.01C1059.04 1327.74 1089.73 1267.18 1112.01 1206.2C1127.14 1164.57 1141.02 1119.99 1173.81 1090.56C1189.36 1076.26 1209.12 1066.59 1222.99 1051.03C1244.85 1026.63 1250.74 992.571 1255.78 960.611C1278.9 815.105 1302.02 669.599 1325.15 524.093C1328.09 504.328 1331.45 484.562 1328.51 464.797C1325.57 445.032 1315.06 425.687 1297.82 416.435C1273.44 403.399 1243.59 413.912 1215.84 412.23C1176.33 410.127 1141.02 382.793 1101.5 381.11C1068.29 379.428 1035.08 397.091 1017.84 425.687C1001.87 452.181 1006.49 484.983 1015.74 514.841C1048.95 622.919 1074.17 702.401 929.139 734.362C709.695 782.723 855.571 511.897 726.09 448.817H725.67Z" fill="#99E6FF" stroke="#0D0000" stroke-width="20" stroke-miterlimit="10"/>
<path d="M795.875 1040.51C789.149 1067.01 784.104 1098.97 804.283 1118.31C817.315 1130.51 837.073 1133.87 855.57 1135.13C879.112 1136.82 903.074 1135.97 924.935 1127.56C946.795 1119.15 966.133 1103.17 972.859 1082.15C979.585 1059.44 971.178 1035.89 961.088 1014.44C942.171 974.909 916.948 937.06 879.112 912.248C874.909 909.725 870.705 906.781 865.66 905.94C854.309 903.838 843.379 911.407 837.914 921.079C832.449 930.752 803.863 1009.39 796.296 1040.51H795.875Z" fill="white" stroke="black" stroke-width="20" stroke-miterlimit="10"/>
<path d="M882.671 1071.11C895.411 1070.25 905.178 1061.28 904.485 1051.08C903.792 1040.89 892.902 1033.33 880.162 1034.19C867.421 1035.06 857.655 1044.03 858.348 1054.22C859.041 1064.42 869.931 1071.98 882.671 1071.11Z" fill="#030005"/>
</svg>
