<svg width="1760" height="1760" viewBox="0 0 1760 1760" fill="none" xmlns="http://www.w3.org/2000/svg">
<rect width="1760" height="1760" fill="white"/>
<path d="M1055.44 398.75C1018.08 394.789 979.394 406.67 950.381 430.872C925.765 451.554 908.621 480.156 882.686 498.198C825.98 538.241 748.174 517.999 681.358 500.398C670.368 497.317 658.499 494.677 647.07 498.198C625.091 505.238 618.058 531.64 614.102 554.082C592.123 679.932 570.583 805.783 548.604 932.073C541.131 973.876 533.658 1017 509.481 1052.2C487.062 1084.76 452.335 1107.21 429.477 1139.33C407.059 1170.57 396.948 1209.29 387.717 1246.7C380.244 1277.06 373.211 1312.26 392.113 1337.35C418.048 1371.67 470.358 1362.87 513.437 1366.39C559.154 1370.35 601.354 1392.79 646.191 1403.79C691.028 1414.79 745.976 1409.51 771.911 1371.67C785.538 1351.87 788.615 1326.34 797.847 1303.9C816.309 1257.7 869.059 1222.5 916.094 1238.34C950.381 1249.78 973.679 1283.22 1007.97 1294.66C1025.99 1300.38 1045.77 1299.5 1064.67 1298.62C1093.69 1296.86 1123.14 1295.1 1152.15 1293.78C1167.1 1292.9 1182.04 1292.02 1195.23 1285.42C1214.13 1276.18 1226 1257.26 1235.23 1238.34C1248.86 1210.17 1258.53 1179.81 1263.8 1148.57C1266.88 1130.97 1267.76 1112.05 1258.53 1096.65C1247.1 1078.16 1223.8 1071.56 1207.98 1057.04C1182.48 1033.28 1180.28 994.118 1182.04 959.355C1184.68 912.711 1196.55 857.707 1240.07 840.105C1255.01 833.945 1273.03 832.625 1284.02 821.184C1292.38 812.383 1295.01 799.622 1296.77 787.741C1310.84 705.895 1324.47 624.488 1338.53 542.641C1343.81 511.399 1348.2 475.756 1328.42 450.674C1311.28 428.672 1280.51 422.512 1252.81 424.272C1225.12 426.032 1198.31 434.392 1170.17 436.153C1138.52 438.353 1113.03 405.79 1055.44 400.07V398.75Z" fill="#424242" stroke="#0D0000" stroke-width="20" stroke-miterlimit="10"/>
<path d="M829.057 767.499C781.582 811.943 785.099 928.552 806.198 1001.6C809.715 1013.48 813.672 1024.48 818.947 1032.84C825.98 1043.4 834.772 1049.12 843.563 1052.64C876.092 1064.96 913.456 1048.68 938.073 1002.48C962.69 956.274 971.481 877.508 954.777 823.384C944.227 789.941 925.765 768.38 905.984 759.139C886.203 749.898 858.948 738.897 829.057 767.499Z" fill="white" stroke="#140202" stroke-width="20" stroke-miterlimit="10"/>
<path d="M896.94 916.381C897.605 898.896 890.867 884.445 881.891 884.103C872.915 883.761 865.099 897.658 864.435 915.143C863.77 932.628 870.507 947.08 879.483 947.422C888.459 947.764 896.275 933.866 896.94 916.381Z" fill="black"/>
</svg>
