<svg width="1760" height="1760" viewBox="0 0 1760 1760" fill="none" xmlns="http://www.w3.org/2000/svg">
<rect width="1760" height="1760" fill="white"/>
<path d="M758.228 382.276C675.742 365.773 587.46 362.651 569.18 405.915C542.427 468.359 555.803 677.991 499.178 735.083C477.33 756.938 458.158 739.989 427.393 773.887C404.653 799.31 373.888 894.314 405.545 950.959C426.946 989.318 457.712 988.425 473.317 1014.74C495.611 1052.21 466.629 1115.99 455.928 1171.74C446.565 1220.36 531.726 1255.59 580.326 1264.07C628.926 1272.54 681.093 1272.1 724.342 1296.18C788.102 1331.42 827.338 1416.61 900.015 1417.95C953.52 1418.84 994.985 1371.56 1022.63 1325.62C1050.27 1279.68 1077.03 1227.5 1126.07 1206.09C1150.59 1195.38 1178.24 1194.04 1203.21 1184.23C1274.99 1156.58 1305.76 1072.72 1319.13 997.346C1328.5 945.161 1319.13 871.567 1309.32 819.382C1279.45 662.38 1330.28 479.064 1297.73 444.274C1235.31 377.816 1046.71 412.606 1057.41 487.538C1077.03 620.9 1011.93 646.324 969.124 646.324C883.517 646.324 846.065 589.232 852.753 509.839C856.766 458.546 824.217 396.103 758.228 383.168V382.276Z" fill="#B7ABFF" stroke="#0D0000" stroke-width="20" stroke-miterlimit="10"/>
<path d="M766.254 998.683C764.917 947.39 801.924 900.558 848.294 878.702C859.441 873.35 871.479 869.336 883.964 868.89C907.595 867.552 930.334 879.595 947.723 895.651C978.488 924.197 994.985 967.015 991.418 1008.94C991.418 1013.4 990.081 1018.31 986.514 1020.54C984.285 1022.32 981.164 1022.32 978.042 1022.77C921.863 1025.89 865.237 1025.89 809.057 1022.77C791.668 1021.88 766.254 1017.86 765.808 999.13L766.254 998.683Z" fill="white" stroke="black" stroke-width="20" stroke-miterlimit="10"/>
<path d="M900.863 999.857C903.024 988.483 894.97 977.398 882.874 975.099C870.778 972.799 859.221 980.156 857.06 991.53C854.899 1002.9 862.953 1013.99 875.049 1016.29C887.145 1018.59 898.702 1011.23 900.863 999.857Z" fill="black"/>
</svg>
