<svg width="1760" height="1760" viewBox="0 0 1760 1760" fill="none" xmlns="http://www.w3.org/2000/svg">
<rect width="1760" height="1760" fill="white"/>
<path d="M801.122 371.124C753.176 373.179 739.135 411.879 724.066 441.333C708.998 470.786 695.641 502.979 669.614 523.185C649.065 538.94 620.298 547.159 608.997 570.448C599.75 588.942 604.887 610.86 605.915 631.067C608.312 675.247 591.188 720.112 560.365 751.62C551.119 760.867 540.844 769.429 533.653 780.388C526.461 791.348 523.037 806.074 529.201 817.719C537.763 833.473 653.86 855.734 645.983 996.151C637.079 1155.75 586.736 1261.57 617.558 1325.96C634.339 1360.89 670.984 1384.87 709.683 1388.29C833.315 1399.25 828.863 1260.55 807.629 1198.9C791.533 1151.98 768.588 1069.78 822.698 1015.67C869.274 969.095 959.002 989.986 978.523 1055.74C1009 1158.83 875.782 1256.78 1004.21 1353.36C1045.31 1384.52 1170.65 1392.74 1201.47 1285.2C1241.88 1144.1 1247.71 917.38 1201.47 791.005C1186.4 750.25 1100.44 650.246 1029.89 726.619C963.112 798.882 873.384 785.868 837.767 749.907C796.671 708.125 801.122 672.849 819.273 617.025C830.575 583.462 878.521 513.254 891.535 480.033C909.001 435.853 885.029 367.699 801.808 371.124H801.122Z" fill="#99E6FF" stroke="black" stroke-width="20" stroke-miterlimit="10"/>
<path d="M1024.76 1193.08C1012.43 1206.09 1003.87 1222.87 1003.87 1240.34C1003.87 1257.81 1012.09 1275.61 1027.84 1285.2C1034.35 1289.31 1041.54 1291.71 1049.07 1293.42C1060.72 1296.16 1073.04 1297.53 1084.69 1295.82C1118.25 1290.68 1143.94 1258.49 1140.51 1226.98C1137.09 1195.47 1105.92 1169.1 1071.68 1167.73C1055.92 1167.05 1041.88 1174.93 1024.76 1193.08Z" fill="white" stroke="black" stroke-width="20" stroke-miterlimit="10"/>
<path d="M1083.32 1243.08C1089.37 1243.08 1094.28 1238.17 1094.28 1232.12C1094.28 1226.07 1089.37 1221.16 1083.32 1221.16C1077.26 1221.16 1072.36 1226.07 1072.36 1232.12C1072.36 1238.17 1077.26 1243.08 1083.32 1243.08Z" fill="black" stroke="black" stroke-width="20" stroke-miterlimit="10"/>
</svg>
