<svg width="1760" height="1760" viewBox="0 0 1760 1760" fill="none" xmlns="http://www.w3.org/2000/svg">
<rect width="1760" height="1760" fill="white"/>
<path d="M982.934 388.377C843.375 388.377 909.76 543.078 738.894 543.078C690.237 543.078 587.642 526.099 579.344 530.626C563.125 539.682 558.221 560.434 555.958 578.923C546.151 652.878 548.792 727.964 551.432 802.673C554.827 901.908 558.221 1001.52 561.993 1100.75C561.993 1108.68 562.748 1116.6 565.011 1123.77C574.441 1151.69 611.028 1159.62 640.071 1153.58C669.115 1147.54 695.518 1131.69 724.938 1129.81C780.008 1125.66 832.059 1179.24 826.401 1234.33C822.252 1272.81 795.095 1308.66 800.376 1347.14C806.033 1388.27 850.164 1415.82 891.655 1414.68C942.198 1413.17 989.346 1373.93 999.907 1324.5C1006.32 1293.94 999.907 1262.62 999.907 1231.31C999.907 1199.99 1008.21 1165.65 1034.61 1148.67C1074.97 1122.64 1136.07 1152.07 1173.41 1121.51C1194.91 1103.77 1199.44 1073.21 1201.7 1045.29C1207.36 976.617 1210 907.568 1210 838.518C1210 822.671 1209.25 805.692 1199.06 793.617C1183.22 774.374 1153.42 775.129 1128.91 777.77C986.328 793.24 956.531 704.57 950.496 680.799C927.11 587.602 1053.84 572.509 1066.29 502.705C1073.08 466.105 1063.65 388 984.065 388L982.934 388.377Z" fill="#E6E1E1" stroke="#0D0000" stroke-width="20" stroke-miterlimit="10"/>
<path d="M720.789 937.376C719.657 947.564 718.525 958.506 723.429 966.807C728.709 975.863 738.516 978.127 747.569 979.259C785.287 984.164 823.76 985.296 861.856 981.522C870.154 980.768 878.83 979.636 886.374 974.353C902.216 963.034 905.987 936.999 907.873 914.36C910.891 878.892 909.759 833.991 883.733 818.898C874.681 813.615 864.12 813.615 853.936 813.615C825.269 814.37 796.226 817.389 767.937 823.048C759.639 824.558 750.586 826.822 744.174 833.613C737.762 840.405 724.937 909.832 721.543 936.999L720.789 937.376Z" fill="white" stroke="black" stroke-width="20" stroke-miterlimit="10"/>
<path d="M820.366 918.888C829.949 918.888 837.716 909.934 837.716 898.89C837.716 887.845 829.949 878.892 820.366 878.892C810.784 878.892 803.015 887.845 803.015 898.89C803.015 909.934 810.784 918.888 820.366 918.888Z" fill="black"/>
</svg>
