<svg width="1760" height="1760" viewBox="0 0 1760 1760" fill="none" xmlns="http://www.w3.org/2000/svg">
<rect width="1760" height="1760" fill="white"/>
<path d="M628.842 437.729C593.167 433.33 556.514 429.418 521.328 436.751C486.142 444.085 451.933 465.595 438.738 499.327C427.01 529.147 433.362 562.88 437.761 594.656C465.616 796.07 398.665 999.927 410.394 1203.3C412.837 1250.23 424.566 1304.49 466.594 1326.49C483.21 1335.29 502.269 1337.74 521.328 1339.69C674.291 1356.31 828.719 1363.65 982.659 1362.18C1025.18 1362.18 1116.56 1364.62 1157.12 1351.42C1242.65 1323.56 1203.06 1232.14 1187.42 1216.5C1099.46 1128.5 971.907 1071.3 1027.62 965.218C1034.95 951.041 1045.7 939.308 1058.9 930.508C1106.3 898.243 1178.14 908.02 1212.83 953.485C1224.07 968.64 1231.41 986.728 1243.62 1001.39C1255.84 1016.06 1274.9 1027.79 1292.98 1022.9C1320.35 1015.57 1326.21 979.395 1326.7 951.04C1329.63 812.691 1336.48 674.83 1348.2 536.97C1350.65 505.193 1353.58 471.95 1344.29 441.64C1335.01 411.33 1310.57 382.487 1278.81 378.576C1249.49 374.666 1221.63 391.776 1192.8 396.175C1151.26 402.531 1108.25 383.465 1066.71 391.776C1035.93 398.131 990.966 413.775 967.998 466.083C927.436 557.991 927.436 638.165 854.131 645.987C767.632 655.275 737.333 553.591 715.341 510.571C699.703 479.772 675.267 443.596 629.33 438.218L628.842 437.729Z" fill="white" stroke="#0D0000" stroke-width="20" stroke-miterlimit="10"/>
<path d="M806.239 1036.1C770.075 1040.5 735.378 1012.64 718.762 976.462C714.852 967.663 711.431 957.885 710.454 947.619C708.988 928.553 716.807 908.998 727.559 893.843C747.107 866.956 776.917 850.823 806.727 851.312C809.66 851.312 813.08 851.312 815.035 854.734C816.501 856.689 816.501 859.134 816.501 861.578C820.411 907.531 821.877 953.485 820.9 999.439C820.9 1014.11 818.456 1034.64 805.261 1036.1H806.239Z" fill="white" stroke="black" stroke-width="20" stroke-miterlimit="10"/>
<path d="M816.192 946.163C817.529 935.991 812.105 926.888 804.077 925.832C796.049 924.776 788.457 932.167 787.12 942.339C785.783 952.511 791.208 961.614 799.235 962.67C807.263 963.726 814.855 956.335 816.192 946.163Z" fill="black"/>
</svg>
