<svg width="1760" height="1760" viewBox="0 0 1760 1760" fill="none" xmlns="http://www.w3.org/2000/svg">
<rect width="1760" height="1760" fill="white"/>
<path d="M835.691 397.08C812.022 389.188 777.971 403.727 760.53 421.589C743.09 439.451 727.725 460.221 706.547 473.098C694.505 480.576 680.386 485.56 672.081 496.776C665.022 506.33 662.946 518.792 661.7 530.839C643.429 675.813 631.801 822.034 626.403 967.839C625.988 980.301 622.25 1006.06 613.53 1011.04C544.598 1052.16 545.428 947.484 488.123 927.129C456.564 915.913 417.53 907.191 379.327 949.561C301.259 1036.38 441.2 1117.38 476.912 1151.45C501.827 1175.54 518.022 1180.11 525.497 1213.76C530.064 1233.69 529.649 1257.37 544.183 1271.91C559.132 1286.86 582.802 1286.03 603.564 1283.96C653.395 1279.39 703.225 1275.23 753.056 1270.66C790.013 1267.34 829.878 1262.36 855.623 1235.77C883.03 1207.52 884.691 1163.91 891.75 1125.27C901.716 1070.44 933.691 1003.15 989.335 1004.39C1160 1007.72 1106.44 1254.88 1167.06 1256.13C1182.84 1256.13 1198.62 1252.8 1213.99 1248.65C1245.96 1240.76 1277.94 1232.86 1309.91 1224.97C1323.61 1221.65 1338.15 1217.91 1348.53 1208.35C1360.16 1197.97 1365.56 1181.77 1369.71 1166.4C1393.79 1077.09 1396.7 786.309 1389.64 693.675C1388.81 682.459 1387.56 670.828 1381.75 660.859C1364.31 632.196 1321.12 639.258 1290.81 625.55C1279.18 620.15 1269.22 611.842 1260.08 603.118C1209.42 555.763 1179.11 418.266 1074.05 440.282C974.386 461.052 1041.24 589.826 948.225 589.826C843.581 589.826 920.403 424.497 835.691 397.08Z" fill="#2667FF" stroke="#0D0000" stroke-width="20" stroke-miterlimit="10"/>
<path d="M944.072 700.322C909.606 731.061 912.098 812.064 927.047 862.743C929.538 871.051 932.445 878.528 936.183 884.343C941.166 891.82 947.394 895.559 954.038 898.051C977.708 906.775 1004.28 895.974 1022.56 863.573C1040.83 831.172 1047.06 777.17 1035.01 739.784C1027.54 716.522 1014.25 701.568 999.716 694.921C985.182 688.275 966.081 680.798 944.072 700.322Z" fill="white" stroke="#140202" stroke-width="20" stroke-miterlimit="10"/>
<path d="M991.538 803.59C992.05 791.671 987.264 781.786 980.849 781.51C974.433 781.234 968.818 790.673 968.306 802.592C967.794 814.511 972.58 824.396 978.995 824.671C985.411 824.947 991.027 815.509 991.538 803.59Z" fill="black"/>
</svg>
