<svg width="1760" height="1760" viewBox="0 0 1760 1760" fill="none" xmlns="http://www.w3.org/2000/svg">
<rect width="1760" height="1760" fill="white"/>
<path d="M818.285 357.472C770.464 370.866 750.858 429.706 707.819 454.104C684.387 467.498 654.737 468.455 629.871 457.931C601.178 445.015 576.79 416.79 545.706 420.617C525.143 423.009 508.883 439.752 501.232 458.887C493.581 478.022 492.624 499.071 491.668 519.163C483.538 715.297 475.408 910.953 467.279 1107.09C466.322 1132.92 466.801 1162.58 485.93 1179.32C495.972 1187.93 509.362 1191.76 522.751 1193.2C581.093 1197.98 643.26 1157.32 695.385 1184.11C733.642 1203.72 747.032 1250.6 758.03 1292.22C769.029 1333.84 785.766 1380.72 825.936 1395.55C840.282 1400.81 856.542 1401.29 871.844 1400.33C915.84 1397.46 960.313 1382.15 991.875 1351.54C1023.44 1320.92 1038.74 1272.13 1023.92 1230.51C1017.22 1211.37 1004.79 1195.11 995.701 1176.93C978.007 1141.05 975.138 1095.61 997.614 1062.6C1020.09 1029.59 1071.26 1016.67 1101.86 1042.03C1132.95 1067.86 1131.03 1117.13 1154.47 1150.14C1173.59 1177.89 1209.94 1191.28 1242.93 1185.54C1275.93 1179.8 1304.62 1155.4 1318.01 1124.79C1351.97 1047.29 1291.71 958.312 1306.54 875.075C1312.28 842.545 1329.49 812.886 1340.49 781.791C1351.49 750.697 1357.23 713.862 1340.49 685.638C1323.27 656.935 1287.41 643.063 1269.72 614.838C1250.11 583.744 1254.89 540.212 1229.54 513.423C1204.68 487.112 1162.6 489.503 1126.73 484.72C1061.22 475.63 1004.31 436.404 952.662 395.742C927.795 376.128 893.842 336.423 819.72 357.472H818.285Z" fill="#FF3B83" stroke="#0D0000" stroke-width="20" stroke-miterlimit="10"/>
<path d="M821.154 648.325C769.507 696.641 772.855 823.89 794.852 903.3C798.2 916.216 802.982 928.175 808.721 937.264C816.372 949.224 825.936 954.964 835.501 958.791C870.888 972.664 911.535 954.965 938.793 904.735C966.051 854.506 976.094 769.354 957.922 710.036C946.923 673.679 926.36 650.238 904.841 639.714C883.321 629.19 853.672 617.709 821.154 648.325Z" fill="white" stroke="#140202" stroke-width="20" stroke-miterlimit="10"/>
<path d="M892.467 810.127C893.283 791.122 886.03 775.376 876.267 774.956C866.504 774.537 857.928 789.603 857.112 808.608C856.296 827.613 863.548 843.359 873.311 843.779C883.074 844.199 891.651 829.132 892.467 810.127Z" fill="black"/>
</svg>
