<svg width="1760" height="1760" viewBox="0 0 1760 1760" fill="none" xmlns="http://www.w3.org/2000/svg">
<rect width="1760" height="1760" fill="white"/>
<path d="M701.384 397.173C677.518 397.173 656.983 408.832 642.553 427.708C628.123 446.585 609.252 471.57 587.052 479.898C543.206 497.109 538.766 466.573 486.595 474.346C448.854 479.898 408.894 522.648 388.359 575.392C370.044 622.029 372.818 679.215 404.454 718.634C428.319 748.06 465.505 765.827 481.6 799.694C501.58 841.334 481.6 890.192 468.835 934.053C452.74 988.463 446.079 1045.09 449.409 1101.72C451.629 1136.15 457.735 1171.68 477.715 1199.99C497.696 1228.31 534.881 1246.63 567.626 1235.53C602.592 1224.42 620.352 1187.22 643.662 1159.46C681.403 1115.05 752.999 1091.73 798.509 1128.37C847.905 1168.35 835.14 1246.63 857.34 1306.04C881.76 1372.66 957.797 1415.97 1027.73 1403.2C1097.66 1390.43 1153.16 1322.14 1151.5 1251.63C1150.39 1187.23 1109.31 1128.93 1107.65 1064.52C1106.54 1021.77 1124.85 979.024 1155.93 949.598C1192.57 915.176 1244.18 900.74 1284.7 871.315C1329.65 838.558 1359.62 787.479 1372.94 733.625C1386.26 679.77 1384.04 622.585 1372.94 567.62C1367.95 542.08 1360.73 516.541 1347.97 493.778C1325.77 455.469 1286.92 417.715 1245.29 404.39C1203.67 391.065 1155.38 377.741 1111.53 383.293C1061.03 389.955 1024.4 412.163 1001.09 457.134C969.453 519.872 950.582 576.503 902.851 578.168C789.629 582.055 797.955 397.173 701.384 397.173Z" fill="#99E6FF" stroke="#0D0000" stroke-width="20" stroke-miterlimit="10"/>
<path d="M765.211 803.58C774.646 846.886 842.911 881.864 892.306 892.412C900.077 894.078 907.846 895.188 914.506 894.633C923.387 893.522 929.493 890.192 934.488 885.75C952.803 869.649 956.688 841.333 938.373 811.353C920.058 781.372 877.877 750.836 840.691 744.174C817.936 739.732 799.065 744.174 786.855 753.612C774.645 763.05 759.106 776.375 765.211 803.58Z" fill="white" stroke="#140202" stroke-width="20" stroke-miterlimit="10"/>
<path d="M885.497 829.69C888.843 824.189 883.699 814.948 874.01 809.052C864.32 803.157 853.753 802.838 850.408 808.34C847.063 813.841 852.206 823.08 861.896 828.976C871.585 834.871 882.152 835.192 885.497 829.69Z" fill="black"/>
</svg>
