<svg width="1760" height="1760" viewBox="0 0 1760 1760" fill="none" xmlns="http://www.w3.org/2000/svg">
<rect width="1760" height="1760" fill="white"/>
<path d="M1224.69 419.037C1180.37 426.546 1157.85 441.922 1101.02 437.273C1070.99 434.77 1033.1 440.492 1016.3 480.54C995.568 530.242 1024.16 563.854 1029.53 598.181C1037.39 649.314 1013.44 675.059 982.7 716.895C939.449 775.536 880.828 827.742 807.909 822.736C777.169 820.59 739.994 794.13 711.756 781.615C671.722 763.736 639.909 759.803 600.233 741.925C581.645 733.7 559.483 725.476 541.969 735.846C524.096 746.573 521.236 770.173 513.372 789.124C484.419 860.281 379.687 880.305 359.313 954.322C348.589 994.37 367.177 1036.21 368.964 1077.68C370.037 1103.43 365.032 1129.17 367.534 1154.56C372.181 1201.4 403.279 1242.88 443.671 1267.2C484.062 1291.51 532.317 1299.74 579.142 1298.31C618.819 1296.88 659.568 1288.29 691.381 1264.34C708.896 1251.11 722.836 1233.94 740.351 1221.07C794.683 1181.38 871.535 1189.96 933.016 1217.5C972.692 1235.37 1012.73 1260.76 1055.62 1254.68C1087.08 1250.03 1115.31 1227.15 1126.04 1197.11C1137.48 1164.57 1129.61 1127.03 1144.98 1096.28C1156.78 1072.32 1182.16 1055.87 1208.61 1054.8C1236.49 1053.73 1263.3 1068.75 1291.18 1067.67C1332.64 1066.24 1365.88 1029.41 1376.96 989.364C1388.05 949.316 1381.97 907.123 1375.89 866.002C1369.1 821.663 1362.67 777.324 1355.87 732.985C1349.8 692.58 1325.85 650.386 1338 611.411C1347.3 581.732 1384.47 569.932 1384.47 523.09C1384.47 487.691 1368.03 393.65 1224.69 417.964V419.037Z" fill="#442FBD" stroke="black" stroke-width="20" stroke-miterlimit="10"/>
<path d="M994.853 957.898C998.428 977.922 1004.15 1000.81 1022.38 1009.03C1033.82 1014.04 1047.4 1011.18 1059.19 1007.6C1074.21 1002.59 1089.22 996.158 1100.66 985.074C1112.1 973.989 1119.6 957.898 1117.46 941.807C1115.31 924.644 1103.16 910.699 1090.65 898.541C1067.77 876.372 1040.96 857.062 1010.22 849.553C1007.01 848.838 1003.43 848.124 1000.21 848.839C992.708 850.269 987.704 858.135 986.989 866.002C986.274 873.869 990.922 934.656 995.211 957.898H994.853Z" fill="white" stroke="black" stroke-width="20" stroke-miterlimit="10"/>
<path d="M1060.48 898.323C1068.09 894.562 1071.57 886.059 1068.24 879.331C1064.92 872.603 1056.06 870.198 1048.45 873.959C1040.84 877.72 1037.36 886.223 1040.68 892.951C1044.01 899.679 1052.87 902.084 1060.48 898.323Z" fill="#030005"/>
</svg>
