<svg width="1760" height="1760" viewBox="0 0 1760 1760" fill="none" xmlns="http://www.w3.org/2000/svg">
<rect width="1760" height="1760" fill="white"/>
<path d="M1091.22 465.007C990.647 406.621 973.971 371.172 909.872 392.024C861.929 407.663 808.774 395.673 758.224 397.758C739.985 398.28 721.226 399.322 704.028 406.099C664.944 422.26 645.663 468.135 644.099 510.361C642.536 552.587 655.042 594.291 659.732 635.996C664.423 677.7 660.774 724.618 633.155 756.418C596.676 798.123 531.535 799.687 478.38 784.047C455.451 777.27 431.479 767.365 408.549 773.621C375.719 781.962 358.001 820.017 359.044 853.902C360.086 887.787 374.156 919.587 385.1 951.908C412.719 1036.88 412.197 1130.2 384.057 1215.17C376.761 1236.54 367.902 1258.44 372.592 1280.33C379.887 1317.35 421.057 1337.15 457.535 1346.02C529.972 1363.74 607.098 1361.66 679.014 1340.8C708.718 1331.94 739.986 1317.87 752.493 1289.72C770.211 1250.62 744.155 1206.83 739.986 1164.08C735.296 1116.64 760.309 1069.72 795.745 1037.4C820.238 1014.99 850.985 997.784 883.816 993.613C916.647 989.443 952.605 998.826 975.534 1022.81C998.464 1046.27 1006.8 1080.15 1011.49 1112.47C1016.18 1145.31 1018.27 1178.68 1017.22 1212.04C1016.18 1246.97 1017.23 1291.28 1049.53 1304.83C1065.69 1311.61 1084.45 1306.92 1101.65 1302.23C1162.62 1285.55 1223.07 1269.38 1284.04 1252.7C1314.27 1244.36 1345.53 1235.5 1367.42 1213.6C1395.56 1185.45 1401.81 1142.19 1403.38 1102.57C1404.42 1065.55 1402.34 1026.46 1383.58 994.655C1370.55 972.239 1349.7 955.557 1335.63 933.662C1299.67 878.404 1312.7 805.942 1310.62 739.736C1310.62 728.788 1309.58 717.32 1303.84 707.415C1288.21 678.743 1259.03 686.041 1219.42 660.497C1176.17 631.825 1189.72 602.632 1179.29 571.354C1161.58 517.659 1142.29 493.157 1092.27 464.486L1091.22 465.007Z" fill="#FCFFA6" stroke="black" stroke-width="20" stroke-miterlimit="10"/>
<path d="M831.703 793.431C830.139 806.464 829.098 821.061 834.309 832.008C840.042 843.998 850.984 846.604 860.886 848.168C902.576 854.945 944.788 855.988 986.999 851.296C996.379 850.254 1005.76 848.69 1014.1 841.913C1031.81 827.316 1035.99 792.91 1038.07 763.717C1041.2 717.32 1040.15 658.934 1010.97 639.124C1001.07 632.347 989.083 632.347 978.139 632.347C946.35 633.39 914.563 637.56 883.295 644.858C873.915 646.944 864.014 649.55 857.239 658.934C850.464 668.317 835.872 758.503 832.224 793.952L831.703 793.431Z" fill="white" stroke="black" stroke-width="20" stroke-miterlimit="10"/>
<path d="M940.618 694.382C951.267 694.382 959.901 682.713 959.901 668.317C959.901 653.922 951.267 642.252 940.618 642.252C929.969 642.252 921.336 653.922 921.336 668.317C921.336 682.713 929.969 694.382 940.618 694.382Z" fill="black"/>
</svg>
