<svg width="1760" height="1760" viewBox="0 0 1760 1760" fill="none" xmlns="http://www.w3.org/2000/svg">
<rect width="1760" height="1760" fill="white"/>
<path d="M776.225 460.638C723.87 441.413 669.526 427.49 614.519 420.198C577.407 414.894 536.318 413.568 507.158 437.435C466.732 469.92 470.044 531.575 456.127 581.96C444.198 624.389 417.689 662.178 403.109 703.944C386.541 751.677 386.54 803.388 387.202 854.436C387.202 902.832 388.528 953.216 408.41 997.634C431.606 1047.36 477.998 1085.15 496.554 1136.86C512.459 1179.95 507.157 1228.34 507.819 1274.09C507.819 1292.65 509.807 1311.21 517.76 1327.79C540.955 1376.85 605.904 1385.47 660.248 1385.47C703.325 1385.47 748.39 1384.14 786.166 1362.93C809.361 1349.67 828.58 1329.78 847.799 1310.55C894.19 1266.8 947.871 1230.33 1008.18 1210.44C1049.93 1196.52 1094.33 1191.22 1137.41 1179.95C1267.3 1145.47 1387.26 1041.39 1401.84 907.472C1406.48 867.032 1401.84 825.928 1392.56 786.151C1381.96 737.755 1365.39 690.022 1335.57 650.907C1312.37 620.411 1281.88 595.219 1263.33 562.071C1254.05 545.497 1248.09 526.934 1235.49 511.686C1202.36 471.908 1141.39 475.223 1089.69 480.527C993.598 489.808 892.202 503.73 776.225 461.301V460.638Z" fill="#FFE0F6" stroke="black" stroke-width="20" stroke-miterlimit="10"/>
<path d="M1084.39 980.398C1028.72 979.072 982.33 933.328 963.111 878.303C958.472 865.043 955.159 850.458 955.822 835.873C956.485 808.029 971.727 782.174 990.283 762.948C1024.08 728.474 1071.8 711.237 1116.2 717.867C1120.84 718.53 1126.14 719.856 1128.13 723.834C1129.46 726.485 1129.46 730.463 1129.46 733.778C1127.47 799.411 1122.17 865.707 1113.55 930.676C1110.9 951.228 1104.27 980.399 1084.39 979.736V980.398Z" fill="white" stroke="black" stroke-width="20" stroke-miterlimit="10"/>
<path d="M1115.13 938.136C1119.26 922.184 1111.68 906.43 1098.22 902.946C1084.75 899.463 1070.49 909.569 1066.37 925.52C1062.24 941.472 1069.82 957.228 1083.28 960.712C1096.75 964.195 1111.01 954.087 1115.13 938.136Z" fill="black"/>
</svg>
