<svg width="1760" height="1760" viewBox="0 0 1760 1760" fill="none" xmlns="http://www.w3.org/2000/svg">
<rect width="1760" height="1760" fill="white"/>
<path d="M737.875 371.7C699.272 376.871 667.563 405.144 635.163 426.866C625.512 433.417 615.861 440.658 610.691 451.002C604.142 464.104 606.899 479.965 607.589 494.446C608.623 515.478 605.521 536.856 598.283 556.854C594.492 567.197 589.666 578.231 592.768 588.919C594.492 595.815 599.317 601.332 603.798 606.504C636.542 644.086 669.285 682.014 690.31 727.181C711.335 772.349 719.264 825.792 699.962 871.65C670.32 942.332 588.976 973.019 515.906 995.775C496.259 1001.98 475.925 1008.53 460.759 1022.67C442.147 1039.91 434.563 1065.77 430.083 1090.59C419.742 1146.1 420.777 1203.69 432.841 1258.85C434.564 1267.47 436.976 1276.09 442.146 1283.33C447.661 1290.92 455.589 1296.09 463.861 1300.92C557.957 1355.05 682.039 1352.29 774.066 1294.37C790.266 1284.02 805.776 1272.3 823.699 1265.4C841.622 1258.51 862.991 1257.82 878.846 1268.85C897.458 1282.3 901.94 1307.47 913.658 1327.12C930.892 1356.43 964.325 1372.98 997.759 1378.15C1031.19 1383.32 1065.31 1378.15 1099.09 1373.32C1113.57 1371.25 1128.39 1368.84 1139.76 1359.53C1150.79 1350.22 1155.96 1335.74 1159.76 1321.6C1173.54 1274.37 1180.78 1225.41 1182.16 1176.45C1182.5 1158.17 1182.16 1139.21 1173.54 1123.35C1156.31 1091.28 1114.95 1083.35 1083.58 1064.73C1051.87 1045.77 1028.09 1011.98 1025.68 975.088C1023.26 938.195 1043.26 899.578 1076.69 884.062C1110.12 868.547 1149.07 877.166 1185.61 883.028C1222.14 888.889 1263.5 890.958 1291.08 866.478C1304.86 854.41 1313.13 837.17 1320.72 820.276C1339.67 778.211 1357.25 735.456 1373.45 692.012C1376.55 683.737 1379.66 675.118 1378.62 666.153C1377.59 657.533 1373.11 650.292 1368.97 642.707C1350.7 608.572 1341.05 567.542 1351.74 530.649C1365.18 484.447 1356.22 461.001 1339.67 452.726C1261.09 412.04 1181.47 407.558 1184.92 426.177C1210.08 570.99 1043.6 602.021 962.602 588.574C736.497 551.682 837.142 357.218 738.565 370.665L737.875 371.7Z" fill="#B7ABFF" stroke="black" stroke-width="20" stroke-miterlimit="10"/>
<path d="M947.091 881.993C951.227 870.27 955.708 856.823 956.397 846.48C957.086 835.101 953.295 830.964 949.159 828.206C932.96 816.827 914.692 810.277 895.39 809.242C891.254 809.242 886.429 809.242 881.259 814.069C869.54 825.447 858.511 856.134 849.549 883.028C835.418 925.092 820.252 978.88 827.49 1000.6C829.903 1008.19 835.073 1009.91 839.899 1010.95C854.03 1014.05 868.85 1014.39 884.361 1011.98C888.841 1011.29 894.012 1009.91 899.526 1002.67C905.041 995.43 935.717 914.404 946.746 881.993H947.091Z" fill="white" stroke="black" stroke-width="20" stroke-miterlimit="10"/>
<path d="M954.709 857.247C955.114 849.259 949.122 842.464 941.328 842.069C933.533 841.674 926.886 847.829 926.482 855.816C926.077 863.804 932.068 870.6 939.863 870.995C947.658 871.39 954.305 865.234 954.709 857.247Z" fill="black"/>
</svg>
