<svg width="1760" height="1760" viewBox="0 0 1760 1760" fill="none" xmlns="http://www.w3.org/2000/svg">
<rect width="1760" height="1760" fill="white"/>
<path d="M545.492 459.725C449.249 468.205 363.607 574.201 356.399 670.446C352.584 717.508 377.173 765.419 384.805 811.633C408.972 959.18 392.86 1110.12 383.109 1259.36C380.565 1296.67 381.413 1340.77 411.516 1363.66C421.691 1371.29 434.41 1375.53 446.705 1378.93C503.941 1395.89 563.298 1405.21 623.078 1407.33C638.765 1407.76 654.877 1407.33 668.868 1401.4C693.459 1390.37 706.601 1363.66 712.961 1337.38C725.256 1289.04 720.169 1237.74 709.57 1188.98C702.362 1155.91 692.61 1121.14 702.786 1088.92C710.417 1065.18 728.225 1046.1 748.151 1030.83C784.189 1003.27 830.826 986.739 875.344 994.371C912.229 1000.31 930.036 1024.9 930.46 1057.97C930.884 1087.22 928.341 1116.48 923.253 1144.89C916.893 1177.96 906.718 1210.18 905.87 1243.67C905.022 1277.17 914.773 1313.21 941.059 1333.98C959.714 1348.4 983.881 1353.49 1007.62 1356.03C1058.92 1361.54 1111.07 1358.57 1161.1 1347.13C1196.29 1339.07 1259.89 1275.47 1237.42 1180.5C1228.94 1144.46 1203.08 1114.78 1186.97 1081.29C1170.85 1047.79 1165.77 1002.43 1193.32 977.835C1228.94 946.036 1288.3 971.476 1331.54 951.124C1374.79 930.773 1398.1 695.461 1374.79 687.405C1311.19 664.934 1237.84 693.341 1133.12 656.454C1102.59 645.855 1080.12 628.471 1071.64 597.096C1064.01 569.537 1075.46 540.282 1074.19 511.451C1072.49 473.293 1048.75 438.95 1020.77 412.663C994.056 387.647 955.899 360.088 919.437 356.697C849.058 350.337 813.443 388.495 816.411 431.742C826.586 594.552 834.218 619.991 775.285 661.118C710.417 706.061 654.453 605.152 647.245 575.473C637.918 537.314 606.12 453.365 545.492 458.877V459.725Z" fill="white" stroke="black" stroke-width="20" stroke-miterlimit="10"/>
<path d="M1083.09 779.412C1029.25 703.942 924.103 749.309 903.753 810.363C869.411 911.695 1002.96 922.295 1050.87 904.063C1114.04 879.896 1105.14 810.363 1083.09 779.412Z" fill="white" stroke="black" stroke-width="20" stroke-miterlimit="10"/>
<path d="M990.664 850.218C1001.67 850.218 1010.59 843.195 1010.59 834.531C1010.59 825.867 1001.67 818.843 990.664 818.843C979.659 818.843 970.737 825.867 970.737 834.531C970.737 843.195 979.659 850.218 990.664 850.218Z" fill="black"/>
</svg>
