<svg width="1760" height="1760" viewBox="0 0 1760 1760" fill="none" xmlns="http://www.w3.org/2000/svg">
<rect width="1760" height="1760" fill="white"/>
<path d="M1094.59 478.853C1084.11 438.138 1088.14 390.973 1053.48 367.19C1026.08 348.646 986.588 353.081 961.604 374.849C936.619 396.617 926.544 432.494 931.783 465.147C935.409 487.721 945.484 508.28 950.722 530.452C962.409 580.841 943.872 639.293 900.754 667.914C854.009 698.551 793.159 690.489 737.952 699.76C729.086 701.373 720.624 703.388 712.967 707.823C695.639 718.707 689.998 741.281 685.162 761.437C660.983 865.038 619.88 965.011 564.269 1055.71C557.822 1066.6 550.165 1077.88 538.882 1083.53C523.971 1090.78 501.405 1075.06 476.018 1085.54C455.869 1094.01 449.421 1121.82 451.033 1143.99C456.272 1225.02 432.899 1268.96 440.555 1328.62C441.764 1337.09 443.377 1345.96 449.824 1351.2C455.063 1355.63 462.317 1356.84 468.764 1358.05C707.729 1394.73 951.125 1413.68 1190.9 1382.24C1206.21 1380.22 1221.93 1377.8 1234.42 1369.34C1257.39 1353.21 1261.82 1321.77 1264.64 1293.95C1271.09 1223.01 1277.94 1101.26 1284.39 1030.32C1288.82 981.538 1293.25 932.761 1294.06 883.581C1294.86 841.657 1296.88 799.33 1290.43 757.809C1257.79 542.142 1286 484.496 1270.28 484.093C1244.09 482.884 1103.85 518.761 1093.78 479.256L1094.59 478.853Z" fill="#FF3B83" stroke="black" stroke-width="20" stroke-miterlimit="10"/>
<path d="M1059.93 1109.33C1068.39 1110.13 1075.65 1104.09 1076.05 1095.62C1077.66 1071.43 1079.27 1024.67 1072.02 998.47C1061.94 962.189 1037.77 927.924 1002.3 915.024C989.811 910.59 976.514 908.575 962.813 908.171C938.231 907.365 912.844 910.993 892.292 924.699C872.949 937.599 860.054 958.561 851.995 980.33C845.547 998.067 839.098 1058.94 837.083 1081.11C836.68 1085.54 839.905 1089.57 844.338 1089.98L1059.12 1109.33H1059.93Z" fill="white" stroke="black" stroke-width="20" stroke-miterlimit="10"/>
<path d="M1044.21 1089.17C1050.89 1089.17 1056.3 1083.76 1056.3 1077.08C1056.3 1070.4 1050.89 1064.98 1044.21 1064.98C1037.54 1064.98 1032.12 1070.4 1032.12 1077.08C1032.12 1083.76 1037.54 1089.17 1044.21 1089.17Z" fill="black" stroke="#140202" stroke-width="20" stroke-miterlimit="10"/>
</svg>
