<svg width="1760" height="1760" viewBox="0 0 1760 1760" fill="none" xmlns="http://www.w3.org/2000/svg">
<rect width="1760" height="1760" fill="white"/>
<path d="M902.343 408.992C853.11 386.928 786.547 386.14 754.25 429.48C724.316 469.669 732.981 536.649 689.655 562.259C660.116 579.596 636.483 578.414 589.613 562.259C585.675 561.077 580.948 561.471 577.403 563.441C572.677 566.199 571.102 571.715 569.92 577.231C550.227 660.76 547.47 765.959 539.593 851.458C530.928 947.201 512.809 1023.64 523.05 1118.99C524.625 1134.75 527.776 1150.9 538.017 1163.11C556.922 1185.97 591.582 1185.18 621.516 1183.21C660.903 1180.45 700.684 1178.87 740.465 1178.87C760.158 1178.87 780.638 1179.27 797.574 1189.12C834.204 1210.4 836.568 1261.22 851.141 1301.02C868.865 1349.08 912.584 1387.7 963.393 1394C1014.2 1400.3 1068.55 1370.36 1085.88 1322.29C1102.82 1275.8 1085.1 1223.79 1060.68 1180.84C1048.47 1159.57 1034.29 1135.14 1042.17 1111.89C1051.62 1083.53 1087.07 1074.46 1117 1073.28C1146.93 1072.1 1180.81 1073.28 1202.08 1052.01C1217.44 1036.64 1221.37 1013.79 1223.74 992.117C1228.46 953.505 1230.83 914.498 1231.62 875.492C1231.62 861.308 1231.61 846.73 1225.71 833.334C1209.95 797.874 1163.08 791.569 1130.39 770.293C1100.06 750.987 1080.76 713.951 1085.1 678.49C1089.43 643.03 1120.15 610.722 1155.99 608.358C1167.41 607.57 1179.63 609.146 1188.68 602.448C1198.14 595.75 1200.89 583.536 1203.26 572.11C1214.68 510.251 1226.1 448.392 1237.92 386.928C1239.1 381.412 1239.89 375.502 1237.13 370.774C1216.25 335.313 1200.5 417.266 1107.94 440.512C1047.29 455.484 985.449 446.028 902.737 408.992H902.343Z" fill="#FF6640" stroke="#140202" stroke-width="20" stroke-miterlimit="10"/>
<path d="M720.377 895.192C719.196 910.952 718.408 928.682 722.74 941.684C727.467 955.868 736.132 959.414 744.009 961.384C777.488 969.265 811.755 970.84 845.233 965.324C852.717 964.142 860.2 962.566 866.895 954.292C881.074 936.168 884.226 895.191 885.801 859.337C888.558 802.995 887.376 732.074 864.138 708.434C855.867 700.16 846.808 699.766 837.75 700.16C812.148 701.342 786.547 706.464 761.34 715.132C753.856 717.89 745.978 721.042 740.07 732.074C734.162 743.106 723.134 852.639 719.983 895.585L720.377 895.192Z" fill="white" stroke="black" stroke-width="20" stroke-miterlimit="10"/>
<path d="M750.312 865.641C763.798 865.641 774.731 851.529 774.731 834.121C774.731 816.713 763.798 802.601 750.312 802.601C736.825 802.601 725.892 816.713 725.892 834.121C725.892 851.529 736.825 865.641 750.312 865.641Z" fill="black"/>
</svg>
