<svg width="1760" height="1760" viewBox="0 0 1760 1760" fill="none" xmlns="http://www.w3.org/2000/svg">
<rect width="1760" height="1760" fill="white"/>
<path d="M1130.21 431.17C1091.27 414.34 1047.53 413.378 1013.4 438.382C979.275 463.386 952.837 499.451 915.343 519.646C876.408 540.804 830.262 542.247 786.039 542.727C729.799 543.689 670.193 544.17 621.644 515.799C607.704 507.625 593.765 497.046 577.422 498.489C551.465 500.893 540.409 531.668 535.121 557.153C526.469 598.506 517.337 639.379 508.684 680.732C503.397 706.217 494.744 735.549 470.229 745.166C460.134 749.013 449.559 749.013 438.984 749.974C389.474 755.745 346.693 801.907 349.097 851.916C350.539 884.133 369.285 913.465 393.8 934.622C418.315 955.78 448.117 969.244 477.92 981.265C493.302 987.516 510.126 994.248 519.259 1008.67C526.47 1020.21 526.95 1034.64 527.43 1048.58C528.392 1112.06 525.508 1176.01 518.778 1239C517.817 1248.62 516.856 1258.72 520.701 1267.37C526.95 1280.36 541.851 1286.61 555.79 1290.45C658.176 1321.23 767.773 1328.44 873.043 1312.09C907.171 1306.8 942.742 1297.67 967.738 1273.62C1011.48 1230.83 1008.11 1154.37 1054.26 1114.46C1082.62 1089.94 1127.32 1086.57 1159.53 1106.29C1197.5 1129.37 1214.33 1177.93 1253.26 1199.57C1292.68 1221.21 1348.44 1204.38 1369.11 1164.47C1379.68 1144.27 1381.13 1120.71 1383.05 1097.63C1391.22 977.899 1399.39 858.167 1407.56 738.434C1410.45 699.005 1412.85 659.094 1409.01 619.664C1408.04 610.047 1406.6 600.43 1400.83 592.736C1395.55 586.004 1386.89 581.676 1378.72 579.272C1341.23 566.77 1300.37 569.174 1261.92 560.519C1180.68 541.765 1192.22 459.059 1129.73 431.65L1130.21 431.17Z" fill="#DAD4FF" stroke="#140202" stroke-width="20" stroke-miterlimit="10"/>
<path d="M674.521 1010.12C636.547 1033.2 637.508 1099.55 660.58 1139.47C664.426 1145.72 668.753 1151.97 674.521 1156.3C681.731 1162.07 690.864 1164.95 699.997 1166.39C732.684 1172.64 769.216 1163.03 791.808 1136.58C814.4 1110.13 820.169 1067.34 801.422 1038.01C789.886 1019.73 770.659 1008.67 750.47 1003.86C730.281 999.056 706.246 990.881 674.521 1010.12Z" fill="white" stroke="#140202" stroke-width="20" stroke-miterlimit="10"/>
<path d="M668.271 1071.18C677.297 1071.18 684.614 1063.43 684.614 1053.87C684.614 1044.31 677.297 1036.56 668.271 1036.56C659.245 1036.56 651.928 1044.31 651.928 1053.87C651.928 1063.43 659.245 1071.18 668.271 1071.18Z" fill="black"/>
</svg>
