<svg width="1760" height="1760" viewBox="0 0 1760 1760" fill="none" xmlns="http://www.w3.org/2000/svg">
<rect width="1760" height="1760" fill="white"/>
<path d="M924.764 399.104L632.652 436.537C620.178 438.147 606.096 440.562 598.451 450.624C591.611 459.479 591.611 471.554 590.806 482.824C587.989 523.074 570.286 562.117 542.121 591.097C532.062 601.561 519.991 610.819 513.151 623.699C506.311 636.579 505.104 651.874 504.299 666.364C489.814 888.141 475.33 1109.92 460.845 1331.7C459.235 1354.64 458.43 1380 472.915 1397.71C486.998 1415.41 511.542 1420.65 534.476 1423.06C605.693 1430.71 678.52 1423.06 746.921 1401.73C755.773 1398.91 765.027 1395.69 771.867 1388.85C786.755 1373.96 782.731 1349 779.512 1328.07C771.867 1278.97 774.684 1227.85 788.364 1179.95C800.837 1136.89 828.198 1091 872.457 1084.16C921.545 1076.51 964.597 1122.8 978.278 1170.7C991.958 1218.59 991.957 1280.98 1008.05 1328.07C1017.71 1356.65 1070.42 1417.83 1167.79 1402.94C1204.81 1397.3 1220.1 1362.28 1229.75 1305.53C1268.38 1077.72 1204.4 853.929 1256.31 628.529C1259.12 616.454 1261.94 603.171 1256.71 591.901C1249.87 577.814 1232.17 565.739 1217.68 570.972C1161.75 590.694 1095.77 587.876 1055.53 549.237C1030.18 524.684 1020.93 479.604 1008.05 447.002C995.176 414.399 963.793 393.872 925.569 398.702L924.764 399.104Z" fill="#3EC790" stroke="black" stroke-width="20" stroke-miterlimit="10"/>
<path d="M969.022 783.894C975.46 795.566 969.023 822.936 954.941 841.451C933.616 870.431 893.379 883.713 858.776 872.846C824.174 861.978 798.825 828.168 797.618 792.346C797.618 790.333 797.618 788.321 798.423 786.309C799.63 783.894 802.447 782.686 805.263 781.881C861.996 761.756 959.366 766.586 968.621 783.894H969.022Z" fill="#FAFCFF" stroke="black" stroke-width="20" stroke-miterlimit="10"/>
<path d="M915.509 861.173C921.065 861.173 925.568 856.668 925.568 851.111C925.568 845.553 921.065 841.048 915.509 841.048C909.954 841.048 905.45 845.553 905.45 851.111C905.45 856.668 909.954 861.173 915.509 861.173Z" fill="black" stroke="#140202" stroke-width="20" stroke-miterlimit="10"/>
</svg>
