<svg width="1760" height="1760" viewBox="0 0 1760 1760" fill="none" xmlns="http://www.w3.org/2000/svg">
<rect width="1760" height="1760" fill="white"/>
<path d="M922.972 370.029C898.143 358.107 871.823 344.695 845.007 352.146C818.192 359.597 795.35 379.965 785.418 406.293C777.969 426.163 778.465 448.021 772.009 468.388C761.084 503.161 730.793 530.483 696.031 541.411C620.55 564.759 556.491 523.032 530.669 515.58C506.336 508.625 471.078 527.999 461.642 551.347C452.207 574.695 452.208 601.023 451.712 625.861C450.718 728.194 450.221 830.526 449.228 932.858C448.731 1000.42 448.235 1068.47 457.173 1136.03C459.16 1150.94 462.14 1166.34 472.072 1177.26C481.507 1186.7 494.914 1191.17 508.322 1193.16C597.211 1207.57 682.128 1155.9 770.024 1139.01C810.247 1131.07 855.933 1132.06 886.225 1159.38C920.986 1190.68 922.475 1244.33 918.006 1291.02C916.019 1312.88 913.536 1335.73 922.475 1355.6C939.855 1393.85 990.011 1402.3 1031.72 1402.3C1047.12 1402.3 1063.51 1401.8 1077.41 1393.85C1097.27 1382.43 1106.71 1359.08 1110.68 1336.23C1117.14 1301.45 1114.65 1265.69 1122.1 1231.41C1129.55 1197.14 1151.9 1162.36 1186.16 1155.41C1202.55 1151.93 1219.93 1155.41 1235.82 1151.43C1269.09 1143.98 1290.45 1110.7 1300.88 1078.41C1314.78 1034.2 1314.28 986.012 1299.88 941.8C1296.4 931.368 1292.43 921.433 1284.98 913.485C1271.08 898.582 1249.23 895.105 1229.37 890.634C1192.12 882.189 1154.38 865.299 1133.03 834.004C1111.68 802.708 1112.17 754.025 1142.46 730.677C1168.29 710.807 1205.53 714.284 1232.84 696.897C1265.62 676.033 1274.06 629.338 1262.64 592.081C1251.22 554.824 1223.9 524.522 1197.58 495.71C1172.26 467.891 1145.44 438.582 1109.69 426.163C1062.51 409.77 1023.28 418.712 922.475 370.029H922.972Z" fill="#FFD58C" stroke="#140202" stroke-width="20" stroke-miterlimit="10"/>
<path d="M743.206 892.124C742.213 908.517 741.717 926.897 745.193 940.31C749.166 955.213 756.117 958.69 762.572 960.677C790.381 969.122 818.191 970.115 846 964.65C851.959 963.657 858.414 961.67 863.877 953.225C875.795 934.845 878.278 892.124 879.768 855.363C881.754 797.242 881.257 724.219 861.89 699.878C854.938 691.433 847.489 690.936 840.04 691.433C819.183 692.923 797.831 697.891 776.974 706.833C771.015 709.316 764.062 712.793 759.593 724.219C755.124 735.644 745.689 848.409 743.206 892.62V892.124Z" fill="white" stroke="black" stroke-width="20" stroke-miterlimit="10"/>
<path d="M770.518 854.867C786.425 854.867 799.321 842.635 799.321 827.545C799.321 812.456 786.425 800.223 770.518 800.223C754.611 800.223 741.717 812.456 741.717 827.545C741.717 842.635 754.611 854.867 770.518 854.867Z" fill="black"/>
</svg>
