<svg width="1760" height="1760" viewBox="0 0 1760 1760" fill="none" xmlns="http://www.w3.org/2000/svg">
<rect width="1760" height="1760" fill="white"/>
<path d="M949.954 592.497C946.483 531.306 983.358 469.248 964.704 411.095C950.388 367.263 905.27 337.319 858.851 335.149C812.431 332.979 767.313 354.678 734.776 387.66C702.239 420.642 681.416 463.172 667.534 507.438C652.784 554.741 640.203 610.724 595.953 631.555C578.6 639.8 557.341 641.536 543.459 655.424C522.635 675.82 529.577 711.841 513.959 736.577C493.569 769.125 443.68 769.559 418.084 798.202C401.165 817.297 398.562 846.807 408.106 870.676C417.65 894.544 438.474 912.338 461.467 923.187C488.798 935.773 522.203 941.414 539.122 966.15C551.269 984.377 551.268 1007.81 550.4 1029.51C549.099 1078.12 540.857 1136.7 496.607 1156.23C479.687 1163.61 460.165 1163.61 443.68 1171.86C422.856 1181.84 409.842 1203.97 404.636 1226.1C399.43 1248.24 400.731 1272.1 402.9 1295.1C404.202 1313.33 405.937 1331.99 414.613 1348.05C428.062 1373.22 456.261 1387.98 484.459 1392.32C512.658 1396.66 541.29 1391.88 569.489 1387.11C640.636 1375.39 711.784 1363.24 782.931 1351.52C804.189 1348.05 826.313 1343.71 841.931 1328.95C869.262 1302.48 860.585 1257.78 866.659 1220.03C874.034 1175.76 907.439 1135.4 951.255 1124.55C995.072 1113.7 1045.83 1135.84 1064.05 1177.06C1075.76 1203.97 1074.89 1236.95 1094.42 1258.65C1110.9 1277.31 1137.8 1282.09 1162.53 1285.99C1213.29 1293.8 1271.85 1299.88 1310.46 1266.03C1343 1237.82 1350.37 1190.95 1355.58 1148.42C1359.92 1114.57 1363.39 1078.98 1349.07 1047.74C1336.06 1019.53 1310.03 1000 1289.64 976.566C1268.81 952.263 1253.63 923.187 1245.82 891.941C1240.18 869.374 1238.45 845.505 1245.82 823.373C1255.37 793.862 1279.23 771.729 1294.84 744.823C1310.46 717.916 1314.8 678.858 1290.07 660.197C1277.06 650.216 1259.27 649.348 1243.22 648.914C1170.34 646.31 1097.45 644.14 1024.57 641.536C998.542 640.668 952.99 637.631 950.387 592.497H949.954Z" fill="#7968D9" stroke="#140202" stroke-width="20" stroke-miterlimit="10"/>
<path d="M721.761 904.96C713.519 931.867 706.144 964.415 724.799 986.114C736.946 999.567 756.033 1004.34 774.254 1006.94C797.247 1009.98 821.107 1010.85 843.232 1004.34C865.357 997.831 885.747 982.208 893.556 960.509C901.798 937.509 894.858 912.338 886.181 889.771C870.13 847.675 847.57 806.882 811.996 778.673C808.092 775.635 803.754 772.598 798.982 771.296C788.137 768.258 776.423 775.635 770.35 784.749C764.276 793.862 730.871 873.714 721.327 904.96H721.761Z" fill="white" stroke="black" stroke-width="20" stroke-miterlimit="10"/>
<path d="M770.784 874.581C783.482 874.581 793.777 866.032 793.777 855.486C793.777 844.94 783.482 836.392 770.784 836.392C758.085 836.392 747.791 844.94 747.791 855.486C747.791 866.032 758.085 874.581 770.784 874.581Z" fill="#030005"/>
</svg>
