<svg width="1760" height="1760" viewBox="0 0 1760 1760" fill="none" xmlns="http://www.w3.org/2000/svg">
<g clip-path="url(#clip0_10_841)">
<path d="M1760 0H0V1760H1760V0Z" fill="white"/>
<path d="M516.233 516.324C484.695 515.815 448.07 526.501 434.336 554.997C428.74 566.192 427.723 578.405 424.671 590.109C416.023 623.184 391.607 649.645 375.838 680.177C350.912 729.027 349.385 789.582 371.767 839.45C400.762 903.566 465.366 948.855 484.187 1016.53C505.552 1093.37 461.805 1176.82 479.1 1254.68C496.395 1331.52 578.801 1386.47 656.63 1375.79C734.458 1365.1 798.552 1293.35 802.621 1214.48C804.656 1177.84 795.499 1138.66 813.303 1106.6C828.055 1079.63 858.068 1064.88 887.572 1057.24C917.584 1049.61 954.717 1050.12 974.047 1074.54C991.851 1096.93 987.273 1128.99 989.816 1157.49C996.938 1228.73 1064.59 1288.26 1136.32 1286.74C1208.04 1285.21 1272.64 1222.11 1276.71 1150.87C1279.26 1103.04 1257.89 1054.7 1266.03 1007.37C1275.7 950.891 1324.02 910.181 1355.05 862.349C1399.31 794.161 1415.08 669.491 1393.2 591.126C1376.92 532.607 1309.78 512.253 1223.3 509.2C1187.19 507.673 1151.58 515.306 1115.46 518.359C1064.08 521.921 1012.71 515.815 960.822 513.271C886.555 509.709 812.287 514.288 738.019 518.868C668.33 523.448 606.933 517.851 523 516.324H516.233Z" fill="white" stroke="#140202" stroke-width="20" stroke-miterlimit="10"/>
<path d="M1018.3 723.431C1026.44 738.188 1018.3 772.79 1000.5 796.198C973.54 832.836 922.671 849.628 878.925 835.889C835.178 822.15 803.132 779.406 801.605 734.117C801.605 731.573 801.605 729.029 802.622 726.484C804.148 723.431 807.71 721.905 811.271 720.887C882.995 695.444 1006.09 701.55 1017.79 723.431H1018.3Z" fill="#FAFCFF" stroke="black" stroke-width="20" stroke-miterlimit="10"/>
<path d="M915.549 730.045C922.572 730.045 928.266 724.349 928.266 717.323C928.266 710.297 922.572 704.602 915.549 704.602C908.525 704.602 902.832 710.297 902.832 717.323C902.832 724.349 908.525 730.045 915.549 730.045Z" fill="black" stroke="#140202" stroke-width="20" stroke-miterlimit="10"/>
</g>
<defs>
<clipPath id="clip0_10_841">
<rect width="1760" height="1760" fill="white"/>
</clipPath>
</defs>
</svg>
