<svg width="1760" height="1760" viewBox="0 0 1760 1760" fill="none" xmlns="http://www.w3.org/2000/svg">
<rect width="1760" height="1760" fill="white"/>
<path d="M741.992 373.629C717.169 359.234 685.15 364.273 657.089 367.872C563.913 380.107 589.455 402.78 591.974 467.558C593.772 513.623 581.181 560.408 556.717 599.275C541.967 622.667 522.541 643.54 510.31 668.732C477.932 734.59 499.157 813.404 527.218 881.421C543.767 921.368 563.193 961.675 595.211 991.185C650.614 1043.01 739.833 1059.92 772.57 1128.3C792.717 1170.41 784.443 1220.07 791.997 1266.13C799.192 1309.68 822.577 1352.15 860.711 1374.1C898.845 1396.05 952.449 1393.17 982.668 1361.14C1008.57 1333.79 1013.61 1292.76 1009.65 1255.34C1005.69 1217.91 993.46 1181.56 990.942 1144.13C988.424 1106.71 996.698 1065.32 1025.84 1041.21C1067.57 1006.66 1130.89 1021.77 1182.69 1005.58C1218.67 994.064 1249.25 965.634 1260.4 930.005C1271.55 894.377 1262.2 851.911 1234.86 826C1223.34 814.844 1208.95 807.286 1196.72 796.849C1157.15 763.38 1144.2 706.879 1146.36 655.056C1152.47 512.184 1166.5 457.482 1107.86 394.863C1069.73 353.836 980.149 380.107 970.436 387.305C926.545 419.694 964.32 497.788 966.479 535.576C969.717 594.236 968.997 660.814 875.101 670.531C781.205 680.248 771.131 560.408 780.485 501.028C783.723 481.234 780.485 396.662 741.632 373.989L741.992 373.629Z" fill="#FF3B83" stroke="#140202" stroke-width="20" stroke-miterlimit="10"/>
<path d="M795.236 895.816C788.4 918.129 782.285 945.12 797.754 963.115C807.827 974.271 823.657 978.229 838.767 980.389C857.834 982.908 877.62 983.628 895.968 978.229C914.315 972.831 931.224 959.876 937.7 941.882C944.535 922.808 938.778 901.935 931.583 883.221C918.272 848.313 899.565 814.484 870.065 791.092C866.828 788.572 863.229 786.053 859.272 784.974C850.278 782.455 840.565 788.572 835.528 796.13C830.492 803.687 802.791 869.905 794.877 895.816H795.236Z" fill="white" stroke="black" stroke-width="20" stroke-miterlimit="10"/>
<path d="M872.584 980.748C883.114 980.748 891.651 973.659 891.651 964.914C891.651 956.168 883.114 949.079 872.584 949.079C862.054 949.079 853.516 956.168 853.516 964.914C853.516 973.659 862.054 980.748 872.584 980.748Z" fill="#030005"/>
</svg>
