<svg width="1760" height="1760" viewBox="0 0 1760 1760" fill="none" xmlns="http://www.w3.org/2000/svg">
<rect width="1760" height="1760" fill="white"/>
<path d="M753.286 588.925L756.715 454.714C756.715 444.852 757.144 434.99 754.143 425.986C747.713 406.69 727.997 394.684 707.851 391.254C687.705 387.823 667.558 392.111 647.412 395.97C595.119 406.69 542.824 417.41 490.102 428.129C475.528 431.131 460.097 434.561 448.953 444.423C436.522 455.572 432.236 472.723 428.807 489.017C422.377 516.031 416.376 543.045 409.946 570.058C405.231 589.783 400.945 609.507 402.231 629.66C403.946 654.101 414.661 677.255 421.948 700.839C442.951 768.587 435.664 841.053 434.807 911.803C433.95 982.553 442.095 1058.45 486.673 1113.33C516.249 1149.78 561.684 1178.08 570.686 1224.39C576.258 1252.69 565.97 1281.42 560.827 1310.15C555.683 1338.88 557.827 1372.32 580.545 1390.33C595.547 1401.91 615.692 1403.62 634.553 1404.91C695.848 1409.2 757.573 1413.06 818.868 1417.34C847.587 1419.49 881.02 1419.06 898.594 1396.33C921.74 1366.75 900.308 1325.15 892.592 1288.28C879.733 1223.53 921.74 1152.78 984.322 1132.63C1046.9 1112.48 1122.34 1146.78 1148.49 1207.24C1162.64 1239.4 1163.92 1276.7 1181.5 1306.72C1213.64 1362.46 1302.37 1373.61 1347.38 1327.3C1381.67 1292.14 1386.81 1238.54 1388.53 1189.23C1389.81 1144.63 1389.81 1098.33 1371.81 1057.59C1350.38 1009.14 1306.23 973.977 1284.37 925.524C1262.08 875.784 1265.94 818.327 1271.51 763.871C1274.51 733.427 1277.94 701.696 1265.51 673.825C1245.79 628.802 1193.93 608.649 1147.2 593.642C1142.92 592.355 1138.63 590.64 1133.92 591.498C1121.49 593.213 1117.2 608.22 1113.77 620.227C1092.34 701.267 1008.32 760.44 924.74 752.722C841.156 745.004 749.857 673.825 752 588.496L753.286 588.925Z" fill="#424242" stroke="#140202" stroke-width="20" stroke-miterlimit="10"/>
<path d="M956.461 1009.57C970.606 1009.14 986.464 1008.28 997.608 1004.42C1010.04 1000.13 1012.61 993.701 1013.47 987.698C1018.61 963.257 1017.33 939.245 1010.47 915.662C1008.75 910.516 1007.04 904.942 999.325 901.083C982.608 892.507 945.743 893.364 914.023 894.651C863.873 897.224 801.293 903.227 781.576 921.665C774.717 928.096 775.146 934.528 776.003 940.96C778.575 958.969 784.575 976.55 794.005 994.13C796.577 999.275 800.006 1004.42 810.294 1007.85C820.581 1011.28 917.883 1010.85 956.461 1009.57Z" fill="white" stroke="black" stroke-width="20" stroke-miterlimit="10"/>
<path d="M896.792 944.266C909.763 943.14 919.316 931.134 918.129 917.45C916.942 903.767 905.464 893.586 892.493 894.713C879.521 895.839 869.969 907.845 871.156 921.528C872.343 935.212 883.82 945.392 896.792 944.266Z" fill="black"/>
</svg>
