<svg width="1760" height="1760" viewBox="0 0 1760 1760" fill="none" xmlns="http://www.w3.org/2000/svg">
<rect width="1760" height="1760" fill="white"/>
<path d="M781.434 374.336C744.865 377.795 716.697 408.929 702.366 442.533C671.727 514.684 649.491 589.306 646.031 631.806C638.125 733.114 627.253 816.137 598.591 897.678C593.155 913.491 567.952 927.823 477.519 927.823C435.02 927.823 404.381 950.555 393.509 984.16C382.637 1017.76 398.946 1060.76 416.242 1091.4C430.573 1117.1 452.316 1138.84 464.177 1166.02C483.449 1208.03 477.519 1258.43 497.78 1299.94C523.477 1353.32 584.753 1379.01 642.077 1393.34C688.529 1404.71 739.924 1411.63 783.411 1391.37C819.486 1374.57 846.665 1340.96 859.514 1303.4C872.362 1265.85 872.361 1224.33 864.454 1185.29C858.524 1155.64 848.147 1125.5 856.547 1096.34C862.478 1076.08 876.809 1059.77 892.128 1045.44C920.79 1018.26 954.394 995.526 992.939 988.113C1031.48 980.701 1074.97 991.573 1099.68 1022.21C1141.69 1074.6 1115.99 1162.07 1162.93 1210C1199.5 1247.07 1265.23 1239.16 1303.77 1204.07C1342.32 1168.99 1358.63 1116.11 1365.05 1064.71C1376.42 978.23 1366.04 890.759 1355.66 804.277C1349.24 751.893 1342.81 699.015 1327.99 648.114C1319.59 618.957 1307.73 590.295 1287.96 567.068C1268.19 543.841 1239.53 527.039 1209.39 526.545C1181.71 526.545 1156.02 527.039 1130.81 537.911C1085.35 557.184 1035.44 559.655 986.515 551.254C937.592 542.853 891.635 531.487 880.763 483.057C875.327 458.842 878.786 433.144 869.891 410.411C860.996 387.679 831.839 369.888 781.434 374.83V374.336Z" fill="#FF6640" stroke="black" stroke-width="20" stroke-miterlimit="10"/>
<path d="M1248.42 782.038C1249.41 797.852 1226.68 824.538 1201.97 837.881C1162.93 858.637 1111.04 851.718 1078.92 821.573C1046.8 791.428 1036.42 740.033 1054.21 700.004C1055.2 697.533 1056.19 695.556 1058.66 694.074C1061.63 692.097 1065.09 692.591 1068.55 692.591C1142.18 700.498 1246.94 757.823 1248.42 782.038Z" fill="#FAFCFF" stroke="black" stroke-width="20" stroke-miterlimit="10"/>
<path d="M1129.33 788.461C1138.88 788.461 1146.63 780.496 1146.63 770.671C1146.63 760.845 1138.88 752.88 1129.33 752.88C1119.78 752.88 1112.04 760.845 1112.04 770.671C1112.04 780.496 1119.78 788.461 1129.33 788.461Z" fill="black" stroke="black" stroke-width="20" stroke-miterlimit="10"/>
</svg>
