<svg width="1760" height="1760" viewBox="0 0 1760 1760" fill="none" xmlns="http://www.w3.org/2000/svg">
<rect width="1760" height="1760" fill="white"/>
<path d="M846.696 414.603C798.345 368.027 707.465 380.119 673.441 437.891C652.847 472.823 651.952 517.16 628.672 550.3C610.764 576.275 580.769 592.397 549.878 598.219C539.134 600.459 527.493 601.802 521.226 610.759C516.749 616.581 516.749 624.642 516.302 631.808C514.511 684.206 512.72 736.156 510.93 788.554C509.139 835.577 507.796 884.84 528.39 927.385C549.431 970.826 591.065 1001.28 616.583 1042.48C655.532 1104.73 654.19 1183.55 648.37 1257C644.789 1300.89 642.103 1350.15 670.755 1383.29C697.168 1413.74 741.04 1420.01 780.884 1423.15C815.356 1425.84 849.828 1427.63 884.3 1428.52C905.789 1428.97 928.623 1428.52 947.874 1418.67C982.793 1399.86 993.536 1355.08 993.536 1315.67C993.536 1275.81 985.479 1235.95 986.822 1195.64C988.165 1155.34 1000.7 1113.24 1032.04 1088.61C1063.38 1063.98 1117.1 1066.22 1137.25 1100.25C1148.88 1119.96 1148.44 1145.49 1164.11 1162.06C1187.83 1187.58 1232.16 1173.7 1257.67 1149.52C1294.83 1113.69 1313.19 1059.5 1305.13 1008.89C1297.07 958.287 1263.05 912.159 1216.93 889.319C1200.37 881.258 1181.57 875.435 1168.14 862.448C1155.15 849.46 1148.89 831.547 1143.96 813.633C1133.22 774.223 1126.5 733.917 1124.26 693.611C1121.58 651.513 1117.55 599.115 1078.6 582.993C1054.42 573.14 1027.11 582.097 1001.15 578.962C918.774 569.557 891.465 455.805 847.592 413.26L846.696 414.603Z" fill="#E6E1E1" stroke="#140202" stroke-width="20" stroke-miterlimit="10"/>
<path d="M943.842 796.614C954.586 806.467 958.169 837.369 951.006 862C939.366 900.515 902.206 929.624 862.362 930.968C822.518 932.311 782.674 906.784 767.901 869.613C767.005 867.374 766.111 865.135 766.559 862.895C767.007 859.76 769.693 857.522 771.931 855.73C823.863 813.185 927.277 781.836 943.842 796.167V796.614Z" fill="#FAFCFF" stroke="black" stroke-width="20" stroke-miterlimit="10"/>
<path d="M903.998 897.828C910.179 897.828 915.19 892.815 915.19 886.632C915.19 880.448 910.179 875.435 903.998 875.435C897.816 875.435 892.805 880.448 892.805 886.632C892.805 892.815 897.816 897.828 903.998 897.828Z" fill="black" stroke="#140202" stroke-width="20" stroke-miterlimit="10"/>
</svg>
