<svg width="1760" height="1760" viewBox="0 0 1760 1760" fill="none" xmlns="http://www.w3.org/2000/svg">
<rect width="1760" height="1760" fill="white"/>
<path d="M646 531C631.975 501.257 623.886 478.646 601.446 454.515C579.006 430.384 547.591 412.426 514.492 414.109C487.003 415.793 461.758 430.945 443.806 452.27C425.855 473.595 416.318 499.971 410.708 526.909C400.049 580.783 406.781 639.147 438.197 699.756C466.246 754.752 498.223 811.994 494.857 873.725C492.052 925.916 465.124 973.617 445.489 1022.44C421.367 1083.61 409.025 1149.27 409.025 1214.93C409.025 1271.61 424.172 1336.15 473.539 1363.08C507.76 1381.6 550.957 1377.68 586.299 1361.96C621.642 1346.25 652.497 1320.99 683.352 1296.86C733.28 1258.14 786.575 1221.66 847.162 1204.83C907.75 1187.99 977.313 1192.48 1028.36 1229.52C1061.46 1254.21 1084.46 1290.69 1117.56 1315.38C1175.34 1358.59 1262.3 1356.91 1319.52 1313.14C1376.74 1269.37 1400.3 1186.31 1376.74 1118.41C1352.62 1049.38 1286.98 997.187 1278.01 924.793C1271.28 869.796 1298.76 817.606 1314.47 764.854C1330.18 712.102 1329.62 644.198 1283.62 613.893C1248.84 590.885 1202.83 598.741 1161.88 590.884C1121.49 583.028 1085.59 559.458 1046.32 547.673C989.655 531.399 925.702 542.622 877.456 577.416C853.894 594.252 833.699 617.26 806.21 626.801C762.452 642.514 691.767 625.679 650.253 539.817L646 531Z" fill="#B0FCA4" stroke="black" stroke-width="20" stroke-miterlimit="10"/>
<path d="M1039.02 867.552C1040.14 932.089 993.582 991.014 934.678 1017.95C920.653 1024.69 905.506 1029.74 889.798 1030.3C860.065 1031.42 831.455 1016.83 809.576 996.626C770.867 960.71 750.11 906.274 755.159 854.083C755.159 848.471 756.842 842.299 761.33 839.493C764.135 837.248 768.062 837.248 771.989 836.686C842.675 832.758 913.921 833.32 984.606 837.809C1006.49 839.493 1038.46 844.543 1039.02 867.552Z" fill="white" stroke="black" stroke-width="20" stroke-miterlimit="10"/>
<path d="M924.227 874.907C927.018 860.61 916.955 846.612 901.75 843.642C886.546 840.672 871.958 849.854 869.167 864.151C866.376 878.448 876.439 892.446 891.643 895.416C906.848 898.386 921.436 889.204 924.227 874.907Z" fill="black"/>
</svg>
