<svg width="1760" height="1760" viewBox="0 0 1760 1760" fill="none" xmlns="http://www.w3.org/2000/svg">
<rect width="1760" height="1760" fill="white"/>
<path d="M783.401 525.319C757.877 558.432 724.377 587.556 683.698 597.928C643.018 608.301 588.381 602.716 567.642 566.012C558.071 548.857 563.255 518.935 537.731 514.148C515.398 509.759 495.856 539.681 486.683 551.251C428.855 621.866 443.212 684.502 473.123 755.117C490.671 797.007 520.582 832.115 544.91 870.813C569.238 909.512 588.381 954.195 580.404 999.277C576.416 1022.02 565.648 1043.96 566.446 1067.1C568.041 1108.19 614.703 1140.91 653.786 1128.14C670.537 1122.95 684.096 1111.38 698.853 1101.81C744.317 1071.89 808.527 1062.31 851.599 1095.42C887.891 1123.35 899.457 1172.42 910.225 1216.71C920.594 1259.39 933.356 1302.48 956.487 1339.58C979.619 1376.69 1015.11 1408.6 1057.79 1418.98C1100.46 1429.35 1150.71 1414.99 1174.64 1378.28C1205.35 1331.21 1187 1269.77 1177.03 1214.71C1165.47 1148.89 1171.05 1073.08 1220.1 1028C1239.65 1010.05 1264.77 998.479 1282.72 978.93C1305.45 954.195 1314.62 918.688 1312.63 885.176C1310.64 851.664 1299.07 819.348 1285.11 788.629C1270.75 757.111 1253.21 726.392 1226.49 704.449C1181.02 667.347 1113.22 660.565 1076.93 614.286C1047.02 575.986 1048.61 522.925 1034.66 476.247C1025.08 443.533 1018.7 398.85 983.208 382.493C879.516 335.018 814.388 484.923 778.096 532L783.401 525.319Z" fill="#DEB0FF" stroke="black" stroke-width="20" stroke-miterlimit="10"/>
<path d="M907.034 810.571C867.551 838.498 868.349 917.491 892.677 964.568C896.665 972.148 901.052 979.329 907.034 984.515C914.612 991.298 923.784 994.888 933.356 996.883C967.255 1004.06 1004.74 992.494 1028.27 961.376C1051.8 930.258 1054.6 880.388 1038.24 843.685C1012.32 786.235 939.737 787.033 907.034 810.172V810.571Z" fill="white" stroke="#140202" stroke-width="20" stroke-miterlimit="10"/>
<path d="M964.862 927.066C974.113 927.066 981.612 917.778 981.612 906.32C981.612 894.863 974.113 885.575 964.862 885.575C955.611 885.575 948.112 894.863 948.112 906.32C948.112 917.778 955.611 927.066 964.862 927.066Z" fill="black"/>
</svg>
