<svg width="1760" height="1760" viewBox="0 0 1760 1760" fill="none" xmlns="http://www.w3.org/2000/svg">
<rect width="1760" height="1760" fill="white"/>
<path d="M676.541 592.365C660.09 577.404 647.004 567.68 625.319 574.038C603.634 580.396 587.183 596.853 571.48 613.31C563.254 621.912 554.655 630.888 551.664 642.483C548.299 655.947 553.533 670.159 559.142 683.25C572.975 715.415 590.174 746.458 600.269 779.745C610.363 813.033 612.981 850.808 597.651 882.225C579.705 919.627 540.821 941.693 515.771 974.98C490.721 1008.27 481 1050.91 481 1092.79C481 1134.68 489.973 1175.45 498.946 1216.22C501.19 1226.69 503.807 1237.91 511.284 1245.39C522.875 1257.73 542.317 1257.73 559.142 1256.99C614.102 1254.37 668.689 1251.75 723.65 1249.13C751.691 1247.64 782.35 1247.64 803.661 1265.59C836.563 1294.01 826.468 1348.62 849.274 1385.65C868.716 1417.06 908.722 1429.78 945.736 1431.28C965.178 1432.02 986.116 1429.78 999.949 1416.32C1034.72 1382.66 995.463 1314.21 1027.62 1277.93C1035.84 1268.58 1047.06 1263.34 1058.65 1258.86C1087.06 1247.64 1117.35 1241.28 1148.01 1239.78C1167.07 1238.66 1187.64 1239.03 1202.97 1227.81C1216.8 1217.34 1222.78 1199.76 1226.9 1182.56C1233.25 1155.25 1235.87 1127.2 1234.75 1099.15C1234.75 1089.05 1233.63 1078.58 1228.77 1069.61C1223.91 1060.26 1214.93 1053.15 1206.33 1047.17C1190.63 1036.69 1173.06 1028.46 1158.85 1016.12C1144.64 1003.78 1133.8 985.453 1136.42 966.752C1140.53 938.327 1171.94 923.741 1192.87 903.918C1229.51 868.761 1234.75 813.032 1234.37 762.167C1234.37 749.45 1234 735.612 1226.52 725.14C1217.92 713.171 1202.22 708.683 1187.64 705.317C1165.58 700.081 1143.89 694.844 1121.84 689.234C1093.79 682.502 1063.88 674.274 1046.31 651.833C1027.99 628.27 1028.36 594.983 1036.22 566.184C1048.93 519.806 1089.68 462.208 1061.27 419.197C1032.85 376.185 946.11 358.232 896.758 439.019C880.307 466.322 882.924 500.731 874.325 531.401C862.734 571.42 832.45 605.455 793.94 621.164C767.768 632.01 721.78 634.254 675.793 592.365H676.541Z" fill="#DAD4FF" stroke="black" stroke-width="20" stroke-miterlimit="10"/>
<path d="M848.526 860.158C811.512 886.339 812.26 960.393 835.067 1004.53C838.805 1011.63 842.918 1018.37 848.526 1023.23C855.63 1029.59 864.23 1032.95 873.203 1034.82C904.983 1041.55 940.128 1030.71 962.187 1001.53C984.246 972.362 986.863 925.61 971.534 891.201C947.232 837.343 879.185 838.091 848.526 859.783V860.158Z" fill="white" stroke="#140202" stroke-width="20" stroke-miterlimit="10"/>
<path d="M902.74 969.37C911.412 969.37 918.443 960.662 918.443 949.921C918.443 939.18 911.412 930.472 902.74 930.472C894.067 930.472 887.037 939.18 887.037 949.921C887.037 960.662 894.067 969.37 902.74 969.37Z" fill="black"/>
</svg>
