<svg width="1760" height="1760" viewBox="0 0 1760 1760" fill="none" xmlns="http://www.w3.org/2000/svg">
<rect width="1760" height="1760" fill="white"/>
<path d="M802.769 417.988C801.256 396.039 787.259 399.067 736.568 399.067C671.88 399.067 674.528 450.533 672.636 468.319C667.34 513.351 676.419 563.681 650.317 601.145C637.833 618.931 617.406 633.69 615.136 655.26C614.001 668.127 619.675 680.615 624.215 692.724C646.912 756.299 629.511 832.363 581.468 879.666C567.092 894.046 550.826 908.048 545.152 927.348C518.671 1018.55 744.512 1036.71 789.529 1123.37C823.575 1189.22 777.045 1273.23 803.904 1342.48C821.683 1388.27 873.131 1418.16 921.553 1410.97C969.974 1403.78 1010.45 1360.27 1014.23 1311.45C1016.13 1288.36 1010.45 1264.52 1018.02 1242.95C1026.72 1218.73 1049.79 1202.84 1073.25 1192.62C1100.49 1180.51 1130.37 1173.32 1160.26 1172.19C1204.14 1170.3 1254.83 1178.24 1285.09 1146.83C1304.01 1127.16 1308.55 1098.02 1310.44 1070.77C1311.57 1054.5 1311.57 1037.09 1304.76 1022.33C1294.93 1001.52 1273.36 989.031 1251.8 981.084C1230.24 973.137 1207.54 967.839 1188.25 955.351C1168.96 942.863 1153.82 920.158 1158.74 897.831C1163.28 877.396 1182.95 863.772 1202.62 855.447C1236.29 841.824 1307.41 826.687 1294.55 755.922C1284.34 699.915 1189.76 736.243 1156.09 639.367C1142.1 600.01 1150.04 568.601 1168.2 530.758C1186.36 492.916 1175.01 457.344 1151.55 436.152C1105.78 394.904 1067.57 395.282 979.81 483.455C910.582 552.707 807.308 481.563 802.769 417.988Z" fill="white" stroke="black" stroke-width="20" stroke-miterlimit="10"/>
<path d="M894.5 887.48C916.819 898.076 951.438 912.211 972.244 897.831C985.484 888.749 991.915 871.72 996.455 855.826C1002.13 835.391 1005.91 814.199 1002.51 793.385C999.103 772.572 988.51 752.515 971.109 743.055C952.573 732.837 929.875 736.243 909.447 741.163C871.24 750.624 833.032 766.139 804.282 794.899C801.256 797.927 798.229 801.332 796.338 805.495C792.555 814.956 797.094 826.309 804.66 832.742C812.226 839.175 876.158 878.909 902.26 891.397L894.5 887.48Z" fill="white" stroke="black" stroke-width="20" stroke-miterlimit="10"/>
<path d="M944.867 820.666C946.437 809.279 940.327 799.029 931.221 797.773C922.114 796.517 913.459 804.73 911.89 816.118C910.321 827.505 916.431 837.754 925.537 839.01C934.644 840.266 943.298 832.053 944.867 820.666Z" fill="#030005"/>
</svg>
