<svg width="1760" height="1760" viewBox="0 0 1760 1760" fill="none" xmlns="http://www.w3.org/2000/svg">
<rect width="1760" height="1760" fill="white"/>
<path d="M1298.09 394.953C1216.61 384.956 1158.57 455.703 1096.69 509.916C1063.63 538.753 1029.43 569.127 1011.75 609.114C986.378 665.635 996.755 732.921 976.385 791.748C956.014 850.959 903.357 896.714 843.397 913.631C783.438 930.549 719.25 914.016 662.75 886.717C640.457 875.951 621.623 845.576 590.875 840.962C560.126 836.349 543.599 855.573 531.3 873.644C509.007 905.941 535.912 939.007 518.231 973.996C504.779 1001.29 472.878 1012.83 444.82 1025.13C416.761 1037.44 386.781 1057.82 386.013 1088.57C385.244 1122.03 419.452 1144.71 450.585 1156.24C481.718 1167.78 518.232 1179.7 532.068 1210.07C546.29 1241.6 529.762 1277.36 524.765 1311.58C519.384 1349.26 534.759 1394.63 571.273 1405.78C609.324 1417.31 650.835 1395.01 680.814 1368.87C731.55 1325.04 800.349 1239.29 939.486 1303.5C992.528 1327.73 1031.35 1388.48 1088.62 1379.63C1106.3 1376.94 1122.44 1369.64 1137.81 1360.41C1237.36 1301.58 1287.33 1202 1239.67 1096.65C1213.53 1038.21 1155.11 1018.98 1167.79 947.851C1179.71 881.718 1262.35 837.887 1287.33 775.599C1303.09 735.612 1261.58 676.016 1284.64 639.489C1308.85 601.424 1340.37 567.59 1357.67 525.68C1374.96 483.77 1369.97 404.181 1297.71 395.338L1298.09 394.953Z" fill="#69FF50" stroke="black" stroke-width="20" stroke-miterlimit="10"/>
<path d="M1028.5 1106.63C993.908 1128.16 991.759 1191.62 1013.28 1228.53C1016.74 1234.3 1020.97 1240.06 1025.97 1244.29C1032.5 1249.68 1040.96 1252.37 1049.03 1253.9C1079.01 1259.67 1112.06 1250.45 1132.82 1226.22C1153.57 1202 1158.95 1161.63 1141.66 1134.33C1130.9 1117.41 1113.6 1106.65 1095.15 1102.42C1076.7 1098.19 1054.41 1090.11 1025.97 1108.18L1028.5 1106.63Z" fill="white" stroke="#140202" stroke-width="20" stroke-miterlimit="10"/>
<path d="M1077.47 1198.92C1085.54 1198.92 1092.08 1191.69 1092.08 1182.77C1092.08 1173.86 1085.54 1166.63 1077.47 1166.63C1069.4 1166.63 1062.86 1173.86 1062.86 1182.77C1062.86 1191.69 1069.4 1198.92 1077.47 1198.92Z" fill="black"/>
</svg>
