<svg width="1760" height="1760" viewBox="0 0 1760 1760" fill="none" xmlns="http://www.w3.org/2000/svg">
<rect width="1760" height="1760" fill="white"/>
<path d="M648.515 378.292C605.485 374.848 569.34 402.397 538.789 432.959C489.734 482.03 447.995 550.042 464.777 617.623C474.673 656.364 502.643 687.787 525.879 720.501C549.116 753.216 570.201 792.387 562.025 831.558C557.722 852.65 535.346 903.444 525.019 922.384C495.758 976.19 489.734 1009.77 510.819 1067.02C531.904 1124.27 597.74 1155.69 657.122 1141.05C760.824 1115.66 805.145 1051.95 882.6 1080.79C930.363 1098.44 956.181 1149.66 971.672 1198.3C987.163 1246.94 998.781 1299.46 1034.07 1336.05C1058.16 1361.01 1090.87 1376.08 1124.43 1384.26C1151.54 1391.15 1180.37 1394.16 1207.91 1387.7C1254.38 1376.94 1292.25 1339.49 1308.17 1294.72C1324.09 1249.96 1318.07 1198.73 1296.98 1156.12C1273.74 1109.2 1232.44 1070.03 1223.4 1018.37C1215.22 970.594 1238.03 921.953 1272.02 887.517C1293.54 865.564 1319.36 847.915 1334.85 821.657C1354.64 787.221 1351.63 742.885 1335.71 706.727C1319.79 670.569 1294.83 633.98 1259.11 620.206C1144.22 575.439 1099.47 584.909 1021.59 615.471C986.733 629.245 942.842 635.272 914.872 610.306C874.854 575.439 893.357 508.718 871.412 460.508C856.351 427.363 823.218 405.41 788.363 395.94C753.509 386.47 716.933 383.888 648.515 378.292Z" fill="#FFE0F6" stroke="black" stroke-width="20" stroke-miterlimit="10"/>
<path d="M971.242 934.867C985.872 935.728 1002.22 936.159 1014.27 930.993C1027.18 925.398 1030.19 915.497 1031.48 906.888C1037.51 869.439 1037.51 831.989 1031.48 794.54C1030.19 786.362 1028.47 777.752 1020.3 770.865C1003.08 755.799 965.218 753.217 932.085 752.786C880.448 751.495 815.043 754.939 793.958 781.196C786.643 790.666 786.643 800.996 787.503 810.897C789.655 839.307 795.249 867.287 803.855 894.836C806.436 903.014 809.879 911.623 820.206 917.65C830.533 923.676 931.654 932.715 971.242 934.867Z" fill="white" stroke="black" stroke-width="20" stroke-miterlimit="10"/>
<path d="M912.394 856.158C928.545 855.622 941.383 847.483 941.067 837.979C940.752 828.475 927.404 821.205 911.252 821.741C895.101 822.277 882.263 830.416 882.578 839.92C882.894 849.424 896.242 856.694 912.394 856.158Z" fill="black"/>
</svg>
