<svg width="1760" height="1760" viewBox="0 0 1760 1760" fill="none" xmlns="http://www.w3.org/2000/svg">
<rect width="1760" height="1760" fill="white"/>
<path d="M825.474 351.876C776.933 343.965 731.481 390.993 714.271 437.142C697.06 483.291 702.356 535.154 717.36 582.183C722.655 598.884 729.716 615.147 731.04 632.727C732.363 650.308 727.068 669.207 712.505 679.316C703.238 685.909 650.726 692.941 607.48 697.776C580.561 700.852 520.547 691.622 498.483 721.07C470.682 758.429 528.49 808.973 530.255 850.727C532.02 892.481 507.308 926.324 480.831 956.211C454.354 986.099 423.906 1015.55 413.756 1054.22C406.695 1081.47 410.226 1110.92 419.052 1137.73C435.379 1189.15 468.917 1234.43 508.632 1271.34C577.914 1335.51 667.936 1376.83 761.488 1387.38C855.04 1397.93 952.123 1378.15 1034.2 1331.12C1098.63 1294.2 1155.11 1238.82 1181.59 1169.38C1208.07 1099.93 1202.33 1015.99 1156 957.969C1143.64 942.147 1128.2 928.522 1117.6 911.381C1107.01 894.239 1101.28 872.264 1110.1 853.804C1120.25 832.707 1145.41 823.477 1168.35 821.28C1191.3 819.082 1215.57 820.401 1237.63 812.05C1270.73 799.304 1291.03 766.34 1306.47 734.256C1349.72 645.473 1392.52 510.542 1299.86 465.711C1271.61 452.086 1227.93 411.211 1197.04 435.384C1181.15 447.691 1170.12 480.655 1155.55 494.719C1128.2 522.409 1084.95 524.167 1045.68 524.606C995.81 525.046 936.237 519.772 912.849 476.26C903.14 457.8 902.258 436.263 897.845 416.045C893.432 395.828 889.461 362.864 825.474 352.316V351.876Z" fill="#9DC0EB" stroke="black" stroke-width="20" stroke-miterlimit="10"/>
<path d="M926.97 1085.43C936.237 1085.43 943.739 1078.84 943.739 1069.61C943.739 1043.24 942.856 992.251 933.589 964.122C920.35 925.005 892.108 889.404 852.393 877.537C838.272 873.142 823.709 872.263 809.147 872.263C782.228 872.702 754.427 878.416 733.246 894.678C712.947 910.061 699.708 933.356 692.648 957.529C686.911 977.307 683.381 1044.11 682.057 1067.85C682.057 1072.68 685.587 1076.64 690.882 1077.08L926.97 1085.43Z" fill="white" stroke="black" stroke-width="20" stroke-miterlimit="10"/>
<path d="M833.637 915.596C835.133 903.551 827.13 892.651 815.762 891.251C804.394 889.851 793.966 898.48 792.47 910.525C790.974 922.571 798.978 933.47 810.346 934.87C821.714 936.271 832.142 927.641 833.637 915.596Z" fill="black"/>
</svg>
