<svg width="1760" height="1760" viewBox="0 0 1760 1760" fill="none" xmlns="http://www.w3.org/2000/svg">
<rect width="1760" height="1760" fill="white"/>
<path d="M967.174 371C880.729 375.709 812.258 442.492 728.809 465.609C691.15 475.883 643.649 479.735 626.959 514.839C618.828 531.963 620.54 552.083 620.968 570.919C623.536 646.691 564.051 805.513 542.226 819.64C495.581 849.179 404.001 819.64 398.01 883.854C395.014 914.249 423.686 936.938 442.516 961.339C478.035 1006.72 482.314 1070.07 467.764 1125.73C453.214 1181.38 422.403 1231.04 392.019 1279.84C388.595 1285.4 385.172 1292.25 388.595 1297.39C391.163 1301.24 395.87 1302.53 400.149 1302.96C437.808 1308.95 475.04 1293.11 507.991 1273.85C540.943 1254.58 570.899 1230.61 606.846 1217.77C642.793 1204.92 686.015 1204.92 714.687 1230.18C734.8 1248.16 743.788 1275.13 755.77 1299.53C778.879 1346.19 818.677 1386.43 868.747 1400.13C918.816 1413.83 978.728 1394.57 1003.98 1349.19C1017.67 1324.36 1019.81 1294.82 1024.95 1267C1035.22 1207.92 1058.33 1151.41 1092.13 1102.18C1099.41 1091.48 1107.54 1080.78 1118.67 1074.36C1146.05 1058.52 1180.29 1073.07 1211.96 1076.07C1268.02 1081.63 1324.51 1046.53 1347.61 995.158C1370.72 943.787 1359.6 880.002 1322.79 837.192C1313.81 826.49 1302.68 816.644 1297.12 803.801C1285.56 778.544 1295.83 749.862 1306.1 724.176C1326.65 672.805 1347.61 621.434 1368.16 570.491C1376.29 550.799 1369.44 505.849 1361.74 486.157C1350.18 456.619 1266.73 537.956 1170.87 490.866C1108.39 460.471 1107.97 364.151 968.029 371.856L967.174 371Z" fill="white" stroke="black" stroke-width="20" stroke-miterlimit="10"/>
<path d="M1035.64 774.263C1040.78 816.644 1011.25 857.741 971.025 878.718C961.182 883.855 950.912 887.708 939.785 888.992C918.816 891.133 897.419 882.998 880.729 870.584C850.773 848.751 832.8 813.648 832.8 778.972C832.8 775.547 833.228 771.267 836.223 769.126C838.363 767.414 840.93 767.414 843.498 766.986C893.567 760.992 944.064 757.996 994.99 757.568C1010.82 757.568 1033.5 759.28 1035.64 774.692V774.263Z" fill="white" stroke="black" stroke-width="20" stroke-miterlimit="10"/>
<path d="M954.631 785.583C955.701 775.948 947.618 767.143 936.578 765.916C925.538 764.689 915.721 771.505 914.651 781.139C913.581 790.773 921.663 799.578 932.703 800.805C943.743 802.032 953.561 795.217 954.631 785.583Z" fill="black"/>
</svg>
