<svg width="1760" height="1760" viewBox="0 0 1760 1760" fill="none" xmlns="http://www.w3.org/2000/svg">
<rect width="1760" height="1760" fill="white"/>
<path d="M1087.63 378.904C1050.91 373.951 1014.6 389.635 991.905 418.939C969.213 448.244 955.185 484.152 930.429 511.393C898.247 546.475 845.023 564.222 800.875 546.887C775.295 536.569 743.938 516.758 724.133 536.156C720.007 540.284 717.119 545.649 714.643 551.015C687 607.56 661.831 665.343 640.377 724.777C634.188 740.874 628.412 757.796 629.649 775.131C631.3 801.133 648.629 823.008 661.831 845.709C695.251 903.904 697.727 987.69 644.915 1028.96C627.999 1042.58 606.957 1050.01 585.502 1054.55C553.733 1060.74 520.725 1060.33 489.368 1052.9C478.228 1050.43 466.676 1046.71 455.948 1051.25C448.109 1054.55 442.333 1061.98 437.794 1069.41C398.598 1128.43 374.255 1197.77 368.066 1268.35C366.003 1290.23 366.003 1313.34 376.73 1332.74C390.758 1357.91 419.64 1370.3 447.284 1378.14C507.935 1395.47 573.124 1400.01 634.188 1384.33C695.251 1368.65 751.777 1332.32 786.022 1279.49C814.904 1234.92 827.281 1181.26 856.163 1136.28C888.757 1085.51 943.632 1047.95 1003.87 1042.58C1064.11 1037.22 1127.65 1065.7 1158.18 1118.11C1177.16 1150.31 1182.94 1188.69 1194.08 1224.6C1205.22 1260.51 1224.61 1297.24 1258.85 1312.51C1295.99 1329.02 1341.37 1314.58 1370.25 1286.1C1399.13 1257.62 1413.57 1217.58 1421.83 1177.96C1426.78 1154.02 1429.67 1128.85 1424.71 1104.91C1415.22 1059.92 1379.74 1025.25 1363.65 982.737C1354.16 958.386 1351.69 931.558 1351.27 905.555C1350.45 834.152 1367.78 763.574 1375.62 692.171C1383.46 620.767 1380.98 545.237 1344.26 483.326C1333.94 465.991 1320.74 449.895 1302.59 440.402C1287.73 432.973 1270.82 430.496 1254.73 428.02C1208.1 421.829 1183.35 392.937 1088.04 379.73L1087.63 378.904Z" fill="#FF6640" stroke="black" stroke-width="20" stroke-miterlimit="10"/>
<path d="M930.429 815.578C929.191 826.722 927.953 838.691 933.317 847.772C939.093 857.677 949.821 860.154 959.723 861.392C1000.98 866.758 1043.07 867.996 1084.74 863.868C1093.82 863.043 1103.31 861.804 1111.56 856.026C1128.89 843.644 1133.01 815.165 1135.07 790.401C1138.38 751.604 1137.14 702.489 1108.67 685.979C1098.77 680.201 1087.21 680.201 1076.07 680.201C1044.72 681.026 1012.95 684.328 982.003 690.519C972.926 692.17 963.024 694.647 956.01 702.076C948.996 709.505 934.967 785.448 931.254 815.165L930.429 815.578Z" fill="white" stroke="black" stroke-width="20" stroke-miterlimit="10"/>
<path d="M1039.35 795.354C1049.84 795.354 1058.33 785.56 1058.33 773.479C1058.33 761.398 1049.84 751.604 1039.35 751.604C1028.87 751.604 1020.37 761.398 1020.37 773.479C1020.37 785.56 1028.87 795.354 1039.35 795.354Z" fill="black"/>
</svg>
