<svg width="1760" height="1760" viewBox="0 0 1760 1760" fill="none" xmlns="http://www.w3.org/2000/svg">
<g clip-path="url(#clip0_10_176)">
<path d="M1760 0H0V1760H1760V0Z" fill="white"/>
<path d="M697.055 381.985C655.844 386.834 629.583 434.105 619.886 474.509C612.614 504.811 616.25 536.73 613.826 567.436C611.402 598.143 600.897 632.081 574.636 648.243C566.96 653.091 558.475 656.323 551.606 661.98C530.597 679.757 535.042 713.292 540.698 740.362C567.768 874.097 571 1012.28 550.799 1147.22C544.334 1188.43 535.849 1230.86 543.93 1271.67C552.01 1312.47 580.292 1353.28 621.906 1359.74C654.632 1365 688.166 1347.22 708.367 1320.96C728.568 1294.7 737.053 1260.76 739.881 1227.63C743.517 1182.78 738.264 1133.89 763.314 1096.72C779.879 1072.07 809.372 1056.72 839.27 1056.72C869.168 1056.72 898.257 1072.48 914.822 1097.12C941.892 1137.12 933.407 1190.05 926.135 1237.73C918.862 1285.4 916.438 1340.76 950.376 1374.69C981.89 1406.21 1032.39 1406.61 1076.43 1400.96C1091.78 1398.94 1107.54 1396.11 1121.28 1388.43C1134.61 1380.75 1144.31 1368.63 1152.79 1355.7C1181.07 1312.47 1192.39 1258.74 1184.31 1207.42C1177.44 1164.19 1158.45 1115.3 1185.52 1080.96C1208.95 1051.06 1254.2 1051.06 1291.37 1059.55C1307.53 1063.18 1323.69 1067.63 1340.26 1065.61C1370.56 1061.97 1394.4 1034.9 1401.27 1005.41C1408.13 975.913 1401.26 944.399 1389.55 916.521C1368.94 867.229 1327.33 821.977 1274 817.129C1240.46 813.896 1207.74 827.229 1173.8 828.037C1132.59 828.846 1091.78 808.644 1066.73 775.917C1060.67 768.241 1055.42 759.352 1047.34 753.695C1028.76 740.362 1003.3 747.635 980.274 750.867C888.56 763.796 794.423 688.242 787.151 596.123C783.919 556.123 794.828 516.124 791.191 476.529C787.555 436.934 761.698 374.713 697.055 381.985Z" fill="#FFD58C" stroke="black" stroke-width="20" stroke-miterlimit="10"/>
<path d="M1008.55 1189.65C976.635 1208.64 976.231 1263.59 996.432 1296.31C999.664 1301.56 1003.7 1306.41 1008.55 1310.45C1015.02 1315.3 1022.69 1317.73 1030.37 1318.94C1058.65 1324.19 1090.17 1316.11 1109.96 1294.29C1129.76 1272.47 1134.61 1236.92 1118.45 1212.68C1108.35 1197.73 1091.78 1188.44 1074.41 1184.39C1057.04 1180.35 1036.43 1173.08 1008.55 1189.65Z" fill="white" stroke="black" stroke-width="20" stroke-miterlimit="10"/>
<path d="M1100.67 1261.97C1107.36 1261.97 1112.79 1256.54 1112.79 1249.85C1112.79 1243.15 1107.36 1237.73 1100.67 1237.73C1093.97 1237.73 1088.55 1243.15 1088.55 1249.85C1088.55 1256.54 1093.97 1261.97 1100.67 1261.97Z" fill="black" stroke="black" stroke-width="20" stroke-miterlimit="10"/>
</g>
<defs>
<clipPath id="clip0_10_176">
<rect width="1760" height="1760" fill="white"/>
</clipPath>
</defs>
</svg>
