<svg width="1760" height="1760" viewBox="0 0 1760 1760" fill="none" xmlns="http://www.w3.org/2000/svg">
<rect width="1760" height="1760" fill="white"/>
<path d="M828.84 353.646C802.015 351.549 708.969 342.325 695.557 573.766C695.137 583.829 691.785 593.892 685.917 602.277C671.666 622.402 640.65 620.725 618.856 608.566C483.896 534.354 519.522 494.942 476.352 866.421C472.999 895.77 469.645 925.539 474.256 954.888C486.83 1030.78 554.309 1096.19 542.574 1172.07C537.544 1203.52 519.941 1230.77 509.044 1260.54C498.146 1290.31 496.469 1327.63 519.102 1349.43C528.323 1358.65 540.897 1363.68 552.633 1368.72C589.516 1384.23 627.238 1399.32 667.055 1404.35C706.873 1409.38 749.624 1402.26 780.64 1376.68C820.038 1344.4 832.612 1290.31 846.443 1241.25C860.274 1192.2 881.65 1138.53 928.593 1117.99C978.889 1095.77 1036.73 1120.92 1086.19 1145.24C1135.64 1169.56 1194.32 1193.46 1243.78 1169.14C1271.86 1155.3 1291.14 1127.63 1301.62 1097.86C1312.1 1068.09 1314.19 1036.65 1315.87 1005.2C1320.48 912.123 1320.06 818.624 1314.19 725.964C1312.52 699.13 1307.07 667.265 1282.76 655.525C1263.48 646.301 1176.3 705.419 1009.07 663.072C986.014 657.202 895.482 627.853 917.696 515.487C924.821 479.429 950.807 362.031 829.259 352.388L828.84 353.646Z" fill="#FFF570" stroke="black" stroke-width="20" stroke-miterlimit="10"/>
<path d="M784.832 778.792C750.044 809.818 752.558 891.578 767.647 942.729C770.162 951.115 773.096 958.662 776.868 964.532C781.898 972.079 788.184 975.852 794.89 978.368C818.781 987.173 845.605 976.272 864.047 943.568C882.489 910.864 888.775 856.358 876.621 818.623C869.076 795.144 855.664 780.05 840.995 773.341C826.325 766.633 807.046 759.086 784.832 778.792Z" fill="white" stroke="#140202" stroke-width="20" stroke-miterlimit="10"/>
<path d="M832.69 882.719C833.207 870.689 828.375 860.711 821.9 860.433C815.424 860.155 809.756 869.682 809.24 881.712C808.723 893.742 813.554 903.72 820.029 903.998C826.504 904.276 832.173 894.75 832.69 882.719Z" fill="black"/>
</svg>
