<svg width="1760" height="1760" viewBox="0 0 1760 1760" fill="none" xmlns="http://www.w3.org/2000/svg">
<rect width="1760" height="1760" fill="white"/>
<path d="M872.846 356.853C826.424 342.269 777.318 379.496 758.902 424.398C740.487 469.301 745.858 519.96 751.229 567.932C755.449 604.775 759.67 641.619 763.506 678.462C766.192 702.64 768.877 727.969 760.82 750.996C750.462 780.547 721.689 803.19 690.613 805.877C669.513 807.796 648.412 801.272 627.311 799.737C606.211 798.201 582.041 803.19 570.531 820.844C561.324 835.044 562.475 853.082 564.01 869.969C572.066 978.579 568.23 1088.34 552.5 1196.57C545.211 1245.69 536.387 1299.42 562.091 1342.02C575.519 1364.66 597.77 1381.17 622.324 1390.76C648.412 1401.12 677.569 1404.19 704.041 1395.36C730.512 1386.54 753.148 1364.66 759.286 1337.41C771.179 1282.92 717.852 1232.64 720.921 1176.99C723.223 1134.01 758.902 1100.24 797.651 1081.43C824.89 1068.38 856.349 1061.09 884.739 1070.69C930.776 1086.8 949.959 1140.53 964.153 1187.36C978.348 1234.18 999.449 1287.91 1046.64 1300.96C1073.49 1308.63 1104.19 1299.42 1123.37 1279.08C1142.55 1258.74 1150.22 1228.42 1143.32 1201.17C1139.86 1186.97 1132.96 1173.92 1131.42 1159.34C1127.97 1125.57 1155.21 1095.63 1184.75 1078.75C1214.29 1061.86 1248.44 1052.26 1275.29 1031.54C1331.69 987.789 1339.36 894.147 1291.02 841.569C1268.77 817.39 1237.31 801.271 1222.35 772.488C1210.84 750.229 1211.22 724.515 1207.39 699.953C1203.55 675.391 1193.57 648.91 1170.94 638.548C1148.69 628.57 1132.96 656.586 1109.94 665.413C1070.81 680.381 959.55 671.554 927.324 612.067C914.28 587.889 931.927 557.57 941.902 531.857C953.028 502.689 962.619 471.603 958.015 440.901C953.411 410.198 932.695 375.658 872.846 356.853Z" fill="#FFE0F6" stroke="black" stroke-width="20" stroke-miterlimit="10"/>
<path d="M897.698 782.85C865.855 811.25 868.157 886.087 881.968 932.909C884.27 940.584 886.956 947.492 890.409 952.865C895.012 959.773 900.767 963.227 906.905 965.53C928.773 973.589 953.327 963.611 970.207 933.676C987.088 903.741 992.842 853.85 981.716 819.309C974.811 797.817 962.534 784.001 949.107 777.861C935.679 771.72 918.031 764.812 897.698 782.85Z" fill="white" stroke="#140202" stroke-width="20" stroke-miterlimit="10"/>
<path d="M941.73 877.884C942.203 866.872 937.781 857.739 931.854 857.484C925.927 857.229 920.739 865.95 920.266 876.961C919.793 887.973 924.214 897.106 930.142 897.36C936.069 897.615 941.257 888.895 941.73 877.884Z" fill="black"/>
</svg>
