<svg width="1760" height="1760" viewBox="0 0 1760 1760" fill="none" xmlns="http://www.w3.org/2000/svg">
<rect width="1760" height="1760" fill="white"/>
<path d="M764.028 335.879C707.01 313.253 641.785 328.781 580.879 334.992C569.649 336.323 557.986 338.098 549.779 345.64C538.98 355.4 537.684 372.26 537.684 386.901C537.684 425.499 542.436 465.872 564.466 497.371C586.927 529.315 625.371 547.949 646.105 581.223C667.271 614.941 666.407 658.864 658.2 697.906C652.152 725.856 642.217 753.807 622.779 773.772C596.862 800.391 558.418 809.264 527.749 829.673C481.962 860.285 455.613 920.623 466.412 975.637C477.211 1030.65 524.294 1077.23 578.72 1083.45C633.146 1089.66 690.164 1052.83 707.011 999.595C711.762 984.51 713.49 968.982 720.833 955.229C729.472 938.813 745.022 927.278 761.437 919.292C792.969 904.208 828.39 901.102 862.946 903.32C900.958 905.539 943.289 916.186 963.591 949.461C974.39 966.764 977.414 988.059 977.414 1008.47C977.414 1050.17 965.319 1090.99 948.473 1129.14C927.739 1175.73 898.366 1224.97 910.892 1274.66C919.531 1309.27 947.609 1336.33 980.005 1349.2C1012.4 1362.06 1048.25 1363.4 1082.38 1359.4C1096.63 1357.63 1110.89 1355.41 1123.41 1347.87C1144.15 1335.89 1156.24 1312.37 1161.86 1288.86C1173.09 1244.94 1166.61 1198.35 1157.54 1153.54C1148.47 1108.73 1137.67 1063.92 1139.83 1018.67C1141.99 973.418 1159.7 925.947 1197.28 901.102C1214.99 889.567 1235.29 883.799 1254.3 874.482C1326.43 838.102 1362.28 740.941 1332.48 664.631C1322.11 638.899 1306.13 616.272 1294.47 590.984C1269.85 536.857 1268.55 475.632 1259.48 416.626C1256.02 393.555 1249.11 368.267 1230.11 355.4C1218.01 347.415 1202.89 346.527 1188.64 345.64C1147.17 343.422 1100.52 344.309 1072.44 375.365C1036.16 415.294 1018.88 471.196 993.828 523.104C971.798 568.801 920.395 576.343 878.496 548.836C821.91 512.456 821.91 469.864 820.182 419.731C819.318 398.879 809.815 353.626 765.324 335.879H764.028Z" fill="#FFD58C" stroke="black" stroke-width="20" stroke-miterlimit="10"/>
<path d="M983.461 696.131C957.111 709.884 960.135 748.039 972.23 771.996C974.39 775.989 976.549 779.539 979.573 782.201C983.461 785.75 988.644 787.525 993.828 788.856C1012.4 793.292 1033.14 788.856 1046.96 773.771C1060.78 758.687 1065.1 733.842 1054.73 716.096C1048.69 705.004 1037.89 697.905 1026.66 694.356C1015.43 690.807 999.875 687.258 983.461 696.131Z" fill="white" stroke="#140202" stroke-width="20" stroke-miterlimit="10"/>
<path d="M1021.75 744.779C1021.99 739.148 1018.12 734.405 1013.12 734.184C1008.11 733.963 1003.86 738.348 1003.63 743.979C1003.39 749.609 1007.26 754.352 1012.26 754.573C1017.27 754.794 1021.52 750.409 1021.75 744.779Z" fill="black"/>
</svg>
