<svg width="1760" height="1760" viewBox="0 0 1760 1760" fill="none" xmlns="http://www.w3.org/2000/svg">
<g clip-path="url(#clip0_10_847)">
<path d="M1760 0H0V1760H1760V0Z" fill="white"/>
<path d="M854.804 429.893C780.552 494.587 698.634 562.157 600.429 568.866C573.603 570.783 541.506 569.345 525.218 590.91C506.536 614.871 520.428 649.375 532.405 677.648C563.543 752.406 569.77 848.728 512.763 906.234C471.565 947.926 405.936 960.386 370.486 1006.39C329.767 1058.63 342.222 1133.38 357.551 1198.08C368.57 1245.04 383.899 1296.8 425.576 1321.24C450.008 1336.09 480.188 1338.01 508.931 1339.93C621.507 1346.16 734.563 1346.16 847.139 1339.93C884.026 1338.01 920.434 1335.13 956.362 1326.51C998.998 1315.97 1046.42 1288.65 1047.86 1244.56C1048.82 1214.85 1028.22 1189.45 1015.29 1162.14C990.375 1108.94 999.477 1038.5 1044.03 1000.16C1088.58 961.823 1167.14 967.095 1199.24 1016.46C1219.36 1047.6 1219.84 1088.34 1240.44 1119.01C1272.54 1167.41 1353.02 1170.76 1389.42 1125.72C1407.63 1102.71 1413.85 1073 1416.25 1043.77C1421.04 977.638 1407.63 911.985 1408.11 845.853C1409.06 764.866 1431.58 683.398 1414.81 604.328C1411.94 591.389 1408.11 578.451 1399.96 568.866C1387.03 553.531 1365.95 548.26 1346.31 543.468C1221.28 510.881 1187.74 485.003 1061.27 398.744C1014.33 366.637 898.56 391.909 847.781 435.997L854.804 429.893Z" fill="#FCFFA6" stroke="black" stroke-width="20" stroke-miterlimit="10"/>
<path d="M839.955 880.359C813.608 848.252 821.751 798.413 850.015 759.118C856.722 749.533 864.866 740.428 874.926 733.239C894.088 719.821 918.998 715.029 941.513 715.509C981.274 716.946 1016.72 735.636 1033.97 764.389C1035.89 767.264 1037.32 771.098 1035.89 774.452C1034.93 776.848 1032.05 778.766 1029.66 780.203C984.149 812.79 936.244 843.459 887.381 871.733C872.051 880.359 849.057 891.86 839.476 879.879L839.955 880.359Z" fill="white" stroke="black" stroke-width="20" stroke-miterlimit="10"/>
<path d="M940.844 832.217C952.186 827.118 958.304 816.135 954.508 807.686C950.712 799.236 938.44 796.521 927.098 801.62C915.756 806.719 909.638 817.702 913.434 826.151C917.23 834.6 929.502 837.316 940.844 832.217Z" fill="black"/>
</g>
<defs>
<clipPath id="clip0_10_847">
<rect width="1760" height="1760" fill="white"/>
</clipPath>
</defs>
</svg>
