<svg width="1760" height="1760" viewBox="0 0 1760 1760" fill="none" xmlns="http://www.w3.org/2000/svg">
<rect width="1760" height="1760" fill="white"/>
<path d="M775.131 381.138C728.239 353.855 669.385 377.788 621.058 401.721C598.09 413.208 574.644 424.696 551.677 436.184C542.107 440.971 532.058 445.757 525.838 454.852C512.44 473.998 522.01 499.845 532.058 520.906C548.327 556.326 563.16 592.705 567.467 631.476C571.773 670.247 565.553 711.411 542.585 742.524C521.053 771.722 486.602 791.826 476.553 826.767C467.941 858.837 483.252 891.386 490.908 923.456C503.349 975.63 494.736 1030.2 489.473 1083.33C478.468 1190.07 480.382 1298.24 494.736 1404.51C496.172 1415.52 498.564 1427.96 507.177 1435.14C513.397 1440.41 522.01 1442.32 530.145 1443.28C585.171 1450.46 649.767 1436.58 677.519 1388.23C712.927 1325.53 668.428 1242.24 695.702 1175.23C711.97 1135.5 752.164 1109.18 793.792 1100.56C815.324 1096.25 838.771 1095.77 857.432 1107.26C869.872 1114.92 878.963 1126.89 888.533 1137.89C973.226 1235.54 1125.39 1266.65 1242.14 1210.65C1285.68 1189.59 1327.79 1149.86 1323.48 1102C1319.17 1051.26 1265.1 1014.4 1263.19 963.663C1262.23 932.072 1281.85 903.832 1297.64 876.548C1334.96 811.93 1355.54 738.216 1356.98 664.024C1357.45 628.125 1351.23 587.439 1321.57 566.857C1291.9 546.275 1226.35 541.488 1104.81 517.556C1083.76 513.248 1079.45 551.54 1066.05 568.293C1046.44 593.183 1014.85 604.192 983.753 610.893C950.737 618.073 913.893 619.509 886.141 600.363C852.168 575.951 845.469 529.522 840.684 487.879C835.899 446.236 820.587 408.422 774.652 381.617L775.131 381.138Z" fill="#DEB0FF" stroke="black" stroke-width="20" stroke-miterlimit="10"/>
<path d="M1040.69 749.703C1035.43 749.703 1030.64 753.533 1030.64 758.32C1030.64 772.679 1030.64 799.963 1036.87 815.28C1044.52 836.341 1061.75 855.487 1085.19 862.188C1093.33 864.581 1102.42 865.06 1111.03 865.06C1126.82 865.06 1143.57 861.709 1156.01 853.094C1167.97 844.956 1175.63 832.033 1179.93 819.109C1183.28 808.579 1185.68 772.201 1186.15 759.277C1186.15 756.405 1183.76 754.49 1180.89 754.49L1040.69 750.183V749.703Z" fill="white" stroke="black" stroke-width="20" stroke-miterlimit="10"/>
<path d="M1152.66 800.442C1166.4 800.442 1177.54 789.727 1177.54 776.509C1177.54 763.291 1166.4 752.576 1152.66 752.576C1138.92 752.576 1127.78 763.291 1127.78 776.509C1127.78 789.727 1138.92 800.442 1152.66 800.442Z" fill="black"/>
</svg>
