<svg width="1760" height="1760" viewBox="0 0 1760 1760" fill="none" xmlns="http://www.w3.org/2000/svg">
<rect width="1760" height="1760" fill="white"/>
<path d="M696.384 465.723C639.04 463.055 581.696 470.614 527.02 488.401C519.018 491.069 511.017 493.737 504.793 499.518C488.346 514.637 492.791 541.318 496.347 563.552C505.682 622.695 499.459 684.505 477.677 740.091C459.007 789.005 427.89 836.141 430.113 888.614C431.446 926.856 450.562 961.541 462.564 997.56C497.681 1102.5 475.01 1217.23 488.791 1326.62C491.013 1344.86 495.014 1363.53 506.571 1378.21C523.463 1399.11 552.802 1405.33 579.473 1409.78C608.367 1414.67 636.817 1419.56 665.711 1424.45C697.273 1429.79 730.168 1435.13 761.729 1427.57C817.295 1414.23 858.635 1356.86 853.301 1299.94C849.745 1260.81 827.519 1223.46 834.187 1184.77C842.188 1139.86 889.307 1110.51 935.093 1108.29C980.879 1106.06 1024 1125.63 1064.45 1146.97C1103.57 1167.87 1145.8 1191.44 1189.36 1184.77C1224.92 1178.99 1254.71 1153.2 1272.04 1122.07C1289.38 1090.94 1294.71 1054.03 1295.6 1018.46C1296.49 975.771 1292.94 928.635 1320.05 896.173C1330.28 884.167 1343.61 875.273 1354.73 864.156C1396.51 821.911 1391.18 742.759 1344.06 706.74C1322.28 689.842 1294.71 682.282 1272.93 664.939C1223.59 625.363 1222.26 552.88 1222.26 489.735C1222.26 467.501 1220.92 442.599 1204.92 427.035C1193.36 415.918 1177.36 412.361 1161.8 409.248C1129.8 403.467 1097.79 399.91 1065.34 398.576C1024 396.797 988.437 393.684 996.883 482.62C1001.33 531.98 1038.67 618.693 1004.44 691.175C957.764 789.894 811.071 780.112 789.734 604.018C779.51 519.974 773.731 470.614 696.384 466.612V465.723Z" fill="#B0FCA4" stroke="black" stroke-width="20" stroke-miterlimit="10"/>
<path d="M1169.8 857.041C1116.01 842.367 1041.33 899.731 1004.44 949.09C998.66 957.095 993.326 965.098 990.659 973.103C987.103 983.33 987.992 992.669 990.659 1000.67C999.549 1030.91 1029.33 1050.92 1072.45 1047.36C1115.57 1043.81 1171.58 1014.46 1198.25 976.66C1214.7 953.537 1219.15 929.525 1215.14 910.403C1211.14 891.282 1204.03 866.379 1169.8 857.041Z" fill="white" stroke="#140202" stroke-width="20" stroke-miterlimit="10"/>
<path d="M1107.39 975.738C1119.14 968.134 1125.09 956.454 1120.69 949.649C1116.29 942.844 1103.2 943.492 1091.45 951.096C1079.7 958.7 1073.74 970.38 1078.14 977.185C1082.54 983.989 1095.64 983.342 1107.39 975.738Z" fill="black"/>
</svg>
