<svg width="1760" height="1760" viewBox="0 0 1760 1760" fill="none" xmlns="http://www.w3.org/2000/svg">
<rect width="1760" height="1760" fill="white"/>
<path d="M800.716 600.242C781.864 573.928 785.371 538.405 785.371 506.389C785.371 474.374 776.165 436.22 746.354 423.94C736.709 419.993 726.187 419.555 716.103 419.116C653.411 416.923 590.279 418.239 527.587 423.94C521.449 424.379 515.312 425.256 510.489 429.203C504.79 434.027 503.913 442.798 503.475 450.254C499.967 518.669 499.09 594.54 544.246 645.414C563.975 667.78 590.718 682.692 613.953 701.55C637.189 720.409 658.233 746.284 658.672 776.106C659.11 822.593 613.076 853.731 590.718 894.518C552.138 965.126 587.211 1062.49 540.301 1127.83C528.464 1144.06 511.365 1160.29 513.996 1180.02C515.311 1192.74 524.957 1203.27 531.095 1214.23C545.124 1239.67 542.054 1271.68 553.452 1298.43C571.866 1342.29 621.407 1362.9 666.563 1376.5C705.581 1387.9 745.037 1397.99 784.933 1405.44C812.114 1410.71 839.735 1415.09 866.916 1410.27C894.098 1405.44 920.401 1390.09 931.8 1365.09C943.199 1340.1 937.938 1311.59 937.499 1283.96C936.623 1241.86 951.091 1194.93 988.794 1176.51C1022.55 1159.85 1062.88 1171.69 1100.15 1177.83C1129.96 1182.65 1160.65 1183.53 1190.9 1180.9C1218.52 1178.27 1247.02 1171.69 1268.94 1154.58C1300.06 1130.46 1312.78 1089.68 1323.74 1051.96C1332.51 1022.14 1339.96 987.054 1321.98 962.056C1309.27 944.513 1287.35 936.62 1268.5 926.094C1210.19 894.518 1172.49 830.926 1166.35 764.703C1160.21 698.48 1183.89 631.818 1225.1 579.629C1238.69 562.525 1254.47 546.299 1266.31 527.879C1289.54 491.04 1296.56 444.114 1284.72 402.012C1282.53 394.995 1279.9 387.978 1274.64 382.715C1268.5 377.014 1260.17 374.821 1252.28 373.067C1189.15 359.91 1121.63 368.243 1063.76 397.188C1052.8 402.451 1041.84 409.029 1034.83 418.677C1027.81 428.325 1025.18 440.167 1023.87 452.008C1018.61 497.619 1028.69 545.86 1011.15 588.839C994.931 628.749 955.036 657.694 912.072 659.886C869.108 662.079 827.021 637.082 800.716 600.681V600.242Z" fill="#B7ABFF" stroke="black" stroke-width="20" stroke-miterlimit="10"/>
<path d="M947.144 826.54C894.097 812.067 820.444 868.642 784.056 917.323C778.357 925.217 773.096 933.111 770.465 941.005C766.958 951.092 767.835 960.301 770.465 968.196C779.233 998.018 808.607 1017.75 851.132 1014.24C893.658 1010.74 948.898 981.791 975.203 944.513C991.424 921.708 995.807 898.026 991.861 879.167C987.916 860.309 980.902 835.75 947.144 826.54Z" fill="white" stroke="#140202" stroke-width="20" stroke-miterlimit="10"/>
<path d="M885.483 943.819C897.071 936.32 902.947 924.8 898.607 918.089C894.267 911.378 881.354 912.017 869.766 919.516C858.179 927.015 852.303 938.535 856.643 945.246C860.983 951.957 873.895 951.318 885.483 943.819Z" fill="black"/>
</svg>
