<svg width="1760" height="1760" viewBox="0 0 1760 1760" fill="none" xmlns="http://www.w3.org/2000/svg">
<rect width="1760" height="1760" fill="white"/>
<path d="M790.339 702.008C787.347 652.928 795.126 629.884 795.126 556.264C795.126 532.024 792.433 505.089 774.783 488.33C742.772 457.506 683.836 481.747 648.834 454.514C638.663 446.433 631.483 435.061 620.713 427.879C599.173 413.813 570.753 421.294 546.221 429.375C537.845 432.068 529.469 435.061 523.186 440.747C512.416 450.922 510.92 467.382 510.92 482.345C510.92 514.666 516.305 546.688 525.879 577.513C530.067 590.68 535.152 604.147 535.751 617.913C538.742 665.198 495.064 700.212 469.336 740.314C429.548 802.263 438.224 895.335 497.757 938.429C523.186 956.984 558.786 969.553 565.667 1000.38C573.146 1033.3 541.136 1063.52 541.734 1097.34C542.632 1138.64 588.702 1162.58 629.089 1170.96C669.476 1179.34 715.847 1184.13 740.678 1217.05C778.372 1267.62 737.686 1348.73 775.081 1399.6C801.707 1436.11 854.06 1438.51 899.234 1437.61C918.679 1437.31 939.023 1436.71 956.075 1427.43C979.41 1414.86 992.274 1389.13 1002.15 1364.59C1020.1 1320 1033.86 1273.61 1042.83 1226.32C1049.71 1190.11 1057.49 1147.62 1090.4 1130.86C1126.9 1112.3 1170.28 1137.14 1211.26 1136.25C1252.25 1135.35 1289.64 1106.32 1307.59 1069.51C1325.54 1032.7 1326.74 989.005 1318.66 948.903C1311.78 915.086 1298.32 882.766 1293.53 848.649C1283.66 775.927 1313.28 704.402 1344.99 638.264C1353.96 619.709 1363.24 600.257 1362.94 579.607C1362.64 539.206 1323.45 505.987 1283.06 503.294C1251.65 501.199 1218.14 513.17 1189.12 500.601C1173.57 493.717 1160.7 480.25 1143.65 478.155C1119.72 475.462 1100.87 496.112 1080.53 508.681C1050.01 527.535 1010.22 529.929 983 553.571C954.579 578.41 948.297 619.111 940.818 655.921C933.339 692.73 917.483 725.351 883.08 740.314C845.086 756.774 791.834 734.329 790.039 702.307L790.339 702.008Z" fill="#E6E1E1" stroke="black" stroke-width="20" stroke-miterlimit="10"/>
<path d="M809.484 1071C849.572 1100.63 918.38 1072.2 950.391 1031.5C955.477 1024.92 959.964 1017.74 962.357 1009.95C965.349 999.779 964.751 989.305 962.657 979.429C955.477 942.619 930.347 909.101 893.55 896.232C856.753 883.364 809.185 895.335 786.449 927.357C772.388 947.108 768.499 971.648 771.491 994.692C774.782 1017.44 776.277 1046.46 809.484 1071Z" fill="white" stroke="#140202" stroke-width="20" stroke-miterlimit="10"/>
<path d="M868.884 1004.1C878.86 1000.13 883.972 989.433 880.301 980.221C876.631 971.009 865.569 966.765 855.592 970.743C845.616 974.72 840.504 985.412 844.174 994.624C847.845 1003.84 858.907 1008.08 868.884 1004.1Z" fill="black"/>
</svg>
