<svg width="1760" height="1760" viewBox="0 0 1760 1760" fill="none" xmlns="http://www.w3.org/2000/svg">
<rect width="1760" height="1760" fill="white"/>
<path d="M1036.54 440.823C982.981 443.113 914.772 438.991 874.03 415.636C797.582 371.675 801.703 442.197 811.774 474.252C831.458 534.699 844.275 576.371 844.275 652.388C844.275 744.89 771.031 827.776 679.476 836.019C609.437 841.972 531.616 799.385 475.768 849.299C450.133 872.196 442.35 919.363 433.652 952.792C419.919 1004.54 406.186 1056.74 392.453 1108.49C385.129 1136.42 379.634 1171.23 401.608 1190.46C409.39 1197.33 419.92 1200.53 429.991 1203.28C474.852 1213.81 522.003 1207.86 568.238 1208.78C614.473 1209.69 664.37 1219.77 695.499 1254.11C728.458 1290.29 733.036 1345.7 765.538 1382.79C786.596 1407.06 817.724 1420.8 849.31 1426.75C913.856 1438.66 990.305 1411.18 1012.28 1349.36C1020.06 1327.38 1020.06 1304.03 1021.89 1281.13C1025.55 1234.42 1037.46 1187.71 1062.18 1147.87C1086.9 1108.03 1125.81 1075.98 1171.58 1065.44C1220.56 1054 1280.99 1080.56 1321.73 1050.79C1378.5 1009.58 1406.88 955.54 1380.33 896.467C1360.64 852.505 1325.85 818.618 1304.8 775.572C1287.4 740.769 1286.94 700.013 1288.32 661.089C1289.69 600.642 1293.81 540.652 1300.22 480.205C1303.42 450.898 1305.25 417.468 1284.19 396.861C1269.55 383.123 1247.57 379.918 1227.43 381.291C1159.68 386.787 1133.59 437.159 1037.46 441.281L1036.54 440.823Z" fill="#FF3B83" stroke="black" stroke-width="20" stroke-miterlimit="10"/>
<path d="M975.639 806.457C992.054 809.199 1016.02 836.614 1021.94 864.942C1031.06 908.806 1009.18 959.981 969.964 986.025C930.751 1012.07 876.491 1011.16 841.382 984.197C839.558 982.827 837.279 980.998 836.367 978.714C835.455 975.515 836.367 971.86 837.735 968.662C866.916 896.012 951.474 802.345 975.639 806.457Z" fill="#FAFCFF" stroke="black" stroke-width="20" stroke-miterlimit="10"/>
<path d="M957.345 938.139C964.93 938.139 971.078 931.988 971.078 924.4C971.078 916.813 964.93 910.662 957.345 910.662C949.76 910.662 943.612 916.813 943.612 924.4C943.612 931.988 949.76 938.139 957.345 938.139Z" fill="black" stroke="#140202" stroke-width="20" stroke-miterlimit="10"/>
</svg>
