<svg width="1760" height="1760" viewBox="0 0 1760 1760" fill="none" xmlns="http://www.w3.org/2000/svg">
<rect width="1760" height="1760" fill="white"/>
<path d="M744.724 719.258C734.522 697.996 737.498 672.056 725.596 651.645C713.693 631.233 692.863 614.223 669.057 615.074C621.447 616.35 598.067 680.986 551.307 689.491C522.826 695.019 490.944 677.584 465.439 692.043C451.411 699.697 443.758 715.006 436.957 729.464C425.054 754.553 412.726 779.217 400.824 804.306C398.273 809.835 395.298 815.788 396.148 822.166C396.998 830.246 403.8 836.2 409.326 841.728C435.257 868.943 445.459 908.066 446.734 945.487C448.01 982.908 441.207 1020.33 437.807 1058.18C431.43 1124.94 436.956 1196.38 473.514 1252.51C510.072 1308.64 585.74 1343.51 647.379 1316.72C690.313 1298.01 718.368 1253.79 727.295 1207.44C734.522 1171.29 733.672 1128.34 762.579 1104.95C791.06 1082.41 834.845 1092.2 862.476 1115.58C890.107 1138.97 907.11 1172.57 927.09 1202.76C947.069 1232.95 974.275 1262.29 1009.56 1269.1C1041.01 1275.05 1072.9 1261.87 1098.83 1243.16C1113.71 1232.53 1127.31 1219.77 1135.39 1203.61C1159.62 1155.13 1130.28 1087.94 1165.99 1047.54C1183.42 1027.98 1211.05 1022.03 1237.41 1021.18C1263.76 1020.33 1289.69 1023.73 1315.2 1019.05C1384.49 1005.87 1431.25 931.879 1429.97 861.289C1428.7 790.698 1389.17 725.212 1339.85 675.033C1302.02 636.761 1254.84 599.765 1247.18 546.185C1245.06 532.577 1245.91 518.544 1239.53 506.637C1226.36 481.973 1190.65 479.422 1164.72 489.628C1132.41 502.385 1106.05 530.026 1095 562.769C1083.1 597.639 1066.52 626.981 1050.37 660.575C1019.76 723.511 903.709 765.184 851.423 760.932C811.464 757.53 760.878 757.105 743.449 720.109L744.724 719.258Z" fill="#2667FF" stroke="#140202" stroke-width="20" stroke-miterlimit="10"/>
<path d="M839.521 874.472C824.642 878.724 808.064 883.401 797.011 890.205C784.684 897.434 783.833 904.664 783.833 910.192C783.833 934.856 790.21 957.393 802.538 978.23C805.088 982.908 808.489 987.16 817.416 988.861C836.971 992.688 875.653 982.057 909.235 971.852C961.522 956.118 1026.99 933.58 1043.57 911.042C1049.52 902.963 1047.39 897.009 1045.27 891.056C1038.46 874.471 1028.26 859.162 1014.66 845.555C1010.83 841.302 1005.73 837.475 994.68 837.05C983.627 836.625 879.905 862.99 839.521 874.472Z" fill="white" stroke="black" stroke-width="20" stroke-miterlimit="10"/>
<path d="M949.554 944.121C950.053 934.269 942.664 925.889 933.05 925.402C923.437 924.915 915.24 932.505 914.741 942.357C914.242 952.208 921.63 960.589 931.244 961.077C940.857 961.564 949.055 953.972 949.554 944.121Z" fill="black"/>
</svg>
