<svg width="1760" height="1760" viewBox="0 0 1760 1760" fill="none" xmlns="http://www.w3.org/2000/svg">
<g clip-path="url(#clip0_10_170)">
<path d="M1760 0H0V1760H1760V0Z" fill="white"/>
<path d="M692.178 368.202C634.629 407.655 606.036 473.53 549.573 514.068C539.439 521.307 528.942 528.546 522.065 538.681C511.931 553.521 510.845 572.704 508.674 590.802C505.054 621.206 497.816 651.972 480.804 677.67C460.536 708.436 425.427 736.306 430.494 772.863C435.561 808.696 477.546 826.432 513.74 826.432C549.934 826.432 586.128 815.573 621.237 822.812C682.043 835.48 720.047 901.356 720.771 963.249C721.132 994.015 710.998 1029.49 682.405 1041.07C657.069 1051.57 628.476 1038.9 601.33 1040.34C568.032 1042.52 537.629 1068.21 530.39 1100.79C523.513 1131.92 536.181 1163.41 538.353 1195.26C540.887 1231.45 530.028 1268.01 536.905 1303.84C544.144 1341.85 573.099 1375.15 610.017 1387.82C646.935 1400.49 690.006 1391.44 718.961 1365.38C745.745 1341.49 759.136 1306.38 773.976 1273.8C781.577 1257.52 789.902 1240.87 804.018 1229.28C818.133 1217.7 838.402 1212.27 854.327 1220.96C868.443 1228.56 875.682 1245.21 878.94 1261.13C886.179 1297.69 879.663 1338.59 899.57 1370.08C914.047 1392.88 940.108 1405.91 966.891 1408.45C993.675 1410.98 1020.46 1403.74 1044.71 1392.52C1098.64 1367.19 1144.6 1312.89 1138.45 1253.53C1135.56 1224.94 1121.08 1198.88 1106.96 1173.9C1092.85 1148.93 1078.37 1122.87 1075.11 1094.64C1071.85 1066.41 1082.35 1033.83 1108.05 1020.44C1140.26 1003.43 1179.35 1022.61 1215.91 1022.97C1255 1023.33 1293 1000.17 1312.91 966.145C1332.81 932.121 1334.99 889.411 1321.23 852.492C1307.12 813.763 1272.01 788.065 1253.55 750.784C1235.81 714.951 1216.63 684.909 1222.06 645.456C1223.87 633.512 1234.37 613.605 1227.49 597.317C1217.35 573.79 1200.34 577.772 1160.53 562.57C1085.25 533.976 1109.86 389.195 988.608 473.892C960.015 494.161 944.088 529.27 940.107 564.017C936.849 592.25 930.696 623.739 918.752 655.229C887.625 735.944 812.342 765.262 737.058 710.246C617.256 622.653 746.107 552.073 789.178 450.003C798.588 427.562 789.902 391.729 771.443 375.441C752.984 359.153 725.114 345.399 692.901 367.478L692.178 368.202Z" fill="#424242" stroke="black" stroke-width="20" stroke-miterlimit="10"/>
<path d="M948.793 798.201C858.67 825.709 835.143 958.183 871.338 1005.96C931.782 1085.23 1016.11 944.067 1028.78 884.707C1045.79 805.802 985.711 786.98 948.793 798.201Z" fill="white" stroke="black" stroke-width="20" stroke-miterlimit="10"/>
<path d="M954.012 928.14C960.21 916.267 959.633 903.717 952.723 900.109C945.812 896.501 935.185 903.201 928.986 915.073C922.787 926.945 923.365 939.494 930.275 943.103C937.186 946.711 947.813 940.012 954.012 928.14Z" fill="black"/>
</g>
<defs>
<clipPath id="clip0_10_170">
<rect width="1760" height="1760" fill="white"/>
</clipPath>
</defs>
</svg>
