<svg width="1760" height="1760" viewBox="0 0 1760 1760" fill="none" xmlns="http://www.w3.org/2000/svg">
<rect width="1760" height="1760" fill="white"/>
<path d="M1293.65 704.616C1290.82 667.413 1297.41 635.39 1312.48 601.012C1327.54 566.634 1347.79 534.139 1358.14 498.348C1365.21 472.918 1366.15 443.25 1350.14 422.058C1335.55 403.221 1311.07 396.156 1288.47 390.034C1263.52 383.441 1238.57 376.377 1214.09 369.784C1190.08 363.191 1165.13 356.599 1141.12 361.308C1121.82 365.075 1104.87 375.436 1086.51 382.5C1055.44 394.744 1020.6 397.098 988.592 389.563C961.758 383.441 937.279 370.726 910.916 362.249C884.553 353.773 855.365 350.947 830.885 363.662C785.22 387.209 780.042 450.314 746.617 488.93C722.137 517.186 681.652 533.197 669.412 568.517C655.289 608.546 684.006 649.517 695.304 690.017C702.365 715.448 702.365 742.291 699.541 768.192C692.95 827.058 665.176 890.634 609.626 911.355C557.371 930.663 490.992 908.529 448.623 944.791C418.023 971.163 415.198 1016.37 414.256 1056.87C412.373 1136.93 410.491 1216.99 409.079 1297.05C408.608 1326.24 409.549 1359.68 432.146 1378.05C447.21 1390.29 467.453 1392.17 486.284 1394.06C538.068 1398.3 589.853 1403.01 641.166 1407.24C697.187 1411.95 764.036 1412.42 796.99 1366.74C829.002 1322.48 810.642 1261.73 810.642 1207.1C810.642 1171.31 819.116 1135.99 835.593 1104.44C853.953 1069.12 883.611 1038.03 921.273 1024.38C958.934 1010.72 1005.07 1018.73 1031.9 1048.87C1067.21 1088.9 1062.03 1155.77 1102.52 1190.15C1143.94 1225.94 1206.56 1206.63 1261.17 1202.86C1275.76 1201.92 1291.29 1201.92 1303.53 1193.91C1323.31 1181.67 1328.01 1155.77 1330.37 1132.69C1338.84 1038.03 1331.78 941.965 1310.12 849.663C1300.71 810.105 1299.77 778.081 1293.65 705.087V704.616Z" fill="#DAD4FF" stroke="black" stroke-width="20" stroke-miterlimit="10"/>
<path d="M1062.97 822.349C1078.51 821.407 1095.45 819.994 1107.22 813.872C1120.41 806.808 1122.29 796.447 1122.76 787.5C1125.11 748.883 1121.35 710.738 1110.99 674.006C1108.64 666 1105.81 657.523 1096.87 651.401C1077.57 637.744 1037.55 639.627 1003.18 642.453C949.047 646.691 881.256 657.052 861.955 686.25C855.364 696.61 856.306 706.97 858.189 716.86C863.368 745.116 871.841 773.372 884.081 800.215C887.847 808.221 892.084 816.697 903.383 821.407C914.681 826.116 1021.07 824.703 1062.97 822.349Z" fill="white" stroke="black" stroke-width="20" stroke-miterlimit="10"/>
<path d="M1005.44 762.352C1016.26 760.872 1023.23 746.51 1021.01 730.276C1018.79 714.042 1008.22 702.082 997.401 703.563C986.582 705.043 979.612 719.404 981.832 735.638C984.052 751.872 994.622 763.833 1005.44 762.352Z" fill="black"/>
</svg>
