<svg width="1760" height="1760" viewBox="0 0 1760 1760" fill="none" xmlns="http://www.w3.org/2000/svg">
<g clip-path="url(#clip0_10_853)">
<path d="M1760 0H0V1760H1760V0Z" fill="white"/>
<path d="M761.635 448.798C733.54 448.798 707.004 456.084 687.753 476.903C668.502 497.722 650.293 522.705 623.237 528.431C592.54 535.197 515.016 499.805 486.4 543.004C468.19 570.589 494.205 610.145 495.246 629.403C507.212 840.195 461.427 1051.51 479.117 1261.78C481.718 1291.45 486.4 1323.2 506.171 1345.58C527.503 1369.52 561.323 1376.8 593.061 1380.97C652.895 1388.78 713.769 1389.3 773.603 1381.49C793.894 1378.89 814.706 1375.24 830.315 1363.27C864.134 1337.25 862.573 1286.76 857.89 1244.6C853.207 1202.45 851.126 1151.96 884.945 1125.94C904.716 1110.84 933.332 1109.28 954.664 1121.77C965.59 1128.02 973.915 1137.91 984.321 1144.67C1005.13 1159.25 1032.19 1162.37 1057.68 1162.89C1090.98 1163.41 1126.36 1159.25 1151.33 1136.87C1195.56 1097.83 1183.59 1026.52 1202.84 970.834C1216.37 931.799 1245.51 900.57 1262.16 862.575C1278.81 825.622 1282.45 784.504 1283.49 743.907C1285.57 674.684 1280.89 605.982 1276.73 536.758C1274.64 507.091 1272.56 476.904 1262.16 449.839C1251.75 422.775 1230.42 397.271 1202.32 388.944C1176.31 381.137 1147.69 388.944 1121.16 384.78C1107.63 382.698 1094.62 378.014 1081.09 376.452C1041.55 372.288 1006.69 397.792 971.313 415.488C909.399 446.716 862.694 448.798 768 448.798H761.635Z" fill="#FCFFA6" stroke="black" stroke-width="20" stroke-miterlimit="10"/>
<path d="M881.303 854.768C879.742 875.587 878.701 899.008 884.424 916.183C890.668 934.92 902.115 939.605 912.52 942.207C956.745 952.616 1002.01 954.699 1046.24 947.412C1056.12 945.851 1066.01 943.769 1074.85 932.839C1093.58 908.897 1097.75 854.767 1099.83 807.404C1103.47 732.976 1101.91 639.291 1071.21 608.062C1060.28 597.132 1048.32 596.612 1036.35 597.133C1002.53 598.694 968.712 605.46 935.413 616.91C925.528 620.554 915.122 624.718 907.317 639.291C899.513 653.864 884.946 798.556 880.783 855.288L881.303 854.768Z" fill="white" stroke="black" stroke-width="20" stroke-miterlimit="10"/>
<path d="M920.848 815.733C938.663 815.733 953.106 797.091 953.106 774.095C953.106 751.099 938.663 732.457 920.848 732.457C903.032 732.457 888.59 751.099 888.59 774.095C888.59 797.091 903.032 815.733 920.848 815.733Z" fill="black"/>
</g>
<defs>
<clipPath id="clip0_10_853">
<rect width="1760" height="1760" fill="white"/>
</clipPath>
</defs>
</svg>
