<svg width="1760" height="1760" viewBox="0 0 1760 1760" fill="none" xmlns="http://www.w3.org/2000/svg">
<rect width="1760" height="1760" fill="white"/>
<path d="M622.852 434.475C579.189 427.018 532.332 436.606 495.06 460.576C484.943 467.5 474.826 474.957 467.372 485.077C443.943 517.037 450.333 564.976 422.645 593.206C408.268 608.121 386.437 613.98 372.592 629.427C346.501 658.191 357.151 702.933 364.606 740.752C384.84 843.554 369.929 950.085 381.644 1054.49C384.306 1077.92 388.566 1101.36 400.28 1122.13C411.995 1142.91 431.696 1159.42 455.124 1162.08C488.67 1165.81 518.489 1140.24 550.97 1132.25C601.022 1119.47 657.462 1154.62 669.176 1204.69C673.436 1222.27 672.371 1240.38 674.501 1258.49C684.618 1336.79 765.554 1396.98 844.359 1389.52C923.164 1382.07 989.723 1312.82 999.307 1233.99C1005.16 1186.58 994.515 1133.32 1023.8 1095.5C1035.51 1080.59 1052.55 1069.93 1070.66 1063.54C1118.58 1045.96 1171.83 1053.42 1222.94 1053.42C1274.06 1053.42 1331.04 1043.83 1361.92 1002.82C1379.49 979.914 1385.88 950.085 1385.88 921.322C1385.88 896.287 1381.62 871.785 1373.1 848.348C1366.71 830.238 1357.66 813.193 1352.33 794.55C1341.69 758.862 1345.41 720.511 1348.61 683.757C1351.8 647.537 1355.53 611.317 1358.72 574.564C1360.85 550.594 1362.98 525.027 1352.87 502.655C1336.89 467.5 1295.36 452.585 1258.62 442.465C1241.58 437.671 1224.01 433.41 1206.97 438.737C1187.27 445.129 1177.15 466.967 1159.58 478.686C1040.84 561.247 892.282 534.082 779.931 495.73C728.814 478.153 682.489 445.128 623.918 435.008L622.852 434.475Z" fill="#E6E1E1" stroke="black" stroke-width="20" stroke-miterlimit="10"/>
<path d="M785.788 808.4C862.996 668.844 957.776 773.777 961.503 896.287C967.361 1100.29 826.789 1100.29 783.126 1057.68C725.087 1001.22 754.373 865.394 786.321 808.4H785.788Z" fill="white" stroke="#140202" stroke-width="20" stroke-miterlimit="10"/>
<path d="M892.032 768.31C894.575 751.141 887.44 735.859 876.095 734.178C864.75 732.496 853.491 745.05 850.948 762.219C848.404 779.388 855.539 794.669 866.884 796.351C878.229 798.033 889.488 785.479 892.032 768.31Z" fill="black"/>
</svg>
