<svg width="1760" height="1760" viewBox="0 0 1760 1760" fill="none" xmlns="http://www.w3.org/2000/svg">
<rect width="1760" height="1760" fill="white"/>
<path d="M937.824 372.614C882.04 370.784 832.201 341.053 777.332 330.533C722.463 320.013 655.706 331.906 628.729 380.847C619.584 397.771 615.927 417.896 604.953 433.905C590.322 454.945 564.258 465.923 548.712 486.506C534.995 505.26 531.337 529.502 528.594 552.372C518.992 627.843 509.391 706.058 531.338 779.242C539.111 804.856 551 829.556 554.2 856.542C558.773 891.304 549.627 926.066 550.084 961.286C550.541 990.102 558.772 1019.38 576.147 1042.7C593.522 1066.03 621.413 1081.58 650.22 1081.58C671.71 1081.58 692.744 1072.89 714.234 1075.64C748.07 1079.75 772.303 1112.23 780.533 1145.16C788.763 1178.09 784.649 1212.86 784.192 1247.16C783.735 1281.47 788.764 1317.6 810.711 1343.67C844.089 1383.47 903.988 1385.3 955.657 1380.26C999.094 1376.15 1047.1 1366.54 1072.71 1330.86C1091.46 1304.79 1093.28 1269.12 1085.97 1237.56C1078.65 1206 1063.56 1177.18 1050.3 1147.45C1034.76 1111.77 1021.96 1074.72 1012.81 1037.21C1009.61 1023.95 1006.87 1010.23 1010.07 997.421C1016.47 973.636 1041.62 959.457 1065.85 954.883C1090.08 950.309 1115.69 952.139 1139.47 946.193C1196.16 932.013 1235.03 875.295 1240.97 817.206C1246.92 759.116 1226.34 701.027 1197.54 650.255C1183.82 625.556 1167.82 602.228 1158.21 575.699C1135.81 512.121 1152.27 438.022 1121.18 378.102C1107.92 352.488 1082.77 329.618 1053.96 329.618C1032.93 329.618 1013.73 340.596 995.436 351.116C978.061 361.636 960.228 373.071 937.824 372.614Z" fill="#424242" stroke="black" stroke-width="20" stroke-miterlimit="10"/>
<path d="M965.715 730.757C976.231 702.856 986.29 669.009 968 645.224C956.569 630.13 936.45 623.726 917.246 620.067C893.47 615.035 868.322 612.748 844.545 618.237C820.769 623.726 798.364 638.82 788.762 660.775C778.703 684.103 783.732 711.089 791.505 735.789C805.223 781.071 826.256 825.896 861.921 857.914C865.578 861.573 870.151 864.775 874.723 866.605C886.154 870.264 898.957 863.86 905.815 854.255C912.674 844.65 953.369 763.69 965.715 731.214V730.757Z" fill="white" stroke="black" stroke-width="20" stroke-miterlimit="10"/>
<path d="M936.512 781.427C937.247 770.336 927.016 760.628 913.661 759.743C900.307 758.858 888.885 767.131 888.15 778.222C887.416 789.313 897.647 799.021 911.002 799.906C924.356 800.791 935.778 792.518 936.512 781.427Z" fill="#030005"/>
</svg>
