<svg width="1760" height="1760" viewBox="0 0 1760 1760" fill="none" xmlns="http://www.w3.org/2000/svg">
<rect width="1760" height="1760" fill="white"/>
<path d="M796.34 675.125C720.855 678.867 679.371 738.052 582.464 749.277C568.183 750.977 554.582 750.637 545.061 761.181C523.64 784.311 539.621 823.088 529.761 860.504C520.92 893.838 505.278 926.491 473.996 941.458C445.434 955.404 390.35 949.281 367.229 971.391C330.846 1005.75 392.73 1114.93 413.472 1166.97C425.713 1198.27 420.612 1226.5 447.474 1246.91C459.715 1256.43 475.697 1258.81 491.338 1260.51C552.542 1267.66 614.086 1271.06 675.631 1271.06C681.751 1271.06 688.552 1271.06 693.652 1267.32C699.092 1263.23 701.473 1256.43 702.833 1249.63C709.974 1213.57 698.073 1175.48 707.933 1140.1C719.834 1095.88 767.438 1065.27 813.001 1069.35C858.564 1073.43 898.347 1110.17 909.568 1154.73C915.348 1177.18 915.348 1203.37 931.669 1220.04C946.631 1235.34 970.093 1237.04 991.514 1238.06C1044.22 1240.44 1096.92 1242.48 1149.29 1244.87C1157.79 1245.21 1166.63 1245.55 1174.79 1243.17C1199.27 1236.36 1211.51 1208.13 1211.85 1182.96C1212.19 1157.79 1204.03 1132.96 1202.67 1107.79C1201.31 1082.62 1208.79 1053.71 1230.89 1041.8C1261.15 1025.47 1298.22 1048.6 1332.56 1045.88C1376.08 1042.48 1406.34 993.84 1401.24 950.642C1396.14 907.443 1363.84 871.048 1326.44 848.259C1305.36 835.333 1281.9 825.469 1266.93 805.741C1220.69 745.195 1264.89 623.423 1255.37 614.58C1244.15 604.375 1206.41 619.341 1182.27 608.117C1148.27 592.13 1144.53 563.898 1118 537.367C1091.48 510.836 1046.26 511.856 1023.14 548.252C1001.37 582.266 1018.38 665.601 968.393 693.833C900.728 732.269 869.785 671.384 796.679 675.125H796.34Z" fill="#FFE0F6" stroke="black" stroke-width="20" stroke-miterlimit="10"/>
<path d="M1114.26 881.593C1119.02 891.457 1112.56 914.587 1099.98 929.553C1080.94 953.023 1046.26 962.547 1017.7 952.002C989.134 941.458 968.733 911.866 969.413 881.593C969.413 879.892 969.413 878.191 970.433 876.49C971.793 874.45 974.172 873.77 976.213 873.089C1025.18 858.463 1107.12 866.627 1114.26 881.593Z" fill="#FAFCFF" stroke="black" stroke-width="20" stroke-miterlimit="10"/>
<path d="M1041.84 919.349C1046.53 919.349 1050.34 915.542 1050.34 910.845C1050.34 906.149 1046.53 902.342 1041.84 902.342C1037.14 902.342 1033.34 906.149 1033.34 910.845C1033.34 915.542 1037.14 919.349 1041.84 919.349Z" fill="black" stroke="#140202" stroke-width="20" stroke-miterlimit="10"/>
</svg>
