<svg width="1760" height="1760" viewBox="0 0 1760 1760" fill="none" xmlns="http://www.w3.org/2000/svg">
<rect width="1760" height="1760" fill="white"/>
<path d="M713.79 446.18C669.427 451.401 619.1 427.162 582.193 452.521C557.588 469.675 550.133 501.747 544.541 531.208C536.712 571.484 529.255 615.49 547.15 652.41C568.026 696.042 616.864 717.299 652.652 749.744C681.358 775.849 702.606 812.769 701.861 851.926C701.115 891.084 673.528 930.241 635.503 936.581C598.223 942.921 557.588 919.799 524.036 936.581C504.651 946.277 493.468 967.161 489.74 988.418C486.012 1009.67 488.994 1031.3 491.976 1052.56C497.941 1093.96 505.397 1138.71 535.221 1168.17C549.76 1182.34 568.399 1191.66 587.785 1198C627.301 1210.68 669.8 1211.43 710.435 1218.89C751.07 1226.35 793.569 1242.38 817.428 1276.32C835.322 1302.05 840.169 1335.24 859.181 1360.6C883.04 1392.3 926.658 1405.35 965.429 1397.15C1004.2 1388.94 1037.01 1361.72 1057.88 1328.16C1068.32 1311.37 1075.78 1292.35 1075.78 1272.59C1075.78 1250.21 1066.08 1228.96 1058.26 1207.7C1047.45 1177.87 1040.73 1146.91 1038.5 1115.59C1035.89 1080.9 1038.5 1045.85 1050.05 1013.03C1082.86 920.545 1180.16 867.589 1233.84 785.545C1283.43 709.095 1292 613.625 1292 522.258C1292 491.678 1289.76 457.741 1267.4 436.857C1254.72 425.296 1237.94 420.076 1221.91 414.855C1152.2 393.598 1110.45 360.407 1070.18 382.037C1021.72 407.769 1091.81 497.645 1035.51 562.907C995.626 609.523 910.628 572.603 836.441 546.871C762.254 521.139 779.03 437.976 715.282 445.435L713.79 446.18Z" fill="white" stroke="black" stroke-width="20" stroke-miterlimit="10"/>
<path d="M861.046 809.04C871.857 803.819 897.207 811.277 913.61 824.703C939.334 845.96 949.772 883.998 938.215 914.951C926.659 945.904 894.225 968.28 860.673 967.534C858.809 967.534 856.945 967.534 855.081 966.416C852.844 964.924 852.098 962.313 851.353 960.075C835.322 906.374 844.643 816.871 861.046 809.04Z" fill="#FAFCFF" stroke="black" stroke-width="20" stroke-miterlimit="10"/>
<path d="M913.237 861.25C918.384 861.25 922.557 857.076 922.557 851.927C922.557 846.778 918.384 842.603 913.237 842.603C908.09 842.603 903.917 846.778 903.917 851.927C903.917 857.076 908.09 861.25 913.237 861.25Z" fill="black" stroke="#140202" stroke-width="20" stroke-miterlimit="10"/>
</svg>
