<svg width="1760" height="1760" viewBox="0 0 1760 1760" fill="none" xmlns="http://www.w3.org/2000/svg">
<rect width="1760" height="1760" fill="white"/>
<path d="M665.927 448.39C643.817 441.352 618.692 453.081 602.278 469.502C585.863 485.922 570.789 516.081 586.199 533.507C638.457 592.821 624.053 662.858 622.713 695.029C616.013 847.168 539.3 904.136 487.376 949.375C452.202 979.87 423.728 1009.69 405.303 1052.59C383.194 1104.19 379.174 1176.24 411.668 1222.15C432.438 1251.64 467.612 1268.06 502.451 1276.78C577.489 1295.54 663.917 1280.8 718.185 1225.5C744.314 1198.7 761.733 1164.18 788.532 1138.04C815.332 1111.9 857.54 1094.48 890.034 1112.91C904.774 1121.29 915.159 1135.69 923.533 1150.44C957.367 1209.42 969.093 1282.47 1017.33 1330.73C1048.49 1361.89 1093.37 1378.98 1137.59 1375.97C1213.97 1370.94 1277.28 1309.62 1307.43 1239.58C1342.27 1158.48 1340.26 1062.31 1302.07 982.886C1281.3 938.987 1250.15 900.45 1232.06 855.21C1213.97 809.971 1212.3 753.338 1245.46 718.151C1275.94 685.981 1328.2 678.943 1352.99 642.417C1371.75 614.603 1369.07 577.071 1360.03 544.901C1354.67 525.8 1343.28 494.299 1326.53 483.911C1299.06 466.485 1267.23 492.959 1234.74 495.305C1161.04 500.666 1101.75 440.012 1040.11 399.129C1027.05 390.416 1012.64 382.038 997.232 379.693C945.978 371.65 909.465 427.278 861.561 447.384C810.977 468.831 798.582 490.948 666.261 449.395L665.927 448.39Z" fill="#FF82C1" stroke="#140202" stroke-width="20" stroke-miterlimit="10"/>
<path d="M878.981 810.641C872.616 831.417 866.921 856.551 881.326 873.306C890.706 883.694 905.445 887.38 919.514 889.391C937.269 891.737 955.693 892.407 972.778 887.381C989.862 882.354 1005.61 870.29 1011.64 853.534C1018 835.774 1012.64 816.338 1005.94 798.912C993.548 766.407 976.127 734.906 948.658 713.124C945.643 710.779 942.294 708.433 938.609 707.428C930.234 705.082 921.189 710.779 916.499 717.816C911.81 724.853 886.015 786.513 878.645 810.641H878.981Z" fill="white" stroke="black" stroke-width="20" stroke-miterlimit="10"/>
<path d="M951.004 890.061C960.809 890.061 968.758 883.46 968.758 875.317C968.758 867.173 960.809 860.572 951.004 860.572C941.198 860.572 933.249 867.173 933.249 875.317C933.249 883.46 941.198 890.061 951.004 890.061Z" fill="#030005"/>
</svg>
