<svg width="1760" height="1760" viewBox="0 0 1760 1760" fill="none" xmlns="http://www.w3.org/2000/svg">
<rect width="1760" height="1760" fill="white"/>
<path d="M932.931 453.613C923.902 419.743 911.112 371.949 865.592 382.486C829.852 390.765 827.97 393.399 797.498 397.539C767.778 401.679 730.534 376.841 706.081 394.529C680.123 413.346 688.776 453.613 675.608 482.967C658.303 520.977 609.773 530.762 575.538 554.847C540.928 579.309 520.237 621.834 522.118 663.984C524.752 713.66 555.6 756.562 580.429 799.841C629.712 886.021 657.174 988.76 634.226 1085.1C624.821 1124.24 607.14 1161.12 596.23 1200.26C585.32 1239.4 581.558 1282.3 599.616 1318.81C614.288 1348.91 643.255 1371.49 675.985 1377.89C708.715 1384.29 744.454 1375.26 769.659 1353.43C795.993 1330.47 809.913 1296.98 820.07 1263.48C830.228 1229.99 838.128 1195.74 855.433 1165.64C872.739 1135.53 903.212 1110.32 938.199 1109.56C976.195 1108.81 1008.17 1137.04 1034.51 1164.51C1072.5 1204.02 1108.24 1246.17 1153.01 1277.41C1187.62 1301.49 1230.88 1319.18 1271.51 1307.89C1303.11 1299.24 1328.32 1274.02 1341.49 1244.29C1354.66 1214.56 1356.54 1180.69 1351.27 1148.33C1344.5 1105.42 1325.31 1064.03 1297.1 1031.29C1266.62 995.911 1225.62 969.567 1203.42 928.547C1172.57 872.097 1184.61 802.099 1207.56 741.885C1215.08 722.316 1224.11 702.37 1225.62 681.295C1227.12 660.221 1219.6 636.888 1201.16 626.35C1191.01 620.329 1178.97 619.2 1167.31 617.319C1069.87 601.513 958.138 550.331 932.556 453.613H932.931Z" fill="#DAD4FF" stroke="#140202" stroke-width="20" stroke-miterlimit="10"/>
<path d="M950.237 819.034C909.983 760.326 831.732 795.702 816.308 843.12C790.726 922.15 890.42 930.052 925.783 916.128C972.808 897.311 966.79 843.12 950.237 819.034Z" fill="white" stroke="#140202" stroke-width="20" stroke-miterlimit="10"/>
<path d="M887.411 817.153C895.514 817.153 902.083 811.593 902.083 804.734C902.083 797.875 895.514 792.315 887.411 792.315C879.308 792.315 872.739 797.875 872.739 804.734C872.739 811.593 879.308 817.153 887.411 817.153Z" fill="black"/>
</svg>
