<svg width="1760" height="1760" viewBox="0 0 1760 1760" fill="none" xmlns="http://www.w3.org/2000/svg">
<rect width="1760" height="1760" fill="white"/>
<path d="M592.608 524.423C564.773 520.381 536.04 516.339 508.653 521.279C481.267 526.219 453.433 542.388 442.209 567.987C435.025 584.155 435.025 602.12 432.331 619.635C425.597 664.547 403.148 705.416 393.271 749.878C378.007 819.491 396.415 895.84 441.759 951.081C473.186 988.807 515.837 1016.65 543.672 1057.07C581.833 1112.76 585.874 1183.72 602.485 1248.84C607.873 1270.85 615.506 1293.31 631.669 1309.03C648.28 1325.19 672.074 1332.38 694.522 1337.32C783.865 1357.53 876.798 1361.12 967.488 1347.2C995.772 1342.71 1028.55 1332.38 1036.63 1304.98C1048.3 1265.91 1000.71 1236.27 986.792 1197.64C970.63 1153.63 1013.73 1099.74 1059.97 1106.03C1109.81 1112.31 1137.64 1168.45 1182.99 1190.01C1241.8 1217.85 1312.29 1179.68 1354.04 1129.38C1416 1053.93 1438.89 941.65 1392.2 855.869C1383.22 839.701 1372 823.982 1356.73 813.652C1330.25 795.687 1296.12 795.239 1266.49 784.46C1222.94 768.741 1188.82 729.219 1179.4 683.858C1174.46 659.606 1173.11 629.965 1151.56 618.288C1128.21 605.713 1100.83 625.024 1079.73 641.192C1030.34 678.02 970.631 702.721 909.124 703.619C847.617 704.517 784.314 680.714 743.908 634.006C711.583 596.73 686.441 538.795 593.058 524.872L592.608 524.423Z" fill="#5CFF37" stroke="#140202" stroke-width="20" stroke-miterlimit="10"/>
<path d="M835.493 881.018C820.677 882.366 804.515 884.163 792.843 889.103C780.272 894.492 778.027 901.229 777.129 907.517C773.537 933.565 775.781 958.715 784.76 982.967C786.556 988.357 789.25 993.746 797.331 997.339C815.289 1005.42 853.9 1002.28 887.122 998.687C939.201 992.848 1004.3 982.519 1024.06 962.309C1030.79 955.123 1029.89 948.386 1028.55 941.649C1024.5 922.786 1017.32 904.822 1006.55 887.307C1003.4 881.917 999.363 876.977 989.037 873.833C978.711 870.689 876.349 877.426 836.391 881.468L835.493 881.018Z" fill="white" stroke="black" stroke-width="20" stroke-miterlimit="10"/>
<path d="M899.29 924.336C912.782 922.346 922.018 909.194 919.92 894.962C917.822 880.73 905.183 870.806 891.691 872.796C878.2 874.787 868.965 887.938 871.063 902.17C873.161 916.403 885.799 926.327 899.29 924.336Z" fill="black"/>
</svg>
