<svg width="1760" height="1760" viewBox="0 0 1760 1760" fill="none" xmlns="http://www.w3.org/2000/svg">
<rect width="1760" height="1760" fill="white"/>
<path d="M771.517 461.687C771.517 548.042 850.803 626.985 749.287 636.621C655.182 645.516 564.782 644.404 535.884 648.481C509.208 652.187 465.119 661.823 478.456 697.032C504.761 766.339 507.355 797.471 511.06 809.331C521.063 843.058 542.922 891.981 631.1 905.323C677.041 912.365 699.642 957.952 707.423 998.35C715.203 1038.75 717.055 1079.52 698.901 1116.21C684.822 1144.75 668.15 1171.06 661.111 1201.82C651.848 1242.96 669.261 1288.55 703.717 1313.01C716.685 1322.27 731.134 1328.2 745.583 1334.13C768.925 1343.4 792.637 1352.29 816.719 1360.08C843.024 1368.6 870.07 1376.76 897.486 1376.02C924.903 1375.27 953.8 1365.27 970.473 1343.4C994.184 1312.64 988.997 1269.28 986.404 1230.36C983.81 1191.44 988.628 1145.12 1022.34 1125.47C1059.76 1103.61 1105.33 1128.44 1144.98 1145.49C1184.99 1162.91 1234.64 1171.06 1270.2 1145.49C1302.81 1122.14 1312.81 1078.4 1314.66 1038.01C1317.26 985.377 1305.4 924.966 1260.57 897.54C1241.67 886.051 1218.7 881.603 1200.55 868.631C1177.21 851.953 1164.98 823.045 1161.65 794.507C1158.31 765.969 1162.39 737.06 1164.98 708.522C1171.28 642.921 1160.91 497.637 1153.13 490.595C1147.2 485.406 1139.42 484.295 1131.64 483.183C1090.88 477.994 1059.39 485.036 1003.82 463.169C948.244 441.302 771.888 297.871 771.888 460.945L771.517 461.687Z" fill="#FFF570" stroke="#140202" stroke-width="20" stroke-miterlimit="10"/>
<path d="M877.85 927.56C877.109 939.791 876.74 953.504 879.333 963.511C882.297 974.629 887.483 977.224 892.3 978.706C913.047 985.007 933.795 985.748 954.542 981.671C958.988 980.93 963.804 979.447 967.88 973.147C976.772 959.434 978.624 927.56 979.736 900.134C981.218 856.771 980.848 802.289 966.399 784.129C961.212 777.828 955.654 777.458 950.097 777.828C934.536 778.94 918.604 782.646 903.043 789.318C898.597 791.171 893.411 793.765 890.077 802.29C886.742 810.814 879.702 894.946 877.85 927.931V927.56Z" fill="white" stroke="black" stroke-width="20" stroke-miterlimit="10"/>
<path d="M898.596 901.246C910.464 901.246 920.085 892.12 920.085 880.862C920.085 869.604 910.464 860.477 898.596 860.477C886.728 860.477 877.107 869.604 877.107 880.862C877.107 892.12 886.728 901.246 898.596 901.246Z" fill="black"/>
</svg>
