<svg width="1760" height="1760" viewBox="0 0 1760 1760" fill="none" xmlns="http://www.w3.org/2000/svg">
<path d="M1760 0H0V1760H1760V0Z" fill="white"/>
<path d="M1072.05 384.008C1027.31 384.008 994.573 342.906 936.741 396.739C911.644 420.018 903.643 456.028 897.823 489.491C888.002 545.507 880.727 602.977 857.449 654.991C834.171 707.005 791.252 753.563 735.238 764.838C717.052 768.476 676.678 753.199 659.947 786.663C650.853 804.849 671.949 834.312 674.495 854.681C681.77 914.333 657.764 976.532 602.841 1001.63C541.008 1030 462.081 979.805 431.891 1025.27C414.069 1052.55 411.522 1084.92 444.985 1134.39C463.171 1161.31 486.45 1208.59 492.633 1240.24C500.635 1279.52 494.451 1309.71 510.819 1346.45C530.46 1390.46 595.931 1404.65 631.94 1372.64C649.035 1357.36 658.492 1335.9 667.221 1314.8C682.862 1277.7 698.865 1240.6 714.505 1203.5C734.874 1155.85 761.061 1102.75 810.528 1088.93C855.994 1076.2 909.098 1108.2 918.919 1154.4C929.467 1203.14 897.095 1256.97 917.463 1302.8C930.557 1332.26 963.294 1349.72 995.665 1351.91C1028.04 1354.09 1059.68 1343.54 1089.14 1329.72C1124.42 1313.35 1157.89 1291.89 1181.89 1260.97C1205.9 1230.05 1218.63 1189.68 1209.53 1151.85C1200.08 1113.3 1169.89 1083.83 1146.61 1051.82C1118.24 1012.18 1098.6 963.801 1104.42 915.424C1110.24 867.048 1145.52 820.49 1193.53 812.124C1213.17 808.85 1233.18 812.124 1252.82 808.487C1288.1 802.303 1318.29 773.932 1326.65 739.013C1333.2 710.642 1326.29 681.179 1324.47 651.717C1322.65 624.801 1325.56 597.521 1332.84 571.332C1337.93 552.781 1345.2 532.776 1337.93 515.317C1329.2 494.584 1303.01 486.218 1280.46 487.673C1257.91 489.128 1236.09 497.13 1213.17 498.221C1190.26 499.312 1164.8 489.855 1157.16 468.759C1147.7 441.842 1169.53 405.105 1147.7 386.555C1130.24 371.641 1126.24 384.372 1072.41 384.372L1072.05 384.008Z" fill="#B0FCA4" stroke="black" stroke-width="20" stroke-miterlimit="10"/>
<path d="M934.197 772.841C843.629 800.485 819.987 933.975 856.359 981.988C917.101 1061.65 1001.85 919.79 1014.58 860.137C1031.67 780.843 971.297 761.566 934.197 772.841Z" fill="white" stroke="black" stroke-width="20" stroke-miterlimit="10"/>
<path d="M942.312 894.921C948.541 882.99 947.961 870.38 941.016 866.754C934.072 863.127 923.392 869.859 917.163 881.79C910.933 893.721 911.514 906.332 918.458 909.958C925.403 913.584 936.082 906.852 942.312 894.921Z" fill="black"/>
</svg>
