<svg width="1760" height="1760" viewBox="0 0 1760 1760" fill="none" xmlns="http://www.w3.org/2000/svg">
<rect width="1760" height="1760" fill="white"/>
<path d="M694.641 361.136C678.022 359.69 670.797 381.737 668.991 398.363C666.1 427.276 663.57 456.19 660.679 484.743C658.512 507.874 656.344 532.089 665.738 553.413C685.971 599.313 747.753 609.434 781.353 647.021C809.535 678.827 813.509 725.088 812.786 767.375C812.425 797.373 809.535 829.54 790.747 853.393C773.405 875.44 744.502 885.921 716.321 886.644C688.139 887.367 660.681 878.693 635.029 868.212C615.158 860.261 595.648 850.502 574.331 847.611C553.015 844.719 529.53 848.695 515.078 864.597C501.349 879.416 498.821 901.463 497.737 921.702C496.291 951.339 497.014 980.975 499.543 1010.25C502.072 1035.55 507.853 1063.74 529.169 1077.48C540.369 1084.7 554.099 1086.51 567.467 1087.96C614.435 1092.29 662.125 1091.21 708.732 1085.07C750.282 1079.28 798.333 1070.97 830.128 1098.8C852.528 1118.32 859.031 1150.48 859.392 1180.12C859.754 1209.76 854.696 1239.75 860.116 1269.03C868.426 1316.74 903.473 1357.22 947.189 1378.18C990.906 1399.14 1041.49 1402.03 1088.82 1391.91C1116.64 1386.13 1144.09 1375.65 1164.69 1356.49C1209.13 1314.93 1208.77 1238.67 1173 1189.52C1154.57 1164.22 1128.92 1145.06 1110.86 1119.4C1092.79 1093.74 1084.12 1057.24 1102.91 1032.3C1116.64 1014.23 1140.84 1007.36 1163.24 1005.55C1185.64 1003.75 1209.13 1004.83 1230.81 997.601C1238.75 995.071 1246.34 991.096 1251.4 984.59C1258.26 976.277 1259.35 964.712 1260.07 954.231C1262.96 915.92 1263.32 756.532 1258.26 726.896C1253.93 701.957 1242.73 677.381 1222.14 662.201C1206.6 650.997 1187.09 645.937 1173 633.287C1153.85 616.3 1148.43 585.58 1159.99 562.81C1168.66 545.823 1184.92 534.619 1198.65 521.246C1214.91 505.343 1227.92 485.827 1232.61 463.419C1237.31 441.011 1232.61 416.433 1217.8 399.808C1200.1 379.93 1171.55 373.786 1145.18 370.172C996.686 348.486 846.386 359.329 694.641 361.136Z" fill="#2667FF" stroke="#140202" stroke-width="20" stroke-miterlimit="10"/>
<path d="M945.381 851.225C944.659 863.152 944.299 876.524 946.828 886.283C949.718 897.125 954.776 899.656 959.473 901.101C979.705 907.245 999.937 907.968 1020.17 903.993C1024.51 903.27 1029.2 901.824 1033.18 895.68C1041.85 882.307 1043.65 851.225 1044.74 824.479C1046.18 782.193 1045.82 729.064 1031.73 711.354C1026.67 705.21 1021.25 704.849 1015.83 705.21C1000.66 706.295 985.124 709.909 969.949 716.414C965.614 718.221 960.556 720.751 957.305 729.064C954.053 737.376 947.188 819.419 945.381 851.586V851.225Z" fill="white" stroke="black" stroke-width="20" stroke-miterlimit="10"/>
<path d="M965.613 825.202C977.186 825.202 986.569 816.302 986.569 805.324C986.569 794.345 977.186 785.445 965.613 785.445C954.04 785.445 944.659 794.345 944.659 805.324C944.659 816.302 954.04 825.202 965.613 825.202Z" fill="black"/>
</svg>
