<svg width="1760" height="1760" viewBox="0 0 1760 1760" fill="none" xmlns="http://www.w3.org/2000/svg">
<rect width="1760" height="1760" fill="white"/>
<path d="M826.418 388.539C745.355 425.03 696.717 460.364 620.865 506.702C563.541 541.455 505.639 577.367 463.37 628.919C421.101 680.47 397.361 752.294 419.364 815.43C438.472 869.877 487.11 909.844 503.902 965.449C540.959 1089.98 394.466 1094.04 417.048 1222.05C434.419 1321.1 545.591 1376.7 645.763 1384.23C685.136 1387.13 726.826 1384.81 759.831 1363.38C805.573 1333.84 799.204 1256.8 844.947 1227.26C1031.97 1105.04 981.018 1266.65 1081.77 1345.42C1158.2 1405.08 1282.11 1361.64 1325.54 1274.76C1368.96 1187.87 1345.22 1080.14 1290.22 1000.2C1271.69 973.559 1249.69 948.072 1242.74 916.215C1221.89 820.642 1325.54 740.71 1325.54 642.82C1325.54 483.533 1169.2 561.149 1104.35 517.707C1062.66 489.904 960.173 327.72 826.997 388.539H826.418Z" fill="#FFD58C" stroke="black" stroke-width="20" stroke-miterlimit="10"/>
<path d="M815.996 650.351C753.461 708.853 757.514 862.927 784.15 959.079C788.203 974.718 793.993 989.199 800.941 1000.2C810.206 1014.68 821.786 1021.64 833.367 1026.27C876.214 1043.07 925.431 1021.64 958.436 960.816C991.44 899.997 1003.6 796.895 981.597 725.071C968.279 681.05 943.381 652.668 917.325 639.925C891.269 627.182 855.37 613.28 815.996 650.351Z" fill="white" stroke="#140202" stroke-width="20" stroke-miterlimit="10"/>
<path d="M903.531 845.702C904.519 822.69 895.737 803.624 883.916 803.116C872.095 802.608 861.71 820.85 860.722 843.862C859.734 866.873 868.516 885.94 880.337 886.448C892.159 886.956 902.542 868.713 903.531 845.702Z" fill="black"/>
</svg>
