<svg width="1760" height="1760" viewBox="0 0 1760 1760" fill="none" xmlns="http://www.w3.org/2000/svg">
<rect width="1760" height="1760" fill="white"/>
<path d="M758.036 374.354C706.271 373.645 658.761 409.468 624.014 447.419C589.268 485.37 569.413 539.636 580.049 590.355C587.141 624.049 606.287 653.842 620.469 685.054C634.651 716.266 643.869 753.507 629.687 784.719C622.596 800.325 610.187 813.448 603.805 829.409C589.977 863.103 603.805 901.409 598.841 937.586C594.586 967.734 577.568 993.98 565.513 1021.64C553.458 1049.31 546.367 1083 561.967 1108.9C569.413 1121.31 580.759 1130.53 589.622 1141.88C626.142 1190.12 602.741 1259.64 618.341 1318.16C632.169 1370.65 672.589 1379.87 726.481 1384.48C780.373 1389.09 844.903 1389.45 867.949 1339.79C878.231 1317.09 882.486 1292.27 890.995 1268.86C922.905 1183.02 1025.37 1130.53 1113.3 1155C1137.41 1161.74 1161.17 1173.45 1185.63 1169.9C1204.78 1167.42 1221.44 1156.42 1236.33 1144.01C1265.76 1119.54 1291.29 1088.68 1301.93 1052.15C1312.56 1015.62 1306.89 972.699 1281.01 944.325C1260.8 922.335 1230.3 910.276 1213.64 885.448C1188.47 847.852 1203.71 797.842 1213.64 753.507C1223.57 709.172 1218.6 650.65 1176.41 634.69C1134.57 618.729 1113.3 660.936 1051.25 672.286C998.071 681.862 947.724 654.197 919.714 608.089C896.313 569.783 886.386 536.089 879.295 491.754C872.203 447.419 855.894 375.419 759.1 374L758.036 374.354Z" fill="#FF3B83" stroke="black" stroke-width="20" stroke-miterlimit="10"/>
<path d="M939 958.726C959.919 968.657 992.398 981.922 1011.9 968.444C1024.31 959.931 1030.34 943.971 1034.59 929.074C1039.91 909.922 1043.45 890.06 1040.26 870.552C1037.07 851.045 1027.14 832.247 1010.83 823.38C993.461 813.804 972.188 816.996 953.042 821.606C917.232 830.473 881.422 845.015 854.476 871.971C851.639 874.808 848.803 878.001 847.03 881.902C843.484 890.769 847.739 901.409 854.83 907.439C861.921 913.468 921.841 950.71 946.306 962.414L939 958.726Z" fill="white" stroke="black" stroke-width="20" stroke-miterlimit="10"/>
<path d="M991.823 895.95C993.294 885.278 987.567 875.672 979.032 874.494C970.496 873.317 962.385 881.015 960.914 891.688C959.443 902.36 965.17 911.966 973.705 913.143C982.24 914.321 990.352 906.623 991.823 895.95Z" fill="#030005"/>
</svg>
