<svg width="1760" height="1760" viewBox="0 0 1760 1760" fill="none" xmlns="http://www.w3.org/2000/svg">
<rect width="1760" height="1760" fill="white"/>
<path d="M906.545 481.529C860.373 466.518 814.97 478.065 766.489 480.374C748.021 481.529 727.243 483.453 714.93 497.31C694.922 520.019 710.313 554.66 713.007 584.683C718.393 638.569 679.532 692.456 694.538 744.418C706.081 784.833 761.488 821.014 786.113 854.885C813.047 892.221 805.736 930.711 791.115 974.205C776.493 1017.7 741.479 1049.65 697.616 1075.43C661.063 1096.6 593.343 1063.12 551.019 1061.58C502.923 1060.04 472.526 1076.59 430.201 1099.3C387.877 1122.01 354.787 1166.27 356.71 1214.38C358.25 1260.19 382.105 1265.96 423.66 1285.98C487.917 1317.15 654.137 1325.24 715.7 1295.21C756.486 1275.58 794.193 1249.8 836.133 1232.86C878.073 1215.92 926.553 1208.23 968.109 1226.32C989.271 1235.55 1007.36 1250.57 1028.52 1260.57C1083.92 1287.13 1151.26 1273.66 1204.36 1242.87C1233.21 1226.32 1260.92 1202.84 1269.77 1170.51C1278.23 1140.1 1262.46 1108.54 1262.46 1076.97C1262.46 927.632 1355.96 969.971 1387.89 877.594C1398.67 846.032 1400.97 812.161 1402.9 778.674C1404.44 755.58 1405.59 732.101 1397.51 710.546C1377.5 655.89 1305.94 630.101 1294.78 573.135C1291.31 555.43 1305.17 469.597 1289.78 469.212C1212.44 466.902 1147.03 491.921 1138.56 518.865C1130.87 542.729 1149.72 599.309 1141.25 622.788C1126.25 665.128 1049.29 675.52 1012.36 650.116C921.167 587.762 976.189 504.623 906.93 481.914L906.545 481.529Z" fill="#FF6640" stroke="black" stroke-width="20" stroke-miterlimit="10"/>
<path d="M1150.49 888.757C1151.26 933.021 1119.32 973.435 1078.92 991.911C1069.3 996.53 1058.91 999.994 1048.14 1000.38C1027.75 1001.15 1008.12 991.141 993.119 977.284C966.57 952.65 952.333 915.315 955.796 879.519C955.796 875.67 956.95 871.436 960.029 869.512C961.952 867.972 964.646 867.972 967.339 867.587C1015.82 864.893 1064.69 865.278 1113.17 868.357C1128.17 869.512 1150.1 872.976 1150.49 888.757Z" fill="white" stroke="black" stroke-width="20" stroke-miterlimit="10"/>
<path d="M1071.31 893.903C1073.22 884.097 1066.32 874.497 1055.89 872.459C1045.46 870.422 1035.46 876.72 1033.54 886.526C1031.63 896.332 1038.53 905.932 1048.96 907.97C1059.39 910.007 1069.39 903.709 1071.31 893.903Z" fill="black"/>
</svg>
