<svg width="1760" height="1760" viewBox="0 0 1760 1760" fill="none" xmlns="http://www.w3.org/2000/svg">
<rect width="1760" height="1760" fill="white"/>
<path d="M657.552 363.165C647.269 373.452 643.71 388.882 641.337 403.52C635.009 440.314 631.054 480.272 606.929 508.757C597.833 519.439 586.759 527.748 578.453 538.826C568.962 551.882 564.216 568.498 562.634 584.719C558.283 627.447 573.707 671.758 603.765 702.222C615.63 714.486 629.868 724.377 640.941 737.433C676.536 778.974 673.767 839.506 669.021 893.707C665.857 930.501 661.112 970.855 633.822 996.175C616.816 1012 593.087 1018.73 574.499 1033.36C549.187 1053.15 536.136 1085.19 532.972 1117.24C529.808 1149.28 534.949 1181.33 540.09 1212.98C542.859 1229.99 546.023 1247.4 556.701 1260.85C569.753 1277.07 591.505 1283.4 612.466 1285.38C688.005 1292.9 764.731 1253.73 839.083 1271.14C846.202 1272.72 853.717 1275.49 858.858 1280.63C864.395 1286.57 866.373 1295.27 868.35 1303.19C875.864 1337.61 869.536 1343.14 893.661 1368.86C917.787 1394.58 958.918 1407.24 989.371 1389.43C1018.24 1372.82 1028.13 1336.02 1032.48 1303.19C1047.9 1188.06 1213.22 1216.54 1267.4 1157.2C1289.55 1133.06 1294.69 1097.85 1298.65 1065.41C1319.61 889.751 1335.03 713.694 1345.71 537.243C1346.5 523 1346.9 506.384 1336.22 496.493C1326.33 486.602 1310.51 486.998 1296.67 487.789C1268.59 489.372 1240.11 490.954 1212.03 492.537C1183.95 494.119 1051.46 487.394 1034.85 565.333C1025.36 610.435 1034.06 642.877 1022.99 668.988C1011.91 695.1 978.693 739.015 939.539 742.576C751.679 758.401 832.36 523.792 804.28 462.073C765.917 378.199 667.835 352.483 657.552 363.165Z" fill="#7968D9" stroke="black" stroke-width="20" stroke-miterlimit="10"/>
<path d="M1071.24 961.755C1072.03 1007.25 1039.2 1048.79 997.676 1067.78C987.789 1072.53 977.11 1076.09 966.037 1076.49C945.075 1077.28 924.905 1066.99 909.481 1052.75C882.192 1027.43 867.559 989.053 871.118 952.26C871.118 948.303 872.305 943.952 875.469 941.974C877.446 940.391 880.215 940.391 882.983 939.995C932.815 937.226 983.043 937.622 1032.88 940.787C1048.3 941.974 1070.84 945.534 1071.24 961.755Z" fill="white" stroke="black" stroke-width="20" stroke-miterlimit="10"/>
<path d="M990.094 967.088C992.061 957.009 984.967 947.14 974.248 945.046C963.53 942.953 953.245 949.426 951.278 959.505C949.31 969.584 956.404 979.452 967.123 981.546C977.842 983.64 988.126 977.167 990.094 967.088Z" fill="black"/>
</svg>
