<svg width="1760" height="1760" viewBox="0 0 1760 1760" fill="none" xmlns="http://www.w3.org/2000/svg">
<g clip-path="url(#clip0_10_859)">
<path d="M1760 0H0V1760H1760V0Z" fill="white"/>
<path d="M881.251 370.692C831.534 374.093 787.766 400.023 752.072 434.454C716.378 468.885 678.135 507.568 628.843 513.094C612.695 514.794 595.698 513.094 581.251 520.32C555.33 533.072 548.956 566.653 545.557 595.133C526.435 771.541 509.013 947.948 494.14 1124.78C492.865 1139.23 491.591 1154.11 496.69 1167.71C506.038 1192.79 533.234 1206.39 559.154 1213.2C585.075 1220 613.121 1222.97 635.642 1237.42C677.71 1264.2 688.333 1320.74 720.628 1359C737.625 1378.98 760.996 1393.85 786.917 1397.25C812.837 1400.65 840.458 1391.73 857.455 1371.32C894.424 1326.69 864.254 1254 892.724 1202.99C917.795 1157.94 978.985 1148.16 1029.98 1154.11C1080.97 1160.06 1133.66 1175.79 1183.38 1162.61C1200.8 1157.94 1218.22 1149.43 1229.27 1134.98C1242.44 1117.98 1245.42 1095.45 1247.54 1074.2C1252.64 1023.19 1254.34 971.752 1253.06 920.318C1253.06 916.067 1253.06 911.391 1250.09 907.991C1247.54 904.59 1242.87 903.315 1238.62 902.04C1199.95 892.263 1159.58 884.611 1127.28 861.232C1094.99 837.853 1075.87 791.094 1096.69 757.088C1109.01 737.109 1132.38 726.482 1155.33 722.657C1178.28 718.831 1202.07 721.807 1225.44 722.657C1232.67 722.657 1240.32 722.657 1247.54 720.106C1264.54 713.305 1270.49 692.051 1273.46 673.773C1282.38 623.614 1290.46 573.455 1297.68 522.87C1299.38 509.693 1307.03 472.711 1300.23 461.234C1264.54 399.598 1212.7 482.488 1185.5 488.439C1133.23 499.491 1085.64 460.809 1041.02 430.629C1012.98 411.925 983.659 395.772 952.639 383.019C928.843 373.243 900.373 368.992 881.251 370.268V370.692Z" fill="#FCFFA6" stroke="black" stroke-width="20" stroke-miterlimit="10"/>
<path d="M873.603 924.568C824.736 928.819 777.994 897.363 754.623 854.43C749.099 844.228 744.425 832.751 742.725 820.849C740.175 798.319 749.949 776.215 763.971 758.362C789.042 727.331 828.986 709.053 868.929 709.903C873.178 709.903 877.852 710.754 880.402 713.729C882.102 715.855 882.527 718.83 882.952 721.381C889.751 774.515 893.15 828.5 893.15 882.06C893.15 899.063 891.025 923.292 873.603 924.568Z" fill="white" stroke="black" stroke-width="20" stroke-miterlimit="10"/>
<path d="M884.002 820.342C885.442 808.692 877.736 798.151 866.789 796.797C855.842 795.442 845.801 803.788 844.361 815.438C842.92 827.087 850.627 837.629 861.574 838.983C872.52 840.337 882.562 831.991 884.002 820.342Z" fill="black"/>
</g>
<defs>
<clipPath id="clip0_10_859">
<rect width="1760" height="1760" fill="white"/>
</clipPath>
</defs>
</svg>
