<svg width="1760" height="1760" viewBox="0 0 1760 1760" fill="none" xmlns="http://www.w3.org/2000/svg">
<rect width="1760" height="1760" fill="white"/>
<path d="M969.028 447.889C918.847 447 872.219 473.21 826.923 494.533C781.626 515.857 728.337 533.625 681.709 515.412C663.057 508.304 642.63 495.866 625.311 505.195C613.765 511.414 608.88 525.185 605.327 538.068C597.334 564.278 589.34 590.932 580.903 617.142C576.018 633.134 570.689 650.015 557.811 661.121C526.725 688.664 476.988 664.23 437.021 674.448C408.6 681.555 386.396 708.654 384.176 737.973C381.955 769.07 401.051 798.389 425.919 817.047C450.788 835.705 480.541 845.923 509.85 856.14C519.62 859.694 529.389 863.247 536.051 870.355C544.044 878.796 546.709 890.345 548.485 901.451C553.814 931.659 554.258 962.756 550.705 992.963C547.597 1019.62 540.936 1045.83 540.936 1072.48C540.936 1099.14 547.153 1127.57 566.692 1146.22C579.571 1158.66 596.445 1165.33 613.765 1170.21C632.416 1175.1 653.288 1177.77 671.495 1170.21C701.692 1157.77 714.57 1123.12 723.008 1091.58C731.445 1060.04 739.439 1025.39 766.084 1006.74C789.176 990.743 820.261 991.631 848.238 994.297C870.886 996.518 894.866 1000.07 911.741 1014.73C935.722 1035.61 938.386 1071.15 939.274 1102.69C940.607 1139.12 941.495 1175.54 942.827 1212.42C943.715 1242.18 945.048 1273.28 960.146 1299.04C973.469 1321.7 995.673 1337.24 1019.21 1348.35C1050.74 1363.45 1086.26 1371.45 1120.9 1366.56C1155.54 1361.68 1188.85 1342.58 1207.05 1312.81C1223.49 1285.71 1226.59 1253.29 1234.59 1222.63C1242.58 1191.98 1258.57 1160 1288.32 1149.33C1310.08 1141.78 1335.84 1146.22 1354.49 1132.9C1375.36 1117.79 1376.69 1087.59 1375.8 1061.82C1374.03 1007.18 1372.25 952.538 1370.48 897.897C1369.59 873.02 1368.25 846.366 1353.16 826.376C1336.73 805.497 1310.08 794.836 1284.32 788.172C1132.45 747.747 1123.57 677.557 1094.7 586.489C1088.04 565.61 1083.6 543.843 1072.05 525.185C1053.85 494.977 1029.42 448.333 969.028 447V447.889Z" fill="#424242" stroke="black" stroke-width="20" stroke-miterlimit="10"/>
<path d="M891.314 647.35C852.679 683.777 854.899 779.731 871.774 839.703C874.439 849.476 877.547 858.361 881.988 865.469C887.761 874.353 894.866 878.796 901.972 881.905C928.172 892.123 958.814 879.24 978.797 841.036C998.781 802.832 1006.77 738.862 993.008 693.994C984.57 666.452 969.472 648.683 953.485 640.686C937.498 632.69 915.738 624.249 891.314 647.35Z" fill="white" stroke="black" stroke-width="20" stroke-miterlimit="10"/>
<path d="M944.878 768.464C945.489 754.247 940.025 742.466 932.674 742.15C925.323 741.834 918.869 753.103 918.259 767.32C917.648 781.537 923.112 793.318 930.463 793.634C937.814 793.95 944.268 782.681 944.878 768.464Z" fill="black"/>
</svg>
