<svg width="1760" height="1760" viewBox="0 0 1760 1760" fill="none" xmlns="http://www.w3.org/2000/svg">
<rect width="1760" height="1760" fill="white"/>
<path d="M613.551 407.154C525.897 371.975 526.422 450.733 522.223 466.485C513.826 496.938 497.554 525.291 474.46 547.343C457.664 563.619 437.194 577.271 426.172 597.748C410.426 627.676 418.299 663.905 425.123 697.508C443.493 788.867 448.217 882.327 439.819 975.262C437.719 997.839 435.095 1021.99 446.118 1041.94C453.466 1055.07 466.063 1064.52 479.709 1071.87C508.577 1086.57 544.793 1090.25 572.086 1072.92C594.13 1058.75 605.678 1033.02 620.899 1011.49C640.844 982.087 670.237 956.885 705.403 952.159C740.569 947.434 779.934 968.96 786.233 1004.14C790.957 1030.39 776.785 1056.12 763.663 1079.75C742.669 1117.55 722.724 1157.45 716.95 1200.51C711.177 1243.56 721.674 1290.82 753.166 1320.22C768.912 1334.92 788.857 1344.37 808.802 1351.72C842.394 1364.85 879.66 1373.78 913.776 1363.28C947.893 1352.77 974.661 1323.37 987.258 1290.29C999.855 1257.22 999.855 1219.41 993.032 1184.23C984.109 1138.03 963.114 1092.35 968.888 1045.09C975.186 991.538 1020.32 944.283 1073.34 935.883C1139.47 924.856 1344.69 921.18 1342.59 741.612C1342.59 701.183 1341.55 660.229 1341.02 619.8C1339.97 546.293 1335.25 462.809 1279.61 414.504C1268.06 404.528 1254.94 396.653 1240.25 393.503C1209.8 387.202 1179.89 401.903 1152.07 415.555C1079.11 451.258 1002.48 471.735 922.174 483.286C841.869 494.837 697.005 442.332 612.501 408.204L613.551 407.154Z" fill="white" stroke="black" stroke-width="20" stroke-miterlimit="10"/>
<path d="M848.167 1113.35C825.073 1142.23 826.123 1216.79 835.046 1262.99C836.62 1270.34 838.195 1277.69 840.819 1282.94C843.968 1289.77 848.167 1293.44 852.366 1295.54C867.588 1303.42 885.433 1292.92 897.505 1262.99C909.577 1233.06 914.826 1183.18 906.953 1149.05C902.229 1128.05 893.831 1114.4 884.384 1108.1C874.936 1101.8 862.339 1095.5 847.642 1113.88L848.167 1113.35Z" fill="white" stroke="#140202" stroke-width="20" stroke-miterlimit="10"/>
<path d="M878.147 1207.42C878.62 1196.41 875.482 1187.34 871.138 1187.15C866.794 1186.96 862.888 1195.74 862.415 1206.75C861.943 1217.76 865.082 1226.83 869.426 1227.02C873.77 1227.21 877.674 1218.43 878.147 1207.42Z" fill="black"/>
</svg>
