<svg width="1760" height="1760" viewBox="0 0 1760 1760" fill="none" xmlns="http://www.w3.org/2000/svg">
<rect width="1760" height="1760" fill="white"/>
<path d="M950.93 440.963C915.351 415.812 869.336 417.71 829.488 434.794C787.268 452.827 746.471 475.131 708.046 500.282C695.712 508.824 682.904 517.84 675.314 530.653C661.557 553.431 666.301 582.378 670.57 608.953C681.955 676.813 687.648 745.148 687.648 813.958C687.648 852.871 685.276 905.07 662.506 936.39C594.195 1031.3 508.806 1004.25 431.956 1045.54C392.582 1066.89 357.953 1103.91 356.055 1148.51C354.632 1176.99 381.197 1272.84 391.634 1291.83C406.339 1318.4 434.328 1334.54 463.265 1344.5C579.015 1384.84 719.906 1329.32 777.306 1220.64C791.063 1194.07 801.025 1164.65 821.898 1143.77C847.04 1118.62 884.517 1109.6 919.621 1111.02C954.725 1112.45 989.354 1122.89 1023.51 1131.43C1118.86 1155.63 1217.06 1167.97 1315.26 1167.02C1333.76 1167.02 1353.21 1166.07 1367.91 1155.16C1383.57 1143.77 1390.68 1124.31 1395.9 1105.8C1404.91 1074.96 1411.08 1043.64 1414.4 1011.84C1415.82 999.506 1416.77 986.218 1410.61 975.304C1404.91 964.864 1394 958.694 1384.04 952.051C1344.67 925.95 1313.83 870.903 1341.35 832.465C1349.89 820.601 1362.22 812.534 1371.71 801.619C1393.53 775.994 1395.9 738.979 1391.16 705.76C1385.94 667.322 1368.86 625.562 1333.28 610.851C1294.38 594.242 1250.74 615.597 1208.99 624.139C1118.39 642.172 1018.77 587.599 985.085 501.705C975.123 476.08 967.059 452.352 950.455 440.488L950.93 440.963Z" fill="#DEB0FF" stroke="black" stroke-width="20" stroke-miterlimit="10"/>
<path d="M1043.91 983.371C1003.59 987.642 965.161 959.644 945.712 922.154C940.968 913.138 937.173 903.172 936.224 893.207C934.327 873.75 942.391 853.819 954.251 838.633C975.124 811.584 1008.33 794.976 1041.54 795.45C1044.86 795.45 1048.65 795.924 1051.02 798.772C1052.45 800.67 1052.92 803.043 1052.92 805.415C1058.14 851.921 1060.51 898.901 1060.51 945.882C1060.51 960.593 1058.62 981.947 1043.91 983.371Z" fill="white" stroke="black" stroke-width="20" stroke-miterlimit="10"/>
<path d="M1053.19 891.445C1054.44 881.301 1048.08 872.165 1038.98 871.039C1029.88 869.913 1021.49 877.224 1020.23 887.368C1018.98 897.512 1025.34 906.649 1034.44 907.775C1043.54 908.9 1051.94 901.589 1053.19 891.445Z" fill="black"/>
</svg>
