<svg width="1760" height="1760" viewBox="0 0 1760 1760" fill="none" xmlns="http://www.w3.org/2000/svg">
<rect width="1760" height="1760" fill="white"/>
<path d="M995.705 445.993C940.806 437.976 883.502 466.037 847.436 508.128C808.165 553.426 793.738 615.561 759.676 665.268C703.975 747.045 600.988 786.33 502.008 787.934C473.557 787.934 439.895 788.735 425.069 812.787C412.245 833.633 421.462 861.293 411.844 883.741C400.223 911 364.959 923.828 357.345 952.29C351.735 973.937 364.559 995.584 379.386 1012.02C394.212 1028.45 411.845 1043.69 419.458 1064.53C432.282 1099.41 413.046 1137.09 410.241 1174.37C409.44 1183.99 410.241 1194.01 415.851 1201.63C422.664 1210.45 434.285 1213.26 445.105 1215.66C526.453 1232.5 609.804 1241.72 693.155 1242.92C718.001 1242.92 746.052 1241.32 760.879 1221.27C767.29 1212.85 770.095 1202.03 772.099 1191.61C778.11 1161.54 778.912 1130.28 786.125 1100.61C793.338 1070.95 807.764 1040.88 833.811 1024.45C855.852 1010.42 885.105 1008.01 909.149 1018.03C933.192 1028.05 952.026 1050.5 957.636 1076.16C963.247 1102.62 955.633 1130.28 952.427 1157.13C949.221 1183.99 953.229 1215.26 974.868 1231.7C984.886 1239.31 997.309 1242.52 1009.33 1245.73C1075.85 1261.76 1143.98 1269.38 1212.1 1277.39C1235.74 1280.2 1261.39 1282.2 1281.02 1269.38C1300.26 1256.95 1309.08 1233.3 1315.49 1211.25C1327.51 1168.36 1334.72 1123.86 1336.73 1079.37C1337.13 1067.74 1337.53 1055.31 1342.34 1044.49C1355.16 1013.22 1399.24 999.993 1403.65 966.721C1408.06 933.048 1369.99 911.401 1353.56 881.737C1329.11 838.042 1353.56 780.718 1333.92 734.618C1328.71 722.592 1319.09 711.368 1306.27 710.165C1297.05 709.364 1242.96 723.394 1198.07 700.545C1144.78 673.286 1133.16 603.535 1124.74 562.646C1117.13 524.964 1083.06 458.821 995.705 445.993Z" fill="#2667FF" stroke="black" stroke-width="20" stroke-miterlimit="10"/>
<path d="M827.8 842.452C827.8 796.352 862.663 755.463 905.141 737.023C915.559 732.614 926.379 729.407 937.599 729.006C958.838 729.006 978.875 739.83 994.102 754.662C1020.95 781.119 1034.58 820.405 1030.17 857.685C1029.77 861.694 1028.97 865.702 1025.36 868.108C1023.36 869.711 1020.55 869.711 1017.75 869.711C967.253 870.914 916.361 869.711 865.869 864.901C850.241 863.297 827.399 859.289 827.8 842.452Z" fill="white" stroke="black" stroke-width="20" stroke-miterlimit="10"/>
<path d="M948.993 846.616C951.249 836.458 944.322 826.277 933.52 823.875C922.717 821.474 912.131 827.761 909.874 837.919C907.618 848.077 914.545 858.258 925.347 860.66C936.15 863.061 946.736 856.774 948.993 846.616Z" fill="black"/>
</svg>
