<svg width="1760" height="1760" viewBox="0 0 1760 1760" fill="none" xmlns="http://www.w3.org/2000/svg">
<rect width="1760" height="1760" fill="white"/>
<path d="M966.976 407.452C921.187 428.547 908.838 489.258 906.265 539.679C903.693 590.1 910.382 641.55 897.005 689.913C883.628 738.276 840.411 784.582 790.506 778.408C771.47 776.35 711.275 758.342 672.174 776.864C619.696 801.046 602.718 831.916 567.218 851.981C498.277 891.083 426.249 851.981 373.257 910.634C319.75 969.288 344.446 1082.99 376.859 1155.54C399.496 1205.44 430.365 1252.78 474.611 1285.19C518.857 1317.61 576.479 1333.55 629.471 1319.15C687.093 1303.2 729.796 1255.35 783.817 1229.11C846.07 1198.76 923.244 1200.81 983.954 1234.26C1028.71 1258.95 1067.82 1300.63 1119.26 1304.74C1150.65 1307.32 1181.52 1293.94 1209.3 1279.02C1252.52 1255.86 1295.73 1221.91 1304.99 1173.54C1316.31 1112.83 1270.01 1054.18 1276.18 992.44C1281.33 939.961 1323 899.83 1353.36 856.612C1384.22 813.394 1422.81 747.537 1418.7 694.544C1413.55 630.231 1390.4 577.238 1315.28 577.238C1292.13 577.238 1225.25 581.354 1187.18 559.23C1118.75 519.099 1129.55 332.849 968.005 407.452H966.976Z" fill="#99E6FF" stroke="black" stroke-width="20" stroke-miterlimit="10"/>
<path d="M1140.87 1045.95C1156.82 1025.88 1137.27 966.2 1126.98 928.641C1123.38 914.75 1119.26 900.344 1112.06 889.539C1100.22 871.532 1084.27 869.474 1070.38 870.503C1043.63 872.046 1017.91 877.706 993.725 888.51C989.61 890.568 984.979 892.626 981.892 897.257C974.689 908.061 976.747 929.156 979.32 948.192C983.95 980.606 989.609 1013.02 996.297 1045.43C997.841 1053.67 999.9 1062.41 1004.02 1069.1C1010.7 1079.9 1019.96 1080.93 1027.68 1080.93C1070.9 1080.93 1119.77 1073.73 1140.87 1046.98V1045.95Z" fill="white" stroke="black" stroke-width="20" stroke-miterlimit="10"/>
<path d="M1085.31 907.032C1089.57 907.032 1093.03 903.116 1093.03 898.285C1093.03 893.455 1089.57 889.539 1085.31 889.539C1081.05 889.539 1077.59 893.455 1077.59 898.285C1077.59 903.116 1081.05 907.032 1085.31 907.032Z" fill="#030000" stroke="black" stroke-width="20" stroke-miterlimit="10"/>
</svg>
