<svg width="1760" height="1760" viewBox="0 0 1760 1760" fill="none" xmlns="http://www.w3.org/2000/svg">
<rect width="1760" height="1760" fill="white"/>
<path d="M522.587 708.743C499.112 703.951 478.033 687.656 460.307 703.95C442.581 720.245 438.269 746.124 439.706 770.086C441.144 795.486 448.809 820.407 461.744 842.452C472.763 861.622 487.614 878.396 497.195 898.524C506.777 918.652 509.651 943.573 497.195 961.784C488.572 974.244 473.721 980.953 463.181 991.497C444.976 1009.23 439.227 1036.07 434.436 1060.99C423.418 1120.41 413.357 1180.32 405.213 1240.22C403.296 1255.08 401.38 1270.42 405.213 1285.27C415.752 1324.09 460.786 1339.91 499.591 1348.05C575.764 1363.39 653.375 1369.62 730.985 1366.74C760.688 1365.79 792.307 1362.43 816.261 1345.18C885.248 1294.86 847.88 1166.42 917.825 1117.06C1073.53 1006.35 1110.41 1321.22 1154.01 1342.3C1192.81 1360.99 1242.16 1368.66 1277.61 1343.74C1311.63 1320.26 1322.64 1275.69 1329.83 1234.47C1384.45 926.799 1342.77 518.004 1329.83 495.48C1310.19 461.453 1242.16 463.37 1202.88 462.891C1054.36 460.495 977.23 313.846 861.773 449.472C815.302 504.106 828.237 569.762 784.641 647.4C752.064 706.347 713.26 746.603 522.587 708.743Z" fill="#B0FCA4" stroke="black" stroke-width="20" stroke-miterlimit="10"/>
<path d="M806.68 928.715C805.242 941.655 803.806 955.553 810.034 966.096C816.741 977.598 829.197 980.474 840.694 981.911C888.602 988.142 937.468 989.579 985.855 984.787C996.394 983.828 1007.41 982.391 1016.99 975.682C1037.12 961.304 1041.91 928.236 1044.3 899.481C1048.13 854.433 1046.7 797.403 1013.64 778.233C1002.14 771.523 988.729 771.523 975.794 771.523C939.384 772.482 902.495 776.316 866.564 783.505C856.025 785.422 844.527 788.297 836.382 796.923C828.238 805.55 811.95 893.731 807.638 928.236L806.68 928.715Z" fill="white" stroke="black" stroke-width="20" stroke-miterlimit="10"/>
<path d="M933.156 905.233C945.327 905.233 955.193 893.861 955.193 879.833C955.193 865.805 945.327 854.432 933.156 854.432C920.985 854.432 911.118 865.805 911.118 879.833C911.118 893.861 920.985 905.233 933.156 905.233Z" fill="black"/>
</svg>
