<svg width="1760" height="1760" viewBox="0 0 1760 1760" fill="none" xmlns="http://www.w3.org/2000/svg">
<rect width="1760" height="1760" fill="white"/>
<path d="M698.207 493C702.867 553.174 829.105 716.643 633.818 734.441C610.519 736.56 580.442 725.119 557.143 729.78C520.288 736.984 527.491 771.732 531.303 809.024C546.553 953.103 538.504 1100.15 507.58 1241.69C499.108 1279.83 490.636 1323.9 515.206 1353.98C524.525 1365.43 537.657 1373.05 550.789 1378.99C663.895 1428.99 794.792 1362.88 918.064 1376.02C969.745 1381.53 1021 1401.45 1072.26 1392.55C1126.91 1382.8 1172.23 1340.85 1195.96 1290.42C1208.24 1264.15 1215.44 1233.63 1206.97 1206.09C1196.8 1173.88 1167.15 1151.85 1138.34 1134.47C1109.54 1117.1 1078.19 1100.15 1059.98 1071.33C1041.76 1042.52 1043.45 998.023 1072.68 981.496C1091.75 970.478 1115.47 974.715 1137.92 975.987C1160.37 977.258 1186.21 972.597 1195.96 953.104C1198.92 947.171 1199.77 940.815 1201.04 934.458C1214.17 850.977 1220.1 766.224 1218.83 681.471C1218.41 646.298 1204 599.26 1168.84 601.803C1157.83 602.651 1148.09 608.583 1138.34 613.245C1084.97 637.399 1015.07 611.55 989.232 559.003C974.405 528.492 964.238 474.25 947.294 445.01C854.945 283.98 692.277 409.838 698.207 487.81V493Z" fill="#8CFFD9" stroke="black" stroke-width="20" stroke-miterlimit="10"/>
<path d="M1016 877.085C1023.2 877.085 1034.14 872.588 1034.14 866.655C1034.14 849.705 1033.71 816.651 1026.51 798.429C1016.34 773.003 994.315 750.12 964.238 742.069C953.648 739.102 942.211 738.678 930.773 738.678C910.016 738.678 888.835 742.493 872.314 753.087C856.64 762.833 846.474 778.089 840.967 794.192C836.307 806.905 833.765 850.128 832.918 865.808C832.918 869.198 835.883 871.74 839.696 871.74L1021.43 877.249L1016 877.085Z" fill="white" stroke="black" stroke-width="20" stroke-miterlimit="10"/>
<path d="M864.265 873.013C878.77 873.013 890.529 861.249 890.529 846.739C890.529 832.228 878.77 820.466 864.265 820.466C849.76 820.466 838.001 832.228 838.001 846.739C838.001 861.249 849.76 873.013 864.265 873.013Z" fill="black"/>
</svg>
