<svg width="1760" height="1760" viewBox="0 0 1760 1760" fill="none" xmlns="http://www.w3.org/2000/svg">
<rect width="1760" height="1760" fill="white"/>
<path d="M967.299 376.888C898.671 369.755 845.64 369.309 809.989 413.889C786.371 443.311 780.132 483.432 757.85 513.746C734.677 544.952 695.015 563.229 656.245 559.217C632.626 556.988 603.214 549.855 589.845 569.024C585.388 575.711 584.052 584.181 583.16 592.206C572.911 692.509 591.182 796.378 562.661 893.115C559.987 902.031 556.868 911.393 550.629 918.525C523 950.177 468.632 914.514 430.753 943.49C416.938 954.189 336.723 1018.83 508.293 1106.2C534.586 1119.58 562.215 1135.63 573.802 1162.37C595.638 1213.64 538.597 1270.7 553.748 1324.2C565.335 1365.66 613.909 1383.93 656.69 1391.07C711.504 1399.98 767.654 1400.87 822.913 1393.29C846.086 1390.17 871.487 1383.93 884.411 1364.76C897.78 1344.7 892.432 1317.51 900.008 1294.33C913.377 1252.42 967.299 1233.7 1009.19 1246.63C1051.08 1259.56 1083.16 1294.33 1107.23 1331.33C1115.25 1343.81 1123.27 1356.74 1135.75 1365.21C1148.23 1373.68 1163.83 1375.91 1178.98 1377.69C1207.94 1381.26 1240.03 1384.38 1263.2 1366.1C1287.71 1346.93 1291.28 1311.71 1292.17 1280.51C1296.63 1165.05 1297.96 1048.7 1279.69 934.574C1275.68 910.501 1270.33 885.091 1253.84 866.814C1233.79 844.524 1202.15 838.283 1172.74 832.933C1138.42 826.692 1104.11 820.897 1069.8 814.656C1035.04 808.415 996.266 799.053 979.332 768.293C962.397 737.088 976.658 698.304 992.701 666.653C1011.86 629.206 1033.25 592.205 1044.84 551.638C1056.43 511.071 1090.74 389.816 967.745 376.442L967.299 376.888Z" fill="#FF3B83" stroke="black" stroke-width="20" stroke-miterlimit="10"/>
<path d="M937.441 947.057C898.225 968.9 902.236 1028.19 920.507 1065.64C923.626 1071.43 927.191 1077.23 931.648 1081.69C937.441 1087.04 945.017 1090.16 952.593 1091.94C980.222 1098.63 1011.42 1091.05 1031.47 1067.87C1051.52 1044.69 1058.21 1005.01 1043.5 977.371C1034.14 960.431 1018.55 949.286 1001.61 943.936C984.679 938.587 962.397 932.791 937.441 947.057Z" fill="white" stroke="#140202" stroke-width="20" stroke-miterlimit="10"/>
<path d="M995.034 1023.58C995.414 1014.73 989.543 1007.29 981.921 1006.96C974.298 1006.63 967.81 1013.54 967.43 1022.4C967.05 1031.25 972.921 1038.7 980.543 1039.03C988.166 1039.35 994.654 1032.44 995.034 1023.58Z" fill="black"/>
</svg>
