<svg width="1760" height="1760" viewBox="0 0 1760 1760" fill="none" xmlns="http://www.w3.org/2000/svg">
<g clip-path="url(#clip0_10_865)">
<path d="M1760 0H0V1760H1760V0Z" fill="white"/>
<path d="M902.365 699.743C724.391 733.042 526.001 712.175 452.769 709.067C421.258 707.735 377.763 733.486 364.004 761.901C339.594 812.958 377.319 870.232 393.297 924.398C403.949 960.36 404.392 998.543 404.836 1036.28C406.167 1129.96 407.499 1224.08 408.831 1317.76C408.831 1331.53 409.274 1346.18 416.82 1357.72C426.14 1372.82 444.336 1379.03 461.646 1383.47C522.006 1399.01 585.474 1402.12 646.722 1392.8C672.908 1388.8 700.425 1381.7 718.621 1362.16C742.588 1336.41 743.032 1297.34 744.363 1261.82C746.139 1210.76 753.683 1157.04 784.307 1116.2C814.931 1075.35 875.736 1053.15 919.231 1079.79C956.069 1102.43 968.495 1149.05 995.568 1182.35C1022.64 1215.65 1064.36 1234.29 1106.53 1241.84C1148.69 1249.39 1191.74 1247.61 1234.79 1245.39C1254.32 1244.51 1273.85 1243.17 1292.04 1236.51C1337.32 1219.2 1361.73 1169.92 1373.27 1122.86C1379.03 1100.66 1382.59 1076.24 1373.27 1054.93C1363.06 1030.51 1339.09 1015.41 1322.22 994.547C1280.06 942.157 1292.04 865.348 1314.24 801.859C1336.43 738.369 1367.49 673.104 1355.51 606.951C1351.07 582.532 1339.53 557.225 1316.9 546.569C1280.51 529.254 1233.9 556.781 1198.84 537.69C1164.67 519.487 1162.89 472.425 1145.14 438.239C1120.73 390.733 1056.37 368.533 1008 390.732C959.619 412.931 933.877 475.533 952.962 525.259C962.726 550.121 1055.33 671.427 892 701.618L902.365 699.743Z" fill="#9DC0EB" stroke="black" stroke-width="20" stroke-miterlimit="10"/>
<path d="M584.143 1098.88C554.85 1098.88 530.883 1073.13 521.563 1040.72C519.344 1032.73 518.012 1024.29 518.456 1015.86C519.344 999.429 527.776 983.889 537.984 971.902C556.181 951.035 581.923 939.936 605.446 943.043C607.665 943.043 610.772 943.931 611.66 946.595C612.547 948.371 612.547 950.591 612.103 952.367C609.884 991.437 606.334 1030.51 600.121 1069.13C598.345 1081.12 594.35 1098.88 583.698 1098.88H584.143Z" fill="white" stroke="black" stroke-width="20" stroke-miterlimit="10"/>
<path d="M602.065 1023.25C604.205 1014.94 600.743 1006.87 594.334 1005.21C587.925 1003.56 580.995 1008.96 578.856 1017.27C576.716 1025.58 580.178 1033.66 586.587 1035.31C592.996 1036.96 599.926 1031.56 602.065 1023.25Z" fill="black"/>
</g>
<defs>
<clipPath id="clip0_10_865">
<rect width="1760" height="1760" fill="white"/>
</clipPath>
</defs>
</svg>
