<svg width="1760" height="1760" viewBox="0 0 1760 1760" fill="none" xmlns="http://www.w3.org/2000/svg">
<rect width="1760" height="1760" fill="white"/>
<path d="M832.835 375.577C796.873 362.759 754.297 378.058 729.083 406.59C703.868 435.121 692.708 474.404 692.294 512.859C692.294 539.736 696.428 566.614 693.534 593.491C690.641 620.369 678.241 648.073 653.853 660.064C637.319 668.334 618.304 667.508 600.117 669.989C581.929 672.47 562.088 679.913 554.648 696.453C549.688 707.203 551.341 719.195 551.341 731.186C552.995 790.73 528.193 847.379 510.419 904.442C492.645 961.505 482.311 1026.01 510.419 1078.52C529.846 1114.09 566.222 1143.44 567.875 1183.97C569.528 1219.94 541.834 1252.19 543.487 1288.17C544.727 1315.87 563.742 1340.68 587.303 1355.57C610.864 1370.46 638.559 1376.66 666.253 1381.62C706.762 1388.65 748.924 1392.78 788.193 1379.55C827.461 1366.32 861.356 1332.41 863.01 1291.48C863.837 1272.87 857.636 1254.68 853.089 1236.89C846.475 1210.43 842.342 1183.14 841.515 1155.44C840.689 1126.08 844.409 1093.41 866.317 1073.98C891.531 1052.06 936.173 1059.5 952.708 1088.86C968.828 1116.98 958.495 1153.37 971.722 1182.73C982.469 1207.12 1007.27 1222.01 1032.07 1231.52C1070.1 1245.99 1112.68 1250.95 1151.53 1239.79C1190.39 1228.63 1225.52 1200.09 1239.58 1162.05C1251.98 1128.14 1247.43 1090.93 1242.06 1054.96C1232.96 992.517 1223.04 928.425 1234.2 866.4C1240.82 831.667 1253.63 798.587 1260.24 763.853C1266.44 729.946 1266.44 694.799 1265.62 660.478C1264.79 602.589 1262.31 544.285 1259 486.395C1258.18 471.096 1256.11 453.729 1243.3 445.459C1226.76 434.708 1205.68 446.286 1188.73 455.796C1121.77 492.597 1037.03 495.492 967.175 463.653C934.52 448.767 905.999 426.851 877.477 405.349C862.183 393.771 847.716 380.953 832.835 375.577Z" fill="#442FBD" stroke="black" stroke-width="20" stroke-miterlimit="10"/>
<path d="M974.202 776.257C976.682 807.683 953.948 837.455 925.013 851.927C917.986 855.235 910.546 858.13 902.278 858.957C887.398 860.197 872.517 853.582 860.943 843.658C840.275 826.704 828.701 800.654 829.942 774.603C829.942 772.122 830.355 768.814 832.835 767.16C834.489 765.92 836.142 765.92 838.208 765.506C874.17 762.198 910.132 761.371 946.094 762.198C957.254 762.198 973.789 764.266 974.615 775.844L974.202 776.257Z" fill="white" stroke="black" stroke-width="20" stroke-miterlimit="10"/>
<path d="M915.357 781.759C916.407 774.757 910.852 768.121 902.95 766.935C895.048 765.75 887.791 770.464 886.742 777.465C885.692 784.466 891.247 791.103 899.149 792.288C907.05 793.474 914.307 788.76 915.357 781.759Z" fill="black"/>
</svg>
