<svg width="1760" height="1760" viewBox="0 0 1760 1760" fill="none" xmlns="http://www.w3.org/2000/svg">
<rect width="1760" height="1760" fill="white"/>
<path d="M958.369 381.892C910.491 365.79 852.706 401.711 845.689 451.67C840.736 486.766 857.66 521.036 858.072 556.544C858.072 587.098 845.689 617.239 823.814 638.709C781.301 679.998 713.611 681.649 655.827 667.198C621.569 658.94 584.836 645.728 551.816 658.94C514.256 673.804 496.921 717.158 489.491 756.795C480.411 804.69 479.585 853.824 487.015 902.132C494.857 952.091 511.78 1002.46 503.938 1052.42C500.223 1074.72 491.968 1097.02 495.27 1119.31C500.223 1152.76 531.179 1177.94 563.785 1185.37C596.392 1192.81 631.062 1187.02 664.082 1179.18C697.101 1171.34 730.122 1161.84 763.967 1162.66C781.715 1163.08 800.288 1166.79 814.321 1177.94C838.261 1196.52 844.038 1229.97 844.451 1260.52C844.864 1291.07 841.562 1322.45 853.945 1350.12C874.169 1394.71 931.953 1413.29 978.593 1399.25C1035.96 1382.32 1076.83 1321.21 1070.64 1261.76C1066.92 1226.25 1049.59 1187.02 1069.81 1157.71C1090.45 1127.98 1135.02 1130.46 1165.98 1111.88C1189.09 1097.84 1202.71 1072.24 1208.49 1045.82C1214.27 1019.39 1213.03 992.141 1211.38 965.304C1210.97 954.156 1210.14 942.182 1203.13 933.098C1192.81 919.473 1173.41 918.647 1156.49 914.931C1093.75 901.719 1049.17 832.766 1062.38 770.42C1065.68 754.73 1073.11 738.628 1086.73 729.957C1111.91 714.267 1146.17 728.718 1173.41 716.332C1201.89 703.532 1210.14 668.024 1214.27 637.057C1217.99 607.742 1220.87 578.84 1222.53 549.525C1224.18 523.1 1222.53 492.133 1201.06 477.682C1191.98 471.902 1181.25 469.838 1170.93 467.773C1109.02 454.974 1054.95 414.923 957.956 382.305L958.369 381.892Z" fill="#FF6640" stroke="black" stroke-width="20" stroke-miterlimit="10"/>
<path d="M781.715 862.081C782.128 849.694 781.715 843.088 787.906 832.353C794.097 821.618 806.48 813.36 818.862 816.25C838.674 821.205 841.563 846.804 853.946 862.081C867.566 879.422 892.744 883.551 911.318 895.938C915.445 898.828 919.159 902.131 920.81 906.673C923.699 915.344 915.857 924.014 907.602 928.556C899.347 933.098 889.855 935.988 884.076 943.007C875.409 953.742 878.71 968.606 879.536 982.232C880.361 995.857 874.17 1012.79 860.137 1013.2C842.389 1013.61 834.959 988.012 817.624 984.709C804.829 982.231 794.098 993.38 785.43 1002.46C776.762 1011.55 762.316 1020.22 751.585 1013.2C740.44 1005.77 744.156 988.838 751.173 978.102C758.189 967.367 768.095 955.807 765.206 943.007C761.491 926.905 738.79 918.234 739.203 901.718C739.203 891.809 748.284 884.377 757.777 880.248C767.27 876.119 777.175 873.642 781.715 867.861V862.081Z" fill="white" stroke="black" stroke-width="20" stroke-miterlimit="10"/>
<path d="M840.806 929.958C843.307 920.241 838.176 910.521 829.346 908.246C820.516 905.972 811.33 912.004 808.829 921.721C806.328 931.437 811.459 941.157 820.289 943.431C829.119 945.706 838.304 939.674 840.806 929.958Z" fill="black"/>
</svg>
