<svg width="1760" height="1760" viewBox="0 0 1760 1760" fill="none" xmlns="http://www.w3.org/2000/svg">
<rect width="1760" height="1760" fill="white"/>
<path d="M646.873 599.698C618.386 586.107 582.887 579.092 564.48 604.52C546.511 629.072 551.332 665.461 530.296 687.382C504.876 713.687 459.296 702.727 427.303 719.825C395.309 736.923 384.352 779.888 392.679 815.4C401.883 855.296 432.562 889.931 471.129 903.961C486.03 909.66 502.246 912.291 515.832 920.621C546.949 940.35 553.523 983.315 550.455 1019.7C547.388 1055.22 536.43 1092.92 507.505 1113.96C472.882 1138.95 416.784 1137.64 399.692 1177.1C394.871 1187.62 394.432 1199.89 394.87 1211.29C395.308 1249.43 401.883 1287.58 414.154 1323.53C417.66 1333.61 422.044 1344.57 430.371 1351.15C439.575 1358.6 451.408 1360.36 463.241 1361.67C529.419 1369.56 596.035 1375.7 662.213 1379.65C707.792 1382.28 754.248 1384.03 797.637 1370C809.908 1366.05 822.181 1360.79 831.384 1351.59C864.692 1318.71 842.34 1261.27 854.174 1216.12C868.198 1161.75 940.951 1132.38 988.722 1162.19C1027.73 1186.3 1043.94 1237.16 1082.51 1261.27C1117.13 1282.76 1164.9 1277.06 1198.21 1253.38C1231.52 1229.71 1251.24 1189.81 1257.82 1149.48C1262.2 1124.05 1261.32 1097.3 1251.24 1073.63C1237.66 1041.19 1208.29 1017.95 1186.38 990.329C1153.51 948.68 1136.42 894.316 1142.11 841.267C1147.81 788.218 1176.3 738.239 1219.69 707.549C1241.6 692.205 1266.58 681.683 1289.37 667.215C1327.94 642.663 1359.06 604.959 1372.2 561.117C1385.35 517.275 1378.78 466.857 1351.61 430.03C1344.16 419.946 1335.39 410.739 1323.56 405.917C1306.9 398.902 1287.62 402.848 1269.65 405.917C1222.76 413.808 1175.42 415.562 1128.09 412.054C1096.53 409.424 1064.98 408.547 1033.86 412.931C928.241 427.838 981.709 550.595 948.4 600.137C890.988 685.628 711.737 631.264 647.751 600.137L646.873 599.698Z" fill="#3EC790" stroke="#140202" stroke-width="20" stroke-miterlimit="10"/>
<path d="M848.475 997.783C816.044 1001.73 784.928 976.739 770.027 944.296C766.52 936.404 763.452 927.636 762.575 918.429C761.261 901.331 768.273 883.794 777.915 870.203C795.446 846.09 822.18 831.622 848.914 832.061C851.544 832.061 854.611 832.061 856.364 835.13C857.679 836.884 857.68 839.076 857.68 841.268C861.186 882.479 862.501 923.69 861.624 964.902C861.624 978.054 859.432 996.468 847.599 997.783H848.475Z" fill="white" stroke="black" stroke-width="20" stroke-miterlimit="10"/>
<path d="M857.325 917.031C858.524 907.908 853.66 899.745 846.46 898.798C839.261 897.851 832.453 904.479 831.254 913.602C830.055 922.724 834.919 930.886 842.119 931.833C849.318 932.78 856.126 926.153 857.325 917.031Z" fill="black"/>
</svg>
