<svg width="1760" height="1760" viewBox="0 0 1760 1760" fill="none" xmlns="http://www.w3.org/2000/svg">
<rect width="1760" height="1760" fill="white"/>
<path d="M794.157 349.606C756.702 335.555 718.31 324.784 678.982 317.29C669.619 315.417 659.319 314.011 649.955 315.884C619.991 321.973 608.286 357.568 597.518 386.606C578.79 435.783 546.017 479.34 503.88 511.188C472.043 535.074 435.055 552.403 405.091 579.568C340.013 638.58 322.691 743.96 365.296 821.238C387.301 861.048 422.883 892.428 445.356 931.769C467.829 970.643 476.725 1017.01 470.639 1061.5C467.83 1082.58 461.743 1103.19 461.275 1124.26C460.806 1145.34 467.361 1168.29 484.215 1180.93C497.793 1191.24 516.053 1192.64 532.908 1194.05C568.022 1196.86 603.605 1199.2 638.719 1202.01C677.11 1204.82 756.235 1215.59 801.181 1293.81C836.295 1354.22 902.778 1396.38 972.538 1397.31C1042.3 1398.25 1112.06 1357.03 1141.09 1293.34C1155.13 1261.96 1159.81 1226.36 1177.6 1196.39C1203.82 1151.89 1259.54 1185.62 1310.1 1195.45C1322.74 1197.79 1335.38 1202.48 1348.03 1199.67C1368.16 1194.98 1379.86 1173.91 1387.35 1154.71C1400.46 1122.86 1411.7 1086.33 1397.19 1054.95C1378.46 1014.67 1325.55 1002.02 1301.68 964.554C1278.73 928.491 1289.5 880.251 1308.23 841.846C1326.96 803.441 1352.71 766.909 1359.73 724.757C1363.01 702.745 1360.67 679.327 1348.03 660.592C1335.38 641.858 1311.51 631.087 1290.44 637.644C1277.33 641.859 1265.62 650.289 1257.2 660.592C1188.37 743.959 1152.79 736.466 1075.54 740.213C822.249 752.39 880.773 500.884 878.9 463.884C875.155 402.062 862.512 374.429 794.157 349.138V349.606Z" fill="#63B6FF" stroke="#140202" stroke-width="20" stroke-miterlimit="10"/>
<path d="M765.129 1102.72C827.867 1149.08 936.019 1104.59 986.115 1040.9C994.074 1030.59 1001.1 1019.35 1004.84 1007.17C1009.52 991.25 1008.59 974.858 1005.31 959.402C994.074 901.795 954.747 849.339 897.159 829.2C839.572 809.061 765.13 827.794 729.548 877.908C707.543 908.82 701.457 947.225 706.138 983.288C711.289 1018.88 713.629 1064.31 765.598 1102.72H765.129Z" fill="white" stroke="#140202" stroke-width="20" stroke-miterlimit="10"/>
<path d="M858.892 998.521C874.505 992.296 882.507 975.562 876.763 961.145C871.019 946.728 853.705 940.087 838.092 946.312C822.479 952.537 814.478 969.27 820.222 983.687C825.966 998.104 843.279 1004.75 858.892 998.521Z" fill="black"/>
</svg>
