<svg width="1760" height="1760" viewBox="0 0 1760 1760" fill="none" xmlns="http://www.w3.org/2000/svg">
<rect width="1760" height="1760" fill="white"/>
<path d="M683.658 629.725C644.872 590.925 574.856 573.793 519.952 578.831C503.329 580.343 485.698 583.871 473.106 594.453C450.942 612.593 448.424 644.337 440.365 671.547C428.276 714.378 400.068 751.161 379.416 790.968C358.764 830.775 346.172 879.652 365.817 919.46C393.017 974.383 473.107 998.065 479.151 1059.04C481.67 1083.22 471.092 1106.4 464.543 1129.58C457.995 1152.76 456.988 1180.98 474.114 1198.11C481.67 1205.67 492.248 1210.2 502.826 1213.73C583.42 1242.45 669.553 1250.51 755.184 1254.04C775.836 1255.05 875.067 1270.67 926.95 1334.16C946.091 1357.34 976.314 1369.43 1006.54 1370.44C1036.76 1371.45 1065.97 1363.38 1093.68 1351.79C1111.81 1344.24 1129.44 1335.17 1143.04 1321.56C1179.81 1284.27 1159.16 1207.68 1207.52 1187.02C1236.73 1174.43 1275.01 1183.5 1298.18 1161.33C1310.78 1149.23 1314.81 1130.59 1318.33 1112.95C1360.14 890.234 1370.22 750.657 1393.39 524.916C1394.9 510.303 1396.41 495.187 1390.87 481.582C1381.3 457.899 1354.1 447.317 1329.41 439.759C1303.72 431.697 1136.49 375.262 1078.57 554.141C1058.42 616.12 1070 796.511 953.646 823.217C892.194 837.326 826.207 832.286 780.37 788.952C762.74 772.828 714.384 660.965 683.658 630.228V629.725Z" fill="#424242" stroke="#140202" stroke-width="20" stroke-miterlimit="10"/>
<path d="M989.914 1120.51C1006.54 1119.5 1024.67 1117.99 1037.26 1111.44C1051.37 1103.88 1053.38 1092.8 1053.88 1083.22C1056.4 1041.9 1052.37 1001.09 1041.29 961.786C1038.77 953.22 1035.75 944.15 1026.18 937.6C1005.53 922.987 962.714 925.003 925.943 928.026C868.017 932.561 795.482 943.646 774.83 974.887C767.778 985.972 768.785 997.058 770.8 1007.64C776.34 1037.87 785.408 1068.11 798.505 1096.83C802.534 1105.39 807.068 1114.46 819.157 1119.5C831.246 1124.54 945.084 1123.03 989.914 1120.51Z" fill="white" stroke="black" stroke-width="20" stroke-miterlimit="10"/>
<path d="M928.228 1055.93C939.804 1054.34 947.263 1038.98 944.887 1021.61C942.512 1004.24 931.201 991.439 919.625 993.023C908.049 994.607 900.591 1009.97 902.966 1027.34C905.342 1044.71 916.651 1057.51 928.228 1055.93Z" fill="black"/>
</svg>
