<svg width="1760" height="1760" viewBox="0 0 1760 1760" fill="none" xmlns="http://www.w3.org/2000/svg">
<rect width="1760" height="1760" fill="white"/>
<path d="M825.901 371.913C741.03 380.711 760.818 477.489 752.463 509.601C744.108 541.714 723 588.783 693.537 604.619C655.719 625.295 609.107 610.778 578.324 640.691C557.217 661.367 555.897 682.922 538.307 706.676C525.555 724.712 499.61 766.062 490.816 786.298C475.864 821.49 514.562 850.523 439.805 1356.85C437.606 1370.48 439.805 1385.44 447.72 1396.88C460.473 1414.91 486.418 1416.23 508.845 1415.35C585.801 1412.71 662.756 1410.51 739.711 1407.87C752.464 1407.87 765.216 1406.99 776.65 1402.6C809.631 1389.84 823.263 1350.25 821.943 1315.06C820.624 1279.86 808.751 1245.99 808.311 1210.8C806.552 1135.14 864.158 1062.11 938.035 1045.84C960.462 1041 985.088 1041 1005.32 1051.56C1044.89 1071.79 1056.33 1123.7 1052.81 1168.13C1049.29 1212.56 1034.78 1256.55 1040.94 1300.98C1042.25 1311.1 1045.33 1322.09 1053.25 1329.13C1060.29 1335.29 1069.52 1337.49 1078.75 1339.69C1111.74 1346.73 1144.72 1352.45 1177.7 1357.73C1204.08 1361.68 1233.54 1364.32 1255.53 1348.93C1274 1335.73 1281.48 1312.42 1287.63 1290.42C1324.13 1154.05 1329.85 1009.33 1304.34 869.878C1295.99 823.249 1281.92 774.42 1246.3 743.627C1235.3 733.95 1222.11 726.472 1214.2 714.154C1202.76 696.998 1203.64 674.563 1204.52 654.328C1207.6 594.942 1212 543.473 1181.21 532.916C1155.71 524.118 1114.37 555.351 1059.85 555.351C1019.83 555.351 989.486 524.998 968.378 499.044C952.547 479.249 914.289 362.675 825.461 371.473L825.901 371.913Z" fill="#FF82C1" stroke="#140202" stroke-width="20" stroke-miterlimit="10"/>
<path d="M821.504 793.336C813.148 820.609 805.673 853.602 824.582 875.597C836.895 889.234 856.243 894.073 874.712 896.712C898.019 899.791 922.206 900.671 944.633 894.073C967.06 887.474 987.727 871.638 995.642 849.643C1004 826.329 996.962 800.814 988.167 777.94C971.897 735.269 949.03 693.919 912.971 665.326C909.014 662.246 904.615 659.167 899.778 657.847C888.784 654.768 876.911 662.246 870.755 671.484C864.598 680.722 830.738 761.663 821.063 793.336H821.504Z" fill="white" stroke="black" stroke-width="20" stroke-miterlimit="10"/>
<path d="M948.591 850.522C961.462 850.522 971.897 841.856 971.897 831.166C971.897 820.477 961.462 811.812 948.591 811.812C935.719 811.812 925.284 820.477 925.284 831.166C925.284 841.856 935.719 850.522 948.591 850.522Z" fill="#030005"/>
</svg>
