<svg width="1760" height="1760" viewBox="0 0 1760 1760" fill="none" xmlns="http://www.w3.org/2000/svg">
<rect width="1760" height="1760" fill="white"/>
<path d="M799.473 394.343C755.885 411.468 743.82 465.954 736.426 512.268C729.031 558.582 711.518 613.457 665.984 623.576C647.304 627.857 626.677 623.187 609.164 630.971C576.084 645.76 574.528 690.517 564.409 725.155C551.566 769.522 518.485 804.939 493.578 843.858C468.67 882.777 451.935 934.539 474.897 974.626C491.632 1003.43 523.933 1018.6 548.841 1041.18C622.785 1108.12 617.726 1226.04 669.487 1311.27C691.67 1347.47 729.811 1379.38 771.842 1375.1C813.485 1370.82 843.451 1333.85 864.078 1297.26C884.704 1260.68 902.217 1219.82 936.854 1196.46C1003.4 1151.32 1099.92 1190.24 1169.97 1150.54C1190.99 1138.86 1208.5 1118.24 1209.28 1094.11C1210.45 1054.8 1169.19 1030.67 1142.73 1001.48C1110.04 965.674 1100.7 902.236 1138.06 871.101C1171.53 843.468 1223.68 853.587 1260.65 831.014C1296.46 809.22 1308.13 756.29 1285.17 721.652C1256.76 678.841 1196.44 674.56 1145.45 678.841C1094.47 683.122 1037.26 689.739 997.177 658.214C953.978 624.355 949.307 562.473 941.135 508.376C932.962 454.279 900.271 354.646 800.252 393.954L799.473 394.343Z" fill="#E6E1E1" stroke="black" stroke-width="20" stroke-miterlimit="10"/>
<path d="M781.57 969.177C769.895 974.625 744.208 966.452 727.084 951.663C700.62 929.09 690.5 889.393 703.343 856.701C716.186 824.009 750.434 801.825 785.071 802.993C787.017 802.993 788.964 802.993 790.91 804.16C793.245 805.717 794.022 808.441 794.801 810.777C810.368 866.82 799.081 960.615 781.957 968.398L781.57 969.177Z" fill="#FAFCFF" stroke="black" stroke-width="20" stroke-miterlimit="10"/>
<path d="M749.657 897.955C752.237 897.955 754.328 895.341 754.328 892.117C754.328 888.893 752.237 886.279 749.657 886.279C747.078 886.279 744.987 888.893 744.987 892.117C744.987 895.341 747.078 897.955 749.657 897.955Z" fill="black" stroke="black" stroke-width="20" stroke-miterlimit="10"/>
</svg>
