<svg width="1760" height="1760" viewBox="0 0 1760 1760" fill="none" xmlns="http://www.w3.org/2000/svg">
<rect width="1760" height="1760" fill="white"/>
<path d="M853.337 351.603C820.299 338.955 781.551 353.643 758.302 380.164C735.053 406.685 725.672 442.591 723.224 478.089C720.777 513.586 724.448 548.676 724.448 583.765C724.448 602.942 722.817 623.751 711.397 639.255C702.832 651.088 689.371 658.432 675.911 663.737C651.846 673.937 625.742 679.649 599.638 680.873C552.325 682.913 503.381 669.448 458.922 686.177C449.541 689.441 440.16 694.745 435.673 703.314C431.187 711.066 431.594 720.859 432.818 729.835C437.712 767.781 484.21 886.106 466.264 1049.72C458.514 1120.72 455.251 1196.61 487.881 1260.26C514.393 1312.08 562.93 1350.43 616.361 1373.69C658.373 1392.05 704.462 1402.25 749.736 1396.94C784.813 1392.86 819.076 1379.81 847.627 1358.59C880.257 1334.52 909.623 1299.43 950.003 1296.98C988.343 1294.53 1020.57 1321.87 1052.38 1343.09C1083.79 1364.3 1119.27 1381.03 1156.8 1386.34C1194.32 1391.64 1234.7 1384.3 1265.29 1361.45C1300.37 1335.33 1318.31 1291.67 1325.25 1248.43C1330.55 1215.38 1329.33 1179.47 1311.38 1151.32C1295.07 1126.43 1267.74 1110.92 1248.16 1088.07C1226.95 1063.59 1216.75 1031.77 1207.37 1000.76C1166.18 859.177 1144.97 711.882 1144.56 564.588C1144.56 552.348 1144.56 538.883 1136.81 529.499C1130.28 520.93 1119.27 517.258 1108.67 516.034C1058.91 509.506 1003.03 544.595 961.016 517.258C909.216 483.393 932.464 383.02 852.928 352.011L853.337 351.603Z" fill="#FF6640" stroke="#08000D" stroke-width="20" stroke-miterlimit="10"/>
<path d="M804.392 823.679C863.534 716.779 936.136 797.158 938.991 891.002C943.477 1047.27 835.798 1047.27 802.352 1014.63C757.894 971.381 780.327 867.337 804.799 823.679H804.392Z" fill="white" stroke="#140202" stroke-width="20" stroke-miterlimit="10"/>
<path d="M928.538 905.692C930.487 892.541 925.021 880.834 916.331 879.545C907.641 878.257 899.016 887.875 897.068 901.027C895.119 914.178 900.585 925.884 909.275 927.172C917.965 928.461 926.59 918.844 928.538 905.692Z" fill="black"/>
</svg>
