<svg width="1760" height="1760" viewBox="0 0 1760 1760" fill="none" xmlns="http://www.w3.org/2000/svg">
<rect width="1760" height="1760" fill="white"/>
<path d="M832.557 381.643C794.518 363.736 761.513 387.798 747.528 420.814C733.543 453.829 739.138 491.322 741.375 527.135C743.613 562.949 741.375 602.68 717.88 628.98C705.014 642.97 686.555 651.923 668.095 657.519C595.374 679.903 517.618 659.757 441.54 657.519C426.996 657.519 410.774 658.079 401.264 668.711C393.992 677.105 392.873 688.856 392.314 699.488C387.838 810.287 431.471 922.204 509.786 1001.11C530.484 1021.81 553.419 1040.84 569.642 1065.46C606.562 1122.54 596.493 1198.08 575.796 1262.99C565.727 1294.89 553.42 1331.26 570.202 1360.36C589.221 1393.94 635.091 1398.41 673.689 1398.41C732.426 1398.41 790.602 1397.29 849.338 1395.06C886.258 1393.94 924.296 1391.7 957.86 1376.59C991.424 1361.48 1020.51 1330.7 1022.75 1293.77C1024.43 1265.79 1010.44 1239.49 997.018 1214.87C983.033 1189.13 969.049 1162.83 955.064 1137.09C937.163 1104.63 919.821 1064.34 938.281 1032.44C953.944 1005.58 989.745 996.629 1019.95 1002.78C1077.57 1014.54 1120.08 1076.09 1110.57 1134.29C1107.22 1156.67 1097.15 1181.85 1110.01 1200.88C1121.2 1217.67 1144.14 1221.02 1164.28 1221.58C1192.25 1222.7 1219.66 1222.7 1247.62 1221.58C1277.27 1220.46 1309.72 1217.11 1330.42 1195.84C1349.43 1176.82 1353.91 1148.28 1356.71 1121.98C1365.1 1041.4 1365.1 960.256 1356.71 879.675C1353.91 853.375 1349.99 825.955 1334.89 804.131C1314.19 774.473 1277.83 761.603 1246.51 744.255C1176.58 705.084 1124 635.696 1104.98 557.353C1099.39 534.97 1092.67 401.228 1070.3 406.824C956.182 434.803 913.108 419.135 833.115 381.083L832.557 381.643Z" fill="#63B6FF" stroke="black" stroke-width="20" stroke-miterlimit="10"/>
<path d="M778.296 785.105C767.667 819.8 758.156 861.768 782.21 889.748C797.873 907.095 822.487 913.251 845.982 916.609C875.63 920.526 906.396 921.645 934.925 913.251C963.454 904.857 989.746 884.712 999.815 856.732C1010.44 827.074 1001.49 794.619 990.304 765.52C969.607 711.24 940.519 658.638 894.649 622.265C889.614 618.348 884.021 614.431 877.868 612.752C863.883 608.835 848.779 618.348 840.947 630.099C833.116 641.85 790.042 744.815 777.736 785.105H778.296Z" fill="white" stroke="black" stroke-width="20" stroke-miterlimit="10"/>
<path d="M841.507 745.934C857.881 745.934 871.154 734.91 871.154 721.312C871.154 707.713 857.881 696.69 841.507 696.69C825.133 696.69 811.857 707.713 811.857 721.312C811.857 734.91 825.133 745.934 841.507 745.934Z" fill="#030005"/>
</svg>
