<svg width="1760" height="1760" viewBox="0 0 1760 1760" fill="none" xmlns="http://www.w3.org/2000/svg">
<rect width="1760" height="1760" fill="white"/>
<path d="M712.712 547.931C709.679 508.062 701.448 469.494 654.662 456.06C619.139 446.092 581.45 472.527 545.061 466.46C529.899 463.86 515.603 455.626 500.007 454.759C472.282 453.459 449.322 476.427 434.593 500.695C391.272 572.633 391.706 662.337 402.536 745.542C410.767 808.812 426.362 875.983 473.149 918.885C513.437 955.72 573.652 972.621 598.345 1021.59C610.474 1045.86 611.774 1074.03 612.208 1100.9C613.507 1142.06 614.374 1183.23 615.674 1224.4C616.54 1248.67 617.406 1273.37 628.236 1295.04C651.629 1340.54 710.112 1352.68 760.797 1359.18C856.535 1371.31 952.708 1380.84 1048.88 1388.21C1103.03 1392.11 1158.48 1395.14 1210.03 1378.68C1261.58 1362.21 1308.8 1320.61 1316.17 1266.87C1324.83 1205.33 1281.08 1148.56 1233.86 1107.83C1194.87 1074.46 1149.38 1043.69 1131.62 995.59C1117.33 957.021 1123.39 914.118 1135.52 875.116C1144.19 846.948 1157.18 817.913 1182.31 801.879C1218.26 778.911 1268.08 790.178 1305.34 768.943C1341.29 748.575 1355.59 703.507 1360.36 662.338C1369.89 585.633 1358.19 527.997 1327.86 456.493C1318.77 435.258 1293.21 390.623 1260.28 380.222C1242.52 374.589 1217.4 378.055 1198.77 378.055C1092.2 378.055 1031.55 371.555 996.029 415.324C960.506 459.093 996.029 506.329 978.267 557.465C951.842 635.903 879.496 661.904 820.147 652.804C765.996 644.57 715.745 599.068 711.846 547.498L712.712 547.931Z" fill="#3EC790" stroke="black" stroke-width="20" stroke-miterlimit="10"/>
<path d="M781.591 1018.99C780.291 1036.32 779.424 1055.83 784.19 1070.13C789.388 1085.73 798.919 1089.63 807.583 1091.79C844.406 1100.46 882.095 1102.19 918.917 1096.13C927.148 1094.83 935.379 1093.09 942.743 1083.99C958.339 1064.06 961.805 1018.99 963.538 979.554C966.57 917.584 965.27 839.581 939.711 813.579C930.613 804.479 920.65 804.045 910.686 804.478C882.528 805.778 854.37 811.412 826.644 820.946C818.413 823.98 809.749 827.446 803.251 839.58C796.753 851.714 784.623 972.188 781.157 1019.42L781.591 1018.99Z" fill="white" stroke="black" stroke-width="20" stroke-miterlimit="10"/>
<path d="M814.515 986.488C829.349 986.488 841.373 970.967 841.373 951.82C841.373 932.673 829.349 917.152 814.515 917.152C799.681 917.152 787.656 932.673 787.656 951.82C787.656 970.967 799.681 986.488 814.515 986.488Z" fill="black"/>
</svg>
