<svg width="1760" height="1760" viewBox="0 0 1760 1760" fill="none" xmlns="http://www.w3.org/2000/svg">
<rect width="1760" height="1760" fill="white"/>
<path d="M745.141 646.027L738.525 495.527C737.643 478.213 736.761 460.454 728.381 445.804C708.093 409.844 656.931 408.956 616.355 417.391C608.857 418.723 601.36 420.943 596.067 426.271C590.774 431.598 589.451 439.589 588.569 447.136C583.276 497.746 595.185 548.801 594.302 599.412C593.42 650.022 575.338 706.404 530.352 729.046C492.863 747.692 443.906 739.701 410.827 765.45C394.508 777.881 384.805 796.971 376.426 816.061C360.989 852.465 349.522 893.308 360.107 931.932C368.487 963.453 390.098 989.202 412.15 1012.73C469.045 1074.44 535.643 1137.04 544.464 1220.5C548.433 1257.79 542.7 1302.63 571.809 1326.61C588.568 1340.37 611.945 1341.7 633.556 1341.7C696.626 1342.59 760.136 1341.7 823.205 1337.7C855.843 1335.93 889.362 1332.82 919.353 1320.83C949.344 1308.85 977.131 1284.87 986.393 1253.35C994.332 1226.72 988.157 1198.3 986.393 1170.33C983.747 1128.16 991.245 1083.32 1019.47 1051.8C1047.7 1020.28 1098.86 1008.29 1132.38 1033.6C1181.78 1070.89 1163.69 1153.91 1203.39 1201.41C1224.56 1226.72 1259.84 1237.37 1292.92 1236.48C1318.94 1236.04 1346.73 1228.05 1363.49 1208.07C1383.33 1184.54 1383.33 1150.36 1382.89 1119.72C1380.25 1019.83 1378.04 919.501 1375.39 819.612C1374.95 797.415 1374.07 774.773 1363.93 755.239C1343.64 715.727 1292.48 703.297 1247.93 704.184C1203.39 705.072 1157.52 713.507 1115.62 697.969C1090.48 688.646 1067.54 670.444 1040.64 668.668C1026.97 667.78 1013.3 671.776 1000.51 675.772C956.401 689.534 913.179 706.848 867.31 709.068C821.441 711.288 747.786 702.409 745.581 646.027H745.141Z" fill="#FFD58C" stroke="black" stroke-width="20" stroke-miterlimit="10"/>
<path d="M802.034 869.335C802.034 862.232 795.861 856.46 789.245 857.348C769.839 859.124 731.909 863.12 712.062 871.999C684.276 884.873 659.577 909.291 653.402 940.812C651.197 951.91 651.197 963.453 652.52 974.996C654.726 995.862 660.9 1017.17 674.131 1032.71C686.922 1047.36 705.004 1056.24 723.528 1060.23C738.524 1063.34 788.363 1062.01 806.005 1061.12C809.533 1061.12 812.179 1057.57 812.179 1054.02L802.034 869.779V869.335Z" fill="white" stroke="black" stroke-width="20" stroke-miterlimit="10"/>
<path d="M782.232 973.637C789.54 973.637 795.463 967.674 795.463 960.319C795.463 952.963 789.54 947 782.232 947C774.925 947 769 952.963 769 960.319C769 967.674 774.925 973.637 782.232 973.637Z" fill="black" stroke="#140202" stroke-width="20" stroke-miterlimit="10"/>
</svg>
