<svg width="1760" height="1760" viewBox="0 0 1760 1760" fill="none" xmlns="http://www.w3.org/2000/svg">
<rect width="1760" height="1760" fill="white"/>
<path d="M805.235 347.747C769.49 320.034 735.084 304.837 680.125 322.716C616.677 343.277 601.931 393.785 594.782 438.483C587.633 481.392 600.591 528.325 580.038 566.318C573.782 577.939 564.399 588.219 559.484 601.182C554.569 614.144 555.016 628.447 555.463 642.303C559.931 754.941 564.399 868.026 568.42 980.663C569.314 1003.91 570.207 1027.6 564.399 1050.39C558.59 1073.19 544.292 1094.64 522.845 1104.03C512.121 1108.95 500.057 1110.29 489.333 1114.76C453.588 1130.85 443.757 1175.99 438.395 1215.33C432.587 1257.79 430.354 1309.19 464.759 1335.56C480.844 1347.63 501.398 1351.21 521.505 1354.33C563.506 1360.59 605.506 1365.06 647.954 1368.64C670.295 1370.43 693.53 1371.77 714.084 1362.38C741.34 1350.31 758.318 1321.71 765.468 1293.1C772.617 1264.49 773.063 1234.1 776.191 1204.6C783.787 1138.89 814.171 1070.51 873.151 1041.45C895.939 1030.28 924.088 1025.81 946.876 1037.43C1001.83 1064.69 991.559 1157.67 1045.18 1187.61C1059.03 1195.21 1075.11 1197 1090.75 1198.79C1130.07 1202.81 1169.39 1205.49 1209.16 1206.83C1225.69 1207.28 1242.67 1207.73 1257.86 1201.47C1288.69 1189.4 1304.78 1155.43 1313.27 1123.25C1332.48 1054.41 1330.69 975.3 1288.25 917.193C1270.82 893.503 1247.59 874.284 1230.16 850.594C1184.58 789.805 1205.59 699.516 1248.93 636.94C1258.76 622.637 1271.27 609.227 1276.63 592.689C1281.99 576.151 1277.52 554.249 1261.44 547.097C1254.29 543.968 1246.25 544.416 1238.2 544.416C1164.03 547.544 1067.07 545.309 992.898 538.605C959.387 535.476 907.109 539.052 882.534 516.256C837.852 474.687 888.79 413.452 803.895 348.64L805.235 347.747Z" fill="#2667FF" stroke="#140202" stroke-width="20" stroke-miterlimit="10"/>
<path d="M995.579 755.388C1002.28 768.35 995.58 798.745 979.942 819.306C956.26 851.488 911.131 865.791 873.151 853.722C835.172 841.654 806.575 804.108 805.681 763.881C805.681 761.646 805.682 759.41 806.576 757.176C807.916 754.494 811.043 753.153 814.171 752.259C877.172 729.911 985.302 735.721 995.579 754.941V755.388Z" fill="#FAFCFF" stroke="black" stroke-width="20" stroke-miterlimit="10"/>
<path d="M913.365 809.472C919.534 809.472 924.535 804.47 924.535 798.298C924.535 792.127 919.534 787.124 913.365 787.124C907.196 787.124 902.194 792.127 902.194 798.298C902.194 804.47 907.196 809.472 913.365 809.472Z" fill="black" stroke="#140202" stroke-width="20" stroke-miterlimit="10"/>
</svg>
