<svg width="1760" height="1760" viewBox="0 0 1760 1760" fill="none" xmlns="http://www.w3.org/2000/svg">
<rect width="1760" height="1760" fill="white"/>
<path d="M462.573 456.083C428.842 476.329 411.014 503.322 396.558 539.956C382.102 577.555 368.61 619.491 380.656 658.053C393.666 699.025 431.251 726.019 458.717 758.315C504.975 812.784 524.25 888.944 508.831 958.838C498.23 1008 471.728 1058.14 488.111 1105.37C497.748 1133.33 520.395 1154.54 543.042 1173.34C594.119 1215.28 649.533 1251.43 708.802 1280.35C722.294 1287.1 736.751 1293.85 752.17 1294.33C772.408 1295.29 791.199 1286.13 808.064 1274.57C849.504 1245.64 878.416 1202.26 917.928 1170.93C955.995 1140.56 1003.22 1122.24 1051.4 1118.87C1078.39 1116.94 1106.82 1119.84 1128.98 1135.26C1164.64 1159.84 1174.76 1207.08 1198.37 1243.72C1221.02 1278.9 1258.6 1304.45 1299.56 1313.13C1329.44 1319.39 1362.68 1316.02 1387.74 1299.15C1409.91 1284.21 1424.36 1259.62 1434.48 1234.56C1453.27 1187.8 1458.57 1132.37 1434 1088.5C1422.92 1069.22 1407.02 1053.32 1394.49 1035C1354.01 977.637 1347.27 901.959 1357.38 832.547C1367.5 763.135 1392.08 696.615 1408.94 628.167C1414.24 607.44 1418.1 584.303 1407.98 565.022C1398.82 547.669 1379.55 538.028 1361.72 530.316C1312.09 508.625 1261.01 491.272 1208.49 478.257C1201.74 476.329 1194.52 474.883 1188.25 478.257C1180.54 481.631 1175.72 586.231 1150.67 626.721C1122.72 672.514 1042.73 700.472 988.761 699.025C842.758 694.205 895.763 640.7 836.976 540.438C796.018 470.544 515.095 423.306 462.09 455.12L462.573 456.083Z" fill="#B0FCA4" stroke="#140202" stroke-width="20" stroke-miterlimit="10"/>
<path d="M1032.13 900.031C1039.84 914.009 1032.13 946.787 1015.26 968.96C989.725 1003.67 941.539 1019.57 900.099 1006.56C858.659 993.544 828.303 953.054 826.857 910.154C826.857 907.743 826.857 905.333 827.82 902.923C829.266 900.03 832.639 898.584 836.012 897.62C903.955 873.519 1020.56 879.303 1031.65 900.031H1032.13Z" fill="#FAFCFF" stroke="black" stroke-width="20" stroke-miterlimit="10"/>
<path d="M936.238 927.024C942.891 927.024 948.284 921.629 948.284 914.974C948.284 908.318 942.891 902.923 936.238 902.923C929.585 902.923 924.191 908.318 924.191 914.974C924.191 921.629 929.585 927.024 936.238 927.024Z" fill="black" stroke="#140202" stroke-width="20" stroke-miterlimit="10"/>
</svg>
