<svg width="1760" height="1760" viewBox="0 0 1760 1760" fill="none" xmlns="http://www.w3.org/2000/svg">
<rect width="1760" height="1760" fill="white"/>
<path d="M910.987 364.552C849.895 348.445 795.908 411.927 756.601 461.197C717.294 510.466 678.933 565.894 619.735 588.16C587.532 600.478 548.698 602.846 525.966 628.903C501.34 656.38 505.129 698.543 504.182 735.495C502.761 801.346 481.449 865.302 469.61 930.205C457.77 995.108 456.349 1066.17 490.447 1122.55C515.074 1163.29 558.169 1196.45 562.905 1244.3C579.48 1411.53 709.716 1395.9 775.07 1395.9C846.107 1395.9 1073.43 1423.38 1048.33 1319.62C1042.64 1295.94 1027.49 1276.04 1018.49 1253.77C1001.92 1212.56 1009.02 1162.34 1038.38 1129.18C1067.74 1096.02 1118.42 1082.75 1159.14 1100.28C1192.77 1114.49 1220.71 1147.18 1257.18 1145.29C1294.59 1143.39 1319.21 1105.49 1332.95 1070.43C1351.42 1024.01 1362.78 974.737 1366.1 924.994C1367.99 899.412 1367.52 872.882 1358.52 848.247C1341 801.82 1295.54 772.447 1250.55 751.603C1205.56 730.758 1156.78 714.651 1120.31 681.015C1035.54 601.899 1009.02 390.608 910.987 364.552Z" fill="#B7ABFF" stroke="#140202" stroke-width="20" stroke-miterlimit="10"/>
<path d="M786.435 887.094C777.437 916.466 769.386 951.998 789.75 975.685C803.01 990.371 823.849 995.582 843.739 998.425C868.839 1001.74 894.886 1002.69 919.038 995.583C943.191 988.476 965.449 971.421 973.974 947.734C982.972 922.625 975.394 895.148 965.922 870.514C948.4 824.56 923.774 780.027 884.94 749.234C880.678 745.918 875.941 742.601 870.732 741.18C858.892 737.864 846.107 745.918 839.477 755.867C832.847 765.816 796.381 852.984 785.962 887.094H786.435Z" fill="white" stroke="black" stroke-width="20" stroke-miterlimit="10"/>
<path d="M865.524 789.976C879.386 789.976 890.623 780.644 890.623 769.132C890.623 757.619 879.386 748.287 865.524 748.287C851.661 748.287 840.424 757.619 840.424 769.132C840.424 780.644 851.661 789.976 865.524 789.976Z" fill="#030005"/>
</svg>
