<svg width="1760" height="1760" viewBox="0 0 1760 1760" fill="none" xmlns="http://www.w3.org/2000/svg">
<rect width="1760" height="1760" fill="white"/>
<path d="M701.34 603.27C690.262 603.27 679.566 607.855 669.251 612.441C651.679 620.848 623.41 631.931 614.242 649.127C602.017 672.82 633.724 698.041 637.544 724.027C658.554 874.974 597.051 961.339 548.536 965.16C517.593 967.835 480.538 926.181 449.213 923.506C402.226 919.685 368.226 944.525 360.586 978.153C352.946 1011.78 353.329 1048.47 373.576 1085.15C386.946 1109.61 400.697 1135.6 425.146 1149.35C442.337 1158.91 462.202 1162.35 482.066 1164.26C549.682 1171.14 619.59 1158.53 680.711 1129.1C726.935 1106.94 776.596 1074.07 825.494 1090.12C862.931 1102.35 885.47 1139.8 915.266 1165.79C970.276 1213.17 1057.37 1217.76 1116.97 1176.49C1130.34 1167.31 1142.94 1155.47 1149.06 1140.56C1157.08 1121.08 1154.02 1098.53 1152.11 1077.51C1149.82 1051.14 1149.82 1024.01 1158.22 998.789C1166.63 973.567 1184.58 950.639 1209.41 941.085C1245.32 927.71 1286.2 944.142 1322.87 933.442C1352.67 924.653 1375.21 898.285 1385.52 868.86C1395.84 839.435 1395.45 807.335 1391.25 776.381C1385.9 737.021 1374.44 697.659 1351.9 664.795C1335.48 641.102 1313.7 621.995 1292.31 602.888C1253.73 568.495 1215.14 534.102 1176.94 500.091C1158.61 484.041 1140.27 467.227 1118.11 456.909C1095.96 446.591 1069.6 442.769 1047.44 453.087C1016.12 467.227 992.432 503.913 985.174 537.541C966.837 622.377 945.063 716.003 841.156 716.003C737.249 716.003 717.384 603.652 700.958 603.27H701.34Z" fill="#E6E1E1" stroke="#08000D" stroke-width="20" stroke-miterlimit="10"/>
<path d="M914.121 935.736C913.357 948.346 912.975 962.486 915.649 972.804C918.705 984.268 924.053 986.942 929.019 988.471C950.412 994.968 971.804 995.732 993.197 991.528C997.781 990.764 1002.75 989.236 1006.95 982.739C1016.12 968.6 1018.03 935.735 1019.17 907.457C1020.7 862.746 1020.32 806.57 1005.42 787.845C1000.07 781.349 994.343 780.967 988.613 781.349C972.568 782.495 956.142 786.317 940.098 793.195C935.514 795.106 930.165 797.781 926.727 806.571C923.289 815.36 916.031 902.107 914.121 936.118V935.736Z" fill="white" stroke="black" stroke-width="20" stroke-miterlimit="10"/>
<path d="M935.513 908.603C947.75 908.603 957.669 899.193 957.669 887.585C957.669 875.977 947.75 866.567 935.513 866.567C923.276 866.567 913.356 875.977 913.356 887.585C913.356 899.193 923.276 908.603 935.513 908.603Z" fill="black"/>
</svg>
