<svg width="1760" height="1760" viewBox="0 0 1760 1760" fill="none" xmlns="http://www.w3.org/2000/svg">
<rect width="1760" height="1760" fill="white"/>
<path d="M857.896 544.635C815.768 541.264 810.712 521.878 786.699 518.928C762.686 515.978 736.565 519.771 717.607 534.521C705.39 544.214 696.543 557.699 683.484 566.128C664.104 579.192 635.879 581.299 624.926 601.528C619.028 612.907 620.291 626.393 621.976 639.036C628.296 684.551 637.564 730.487 631.666 776.002C625.768 821.516 601.333 867.874 558.784 885.152C533.928 895.267 505.701 894.424 479.16 896.11C452.619 897.795 423.55 904.117 405.435 924.345C387.741 944.153 384.793 973.232 383.529 999.782C381.422 1038.55 384.372 1083.65 415.547 1106.83C431.134 1118.2 450.514 1121.58 469.471 1124.53C524.66 1133.8 579.426 1142.65 634.614 1151.92C684.326 1160.35 740.778 1167.09 780.8 1136.33C826.72 1101.35 834.304 1029.28 883.173 998.518C923.617 973.232 983.859 990.932 1004.5 1033.92C1021.78 1070.16 1015.46 1120.73 1048.74 1143.07C1062.64 1152.34 1079.91 1153.6 1096.34 1154.45C1164.59 1157.82 1233.26 1155.29 1301.09 1146.44C1323.84 1143.49 1347.85 1139.28 1364.7 1123.26C1379.87 1109.35 1386.19 1088.7 1392.51 1069.32C1402.2 1037.29 1411.46 1000.62 1393.35 972.389C1374.81 944.153 1336.9 937.831 1303.19 933.617C1269.49 929.403 1231.58 921.817 1214.72 892.317C1207.56 879.252 1205.88 864.081 1205.03 849.33C1200.82 774.316 1217.67 699.301 1210.93 624.286C1209.67 608.693 1206.72 592.257 1197.03 580.035C1176.81 553.907 1137.21 556.857 1104.77 560.65C1033.99 568.236 892.02 546.743 857.896 544.214V544.635Z" fill="#3EC790" stroke="#08000D" stroke-width="20" stroke-miterlimit="10"/>
<path d="M874.747 840.481C873.904 854.388 873.483 869.981 876.432 881.36C879.803 894.003 885.7 896.953 891.176 898.638C914.768 905.803 938.361 906.646 961.953 902.01C967.009 901.167 972.485 899.481 977.119 892.317C987.23 876.724 989.336 840.481 990.6 809.295C992.285 759.987 991.863 698.037 975.433 677.386C969.535 670.222 963.217 669.801 956.898 670.222C939.204 671.486 921.088 675.701 903.394 683.286C898.339 685.394 892.44 688.344 888.649 698.037C884.857 707.73 876.853 803.395 874.747 840.902V840.481Z" fill="white" stroke="black" stroke-width="20" stroke-miterlimit="10"/>
<path d="M898.338 810.138C911.833 810.138 922.772 799.76 922.772 786.959C922.772 774.157 911.833 763.78 898.338 763.78C884.843 763.78 873.904 774.157 873.904 786.959C873.904 799.76 884.843 810.138 898.338 810.138Z" fill="black"/>
</svg>
