<svg width="1760" height="1760" viewBox="0 0 1760 1760" fill="none" xmlns="http://www.w3.org/2000/svg">
<rect width="1760" height="1760" fill="white"/>
<path d="M451.019 428.002C414.44 417.812 368.6 433.561 357.951 475.249C345.449 522.495 396.382 572.056 415.83 607.722C470.931 709.162 451.483 759.187 443.149 856.921C439.907 893.05 437.129 942.613 437.129 978.279C437.129 1092.69 549.646 1088.06 581.595 1095C613.544 1101.95 644.568 1116.77 654.755 1146.42C668.183 1184.86 639.011 1235.81 668.182 1264.53C675.128 1271.48 684.851 1275.65 694.112 1278.89C770.512 1308.07 851.543 1321.51 933.037 1331.23C957.578 1334.01 983.047 1336.33 1007.12 1331.23C1031.2 1326.14 1054.82 1310.39 1063.61 1287.23C1070.56 1268.7 1068.24 1248.32 1066.85 1228.87C1065 1201.08 1066.86 1172.82 1070.56 1145.03C1071.49 1139.01 1072.88 1132.99 1076.58 1128.35C1081.21 1122.8 1089.08 1120.94 1096.03 1120.02C1169.19 1111.22 1233.08 1171.43 1306.24 1180.69C1318.28 1182.08 1330.32 1182.08 1341.9 1177.92C1358.57 1171.43 1370.14 1156.61 1380.33 1141.79C1402.09 1109.83 1419.69 1071.38 1412.28 1033.4C1397.92 958.361 1296.06 926.864 1278.92 852.29C1268.74 807.823 1302.08 749.46 1269.66 717.037C1237.25 684.613 1192.34 677.202 1165.02 676.275C1125.2 674.422 1089.08 712.868 1049.72 706.846C955.727 692.487 849.692 665.158 773.292 596.606C740.416 567.424 734.859 527.126 692.723 515.083C666.793 507.672 641.327 517.862 614.008 519.252C526.032 523.884 488.062 438.656 451.019 428.465V428.002Z" fill="#FFD58C" stroke="#08000D" stroke-width="20" stroke-miterlimit="10"/>
<path d="M938.593 860.627C949.706 870.817 953.411 902.778 946.003 928.253C933.964 968.088 895.532 998.195 854.322 999.585C813.112 1000.97 771.901 974.573 756.621 936.128C755.695 933.812 754.769 931.496 755.232 929.18C755.695 925.938 758.473 923.621 760.788 921.769C814.5 877.765 921.461 845.341 938.593 860.164V860.627Z" fill="#FAFCFF" stroke="black" stroke-width="20" stroke-miterlimit="10"/>
<path d="M852.469 905.556C858.862 905.556 864.045 900.372 864.045 893.976C864.045 887.581 858.862 882.396 852.469 882.396C846.076 882.396 840.893 887.581 840.893 893.976C840.893 900.372 846.076 905.556 852.469 905.556Z" fill="black" stroke="#140202" stroke-width="20" stroke-miterlimit="10"/>
</svg>
