<svg width="1760" height="1760" viewBox="0 0 1760 1760" fill="none" xmlns="http://www.w3.org/2000/svg">
<g clip-path="url(#clip0_10_158)">
<path d="M1760 0H0V1760H1760V0Z" fill="white"/>
<path d="M669.166 640.217C649.86 640.217 632.523 651.249 626.613 669.768C620.703 688.287 621.492 708.381 613.218 725.718C588.002 778.122 505.26 765.908 462.708 805.309C438.674 827.768 431.974 866.382 446.947 895.539C462.707 926.666 498.56 944.397 512.35 976.312C531.263 1021.23 499.744 1076.39 521.02 1120.52C539.932 1159.92 590.759 1170.17 634.493 1169.38C678.228 1168.59 725.114 1162.29 762.151 1185.14C790.913 1202.87 807.857 1234.79 820.071 1266.31C832.285 1297.83 840.559 1331.32 859.077 1359.69C877.595 1388.06 908.721 1411.3 942.606 1408.15C962.306 1406.18 980.037 1395.94 994.615 1382.94C1042.29 1339.99 1054.9 1263.16 1023.77 1207.2C1006.83 1176.47 979.247 1153.22 953.637 1129.58C928.026 1105.94 902.416 1079.54 891.778 1046.05C881.139 1012.56 889.022 970.796 918.572 952.277C933.15 943.215 950.486 940.85 967.428 940.456C1007.22 939.274 1051.74 950.307 1072.63 984.192C1087.6 1008.23 1088.39 1039.75 1106.91 1061.03C1128.58 1085.45 1168.77 1086.24 1196.74 1069.3C1224.71 1052.36 1241.66 1021.62 1250.72 990.496C1264.51 943.215 1262.93 891.599 1245.99 845.105C1231.81 806.097 1207.77 771.424 1194.38 732.416C1182.95 699.319 1179.01 662.282 1155.76 635.883C1114.78 588.601 1032.04 595.693 995.401 545.259C974.125 516.102 975.701 477.094 971.367 441.633C967.033 406.172 950.88 365.194 915.814 357.314C876.413 348.251 840.952 387.653 831.102 427.054C821.252 466.456 825.586 509.01 811.796 547.229C799.188 583.084 801.156 639.823 669.952 639.823L669.166 640.217Z" fill="#FCFFA6" stroke="black" stroke-width="20" stroke-miterlimit="10"/>
<path d="M626.218 914.45C589.181 936.909 589.182 1002.32 612.429 1041.32C616.369 1047.63 620.702 1053.54 626.218 1057.87C633.704 1063.39 642.373 1066.15 651.435 1068.12C684.137 1074.03 720.386 1064.57 742.844 1038.96C765.303 1013.35 771.212 971.189 752.3 942.032C740.874 924.301 721.568 913.268 701.474 908.146C681.38 903.024 658.133 895.144 626.218 914.45Z" fill="white" stroke="black" stroke-width="20" stroke-miterlimit="10"/>
<path d="M680.196 1023.2C682.807 1023.2 684.924 1020.56 684.924 1017.29C684.924 1014.03 682.807 1011.38 680.196 1011.38C677.584 1011.38 675.468 1014.03 675.468 1017.29C675.468 1020.56 677.584 1023.2 680.196 1023.2Z" fill="black" stroke="black" stroke-width="15" stroke-miterlimit="10"/>
</g>
<defs>
<clipPath id="clip0_10_158">
<rect width="1760" height="1760" fill="white"/>
</clipPath>
</defs>
</svg>
