<svg width="1760" height="1760" viewBox="0 0 1760 1760" fill="none" xmlns="http://www.w3.org/2000/svg">
<rect width="1760" height="1760" fill="white"/>
<path d="M1039.93 519.772C1036.32 485.132 1034.88 436.059 986.545 395.646C889.154 313.377 702.312 379.769 609.971 389.872C597.707 391.316 584.723 392.759 574.623 399.976C560.195 410.079 553.699 428.12 548.649 444.718C524.121 529.153 508.974 628.02 560.194 699.464C603.478 760.084 713.132 791.838 726.839 898.644C744.874 1035.76 601.312 1114.42 625.84 1239.99C642.433 1326.59 787.437 1381.43 1037.77 1395.87C1116.4 1400.2 1203.69 1401.64 1261.4 1348.24C1303.96 1308.55 1319.12 1246.48 1314.07 1188.75C1300.36 1017 1192.15 967.201 1123.61 884.932C1009.63 747.816 1046.42 595.546 1039.21 520.493L1039.93 519.772Z" fill="#FFE0F6" stroke="#140202" stroke-width="20" stroke-miterlimit="10"/>
<path d="M896.366 531.318C908.63 542.864 912.958 578.947 905.022 607.814C892.758 652.557 850.917 685.752 806.19 687.196C761.462 688.639 716.736 658.329 699.423 615.03C698.701 612.865 697.257 609.978 697.978 607.091C697.978 603.483 701.587 601.318 703.751 598.432C761.464 549.359 878.331 513.997 896.366 530.595V531.318Z" fill="#FAFCFF" stroke="black" stroke-width="20" stroke-miterlimit="10"/>
<path d="M821.342 655.443C831.303 655.443 839.377 647.366 839.377 637.402C839.377 627.438 831.303 619.36 821.342 619.36C811.382 619.36 803.307 627.438 803.307 637.402C803.307 647.366 811.382 655.443 821.342 655.443Z" fill="black" stroke="#140202" stroke-width="20" stroke-miterlimit="10"/>
</svg>
