<svg width="1760" height="1760" viewBox="0 0 1760 1760" fill="none" xmlns="http://www.w3.org/2000/svg">
<rect width="1760" height="1760" fill="white"/>
<path d="M822 622.752C790.546 623.492 769.528 600.549 742.144 585.377C647.784 532.459 611.52 631.263 585.617 660.867C553.793 696.392 513.459 723.036 477.565 754.49C441.67 785.945 409.477 825.91 403.186 873.277C396.155 926.194 422.428 977.261 428.349 1030.18C437.23 1106.04 404.666 1180.79 402.816 1257.02C402.076 1284.77 405.776 1313.27 419.098 1337.32C432.419 1361.38 456.102 1380.99 483.855 1383.95C521.229 1387.65 554.903 1361 579.696 1332.51C604.489 1304.02 627.431 1271.45 661.845 1256.28C720.682 1230.38 767.677 1272.56 861.298 1231.12C915.324 1207.43 936.787 1161.55 954.549 1105.3C972.311 1049.05 991.553 991.693 1031.52 948.397C1100.72 873.647 1091.09 852.554 1109.97 771.883C1121.81 721.556 1153.26 688.621 1192.86 655.316C1223.2 629.783 1257.24 608.69 1291.66 588.707C1342.72 559.473 1369.74 533.939 1377.88 495.084C1387.13 452.528 1365.3 405.161 1329.03 381.108C1292.77 357.055 1238 359.275 1181.38 378.888C1175.09 381.108 1089.24 418.483 1020.79 401.091C1016.72 399.981 1003.02 411.822 1001.91 418.113C996.363 444.757 991.553 472.141 979.341 496.934C949.738 557.253 893.492 621.271 828.364 622.752L822 622.752Z" fill="#99E6FF" stroke="black" stroke-width="20" stroke-miterlimit="10"/>
<path d="M646.672 807.776C586.726 842.191 587.836 939.885 624.84 997.983C630.761 1007.23 637.791 1016.12 646.672 1022.78C658.144 1031.29 672.575 1035.36 686.637 1037.95C738.443 1047.2 795.799 1032.77 831.693 994.282C867.588 955.797 876.839 892.518 846.865 849.222C828.363 822.579 798.02 805.926 766.566 798.525C735.113 791.124 696.628 779.282 646.672 807.776Z" fill="white" stroke="black" stroke-width="20" stroke-miterlimit="10"/>
<path d="M655.553 1012.42C669.655 1012.42 681.086 1000.98 681.086 986.882C681.086 972.78 669.655 961.349 655.553 961.349C641.452 961.349 630.021 972.78 630.021 986.882C630.021 1000.98 641.452 1012.42 655.553 1012.42Z" fill="black"/>
</svg>
