<svg width="1760" height="1760" viewBox="0 0 1760 1760" fill="none" xmlns="http://www.w3.org/2000/svg">
<rect width="1760" height="1760" fill="white"/>
<path d="M684.277 635.641C659.328 599.804 662.504 549.451 622.585 567.596C572.687 590.731 602.172 676.467 577.677 725.913C558.625 763.565 531.862 796.679 507.82 831.609C453.386 910.087 413.014 998.091 388.972 1090.63C373.549 1150.51 364.93 1215.38 388.972 1272.54C413.014 1329.7 478.335 1372.79 536.851 1352.83C557.718 1345.57 575.863 1331.96 595.822 1322.89C702.422 1277.07 826.26 1387.76 935.582 1349.65C1020.41 1320.17 1069.4 1189.52 1152.41 1155.5C1168.29 1149.15 1291.22 1133.27 1303.92 961.347C1309.82 879.694 1297.12 795.772 1317.98 716.841C1338.4 638.816 1350.64 615.227 1384.66 485.943C1394.64 448.291 1356.99 404.289 1318.44 402.021C1300.74 401.114 1259.92 429.693 1243.59 437.404C1205.94 455.096 1191.42 451.467 1153.77 469.158C1125.19 482.314 1096.62 495.923 1071.21 513.614C1038.1 536.749 1010.88 567.143 980.944 594.814C946.015 627.022 906.55 655.147 861.642 670.117C816.734 685.086 715.577 680.55 684.277 636.094V635.641Z" fill="#3EC790" stroke="black" stroke-width="20" stroke-miterlimit="10"/>
<path d="M726.01 899.199C664.318 933.675 664.771 1032.11 703.329 1090.63C709.679 1100.16 716.937 1108.78 726.01 1115.58C738.257 1124.2 752.773 1128.28 767.743 1131C821.723 1140.08 881.147 1126.01 918.798 1087C955.994 1048.44 965.974 984.482 934.674 940.933C915.622 914.169 883.869 897.385 850.755 890.127C817.641 882.869 778.176 870.621 726.01 899.199Z" fill="white" stroke="black" stroke-width="20" stroke-miterlimit="10"/>
<path d="M818.549 1043.45C833.08 1043.45 844.859 1032.08 844.859 1018.05C844.859 1004.02 833.08 992.647 818.549 992.647C804.019 992.647 792.239 1004.02 792.239 1018.05C792.239 1032.08 804.019 1043.45 818.549 1043.45Z" fill="black"/>
</svg>
