<svg width="1760" height="1760" viewBox="0 0 1760 1760" fill="none" xmlns="http://www.w3.org/2000/svg">
<rect width="1760" height="1760" fill="white"/>
<path d="M402.795 1034.47C385.045 1110.18 372.729 1197.48 420.182 1259.06C426.34 1267.03 434.31 1275 444.09 1277.54C458.942 1281.16 473.432 1272.46 485.748 1263.41C518.35 1239.14 546.242 1208.35 581.017 1187.34C615.792 1166.33 661.797 1156.54 696.934 1176.83C738.592 1201.1 754.53 1260.51 800.535 1275.36C840.381 1288.04 880.952 1259.79 909.207 1229.36C937.462 1198.93 964.267 1162.7 1004.48 1151.47C1096.12 1125.75 1175.82 1247.47 1270 1234.79C1322.16 1227.55 1360.92 1178.28 1370.7 1126.84C1380.48 1075.4 1367.08 1021.79 1349.33 972.522C1331.58 923.256 1309.12 874.714 1300.43 822.55C1283.76 722.207 1316.73 609.548 1261.67 524.419C1223.99 466.821 1155.17 438.566 1088.52 420.815C1078.01 417.917 1066.78 415.382 1056.28 418.28C1040.34 422.627 1030.2 437.841 1020.05 450.882C979.119 501.959 910.293 529.49 845.452 520.072C779.887 510.653 710.699 468.27 653.465 500.873C616.517 521.883 598.405 568.613 559.283 584.19C546.966 588.899 533.564 590.348 520.885 595.058C475.967 611.721 457.855 664.61 445.539 710.977C414.749 825.811 423.443 945.715 402.795 1035.19V1034.47Z" fill="#FCFFA6" stroke="black" stroke-width="20" stroke-miterlimit="10"/>
<path d="M769.747 827.985C711.064 861.674 712.151 957.308 748.375 1014.18C754.171 1023.24 761.053 1031.93 769.747 1038.45C780.976 1046.78 795.104 1050.77 808.869 1053.3C859.583 1062.36 915.73 1048.23 950.867 1010.56C986.004 972.885 995.061 910.94 965.719 868.557C947.607 842.475 917.903 826.174 887.113 818.929C856.322 811.684 818.649 800.092 769.747 827.985Z" fill="white" stroke="black" stroke-width="20" stroke-miterlimit="10"/>
<path d="M857.771 1021.42C871.575 1021.42 882.766 1010.23 882.766 996.43C882.766 982.625 871.575 971.435 857.771 971.435C843.967 971.435 832.776 982.625 832.776 996.43C832.776 1010.23 843.967 1021.42 857.771 1021.42Z" fill="black"/>
</svg>
