<svg width="1760" height="1760" viewBox="0 0 1760 1760" fill="none" xmlns="http://www.w3.org/2000/svg">
<rect width="1760" height="1760" fill="white"/>
<path d="M672.263 971.007C598.002 926.642 509.274 889.028 438.871 939.18C368.468 989.332 346.286 1096.39 391.614 1170.17C405.598 1192.83 425.369 1212.6 448.998 1224.66C518.436 1259.86 602.824 1225.14 679.496 1237.68C741.219 1247.81 793.299 1286.87 846.824 1319.17C900.35 1351.48 964.967 1377.04 1024.28 1356.79C1103.36 1330.27 1139.05 1233.34 1214.75 1198.14C1244.17 1184.15 1277.92 1181.26 1307.34 1167.27C1391.24 1127.25 1412.94 1016.82 1401.37 924.713C1389.8 832.608 1354.11 741.949 1365.2 649.844C1370.03 607.89 1384.49 567.865 1389.8 526.394C1395.1 484.922 1412.94 427.537 1383.53 397.639C1354.11 367.741 1275.51 343.148 1257.67 363.401C1201.25 428.984 1232.6 493.12 1163.16 554.845C1124.58 589.083 1033.92 625.25 984.255 639.717C962.556 645.986 939.409 654.666 927.354 673.473C904.69 709.64 933.623 754.487 941.338 796.441C953.394 863.47 904.208 930.5 842.002 957.505C779.796 984.509 703.124 989.814 673.227 971.971L672.263 971.007Z" fill="#FF6640" stroke="black" stroke-width="20" stroke-miterlimit="10"/>
<path d="M1022.35 925.677C974.609 952.681 975.574 1029.84 1004.99 1076.13C1009.81 1083.36 1015.12 1090.6 1022.35 1095.9C1031.51 1102.65 1042.6 1106.03 1054.17 1107.96C1095.16 1115.19 1140.49 1104.1 1168.94 1073.72C1197.39 1043.34 1204.63 993.188 1181 958.95C1166.53 937.732 1142.42 924.712 1117.34 918.926C1092.27 913.139 1061.89 903.494 1022.35 926.159V925.677Z" fill="white" stroke="black" stroke-width="20" stroke-miterlimit="10"/>
<path d="M1092.27 1039.48C1103.46 1039.48 1112.52 1030.41 1112.52 1019.23C1112.52 1008.04 1103.46 998.974 1092.27 998.974C1081.09 998.974 1072.02 1008.04 1072.02 1019.23C1072.02 1030.41 1081.09 1039.48 1092.27 1039.48Z" fill="black"/>
</svg>
