<svg width="1760" height="1760" viewBox="0 0 1760 1760" fill="none" xmlns="http://www.w3.org/2000/svg">
<rect width="1760" height="1760" fill="white"/>
<path d="M424.234 574.673C379.406 688.932 362.459 813.578 375.033 935.49C376.673 952.984 379.406 971.025 389.246 985.239C411.113 1016.95 457.581 1018.59 494.755 1008.75C531.929 998.906 569.65 982.506 607.371 990.16C671.879 1002.73 702.493 1077.63 709.6 1142.69C716.706 1207.74 713.973 1279.91 753.88 1332.39C798.161 1390.88 887.27 1404.55 953.418 1371.75C1019.57 1338.95 1062.21 1269.52 1075.33 1197.36C1092.82 1100.59 1069.31 985.786 1138.19 915.809C1163.34 890.661 1196.69 875.901 1226.76 856.766C1312.04 803.191 1372.17 711.346 1386.39 611.302C1394.59 554.992 1384.75 489.389 1338.83 454.948C1312.59 435.267 1278.14 428.706 1245.34 423.239C1163.89 409.572 1082.98 395.358 1001.53 381.691C942.484 371.851 879.07 362.01 824.402 385.518C753.334 416.133 711.786 495.403 640.171 524.924C565.276 555.539 445.007 518.911 423.687 573.033L424.234 574.673Z" fill="#FF3B83" stroke="black" stroke-width="20" stroke-miterlimit="10"/>
<path d="M1002.62 1103.87C1011.91 1148.15 987.855 1194.62 952.321 1220.86C943.574 1227.42 934.281 1232.89 923.347 1235.62C903.667 1240.54 882.347 1233.98 864.853 1223.05C834.239 1203.37 812.919 1168.93 809.639 1132.3C809.639 1128.47 809.638 1124.1 811.825 1121.36C813.465 1119.72 816.199 1118.63 818.385 1118.08C865.4 1106.06 913.507 1096.76 962.161 1090.75C977.468 1088.56 999.336 1088.02 1002.62 1103.87Z" fill="white" stroke="black" stroke-width="20" stroke-miterlimit="10"/>
<path d="M907.496 1179.32C915.346 1179.32 921.709 1172.22 921.709 1163.46C921.709 1154.71 915.346 1147.61 907.496 1147.61C899.646 1147.61 893.282 1154.71 893.282 1163.46C893.282 1172.22 899.646 1179.32 907.496 1179.32Z" fill="black"/>
</svg>
