<svg width="1760" height="1760" viewBox="0 0 1760 1760" fill="none" xmlns="http://www.w3.org/2000/svg">
<g clip-path="url(#clip0_10_188)">
<path d="M1760 0H0V1760H1760V0Z" fill="white"/>
<path d="M1200.09 465.347C1089.88 488.636 975.519 490.715 864.482 471.585C798.36 460.356 731.406 441.226 665.699 454.534C599.992 467.842 537.612 528.144 550.504 593.853C554.663 615.478 566.723 635.44 572.129 657.066C584.605 707.803 558.821 760.619 524.304 799.712C489.788 838.804 446.954 870.411 414.516 911.166C387.069 946.1 367.939 987.272 358.79 1030.94C356.295 1043.83 354.631 1057.55 357.542 1070.45C367.107 1109.96 416.595 1126.59 456.519 1119.1C542.603 1103.3 602.487 1014.72 688.987 1001.41C700.631 999.748 713.108 999.332 723.92 1004.74C744.297 1015.14 749.704 1040.92 751.367 1063.38C754.694 1114.11 748.872 1166.1 762.596 1214.76C776.319 1263.41 816.658 1310.82 867.393 1309.58C925.615 1307.91 962.627 1248.03 985.499 1194.79C1005.05 1148.63 1022.51 1101.22 1037.48 1053.4C1054.95 997.669 1078.65 931.544 1136.04 919.068C1173.89 911.166 1211.31 931.128 1246.66 946.932C1282.01 962.735 1326.51 973.548 1357.28 949.843C1370.59 939.862 1378.91 924.474 1385.56 909.503C1412.18 846.706 1407.19 763.53 1351.88 723.606C1332.33 709.466 1308.63 701.981 1287.42 690.336C1266.21 678.692 1246.25 659.977 1243.75 635.856C1242.5 624.212 1245.42 612.983 1249.99 602.17C1264.55 568.484 1295.73 537.709 1289.5 501.112C1282.84 463.268 1232.94 458.693 1200.09 465.347Z" fill="#DEB0FF" stroke="black" stroke-width="20" stroke-miterlimit="10"/>
<path d="M764.464 647.314C734.105 700.962 797.526 795.967 857.827 846.704C867.392 855.022 877.788 862.092 887.769 867.082C901.077 873.32 913.553 874.568 924.781 874.152C966.784 872.489 999.221 846.704 1002.13 800.542C1005.04 754.38 974.685 689.503 928.108 652.074C899.413 629.201 868.223 618.804 841.608 617.972C814.993 617.141 780.06 619.636 761.762 651.658L764.464 647.314Z" fill="white" stroke="black" stroke-width="20" stroke-miterlimit="10"/>
<path d="M967.199 783.492C980.521 783.492 991.32 768.968 991.32 751.053C991.32 733.138 980.521 718.615 967.199 718.615C953.878 718.615 943.079 733.138 943.079 751.053C943.079 768.968 953.878 783.492 967.199 783.492Z" fill="black"/>
</g>
<defs>
<clipPath id="clip0_10_188">
<rect width="1760" height="1760" fill="white"/>
</clipPath>
</defs>
</svg>
