<svg width="1760" height="1760" viewBox="0 0 1760 1760" fill="none" xmlns="http://www.w3.org/2000/svg">
<rect width="1760" height="1760" fill="white"/>
<path d="M690.086 535.267C664.002 542.84 635.395 552.937 622.773 576.917C607.628 605.946 624.456 642.128 648.436 664.425C672.416 686.723 703.127 700.186 727.949 721.642C779.695 766.659 797.364 846.173 769.598 908.439C763.288 923.163 753.612 937.468 739.728 945.461C714.486 959.766 683.355 949.248 656.43 938.73C600.897 916.432 533.585 894.555 486.046 930.316C462.486 947.986 449.445 976.594 437.665 1003.94C418.733 1047.27 400.223 1090.61 381.291 1133.94C363.201 1176.01 345.111 1223.97 364.042 1265.62C390.126 1322.42 466.273 1330.41 528.957 1329.15C747.722 1324.94 966.066 1308.12 1182.73 1278.67C1211.76 1274.88 1241.63 1270.25 1267.71 1257.21C1340.91 1220.19 1363.63 1128.05 1375.41 1046.85C1396.86 897.5 1406.12 746.464 1403.59 595.429C1403.17 561.772 1401.49 526.852 1388.87 495.72C1376.25 464.587 1349.32 436.82 1315.67 432.192C1292.11 429.247 1268.55 437.662 1246.25 445.234C1066.19 507.5 866.36 483.098 690.927 534.846L690.086 535.267Z" fill="#9DC0EB" stroke="black" stroke-width="20" stroke-miterlimit="10"/>
<path d="M1077.55 887.822C1076.29 907.175 1075.03 928.631 1080.49 944.618C1086.38 961.867 1097.32 966.074 1107.42 968.178C1149.49 977.854 1192.4 979.537 1234.89 972.806C1244.15 971.543 1253.82 969.44 1262.24 959.343C1279.91 937.466 1284.11 887.401 1286.22 844.068C1289.58 775.912 1288.32 689.666 1259.29 660.637C1249.2 650.54 1237.42 650.119 1226.06 650.961C1194.08 652.644 1161.69 658.534 1130.14 669.052C1120.88 671.997 1110.78 676.204 1103.63 689.246C1096.48 702.288 1082.18 835.233 1078.39 887.822H1077.55Z" fill="white" stroke="black" stroke-width="20" stroke-miterlimit="10"/>
<path d="M1188.61 852.484C1199.3 852.484 1207.96 835.343 1207.96 814.199C1207.96 793.055 1199.3 775.914 1188.61 775.914C1177.92 775.914 1169.26 793.055 1169.26 814.199C1169.26 835.343 1177.92 852.484 1188.61 852.484Z" fill="black"/>
</svg>
