<svg width="1760" height="1760" viewBox="0 0 1760 1760" fill="none" xmlns="http://www.w3.org/2000/svg">
<g clip-path="url(#clip0_10_182)">
<path d="M1760 0H0V1760H1760V0Z" fill="white"/>
<path d="M1098.22 550.736C1012.23 576.628 960.445 667.25 878.61 704.238C845.322 719.496 809.258 731.98 772.733 731.055C736.208 730.13 697.834 712.561 680.727 680.196C644.201 610.842 714.478 510.511 660.383 453.178C646.513 438.383 626.632 430.523 607.213 424.05C570.226 412.028 530.002 403.706 492.09 412.953C454.178 422.2 419.039 452.254 415.34 491.092C413.491 510.973 419.502 530.854 425.512 550.273C463.424 679.733 475.445 816.591 461.113 950.675C455.564 1001.53 436.146 1052.39 476.832 1083.83C560.979 1148.56 607.676 1158.27 664.544 1202.2C713.091 1239.65 730.66 1303.45 759.325 1357.55C787.991 1411.64 846.246 1463.43 904.039 1444.01C923.457 1437.54 939.64 1423.67 952.123 1407.95C1012.69 1330.73 990.96 1211.44 1050.6 1133.77C1089.9 1082.91 1155.55 1061.18 1209.65 1026.96C1318.76 957.61 1383.49 806.882 1322.46 692.679C1280.85 614.541 1186.32 524.538 1092 552.741L1098.22 550.736Z" fill="#DAD4FF" stroke="black" stroke-width="20" stroke-miterlimit="10"/>
<path d="M1061.94 723.893C1016.63 751.173 1013.16 831.385 1040.9 878.083C1045.52 885.481 1050.61 892.416 1057.54 897.964C1066.32 904.9 1076.96 908.136 1087.59 909.986C1126.89 917.384 1170.35 905.825 1197.63 875.309C1224.91 844.793 1231.84 793.934 1209.19 759.257C1195.32 737.989 1172.2 724.581 1148.16 719.032C1124.12 713.484 1094.99 703.774 1057.54 726.43L1061.94 723.893Z" fill="white" stroke="black" stroke-width="20" stroke-miterlimit="10"/>
<path d="M1125.04 840.63C1135.77 840.63 1144.46 831.522 1144.46 820.287C1144.46 809.051 1135.77 799.943 1125.04 799.943C1114.32 799.943 1105.62 809.051 1105.62 820.287C1105.62 831.522 1114.32 840.63 1125.04 840.63Z" fill="black"/>
</g>
<defs>
<clipPath id="clip0_10_182">
<rect width="1760" height="1760" fill="white"/>
</clipPath>
</defs>
</svg>
